<svg xmlns="http://www.w3.org/2000/svg" viewBox="0 0 492.18 628.33"><defs><style>.a,.b,.c{fill:#0070c0;}.a{opacity:0.6;}.c{opacity:0.8;}</style></defs><title>Laney</title><path class="a" d="M226.67,622.58s324-55,116-622.58h0A20.22,20.22,0,0,0,331.5,3.36h0C410.67,478.58,41.16,502.7,41.16,502.7h0C54,521.62,70.32,540.34,90.67,558.58c35.11,31.5,84.12,53.95,136,63.95"/><path class="b" d="M41.16,502.7S410.67,478.58,331.51,3.36h0a18.78,18.78,0,0,0-8.27,14.22c-7.74,84-28.45,217.73-82.55,242.23-79.57,36-116.61-50-130.74-98.66A15.94,15.94,0,0,0,81.88,156C37.91,214.5-53,364.1,41.16,502.7"/><path class="c" d="M226.68,622.53c91.45,17.61,191.86-3.47,241-81.95,76.82-122.71-45.95-404.35-107.8-529.77A18.83,18.83,0,0,0,342.62,0h0c208,567.58-116,622.58-116,622.58"/></svg>