<svg xmlns="http://www.w3.org/2000/svg" viewBox="0 0 777 354.63"><defs><style>.a{fill-rule:evenodd;fill:#fff}</style></defs><title>Laney Textual</title><path class="a" d="M513.89,261.17a20.62,20.62,0,0,0-15.38,6.23q-6.11,6.24-7.52,17.88h42.45q-.37-11.44-5.48-17.78t-14.07-6.33Zm-73.29,0a21.45,21.45,0,0,0-17.55,8.21q-6.65,8.21-6.64,21.71t6.09,21.11a19.7,19.7,0,0,0,16.1,7.53q10.65,0,17-6.92a24.19,24.19,0,0,0,6.32-16.93V282.76a21.66,21.66,0,0,0-5.9-15.19q-5.91-6.4-15.39-6.4Zm-137.3,0a20.62,20.62,0,0,0-15.38,6.23q-6.1,6.24-7.52,17.88h42.45q-.39-11.44-5.48-17.78t-14.07-6.33Zm-169.29,0a20.63,20.63,0,0,0-15.39,6.23q-6.11,6.24-7.52,17.88h42.46q-.39-11.44-5.49-17.78T134,261.17Zm446-5.11a17.66,17.66,0,0,1,6.58,1.16v6.34a11.64,11.64,0,0,0-7-2.13q-7.8,0-13.09,8.08t-5.29,22.94v31.09h-5.81V257.35h5.81V272h.25a24.11,24.11,0,0,1,7.17-11.77,16.92,16.92,0,0,1,11.35-4.2Zm-65.81-.32q12.33,0,18.91,8.66t6.58,23.66v2.65H490.73q0,13.64,6.29,21.33t17.26,7.69q11.1,0,21.68-8.21v6.33a38.56,38.56,0,0,1-22.9,7.31q-12.78,0-20.65-9.18t-7.87-25.92q0-14.47,8.22-24.4a26.48,26.48,0,0,1,21.39-9.92Zm-73.68,0q14.58,0,21.16,12.08h.26V257.35h5.94v61.28q0,18.67-8.13,27.34t-25.29,8.66a44,44,0,0,1-19.68-5v-6.21q10.45,5.82,19.81,5.82,27.34,0,27.35-29v-8.59h-.26q-7.8,13.5-23.8,13.51a25.2,25.2,0,0,1-19.91-8.86q-7.71-8.85-7.71-24.69t8.32-25.85q8.33-10,21.94-10Zm-66.9,0q10.71,0,16.38,7.14t5.68,20.39v40.27h-5.94V285q0-23.85-17.16-23.85a19.89,19.89,0,0,0-15.68,7q-6.12,7-6.12,17.35v38h-5.94V257.35h5.94v12H351q7.23-13.65,22.59-13.64Zm-70,0q12.33,0,18.91,8.66t6.58,23.66v2.65H280.14q0,13.64,6.29,21.33t17.26,7.69q11.1,0,21.68-8.21v6.33a38.57,38.57,0,0,1-22.91,7.31q-12.76,0-20.64-9.18T274,290.06q0-14.47,8.22-24.4a26.48,26.48,0,0,1,21.39-9.92Zm-58.26,0a28.72,28.72,0,0,1,14.58,3.49V266a27.54,27.54,0,0,0-15.22-4.78q-6.53,0-10.52,3.39a11,11,0,0,0-4,8.82,11.35,11.35,0,0,0,2.52,7.66q2.51,2.94,11.09,6.76,10.32,4.65,14.2,8.63T261.82,307a16.52,16.52,0,0,1-5.91,13q-5.9,5.13-16.29,5.14-9.54,0-15.93-4.53v-7.17a24.69,24.69,0,0,0,8.13,4.59,25.47,25.47,0,0,0,8.26,1.68q15.54,0,15.54-12.74a9.73,9.73,0,0,0-3.42-7.49q-3.4-3.11-11.09-6.4-9.5-4.14-13.33-8.57a17,17,0,0,1,2.33-23.82,23.42,23.42,0,0,1,15.19-5Zm-51.61,0a28.77,28.77,0,0,1,14.58,3.49V266A27.57,27.57,0,0,0,193,261.17q-6.51,0-10.52,3.39a11,11,0,0,0-4,8.82A11.35,11.35,0,0,0,181,281q2.52,2.94,11.1,6.76,10.32,4.65,14.19,8.63T210.2,307a16.54,16.54,0,0,1-5.9,13q-5.91,5.13-16.29,5.14-9.56,0-15.94-4.53v-7.17a24.9,24.9,0,0,0,8.13,4.59,25.52,25.52,0,0,0,8.26,1.68Q204,319.73,204,307a9.73,9.73,0,0,0-3.42-7.49q-3.42-3.11-11.1-6.4Q180,289,176.17,284.53a17,17,0,0,1,2.32-23.82,23.45,23.45,0,0,1,15.2-5Zm-59.43,0q12.33,0,18.91,8.66t6.58,23.66v2.65H110.84q0,13.64,6.29,21.33t17.26,7.69q11.1,0,21.68-8.21v6.33a38.56,38.56,0,0,1-22.9,7.31q-12.78,0-20.65-9.18t-7.87-25.92q0-14.47,8.23-24.4a26.44,26.44,0,0,1,21.38-9.92Zm-107.87,0a18.94,18.94,0,0,1,12.35,4.17,20.48,20.48,0,0,1,6.94,10.95,25.31,25.31,0,0,1,8.87-11.15,21.68,21.68,0,0,1,12.55-4q21.68,0,21.68,26.89v40.91H82.84V283.72q0-12.47-3.9-17.51t-12.36-5q-7.8,0-13.48,6.72t-5.68,16.87v38.78H41.49V283.27q0-22.09-16.78-22.1-8.07,0-13.42,6.75T5.94,285.41v38.13H0V257.35H5.94v11h.25q6.92-12.6,20.2-12.6Zm206.84-114.2-38.1,5.25q-17.58,2.47-26.53,8.73t-8.94,22.18a24.19,24.19,0,0,0,8.25,18.93q8.25,7.34,22,7.34,18.81,0,31.08-13.22t12.26-33.45ZM547.67,81a40.83,40.83,0,0,0-30.39,12.82q-12.5,12.83-15.42,33.53h85.29q-.15-21.93-10.56-34.14T547.67,81Zm80.18-17.62h28.07l42.73,121.76q.76,2.32,3.23,12.06h.93q.77-3.72,3.09-11.75L750.78,63.35H777L704.35,246.92q-19.43,49.14-54.6,49.14a57.71,57.71,0,0,1-16.5-2V271.34a46.89,46.89,0,0,0,15,2.78q19.13,0,28.69-22.87l12.65-30L627.85,63.35Zm-79.72-3.71q31,0,48,20.09t17,55.78V148.8H501.55q.61,26.43,14.19,40.8T553.07,204q26.67,0,49-17.62v23.8q-20.82,15.14-55.06,15.14-33.46,0-52.6-21.56t-19.12-60.65q0-36.93,20.9-60.18t51.9-23.26Zm-163.89,0q25.92,0,39.64,16.77t13.73,48.44v96.73h-25.3V131.34Q412.31,81,375.6,81a39.77,39.77,0,0,0-31.38,14.29q-12.42,14.3-12.42,36.08v90.24H306.5V63.35h25.3V89.62h.62q17.88-30,51.82-30Zm-181.4,0q55.68,0,55.68,59V221.58H233.23V196.86h-.62q-16.5,28.42-48.59,28.43-23.6,0-36.94-12.52t-13.34-33.22q0-44.34,52.14-51.61l47.35-6.64Q233.23,81,200.68,81q-28.53,0-51.51,19.47v-26q23.28-14.83,53.67-14.84ZM.21,0H26.12V198.09H115v23.49H.21V0Z"/></svg>