<svg width="250" height="250" fill="none" viewBox="1 0 1000 1000" xmlns="http://www.w3.org/2000/svg"><path fill-rule="evenodd" clip-rule="evenodd" d="M.792 627.122c10.717-7.095 22.384-12.028 33.929-14.343 7.32-1.469 8.844-2.137 8.844-3.883 0-6.638 8.07-15.34 16.916-18.242 6.88-2.258 20.741-1.261 30.196 2.17 10.475 3.802 10.852 4.465 4.418 7.758-2.977 1.524-8.103 5.085-11.394 7.913-15.523 13.349-25.333 17.13-34.762 13.395-3.967-1.572-9.913 13.849-11.209 29.066l-.49 5.743 4.313 1.945c16.414 7.401 20.143 31.409 6.837 44.011-17.518 16.589-46.219 4.367-46.219-19.683 0-14.64 9.867-25.321 24.924-26.983l7.025-.774.829-8.311c.983-9.876 3.398-17.898 7.134-23.714 3.806-5.926 3.126-8.062-2.447-7.671-5.479.384-18.462 4.183-24.395 7.135-3.556 1.771-9.779 5.58-14.449 8.69v-4.222zm0 21.47c.941 3.993.91 8.243 0 12.328v-12.328zM64.132 1000c11.798-7.014 25.377-12.139 35.441-13.23 2.786-.302 3.428-1.055 4.735-5.555 2.395-8.252 9.71-14.39 19.628-16.471 2.551-.534 7.639-.715 11.306-.403 7.623.652 24.115 5.874 24.725 7.83.225.719-1.746 2.275-4.38 3.457-2.633 1.181-9.058 5.612-14.278 9.844-14.059 11.403-23.997 14.798-32.351 11.061-1.179-.528-2.12.214-3.88 3.467h-4.054c.134-.267.269-.529.405-.784 4.896-9.184 4.268-10.172-5.28-8.316-9.085 1.766-16.974 4.573-25.24 9.1h-6.778zm397.185 0c-3.575-2.03-7.319-4.684-11.038-7.889-3.973-3.421-9.349-7.23-11.946-8.462-2.597-1.232-4.723-2.703-4.723-3.266 0-1.175 10.617-5.357 17.224-6.786 6.85-1.483 18.639-.413 23.653 2.145 5.482 2.796 9.795 7.82 11.447 13.338 1.235 4.12 1.45 4.259 8.621 5.58 5.142.948 10.931 2.822 16.698 5.34h-9.912c-8.187-2.759-15.013-3.936-15.718-1.822-.079.238.059.892.363 1.822h-6.374c1.08-.685 1.781-1.542 1.781-2.392 0-2.249-7.398-8.326-13.126-10.781-3.552-1.522-4.673-2.498-3.836-3.336 1.83-1.829 8.718 1.131 14.527 6.243l5.028 4.424-.827-3.313c-1.208-4.837-5.492-9.942-10.23-12.19-5.535-2.627-16.17-3.111-24.142-1.1-3.57.9-6.973 1.934-7.56 2.298-.589.364.906 1.99 3.323 3.615 2.416 1.623 7.069 5.151 10.339 7.838 4.404 3.619 9.925 6.906 14.284 8.694h-7.856zm212.725 0c-3.089-2.205-8.591-5.516-12.349-7.421-7.466-3.787-8.37-5.127-4.446-6.59 13.255-4.943 29.906-.458 42.871 11.546 1.052.974 1.948 1.792 2.708 2.465h-5c-4.117-3.776-8.964-7.095-13.631-9.205-6.525-2.949-15.587-4.352-19.282-2.986-2.433.899-2.127 1.248 4.446 5.093 3.18 1.86 6.718 4.346 10.233 7.098h-5.55zm32.179 0c-.479-5.381 2.082-17.051 5.439-24.104 4.345-9.132 15.58-20.643 24.772-25.384 3.664-1.888 7.005-3.457 7.427-3.487 2.328-.163 1.442 2.519-2.59 7.845-10.973 14.497-16.699 32.172-14.248 43.978l.238 1.152h-3.441c-.076-.353-.148-.71-.215-1.071-1.979-10.702 1.512-24.744 9.407-37.856 2.094-3.478 3.416-6.323 2.938-6.323-2.22 0-11.854 8.672-16.214 14.594-6.994 9.5-10.109 19.082-9.786 30.656h-3.727zm26.513 0 1.704-1.882c6.762-7.472 13.836-11.67 21.466-12.741 5.91-.83 14.614.539 15.233 2.395.242.725-2.718 2.912-6.58 4.86-3.161 1.595-6.843 4.263-10.379 7.368h-5.06c3.505-3.58 7.117-6.671 9.994-8.362 4.946-2.908 5.003-3.005 2.023-3.349-7.403-.85-17.452 4.267-24.164 11.711h-4.237zm95.619 0c.4-.591.801-1.12 1.198-1.572 1.93-2.199 5.019-4.681 6.863-5.519 4.573-2.074 12.295-1.007 17.464 2.415 1.95 1.29 3.584 2.851 4.899 4.676h-4.795a15.42 15.42 0 0 0-4.211-3.023c-5.779-2.797-9.043-2.799-13.624-.005-1.209.736-2.387 1.778-3.496 3.028h-4.298zm172.437-338.572c-1.655 6.87-5.796 13.222-11.953 17.028-13.651 8.441-31.449 3.184-39.181-11.573-2.984-5.695-2.794-18.001.371-23.998 6.992-13.245 23.418-18.528 36.89-11.863l4.694 2.322 8.849-5.924.33-.22v4.222c-3.42 2.283-5.981 4.174-5.989 4.575-.008.431 1.223 2.606 2.735 4.834 1.518 2.234 2.594 4.701 3.254 7.283v13.314zm0-103.362c-2.888-1.25-4.545-3.426-6.389-7.135-2.583-5.202-3.727-20.003-1.958-25.366 1.26-3.815 4.422-7.451 8.347-9.81v3.965a14.336 14.336 0 0 0-4.056 4.924c-2.492 4.988-2.47 15.404.047 22.78.99 2.902 2.197 4.979 4.009 6.432v4.21zm0-172.998c-6.229-3.443-12.337-7.805-17.566-12.756-19.711-18.659-22.789-37.568-8.401-51.618l4.345-4.243-4.013-3.898c-4.374-4.248-9.816-14.881-8.876-17.336.773-2.012 11.091-3.274 18.695-2.286 3.875.505 10.65 2.85 15.816 5.375v4.202c-2.149-1.625-4.821-3.192-7.089-3.993-6.04-2.131-20.013-3.305-22.122-1.859-2.518 1.727-.543 6.429 5.209 12.396l5.277 5.475 6.518-3.288c4.248-2.143 8.203-3.287 11.361-3.287.286 0 .576-.005.846-.014v3.256c-3.515.308-7.303 1.474-11.355 3.499-7.959 3.977-16.328 11.685-18.607 17.138-5.443 13.03 3.659 31.207 22.279 44.494a89.822 89.822 0 0 0 7.683 4.906v3.837zM858.9 0c2.651 3.769 3.967 8.646 3.928 14.582-.057 8.742-2.193 14.083-7.489 18.732-3.222 2.829-4.947 3.495-9.064 3.495-9.257 0-22.58-8.92-24.449-16.37-.945-3.763 2.652-14.769 6.412-20.439h4.263c-5.131 5.91-8.696 16.246-6.615 21.272 2.031 4.901 12.114 11.302 18.82 11.946 5.166.496 5.834.265 9.333-3.234 7.912-7.912 7.36-22.491.113-29.984h4.748zM753.982 0c-5.141 4.542-9.943 9.984-12.351 14.358l-2.571 4.671h7.115c10.085 0 18.807 4.546 29.738 15.5 14.292 14.32 25.572 33.451 30.053 50.971 2.772 10.84 2.69 15.239-.456 23.9-3.635 10.018-7.453 16.107-14.543 23.197-18.735 18.735-49.431 22.707-67.164 8.69-18.02-14.244-33.541-53.645-30.771-78.119.854-7.553 4.338-17.714 6.763-19.726 2.675-2.221 1.906-3.055-3.987-4.318-12.397-2.659-28.86-.745-42.378 4.928-3.86 1.619-8.373 3.505-10.031 4.191-5.396 2.23-4.893-.418 1.136-5.974 11.197-10.322 31.224-20.203 43.99-21.703 3.425-.402 6.228-1.081 6.228-1.508 0-1.25-14.389-14.638-20.474-19.058h5.534c10.384 8.164 20.495 18.583 20.495 21.964 0 1.079-1.664 1.513-5.834 1.523-8.307.019-16.536 2.455-28.286 8.376-13.86 6.984-14.579 8.364-2.771 5.326 11.509-2.961 25.777-3.349 34.987-.95l6.343 1.651 5.813-4.399c3.198-2.42 9.876-6.27 14.842-8.554 8.448-3.888 9.235-4.548 12.231-10.271 2.26-4.316 6.682-9.907 11.315-14.666h5.034zm-242.34 0c5.147 2.273 10.262 5.054 14.872 8.137l8.121 5.432 4.667-2.382c5.255-2.68 14.932-3.186 20.43-1.068 13.669 5.27 19.845 21.415 13.448 35.154-4.297 9.229-12.054 13.941-22.994 13.967-19.992.051-32.258-23.302-20.738-39.481l2.362-3.317-3.817-3.218C522.388 8.499 511.288 3.235 501.847 0h9.795zm-25.6 0c.555 1.654 1.586 4.098 2.826 6.618 3.729 7.581 5.86 16.143 5.86 23.541v4.161l6.582.475c9.257.671 16.2 5.109 20.318 12.993 8.421 16.122-.669 34.3-18.649 37.292-11.509 1.915-24.471-6.452-27.815-17.954-2.032-6.988-1.505-12.757 1.749-19.133 2.33-4.569 8.572-10.57 12.186-11.716 1.893-.601 2.292-1.642 2.279-5.932-.023-7.565-2.987-19.012-6.171-23.84-2.332-3.534-3.095-4.012-4.883-3.055-4.165 2.229-11.031.837-18.698-3.45h7.971c1.982.782 3.698 1.233 4.924 1.238 1.738.008 3.497-.493 4.801-1.238h6.72zM104.986 0c-.391.729-.82 1.578-1.301 2.561-3.722 7.609-5.67 15.947-5.67 24.278 0 4.743.291 5.357 2.846 5.998 4.701 1.181 12.189 9.605 14.367 16.164 5.941 17.885-7.294 36.061-26.131 35.886-15.414-.143-26.64-11.435-26.64-26.795 0-8.12 2.09-13.757 7-18.88 4.978-5.191 11.196-8.107 18.756-8.793l6.47-.586.017-4.569c.031-7.297 2.754-18.221 6.238-25.264h4.048zM70.597 0c-3.093 1.71-6.242 3.661-9.53 5.89-6.438 4.365-7.414 5.707-5.163 7.098 4.681 2.894 7.1 19.922 3.912 27.549C53.72 55.128 36.61 61.281 22.003 54.134c-16.66-8.151-20.048-30.225-6.685-43.586 8.33-8.33 21.006-10.249 31.69-4.798l4.547 2.32 7.681-5.154A105.809 105.809 0 0 1 63.841 0h6.756zM.792 298.362c.995.488 1.928.983 2.768 1.472.305.178.604-2.136.664-5.142.135-6.779 2.078-11.668 5.25-13.2 3.123-1.51 2.79-1.499 5.246-.184 3.69 1.974 4.675 5.106 2.764 8.798-2.755 5.329-1.973 6.091 2.352 2.294 4.745-4.166 10.928-7 19.093-8.751 9.898-2.122 11.311-1.827 11.255 2.356-.043 3.192-1.151 7.08-3.788 13.279-.618 1.453.102 2.267 3.117 3.527 6.038 2.523 13.689 10.27 16.991 17.206 7.891 16.569 2.558 39.68-13.25 57.416-6.856 7.693-16.944 14.502-23.002 15.525-7.575 1.28-18.692-1.897-29.46-7.825v-3.835c7.208 4.087 14.677 6.998 20.942 8.072 6.723 1.151 7.42 1.057 13.274-1.807 11.857-5.801 25.386-22.252 29.696-36.112 5.553-17.854.112-35.389-13.617-43.876-6.912-4.274-17.103-5.14-23.746-2.021-5.088 2.39-10.162 8.423-8.135 9.675 1.755 1.085 7.69 10.646 7.69 12.387 0 3.191-2.947 1.112-5.828-4.111-1.676-3.041-5.127-7.033-7.667-8.873-3.706-2.684-7.914-3.834-12.609-3.448v-3.25c2.206-.084 3.88-.451 3.88-.886 0-.99-1.647-2.745-3.88-4.45v-4.236zm0 217.324a19.993 19.993 0 0 1 3.476-1.638c8.061-2.873 15.55-1.317 22.57 4.691 9.23 7.902 13.364 23.944 8.37 32.476-4.271 7.293-7.047 8.433-20.54 8.433-6.806 0-10.963-.31-13.876-1.531v-4.169c2.821 2.187 7.09 2.918 14.215 2.92 9.673.002 13.78-1.521 16.884-6.257 5.096-7.778.259-24.227-9.05-30.769-7.019-4.932-16.194-4.67-22.049-.213v-3.943zM703.023 0c3.224 2.835 3.852 2.907 3.403 1.117A7.975 7.975 0 0 1 706.238 0h3.715c.081 2.626.339 5.355.766 8.209 1.193 7.948-.283 7.82-5.953-.516-1.776-2.614-4.111-5.246-6.754-7.693h5.011zm24.272 0 .986 4.75L732.578 0h4.238c-1.469 1.651-2.774 3.413-3.85 5.249-1.575 2.69-3.307 4.89-3.846 4.89-1.731 0-4.034-4.51-5.266-10.139h3.441zM254.088 8.942c3.087-1.112 6.863-1.923 8.391-1.802 2.697.214 2.778.464 2.778 8.563 0 6.692-.557 9.468-2.816 14.026l-2.815 5.683 6.992 3.047c8.18 3.563 15.849 11.325 17.876 18.09 4.806 16.041-2.642 40.225-18.27 59.334-11.257 13.761-23.894 21.457-34.926 21.268-19.338-.333-47.497-18.884-56.537-37.247-8.613-17.495-6.703-36.426 4.96-49.16l3.946-4.307-3.823-3.981c-4.77-4.965-8.812-12.433-7.461-13.785 1.769-1.769 13.768-4.051 21.199-4.032 4.154.011 9.814.913 13.323 2.124 3.354 1.158 6.237 1.97 6.404 1.802.168-.168-1.453-2.167-3.6-4.444-2.147-2.276-3.903-5.188-3.903-6.472 0-3.564 3.224-6.398 7.279-6.398 4.449 0 9.083 4.857 12.052 12.631l2.033 5.324 1.974-3.247c3.831-6.299 13.493-12.89 24.944-17.017zm-50.076 20.551c-7.883-2.373-28.21-1.213-28.21 1.61 0 1.422 5.425 8.369 8.486 10.864 2.898 2.364 2.952 2.366 7.495.303 5.554-2.522 15.883-2.773 21.281-.517l3.854 1.61v-3.22c0-3.986-5.303-8.362-12.906-10.65zm58.056 10.632c-7.51-2.596-21.774-3.823-26.521-2.281-9.496 3.083-15.826 11.504-17.271 22.972-.945 7.5-3.58 9.658-3.58 2.932 0-2.398.733-6.797 1.629-9.774 1.791-5.954 1.734-6.064-4.65-8.905-8.894-3.961-21.77-.318-29.609 8.376-6.911 7.666-8.971 13.404-9.009 25.093-.031 9.409.235 10.602 4.117 18.456 9.132 18.475 35.485 36.39 54.19 36.836 8.053.193 14.807-3.122 24.132-11.846 16.767-15.685 26.985-36.097 26.985-53.911 0-14.19-6.548-23.156-20.413-27.948zm.411-24.073c0-3.252-.375-5.896-.834-5.876-.458.02-3.399.922-6.536 2.007-8.136 2.812-17.881 8.962-21.599 13.631-3.013 3.784-5.961 9.774-5.19 10.544.194.194 2.584-.42 5.31-1.365 3.354-1.161 7.832-1.594 13.847-1.339l8.89.377 3.056-6.033c2.195-4.334 3.056-7.7 3.056-11.946zm-45.22.518c-2.217-2.45-6.844-2.597-7.746-.246-.413 1.075.64 3.093 2.75 5.279 4.451 4.607 7.933 12.426 7.964 17.878l.025 4.34 2.342-2.117c1.968-1.778 2.244-2.961 1.719-7.394-.676-5.737-4.193-14.58-7.054-17.74zM617.55 803.869c3.634-3.634 4.3-3.876 9.133-3.332 9.235 1.042 13.961 9.517 10.067 18.061-3.744 8.219-17.63 8.069-21.878-.235-2.523-4.934-1.535-10.28 2.678-14.494zm14.467 2.425c-1.72-1.721-3.998-2.728-6.162-2.728-4.724 0-8.89 4.311-8.89 9.201 0 5.016 3.804 8.578 9.159 8.578 7.724 0 11.443-9.502 5.893-15.051zM364.61 826.143c11.03-5.799 25.926-.839 30.032 9.998 1.699 4.483 1.475 7.504-.903 12.168l-2.088 4.095 4.018 1.973c4.934 2.42 9.049 8.341 9.049 13.014 0 5.981-4.396 12.99-10.001 15.944-6.895 3.634-16.648 3.131-23.183-1.194-2.503-1.655-4.867-3.011-5.254-3.011-.387 0-.376 1.742.023 3.873 3.097 16.508-15.805 28.232-32.28 20.022-6.183-3.081-10.426-9.079-10.426-14.74v-3.32l-9.471-.498c-10.087-.529-13.133-1.889-17.584-7.852-2.992-4.007-2.798-11.78.422-16.991 3.133-5.069 9.673-9.41 15.321-10.168l4.404-.59-2.782-5.359c-2.777-5.353-2.777-5.365-.712-9.522 1.138-2.29 3.407-5.139 5.042-6.333 3.322-2.427 12.055-3.632 18.101-2.498 5.017.941 11.201 6.304 12.997 11.27.758 2.097 1.653 3.795 1.989 3.772.335-.022 2.36-2.613 4.499-5.759 2.452-3.605 5.701-6.672 8.787-8.294zm21.529 4.387c-4.573-3.487-13.479-4.496-18.719-2.121-4.842 2.197-11.196 10.071-13.849 17.164-1.249 3.338-2.128 6.145-1.954 6.237 3.837 2.05 9.149 2.827 12.772 1.869 2.318-.613 8.214-1.454 13.103-1.87 4.891-.417 9.748-1.198 10.796-1.738 1.048-.539 2.495-2.947 3.215-5.351 1.674-5.59-.041-10.13-5.364-14.19zm-21.077 10.762c3.977-2.425 4.811-2.597 5.687-1.177.337.544-.749 1.882-2.412 2.972-1.665 1.09-3.829 2.974-4.812 4.187-.995 1.23-2.358 1.853-3.08 1.406-1.907-1.179.342-4.781 4.617-7.388zm-25.284-11.014c-4.896-3.026-14.371-3.077-18.884-.103-4.041 2.664-6.289 6.579-5.46 9.506.86 3.034 7.091 9.44 9.214 9.472.951.015 4.599 1.207 8.108 2.65 5.741 2.361 6.799 2.481 10.557 1.195 3.829-1.31 4.205-1.814 4.52-6.051.453-6.056-3.237-13.692-8.055-16.669zm-7.291 10.449c0-2.893 3.107-1.675 5.465 2.141 2.429 3.929 3.082 8.481 1.217 8.481-.601 0-1.801-1.689-2.665-3.754-.862-2.065-2.119-4.094-2.792-4.51-.674-.417-1.225-1.477-1.225-2.358zm.306 14.569c-5.478-2.674-19.596-3.464-24.219-1.356-4.303 1.964-10.484 8.988-10.709 12.172-.724 10.331 4.803 15.257 17.085 15.225 8.404-.021 9.98-.708 13.092-5.707 1.528-2.454 4.864-6.172 7.414-8.263 4.492-3.683 4.588-3.898 3.084-6.913-.853-1.711-3.44-4.032-5.747-5.158zm-13.131 6.128c1.435-2.321 13.302-.938 12.496 1.456-.263.785-2.651 1.104-6.435.858-6.667-.433-7.118-.604-6.061-2.314zm37.05-4.237c-3.859-3.191-15.335-2.066-15.335 1.505 0 3.794 11.744 4.725 15.258 1.211 1.245-1.246 1.261-1.739.077-2.716zm38.504.64c-4.263-2.489-16.525-3.371-25.821-1.855-5.685.926-7.339 1.689-8.876 4.091-1.038 1.625-2.601 3.507-3.475 4.184-1.289.999.068 2.547 7.208 8.225 4.837 3.848 10.404 7.669 12.371 8.494 10.539 4.415 23.161-1.523 24.34-11.451.621-5.231-1.266-9.071-5.747-11.688zm-30.905 2.968c.529-1.377 2.006-1.698 6.665-1.441 8.33.458 8.039 2.479-.414 2.882-5.963.284-6.835.083-6.251-1.441zm-8.162 9.279c-2.943-2.824-5.481-4.181-8.408-4.498-3.734-.402-4.86.144-10.32 5.011-7.71 6.871-10.946 12.887-10.144 18.86 1.44 10.731 15.207 16.252 27.084 10.86 10.758-4.885 11.696-20.727 1.788-30.233zm-11.058 5.065c1.707-3.579 4.065-5.122 4.065-2.659 0 2.314-2.796 9.984-3.64 9.984-1.916 0-2.134-3.741-.425-7.325zm-148.558-32.532c7.115-4.136 13.068 3.354 8.717 10.964-.873 1.528-1.606 3.692-1.628 4.809-.03 1.595.572 1.302 2.82-1.369 4.072-4.839 17.223-10.93 26.968-12.493 6.431-1.03 8.338-1.015 9.009.069 1.091 1.768-.498 10.555-2.884 15.941-1.018 2.298-1.648 4.298-1.399 4.445.248.146 2.853 1.474 5.787 2.951 15.528 7.814 24.521 28.105 20.832 46.998-4.436 22.718-24.156 47.492-41.913 52.654-14.598 4.244-38.055-5.302-56.417-22.959-10.392-9.995-15.378-17.661-17.892-27.506-2.979-11.673.351-22.26 9.719-30.895l4.873-4.491-4.667-4.061c-4.992-4.341-9.045-11.498-10.061-17.764l-.626-3.855 7.625-.757c9.896-.981 21.357.906 28.578 4.706 3.145 1.656 6.093 3.18 6.552 3.387.459.207.833-2.431.833-5.864 0-7.026 2.121-13.136 5.174-14.91zm5.903 3.14c-1.968-1.244-2.389-1.268-3.965-.215-2.539 1.695-3.778 5.903-3.778 12.828 0 10.739.927 13.95 4.573 15.835 3.157 1.632 3.161 1.63 2.073-1.231-1.702-4.479-1.293-14.967.814-20.844 1.669-4.657 1.706-5.474.283-6.373zm36.707 4.007c0-1.568-.375-2.81-.834-2.762-4.651.493-15.877 3.618-19.551 5.442-5.968 2.962-8.807 5.4-12.321 10.577-3.031 4.466-3.464 6.766-1.778 9.431.877 1.387 1.534 1.187 4.15-1.261 4.95-4.634 10.318-6.793 18.305-7.364l7.434-.532 2.298-5.341c1.263-2.937 2.297-6.623 2.297-8.19zm-61.625 10.985c-8.34-2.488-26.163-3.13-26.163-.942 0 1.779 3.808 9.056 6.555 12.524 5.588 7.056 7.413 7.466 15.714 3.54 5.165-2.444 8.814-3.397 13.013-3.397 3.208-.002 5.834-.463 5.834-1.026 0-2.213-9.649-9.117-14.953-10.699zm64.426 10.019c-6.791-3.322-17.027-4.509-22.248-2.578-4.398 1.626-10.223 6.027-11.748 8.877-.98 1.832-.799 2.756.917 4.678 3.908 4.38 7.106 10.662 6.724 13.212-.312 2.082-1.226 1.194-5.273-5.129-6.586-10.29-12.388-14.022-21.802-14.022-14.153 0-32.959 13.412-36.66 26.145-2.211 7.604-1.492 13.156 2.886 22.289 9.499 19.817 40.472 40.8 60.37 40.895 9.238.045 14.639-2.945 25.7-14.223 15.01-15.308 20.94-27.888 20.998-44.547.028-7.823-.509-11.368-2.463-16.276-3.288-8.264-9.973-15.686-17.401-19.321zm625.28-2.848c.537-1.398 2.406-1.51 12.148-.735 31.906 2.543 49.917 10.355 54.269 23.536 1.674 5.078.775 8.944-2.864 12.318l-2.8 2.596 4.421 6.48c4.579 6.704 6.835 12.586 4.83 12.586-.619 0-2.491-2.376-4.16-5.278-1.669-2.903-4.034-6.385-5.258-7.735l-2.224-2.457-2.089 2.654c-4.708 5.989-17.389 6.47-28.408 1.078-8.127-3.976-17.074-13.128-21.299-21.787-3.898-7.992-7.511-20.79-6.566-23.256zm33.756 5.555c-12.224-2.521-30.652-4.012-30.652-2.479 0 2.459 3.777 13.531 6.348 18.608 3.702 7.31 12.305 16.22 19.476 20.172 4.899 2.699 7.132 3.224 13.783 3.239 8.417.019 12.621-2.019 12.621-6.116 0-4.765-9.975-12.682-22.79-18.086-3.619-1.525-6.763-3.327-6.99-4.001-1.565-4.7 21.805 6.383 28.058 13.305 4.421 4.892 6.079 4.999 8.979.574 3.847-5.871-1.631-14.758-12.329-19.996-3.525-1.725-10.952-4.075-16.504-5.22zm-133.29 12.79c9.274-3.432 21.311 1.19 27.173 10.436 8.828 13.92 7.103 28.602-4.003 34.071-9.017 4.439-27.977 1.903-32.031-4.284-3.987-6.084-5.597-21.017-3.088-28.623 1.622-4.917 6.387-9.541 11.949-11.6zm11.824 2.943c-5.857-1.627-6.959-1.51-12.548 1.322-6.693 3.393-9.134 7.921-9.082 16.853.05 8.597 1.952 15.37 5.167 18.389 2.979 2.799 13.704 4.897 19.884 3.889 5.896-.961 11.091-4.124 12.75-7.763 5.036-11.053-3.995-29.309-16.171-32.69zm-9.42 17.764c4.284-4.284 9.179-4.53 13.052-.657 5.801 5.8 1.646 17.275-6.252 17.275-4.391 0-8.74-4.163-9.529-9.117-.566-3.556-.196-4.575 2.729-7.501zm10.7 1.695c-4.528-4.528-11.986.743-9.809 6.933 1.457 4.14 6.315 5.719 9.299 3.019 2.687-2.431 2.948-7.514.51-9.952zm-509.141 51.626c10.504-4.223 20.898 4.658 17.501 14.951-.702 2.131-2.559 4.881-4.125 6.112-3.466 2.727-10.987 2.988-14.53.506-3.02-2.115-5.799-7.254-5.793-10.711.005-3.515 3.927-9.644 6.947-10.858zm11.618 4.69c-4.407-4.815-13.069-2.094-14.757 4.634-.767 3.052 1.94 8.946 4.572 9.956.99.379 2.967.69 4.395.69 4.125 0 6.074-1.146 7.877-4.635 1.918-3.711 1.28-6.965-2.087-10.645zm-235.92-49.356c7.684-4.825 18.582.898 18.819 9.881.221 8.473-7.836 15.142-15.193 12.577-10.736-3.743-12.825-16.68-3.625-22.458zm12.038 3.506c-3.936-3.096-7.68-2.756-11.479 1.043-3.635 3.637-4.116 7.241-1.468 11.021 4.065 5.803 12.255 5.232 15.52-1.081 2.063-3.987 1.1-8.094-2.573-10.983zm470.517-76.461c7.115-4.136 13.068 3.354 8.716 10.965-.872 1.528-1.604 3.692-1.627 4.808-.031 1.596.573 1.303 2.82-1.369 4.071-4.838 17.223-10.93 26.967-12.492 6.432-1.03 8.338-1.016 9.01.069 1.091 1.768-.499 10.554-2.885 15.94-1.017 2.298-1.648 4.299-1.399 4.445.248.147 2.854 1.475 5.789 2.952 15.526 7.814 24.52 28.104 20.831 46.998-4.436 22.718-24.157 47.492-41.914 52.654-14.598 4.243-38.055-5.302-56.416-22.96-10.393-9.994-15.379-17.66-17.892-27.505-2.98-11.673.351-22.261 9.719-30.895l4.872-4.492-4.667-4.06c-4.991-4.342-9.044-11.498-10.061-17.764l-.626-3.855 7.626-.757c9.895-.981 21.357.906 28.578 4.706 3.144 1.656 6.093 3.179 6.551 3.387.459.207.834-2.431.834-5.864 0-7.026 2.12-13.136 5.174-14.911zm5.904 3.141c-1.969-1.245-2.39-1.268-3.966-.216-2.539 1.696-3.779 5.903-3.779 12.828 0 10.739.927 13.951 4.573 15.836 3.157 1.632 3.162 1.63 2.074-1.232-1.702-4.478-1.294-14.966.813-20.843 1.669-4.658 1.707-5.474.285-6.373zm36.706 4.007c0-1.568-.375-2.81-.834-2.763-4.651.494-15.878 3.619-19.551 5.442-5.969 2.963-8.808 5.401-12.321 10.578-3.031 4.466-3.464 6.765-1.779 9.431.878 1.387 1.535 1.187 4.151-1.261 4.949-4.634 10.317-6.793 18.304-7.364l7.434-.533 2.299-5.34c1.263-2.937 2.297-6.623 2.297-8.19zm-61.626 10.984c-8.34-2.488-26.163-3.13-26.163-.942 0 1.779 3.808 9.057 6.555 12.525 5.589 7.055 7.413 7.465 15.714 3.539 5.165-2.443 8.815-3.397 13.013-3.397 3.209-.001 5.835-.462 5.835-1.025 0-2.213-9.65-9.117-14.954-10.7zm64.428 10.019c-6.792-3.321-17.029-4.508-22.25-2.578-4.398 1.627-10.222 6.028-11.748 8.878-.979 1.831-.799 2.756.917 4.677 3.909 4.381 7.107 10.663 6.724 13.213-.312 2.081-1.225 1.193-5.273-5.13-6.586-10.29-12.388-14.021-21.802-14.021-14.153 0-32.958 13.411-36.66 26.145-2.21 7.603-1.491 13.156 2.886 22.288 9.499 19.818 40.472 40.801 60.37 40.896 9.238.045 14.64-2.946 25.7-14.224 15.011-15.307 20.94-27.887 20.998-44.546.028-7.823-.508-11.368-2.461-16.276-3.289-8.265-9.974-15.687-17.401-19.322zm237.781 70.541c8.935-3.656 17.156 1.857 17.2 11.537.021 4.465-.52 5.908-3.223 8.612-4.61 4.609-11.86 4.612-17.015.005-3.178-2.839-3.63-3.93-3.63-8.773 0-5.815 2.186-9.546 6.668-11.381zm10.962 4.587c-8.966-7.054-20.157 4.715-12.123 12.748 5.868 5.87 15.052 1.947 15.052-6.43 0-3.014-.731-4.59-2.929-6.318zM634.745 309.063c2.797-2.797 5.607-2.82 9.096-.076 3.177 2.499 5.35 8.869 5.35 15.678v4.788l2.503-2.352c6.398-6.011 22.071-10.653 33.885-10.037l6.395.333-.275 4.428c-.344 5.538-4.728 14.652-9.035 18.778l-3.273 3.136 5.735 4.66c6.394 5.194 11.309 13.2 12.345 20.11 3.534 23.565-28.786 59.56-59.269 66.011-12.118 2.565-22.494-2.169-37.408-17.065-10.62-10.608-16.335-19.723-19.838-31.641-3.679-12.518-1.318-27.769 5.929-38.301 3.615-5.255 12.691-12.812 15.448-12.864.816-.015 1.29-.402 1.055-.861-6.073-11.849-7.935-19.77-4.922-20.927 3.206-1.23 19.81 1.687 26.18 4.6 3.416 1.562 7.584 4.156 9.265 5.764 3.68 3.519 4.113 1.476.829-3.91-2.808-4.606-2.807-7.44.005-10.252zm-16.791 9.597c-3.295-.918-8.688-2.011-11.988-2.426l-5.999-.757.734 3.662c.403 2.014 2.013 5.847 3.578 8.517 2.825 4.821 2.879 4.85 7.725 4.123 6.437-.965 14.963 1.169 20.394 5.103l4.363 3.16.682-2.72c1.69-6.731-7.192-15.236-19.489-18.662zm70.549 4.571.735-3.056-6.411.095c-7.459.11-15.715 1.965-21.86 4.909-4.285 2.054-11.776 8.677-11.776 10.412 0 .492 2.876.927 6.39.969 3.515.04 8.64.919 11.39 1.951 9.07 3.406 10.438 3.346 13.761-.605 3.459-4.111 6.706-10.242 7.771-14.675zm-61.917 13.972c-4.456-2.305-13.766-2.844-19.068-1.105-20.971 6.882-30.642 31.957-21.243 55.088 7.106 17.49 26.529 36.523 40.984 40.164 17.057 4.294 50.883-18.312 62.304-41.638 8.505-17.366 5.334-30.735-9.708-40.95-21.5-14.601-39.294-11.104-47.821 9.398-1.895 4.558-3.522 6.081-4.246 3.971-.577-1.686 2.819-9.923 5.842-14.169l2.188-3.074-3.013-3.013c-1.659-1.658-4.456-3.761-6.219-4.672zm14.784-25.941c-2.63-1.407-2.768-1.389-4.38.551-1.094 1.319-.851 2.673 1.251 6.946 2.01 4.086 2.611 7.157 2.613 13.362.001 4.431.161 8.057.354 8.057.193 0 1.318-.518 2.5-1.15 1.86-.996 2.149-2.393 2.149-10.392 0-10.241-1.417-15.73-4.487-17.374zm-410.697 47.181c4.44-1.932 5.511-1.934 10.099-.018 10.221 4.271 9.198 19.756-1.518 22.967-8.274 2.479-15.669-3.029-15.669-11.668 0-5.481 2.349-9.218 7.088-11.281zm10.607 4.614c-3.7-3.112-5.899-3.487-9.36-1.593-6.822 3.73-6.988 12.614-.301 16.071 9.57 4.95 17.905-7.54 9.661-14.478zm259.135 43.631c1.864-2.354 3.855-4.281 4.421-4.281 1.467 0 8.302 10.983 13.047 20.962 3.295 6.929 4.063 9.857 4.185 15.962.139 6.859.439 7.744 3.647 10.741 6.377 5.956 8.589 15.899 5.294 23.786-2.732 6.538-12.371 12.969-19.483 12.997-3.927.017-10.796-2.993-14.233-6.234-3.372-3.181-4.178-3.462-7.335-2.556-6.514 1.868-14.502-.697-19.884-6.384-3.821-4.038-5.349-8.151-5.349-14.395 0-11.341 9.054-20.43 20.353-20.43h4.884l.678-7.264c.732-7.846 4.103-15.743 9.775-22.904zm19.959 43.807c-9.257-6.238-22.296-.808-25.752 10.725-3.649 12.177 9.126 24.952 21.303 21.303 15.394-4.612 17.939-22.937 4.449-32.028zm-15.922 5.326c2.318-1.368 4.939-1.096 5.492.568.378 1.133-4.1 3.803-6.378 3.803-1.805 0-1.165-3.162.886-4.371zm-11.595-14.381c-3.489-1.797-11.421-1.495-15.666.598-5.463 2.692-8.394 7.55-8.897 14.748-.356 5.101.023 6.855 2.17 10.013 3.476 5.115 9.042 8.209 14.768 8.209 6.523 0 7.187-.636 5.878-5.623-1.511-5.761.537-12.68 5.321-17.975l3.805-4.212-2.476-2.255c-1.363-1.239-3.568-2.815-4.903-3.503zm-13.408 6.563c1.374-.553 2.75-1.029 3.056-1.058.974-.095 3.847 1.998 3.301 2.404-1.842 1.378-6.972 2.987-7.83 2.457-1.771-1.094-1.127-2.759 1.473-3.803zm29.441-34.205c-1.936-3.21-3.91-5.834-4.388-5.834-1.761 0-7.622 9.419-9.229 14.829-1.778 5.99-2.144 12.816-.782 14.618.462.612 2.655 2.786 4.872 4.833 3.088 2.849 4.61 3.539 6.494 2.941 2.256-.716 2.402-1.258 1.736-6.5-.399-3.145-1.26-7.39-1.915-9.432-.804-2.514-.824-4.079-.061-4.842 1.727-1.726 3.391 2.295 4.858 11.726 1.237 7.961 1.422 8.319 4.542 8.776 3.916.575 4.64-.797 3.896-7.394-.593-5.263-4.576-14.688-10.023-23.721zm326.562-7.532c8.587-3.061 17.109-1.404 23.78 4.623 7.263 6.561 8.547 16.183 3.461 25.941-1.302 2.497-2.366 4.774-2.366 5.061 0 .286 2.626.525 5.834.532 21.62.04 34.688 25.423 20.567 39.942-4.422 4.545-13.436 8.916-18.418 8.93-2.988.009-3.578.38-3.111 1.956 2.59 8.713 1.493 13.705-4.459 20.293-10.75 11.899-30.023 12.079-38.964.365-2.841-3.721-3.121-4.916-3.121-13.304v-9.214l-5.001 4.886c-15.828 15.469-37.847 13.996-44.951-3.006-4.172-9.982-.408-21.287 9.332-28.037l4.279-2.966-4.869-5.011c-12.305-12.661-9.029-28.69 7.317-35.789 10.917-4.74 21.48-3.994 29.91 2.112l4.391 3.181 1.763-5.305c2.103-6.332 8.546-13.022 14.626-15.19zm43.216 42.817c-4.657-2.878-15.187-3.892-22.229-2.14-5.46 1.359-19.448 7.717-19.448 8.842 0 .45.746 2.251 1.66 4.002.912 1.751 1.662 4.284 1.667 5.63.005 1.635 1.62 3.556 4.862 5.788 5.17 3.556 16.258 14.384 16.258 15.876 0 .491 2.127.887 4.723.881 6.019-.014 15.066-4.205 18.892-8.753 7.394-8.787 4.267-23.543-6.385-30.126zm-26.397 11.909c4.484-.675 10.601.35 12.435 2.081 2.385 2.251.79 2.98-3.765 1.722-2.221-.614-5.767-.834-7.881-.492-3.013.489-3.846.248-3.846-1.114 0-1.045 1.221-1.921 3.057-2.197zm-19.932-3.582c-5.142-4.326-10.178-3.161-12.284 2.84-1.019 2.9 2.125 8.586 5.794 10.484 4.084 2.112 7.213 1.399 9.555-2.174 2.25-3.433 1.091-7.654-3.065-11.15zm-20.541 4.621c-8.963-1.481-21.895.303-28.703 3.959-4.425 2.377-10.134 8.448-11.6 12.332-3.159 8.383 1.219 19.595 9.118 23.344 8.987 4.263 20.178 1.62 30.096-7.11 6.15-5.414 9.144-10.101 10.605-16.608.962-4.276.827-5.264-.977-7.189-1.149-1.228-2.582-3.536-3.186-5.129-.833-2.199-2.122-3.066-5.353-3.599zm-7.884 12.024c3.964-1.751 8.685-1.735 8.72.027.013.612-1.389 1.399-3.113 1.753-1.724.352-4.516 1.546-6.203 2.65-1.687 1.106-3.364 1.714-3.726 1.353-1.347-1.348.809-4.232 4.322-5.783zm40.1.446c-5.367-3.692-4.644-3.576-7.925-1.29-1.414.984-4.415 1.849-6.667 1.923l-4.099.132-1.852 8.853c-2.849 13.632-2.632 22.466.673 27.329 7.414 10.911 25.663 10.369 35.07-1.044 4.536-5.503 5.187-9.88 2.406-16.169-2.576-5.823-10.819-15.061-17.606-19.734zm-7.949 3.336c-.966-2.548 3.851-.542 7.184 2.992 3.656 3.877 4.858 7.144 2.629 7.144-1.105 0-9.102-8.26-9.813-10.136zm16.461-67.373c-2.692-1.375-6.662-2.489-8.825-2.476-9.36.058-18.073 7.454-20.627 17.512-1.121 4.415-1.013 5.995.747 11.006 1.132 3.218 2.057 7.791 2.057 10.162 0 3.902.345 4.416 3.612 5.4 3.033.914 4.59.608 9.724-1.909 3.362-1.649 8.012-3.613 10.337-4.367 3.21-1.04 5.214-2.855 8.334-7.556 3.547-5.341 4.11-7.064 4.11-12.593 0-7.763-2.362-11.548-9.469-15.179zm-14.935 24.789c.909-2.174 2.145-3.953 2.748-3.953 3.028 0-.847 10.731-5.342 14.796-3.237 2.928-4.216.355-1.38-3.627 1.277-1.794 3.066-5.041 3.974-7.216zm-28.486-11.214c-11.478-6-29.477-.111-34.523 11.294-3.004 6.791-1.392 12.216 5.921 19.949 5.195 5.494 5.768 5.807 8.526 4.644 1.627-.685 8.512-1.268 15.302-1.293 12.312-.046 12.349-.055 14.117-3.133.974-1.698 2.461-3.087 3.305-3.087 1.237 0 1.357-1.3.618-6.702-1.379-10.082-6.218-17.99-13.266-21.672zm-4.946 16.233c1.555-2.514 4.418-.22 7.613 6.095 2.415 4.773.613 7.477-2.09 3.137-1.096-1.761-2.954-4.291-4.127-5.621-1.174-1.33-1.802-2.955-1.396-3.611zm-640.647-30.907c4.704-3.169 6.035-3.173 5.3-.012-3.334 14.349-4.087 19.36-4.103 27.357l-.019 9.299 3.611-2.751c5.901-4.498 14.945-8.63 23.899-10.919 14.599-3.735 23.471-2.123 12.843 2.333-13.059 5.475-22.583 12.494-27.954 20.603l-3.549 5.358 4.974 1.262c17.952 4.559 36.787 33.083 38.132 57.748.482 8.842.244 10.645-2.056 15.558-5.375 11.48-17.509 20.275-31.554 22.872-11.912 2.202-26.351-1.627-34.516-9.153-9.929-9.152-17.557-31.171-17.649-50.946-.045-9.879.336-12.518 2.491-17.211 1.399-3.048 3.546-6.608 4.77-7.911l2.226-2.37-2.558-.685c-4.945-1.324-17.983-.695-23.838 1.151-3.255 1.025-6.265 1.519-6.688 1.095-1.546-1.546 5.832-10.098 11.01-12.762 3.976-2.047 7-2.701 12.491-2.701 3.985 0 7.245-.361 7.245-.802 0-.44-1.841-2.697-4.092-5.014-5.473-5.636-15.685-10.233-26.189-11.79-10.312-1.529-11.118-3.314-2.779-6.136 12.805-4.332 29.13-1.922 39.237 5.792 2.725 2.081 5.075 3.778 5.223 3.773.147-.005.34-2.632.429-5.838.328-11.822 5.181-21.484 13.663-27.2zm48.961 121.751c0-1.512-.848-2.027-3.334-2.027-1.833 0-3.333.482-3.333 1.072 0 .59-1.538 2.825-3.419 4.966-4.149 4.726-9.396 6.051-14.29 3.61-3.296-1.645-3.435-1.606-5.251 1.468-3.521 5.961-11.811 7.782-17.743 3.894-2.81-1.841-2.921-1.806-6.037 1.836-1.747 2.042-3.196 4.018-3.221 4.393-.105 1.583 13.274 4.738 19.957 4.705 9.498-.047 15.167-1.75 22.717-6.825 6.424-4.317 13.954-13.542 13.954-17.092zm-13.623-48.889c-1.37-1.632-4.077-3.288-6.016-3.681-3.24-.655-3.684-.382-5.467 3.376-2.168 4.568-7.343 8.263-11.582 8.269-1.536.002-4.661-.997-6.945-2.22-3.166-1.697-4.15-1.865-4.15-.706 0 2.603-4.643 7.571-8.632 9.238-3.462 1.447-4.22 1.393-8.215-.584l-4.4-2.178-9.604 9.334.998 6.617c.821 5.448 1.678 7.255 4.852 10.229 4.046 3.79 8.695 4.685 12.838 2.467 2.682-1.435 5.495-6.761 5.495-10.402 0-4.31 1.668-4.343 5.892-.119 3.267 3.267 4.67 3.887 8.789 3.887 5.986 0 9.189-2.618 10.879-8.894.658-2.443 1.428-4.441 1.712-4.441.285 0 2.383 1 4.664 2.222 5.183 2.779 7.682 2.79 12.165.056 6.067-3.699 6.496-5.858 2.614-13.137-1.868-3.5-4.518-7.701-5.887-9.333zm14.667 37.694c-.038-3.209-.913-8.503-1.945-11.766l-1.877-5.933-2.664 2.845c-4.484 4.786-11.261 6.097-18.013 3.484-1.274-.494-2.192.29-3.206 2.738-2.256 5.445-6.114 7.799-12.788 7.799-4.113 0-6.631-.645-8.613-2.204l-2.802-2.204-1.326 3.205c-2.933 7.08-10.587 10.557-17.746 8.061-1.952-.68-3.406-.75-3.406-.164 0 2.123 5.416 12.938 8.737 17.446 4.126 5.6 5.722 5.355 9.734-1.49 2.944-5.025 3.084-5.046 8.288-1.261 4.394 3.196 9.767 2.896 12.876-.719 1.426-1.658 2.592-4.003 2.592-5.21 0-3.463 2.818-3.652 6.063-.406 2.413 2.411 3.63 2.843 6.44 2.281 5.442-1.089 7.297-3.31 10.197-12.208.635-1.949.824-1.968 2.692-.278 1.105 1 3.095 1.818 4.422 1.818 2.178 0 2.406-.567 2.345-5.834zm-27.218-50.375c-5.486-3.778-7.118-4.329-13.643-4.606-13.999-.593-31.565 7.407-35.983 16.388-1.047 2.127-2.248 6.8-2.669 10.385-.739 6.3-.69 6.479 1.48 5.318 1.236-.662 3.085-2.97 4.111-5.13 1.024-2.16 2.188-3.928 2.583-3.928.397 0 2.113 1.333 3.814 2.964 5.747 5.505 12.826 3.196 15.456-5.043 1.942-6.083 2.743-6.368 7.112-2.532 2.255 1.981 5.224 3.5 6.837 3.5 3.786 0 10.406-6.603 10.406-10.38 0-3.449 1.754-4.728 3.965-2.893.905.751 1.896 1.115 2.204.808.306-.308-2.246-2.49-5.673-4.851zm-23.442-49.081c.801-3.819 1.044-6.945.54-6.945-1.465 0-7.364 8.706-8.755 12.921-1.596 4.836-1.899 13.78-.705 20.792 1.166 6.834-.698 6.754-6.066-.263-6.939-9.069-21.244-14.535-33.592-12.837l-5.663.779 8.956 2.916c4.925 1.605 11.045 4.302 13.598 5.994 5.604 3.714 11.295 11.25 11.295 14.957 0 2.476-.3 2.632-3.612 1.871-8.855-2.037-19.21-.095-22.843 4.285-1.094 1.316.066 1.476 7.588 1.041 4.884-.283 11.893.079 15.574.803 6.214 1.223 7.191 1.119 13.606-1.43 3.801-1.511 9.216-3.086 12.033-3.499 4.435-.651 5.367-1.267 6.955-4.596 2.509-5.264 10.905-14.026 17.48-18.246 2.996-1.922 5.447-3.666 5.447-3.875 0-.736-11.786 3.686-17.249 6.473-3.042 1.552-7 4.368-8.795 6.259-5.944 6.261-7.267 4.253-7.255-11.009.004-5.195.663-12.571 1.463-16.391zm119.069 3.607c7.445-2.031 16.702-2.028 23.566.011 6.715 1.994 12.851 8.148 14.883 14.926 1.031 3.443 1.913 4.514 3.72 4.514 8.04 0 29.444 8.727 39.487 16.099l5.195 3.814 4.914-2.449c13.471-6.713 31.101.614 35.315 14.676 5.118 17.084-6.577 33.327-24.048 33.399-19.586.081-31.358-19.932-22.162-37.677 1.697-3.273 2.947-6.071 2.778-6.218-3.746-3.273-19.255-12.025-25.236-14.242-9.168-3.398-19.392-4.959-20.521-3.133-.409.662.445 3.099 1.901 5.413 3.623 5.764 6.133 13.853 7.143 23.02l.848 7.7 5.174.299c19.176 1.107 29.939 19.96 21.218 37.157-4.292 8.465-10.306 12.463-19.638 13.057-8.476.54-13.929-1.068-19.139-5.639-11.706-10.278-11.694-28.045.022-38.332 2.136-1.875 4.915-3.738 6.178-4.138 1.893-.601 2.292-1.641 2.279-5.931-.022-6.972-2.82-18.464-5.777-23.725-1.98-3.523-2.807-4.129-4.694-3.435-7.839 2.88-18.756-1.217-30.628-11.495-3.973-3.439-9.349-7.219-11.946-8.4-2.597-1.181-4.723-2.617-4.723-3.191 0-1.256 6.271-4.001 13.891-6.08zm63.047 66.456c-4.385-2.412-10.99-3.863-13.319-2.927-.764.306-1.389 2.015-1.389 3.798 0 2.14-.567 3.241-1.667 3.241-1.037 0-1.667-1.049-1.667-2.778 0-4.15-2.712-3.459-8.28 2.11-8.747 8.746-9.488 19.288-2.059 29.293 4.264 5.743 10.525 8.364 18.728 7.842 7.892-.502 12.959-3.324 17.269-9.616 2.217-3.233 2.679-5.278 2.679-11.862 0-6.879-.416-8.556-3.072-12.387-1.689-2.438-4.939-5.46-7.223-6.714zm-11.575 4.277c.503-3.383 3.534-3.047 3.534.391 0 6.238-8.614 9.603-12.786 4.994-2.621-2.898-1.329-4.121 2.304-2.176 3.41 1.825 6.405.442 6.948-3.209zm63.454-29.32c-6.048-3.743-13.423-4.754-19.164-2.627-5.626 2.083-5.905 2.488-3.529 5.113 2.641 2.919 1.332 4.125-2.344 2.158-2.656-1.422-3.068-1.337-4.984 1.029-2.968 3.664-4.651 10.866-3.827 16.366 1.512 10.081 11.394 18.229 22.107 18.229 21.565 0 30.01-28.963 11.741-40.268zm-17.324 3.777c-.45-1.723-.125-2.403 1.147-2.403 2.927 0 3.543 5.315 1.009 8.709-1.729 2.316-3.145 2.959-6.519 2.959-3.17 0-4.406-.499-4.672-1.885-.304-1.573.277-1.783 3.488-1.262 3.076.499 4.086.188 5.014-1.545.639-1.195.879-3.252.533-4.573zm-75.69-42.358c-2.272-.632-6.883-1.111-10.244-1.065-6.599.09-17.78 2.915-17.78 4.492 0 .533.381.969.847.969.465 0 4.747 3.256 9.515 7.236 9.528 7.953 14.893 11.08 20.965 12.219 4.364.819 8.677-.805 8.677-3.267 0-2.183-7.427-8.38-13-10.844-2.629-1.163-4.779-2.592-4.779-3.174 0-3.015 10.095.866 15.262 5.866 4.289 4.151 5.45 3.593 3.29-1.579-1.993-4.767-7.396-9.366-12.753-10.853zm659.553 7.485c5.961-5.33 11.338-9.543 11.949-9.365 1.415.414 4.248 6.222 6.855 14.054 1.479 4.442 2.035 9.454 2.035 18.336 0 11.123-.288 12.847-3.2 19.151-5.773 12.499-17.934 21.025-25.751 18.053l-3.055-1.161.669 9.481c.527 7.453.356 9.482-.798 9.482-1.733 0-2.84-5.726-2.857-14.789-.008-4.101-.425-6.2-1.144-5.755-.623.385-2.913.113-5.088-.605-5.461-1.802-8.217-6.664-8.222-14.511-.008-11.718 8.628-24.508 28.607-42.371zm14.706 3.022c-1.361-3.667-2.868-7.096-3.348-7.622-.48-.524-7.319 5.477-15.199 13.335-10.29 10.264-15.329 16.212-17.882 21.113-5.58 10.712-4.603 21.267 2.186 23.634 4.954 1.726 6.164.625 6.724-6.121.789-9.507 12.373-30.978 14.691-27.228.388.628-.628 3.255-2.259 5.839-7.869 12.466-11.458 24.898-8.489 29.407 3.063 4.649 13.025.615 19.355-7.837 8.093-10.807 9.852-29.357 4.221-44.52zm-378.029 58.342c.44-7.62.799-8.891 2.508-8.891 3.296 0 9.016 5.686 11.594 11.528l2.424 5.488 8.37-7.953c4.605-4.374 8.94-7.952 9.632-7.952 3.219 0-.028 17.793-4.806 26.342l-2.618 4.687 3.992 1.988c2.196 1.092 5.377 3.737 7.068 5.876 3.146 3.984 6.443 13.778 5.091 15.129-.414.414-3.701-.57-7.305-2.187-3.604-1.617-8.049-2.94-9.877-2.94h-3.328l.096 7.5c.149 11.71-5.198 19.843-16.259 24.733-7.678 3.396-26.014 6.663-37.23 6.636-17.908-.046-21.864-4.011-21.593-21.645.371-24.139 13.478-48.868 27.967-52.77 5.232-1.408 13.163-.227 19.105 2.846 1.86.961 3.668 1.463 4.018 1.113.349-.351.867-4.638 1.151-9.528zm8.547-.279c-1.564-2.292-3.325-4.167-3.914-4.167s-1.121 2.375-1.182 5.278c-.061 2.903-.476 6.529-.922 8.056-.693 2.377.094 3.685 5.453 9.059 3.446 3.454 7.891 9.33 9.878 13.057 3.308 6.206 3.923 6.777 7.297 6.777 2.027 0 5.825.755 8.442 1.679 2.617.923 5.049 1.388 5.404 1.032 1.178-1.178-3.98-8.783-7.68-11.323-2.003-1.375-4.789-2.501-6.19-2.501-3.852 0-4.256-1.904-1.179-5.561 2.833-3.368 6.468-11.976 7.947-18.826l.825-3.828-5.765 4.939c-6.068 5.201-11.195 8.815-12.521 8.825-.435.003-1.299-1.869-1.921-4.162-.622-2.291-2.41-6.042-3.972-8.334zm-13.627 12.738c-14.455-7.671-24.235-4.806-33.641 9.851-9.805 15.281-13.663 44.474-6.784 51.352 5.643 5.641 39.917 2.62 52.956-4.67 3.057-1.708 7.025-5.177 8.821-7.71 2.779-3.92 3.264-5.645 3.264-11.609 0-13.511-10.846-29.907-24.616-37.214zm7.809 25.259c2.765-2.306 3.44-2.515 4.547-1.409.982.983-3.667 5.917-5.573 5.917-2.255 0-1.758-2.186 1.026-4.508zm-32.281 5.841c1.585-1.584 3.11-1.738 3.11-.313 0 2.28-1.441 4.536-2.897 4.536-1.9 0-2.021-2.415-.213-4.223zm13.334 4.445c1.689-1.689 4.223-1.73 4.223-.067 0 1.293-3.217 4.191-4.723 4.254-1.306.056-.976-2.711.5-4.187zm19.502 11.526c3.602-1.954 5.834-2.191 5.834-.619 0 1.462-6.786 5.597-7.977 4.861-1.698-1.049-.925-2.577 2.143-4.242zm-42.838 1.809c1.342-1.342 4.222-1.846 4.222-.739 0 1.247-3.634 6.073-4.572 6.073-1.445 0-1.198-3.786.35-5.334zm18.947 4.958c2.393-.965 5.279-.782 5.279.337 0 1.169-3.584 3.373-5.484 3.373-1.654 0-1.486-3.027.205-3.71zm1.055-51.63c2.936-2.936 4.904-.578 2.448 2.93-.928 1.323-2.157 2.404-2.732 2.404-1.498 0-1.297-3.752.284-5.334zm-16.427 14.753c.401-1.6 1.336-2.697 2.078-2.437 1.462.512 1.219 4.05-.394 5.723-1.583 1.643-2.481-.109-1.684-3.286zm22.489-.719c2.029-2.242 4.828-2.718 4.828-.821 0 1.269-4.398 5.355-5.833 5.419-1.458.065-.899-2.495 1.005-4.598zm145.064 4.873c2.497-3.843 5.093-6.806 5.771-6.585.678.222 3.12 2.865 5.426 5.875 4.795 6.26 9.044 18.64 8.372 24.396l-.45 3.857h4.981c14.711 0 24.871 14.624 19.654 28.284-3.63 9.508-14.024 15.313-23.531 13.144-4.265-.973-4.817-.806-8.523 2.59-7.174 6.574-15.663 7.296-24.711 2.098-11.349-6.519-13.048-24.092-3.167-32.768 3.687-3.237 3.918-3.852 4.1-10.89.213-8.331 3.826-17.304 12.078-30.001zm10.538 4.562c-1.943-2.871-4.059-5.384-4.7-5.584-1.503-.47-10.842 15.29-13.164 22.214-.981 2.925-1.782 7.3-1.782 9.723 0 4.238.139 4.406 3.638 4.406h3.638l1.328-8.343c.73-4.589 1.889-9.393 2.576-10.675 2.252-4.209 3.153-.566 1.542 6.239-2.229 9.427-2.079 12.482.656 13.35 3.257 1.033 10.637-5.554 11.677-10.423 1.147-5.374-1.303-14.841-5.409-20.907zm22.591 28.815c-2.526-1.719-5.272-2.489-8.788-2.467-5.377.035-7.967 1.052-12.014 4.716l-2.457 2.222 3.829 4.474c4.334 5.063 5.547 9.663 4.617 17.509l-.64 5.415 3.878.728c5.537 1.038 13.106-2.127 16.861-7.051 2.496-3.271 3.037-5.123 3.037-10.377 0-7.169-2.044-10.896-8.323-15.169zm-8.643 6.606c-.687-2.058 6.346-1.677 7.138.387.362.943.445 1.927.186 2.186-.875.875-6.879-1.234-7.324-2.573zm-18.416.498c-13.447-6.381-28.173 4.907-25.048 19.202 1.201 5.495 4.273 9.175 10.103 12.101 5.766 2.893 10.387 2.613 16.314-.992 11.194-6.807 10.384-24.734-1.369-30.311zm-5.548 5.583c1.094-1.096 1.829-.929 4.662 1.054 3.421 2.397 1.531 4.341-2.456 2.524-2.994-1.363-3.539-2.247-2.206-3.578zm-291.632-6.665c2.896-1.165 5.365-.68 7.524 1.479 2.608 2.608 2.708 4.012.556 7.778-2.893 5.061-1.755 5.894 2.632 1.931 5.186-4.685 15.071-8.604 23.76-9.419l6.389-.599-.049 3.766c-.042 3.308-1.16 7.286-3.735 13.299-.559 1.304.423 2.286 3.808 3.812 15.434 6.96 23.731 28.107 18.344 46.756-4.668 16.161-18.002 33.531-30.667 39.948-5.275 2.674-6.834 2.946-14.313 2.497-6.636-.398-10.213-1.348-17.104-4.548-29.788-13.834-46.523-38.578-38.58-57.042 1.334-3.1 4.38-7.545 6.77-9.878l4.346-4.244-4.807-5.138c-4.672-4.994-9.6-15.939-7.927-17.601.421-.419 6.118-.761 12.657-.761 10.978 0 12.406.255 18.607 3.333l6.715 3.334.151-5.82c.156-5.967 2.413-11.873 4.923-12.883zm38.639 24.903c-9.327-4.218-20.681-2.573-26.737 3.872-2.765 2.945-2.761 2.967 2.864 12.153 1.498 2.445 2.732 5.07 2.742 5.834.036 2.831-2.196 1.244-5.015-3.565-3.648-6.224-9.119-11.078-14.483-12.848-10.986-3.626-31.427 8.067-36.888 21.102-5.495 13.117 5.769 32.88 26.313 46.17 16.618 10.75 31.82 13.453 41.263 7.338 11.052-7.158 22.291-21.789 26.662-34.709 1.916-5.66 2.303-8.896 1.92-15.987-.76-14.025-7.216-24.195-18.641-29.36zm-33.665-21.085c-3.431-3.431-6.602 2.149-6.548 11.52.05 8.768.792 11.339 3.722 12.907 2.026 1.084 2.171.95 1.448-1.331-1.322-4.167-.818-13.675.951-17.909 1.208-2.89 1.324-4.29.427-5.187zm32.554 2.734c0-1.942-2.572-2.088-9.204-.526-12.563 2.958-23.134 12.654-21.387 19.616l.705 2.809 2.997-2.803c4.769-4.459 9.645-6.389 16.14-6.389h6.03l2.36-5.484c1.297-3.017 2.359-6.268 2.359-7.223zm-55.944 9.919c-3.068-.912-8.987-1.657-13.156-1.657-6.561 0-7.576.269-7.576 2.004 0 2.891 6.027 11.971 9.422 14.195 2.783 1.824 3.116 1.787 8.681-.933 3.184-1.557 8.186-3.188 11.115-3.626 3.185-.475 5.162-1.3 4.915-2.05-.701-2.141-7.555-6.198-13.401-7.933zm462.103-1.206c2.445-.778 4.79-1.447 5.212-1.488 2.485-.241 1.421 3.023-3.486 10.695-6.249 9.773-6.488 9.196 4.671 11.265 7.692 1.427 12.493 3.576 12.493 5.593 0 .877-3.548 2.603-8.679 4.221l-8.68 2.735 3.957 4.381c2.177 2.409 4.032 5.504 4.125 6.877.284 4.236-.335 9.066-1.42 11.096-.709 1.324-.498 2.982.664 5.226 4.752 9.192-2.206 20.183-13.114 20.712-3.947.191-4.665.629-5.371 3.268-1.737 6.497-10.336 11.562-16.85 9.928-1.676-.42-4.27.187-6.97 1.635-10.248 5.492-21.112-.042-23.351-11.893-.379-2.004-1.678-4.171-2.886-4.819-3.373-1.804-6.78-10.461-5.921-15.039.532-2.839.129-4.778-1.565-7.519-3.317-5.367-3.079-12.869.546-17.176 1.554-1.848 3.748-3.653 4.876-4.011 1.275-.404 2.51-2.472 3.263-5.461.706-2.805 2.692-6.259 4.765-8.285 3.244-3.172 5.429-3.993 12.96-4.868 2.529-.295 2.49-.438-1.945-7.283-2.487-3.841-4.522-7.465-4.522-8.057 0-2.013 6.219-1.079 12.007 1.805 3.177 1.584 7.185 4.587 8.906 6.676l3.131 3.797 2.701-2.898c2.964-3.177 13.496-8.892 20.483-11.113zm-35.354 24.536c-2.958-2.958-4.799-3.874-7.788-3.874-7.29 0-13.636 8.269-12.183 15.872 1.288 6.736 13.565 12.59 14.49 6.909 1.007-6.201 1.85-7.954 5.447-11.346l3.909-3.687-3.875-3.874zm18.216 10.487c-4.803-4.803-11.185-4.595-16.31.53-3.219 3.219-3.779 4.546-3.779 8.975 0 11.141 11.627 15.847 19.558 7.916 3.219-3.22 3.778-4.546 3.778-8.976 0-4.262-.584-5.781-3.247-8.445zm19.318 3.697c-2.771-2.422-10.238-3.517-11.995-1.759-.409.406-.742 3.224-.742 6.258 0 3.714-.785 6.787-2.4 9.4l-2.399 3.882 2.677 2.058c3.943 3.031 10.137 2.7 14.252-.762 6.12-5.15 6.402-14.01.607-19.077zm-58.94 2.891c-2.003-3.876-3.122-3.95-6.631-.441-3.989 3.988-3.77 10.517.514 15.312 2.784 3.116 3.976 3.629 8.426 3.629 4.449 0 5.641-.513 8.425-3.629 4.183-4.681 4.096-6.564-.352-7.541-4.919-1.08-8.431-3.56-10.382-7.33zm22.098 15.284c-1.893-1.592-3.726-2.896-4.075-2.896-1.334 0-2.935 4.462-2.935 8.176 0 9.642 13.06 14.496 20.088 7.467 2.313-2.312 3.248-4.333 3.248-7.016v-3.768l-6.443.466c-5.69.412-6.844.127-9.883-2.429zm41.462 11.372c.348-2.225-.006-4.464-.888-5.592-1.339-1.715-1.748-1.73-4.649-.176-3.16 1.693-10.371 1.666-14.21-.053-1.49-.667-1.98.048-2.613 3.798-.69 4.08-.426 4.992 2.267 7.801 3.823 3.992 8.1 4.976 12.9 2.97 4.726-1.975 6.463-4.089 7.193-8.748zm-51.376-2.951c-.773-3.871-.841-3.902-4.875-2.28-1.528.615-4.862.808-7.409.431-4.015-.595-4.726-.384-5.351 1.59-1.513 4.76 1.979 10.438 7.978 12.977 2.889 1.224 4.324 1.246 7.671.125 5.432-1.819 7.093-4.442 4.579-7.221-1.037-1.146-2.204-3.675-2.593-5.622zm29.129 11.501c-4.516-4.515-3.936-4.324-6.712-2.224-1.268.959-4.59 1.631-8.057 1.631-5.61 0-5.9.141-5.9 2.885 0 4.293 3.289 9.064 7.685 11.151 5.67 2.691 12.077.373 14.892-5.387l2.018-4.13-3.926-3.926zm-20.096 12.762c-1.025-1.134-2.45-4.039-3.164-6.455-1.201-4.062-1.466-4.283-3.521-2.924-1.222.808-4.223 1.682-6.667 1.942-3.592.38-4.383.871-4.123 2.554 1.023 6.626 7.529 11.174 14.193 9.924 4.689-.879 5.677-2.396 3.282-5.041zm33.754-81.418c1.771-2.923 2.083-4.155 1.047-4.126-3.438.093-13.956 6.26-18.296 10.727l-4.688 4.821-3.139-4.385c-3.168-4.425-10.682-10.093-13.377-10.093-.996 0-.62 1.327 1.183 4.167 1.456 2.292 4.488 7.543 6.738 11.668 3.964 7.265 4.227 7.501 8.399 7.501 2.992 0 5.33.863 7.673 2.835 3.816 3.211 5.139 3.051 21.069-2.548 9.703-3.411 9.05-4.24-4.807-6.093-5.203-.697-9.459-1.753-9.459-2.348s1.154-2.63 2.566-4.521c1.411-1.891 3.702-5.313 5.091-7.605zm-628.335 3.777c7.309-6.739 8.271-6.302 8.079 3.677-.086 4.559.176 8.622.583 9.03.408.407 2.772-.072 5.255-1.066 14.72-5.889 26.306 1.637 37.297 24.231 6.087 12.51 8.086 21.216 5.912 25.736-3.45 7.177-16.163 11.568-33.489 11.568-15.452 0-25.489-3.676-31.245-11.446-1.848-2.494-2.309-4.771-2.325-11.482l-.019-8.371-4.445.706c-2.444.387-5.912 1.436-7.706 2.331-1.976.986-3.662 1.226-4.279.608-1.881-1.88.526-8.181 4.965-12.997l4.4-4.774-5.913-3.321a4097.038 4097.038 0 0 0-9.232-5.168c-3.123-1.738-3.199-1.936-1.282-3.338 2.611-1.909 14.807-3.226 21.113-2.28l4.87.73 1.23-4.883c.874-3.476 2.669-6.209 6.231-9.491zm4.432 3.575c.832-3.31-.534-3.358-3.559-.129-3.138 3.349-4.983 8.496-4.185 11.676 1.014 4.039-.115 4.621-5.704 2.94-5.498-1.656-11.496-1.975-15.741-.838-2.294.615-1.824 1.118 4.244 4.537 3.753 2.116 7.098 4.559 7.432 5.43.366.954-1.432 3.484-4.521 6.361-5.622 5.236-6.705 8.098-2.629 6.957 1.376-.386 4.501-.996 6.946-1.357 4.118-.609 4.64-1.101 7.111-6.716 1.465-3.333 4.867-8.508 7.557-11.5 4.837-5.381 4.878-5.492 3.641-10.087-.688-2.555-.954-5.829-.592-7.274zm26.105 11.223c-7.817-4.041-20.332.168-27.535 9.264-6.931 8.751-9.574 15.545-9.598 24.667-.026 10.077 2.167 13.917 10.239 17.928 4.801 2.383 6.701 2.625 20.298 2.585 12.967-.038 15.873-.391 21.427-2.593 8.799-3.491 10.434-6.17 8.642-14.17-2.997-13.391-15.587-33.602-23.473-37.681zm-4.373 5.956c0-1.692 2.611-.94 5.207 1.498 2.822 2.652 3.294 4.252 1.254 4.252-1.526 0-6.461-4.392-6.461-5.75zm-17.178 6.786c.893-1.444 1.857-1.302 4.706.694 2.728 1.91 3.254 3.826 1.052 3.826-2.196 0-6.475-3.36-5.758-4.52zm30.709 11.902c-.197-1.004.1-1.825.662-1.825 1.594 0 5.147 4.366 4.268 5.246-1.114 1.112-4.501-1.238-4.93-3.421zm-16.865 1.286c0-1.226 1.95-1.112 4.518.261 2.703 1.447 2.786 3.295.149 3.295-2.061 0-4.667-1.986-4.667-3.556zm-16.669 3.024c0-.929.375-1.679.834-1.666 1.694.05 6.328 4.296 5.544 5.08-1.245 1.246-6.378-1.502-6.378-3.414zm-8.89 9.262c0-.746 1.144-.905 3.054-.426 3.855.967 4.313 1.443 2.826 2.929-1.388 1.388-5.88-.525-5.88-2.503zm26.738.118c1.633-1.008 5.489.61 5.489 2.303 0 1.419-1.837 1.357-4.669-.158-1.778-.952-1.964-1.437-.82-2.145zm16.601 3.91c0-.906.654-1.646 1.454-1.646 2.094 0 5.909 3.01 4.986 3.932-1.301 1.3-6.44-.525-6.44-2.286zm-27.781 6.689c0-1.294.808-1.714 2.812-1.463 1.547.194 2.813.851 2.813 1.463 0 .611-1.266 1.269-2.813 1.462-2.004.251-2.812-.169-2.812-1.462zm335.595-48.766c0-1.36 3.515-.637 7.977 1.639 11.333 5.782 20.909 20.005 21.823 32.41l.471 6.399 4.434-4.006c6.753-6.101 14.596-9.322 22.729-9.334 8.776-.015 13.39 1.556 11.447 3.897-.752.905-1.931 1.645-2.62 1.643-2.065-.008-18.715 11.757-23.272 16.443l-4.237 4.359 6.711 1.32c8.888 1.748 22.971 8.91 30.066 15.288 7.014 6.306 6.028 8.176-2.279 4.321-8.794-4.083-21.113-6.552-29.373-5.89-9.438.758-9.821 1.131-6.89 6.71 3.599 6.844 4.008 21.949.926 34.136-3.607 14.265-9.291 24.931-17.804 33.407-8.789 8.753-13.466 10.466-26.516 9.71-15.745-.911-30.146-10.57-36.921-24.764-4.432-9.289-5.056-14.283-2.863-22.896 6.561-25.759 28.864-51.14 45.234-51.476l5.155-.105-1.701-3.307c-2.534-4.924-12.497-14.19-17.857-16.607-2.588-1.167-4.528-2.656-4.31-3.309.217-.654 2.495-1.604 5.06-2.111 7.581-1.5 15.622 1.45 22.212 8.143 5.163 5.246 5.504 5.414 6.139 3.038 2.086-7.782-1.21-19.524-8.596-30.636-2.83-4.256-5.145-8.046-5.145-8.422zm16.382 13.024c-7.559-8.2-8.5-7.69-3.684 2 3.85 7.747 4.399 9.822 4.458 16.844.071 8.452-1.937 15.231-4.511 15.231-.844 0-1.533-.43-1.533-.955 0-1.679-9.036-11.288-12.073-12.839-1.611-.822-4.679-1.863-6.818-2.309-3.875-.81-3.863-.789 3.144 5.595 3.868 3.525 8.532 9.061 10.361 12.304 2.747 4.866 4.372 6.373 9.321 8.638 3.298 1.511 8.281 4.318 11.075 6.24 4.862 3.346 5.315 3.444 10.646 2.3 7.328-1.571 14.45-1.477 22.961.307 3.82.801 6.945 1.298 6.945 1.104 0-.193-2.875-1.802-6.388-3.575-7.761-3.916-17.17-6.809-22.151-6.809-2.742 0-3.687-.488-3.687-1.907 0-2.738 15.08-17.14 22.254-21.254l6.084-3.488-5.315-.011c-9.366-.018-19.299 5.58-25.929 14.611-2.172 2.96-4.297 5.381-4.721 5.381-.424 0-.756-5.125-.738-11.39.036-12.997-1.503-17.125-9.701-26.018zm-3.629 47.234c-10.57-4.946-14.191-5.11-22.306-1.017-3.726 1.879-7.636 4.372-8.693 5.539-1.822 2.014-1.812 2.153.238 2.804 1.186.377 3.506.172 5.154-.455 5.382-2.046 6.187-1.554 6.187 3.78 0 3.992.552 5.355 2.927 7.223 3.656 2.877 6.536 2.905 12.003.117 4.949-2.522 6.64-2.006 5.698 1.744-1.129 4.498 1.968 10.027 6.444 11.505 3.396 1.121 4.682.983 9.119-.98 2.842-1.257 5.69-1.961 6.331-1.565.789.487.926-1.029.423-4.695-1.367-9.976-7.985-16.728-23.525-24zm-22.754 12.647c0-1.809-.934-2.099-7.06-2.192l-7.06-.107-4.053 5.314c-6.171 8.093-5.297 17.063 2.002 20.527 3.998 1.898 7.522 1.323 11.99-1.954 1.672-1.226 3.348-1.924 3.723-1.55.375.373.763 3.183.865 6.241.334 10.014 8.688 15.087 16.885 10.252 4.669-2.756 6.044-2.279 6.044 2.095 0 2.083 1.201 4.383 3.474 6.657 3.042 3.041 4.115 3.433 8.61 3.142l5.135-.334 2.365-6.667c3.726-10.51 4.125-15.101 1.576-18.115-1.987-2.351-2.535-2.457-6.768-1.317-7.899 2.127-14.616-1.481-16.62-8.927l-1.108-4.114-4.919 1.126c-8.083 1.85-15.081-2.825-15.081-10.077zm-19.684 25.813c-1.5-.982-3.611-3.761-4.692-6.174l-1.964-4.388-2.878 6.419c-3.322 7.407-5.606 16.62-4.703 18.972.494 1.288 1.966 1.469 7.165.88l6.543-.74.752 4.456c1.125 6.645 4.295 10.084 9.263 10.041 2.248-.019 5.058-.769 6.243-1.667 3.269-2.472 3.955-2.02 3.955 2.604 0 7.432 6.845 11.98 13.808 9.174 6.561-2.644 7.305-2.686 7.305-.417 0 1.177.754 3.111 1.675 4.298 1.614 2.079 1.845 1.972 6.389-2.946 2.594-2.807 5.873-7.182 7.287-9.724l2.571-4.62-4.238-.005c-5.518-.005-11.019-3.437-13.353-8.331-1.536-3.22-2.263-3.757-4.152-3.062-1.258.462-4.468.826-7.129.808-4.148-.028-5.382-.625-8.643-4.185-2.094-2.284-4.109-5.669-4.48-7.523-.627-3.132-.92-3.312-4.136-2.542-4.986 1.193-9.46.722-12.588-1.328zm-2.541 22.305c0-3.266-.429-3.467-6.443-3.024-4.343.32-4.709.574-4.024 2.786 4.523 14.639 19.669 27.093 34.385 28.275 7.32.588 15.601-.254 18.148-1.842 1.243-.774 1.179-1.44-.366-3.796-1.589-2.427-2.287-2.699-4.634-1.807-6.952 2.643-14.786-.564-17.114-7.008-1.347-3.721-1.435-3.762-7.104-3.292-5.46.454-5.914.278-9.294-3.57-1.955-2.227-3.554-5.251-3.554-6.722zM124.042 644.49c13.898-6.472 28.774 6.799 26.99 24.077-1.822 17.665-13.437 24.072-28.795 15.886-11.948-6.369-14.481-13.075-9.73-25.77 2.951-7.891 5.966-11.599 11.535-14.193zm13.586 3.58c-5.853-2.833-8.015-2.872-12.961-.238-5.109 2.721-11.094 13.88-11.094 20.685 0 4.182.567 5.288 4.567 8.901 8.96 8.095 18.901 9.718 24.275 3.964 6.098-6.527 7.147-19.39 2.232-27.344-1.247-2.016-4.406-4.702-7.019-5.968zm-11.603 12.174c8.659-3.556 16.333 7.837 9.495 14.096-5.388 4.931-11.801 3.773-14.211-2.568-1.387-3.648 1.256-10.107 4.716-11.528zm6.915 3.939c-1.791-1.79-1.98-1.827-5.045-1.01-4.281 1.146-4.557 9.196-.369 10.804 5.05 1.937 9.356-5.851 5.414-9.794zm615.151 6.765c3.475-1.372 9.367.342 12.724 3.701 9.587 9.587-1.882 25.32-14.197 19.477-4.838-2.297-7.909-8.157-6.951-13.266.649-3.459 4.979-8.553 8.424-9.912zm10.503 5.981c-4.354-4.273-10.806-3.716-14.273 1.234-2.655 3.789-2.176 7.391 1.463 11.03 3.958 3.957 7.797 4.156 11.914.615 3.796-3.266 4.237-9.598.896-12.879zm-405.107 30.236c1.827-1.987 3.585-3.611 3.906-3.611 1.076 0 8.74 12.687 12.742 21.091 3.168 6.655 4.006 9.819 4.2 15.882.221 6.871.56 7.865 3.663 10.763 14.084 13.156 4.51 36.83-14.839 36.694-4.318-.03-11.652-3.338-14.501-6.539-1.893-2.127-2.886-2.341-7.922-1.712-7.204.9-13.896-1.783-19.029-7.629-11.273-12.841-1.312-34.102 15.977-34.102h4.495l.616-6.785c.696-7.679 5.434-18.336 10.692-24.052zm19.92 44.952c-1.682-1.246-5.299-2.381-8.334-2.617-19.172-1.483-25.95 24.599-8.576 33.01 5.874 2.842 12.412 2.492 17.009-.913 10.568-7.824 10.522-21.615-.099-29.48zm-14.97 4.828c2.491-.942 4.054-.561 4.054.991 0 1.175-6.54 3.9-7.37 3.07-.995-.994.702-3.071 3.316-4.061zm-9.87-11.821c-5.735-4.374-14.091-4.96-19.387-1.36-11.187 7.604-11.988 21.466-1.695 29.317 3.295 2.512 5.313 3.157 10.025 3.202 3.245.031 6.184-.226 6.532-.572.347-.347.13-2.347-.485-4.445-1.648-5.637.605-13.758 5.24-18.889l3.785-4.19-4.015-3.063zm-18.22 5.559c1.607-1.936 8.073-2.144 7.439-.24-.508 1.524-6.288 3.323-7.758 2.414-.54-.333-.397-1.312.319-2.174zm30.748-35.739c-1.936-3.209-3.879-5.834-4.319-5.834-.441 0-1.771 1.374-2.954 3.056-4.364 6.193-6.938 12.641-7.609 19.062l-.688 6.589 4.871 4.523c5.125 4.76 8.383 5.721 9.501 2.805.369-.961-.089-5.587-1.018-10.279-1.688-8.523-1.038-12.511 1.32-8.104.688 1.282 1.839 6.045 2.562 10.584 1.251 7.866 1.462 8.274 4.513 8.722 3.859.566 4.584-.832 3.844-7.402-.593-5.263-4.576-14.689-10.023-23.722zm575.788 2.338c9.947-4.092 10.732-3.456 6.776 5.485-2.58 5.83-4.647 15.612-3.778 17.875.467 1.218 2.549 1.428 9.715.982 7.787-.486 9.967-.206 14.907 1.92 15.82 6.805 25.372 29.381 26.57 62.8.527 14.698.415 15.833-2.031 20.558-2.175 4.199-3.479 5.316-8.146 6.968-7.719 2.735-29.662 2.018-42.227-1.378-19.094-5.163-34.887-15.759-39.794-26.704-3.148-7.023-2.856-16.688.777-25.682 1.554-3.846 2.551-7.267 2.215-7.602-.333-.335-5.943-.681-12.463-.77-11.758-.16-11.851-.182-11.541-2.778.525-4.41 6.186-10.227 13.362-13.73 3.755-1.833 6.841-3.843 6.856-4.468.016-.623-4.473-5.614-9.973-11.089-5.501-5.475-10.001-10.59-10.001-11.367 0-3.501 21.576.196 32.441 5.56l7.44 3.672.703-2.821c1.916-7.679 7.507-13.035 18.192-17.431zm27.724 30.286c-16.12-8.032-39.925 1.421-54.939 21.817-9.233 12.541-12.108 26.654-7.332 35.99 4.826 9.432 17.789 18.004 35.253 23.312 8.723 2.653 11.922 3.043 25.572 3.123 17.62.104 20.508-.851 23.386-7.738 2.487-5.951 1.989-23.376-1.091-38.286-4.744-22.955-10.167-32.895-20.849-38.218zm-19.826 57.688c0-.929.444-1.69.988-1.69 1.763 0 6.26 4.229 5.406 5.085-1.256 1.261-6.394-1.467-6.394-3.395zm-20.002 8.747c0-1.829 1.071-1.93 4.928-.464 3.341 1.271 3.789 3.361.719 3.361-3.313 0-5.647-1.197-5.647-2.897zm42.685 1.946c.585-.947 1.714-.667 4.065 1.007 3.482 2.48 4.227 4.389 1.712 4.389-2.464 0-6.679-3.937-5.777-5.396zm-4.903-55.785c0-2.24 2.949-.889 4.762 2.179 2.068 3.5 2.503 6.774.904 6.774-1.085 0-5.666-7.24-5.666-8.953zm-27.746 2.563c-.057-2.262 2.103-1.594 5.019 1.552 2.971 3.205 3.312 4.343 1.617 5.392-1.253.773-6.581-4.805-6.636-6.944zm-11.148 20.886c0-2.046 2.698-1.209 5.448 1.69 1.901 2.005 2.326 3.155 1.474 4.006-.851.852-2.016.371-4.058-1.67-1.573-1.574-2.864-3.387-2.864-4.026zm25.56 3.667c0-2.04 2.178-1.879 4.634.345 2.288 2.07 2.705 4.828.731 4.828-1.846 0-5.365-3.394-5.365-5.173zm24.484 3.302c.031-1.753.324-1.673 2.222.605 2.322 2.788 2.893 5.711 1.114 5.711-1.401 0-3.383-3.752-3.336-6.316zm-65.601 2.904c0-2.37 1.294-2.034 6.112 1.584 1.999 1.501 2.036 1.741.364 2.39-2.63 1.02-6.476-1.339-6.476-3.974zm31.011-68.556c2.481-6.293 2.364-6.474-2.761-4.243-8.085 3.521-14.915 12.167-14.915 18.881 0 4.277-1.712 4.365-6.963.358-4.625-3.532-15.71-7.472-25.731-9.147l-4.357-.728 8.036 8.605c4.419 4.732 8.771 10.03 9.674 11.773 1.498 2.897 1.468 3.226-.345 3.816-6.569 2.137-16.124 7.659-18.131 10.477l-2.339 3.284 7.021.064c3.862.034 8.99.414 11.397.841 4.341.77 4.45.701 13.89-8.784 6.609-6.641 11.57-10.547 16.247-12.787l6.732-3.226.126-6.683c.073-3.849 1.099-9.151 2.419-12.501zm-738.403-3.215c.522-1.361 2.033-1.537 8.142-.953 23.064 2.203 33.164 4.304 43.944 9.141 14.098 6.328 19.533 19.858 11.111 27.663l-2.921 2.705 2.788 3.034c4.415 4.804 7.778 11.11 7.386 13.851-.295 2.064-1.315 1.052-5.669-5.624l-5.309-8.144-3.81 3.345c-12.95 11.372-38.882-.448-49.418-22.523-3.857-8.084-7.18-20.055-6.244-22.495zm23.423 4.187c-15.401-1.962-19.142-2.28-19.74-1.683-1.015 1.015 2.307 11.755 5.876 19.006 7.168 14.56 20.632 24.133 34.028 24.194 10.169.047 14.099-4.425 9.739-11.079-2.255-3.442-11.475-9.551-19.346-12.818-3.362-1.396-6.844-3.209-7.739-4.029-1.399-1.282-1.22-1.491 1.276-1.491 5.01 0 22.588 9.569 26.96 14.676l3.945 4.609 2.78-2.613c5.991-5.628 1.919-14.978-9.062-20.813-7.462-3.965-16.051-6.346-28.717-7.959zm209.914 11.433c3.097-3.097 4.619-3.778 8.445-3.778 3.826 0 5.349.681 8.445 3.778 3.097 3.097 3.779 4.62 3.779 8.446 0 3.826-.682 5.348-3.779 8.445-3.096 3.097-4.619 3.778-8.445 3.778-3.826 0-5.348-.681-8.445-3.778-3.097-3.097-3.779-4.619-3.779-8.445 0-3.826.682-5.349 3.779-8.446zm14.607 2.284c-1.719-1.72-3.997-2.728-6.162-2.728-7.71 0-11.879 10.139-6.319 15.364 8.536 8.018 20.758-4.358 12.481-12.636zm272.542 9.773c4.435-3.512 27.876-.508 41.632 5.336 21.664 9.203 41.342 27.986 52.808 50.405 1.848 3.614 3.142 7.115 2.877 7.779-.557 1.397-4.343 3.948-33.203 22.382-36.742 23.467-62.376 37.506-74.309 40.698-4.569 1.222-5.378 1.159-7.095-.56-4.5-4.503-.622-39.288 11.539-103.537 2.672-14.112 4.578-21.575 5.751-22.503zm20.481 22.646c-9.901-3.121-21.179-5.248-21.874-4.123-.236.382-1.934 8.935-3.773 19.006-7.588 41.556-11.952 75.852-10.582 83.151.651 3.476.927 3.677 4.164 3.044 5.531-1.08 28.663-12.921 47.362-24.241 27.429-16.606 43.28-26.886 43.31-28.085.015-.611-2.406-4.909-5.38-9.55-11.907-18.585-29.924-31.854-53.227-39.202zm-20.682 54.352c.381-.993 1.255-1.606 1.945-1.365 1.599.563.993 4.169-1.059 6.281-1.38 1.423-1.579 1.328-1.579-.742 0-1.303.311-3.181.693-4.174zm29.156 7.083c2.966-2.404 6.13-2.833 5.436-.737-.654 1.979-6.094 4.837-7.163 3.763-.492-.494.284-1.855 1.727-3.026zm-29.229 20.346c1.807-2.58 3.294-3.117 4.269-1.54.839 1.357-2.517 5.737-4.397 5.737-2.06 0-2.026-1.123.128-4.197zm42.291-50.848c.987-1.507 2.208-2.739 2.712-2.739 2.065 0 1.997 2.132-.157 4.869-3.9 4.959-6.033 3.178-2.555-2.13zm-20.001 5.193c2.397-3.422 4.34-1.532 2.523 2.456-1.378 3.024-4.319 4.065-4.319 1.528 0-.782.808-2.574 1.796-3.984zm34.39 14.436c3.137-2.468 6.041-3.107 6.041-1.33 0 .569-1.539 2.131-3.419 3.47-4.542 3.234-6.953 1.266-2.622-2.14zm-48.821-34.314c.672-2.508 2.04-3.248 3.035-1.639.91 1.473-.941 8.394-2.375 8.872-1.468.489-1.788-3.023-.66-7.233zm25.414-33.19c-6.031-1.936-12.495-3.048-20.103-3.457l-11.213-.603-1.183 5.984c-1.268 6.411-.706 7.6 3.607 7.637 5.164.047 24.072 6.009 33.337 10.513 17.425 8.47 30.579 20.113 39.626 35.074 2.285 3.779 4.341 7.432 4.57 8.118.469 1.408 11.922-5.499 11.922-7.189 0-3.007-9.778-18.17-17.578-27.259-10.644-12.404-27.904-23.974-42.985-28.818zM69.14 775.454c4.546-2.342 10.192-1.853 16.648 1.44 7.85 4.004 11.859 11.901 10.76 21.189l-.632 5.322 5.773-2.686c9.918-4.619 19.03-3.32 26.706 3.807 4.411 4.094 6.484 8.534 6.568 14.061.11 7.28-3.293 12.058-11.177 15.697-.19.086.686 2.08 1.945 4.428 4.468 8.339 1.639 17.651-6.624 21.802-10.585 5.319-23.767-.523-29.462-13.054l-2.523-5.557-1.293 3.334c-2.85 7.362-10.393 12.779-17.796 12.779-8.29 0-17.776-5.903-21.785-13.557-2.267-4.328-1.984-12.979.562-17.153l2.124-3.485-4.375-1.973c-5.18-2.335-12.84-10.283-13.871-14.388-1.114-4.441.284-10.573 3.11-13.646 5.807-6.313 15.341-8.38 24.213-5.25 2.598.916 4.811 1.667 4.917 1.667.105 0 .03-1.625-.171-3.612-.495-4.884 1.723-8.763 6.383-11.165zm-11.846 16.305c-10.353-4.327-23.73 1.819-23.73 10.901 0 6.427 4.839 12.197 14.203 16.934 3.447 1.744 3.997 1.724 10.002-.359 3.495-1.211 8.617-2.497 11.384-2.856 4.968-.643 5.028-.702 4.974-4.819-.087-6.477-8.428-16.29-16.832-19.801zM56.9 803.38c0-1.976 3.434-.77 7.185 2.524 3.942 3.461 4.943 5.44 2.75 5.44-1.516 0-9.935-6.748-9.935-7.964zm67.15 1.717c-4.507-3.438-13.149-4.566-18.812-2.456-3.942 1.47-15.014 8.602-14.97 9.644.09 2.21 6.78 7.873 11.195 9.48 2.813 1.024 7.999 3.599 11.525 5.722 7.296 4.393 8.472 4.577 12.827 2.005 8.558-5.055 7.68-17.191-1.765-24.395zm-23.534 6.983c2.614-1.055 10.702-.737 11.435.45 1.024 1.656.744 1.763-6.435 2.47-4.922.485-6.39.286-6.39-.865 0-.822.626-1.746 1.39-2.055zm-16.596.514c-5.24-2.699-8.344-.66-5.53 3.633 1.989 3.035 9.108 6.665 11.37 5.798 3.41-1.309.355-6.239-5.84-9.431zm-4.79 8.931c-3.5-2.587-4.19-2.648-13.114-1.163-7.359 1.224-11.374 3.271-15.096 7.696-7.997 9.504 1.307 25.056 15.731 26.297 12.032 1.034 20.145-10.697 17.028-24.624-.953-4.254-2.168-6.445-4.549-8.206zm-8.877 8.31c3.341-2.812 6.65-3.857 6.65-2.1 0 .459-1.794 2.265-3.988 4.014-5.2 4.15-7.718 2.34-2.663-1.914zm36.435-2.104c-9.642-4.663-11.578-5.259-12.873-3.963-.632.632-2.623 1.471-4.424 1.863l-3.275.715 3.138 10.066c3.75 12.024 6.771 16.832 12.684 20.18 10.647 6.03 22.594.382 22.708-10.736.032-3.186-.938-4.768-5.795-9.446-3.208-3.091-8.682-6.996-12.163-8.679zm-12.005-.353c0-1.322 5.185-.2 8.479 1.837 3.476 2.148 5.107 5.465 2.687 5.465-1.164 0-11.166-6.541-11.166-7.302zM84.236 779.8c-5.68-2.694-9.7-3.089-13.618-1.335-6.496 2.905-6.22 11.21.648 19.503 2.295 2.773 4.7 6.008 5.34 7.188.64 1.181 3.346 2.793 6.01 3.585 4.56 1.353 4.953 1.293 6.719-1.028 2.719-3.574 4.625-11.323 3.894-15.828-.844-5.197-4.319-9.867-8.992-12.085zm-4.016 15.617c.02-5.33 2.627-5.055 3.154.331.505 5.169-.645 8.929-2.733 8.929-1.299 0-1.596-.671-1.106-2.501.368-1.374.678-4.417.686-6.759zM361.966 30.092c.96-1.553 1.621-1.367 7.836 2.197 12.154 6.97 21.581 21.342 21.581 32.899 0 2.727.314 4.958.699 4.958.384 0 2.698-1.807 5.142-4.015 6.516-5.885 13.382-8.596 21.94-8.66 4.123-.031 8.383.594 9.923 1.456 3.125 1.748 3.306 1.566-7.724 7.826-6.419 3.642-19.979 14.909-19.979 16.599 0 .438 2.968 1.409 6.596 2.158 8.369 1.728 22.403 8.78 29.242 14.694 8.996 7.779 7.447 8.158-9.168 2.244-7.499-2.669-11.278-3.364-18.336-3.371-4.889-.004-9.965.281-11.282.634l-2.393.641 2.897 6.289c10.521 22.842-7.987 68.83-30.28 75.237-22.579 6.49-48.561-9.386-53.844-32.901-2.962-13.186 6.205-34.591 21.938-51.22 9.286-9.814 16.889-14.276 24.328-14.276 4.615 0 4.765-.104 3.519-2.431-2.538-4.743-11.64-13.458-17.534-16.79-5.482-3.098-5.81-3.501-3.955-4.858 1.113-.814 4.054-1.476 6.534-1.473 8.321.011 13.055 2.075 19.195 8.371l5.797 5.942.733-3.91c1.628-8.676-2.217-20.694-10.15-31.738-2.151-2.993-3.614-5.919-3.255-6.502zm-32.808 120.341c-.005-2.642-.76-2.794-7.563-1.52l-3.67.687 3.412 6.812c4.15 8.286 12.327 16.191 20.909 20.213 5.332 2.5 7.874 2.978 15.8 2.976 11.583-.002 14.995-1.465 13.102-5.619-1.109-2.436-1.722-2.693-4.689-1.968-8.212 2.007-14.203-.497-17.219-7.196-1.447-3.217-1.919-3.461-5.556-2.889-2.186.345-5.348.1-7.03-.545-3.463-1.328-7.491-7.21-7.496-10.951zm2.898-21.491c-1.624-1.278-3.858-4.089-4.966-6.25l-2.015-3.926-2.975 7.083c-1.635 3.895-3.402 9.452-3.926 12.346-1.269 7.012.188 8.325 7.408 6.673 5.727-1.31 6.857-.659 6.889 3.972.008 1.415.598 3.665 1.308 5.001 2.833 5.317 7.389 6.519 13.242 3.492 4.108-2.123 5.577-1.326 4.79 2.607-.415 2.074.116 3.949 1.685 5.943 3.274 4.162 7.022 4.759 13.069 2.085 6.268-2.773 5.927-2.793 5.927.351 0 1.433.939 3.455 2.086 4.493 1.988 1.8 2.284 1.66 6.389-3.013 2.367-2.695 5.461-6.966 6.875-9.493l2.572-4.594h-3.461c-6.071 0-13.256-5.201-14.964-10.834-.617-2.035-1.143-2.293-2.832-1.389-1.141.61-4.408 1.11-7.26 1.11-4.39 0-5.75-.565-8.875-3.69-2.163-2.163-4.003-5.354-4.445-7.71-.699-3.725-.954-3.941-3.494-2.976-4.519 1.718-9.882 1.19-13.027-1.281zm44.085-37.419c-13.715-6.513-21.69-5.754-31.43 2.991l-3.89 3.491 5.001-.398c2.75-.218 5.737-.61 6.635-.872 1.225-.356 1.8.886 2.289 4.942.417 3.456 1.412 5.97 2.745 6.945 2.691 1.968 9.219 1.897 12.778-.138 4.654-2.66 5.557-2.11 5.557 3.384 0 8.992 7.596 13.196 15.961 8.833 4.241-2.211 5.031-2.107 6.303.84.783 1.813.889.818.388-3.611-1.338-11.824-7.856-19.529-22.337-26.407zm-29.797 9.738c-2.631 0-5.533-.287-6.445-.637-1.108-.425-3.171 1.365-6.203 5.38-3.655 4.839-4.543 6.936-4.543 10.723 0 9.777 10.231 14.609 17.673 8.346 4.107-3.456 5.969-2.676 5.068 2.122-1.93 10.294 9.173 17.967 17.81 12.308 3.217-2.108 5.01-1.284 5.01 2.298 0 3.857 5.053 9.27 9.416 10.089 7.393 1.387 9.555-1.129 12.789-14.874 1.244-5.283 1.172-6.326-.668-9.742-1.453-2.699-2.555-3.598-3.741-3.054-.926.425-4.06.98-6.964 1.237-4.838.427-5.61.139-9.168-3.419-2.356-2.356-3.886-4.974-3.886-6.648 0-2.704-.142-2.75-6.945-2.214-5.931.466-7.386.198-9.961-1.844-1.76-1.396-3.313-3.985-3.734-6.229-.689-3.675-.928-3.842-5.508-3.842zm32.03-57.893c-7.288-8.066-8.465-7.548-4.038 1.774 4.962 10.449 6.096 20.24 3.216 27.78-1.051 2.752-2.345 5.003-2.877 5.003-.531 0-2.524-2.267-4.43-5.036-4.227-6.143-10.432-10.421-16.211-11.174l-4.323-.563 2.779 1.935c4.945 3.442 12.864 12.311 15.601 17.472 2.085 3.927 3.717 5.43 7.45 6.856 2.629 1.005 7.683 3.764 11.23 6.133 6.098 4.071 6.688 4.24 10.809 3.099 4.211-1.166 22.274-.741 28.251.665 1.528.359-1.34-1.413-6.374-3.937-6.964-3.494-10.881-4.73-16.391-5.172-5.832-.468-7.238-.947-7.238-2.464 0-2.493 14.514-16.337 22.218-21.191 5.79-3.648 5.947-3.865 3.043-4.201-8.487-.978-23.198 7.178-28.539 15.821-4.098 6.63-5.056 5.224-5.056-7.411 0-12.773-1.504-16.957-9.12-25.389zm513.014-11.834c4.743-3.196 12.54-3.352 17.466-.348 2.781 1.696 4.782 2.017 9.518 1.528 6.862-.708 11.199.99 15.457 6.05 1.944 2.311 3.704 3.176 6.633 3.259 5.383.152 10.616 3.036 13.319 7.342 1.738 2.766 2.146 4.971 1.828 9.908-.268 4.199.038 6.523.907 6.856.724.278 2.44 2.829 3.816 5.671 3.364 6.948 2.656 13.565-2.086 19.463l-3.459 4.306 4.721.617c2.596.34 7.083.776 9.972.968 2.889.193 5.602.701 6.031 1.129 1.488 1.488-5.616 7.43-11.529 9.642-3.271 1.225-8.31 2.226-11.194 2.226h-5.245l.375 4.723c.207 2.597-.405 8.087-1.36 12.201-1.96 8.45-7.743 21.969-9.398 21.969-.6 0-1.397-3.376-1.769-7.501-1.136-12.561-3.061-24.735-4.004-25.317-.491-.303-1.231.517-1.646 1.824-1.134 3.573-17.175 19.882-19.556 19.882-2.638 0-2.624-.22.703-10.001 1.529-4.493 2.779-8.456 2.779-8.807 0-.351-3.377-.639-7.502-.639-8.628 0-11.967-1.817-15.829-8.612-1.656-2.911-3.137-4.167-4.913-4.167-4.275 0-9.876-4.653-12.12-10.068-1.737-4.193-1.878-5.753-.86-9.532.669-2.486 2.475-5.879 4.014-7.54l2.801-3.019-2.167-2.753c-4.898-6.228-4.202-13.891 1.876-20.618 2.315-2.563 4.119-5.825 4.34-7.849.529-4.824 3.696-9.837 8.081-12.793zm6.751 20.49c-6.741-4.613-17.072-.52-20.015 7.929-1.533 4.399-1.492 5.026.561 8.853 2.154 4.015 2.37 4.118 8.594 4.122 5.389.003 6.385-.306 6.385-1.981 0-3.289 3.047-9.531 5.979-12.249 2.974-2.756 2.746-3.766-1.504-6.674zm21.08 8.119c-2.011-1.433-4.901-2.22-8.14-2.22-12.651 0-18.575 16.179-8.541 23.325l3.16 2.249 2.039-4.161c2.38-4.853 8.314-9.19 12.576-9.19 1.641 0 3.278-.292 3.635-.65 1.294-1.294-1.682-7.185-4.729-9.353zm32.956 7.235c-6.103-3.999-13.51-2.735-18.354 3.132-1.317 1.593-1.067 2.343 1.89 5.713 3.122 3.554 4.047 6.196 4.881 13.926.247 2.291.983 2.843 4.189 3.152 7.625.734 14.453-5.828 14.443-13.877-.005-3.868-3.387-9.647-7.049-12.046zM930.763 75.8c-6.167-4.849-16.659-2.213-20.325 5.108-4.368 8.717 3.369 20.339 13.546 20.349 13.23.013 17.72-16.85 6.779-25.457zm-38.075.814c-6.373-2.672-15.61 3.349-17.36 11.312-.943 4.296 2.177 10.745 6.207 12.828 4.68 2.421 6.573 2.065 6.573-1.233 0-5.069 4.915-12.05 9.815-13.943l2.593-1.001-3.013-3.604c-1.657-1.982-3.824-3.944-4.815-4.359zm14.149 15.654c-1.129-3.77-1.732-4.342-4.57-4.342-2.236 0-4.463 1.194-7.047 3.778-3.083 3.083-3.779 4.628-3.779 8.39 0 8.832 5.882 15.613 13.541 15.613 5.815 0 10.184-2.429 12.388-6.887 1.679-3.396 1.678-3.753-.005-4.781-5.119-3.127-9.359-7.868-10.528-11.771zm47.901 6.354c-11.582-2.916-15.996-3.069-17.534-.606-1.958 3.136-8.004 6.57-11.578 6.574-2.453.004-3.384.809-4.826 4.172-2.172 5.069-7.158 21.737-6.654 22.241.789.789 11.922-12.728 13.72-16.658 1.136-2.483 2.59-4.07 3.58-3.905 2.274.377 5.31 10.025 6.452 20.501.906 8.308.999 8.523 2.332 5.324 3.219-7.721 4.784-16.59 4.06-22.995l-.73-6.453 7.555-.024c4.969-.016 9.127-.737 12.143-2.107 6.425-2.918 7.076-4.536 1.824-4.536-2.352 0-7.007-.688-10.344-1.528zm-7.918-51.504c-4.617-2.277-6.955-2.445-11.484-.822-2.444.875-4.53 1.6-4.632 1.609-.104.009-1.229 1.701-2.501 3.759-2.926 4.733-2.931 9.121-.017 13.901l2.288 3.752 2.987-2.848c4.182-3.99 8.827-5.499 14.376-4.67l4.723.705v-4.012c0-5.029-2.36-9.707-5.74-11.374zm-40.58-13.493c-7.727-4.015-17.388.967-19.645 10.129-.733 2.977-.629 3.056 4.035 3.056 2.633 0 6.589.918 8.789 2.04l4.003 2.042.564-4.212c.31-2.316 1.67-5.763 3.022-7.661 1.35-1.897 2.277-3.602 2.057-3.79-.219-.188-1.492-.909-2.825-1.604zm23.244 5.352c-2.911-2.63-4.641-3.279-8.743-3.279-4.472 0-5.663.55-9.495 4.381-3.935 3.935-4.345 4.869-4.035 9.168l.344 4.786 5.855.715c3.219.393 6.517 1.264 7.327 1.937 1.159.961 1.753.287 2.784-3.156.802-2.673 2.924-5.722 5.451-7.826l4.141-3.447-3.629-3.279zM612.521 95.802c3.973-.509 10.891-.989 15.376-1.067l8.155-.141-.784 4.722c-.997 6.01-5.382 17.769-8.559 22.95-11.878 19.376-37.31 28.825-47.686 17.717l-3.113-3.332-4.402 6.813c-2.422 3.746-4.591 7.373-4.82 8.06-.229.686-1.006.883-1.727.436-1.558-.962 2.437-9.515 6.952-14.88l2.854-3.393-3.349-3.348c-4.055-4.055-4.429-9.265-1.134-15.723 4.799-9.409 19.318-15.875 42.237-18.814zm18.274 7.909 1.526-5.784-6.29.141c-18.476.414-40.823 6.14-47.984 12.295-7.371 6.334-8.974 15.648-3.223 18.726 1.671.893 2.95.193 6.956-3.813 4.949-4.951 18.436-12.276 25.027-13.594 2.961-.592 3.418-.413 2.836 1.104-.382.995-1.229 1.81-1.884 1.81-3.031 0-19.571 9.134-23.298 12.866-8.304 8.316-3.39 14.866 10.175 13.563 15.707-1.51 30.831-17.117 36.159-37.314zM25.7 114.51c2.665-2.663 4.183-3.248 8.445-3.248 4.466 0 5.75.552 9.116 3.919 3.612 3.612 3.874 4.32 3.345 9.022-.386 3.42-1.488 6.014-3.345 7.869-1.855 1.857-4.449 2.96-7.87 3.345-4.7.529-5.408.267-9.02-3.345-3.367-3.367-3.92-4.65-3.92-9.116 0-4.263.584-5.781 3.248-8.446zm15.137 2.814c-5.869-5.87-15.052-1.947-15.052 6.431 0 3.013.73 4.589 2.928 6.317 8.966 7.054 20.158-4.715 12.123-12.748zm416.457 19.61c4.887-1.413 4.822-1.416 9.06.355 7.52 3.142 9.753 13.879 4.069 19.563-1.754 1.755-4.505 3.52-6.112 3.924-4.226 1.061-8.307-.279-11.952-3.924-6.19-6.19-3.384-17.511 4.935-19.918zm9.568 4.986c-3.701-3.114-4.634-3.292-8.704-1.666-7.642 3.055-7.731 13.409-.143 16.551 2.713 1.124 4.04 1.124 6.752 0 6.559-2.716 7.618-10.239 2.095-14.885zm-335.015 10.413c4.216-1.708 12.129-1.153 15.842 1.112 6.512 3.969 8.514 10.937 5.333 18.551-.917 2.195-1.667 4.178-1.667 4.409 0 .231 1.876.428 4.167.438 5.538.025 12.34 4.071 14.886 8.855 1.17 2.2 2.06 6.143 2.06 9.13 0 6.784-4.478 12.243-12.332 15.032-5.295 1.882-5.447 2.061-5.452 6.398-.005 6.129-3.239 10.904-9.405 13.889-7.087 3.432-14.891 2.749-19.542-1.706-3.705-3.549-5.767-9.514-4.759-13.766l.674-2.846-3.206 2.93c-4.06 3.709-8.822 6.114-14.043 7.093-8.612 1.616-18.61-6.789-18.61-15.644 0-4.219 3.18-10.311 6.764-12.962l3.091-2.286-3.538-4.403c-2.984-3.711-3.54-5.334-3.54-10.312 0-4.757.542-6.495 2.779-8.922 6.347-6.888 16.66-8.885 25.401-4.919 5.794 2.629 5.713 2.62 5.713.57 0-2.132 6.461-9.458 9.384-10.641zm33.559 32.616c-3.353-3.661-4.386-4.109-10.279-4.464-5.126-.309-8 .215-13.218 2.412-3.667 1.545-6.739 2.811-6.827 2.813-.089.003.421 1.977 1.132 4.386.905 3.062 2.688 5.39 5.934 7.741 2.553 1.849 5.762 4.879 7.133 6.733 2.856 3.864 5.94 4.277 11.659 1.562 9.096-4.316 11.121-13.923 4.466-21.183zm-22.826 5.628c1.652-1.989 7.757-1.961 10.505.048 3.064 2.24 1.94 2.667-5.362 2.034-5.278-.456-6.186-.825-5.143-2.082zm-27.123-24.913c-4.45-2.714-9.998-2.73-15.904-.047-9.105 4.134-10.847 11.611-4.376 18.774l3.827 4.237 10.153-.486c8.895-.424 10.483-.816 12.834-3.168 2.376-2.376 2.571-3.193 1.692-7.105-1.295-5.759-3.834-9.527-8.226-12.205zm-4.077 10.328c-.017-.763.671-1.389 1.528-1.389 2.08 0 6.176 6.602 5.381 8.673-.474 1.234-1.404.707-3.754-2.127-1.719-2.072-3.138-4.392-3.155-5.157zm34.257-19.808c-11.506-5.951-23.183 4.116-19.865 17.125 1.969 7.72 3.141 10.184 4.847 10.184.846 0 4.847-1.5 8.892-3.335 6.01-2.725 7.766-4.139 9.599-7.734 1.235-2.421 2.245-5.396 2.245-6.614 0-3.747-2.505-7.965-5.718-9.626zm-12.477 17.922c1.892-3.385 3.299-4.843 4-4.141 1.359 1.359.323 4.719-2.601 8.436-2.24 2.848-4.318 3.762-4.318 1.898 0-.534 1.314-3.321 2.919-6.193zm-.207 16.427c-1.678-2.66-5.178-4.545-7.435-4.008-4.656 1.112-.489 11.053 4.243 10.123 2.876-.566 4.603-3.876 3.192-6.115zm-11.397 4.935-1.872-4.139-8.334-.027c-13.337-.045-22.224 6.071-22.224 15.295 0 4.388 4.468 9.701 9.573 11.387 5.347 1.764 12.574-1.018 18.792-7.236 5.552-5.551 6.63-9.606 4.065-15.28zm-10.484 3.107c3.536-1.918 6.534-2.2 7.462-.699.356.575-1.679 2.075-4.52 3.333-6.163 2.726-5.998 2.707-5.998.655 0-.897 1.376-2.377 3.056-3.289zm29.485 2.36c-4.887-3.387-4.725-3.343-6.982-1.885-.917.593-2.758 1.085-4.093 1.095-2.727.019-3.142.987-4.715 10.983-1.794 11.415 2.328 17.926 11.35 17.926 7.807 0 15.238-5.83 15.238-11.954 0-4.713-4.936-12.102-10.798-16.165zm-6.982.438c0-1.959 2.44-1.395 5.207 1.204 2.428 2.283 3.552 6.474 1.735 6.474-1.258 0-6.942-6.287-6.942-7.678zm703.323-42.57c7.996-7.143 20.015-1.797 20.071 8.928.031 5.936-1.328 8.588-5.51 10.75-5.697 2.946-10.844 2.191-15.276-2.241-3.634-3.634-3.876-4.3-3.331-9.132.45-4.009 1.385-5.926 4.046-8.305zm13.834 2.546c-8.966-7.054-20.159 4.715-12.125 12.748 5.87 5.87 15.052 1.947 15.052-6.43 0-3.014-.729-4.59-2.927-6.318zm-178.774 10.959c9.716-3.452 10.194-1.931 2.908 9.231-3.025 4.633-5.205 8.719-4.845 9.078.359.36 2.268.655 4.24.655 1.974 0 6.922 1.03 10.997 2.288 9.886 3.053 9.464 4.942-1.96 8.753l-8.674 2.893 3.351 2.479c4.726 3.494 6.478 9.837 4.666 16.905-1.006 3.928-1.061 6.026-.195 7.644 1.889 3.531 1.386 10.381-1.058 14.388-2.551 4.186-8.869 7.294-13.458 6.62-2.612-.383-3.193.009-3.745 2.525-1.365 6.205-10.271 11.786-16.843 10.552-2.501-.469-4.623-.002-7.235 1.589-2.032 1.239-5.34 2.255-7.351 2.257-7.797.009-15.791-6.901-15.791-13.649 0-1.741-1.673-4.425-4.548-7.302-4.395-4.395-4.539-4.766-4.228-10.966.254-5.058-.194-7.24-2.113-10.306-1.341-2.139-2.439-5.313-2.442-7.055-.006-5.065 3.302-10.748 7.393-12.698 2.841-1.355 3.715-2.469 3.715-4.735 0-7.18 9.088-14.815 16.848-14.155 3.764.32 3.981.178 2.91-1.897-.635-1.233-2.841-4.619-4.901-7.523-4.539-6.404-4.641-7.502-.688-7.487 4.701.016 13.792 4.745 17.717 9.215l3.531 4.023 3.612-3.374c4.065-3.797 9.972-7.027 18.187-9.948zm1.68 4.32c0-1.514-1.552-1.072-8.62 2.46-3.713 1.856-8.541 5.356-10.731 7.779-2.188 2.422-4.164 4.405-4.391 4.405-.224 0-1.714-1.973-3.31-4.384-2.781-4.202-12.376-11.009-13.679-9.706-.345.345.435 2.119 1.734 3.944 1.299 1.823 3.26 5.228 4.356 7.564 4.621 9.844 6.059 11.457 10.214 11.465 2.378.004 5.588 1.148 8.195 2.919l4.287 2.913 11.251-3.628c6.188-1.995 11.69-4.019 12.226-4.498 1.17-1.045-5.253-2.782-14.014-3.79-3.505-.403-6.599-1.099-6.876-1.546-.276-.448 1.717-4.003 4.428-7.899 2.711-3.897 4.93-7.495 4.93-7.998zm-37.048 17.905c-8.687-5.297-18.514.896-18.514 11.668 0 5.233 4.68 10.479 10.118 11.343 3.987.633 4.009.613 4.759-4.077.526-3.277 1.936-5.894 4.636-8.594 4.56-4.559 4.314-7.101-.999-10.34zm19.145 11.807c-9.808-8.253-24.51 3.804-18.638 15.286 3.442 6.729 12.681 8.561 18.055 3.581 6.223-5.768 6.476-13.91.583-18.867zm20.502 4.503c-2.242-2.243-4.005-2.903-7.751-2.903-2.667 0-4.905.126-4.97.278-.068.152-.227 3.155-.351 6.671-.162 4.574-.918 7.329-2.656 9.68l-2.428 3.286 2.431 2.266c3.188 2.97 10.079 3.005 14.197.073 6.404-4.561 7.13-13.75 1.528-19.351zm-60.383.871c0-.854-.706-1.551-1.568-1.551-2.377 0-7.322 6.473-7.322 9.585 0 6.289 6.143 12.639 12.224 12.639 3.26 0 8.602-2.944 9.967-5.495 1.954-3.648 1.309-5.405-2.271-6.19-3.901-.857-11.03-6.667-11.03-8.988zm21.964 16.506c-3.336-3.133-3.546-3.12-5.117.33-1.802 3.955-1.609 7.326.604 10.535 3.027 4.393 5.01 5.453 10.269 5.491 6.54.046 11.173-4.056 11.173-9.896v-3.959h-7.132c-5.868 0-7.607-.444-9.797-2.501zm41.813 5.925c-.791-2.062-1.198-2.059-4.882.05-2.792 1.6-11.042 1.597-14.568-.003-1.423-.646-1.928.046-2.47 3.378-.814 5.016 1.062 8.415 6.073 11.006 9.241 4.778 19.599-4.654 15.847-14.431zm-51.009 2.635c-.789-3.595-1.214-3.794-4.283-2.01-1.236.718-4.263.913-7.5.483l-5.43-.72v4.236c0 5.245 2.477 8.931 7.377 10.979 4.389 1.833 8.798 1.079 12.306-2.104 2.428-2.204 2.434-2.265.356-4.906-1.159-1.473-2.43-4.153-2.826-5.958zm32.17 18.598c.949-2.696.625-3.499-2.762-6.849-3.599-3.557-4.013-3.696-6.617-2.229-1.528.861-5.098 1.584-7.936 1.606-6.055.046-7.24 1.721-4.985 7.046 3.354 7.922 10.801 10.544 17.352 6.105 2.131-1.443 4.358-3.999 4.948-5.679zm-26.064-.644c-.034-3.554-1.544-4.113-5.54-2.05-2.139 1.105-5.014 1.809-6.389 1.567-3.528-.623-3.346 3.631.344 8.017 3.354 3.985 9.055 5.433 13.745 3.489l3.217-1.332-2.68-3.951c-1.474-2.172-2.688-4.755-2.697-5.74zm300.031-77.631c.012-.152.982-.278 2.158-.278 3.44 0 8.49 5.065 11.099 11.128l2.419 5.623 3.008-2.176c1.653-1.195 5.487-4.715 8.521-7.819 3.033-3.104 6.158-5.644 6.945-5.644 3.142 0 .734 14.629-4.083 24.811l-3.066 6.477 2.901 1.098c4.443 1.683 7.933 5.397 10.816 11.508 2.575 5.459 3.448 10.561 1.808 10.551-.458-.002-3.834-1.24-7.501-2.752-3.667-1.51-8.042-2.758-9.723-2.772-3.047-.027-3.056-.003-3.056 7.796 0 16.905-9.114 24.792-34.046 29.464-13.654 2.558-31.305 1.912-35.638-1.304-6.795-5.044-7.261-23.887-1.042-42.169 3.729-10.97 5.747-14.503 12.138-21.259 8.861-9.37 17.276-10.829 30.523-5.294 2.177.909 4.211 1.402 4.517 1.094.308-.307.723-4.439.921-9.182.198-4.743.37-8.749.381-8.901zm8.315 8.352c-1.523-2.301-3.176-4.185-3.676-4.185-.499 0-1.367 3.625-1.929 8.057l-1.021 8.056 6.79 7.359c3.736 4.047 7.986 9.902 9.445 13.012 2.371 5.049 3.036 5.657 6.228 5.698 1.964.026 5.888.831 8.717 1.792 2.83.961 5.382 1.509 5.673 1.219 1.058-1.057-4.024-9.345-6.876-11.214-1.613-1.057-4.641-2.199-6.732-2.538-4.081-.663-4.862-2.505-2.052-4.839.962-.798 2.714-3.343 3.895-5.658 2.199-4.311 5.774-16.565 5.045-17.295-.224-.224-3.096 2.039-6.38 5.027-6.512 5.922-10.494 8.422-11.966 7.512-.519-.321-1.269-2.212-1.667-4.201-.399-1.989-1.97-5.499-3.494-7.802zm-14.962 12.233c-7.95-3.755-12.891-4.448-18.207-2.556-12.864 4.579-24.106 27.085-24.44 48.924-.181 11.914.629 14.32 5.621 16.688 3.5 1.66 6.112 1.854 17.513 1.291 21.297-1.049 36.045-6.103 41.944-14.372 2.205-3.092 2.572-4.958 2.572-13.053 0-8.391-.37-10.128-3.329-15.557-4.494-8.252-14.23-17.849-21.674-21.365zm-13.199 2.782c.686-.685 1.956-.974 2.823-.641 1.344.516 1.353.944.048 2.908-.841 1.267-2.112 2.497-2.823 2.735-1.656.551-1.693-3.357-.048-5.002zm-16.724 14.415c.528-1.375 1.477-2.5 2.108-2.5 1.528 0 1.474 5.222-.062 6.172-1.915 1.183-3.096-.936-2.046-3.672zm23.488-.76c3.607-2.526 5.283-.2 1.891 2.624-1.472 1.226-3.053 2.246-3.512 2.267-1.806.08-.697-3.267 1.621-4.891zm15.603 9.31c2.907-2.424 4.168-2.684 4.168-.859 0 1.846-3.395 5.366-5.174 5.366-2.273 0-1.788-2.176 1.006-4.507zm-32.459 6.121c.736-.888 1.778-1.614 2.313-1.614 1.659 0 1.077 3.074-.969 5.12-1.836 1.836-1.964 1.837-2.313.027-.204-1.056.232-2.645.969-3.533zm12.907 4.864c1.789-1.977 4.828-2.787 4.828-1.287 0 1.396-3.673 4.811-5.173 4.811-1.987 0-1.884-1.06.345-3.524zm19.366 11.403c4.271-2.602 6.991-3.01 6.302-.944-.769 2.308-6.809 5.294-8.541 4.224-1.202-.744-.689-1.494 2.239-3.28zm-42.801 2.354c.946-1.35 2.161-2.455 2.702-2.455 2.003 0 1.994 1.807-.024 4.476-2.726 3.608-5.273 1.685-2.678-2.021zm19.651 3.837c1.767-.712 5.28-.885 5.28-.259 0 1.133-3.632 3.969-5.081 3.969-1.955 0-2.111-2.938-.199-3.71zm-415.386-45.726c7.107-3.611 13.026-3.59 20.373.072 9.066 4.517 15.348 13.53 16.559 23.758.928 7.835-2.562 13.582-10.651 17.539-5.136 2.513-7.623 3.001-15.419 3.03-9.266.036-9.307.023-12.959-3.957-5.478-5.967-8.689-15.502-8.201-24.349.485-8.811 2.665-12.216 10.298-16.093zm17.84 2.614c-8.224-3.746-16.466-2.048-22.003 4.532-2.486 2.955-3.002 4.647-3.006 9.871-.007 7.953 2.89 16.203 7.36 20.955 2.944 3.133 4.229 3.685 8.557 3.685 13.626 0 23.565-5.451 24.845-13.623 1.341-8.559-6.497-21.205-15.753-25.42zm-9.096 13.492c7.031-2.832 13.49 1.335 13.49 8.701 0 9.079-9.419 13.593-15.557 7.454-4.562-4.56-3.357-13.969 2.067-16.155zm8.54 4.437c-4.208-4.208-10.001-1.688-10.001 4.352 0 6.085 7.18 9.021 10.493 4.29 2.328-3.323 2.178-5.971-.492-8.642zm-271.295-6.995c5.625-.865 6.915-.773 10.467.747 8.311 3.556 13.021 13.035 13.021 26.204 0 9.467-2.316 12.735-12.147 17.147-12.697 5.698-22.052 5.038-28.913-2.042-7.51-7.748-7.828-20.51-.745-29.826 3.811-5.011 13.515-11.491 18.317-12.23zm12.376 5.691c-5.829-4.204-12.956-3.295-22.216 2.833-12.242 8.101-13.781 25.311-2.984 33.359 4.923 3.669 13.905 3.214 23.162-1.17 4.074-1.931 8-4.619 8.725-5.975 1.968-3.677.929-17.399-1.714-22.67-1.207-2.406-3.444-5.275-4.973-6.377zm-15.434 11.73c1.842-1.961 3.677-2.647 7.084-2.647 9.642 0 13.169 9.229 6.051 15.835-3.5 3.248-5.854 3.704-10.341 1.998-5.651-2.149-7.19-10.508-2.794-15.186zm12.764 3.475c-1.75-2.652-8.628-3.623-10.31-1.456-2.485 3.204-2.453 5.355.125 8.353 2.298 2.672 3.011 2.912 5.771 1.942 4.256-1.497 6.411-5.813 4.414-8.839zm575.515-12.361c12.105-4.42 17.698-4.806 19.548-1.347 1.76 3.285.674 13.759-3.522 33.958-5.33 25.654-22.835 91.965-25.716 97.41-1 1.888-2.031 2.033-10.158 1.433-12.633-.934-20.631-3.229-33.492-9.607-13.312-6.602-25.237-16.363-35.186-28.798-9.974-12.466-21.922-35.626-19.991-38.751 1.08-1.746 25.366-14.901 55.733-30.189 28.936-14.567 38.029-18.72 52.784-24.109zm16.457 7.906c.204-7.544.129-7.788-2.566-8.067-6.04-.624-30.523 9.559-65.404 27.205-29.956 15.155-36.831 19.075-36.831 20.999 0 .884 1.319 4.217 2.931 7.405 12.321 24.358 33.916 41.979 63.661 51.945 14.067 4.714 14.013 4.727 16.656-4.198 9.643-32.571 21.244-83.856 21.553-95.289zm-33.535 75.22c1.401-3.744 3.469-1.817 2.568 2.394-.887 4.152-2.562 6.51-3.997 5.623-.988-.61-.665-2.425 1.429-8.017zm-36.09-15.959c1.953-2.158 2.909-2.47 4.055-1.324.861.861-3.405 7.07-4.858 7.07-1.682 0-1.185-3.55.803-5.746zm22.878-4.902c2.086-2.651 2.554-2.848 2.871-1.205.422 2.189-2.591 7.408-4.276 7.408-1.854 0-1.2-2.89 1.405-6.203zm25.821-44.887c2.081-2.299 5.024-3.038 5.024-1.261 0 .543-.964 2.169-2.143 3.611-1.698 2.078-2.432 2.341-3.53 1.262-1.105-1.087-.973-1.82.649-3.612zm-33.845 20.191c2.676-2.492 6.643-3.302 6.643-1.355 0 1.383-6.423 4.74-8.04 4.201-.679-.227-.059-1.489 1.397-2.846zm-28.688 7.749c3.41-2.159 5.328-2.241 5.328-.229 0 1.317-6.938 5.564-8.008 4.903-1.671-1.034-.872-2.425 2.68-4.674zm61.081.393c1.158-2.54 3.411-3.498 3.247-1.38-.258 3.284-1.709 6.358-3.003 6.358-1.888 0-1.949-1.236-.244-4.978zm-75.026 23.869c-1.907-2.751-5.242-8.587-7.412-12.971l-3.944-7.97-6.355 3.41c-3.495 1.875-6.355 3.988-6.355 4.695 0 2.291 8.689 19.328 13.493 26.456 10.671 15.835 30.742 32.842 46.15 39.102 7.73 3.141 21.701 6.173 28.444 6.173h4.838l1.479-5.834c.815-3.209 1.689-6.397 1.943-7.086.268-.721-1.334-1.583-3.769-2.029-2.328-.427-7.984-2.055-12.567-3.616-23.414-7.979-43.605-22.535-55.945-40.33zm-443.036-44.373c1.826-4.403 5.032-4.462 13.923-.253 12.801 6.061 60.779 36.895 83.715 53.8 6.945 5.12 6.953 5.456.455 18.607-7.371 14.916-24.032 29.454-42.814 37.36-14.724 6.196-39.943 10.312-42.626 6.956-1.257-1.571-7.963-42.791-11.008-67.652-2.566-20.951-3.365-44.666-1.645-48.818zm95.495 56.232c-2.197-1.634-4.448-2.952-5.001-2.928-.553.022-2.498 2.397-4.319 5.278-5.22 8.251-20.294 23.258-29.31 29.177-9.648 6.334-22.922 11.407-34.561 13.208-4.558.705-8.486 1.479-8.727 1.72-.241.241-.081 3.038.357 6.215l.794 5.778 8.604-.718c24.783-2.067 50.829-14.953 64.104-31.715 4.629-5.844 13.488-21.922 12.505-22.693-.249-.194-2.249-1.69-4.446-3.322zm-78.331-50.915c-10.829-5.787-13.179-6.387-14.235-3.636-2.067 5.385.236 35.662 5.477 72.033 4.032 27.98 3.012 25.424 9.792 24.55 21.298-2.745 40.157-12.665 55.042-28.953 5.725-6.265 13.469-16.876 13.469-18.456 0-1.998-52.943-36.665-69.545-45.538zm20.651 67.177c0-.9.625-1.43 1.389-1.177 1.979.654 4.837 6.094 3.763 7.163-1.076 1.075-5.152-3.662-5.152-5.986zm-20.775 6.872c-.522-3.217-.335-4.062.82-3.677 1.944.647 3.558 6.638 2.165 8.032-1.495 1.494-2.204.459-2.985-4.355zm22.997-25.72c0-.822.761-1.495 1.69-1.495 1.842 0 4.682 5.112 3.498 6.296-.979.979-5.188-2.916-5.188-4.801zm21.114-4.728c0-1.717 1.856-1.502 5.039.583 2.878 1.886 3.719 4.898 1.35 4.836-1.854-.05-6.389-3.896-6.389-5.419zm-43.339 2.102c0-3.215 2.458-2.245 3.419 1.35 1.056 3.945-.552 6.395-2.189 3.338-.676-1.264-1.23-3.375-1.23-4.688zm-6.667-32.853c0-2.275 1.952-1.935 3.295.574 1.58 2.951 1.441 4.518-.398 4.518-1.589 0-2.897-2.299-2.897-5.092zm22.225 9.92c0-1.988 1.06-1.884 3.523.345 1.977 1.789 2.787 4.828 1.287 4.828-1.396 0-4.81-3.672-4.81-5.173zm141.754 6.6c2.732-2.618 5.893-4.76 7.023-4.76 1.841 0 2.007.777 1.589 7.5-.609 9.829.1 10.807 6.258 8.634 13.675-4.825 23.937.885 34.031 18.935 9.237 16.518 11.773 29.301 6.798 34.275-4.664 4.665-14.574 7.579-27.84 8.186-14.314.655-21.821-.748-28.824-5.387-6.456-4.276-8.96-9.494-8.886-18.526.064-7.984-.096-8.068-9.378-4.861-3.203 1.106-6.078 1.757-6.39 1.445-2.437-2.437 1.649-11.721 6.816-15.485l2.815-2.052-8.955-4.941c-4.926-2.719-8.971-5.545-8.989-6.282-.047-1.945 6.921-3.118 17.913-3.017l9.613.089.719-4.496c.537-3.363 1.97-5.695 5.687-9.257zm6.166 14.686c-.174-.611-.648-4.01-1.054-7.554-.656-5.728-.936-6.282-2.521-5.001-3.633 2.941-5.44 7.009-5.44 12.247 0 2.92-.125 5.301-.278 5.292-.154-.009-2.278-.738-4.723-1.618-4.693-1.691-14.168-2.09-17.592-.741-1.639.646-.942 1.311 3.585 3.433 3.09 1.446 6.675 3.757 7.968 5.132l2.35 2.501-5.855 5.643c-3.22 3.103-5.611 5.886-5.313 6.184.298.297 3.582-.025 7.299-.716l6.76-1.257 3.049-6.382c1.678-3.509 5.082-8.556 7.566-11.216 2.482-2.66 4.372-5.336 4.199-5.947zm25.106.184c-8.632-4.096-18.369-1.101-26.763 8.235-12.173 13.539-14.89 30.347-6.302 38.989 5.93 5.968 13.833 7.975 28.805 7.313 12.927-.572 21.576-2.777 25.598-6.525 3.899-3.632 2.711-11.678-3.652-24.76-6.01-12.354-12.387-20.739-17.686-23.252zm9.217 24.035c0-.893.589-1.427 1.31-1.187 1.828.609 3.772 3.927 2.845 4.855-1.058 1.057-4.155-1.678-4.155-3.668zm-16.668 2.377c0-.876.688-1.593 1.531-1.593 1.782 0 4.638 3.092 3.711 4.017-1.122 1.123-5.242-.784-5.242-2.424zm-17.095 2.358c.569-1.484 1.024-1.476 3.995.061 2.416 1.249 3.016 2.071 2.145 2.942-1.767 1.767-6.99-.789-6.14-3.003zm-8.464 9.821c0-1.779 2.023-1.992 4.436-.466 1.181.747 1.315 1.39.463 2.242-1.508 1.507-4.899.278-4.899-1.776zm25.973-.208c.974-1.577 5.142-.307 5.142 1.568 0 .844-.625 1.529-1.389 1.52-2.265-.028-4.505-1.87-3.753-3.088zm17.365 3.423c0-1.064.637-1.423 1.758-.993.967.371 2.217.675 2.778.675.562 0 1.02.75 1.02 1.667 0 .916-.458 1.666-1.02 1.666-2.341 0-4.536-1.459-4.536-3.015zm-28.614 6.627c-.306-.917.734-1.389 3.056-1.389 2.321 0 3.361.472 3.056 1.389-.255.765-1.63 1.389-3.056 1.389-1.426 0-2.802-.624-3.056-1.389zm-3.127-35.722c.479-.774 1.588-.741 3.445.105 2.837 1.293 3.79 4.251 1.349 4.189-2.229-.057-5.566-3.045-4.794-4.294zm17.295-6.474c0-1.88 1.198-1.791 4.197.31 2.503 1.753 3.388 4.937 1.373 4.937-1.692 0-5.57-3.654-5.57-5.247zm-345.138-3.636c.087-7.87.334-8.894 2.149-8.895 3.633-.003 8.291 4.34 11.339 10.57l2.971 6.071 2.932-2.121c1.613-1.167 5.413-4.662 8.446-7.766 6.285-6.432 8.376-7.055 8.376-2.488 0 5.047-4.204 20.083-6.781 24.252-1.299 2.103-2.18 3.961-1.958 4.129.223.167 2.061.964 4.084 1.771 4.395 1.751 8.433 6.751 10.745 13.301 3.037 8.608 2.232 9.378-5.758 5.511-2.648-1.282-6.806-2.598-9.241-2.925l-4.426-.593-.024 7.646c-.055 17.212-8.963 25.188-33.289 29.802-11.593 2.199-28.795 2.282-33.866.164-6.416-2.681-7.843-6.172-7.738-18.936.055-6.82.843-13.97 2.025-18.384 4.331-16.171 13.666-30.344 22.385-33.987 5.496-2.296 14.195-1.958 20.609.801 3.035 1.306 5.834 2.058 6.221 1.673.386-.387.746-4.704.799-9.596zm-6.034 11.859c-7.338-3.656-16.535-4.053-21.649-.934-4.545 2.771-10.021 9.198-13.211 15.501-6.533 12.915-10.003 32.711-7.409 42.271 1.911 7.045 5.776 8.381 22.278 7.697 22.74-.941 37.622-6.412 43.08-15.838 3.753-6.48 3.17-17.516-1.408-26.651-4.153-8.286-13.843-18.14-21.681-22.046zm9.001 48.242c4.511-2.749 6.761-2.985 5.851-.615-.936 2.439-6.313 4.993-8.139 3.864-1.133-.701-.562-1.511 2.288-3.249zm-42.801 2.354c.946-1.35 2.192-2.455 2.769-2.455 1.551 0 1.271 2.606-.545 5.066-2.367 3.208-4.524.674-2.224-2.611zm18.845 4.901c2.249-2.25 4.974-2.334 4.974-.154 0 1.589-5.084 3.642-6.216 2.51-.307-.306.252-1.366 1.242-2.356zm4.59-18.658c1.79-1.977 4.829-2.787 4.829-1.287 0 1.396-3.673 4.811-5.173 4.811-1.988 0-1.885-1.06.344-3.524zm-3.464-32.868c2.102-3.003 5.484-2.224 3.821.881-1.466 2.74-3.278 3.758-4.505 2.531-.598-.598-.321-1.978.684-3.412zm-16.045 13.333c.512-1.374 1.446-2.5 2.077-2.5 1.627 0 1.422 3.645-.341 6.055-1.174 1.607-1.612 1.71-2.077.49-.323-.849-.17-2.67.341-4.045zm23.459-.76c3.606-2.526 5.281-.2 1.89 2.624-1.472 1.226-3.053 2.246-3.512 2.267-1.805.08-.696-3.267 1.622-4.891zm14.794 10.197c3.642-3.377 4.976-3.794 4.976-1.552 0 2.24-4.002 5.42-6.271 4.984-1.705-.328-1.518-.824 1.295-3.432zm-32.022 5.591c.98-1.084 2.205-1.971 2.722-1.971 1.587 0 1.041 3.073-.889 5.003-2.583 2.583-4.318-.288-1.833-3.032zm41.043-38.751c-1.034-2.812-3.017-6.181-4.41-7.489l-2.53-2.378-2.365 16.416 6.797 7.118c3.739 3.914 7.977 9.651 9.421 12.75 2.587 5.556 2.702 5.641 8.486 6.239 3.225.332 7.421 1.41 9.323 2.393 4.297 2.222 4.472.877.719-5.527-2.767-4.723-8.245-8.299-12.707-8.299-3.161 0-2.946-1.288 1.196-7.164 3.132-4.443 8.097-19.27 6.882-20.551-.255-.27-3.078 2.048-6.272 5.15-6.376 6.195-10.606 8.832-11.853 7.389-.445-.516-1.654-3.237-2.687-6.047zM835.924 11.035c2.828-2.827 3.961-3.266 6.946-2.689 7.276 1.405 9.884 9.467 4.727 14.623-3.823 3.823-9.654 3.732-12.748-.2-3.227-4.103-2.891-7.768 1.075-11.734zm9.322 1.961c-2.294-2.292-4.111-2.202-7.277.36-2.235 1.812-2.445 2.552-1.491 5.279.778 2.225 1.974 3.273 4.005 3.51 5.366.627 8.506-5.405 4.763-9.149zM83.616 594.183c-16.998-3.866-30.191-.17-34.913 9.782-3.257 6.863-2.303 8.066 2.762 3.487 4.82-4.352 10.522-7.244 14.29-7.244 2.764 0 2.99 2.074.313 2.872-5.121 1.524-11.8 5.635-14.908 9.176l-3.442 3.92 2.633 2.132c5.435 4.402 15.781.576 29.181-10.792 3.749-3.179 8.187-6.68 9.862-7.778 1.675-1.098 2.795-2.402 2.487-2.899-.306-.497-4.025-1.692-8.264-2.656zm-50.053 68.903c0-3.948-.04-3.982-4.722-3.958-6.526.034-12.993 3.25-17.777 8.838-13.756 16.071-1.148 40.256 20.183 38.714 22.556-1.633 30.178-32.092 10.913-43.617l-4.706-2.817-.556 2.95c-.878 4.651-3.335 4.571-3.335-.11zm-6.553 1.991c1.31-1.577 1.571-1.419 2.325 1.402 1.287 4.811 3.831 6.222 7.654 4.245 3.906-2.019 4.354-2.018 4.354.019 0 .901-1.495 2.412-3.32 3.355-2.931 1.517-3.77 1.528-7.183.102-4.404-1.84-6.24-6.216-3.83-9.123zm119.874 304.77c-18.032-5.355-32.741-1.514-38.729 10.11-2.757 5.353-1.403 6.212 3.363 2.133 5.543-4.745 13.835-8.226 15.537-6.523.801.801-.667 2.002-4.774 3.908-3.261 1.512-7.806 4.654-10.1 6.981-3.928 3.985-4.063 4.347-2.328 6.264 4.626 5.113 17.438.513 30.625-10.995 3.843-3.355 8.112-6.625 9.488-7.269 3.756-1.759 3.072-2.782-3.082-4.609zm836.768-336.736c-8.007-3.204-17.022-1.903-24.267 3.503-4.346 3.243-9.02 12.51-9.036 17.916-.075 25.755 33.857 33.936 45.651 11.008 2.891-5.617 2.822-15.152-.151-20.979-2.688-5.267-4.857-6.391-7.581-3.925-1.094.99-2.327 1.801-2.737 1.801-1.388 0-.755-3.052.922-4.445 2.539-2.105 2.062-2.933-2.801-4.879zm-6.777 6.392c1.657-3.635 3.551-3.287 3.256.599-.365 4.783 2.05 7.097 6.528 6.257 2.863-.536 3.683-.313 3.683 1.006 0 2.048-4.516 3.351-8.313 2.398-3.826-.96-6.744-6.77-5.154-10.26zM798.708 103.669c-2.718 0-5.971-.327-7.228-.726-2.389-.757-2.615-.44-3.933 5.541-1.328 6.026-4.815 10.3-10.025 12.289-4.462 1.705-5.405 1.726-9.957.228l-5.028-1.656-.003 2.904c-.014 10.055-12.921 16.447-23.924 11.85-3.107-1.298-3.854-1.327-3.854-.15 0 .804-1 2.732-2.222 4.286-1.222 1.554-2.223 3.082-2.223 3.394 0 .313 2.626 1.469 5.835 2.569 3.974 1.363 8.845 1.966 15.279 1.894 15.56-.175 28.007-5.909 39.055-17.99 5.16-5.644 13.174-19.699 13.174-23.105 0-.831-1.852-1.328-4.946-1.328zm4.443-16.093c-.991-4.392-3.699-11.985-6.015-16.874l-4.213-8.89-.75 3.889c-1.193 6.191-4.798 11.044-9.933 13.375-5.92 2.687-9.042 2.685-14.98-.01l-4.723-2.143-.016 4.112c-.057 12.555-14.121 21.412-26.073 16.418l-3.794-1.585-1.234 3.734c-2.547 7.716-13.736 14.635-21.24 13.135-1.763-.354-3.205-.351-3.205.004 0 3.024 13.625 22.175 17.656 24.815 2.537 1.663 2.799 1.615 4.715-.876 1.115-1.451 2.039-4.013 2.052-5.693.029-3.644.956-3.76 6.692-.834 2.396 1.223 6.426 2.223 8.957 2.223 3.75 0 5.298-.698 8.378-3.778 3.31-3.31 3.779-4.482 3.779-9.446 0-3.117.221-5.667.492-5.667.27 0 2.297 1.064 4.503 2.367 10.526 6.209 19.08 1.062 21.148-12.727.645-4.306 1.147-5.197 2.609-4.63 3.718 1.443 10.79 2.32 13.469 1.673 3.619-.876 3.904-2.955 1.726-12.592zm-24.103-44.798c-1.827-1.653-4.061-2.075-10.996-2.077l-8.703-.003-.723 3.851c-2.167 11.526-10.649 15.978-22.485 11.803l-4.452-1.571-.589 4.392c-.735 5.484-3.212 9.34-7.794 12.133-4.364 2.662-12.879 2.866-17.6.425-1.86-.961-3.485-1.587-3.609-1.389-.126.198-.826 1.61-1.555 3.138-.732 1.528-1.941 3.63-2.689 4.673-1.096 1.527-.894 3.796 1.033 11.668 3.703 15.125 5.12 17.821 10.066 19.152 8.843 2.381 18.339-3.998 19.83-13.322.39-2.442 1.135-4.702 1.653-5.022.517-.32 2.492.566 4.391 1.969 5.028 3.717 14.183 3.604 18.281-.227 4.854-4.534 6.399-8.562 5.846-15.231-.273-3.287-.081-6.233.425-6.545.505-.313 2.974 1.084 5.487 3.103 3.77 3.029 5.518 3.671 9.992 3.671 4.768 0 5.918-.494 9.511-4.087 3.519-3.519 4.159-4.957 4.606-10.34.48-5.785.214-6.695-3.557-12.171-2.243-3.255-5.109-6.852-6.369-7.993zm-20.3-17.059c-9.156-4.68-16.129-4.578-27.534.402-11.441 4.994-18.11 9.003-23.984 14.418-6.094 5.617-8.67 10.591-10.282 19.849-1.925 11.051-.552 17.171 1.625 7.244l.673-3.07 5.245 2.792c12.564 6.689 24.108.666 23.44-12.228-.14-2.716-.013-5.182.283-5.479.297-.295 2.976.695 5.953 2.202 6.617 3.35 12.617 3.532 16.472.5 3.26-2.564 5.498-8.349 5.01-12.949-.367-3.449-.649-3.39 9.338-1.954 2.873.413 6.069.428 7.1.032 1.556-.597 1.139-1.373-2.448-4.561-2.378-2.113-7.278-5.351-10.891-7.198zM558.829 13.635c-6.263-1.9-9.004-2.127-13.453-1.112-6.288 1.436-7.84 2.966-5.561 5.484 2.694 2.978.949 4.718-2.481 2.471-2.732-1.791-2.914-1.76-4.935.846-7.774 10.028-3.633 26.349 8.238 32.479 5.128 2.648 14.62 2.834 19.367.379 3.89-2.011 10.009-8.714 11.474-12.568 1.344-3.533 1.331-11.669-.024-15.232-1.686-4.432-8.759-11.574-12.625-12.747zm-13.61 6.056c-.769-3.06.417-3.76 2.627-1.551 1.97 1.97 1.629 4.658-1.017 8.022-1.896 2.41-3.113 2.922-6.303 2.651-5.31-.454-6.182-3.116-1.021-3.116 4.675 0 6.688-2.118 5.714-6.006zm-33.424 21.923c-2.769-2.112-5.631-3.113-9.924-3.469l-6.031-.5v3.471c0 2.345-.542 3.472-1.667 3.472-1.036 0-1.667-1.049-1.667-2.778 0-3.473-.693-3.467-5.851.037-9.1 6.183-12.017 20.242-6.067 29.233 7.26 10.969 19.625 13.984 30.284 7.382 7.535-4.666 10.834-11.083 10.297-20.032-.45-7.507-2.877-11.86-9.374-16.816zm-12.822 3.138c.551-3.707 3.534-2.961 3.534.884 0 5.44-6.795 8.524-12.297 5.58-2.239-1.199-2.984-4.406-1.022-4.406.619 0 2.121.621 3.337 1.382 2.763 1.725 5.93.035 6.448-3.44zM93.57 37.365c0-3.665-.208-3.885-3.61-3.804-9.237.218-18.045 5.598-22.066 13.48-3.508 6.878-2.675 17.976 1.828 24.385 9.458 13.454 28.784 13.535 38.969.163 7.922-10.4 5.331-25.971-5.564-33.436-4.643-3.182-6.222-3.101-6.222.323 0 1.729-.63 2.778-1.668 2.778-1.163 0-1.666-1.173-1.666-3.889zm-7.403 3.404c.92-2.401 2.959-2.185 2.959.313 0 1.128 1.037 2.99 2.307 4.138 2.215 2.006 2.443 2.011 5.707.138 3.789-2.175 5.301-1.644 3.499 1.228-1.825 2.909-6.495 4.175-9.817 2.662-3.225-1.469-5.65-5.887-4.656-8.479zM44.716 8.493C39.69 5.894 31.59 5.369 26.34 7.301c-8.561 3.153-16.1 13.848-16.1 22.841 0 10.123 8.755 21.061 18.54 23.159 7.432 1.595 12.85.569 19.01-3.6 11.154-7.547 13.732-23.698 5.502-34.461-1.529-1.998-1.775-2.015-4.256-.278-1.447 1.015-3.02 1.845-3.497 1.845-1.456 0-.96-2.495.904-4.555 1.639-1.81 1.513-2.084-1.726-3.759zm-7.82 5.536c.581-1.528 1.486-2.778 2.01-2.778 1.754 0 2.367 1.385 1.417 3.201-.52.992-.503 2.959.034 4.385.823 2.179 1.632 2.529 5.148 2.226 3.121-.269 4.17.059 4.17 1.304 0 2.169-7.843 2.898-10.194.947-2.657-2.205-3.764-6.184-2.584-9.285zM14.346 284.732c-1.847-1.846-2.764-1.519-4.907 1.752-1.287 1.962-1.94 5.088-1.919 9.167.045 8.179 1.138 11.977 3.868 13.439 2.072 1.108 2.181.959 1.407-1.914-1.28-4.755-.771-12.717 1.098-17.194 1.228-2.936 1.35-4.353.453-5.25zm32.147 4.418c.806-4.035-.087-4.189-9.567-1.642-8.27 2.223-14.998 6.364-18.35 11.295-4.337 6.384-3.311 12.957 1.227 7.854 3.256-3.659 10.422-6.433 16.691-6.459 5.396-.024 5.806-.233 7.51-3.825.993-2.091 2.112-5.341 2.489-7.223zM8.181 533.09c3.845-2.692 8.99-2.253 12.075 1.029 4.983 5.305 2.409 15.128-4.355 16.613-10.144 2.229-16.232-11.68-7.72-17.642zm10.772 5.294c-2.049-4.295-7.699-5.027-10.287-1.332-2.324 3.318-2.24 4.478.577 8.061 2.867 3.644 6.043 3.427 9.05-.617 1.944-2.613 2.014-3.27.66-6.112z" fill="#000"/></svg>