<svg width="250" height="250" viewBox="1 0 1000 1000" fill="none" xmlns="http://www.w3.org/2000/svg"><path fill-rule="evenodd" clip-rule="evenodd" d="M.792 994.272c3.581-2.531 7.36-4.244 10.912-4.888 9.762-1.773 20.234 2.018 29.431 10.616h-4.9c-2.654-2.201-4.907-3.626-7.22-4.731-3.291-1.572-7.556-3.068-9.477-3.323-5.85-.78-12.986 1.663-18.746 6.084v-3.758zM197.993 1000l3.304-7.019-4.154-2.438c-6.217-3.648-13.632-10.539-13.632-12.666 0-3.331 3.567-4.197 15.688-3.808l11.394.366 4.257-10.72c2.341-5.895 5.087-11.636 6.102-12.757 4.123-4.556 6.969-.318 10.389 15.468 1.185 5.467 2.243 10.019 2.352 10.117.109.098 5.007.69 10.883 1.317 13.531 1.444 16.963 2.567 16.556 5.421-.229 1.603-2.924 3.428-10.914 7.392l-10.61 5.264 1.299 4.063h-3.041c-.853-2.849-1.459-5.04-1.465-5.34-.008-.4 4.812-3.025 10.71-5.836 12.682-6.042 12.53-6.304-4.72-8.17l-11.454-1.239-2.193-10.555c-1.207-5.805-2.847-12.088-3.646-13.963l-1.452-3.408-3.499 7.482c-1.923 4.116-4.305 10.076-5.292 13.246l-1.796 5.763-12.632-.667c-8.745-.462-12.841-.331-13.308.425-.736 1.19 6.968 7.695 13.383 11.3 2.178 1.224 3.959 2.756 3.959 3.405 0 .516-1.281 3.663-3.05 7.557h-3.418zm105.631 0c3.025-10.377 8.444-19.672 16.024-27.329 7.385-7.457 15.306-12.218 24.758-14.879 8.332-2.346 28.179-1.39 37.37 1.8 15.216 5.281 24.487 13.298 31.108 26.898a67.642 67.642 0 0 1 4.876 13.51h-2.78c-.325-1.237-.727-2.524-1.223-4.017-3.155-9.497-7.204-15.944-14.116-22.483-6.42-6.071-13.318-9.693-23.341-12.256-11.131-2.848-24.555-2.604-34.01.616-17.6 5.995-29.823 19.256-35.444 38.14h-3.222zm180.034 0c1.994-2.508 3.613-4.771 4.725-6.653 1.01-1.708 2.527-3.106 3.374-3.106.931 0 3.321 3.356 7.003 9.759h-3.479c-1.562-2.55-2.854-4.39-3.209-4.508-.365-.122-2.237 1.746-4.586 4.508h-3.828zm210.694 0c.049-.667.164-1.552.328-2.711 2.453-17.436 1.595-33.224-3.463-63.758-6.511-39.31-4.506-62.809 7.304-85.59 9.44-18.207 29.643-33.314 48.818-36.502 20.008-3.326 39.678 3.04 55.081 17.827 9.322 8.949 14.516 17.033 18.273 28.443 2.259 6.86 2.634 9.733 2.669 20.452.029 9.006-.456 14.272-1.745 18.955-5.372 19.513-16.344 33.798-37.75 49.157-8.961 6.429-70.253 45.119-84.892 53.727h-4.623zm26.323 0a38.301 38.301 0 0 0-.289-.281c-2.271-2.195-4.131-4.552-4.131-5.238-.002-3.05 4.039-.012 8.875 5.519h-4.455zm110.232 0 .208-.156c4.951-3.782 10.234-12.632 11.388-19.081.393-2.195.906-4.327 1.14-4.739.236-.412.907-.748 1.495-.748 1.737 0 .344 8.135-2.43 14.193-1.896 4.143-4.309 7.638-7.278 10.531h-4.523zm124.669 0c3.552-4.001 6.093-5.869 9.308-7.212 7.09-2.962 13.541-1.116 21.827 6.247l1.086.965h-4.869c-4.231-3.599-8.678-5.768-12.04-5.768-3.039 0-6.727 1.997-10.781 5.768h-4.531zm38.732 0 .883-.912a39.463 39.463 0 0 1 5.609-4.815v3.757a30.673 30.673 0 0 0-2.339 1.97h-4.153zm6.492-51.906c-.23-3.724-.24-7.458 0-10.88v10.88zm0-93.605c-9.761-7.348-17.636-16.785-23.157-27.926-6.088-12.289-8.211-21.427-8.289-35.698-.082-14.792 1.628-22.128 8.469-36.338 4.44-9.221 6.096-11.494 14.63-20.069a96.551 96.551 0 0 1 8.347-7.496v3.511c-22.869 18.262-33.926 50.274-26.627 78.298 4.558 17.5 14.169 31.734 26.627 41.857v3.861zm0-233.74c-4.404 2.227-8.357 4.004-11.441 5.087-2.057.723-3.742 1.935-3.742 2.694 0 .759.873 4.821 1.938 9.027 1.065 4.208 3.992 17.526 6.502 29.598s5.06 23.969 5.667 26.438c.896 3.626.816 5.184-.411 8.099-5.331 12.727-28.251 14.441-38.011 2.843-2.075-2.467-2.62-4.167-2.62-8.18 0-4.584.367-5.416 3.857-8.735 6.713-6.386 18.801-7.819 27.914-3.311 3.312 1.638 4.143 1.763 4.143.619 0-4.823-13.965-64.32-17.309-73.741-.797-2.248-1.157-4.511-.8-5.027.357-.517 3.568-2.212 7.135-3.767 5.285-2.306 11.226-5.366 17.178-8.778v3.261c-3.093 1.735-6.052 3.306-8.698 4.594-6.584 3.204-12.118 5.898-12.3 5.988-.18.09.711 3.793 1.983 8.231 1.583 5.52 2.79 8.066 3.822 8.063 2.174-.007 8.03-2.552 15.193-6.31v3.307zm0-69.844c-17.009-.193-31.518-26.229-18.873-33.94 5.407-3.297 12.668-2.185 18.873 1.999v3.99c-1.435-1.243-2.899-2.286-4.29-2.996-10.205-5.206-18.357.267-15.76 10.581 2.085 8.276 12.436 17.233 20.05 17.372v2.994zm0-81.189c-2.136 2.759-4.989 5.886-8.093 8.68-13.453 12.11-33.18 19.678-51.194 19.64-6.724-.014-10.992-1.089-9.651-2.43.308-.307 5.458-.734 11.445-.948 12.551-.448 19.95-2.202 30.012-7.114 9.815-4.791 18.513-11.553 24.546-19.081a84.714 84.714 0 0 1 2.935-3.481v4.734zm0-330.604c-3.675 3.484-7.606 6.165-11.479 7.607-21.722 8.089-42.755-7.221-46.7-33.993-1.222-8.299-.125-20.008 2.601-27.732 1.335-3.784 1.251-4.194-2.502-12.204-4.904-10.463-9.978-25.518-9.978-29.602 0-7.916 7.2-23.194 16.899-35.86 2.328-3.04 4.245-5.425 5.935-7.328h4.531c-2.471 2.299-5.076 5.257-7.755 8.825-7.597 10.116-12.722 19.407-15.024 27.241-2.425 8.252-2.237 9.047 2.149 9.042 4.174-.004 7.898-2.004 16.711-8.972 11.682-9.241 24.036-13.97 36.489-13.97 2.792 0 5.436.195 8.123.643v2.92c-15.872-2.561-30.185 2.266-46.11 15.447-2.469 2.044-6.245 4.598-8.391 5.676l-3.901 1.96 12.115 2.334c12.029 2.318 12.141 2.321 15.872.429 2.813-1.424 6.076-1.937 12.948-2.033 5.191-.072 9.781-.619 10.551-1.26 1.776-1.473 4.167-2.549 6.916-3.252v3.067c-.67.185-1.248.399-1.714.64-4.518 2.34-12.781 11.598-15.734 17.628-1.443 2.945-3.396 8.234-4.344 11.755-1.965 7.305-3.288 9.639-4.424 7.802-1.835-2.97 5.93-22.996 11.471-29.581 1.406-1.67 2.555-3.308 2.555-3.64 0-.333-2.605-.605-5.79-.605-7.815 0-14.506 3.437-21.596 11.095-5.815 6.28-12.435 18.661-14.336 26.816-4.188 17.94-.92 34.567 8.906 45.318 13.419 14.684 31.228 14.083 45.006-.452v4.239zM835.432 0c-2.354 2.294-5.06 4.208-8.137 5.766-5.478 2.774-6.434 2.929-17.761 2.872-10.271-.051-13.142-.447-20.203-2.787-7.571-2.509-9.453-3.763-7.479-4.982.413-.255 4.117.675 8.23 2.067 9.845 3.332 23.332 4.167 31.059 1.92C824.085 4 828.41 1.844 830.907 0h4.525zM725.128 0c4.304 4.923 9.239 11.821 12.511 18.157 6.588 12.757 9.713 24.262 9.892 36.433.199 13.392-1.653 14.142-2.46.998-1.309-21.292-10.336-41.85-24.396-55.588h4.453zM498.76 0c6.425 11.171 16.784 31.615 30.196 59.686 7.432 15.557 8.07 19.05 4.455 24.413-9.507 14.108-34.898 12.671-38.154-2.158-1.036-4.712 2.98-11.747 8.695-15.235 5.338-3.257 15.447-4.637 20.663-2.819 1.696.591 3.083.834 3.083.539 0-1.144-24.301-50.239-24.853-50.21-.323.017-2.157 2.123-4.078 4.68-7.68 10.224-32.43 33.466-40.369 37.909-1.16.65.155 3.997 6.777 17.254 12.8 25.623 22.624 46.649 23.194 49.638.849 4.453-3.271 11.193-8.978 14.685-4.106 2.513-6.164 3.062-12.567 3.353-8.282.376-13.359-1.321-17.441-5.834-2.929-3.239-2.754-11.408.337-15.742 4.716-6.612 17.861-10.743 26.55-8.345 2.161.597 4.026.985 4.146.863.528-.538-24.821-51.242-30.942-61.894-3.726-6.484-6.617-11.942-6.426-12.128.192-.188 3.02-2.411 6.283-4.941 11.636-9.02 26.14-23.423 34.327-33.714h3.826c-.813.957-1.686 2.02-2.572 3.146-6.986 8.869-23.904 25.561-32.445 32.009-3.067 2.316-5.578 4.401-5.578 4.632 0 .231 1.941 3.735 4.312 7.787l4.313 7.367 8.458-6.254c9.626-7.119 22.702-19.853 31.466-30.644l5.968-7.35-4.218-7.451c-.65-1.149-1.3-2.249-1.908-3.242h3.48zm-81.001 0c2.488 10.112 2.854 21.262 1.128 33.675-1.009 7.253-.955 7.74 1.004 9.112 6.188 4.335 7.365 16.177 2.556 25.728-4.307 8.552-8.443 11.467-18.114 12.768-10.765 1.447-14.751 1.252-18.429-.902-10.095-5.912-9.993-16.379.359-36.505 4.385-8.525 9.375-13.648 13.522-13.88 1.49-.084 3.382-.202 4.205-.261 1.236-.089 1.433-1.587 1.132-8.577-.349-8.099-1.591-15.151-3.725-21.158h3.192c2.07 6.069 3.296 13.148 3.734 21.401.44 8.296.613 8.839 3.595 11.348 1.722 1.449 3.449 2.317 3.837 1.929.39-.389.675-7.516.637-15.838-.049-10.552-.236-14.374-1.412-18.84h2.779zm-97.67 0a67.264 67.264 0 0 0-2.244 6.012c-4.202 13.061-4.206 12.816.21 13.522 4.418.707 8.563 3.646 10.518 7.459 2.44 4.754 4.889 18.392 4.988 27.758.082 7.787-.213 9.574-1.962 11.92-5.452 7.318-12.207 9.005-20.542 5.131-2.933-1.365-6.535-2.765-8.001-3.112-1.467-.347-4.013-1.764-5.659-3.148-10.208-8.589-10.161-30.161.078-36.387 3.119-1.898 3.146-1.987 3.36-10.82.153-6.385 1.096-12.529 2.789-18.335h3.222c-1.211 4.068-2.115 8.397-2.701 12.97-.652 5.093-.99 9.457-.748 9.697.24.241 2.035-.335 3.988-1.279 3.256-1.572 3.694-2.316 5.26-8.909.763-3.212 2.56-8.32 4.346-12.479h3.098zM41.137 0c.352.329.703.665 1.05 1.008C50.01 8.717 81.37 45.323 81.382 46.76c.012 1.485-25.644 26.215-37.9 36.532-5.213 4.387-12.84 10.194-16.947 12.904l-7.47 4.927-1.195 7.087c-1.863 11.055-8.796 23.028-17.078 30.9v-4.237c2.127-2.246 4.16-4.825 6.062-7.731 6.304-9.623 7.705-14.02 8.796-27.594 2.027-25.202 4.17-33.117 11.103-40.994l4.155-4.721-2.292-1.857c-1.26-1.021-4.575-2.535-7.363-3.363-5.826-1.73-15.554-1.886-20.46-.516V45.03c10.239-2.624 25.36-.031 31.5 6.579l3.279 3.529 8.694-1.537c4.782-.846 11.836-2.35 15.677-3.342l6.983-1.805-6.983-.725c-9.785-1.014-21.694-5.262-37.523-13.383-7.467-3.831-15.907-7.466-18.754-8.076a57.179 57.179 0 0 0-2.874-.541v-2.92c7.066 1.18 14.372 4.114 25.23 9.846 6.584 3.475 15.357 7.454 19.492 8.843 9.28 3.115 24.423 5.271 28.193 4.015 2.707-.902 2.703-.908-11.345-17.363C49.084 12.598 41.782 4.602 36.233 0h4.904zM.792 464.981c1.518-1.711 2.678-2.845 2.962-2.845 1.842 0 .288 3.36-2.962 7.578v-4.733zm0 53.983c3.858 2.605 7.304 6.401 9.636 11.064l2.98 5.965 5.248-9.244c2.888-5.084 9.777-18.222 15.31-29.196 5.535-10.975 10.5-20.627 11.035-21.45.8-1.233 1.029-1.103 1.29.739.33 2.317-19.257 41.765-30.27 60.959-6.38 11.12-8.717 13.141-15.14 13.105l-.089-.001v-2.994l.105.001c6.623.052 10.323-5.516 8.482-12.766-.94-3.707-4.614-8.728-8.587-12.192v-3.99zm0 74.652c10.17-5.839 20.348-12.708 27.264-18.594 3.271-2.783 6.455-5.078 7.076-5.1 3.049-.106 23.175 86.743 21.931 94.632-1.117 7.085-9.04 12.021-19.35 12.057-20.73.073-28.939-19.34-11.776-27.848 6.473-3.207 15.275-3.258 21.422-.122 2.363 1.206 4.45 2.038 4.64 1.849.41-.411-5.312-28.011-9.037-43.591l-2.658-11.115-4.148 3.127C26.24 606.387 12.06 615.043.793 620.749v-3.307c10.33-5.425 23.365-13.38 31.94-19.88 5.925-4.492 6.636-5.385 6.099-7.653-.336-1.412-1.56-5.565-2.72-9.228l-2.107-6.661-3.99 3.464c-5.81 5.044-18.303 13.25-29.222 19.392v-3.26zm0 133.346c11.69-9.315 24.409-14.594 39.146-16.335 15.463-1.826 31.227 1.078 46.441 8.555 8.18 4.02 10.861 6.039 19.569 14.737 9.089 9.075 10.593 11.118 15.13 20.543 6.875 14.275 8.584 21.596 8.502 36.403-.077 14.263-2.238 23.579-8.254 35.599-10.356 20.691-28.305 35.313-51.407 41.876-11.332 3.218-29.572 3.218-40.903 0-10.543-2.995-20.045-7.688-28.224-13.85v-3.862c25.286 20.561 62.283 24.157 92.427 3.688 15.039-10.214 25.182-24.321 30.683-42.677 3.515-11.731 3.756-28.738.572-40.477-7.438-27.419-28.943-48.847-55.716-55.513-23.437-5.836-44.802-1.743-64.754 12.404a71.108 71.108 0 0 0-3.212 2.419v-3.51zM987.797 0l3.5 3.11L994.308 0h4.156a29.88 29.88 0 0 0-2.961 3.175c-1.78 2.215-3.722 4.019-4.315 4.009-.594-.009-3.043-2.047-5.44-4.529A39.787 39.787 0 0 0 982.925 0h4.872zm-586.4 1000c-6.14-17.287-19.673-25.91-40.579-25.851-19.952.056-33.246 8.463-40.731 25.851h-3.097c.414-.963.828-1.875 1.226-2.7 8.878-18.358 21.479-26.106 42.508-26.139 16.461-.026 25.656 3.436 34.641 13.04 4.024 4.303 7.078 9.508 9.224 15.799h-3.192zM1000.8 822.565a33.5 33.5 0 0 1-1.442-2.269c-3.314-5.741-6.756-17.021-6.756-22.137 0-6.525 2.25-3.957 3.61 4.123.803 4.767 2.362 9.456 4.588 13.871v6.412zm0-67.155a48.188 48.188 0 0 0-3.373 5.566c-2.972 5.748-5.823 8.361-5.823 5.337 0-2.451 4.35-9.581 9.196-15.552v4.649zM.792 750.762c1.415-1.746 2.872-3.394 4.274-4.796 7.635-7.637 16.367-12.864 25.945-15.536 3.292-.918 6.323-1.475 6.734-1.236 1.886 1.091.172 2.184-7.26 4.632C18.148 737.891 7.64 745.587.792 755.407v-4.645zm0 65.391a52.25 52.25 0 0 0 8.344 12.031c2.978 3.216 5.414 6.125 5.414 6.463 0 3.214-8.755-4.749-13.758-12.082v-6.412zm406.896-782.54c-5.964-1.711-5.602-1.985-5.006 3.797 1.196 11.567-7.791 30.594-17.169 36.35-1.967 1.208-1.966 1.218.003 2.773 1.086.858 3.634 2.057 5.662 2.665 7.892 2.364 14.527-4.632 20.787-21.916 3.784-10.448 3.909-15.923.462-20.021-1.396-1.659-3.529-3.3-4.739-3.648zm-8.043 3.232c-.905-3.605-3.001-3.416-5.969.536-5.281 7.031-12.632 24.594-12.632 30.179 0 4.029 2.683 4.183 6.615.381 6.721-6.499 13.648-24.471 11.986-31.096zm22.338 15.382c-.575-2.139-1.657-4.396-2.403-5.015-1.089-.903-1.465-.456-1.906 2.254-.755 4.654-5.808 17.009-9.541 23.332-3.054 5.172-3.065 5.237-.856 5.237 3.628 0 9.051-4.404 11.836-9.613 3.295-6.162 4.198-11.263 2.87-16.195zM318.617 23.043c-1.78-2.88-11.67.815-13.944 5.209-2.879 5.568-.884 28.22 3.177 36.073 3.373 6.52 12.892 8.691 18.189 4.149.201-.172-.814-1.346-2.255-2.609-4.21-3.688-6.871-12.689-7.369-24.923-.342-8.401-.097-11.328 1.155-13.838.873-1.752 1.345-3.579 1.047-4.061zm7.038 5.069c-3.135-6.061-5.85-2.364-6.314 8.595-.661 15.637 5.512 32.111 10.242 27.333 2.762-2.789-.04-28.407-3.928-35.928zm-22.648 31.217c-1.072-3.703-2.247-11.65-2.61-17.656l-.661-10.924-2.705 3.223c-2.681 3.193-4.76 8.73-4.771 12.705-.013 4.756 3.198 12.546 6.553 15.903 5.483 5.482 6.494 4.698 4.194-3.251zM65.43 59.276c5.76-5.469 10.25-10.118 9.975-10.331-.273-.213-4.115.837-8.534 2.332-7.978 2.7-28.18 6.805-33.49 6.805-6.957 0-14.527 18.736-13.654 33.79l.31 5.339 7.98-5.721c9.192-6.59 22.41-17.971 37.413-32.214zm-19.455 591.9c-9.407-3.949-21.417-1.312-24.924 5.471-1.996 3.861-1.904 5.864.448 9.72 5.709 9.365 25.62 9.842 31.573.756 3.308-5.05-.264-13.079-7.097-15.947zM26.987 754.509c4.536-2.203 8.884-2.668 8.29-.888-.212.642-2.04 1.738-4.06 2.438-4.311 1.492-12.676 7.046-12.676 8.416 0 .523-.675.95-1.497.95-4.5 0 1.872-6.996 9.944-10.916zm16.994 9.802c8.052-2.077 18.887 1.604 25.343 8.608 11.773 12.773 7.728 33.2-8.25 41.656-3.166 1.676-5.863 2.189-11.606 2.207-6.438.019-8.223-.388-12.772-2.908-6.18-3.423-10.648-9.034-12.701-15.949-1.858-6.252-1.84-8.924.1-15.453 2.544-8.567 10.361-15.707 19.886-18.161zm16.451 5.414c-11.785-6.034-24.833-2.137-31.645 9.452-3.613 6.148-3.835 15.497-.517 21.808 7.296 13.875 24.61 17.496 36.204 7.571 12.978-11.109 10.888-31.187-4.042-38.831zm-15.78 14.969c4.175-4.442 11.182-1.98 12.407 4.36 1.252 6.486-7.84 11.041-12.58 6.301-2.67-2.67-2.587-7.722.174-10.661zm7.423 1.447c-2.976-1.961-6.599.084-6.599 3.727 0 4.225 4.401 5.932 7.446 2.888 1.681-1.683 1.227-5.249-.846-6.615zm47.915 36.052c3.532-5.724 4.692-6.752 5.728-5.077.768 1.244-5.114 10.953-7.367 12.159-2.99 1.601-2.552-.294 1.639-7.082zm-18.072-2.1c2.632-2.95 2.973-3.085 3.316-1.311.462 2.377-7.987 10.493-10.922 10.493-2.86 0-2.29-1.591 1.388-3.864 1.805-1.116 4.605-3.509 6.218-5.318zM77.9 842.821c6.625-3.806 8.48-4.274 8.48-2.135 0 2.131-14.794 9.144-23.266 11.029-7.703 1.714-15.143 1.718-15.143.008 0-.549 3.003-1.295 6.674-1.658 8.932-.883 16.032-3.095 23.255-7.244zm775.334-293.933c6.136-3.741 19.371-1.942 26.113 3.55 2.162 1.761 2.674 2.721 1.877 3.519-.798.798-2.362.206-5.732-2.169-3.778-2.663-5.802-3.342-10.948-3.669-4.518-.288-7.203.058-9.445 1.218-3.332 1.724-6.159 6.113-6.159 9.567 0 5.264 5.685 10.974 10.925 10.974 1.125 0 2.948-.904 4.054-2.009 1.889-1.89 1.912-2.157.384-4.489-1.552-2.368-1.532-2.481.45-2.481 1.141 0 2.55.889 3.131 1.975 2.831 5.288-3.233 10.921-10.323 9.59-12.668-2.376-15.444-18.797-4.327-25.576zm-467.949 5.855c24.059-6.087 24.078-6.091 24.952-5.218 1.091 1.091-16.516 51.378-17.882 51.072-1.548-.347-29.268-37.301-29.268-39.017 0-.756 8.442-3.356 22.198-6.837zm14.64 18.382c5.784-16.793 6.672-20.186 5.263-20.108-1.726.094-37.339 8.96-37.941 9.444-.179.146 5.312 7.771 12.202 16.946 7.455 9.921 12.73 16.121 13.023 15.301.272-.759 3.625-10.471 7.453-21.583zm-121.566-29.671c5.55-4.669 16.075-2.799 19.295 3.426 3.617 6.997.942 15.036-6.028 18.12-3.681 1.628-5.054 1.776-8.337.892-10.193-2.746-13.023-15.626-4.93-22.438zm15.232 3.536c-2.173-2.582-3.289-3.07-7.028-3.07-11.002 0-13.964 14.299-3.838 18.529 4.429 1.851 7.797 1.006 10.959-2.752 3.323-3.948 3.287-8.689-.093-12.707zm635.427 8.343c6.604-3.009 24.977.103 32.584 5.519 4.177 2.975 4.653 6.353 1.622 11.524-2.815 4.806-14.177 15.593-22.375 21.245-4.897 3.376-5.94 3.694-11.973 3.647l-6.608-.051-64.237 63.952 1.881 6.984c2.46 9.127 2.505 22.357.114 33.938-6.906 33.462-32.494 62.165-57.075 64.023-15.443 1.169-31.831-5.507-44.362-18.066-17.54-17.581-22.77-39.758-13.667-57.947 3.925-7.843 10.422-16.393 17.859-23.506 11.669-11.156 21.914-17.004 36.776-20.988 9.99-2.678 28.93-2.97 37.412-.578 5.413 1.527 5.535 1.515 9.123-.946 4.975-3.413 26.939-23.76 46.452-43.034 15.57-15.38 16.147-16.094 15.634-19.328-.434-2.736.192-4.466 3.377-9.344 4.461-6.827 12.708-14.877 17.463-17.044zm19.284 3.212c-9.855-2.477-15.333-2.161-20.601 1.187-6.772 4.302-16.907 16.975-16.907 21.141 0 2.632 6.649 9.621 11.292 11.868 8.452 4.092 12.02 2.845 26.587-9.293 8.879-7.396 14.771-15.1 13.327-17.423-1.831-2.945-7.099-5.823-13.698-7.48zm-32.999 33.308c-2.154-2.207-4.177-4.012-4.496-4.012-.318 0-3.034 2.52-6.033 5.6-12.284 12.614-47.844 45.944-54.581 51.159-6.187 4.789-7.228 6.037-7.232 8.664-.008 4.119 3.562 7.406 8.044 7.406 3.177 0 5.849-2.416 35.824-32.403l32.392-32.403-3.918-4.011zm-79.582 56.027c-5.044-1.256-19.765-2.159-24.69-1.514-27.774 3.631-52.146 21.491-64.138 46.998-2.718 5.781-3.156 7.822-3.161 14.695-.011 13.883 5.686 26.611 16.951 37.876 11.738 11.738 23.934 16.996 39.372 16.974 9.101-.013 9.776-.171 16.961-3.958 5.301-2.795 9.955-6.427 15.963-12.458 11.651-11.697 18.904-24.599 23.667-42.098 2.125-7.806 2.421-30.098.485-36.492-1.282-4.234-1.29-4.24-6.157-4.24-4.112 0-5.352-.48-7.943-3.069-2.476-2.478-3.07-3.899-3.07-7.364 0-4.222-.071-4.313-4.24-5.35zm-21.142 17.227c10.937-4.022 24.052 4.021 25.148 15.421.693 7.22-.44 11.63-4.047 15.737-9.788 11.149-26.663 9-32.74-4.168-2.552-5.529-2.402-12.181.397-17.473 2.595-4.91 5.578-7.435 11.242-9.517zm15.06 4.637c-3.903-2.412-10.073-3.335-14.016-2.095-3.767 1.183-8.474 5.66-10.203 9.7-6.503 15.199 11.938 29.815 25.023 19.835 4.703-3.587 6.526-7.401 6.526-13.649 0-6.098-2.505-10.809-7.33-13.791zm-54.524 25.485c0-2.642 2.257-.85 7.482 5.941 5.091 6.616 17.25 18.878 23.328 23.523 3.714 2.84 3.617 5.692-.126 3.689-6.336-3.391-30.684-29.698-30.684-33.153zm-9.977 9.907c0-2.834 1.661-1.645 5.248 3.758 5.106 7.691 13.965 16.936 21.833 22.787 6.739 5.011 8.177 6.807 5.453 6.807-5.675 0-32.534-27.536-32.534-33.352zm19.399-250.913c1.677-.486 3.645-.701 4.377-.477.73.225 1.706.408 2.168.408.461 0 2.284 1.216 4.051 2.703 4.591 3.864 6.87 9.54 6.896 17.183.026 7.28-3.343 21.022-5.938 24.227-1.664 2.056-2.066 2.095-10.604 1.042-19.469-2.401-30.326-10.012-30.326-21.261 0-3.395.624-4.764 3.464-7.604 3.284-3.283 3.784-3.451 9.594-3.213l6.133.25 1.294-3.765c1.643-4.783 4.995-8.362 8.891-9.493zm8.89 4.811c-4.846-4.2-11.359-2.24-14.333 4.315-1.068 2.35-1.951 5.336-1.963 6.635-.018 2-.364 2.248-2.266 1.617-1.234-.409-4.355-.952-6.935-1.207-4.037-.399-5.046-.11-7.234 2.078-5.839 5.839-1.857 14.711 8.823 19.662 7.753 3.594 23.242 6.005 24.643 3.836 2.016-3.117 4.079-11.822 4.599-19.407.467-6.788.242-8.628-1.464-11.972-1.109-2.174-2.851-4.674-3.87-5.557zm-458.929 9.182c5.698-1.054 10.196-.344 16.419 2.594 5.994 2.829 9.427 7.236 11.194 14.367 3.515 14.192-10.85 26.963-23.46 20.859-6.893-3.337-9.279-9.61-6.039-15.875 1.57-3.037 6.571-5.66 9.008-4.725 2.128.816 1.888 2.639-.347 2.639-1.023 0-3.043.93-4.489 2.068-5.475 4.306-1.857 12.59 6.277 14.377 6.55 1.439 14.871-4.882 16.562-12.58 1.448-6.595-3.905-15.894-11.12-19.318-4.426-2.1-13.677-2.233-18.381-.262-12.006 5.031-18.642 19.249-14.566 31.213 2.27 6.66 5.923 11.024 12.192 14.562 7.88 4.448 6.66 7.086-1.365 2.95-11.568-5.964-17.858-21.419-13.749-33.791 3.115-9.38 12.175-17.285 21.864-19.078zm131.621 13.399c2.894-2.894 4.25-3.517 7.657-3.517 5.591 0 9.885 2.413 11.602 6.519 1.816 4.347 1.783 5.877-.214 10.085-3.211 6.766-12.769 8.602-18.435 3.54-2.545-2.276-3.229-3.773-3.631-7.958-.467-4.853-.291-5.357 3.021-8.669zm14.716 1.997c-5.283-5.624-14.991-1.765-14.991 5.959 0 4.994 3.603 8.48 8.76 8.48 7.681 0 11.494-8.836 6.231-14.439zm381.574-23.606c19.768-10.51 23.428-12.006 23.461-9.593.01.686-.989 12.635-2.218 26.555-1.498 16.967-2.63 25.459-3.433 25.767-1.396.537-37.763-29.301-37.763-30.985 0-.624 8.979-5.908 19.953-11.744zm19.979-2.111c.297-2.605.19-4.697-.242-4.646-1.364.162-35.193 18.339-35.197 18.913-.006.786 30.97 26.174 31.405 25.739.201-.199 1.068-8.216 1.927-17.814.86-9.599 1.809-19.586 2.107-22.192zm89.786-.773c5.17-5.249 6.46-5.93 6.46-3.411 0 2.392-9.364 10.818-15.737 14.162-9.354 4.909-23.259 8.513-24.582 6.374-.872-1.411.128-1.841 8.221-3.529 9.269-1.932 19.487-7.351 25.638-13.596zm-704.695-13.795c5.065-2.114 12.245.359 15.511 5.342 2.063 3.151 2.087 9.407.05 13.346-2.983 5.768-11.277 7.928-17.694 4.609-4.412-2.281-7.264-9.141-5.902-14.199 1.106-4.108 4.042-7.432 8.035-9.098zm8.431 3.33c-4.402-1.839-5.316-1.784-9.142.55-5.466 3.332-6.207 10.802-1.537 15.473 5.864 5.864 16.214 1.504 16.214-6.829 0-5.035-1.485-7.501-5.535-9.194zm682.179-7.364c2.314-2.556 3.585-2.682 3.585-.353 0 3.434-11.565 10.603-18.369 11.387-4.685.54-4.226-1.91.596-3.182 5.078-1.339 11.521-4.905 14.188-7.852zm-444.813 44.722c.813-1.315 2.349-1.189 13.768 1.127 18.838 3.821 36.789 10.936 43.422 17.212 5.886 5.566 7.886 14.326 4.685 20.514-1.768 3.419-8.305 9.417-12.724 11.677-7 3.576-13.789 8.684-15.737 11.834-2.166 3.506-2.666 9.479-1.047 12.506 1.873 3.498 7.814 6.137 17.215 7.649 5.079.817 11.031 2.282 13.226 3.255 8.896 3.945 15.492 15.936 13.929 25.322-.801 4.81-4.018 11.686-5.469 11.686-1.46 0-1.185-2.275.737-6.082 2.742-5.433 2.293-13.461-1.07-19.201-3.879-6.618-9.602-10.044-19.322-11.564-11.669-1.826-15.233-3.131-19.414-7.108-3.359-3.195-3.808-4.179-3.808-8.308 0-5.147 2.469-10.873 6.138-14.231 1.288-1.178 5.932-4.246 10.323-6.816 4.388-2.571 9.033-5.646 10.32-6.836 7.586-7.011 6.706-17.278-2.057-23.961-6.974-5.321-27.266-12.507-42.959-15.215-10.021-1.729-11.017-2.068-10.156-3.46zM265.365 605.177c0-2.701 2.842-.643 5.724 4.145 7.368 12.244 11.126 25.378 11.92 41.652.628 12.871-1.419 27.167-4.28 29.876-1.821 1.728-1.802 1.331.679-13.414 3.098-18.418-2.344-44.574-12.176-58.517-1.027-1.457-1.867-3.141-1.867-3.742zm161.583-100.388c3.037-3.038 4.473-3.745 7.602-3.743 4.146.001 10.476 2.699 11.116 4.737.529 1.683-1.913 1.574-5.396-.243-3.723-1.943-7.337-1.899-10.224.125-2.641 1.849-5.105 7.068-5.105 10.811 0 1.39-.421 2.526-.938 2.526-3.834 0-1.889-9.379 2.945-14.213zm-175.55 124.116c0-.482.618-.877 1.373-.877 1.523 0 4.854 7.072 6.584 13.98 1.511 6.031.969 21.437-.753 21.437-.947 0-1.335-2.838-1.499-10.974-.193-9.616-.56-11.7-2.963-16.832-1.508-3.221-2.742-6.251-2.742-6.734zm244.957-119.63c.196-.685.817-1.247 1.383-1.247 1.705 0 1.163 6.195-1.135 13.025-1.737 5.158-3.379 7.645-8.307 12.583-5.341 5.352-7.092 6.443-13.435 8.369-6.166 1.874-8.697 2.122-16.384 1.613-9.235-.612-20.012-2.98-22.354-4.912-2.784-2.295.645-2.574 6.793-.554 9.372 3.081 27.494 3.187 33.953.199 9.468-4.38 15.889-12.366 17.989-22.374.629-3 1.303-6.016 1.497-6.702zm238.288 3.599c6.99-3.234 11.787-1.582 24.047 8.281 8.481 6.823 14.274 13.597 18.121 21.189 2.343 4.622 2.483 5.65 1.858 13.527-.372 4.689-1.355 11.84-2.184 15.892l-1.506 7.365 2.94 5.604c7.654 14.581 8.568 29.362 2.586 41.742-4.801 9.934-15.96 16.251-26.221 14.845-12.344-1.692-26.231-12.584-31.518-24.721-2.795-6.413-2.967-6.584-8.414-8.301-13.493-4.254-54.964-27.437-54.964-30.727 0-1.013 5.028-11.524 11.173-23.359 12.578-24.221 17.341-30.503 25.929-34.197 6.839-2.942 13.617-2.33 21.505 1.943 3.146 1.703 5.85 2.702 6.011 2.219 1.058-3.173 7.221-9.722 10.637-11.302zm41.076 44.289c.341-2.287.103-3.192-.809-3.069-2.033.273-17.746 8.229-17.75 8.988-.001.374.907.969 2.017 1.322 1.109.352 4.639 3.067 7.842 6.033l5.825 5.392 1.195-7.712c.657-4.242 1.414-9.171 1.68-10.954zm-23.463 7.247c-4.335-1.477-10.066-1.852-13.057-.854-.823.274-2.123.699-2.888.944-.938.298-.233 1.332 2.158 3.162 7.816 5.987 17.9 22.174 13.813 22.174-.486 0-2.7-3.056-4.919-6.793-6.729-11.326-16.901-19.146-24.906-19.146-5.612 0-12.445 2.632-16.832 6.483l-3.838 3.368 2.494 1.747c7.784 5.451 12.061 12.444 16.706 27.311 4.172 13.356 7.216 18.794 14.068 25.138 8.244 7.633 13.93 10.266 22.102 10.236 7.416-.028 11.089-1.612 16.391-7.071 7.658-7.885 9.988-23.122 5.554-36.302-4.524-13.443-16.335-26.815-26.846-30.397zm-45.294 17.694c-2.252-2.332-4.561-4.183-5.133-4.114-.571.07-4.181.547-8.022 1.061-3.841.513-11.758.788-17.591.61-12.06-.368-12.164-.789 1.787 7.283 13.941 8.066 38.207 19.844 40.903 19.852.086.001-.629-2.581-1.588-5.736-2.538-8.337-5.71-14.145-10.356-18.956zm38.82-66.188c-4.477-2.035-6.041-2.196-9.131-.945-2.474 1.002-7.807 6.924-9.93 11.028-.846 1.639-1.923 2.98-2.392 2.98-.468 0-3.449-1.565-6.626-3.478-3.177-1.913-7.297-3.764-9.156-4.112-8.017-1.504-15.767 2.271-22.21 10.819-3.086 4.095-22.959 41.324-22.959 43.012 0 2.401 13.643-2.364 22.516-7.865 3.878-2.404 10.836-7.773 15.463-11.931 17.884-16.071 34.539-19.781 53.192-11.849 12.496 5.313 16.328 6.4 18.999 5.384 1.852-.704 2.352-1.435 1.877-2.738-.918-2.515-6.748-11.282-9.482-14.263-4.628-5.043-16.178-14.235-20.161-16.042zm.9 28.209c-17.72-4.426-26.9-1.046-47.851 17.62-7.4 6.594-13.101 9.993-21.486 12.814l-6.485 2.181 8.481.055c4.664.03 10.758-.22 13.544-.554 4.344-.523 5.21-.996 6.094-3.338 2.927-7.755 22.327-14.654 30.603-10.883 1.936.882 3.408.749 7.038-.637 3.406-1.301 6.191-1.606 10.816-1.186 5.798.527 6.816.285 14.71-3.491 8.109-3.879 8.349-4.086 5.487-4.755-1.646-.384-6.136-2.078-9.977-3.764-3.841-1.685-8.779-3.514-10.974-4.062zm240.61-266.427c5.221-3.704 7.304-4.32 7.304-2.16 0 .886-9.158 7.764-11.57 8.69-.824.317-1.398-.089-1.398-.987 0-.838 2.549-3.333 5.664-5.543zm-209.487 68.345c.349-.349.963-.634 1.364-.634 1.105 0 11.229 11.765 24.466 28.433 11.36 14.305 11.884 15.172 11.884 19.638 0 3.805-.542 5.239-2.912 7.715-6.071 6.335-18.973 8.072-23.836 3.21-3.287-3.288-2.913-9.202.833-13.187 3.611-3.843 9.813-6.848 14.193-6.878 1.782-.012 3.242-.291 3.242-.618 0-.865-13.051-17.377-22.093-27.951-4.277-5.002-7.489-9.378-7.141-9.728zm33.002 42.821c-6.382-4.471-21.726 2.25-21.726 9.517 0 3.284 3.95 5.89 8.919 5.886 10.478-.008 19.425-10.768 12.807-15.403zm-66.557-25.67c1.87-1.002 4.43-1.822 5.691-1.822 4.048 0 9.11 2.78 11.241 6.175 5.175 8.245-.801 19.769-10.246 19.76-7.564-.006-13.732-5.935-13.732-13.198 0-3.708 3.386-8.951 7.046-10.915zm10.768 2.592c-4.729-2.445-9.169-1.354-12.687 3.12-7.388 9.392 6.425 20.974 14.903 12.496 4.638-4.638 3.498-12.661-2.216-15.616zm-226.509 18.322c1.338-1.606 1.634-1.597 5.046.153 6.94 3.561 11.104 10.34 11.104 18.083 0 2.267-.943 9.802-2.096 16.742-2.715 16.354-4.958 19.999-9.333 15.165-1.224-1.354-2.173-5.303-3.115-12.96-1.422-11.543-2.972-15.899-6.552-18.406-2.097-1.468-2.476-1.029-14.813 17.149-21.514 31.7-22.38 32.89-25.102 34.525-9.221 5.538-24.379-4.818-26.357-18.008-2.246-14.976 13.713-18.277 24.941-5.158 1.998 2.334 4.203 6.198 4.9 8.588l1.266 4.345 13.497-19.778c7.423-10.878 16.128-24.043 19.345-29.256 3.216-5.213 6.487-10.245 7.269-11.184zm6.298 4.638c-1.969-1.337-3.813-2.424-4.098-2.412-.284.011-2.132 2.779-4.107 6.149l-3.589 6.128 3.344 2.936c3.909 3.432 5.888 9.414 6.875 20.792.711 8.158 1.724 10.997 3.344 9.36 1.211-1.225 5.091-23.615 5.091-29.383 0-5.656-2.506-10.61-6.86-13.57zm-58.588 40.821c-6.516-4.97-14.022-4.15-15.891 1.734-3.644 11.48 16.932 28.724 23.08 19.341 3.457-5.276-.083-15.655-7.189-21.075zm338.456-134.041c.595-1.722 1.481-.714 6.403 7.29 3.557 5.784 7.464 7.675 15.858 7.675 7.789 0 7.768 1.457-.086 5.957-7.239 4.146-8.99 7.094-9.644 16.233-.288 4.021-.931 6.736-1.594 6.727-.613-.009-2.493-2.585-4.18-5.725-3.828-7.123-7.174-9.154-16.354-9.923-3.896-.328-6.958-.967-6.802-1.422.156-.454 2.716-2.296 5.69-4.092 7.466-4.512 9.346-7.38 9.811-14.975.211-3.436.615-6.922.898-7.745zm15.06 17.535c-2.972-.475-5.23-1.802-8.308-4.88l-4.228-4.228-.63 3.938c-.453 2.832-1.845 5.154-4.96 8.268l-4.33 4.33 2.623.569c5.259 1.14 8.18 2.717 11.01 5.939l2.89 3.291 1.167-4.633c.793-3.149 2.396-5.802 5.008-8.286l3.841-3.656-4.083-.652zm-198.88 19.863c9.559-2.079 26.794-1.839 36.104.503 9.742 2.451 23.968 9.403 31.559 15.422 8.196 6.499 16.197 16.644 21.287 26.989 5.787 11.761 7.525 18.591 8.148 32.029 1.104 23.84-6.67 43.984-23.414 60.674-24.745 24.661-61.177 30.305-93.529 14.49-15.763-7.706-27.197-19.446-35.41-36.359-6.213-12.795-8.272-21.814-8.198-35.916.198-37.816 26.217-69.731 63.453-77.832zm41.695 5.2c-7.724-2.688-10.146-3.049-22.141-3.299-7.408-.155-14.365-.067-15.464.195-21.226 5.061-35.547 13.32-46.843 27.017-32.053 38.858-19.412 97.329 25.721 118.995 10.606 5.091 17.867 6.948 30.12 7.7 37.608 2.312 71.944-24.063 79.841-61.329 1.846-8.707 1.807-23.947-.08-32.111-6.23-26.942-25.192-48.134-51.154-57.168zm-35.69 49.084c6.32-2.87 16.796-2.565 23.309.68 9.097 4.534 14.078 12.953 14.117 23.866.037 10.004-5.365 18.919-14.4 23.764-5.687 3.05-18.253 3.042-24.011-.015-5.37-2.852-10.711-8.894-12.88-14.574-2.149-5.627-1.742-15.428.862-20.827 2.429-5.035 8.116-10.674 13.003-12.894zm20.315 2.648c-5.043-2.104-14.277-1.944-19.292.334-4.756 2.161-10.883 8.942-12.498 13.833-.627 1.899-.95 6.064-.718 9.256 1.166 16.132 17.747 26.272 32.549 19.905 9.151-3.937 14.159-11.615 14.121-21.648-.037-9.658-5.541-18.085-14.162-21.68zm-14.294 15.867c2.992-2.993 6.4-3.125 9.887-.381 3.294 2.59 3.605 7.93.634 10.901s-8.311 2.661-10.902-.634c-2.742-3.486-2.611-6.894.381-9.886zm8.326 1.741c-1.657-1.658-4.347-1.497-6.215.37-1.836 1.838-1.937 2.86-.534 5.482 2 3.738 7.946 1.823 7.946-2.56 0-1.152-.539-2.634-1.197-3.292zm-60.319 9.337c.919-2.396 2.654-.936 2.667 2.244.039 8.685 5.991 21.884 13.553 30.052 5.696 6.153 6.211 7.053 4.038 7.053-2.615 0-11.691-10.924-15.179-18.268-3.64-7.665-6.18-18.21-5.079-21.081zM698.826 442.7c3.286-5.136 5.455-6.91 5.455-4.458 0 2.51-6.581 12.919-8.168 12.919-1.694 0-.684-3.151 2.713-8.461zm-19.25-.622c2.049-2.773 4.753-3.891 4.753-1.968 0 2.974-8.725 10.054-12.389 10.054-2.384 0-.854-2.385 2.477-3.859 1.663-.737 3.984-2.639 5.159-4.227zm-2.73 21.631c6.344-3.645 8.902-4.365 8.246-2.322-.608 1.891-10.211 7.364-17.095 9.743-7.789 2.693-22.067 3.95-21.382 1.882.303-.914 2.75-1.627 7.057-2.059 8.867-.887 15.979-3.111 23.174-7.244zm-49.08-111.87c2.303-.719 5.234-1.338 6.515-1.375 4.408-.127 1.577 2.143-5.452 4.372-13.901 4.407-27.386 15.485-33.805 27.769-1.638 3.134-3.287 5.7-3.667 5.702-4.364.015 6.69-18.239 15.052-24.855 4.823-3.817 16.189-9.997 21.357-11.613zm-1.935 23.422c4.619-2.097 8.979-2.509 8.407-.793-.207.618-2.635 1.967-5.396 2.998-2.762 1.03-6.924 3.503-9.251 5.494-2.758 2.361-4.571 3.281-5.207 2.645-1.291-1.291 5.981-7.862 11.447-10.344zm356.776-124.879c4.087-4.637 6.003-5.81 6.003-3.675 0 .587-1.972 3.487-4.383 6.446-2.41 2.96-6.337 8.523-8.73 12.363-4.033 6.481-6.84 8.847-6.84 5.771 0-1.82 8.953-15.237 13.95-20.905zm-641.388 5.985c1.182-.965 3.793-1.745 5.842-1.745 7.794 0 11.531 9.575 5.694 14.595-3.868 3.328-8.053 3.089-11.816-.674-2.627-2.628-2.959-3.54-2.448-6.734.325-2.032 1.553-4.482 2.728-5.442zm10.399 3.607c-2.135-3.257-6.881-3.212-9.042.086-1.891 2.886-1.174 6.07 1.716 7.617 5.132 2.747 10.485-2.881 7.326-7.703zm586.463 1.571c-.552-5.016-.473-5.309 1.047-3.871.93.881 1.904 3.913 2.243 6.984.552 5.016.473 5.31-1.048 3.871-.93-.881-1.904-3.913-2.242-6.984zm-33.049 7.474c4.565-1.467 11.54-1.065 15.739.909 1.844.866 3.146 3.035 4.99 8.315 1.372 3.929 2.786 7.434 3.14 7.788.355.355 3.497 1.308 6.982 2.118 3.485.811 10.153 3.311 14.818 5.557 6.968 3.355 10.099 5.703 17.573 13.177 7.473 7.473 9.823 10.607 13.179 17.575 5.914 12.276 7.444 19.906 6.905 34.419-.381 10.271-.881 13.145-3.527 20.226-12.349 33.071-46.502 52.005-80.325 44.533-9.056-2.002-21.448-7.939-28.871-13.835-15.661-12.438-25.725-33.644-25.681-54.113.052-23.307 12.169-45.532 31.819-58.368 4.068-2.656 8.429-5.089 9.693-5.407 2.703-.678 3.007-1.546 3.899-11.15.755-8.112 1.615-9.158 9.667-11.744zm-43.419 71.492c-6.662-2.492-6.441-2.584-7.652 3.241-.617 2.976-.99 8.683-.827 12.682l.296 7.272 4.302 1.431c2.367.787 4.437 1.272 4.601 1.077.164-.194.565-5.872.888-12.617.576-11.983.539-12.282-1.608-13.086zm17.755 4.983c-4.938-1.036-9.709-2.179-10.602-2.54-1.341-.543-1.728.266-2.227 4.64-.331 2.914-.692 8.665-.799 12.78l-.196 7.482 6.688 1.689c3.678.928 10.071 2.083 14.206 2.563l7.518.875-.62-25.562-2.495-.021c-1.372-.012-6.535-.87-11.473-1.906zm56.453 11.922c-1.079-6.721-2.1-12.312-2.271-12.424-.169-.113-3.227.371-6.794 1.075-3.566.706-12.041 1.406-18.833 1.559l-12.349.277.627 8.883c.343 4.886.627 10.61.627 12.721v3.837h8.428c7.367 0 31.342-2.526 32.21-3.393.174-.174-.567-5.815-1.645-12.535zm7.088-63.895c-9.268-3.503-12.291-3.847-15.763-1.8l-3.102 1.83 2.87 9.65c1.578 5.307 3.086 9.867 3.349 10.131 1.471 1.471 28.419-8.904 28.419-10.941 0-1.172-9.422-6.47-15.773-8.87zm-44.202 1.912c-2.713-1.718-6.6-.849-12.681 2.836-7.724 4.679-16.56 12.224-15.465 13.204 1.237 1.106 12.953 3.783 19.963 4.561l6.167.685.614-3.863c.336-2.124 1.101-6.716 1.698-10.205.888-5.192.833-6.503-.296-7.218zm24.629 6.584c-1.929-6.264-3.95-8.764-5.684-7.031-.289.29-3.634.725-7.433.967l-6.907.44-1.082 4.805c-.594 2.641-1.367 7.226-1.716 10.187l-.634 5.383 11.693-.559c6.431-.306 12.474-.868 13.43-1.247 1.948-.772 1.851-1.528-1.667-12.945zm50.039 14.8c-1.961-2.656-5.284-6.454-7.383-8.439l-3.819-3.61-7.699 3.662c-4.237 2.013-7.939 3.898-8.231 4.189-.29.291.536 3.186 1.836 6.434 1.301 3.247 2.916 8.26 3.591 11.142.673 2.881 1.463 5.237 1.752 5.237 1.211 0 17.958-9.297 20.625-11.449l2.896-2.336-3.568-4.83zm-28.794 1.566c-1.159-2.694-2.388-4.855-2.732-4.801-.345.054-2.647.739-5.116 1.521-2.47.782-8.272 2.088-12.894 2.902-4.623.814-8.584 1.66-8.805 1.881-.534.534 1.424 23.538 2.057 24.171 1.659 1.659 32.612-6.001 32.612-8.071 0-2.281-3.073-12.837-5.122-17.603zm-68.412-2.019c-3.728-.973-7.343-1.794-8.036-1.825-1.586-.073-8.026 9.909-10.365 16.062l-1.765 4.646 3.7 1.479c4.711 1.882 14.162 4.692 15.776 4.692.682 0 1.55-1.459 1.93-3.242.381-1.783 1.747-6.61 3.036-10.725 1.289-4.115 2.379-7.896 2.423-8.401.043-.506-2.972-1.714-6.699-2.686zm25.308 3.092c-5.576-.007-11.122-.278-12.326-.601-1.812-.486-2.454.051-3.734 3.115-2.823 6.754-5.92 19.478-4.966 20.403 1.348 1.309 24.041 3.31 29.039 2.56 4.289-.642 4.301-.654 3.828-4.325-.261-2.023-.751-7.607-1.089-12.409l-.617-8.729-10.135-.014zm78.591 8.871c-1.774-3.432-1.932-3.438-6.554-.261l-3.623 2.492 1.856 4.886c1.021 2.688 2.427 8.29 3.125 12.45l1.269 7.563 4.739-3.007c2.771-1.758 4.737-3.749 4.737-4.794 0-2.651-3.838-16.02-5.549-19.329zm-11.547 6.856c-1.315-3.271-1.177-3.266-6.867-.3-2.48 1.291-8.764 3.81-13.966 5.594-5.203 1.784-9.777 3.517-10.167 3.851-.391.332.161 5.988 1.227 12.565a3660.075 3660.075 0 0 1 1.958 12.14c.041.409 12.967-3.625 19.086-5.954 11.468-4.368 12.859-5.338 12.841-8.966-.016-3.62-2.437-14.76-4.112-18.93zm16.065 33.625c.669-3.816 1.062-8.809.875-11.097l-.341-4.16-5.987 3.541c-3.293 1.947-8.623 4.688-11.846 6.089l-5.859 2.548.622 5.949c.342 3.272.629 7.791.638 10.043.026 7.061.89 7.368 8.611 3.057 10.06-5.618 11.847-7.765 13.287-15.97zm-117.353 2.493c-4.849-1.414-9.871-2.925-11.16-3.357-2.23-.746-2.31-.621-1.625 2.556 1.036 4.801 4.139 12.807 6.381 16.462 1.343 2.189 3.538 3.739 7.24 5.11 8.324 3.083 10.123 3.546 9.434 2.431-.342-.551-.808-5.418-1.037-10.816l-.418-9.813-8.815-2.573zm91.889 2.791c-.377-4.248-1.031-6.691-1.768-6.614-.64.066-4.759 1.212-9.148 2.548-4.39 1.335-12.601 3.19-18.245 4.12l-10.263 1.692.557 4.988c.307 2.744.659 8.015.787 11.714.208 6.134.416 6.728 2.362 6.735 6.529.024 32.958-6.712 35.993-9.174.749-.608 1.045-2.575.77-5.131a748.831 748.831 0 0 1-1.045-10.878zm-58.151 1.899c-8.59-.35-16.788-.905-18.22-1.233-3.564-.816-4.151 1.181-3.237 11.019.409 4.41.65 8.52.535 9.133-.418 2.226 27.043 5.811 35.658 4.655l3.804-.51-.842-3.627c-.464-1.996-.854-5.704-.867-8.242-.013-2.538-.292-5.952-.619-7.586l-.594-2.972-15.618-.637zm75.558 13.994c1.859-3.148 3.205-5.84 2.992-5.982-.214-.143-4.203 1.753-8.867 4.214-4.664 2.459-12.745 5.947-17.959 7.751-7.841 2.711-9.466 3.625-9.406 5.291.039 1.107.151 5.187.25 9.065.172 6.817.253 7.028 2.422 6.369 8.826-2.684 24.424-16.313 30.568-26.708zm-87.237 10.92c-4.969-.855-12.264-2.648-16.213-3.984-3.949-1.336-7.178-2.223-7.178-1.97 0 1.493 7.367 9.191 12.464 13.022 5.757 4.329 14.629 9.282 19.118 10.672 2.114.655 2.144.518 1.613-7.602-.299-4.547-.593-8.339-.656-8.426-.065-.087-4.18-.857-9.148-1.712zm50.803 1.62c-.659-2.456-2.654-2.693-9.847-1.17-2.195.465-9.547.942-16.342 1.06l-12.351.215.544 7.932c.341 4.991 1.083 8.472 1.998 9.388 2.403 2.403 19.721 2.911 28.982.85l7.645-1.7-.015-7.165c-.007-3.941-.284-8.176-.614-9.41zm-23.836-130.844c-2.394-.604-4.939-1.077-5.657-1.053-2.294.077-9.036 2.77-10.341 4.129-1.545 1.612-3.524 15.933-2.373 17.175.456.492 4.557.911 9.113.93 9.003.038 18.758-2.48 18.758-4.842 0-.747-1.159-4.483-2.573-8.301-2.496-6.734-2.704-6.975-6.927-8.038zm-533.904-34.12c5.942-3.72 13.722-.741 15.75 6.03 2.188 7.297-2.759 14.024-10.311 14.024-5.479 0-10.74-5.115-10.74-10.442 0-4.694 1.348-7.138 5.301-9.612zm10.738 4.014c-3.089-3.088-5.3-3.545-8.557-1.764-5.092 2.786-6.016 8.385-2.04 12.361 3.932 3.933 9.577 3.178 12.054-1.613 2.097-4.055 1.83-5.696-1.457-8.984zm51.874-6.273c4.922-6.259 16.32-1.216 36.667 16.223 12.233 10.485 18.25 15.112 19.026 14.633.425-.262.357-3.526-.149-7.253-1.483-10.924-.64-19.668 2.186-22.676 3.049-3.246 8.266-4.292 11.343-2.276 5.362 3.513 13.727 25.174 18.142 46.977 1.375 6.794 2.5 13.595 2.5 15.113 0 2.108 1.62 4.319 6.85 9.353 8.998 8.66 11.52 13.587 10.831 21.173-1.451 16.008-18.54 32.377-37.327 35.754-9.708 1.745-14.032.11-23.845-9.02-3.487-3.244-6.945-5.899-7.684-5.899-3.308 0-20.096-9.371-29.638-16.543-13.894-10.442-33.181-29.461-35.835-35.335-2.579-5.708-2.602-9.446-.076-11.972 4.453-4.454 13.912-1.246 24.562 8.329l5.079 4.568 2.389-3.687c1.314-2.027 3.821-4.592 5.572-5.699 1.776-1.124 3.461-3.203 3.808-4.7.343-1.478 1.923-4.48 3.511-6.673l2.888-3.985-8.754-8.847c-8.937-9.032-14.114-17.198-14.114-22.267 0-1.464.93-3.846 2.068-5.291zm17.603 5.601c-8.178-5.292-13.91-6.551-15.582-3.425-1.8 3.363-1.291 5.559 2.722 11.751 5.139 7.932 13.893 16.627 25.437 25.267 14.548 10.887 21.548 19.839 21.603 27.629.025 3.703-3.34 8.366-6.036 8.366-1.347 0-1.924.694-1.924 2.32 0 3.957-6.697 8.669-12.286 8.644-5.428-.024-12.734-5.029-26.065-17.856-13.647-13.13-21.86-19.02-26.546-19.038-3.117-.011-4.938 1.672-4.938 4.566 0 7.977 26.991 34.292 48.669 47.45 16.286 9.884 25.562 11.356 36.247 5.75 9.301-4.88 19.587-15.495 24.304-25.079l3.794-7.708-.565-11.248c-1.016-20.141-10.597-52.358-17.956-60.381-2.698-2.941-5.202-2.837-8.389.351-2.595 2.595-2.595 2.599-1.865 14.217.906 14.404.892 15.181-.312 16.385-1.958 1.958-5.887-.43-19.519-11.853-7.649-6.41-17.006-13.659-20.793-16.108zm10.603 35.869c-1.73-1.208-3.561-2.197-4.066-2.197-1.536 0-5.152 4.388-6.277 7.615-1.03 2.954-.825 3.267 7.269 11.169 13.727 13.398 18.994 16.43 22.482 12.942 4.924-4.924-4.332-19.007-19.408-29.529zm-1.907 21.684c-5.742-5.452-11.289-9.914-12.33-9.914-2.251 0-6.802 5.115-7.686 8.638-.51 2.031.188 3.338 3.741 6.999 2.404 2.474 7.277 6.59 10.831 9.147 5.485 3.945 7.166 4.647 11.118 4.647 7.296 0 11.918-5.774 6.81-8.508-1.126-.602-6.744-5.557-12.484-11.009zm70.078 11.287c-2.802-2.882-5.45-5.238-5.88-5.238-.43 0-.782 1.357-.782 3.015 0 4.063-4.773 14.231-9.781 20.84-7.685 10.136-21.995 19.669-30.448 20.282l-3.569.259 3.181 3.285c1.749 1.807 5.537 4.437 8.415 5.845 4.907 2.402 5.627 2.493 11.486 1.464 17.604-3.09 34.05-18.409 35.453-33.025.568-5.899-1.299-9.764-8.075-16.727zm-319.522-74.59c13.21-2.874 19.312-1.075 28.418 8.378 7.167 7.438 11.464 15.082 10.626 18.898-.561 2.557.984 4.343 19.63 22.688 19.806 19.488 34.6 33.159 41.792 38.621l3.597 2.731 7.876-1.629c10.79-2.232 29.07-1.467 38.804 1.622 26.839 8.52 51.724 33.711 55.313 55.993 4.095 25.428-17.622 54.916-45.836 62.237-10.124 2.628-21.957 1.737-30.056-2.26-14.067-6.946-26.693-20.227-34.737-36.541-7.834-15.891-9.525-23.193-9.501-41.028.016-11.341.413-16.002 1.64-19.248l1.619-4.285-64.453-64.052-6.83-.104c-6.06-.093-7.391-.491-11.818-3.534-7.546-5.187-23.212-21.063-24.008-24.33-.378-1.549-.199-3.89.399-5.202 1.376-3.019 9.633-7.238 17.525-8.955zm60.875 56.133c-13.251-13.032-24.266-23.66-24.478-23.618-.211.043-2.268 1.919-4.572 4.168l-4.189 4.091 33.121 32.731c22.895 22.626 33.789 32.735 35.288 32.745 3.322.023 8.307-4.672 8.307-7.823 0-2.168-1.828-4.175-9.693-10.636-5.33-4.38-20.533-18.626-33.784-31.658zm83.685 36.777c-7.961-1.784-24.805-1.985-32.476-.387-4.604.96-4.739 1.092-4.743 4.622-.007 7.27-6.707 13.161-13.492 11.864-1.926-.368-2.593.13-3.537 2.642-1.743 4.638-2.369 24.551-.998 31.795 5.062 26.763 20.624 49.632 41.307 60.699 5.362 2.868 7.313 3.344 15.134 3.695 7.751.349 10.067.038 16.922-2.263 23.607-7.925 40.95-30.259 40.706-52.422-.1-9.216-1.71-13.785-8.544-24.255-12.041-18.452-30.281-31.509-50.279-35.99zm22.243 50.41c2.766-3.906 5.389-5.381 5.389-3.028 0 3.95-28.839 33.814-32.654 33.814-2.477 0-1.158-2.539 2.851-5.487 4.971-3.655 20.444-19.69 24.414-25.299zm13.803 5.621c2.813-1.909 1.239 2.912-2.766 8.47-7.395 10.263-26.37 27.547-28.679 26.12-1.717-1.06-.907-2.06 5.444-6.724 7.18-5.272 16.813-15.204 21.675-22.349 1.794-2.636 3.742-5.12 4.326-5.517zm-63.48-37.646c7.338-3.876 18.125-2.014 23.842 4.115 11.485 12.312 2.48 32.813-14.378 32.735-9.491-.044-16.793-5.681-19.233-14.847-2.206-8.288 2.081-17.944 9.769-22.003zm19.083 3.901c-4.332-3.084-13-3.724-17.741-1.309-5.119 2.609-8.558 8.527-8.558 14.734 0 6.486 2.808 11.291 8.452 14.462 5.299 2.978 12.993 2.603 17.873-.872 3.679-2.62 6.981-9.005 6.981-13.498 0-4.506-3.305-10.881-7.007-13.517zM239.169 238.554c-4.614-2.356-9.207-2.319-18.641.152-7.38 1.932-14.071 5.896-14.071 8.334 0 3.545 10.483 14.526 21.867 22.908 5.247 3.862 7.017 4.627 10.706 4.627 2.43 0 6.148-.882 8.262-1.961 3.642-1.857 11.043-9.384 11.043-11.228 0-4.505-12.548-19.453-19.166-22.832zm724.654-57.011c4.413-3.734 11.152-.671 11.152 5.069 0 6.922-8.05 9.838-12.287 4.452-2.485-3.159-2.047-6.828 1.135-9.521zm7.258 2.814c-.862-.862-2.177-1.567-2.922-1.567-1.289 0-4.49 2.586-4.49 3.628 0 1.969 2.459 4.353 4.49 4.353 1.375 0 2.87-.835 3.456-1.929 1.336-2.496 1.32-2.629-.534-4.485zm-13.021 19.808c3.982-1.748 8.376-.894 11.763 2.284 3.351 3.143 4.224 6.525 2.797 10.845-2.123 6.433-8.951 9.174-15.464 6.205-5.054-2.302-7.161-10.898-3.833-15.648.893-1.275 3.024-2.934 4.737-3.686zm9.759 4.217c-5.287-4.764-13.129-1.269-13.129 5.851 0 7.881 10.886 10.401 14.524 3.362 1.669-3.224 1.101-6.964-1.395-9.213zm-607.708 19.595c4.866-2.448 10.225 1.143 9.759 6.542-.627 7.239-9.186 9.176-12.736 2.881-1.876-3.327-.504-7.672 2.977-9.423zm6.812 5.747c-.68-4.598-7.827-4.19-7.827.445 0 1.436 2.633 4.49 3.871 4.49 2.011 0 4.269-2.816 3.956-4.935zm407.645-1.723c1.672-.645 5.766-1.206 9.097-1.248 7.899-.098 15.645 3.634 19.708 9.497 3.988 5.76 4.742 14.337 1.771 20.16-5.339 10.466-19.651 13.189-26.506 5.042-3.507-4.168-4.108-7.383-2.151-11.49 2.201-4.615 10.599-8.158 10.599-4.47 0 .406-1.496 1.28-3.325 1.941-6.775 2.449-7.126 9.552-.691 13.913 4.094 2.773 7.19 2.832 12.43.235 6.086-3.015 8.047-6.312 8.047-13.526 0-11.969-8.234-18.962-21.45-18.215-5.68.321-7.647.917-11.148 3.378-16.096 11.313-16.365 32.318-.547 42.533 2.317 1.496 5.111 3.393 6.21 4.215 1.948 1.458 1.933 1.495-.554 1.538-5.749.101-14.935-8.065-18.527-16.47-2.049-4.796-2.247-14.837-.383-19.491 3.298-8.236 9.514-14.496 17.42-17.542zM899.82 162.93c0-.6.722-1.091 1.604-1.091 2.125 0 1.624 1.885-5.29 19.953-9.686 25.309-24.33 58.591-26.802 60.914-3.096 2.908-10.589 3.659-15.533 1.557-14.666-6.237-20.921-26.203-10.374-33.114 5.205-3.41 16.911-.861 22.276 4.85 1.171 1.246 3.418 4.625 4.997 7.51l2.867 5.246 7.227-17.063c8.179-19.318 19.028-47.119 19.028-48.762zm-41.293 51.577c-6.512-3.486-13.678-2.426-16.169 2.391-4.857 9.392 5.406 24.359 17.499 25.521 4.269.41 5.226.141 7.466-2.098 1.995-1.995 2.568-3.567 2.568-7.038 0-2.46-.429-5.599-.953-6.978-1.146-3.015-7.542-10.263-10.411-11.798zm72.143-41.771c3.616-3.616 6.952-3.718 10.974-.333 2.442 2.054 3.07 3.363 3.07 6.396s-.628 4.342-3.07 6.396c-1.688 1.421-4.191 2.583-5.563 2.583-3.625 0-8.326-5.07-8.326-8.979 0-2.147.925-4.072 2.915-6.063zm8.89 1.67c-2.833-1.985-3.81-1.991-6.594-.039-3.182 2.226-2.98 6.881.391 9.088 2.336 1.532 2.883 1.557 5.237.242 3.616-2.019 4.141-7.068.966-9.291zm-304.753 5.372c13.63-3.573 27.012-1.778 42.538 5.704 7.72 3.72 10.881 5.976 17.04 12.161 12.242 12.293 16.521 23.814 15.608 42.014-.588 11.706-3.601 22.767-9.274 34.051l-3.326 6.615 1.948 3.822c3.805 7.463 1.44 16.973-6.094 24.506-6.497 6.498-13.802 8.743-20.898 6.421-2.672-.874-6.05-1.588-7.51-1.588-7.826 0-14.43-7.131-14.43-15.582 0-4.335.625-6.077 3.974-11.094 2.186-3.273 7.541-9.359 11.899-13.523 8.516-8.136 11.627-9.49 19.062-8.301l3.914.626 1.513-5.245c5.194-17.984 4.588-32.085-1.849-43.071-10.154-17.324-40.984-26.884-58.719-18.206-7.207 3.525-16.3 11.621-21.474 19.119-5.771 8.363-5.813 8.656-1.557 10.974 2.015 1.098 4.15 2.893 4.745 3.991.593 1.097 1.466 2.276 1.937 2.62 1.427 1.04 1.854 9.012.795 14.839-3.578 19.702-5.88 25.334-11.716 28.667-6.762 3.86-12.774 2.798-19.943-3.523-2.304-2.032-5.407-4.536-6.899-5.566-3.976-2.744-6.444-8.99-6.47-16.368-.038-10.812 4.738-18.83 13.067-21.936 5.07-1.892 5.134-1.969 7.336-8.917 6.764-21.332 23.713-37.685 44.783-43.21zm63.009 114.425c.339-2.291.23-5.201-.243-6.467-.813-2.173-1.052-2.003-4.236 2.993-1.856 2.912-7.074 8.981-11.594 13.485-6.845 6.82-7.909 8.29-6.358 8.782 2.711.86 8.973-1.079 12.941-4.007 4.701-3.469 8.747-9.772 9.49-14.786zm-37.93-111.917c-8.49-1.771-14.963-1.767-23.169.016-15.824 3.439-32.146 16.687-39.936 32.413-2.309 4.664-4.493 9.763-4.851 11.331-.604 2.642-.501 2.77 1.412 1.746 1.136-.608 3.105-1.118 4.375-1.135 1.772-.023 3.125-1.456 5.802-6.146 3.872-6.782 15.273-18.58 21.463-22.21 10.941-6.417 26.216-7.184 40.391-2.027 10.457 3.803 15.042 6.704 21.322 13.488 8.12 8.77 10.047 14.447 9.98 29.396-.043 9.833-.5 13.443-2.56 20.209l-2.507 8.237 2.096 2.843c1.154 1.563 2.506 2.937 3.002 3.052 1.356.317 6.457-12.307 8.636-21.372 3.528-14.675 2.13-29.633-3.815-40.829-1.479-2.784-5.682-8.051-9.342-11.703-7.862-7.846-21.198-14.992-32.299-17.309zm-54.092 49.27c-1.45-1.45-9.212-2.095-11.752-.977-5.82 2.562-10 13.483-11.125 29.07-.5 6.901-.297 9.137 1.062 11.766 2.794 5.401 9.842 8.512 14.892 6.575 1.282-.492 1.233-.844-.335-2.412-5.672-5.674-1.885-32.14 5.748-40.168 1.91-2.01 2.318-3.047 1.51-3.854zm-21.697 6.375c1.723-4.125 1.667-4.293-1.084-3.251-3.012 1.143-8.034 7.255-9.427 11.474-1.838 5.568-.893 15.38 1.852 19.235 1.253 1.76 2.697 3.2 3.208 3.2.513 0 .93-2.186.93-4.858 0-6.312 2.616-21.241 4.521-25.8zm26.799-.687c-1.703-4.437-6.448.667-9.349 10.056-2.64 8.548-3.495 17.824-2.115 22.932 2.679 9.92 7.461 4.087 11-13.415 1.164-5.756 1.432-17.051.464-19.573zm70.001 32.726c-.779-3.107-2.401-3.001-7.142.467-8.872 6.487-20.353 20.952-20.353 25.643 0 2.477.244 2.639 3.106 2.067 9.27-1.854 26.112-21.312 24.389-28.177zm9.031.898c-4.358-3.994-6.512-4.282-5.844-.782 1.619 8.47-16.686 28.975-28.021 31.386l-3.159.672 4.122 4.174c4.38 4.433 8.192 5.321 13.76 3.204 3.683-1.401 14.923-12.985 19.641-20.241 3.576-5.5 3.991-6.746 3.563-10.681-.382-3.503-1.25-5.155-4.062-7.732zM879.133 13.986c11.104-5.871 20.862-10.574 21.685-10.45 1.734.259 1.794-1.427-1.055 30.088-1.141 12.613-2.287 23.143-2.546 23.403-.827.827-4.789-2.123-21.734-16.185-9.111-7.563-16.561-14.297-16.553-14.965.008-.669 9.099-6.02 20.203-11.891zm18.18 14.882c.976-11.405 1.604-20.901 1.393-21.105-.758-.732-35.034 17.96-34.68 18.914.2.536 7.062 6.515 15.247 13.283 10.566 8.733 15.086 11.919 15.576 10.974.38-.732 1.488-10.663 2.464-22.066zM709.271 21.18c0-4.136 6.238 3.247 10.748 12.719 3.854 8.095 5.851 20.903 3.116 19.993-.836-.278-1.672-2.626-2.087-5.869-.972-7.585-3.165-13.216-7.79-19.991-2.193-3.214-3.987-6.297-3.987-6.852zm-84.719 7.22c1.323-3.43 2.854-6.087 3.405-5.904.551.183 1.569 4.029 2.262 8.546 2.159 14.067 5.963 18.683 19.419 23.554 8.518 3.085 8.209 4.788-1.033 5.71-13.752 1.371-19.193 5.388-24.352 17.979-1.742 4.253-3.692 7.732-4.331 7.732-.692 0-1.422-2.522-1.805-6.236-.963-9.332-2.401-13.463-6.119-17.578-3.107-3.44-7.151-5.744-16.709-9.523-5.036-1.992-4.709-3.327.997-4.082 18.91-2.5 22.41-5.001 28.266-20.198zm6.346 16.602c-.815-1.576-2.054-5.389-2.755-8.472l-1.273-5.608-1.948 4.352c-4.055 9.058-9.516 13.002-21.274 15.362l-3.363.674 4.106 1.839c9.453 4.232 14.142 10.205 16.01 20.397l.73 3.991 1.7-3.937c3.763-8.711 9.544-13.512 18.148-15.067 5.794-1.047 6.034-1.501 1.793-3.407-4.991-2.242-10.014-6.525-11.874-10.124zm167.431-2.454c3.836-1.728 9.791-1.258 13.322 1.056 2.88 1.887 5.366 7.084 5.36 11.204-.008 6.202-6.409 12.253-12.964 12.253-13.349 0-17.797-19.065-5.718-24.513zm12.301 4.959c-3.69-3.69-7.281-4.317-11.463-1.999-8.719 4.832-5.113 18.516 4.88 18.516 5.507 0 9.975-4.689 9.975-10.465 0-1.695-1.23-3.891-3.392-6.052zm-582.49-2.318c7.953-1.896 16.557.516 23.178 6.497 13.354 12.066 14.958 37.799 4.395 70.496-1.913 5.922-4.012 10.725-4.689 10.725-.672 0-5.027-2.992-9.677-6.65-23.275-18.31-35.175-36.107-35.245-52.711-.06-14.171 8.446-25.115 22.038-28.357zm15.955 5.074c-14.826-6.988-31.324 1.299-34.67 17.415-1.964 9.458.971 19.68 8.885 30.942 5.083 7.234 19.55 21.559 27.385 27.117l4.66 3.305.891-2.345c.49-1.289 1.816-5.469 2.946-9.29 9.905-33.492 5.985-59.562-10.097-67.144zm-8.184 18.18c1.427-1.427 3.553-2.38 5.308-2.38 9.789 0 10.603 14.744 1.429 25.887-1.867 2.269-2.284 2.36-5.882 1.282-5.751-1.723-13.028-6.694-14.791-10.102-2.178-4.212-1.954-8.682.561-11.197 1.717-1.717 2.942-2.019 6.553-1.612 3.738.421 4.821.124 6.822-1.878zm8.933 2.584c-2.605-2.877-5.017-2.425-8.014 1.504-2.475 3.246-2.789 3.377-4.762 1.996-7.077-4.958-11.989 3.01-5.721 9.278 2.606 2.606 10.762 7.203 12.772 7.198 1.687-.004 6.537-9.383 7.006-13.55.382-3.384.074-4.929-1.281-6.426zm497.789 39.682c6.302-12.117 8.04-14.719 9.842-14.735 5.801-.05 40.83 6.45 41.296 7.663.278.724-4.676 7.94-11.007 16.037-7.319 9.361-11.08 14.946-10.328 15.337.65.337 6.345 1.409 12.655 2.38 6.31.972 11.9 2.156 12.422 2.633 1.247 1.138-3.992 6.489-18.755 19.155-23.293 19.986-39.12 30.595-45.646 30.595-6.278 0-5.069-4.073 5.211-17.558 8.578-11.252 15.458-22.068 14.588-22.937-.289-.289-6.297-1.464-13.354-2.61-7.056-1.148-13.169-2.383-13.586-2.745-.416-.362 1.441-4.673 4.126-9.58 2.685-4.905 8.326-15.542 12.536-23.635zm28.324-9.175c-8.596-1.401-16.315-2.548-17.155-2.548-1.532 0-3.893 4.069-17.026 29.331-4.411 8.483-6.313 13.102-5.582 13.554.61.378 6.459 1.506 12.994 2.509 6.536 1.003 12.08 2.334 12.32 2.96.866 2.258-4.81 12.027-14.44 24.859-5.402 7.197-9.83 13.421-9.838 13.833-.034 1.729 3.934.5 10.19-3.156 8.672-5.067 23.705-16.624 38.809-29.831 9.802-8.574 11.705-10.662 10.201-11.194-1.018-.36-6.787-1.466-12.823-2.457-6.037-.991-11.331-2.113-11.768-2.495-.436-.38 4.578-7.607 11.144-16.06 9.753-12.554 11.634-15.496 10.272-16.062-.917-.382-8.701-1.842-17.298-3.243zm79.479-.598c6.623-2.74 15.225 2.466 19.033 11.519 1.916 4.555 3.018 18.949 1.982 25.868-.891 5.941-2.463 6.612-17.024 7.269-9.508.429-11.714.215-16.526-1.608-6.487-2.457-10.333-6.141-11.698-11.203-2.135-7.914 2.175-13.789 10.719-14.61 4.737-.455 5.034-.648 5.034-3.284 0-5.603 3.931-12.07 8.48-13.951zm9.521 4.286c-1.832-1.234-4.327-2.245-5.543-2.245-5.458 0-10.286 7.779-9.02 14.531l.645 3.427h-5.977c-7.741 0-11.533 2.792-11.374 8.378.138 4.849 2.423 8.096 7.547 10.722 7.236 3.709 27.595 3.778 31.266.107 1.319-1.318 1.538-3.467 1.239-12.194-.308-8.959-.756-11.355-2.908-15.537-1.4-2.72-4.043-5.955-5.875-7.189zm-181.806 8.48c1.875-2.184 7.487-2.289 9.596-.18 5.292 5.291.766 13.479-6.559 11.869-2.118-.465-3.415-1.591-4.325-3.755-1.393-3.312-1.092-5.164 1.288-7.934zm8.133 2.695c-1.706-2.057-5.69-1.794-6.893.454-1.466 2.738 1.741 6.595 4.7 5.656 2.622-.832 3.814-4.156 2.193-6.11zm-119.112-.201c.529-1.781 9.661-1.586 14.182.302 8.128 3.395 10.895 7.694 17.649 27.414 4.815 14.051 5.591 19.572 2.903 20.604-3.443 1.322-6.794-1.224-12.064-9.17-6.895-10.394-11.618-15.183-16.386-16.611-2.128-.637-4.058-.972-4.287-.741-.23.23-.922 6.026-1.539 12.88-2.979 33.123-6.164 59.247-7.549 61.925-3.547 6.86-15.684 8.4-25.935 3.289-7.534-3.756-11.577-8.765-12.185-15.097-.398-4.152-.091-5.266 2.211-8.002 6.518-7.745 22.432-6.191 31.719 3.096l3.573 3.572.575-3.695c1.228-7.899 4.527-43.476 5.617-60.561.63-9.877 1.313-18.519 1.516-19.205zm14.415 3.576c-1.912-1.007-5.391-1.83-7.732-1.83h-4.256v5.362c0 2.949-.271 6.719-.602 8.376-.577 2.882-.427 3.042 3.456 3.697 5.919 1.001 10.927 5.142 17.016 14.072 8.234 12.081 11.057 14.742 11.057 10.429 0-3.822-9.338-29.277-12.377-33.743-1.697-2.494-4.65-5.357-6.562-6.363zm-38.092 72.539c-5.87-1.743-9.203-1.855-12.783-.426-7.282 2.905-8.235 9.384-2.34 15.908 4.263 4.717 7.304 6.465 13.775 7.916 7.977 1.788 16.478-2.186 16.478-7.702 0-6.034-6.98-13.276-15.13-15.696zm-199.43-66.122c8.309-5.599 18.811-.665 19.738 9.274.575 6.159-2.406 11.142-7.921 13.241-14.11 5.37-24.323-14.088-11.817-22.515zm14.111 3.648c-6.33-6.329-17.037-1.667-17.037 7.418 0 3.377 4.373 8.328 8.075 9.14 9.454 2.077 15.825-9.694 8.962-16.558zm295.975 3.15c3.287-1.915 7.258-1.207 10.302 1.838 3.068 3.068 3.534 5.305 1.966 9.429-2.76 7.259-14.481 5.853-16.445-1.972-.691-2.754 1.565-7.774 4.177-9.295zm8.229 3.91c-3.219-3.219-6.613-2.528-8.9 1.813-2.769 5.257 5.17 9.844 9.245 5.342 2.193-2.425 2.083-4.727-.345-7.155zm-279.81 17.21c-1.123-3.811 1.909-2.639 3.874 1.497 3.28 6.903 10.378 16.726 16.731 23.154 26.128 26.433 65.71 33.213 99.22 16.993 8.51-4.12 10.339-4.655 10.339-3.026 0 3.098-20.372 11.215-34.225 13.636-29.336 5.127-61.731-6.664-81.537-29.678-5.716-6.64-13.13-18.263-14.402-22.576zm29.039-1.468c.914-1.479 1.997-.527 6.713 5.898 13.756 18.744 38.134 27.345 59.993 21.167 11.733-3.316 11.778-3.323 11.292-1.795-.242.765-3.555 2.492-7.362 3.84-9.788 3.466-26.804 3.581-36.478.247-8.543-2.945-17.096-8.106-23.169-13.981-5.576-5.395-11.787-14.084-10.989-15.376zm-132.432 5.958c.615-1.599 1.814-2.744 2.869-2.744 2.183 0 8.355 6.252 14.411 14.597l4.439 6.115 3.411-1.444c6.487-2.747 20.207-6.326 22.032-5.748 3.653 1.161 2.223 3.983-8.48 16.748l-3.825 4.562 6.039 7.018c3.322 3.859 6.78 8.448 7.684 10.197 1.54 2.978 1.535 3.261-.092 4.451-2.006 1.466-4.618 1.081-15.957-2.35-4.389-1.329-8.879-2.624-9.976-2.879-1.639-.38-2.797 1.01-6.485 7.784-4.785 8.788-10.342 15.774-12.55 15.774-2.806 0-3.905-4.363-3.908-15.52l-.003-11.029-8.798-1.621c-18.338-3.377-17.829-8.686 1.477-15.431l7.986-2.791-.665-11.473c-.424-7.305-.282-12.469.391-14.216zm13.808 12.47c-3.566-4.8-7.379-9.534-8.473-10.518-1.911-1.72-2.014-1.72-2.676 0-.378.984-.334 6.727.099 12.763.433 6.036.8 11.414.815 11.951.016.538-4.25 2.558-9.478 4.49-11.691 4.321-13.809 5.511-12.381 6.955 1.192 1.205 13.432 3.996 17.646 4.023 1.509.009 2.791.578 2.849 1.264.059.686.17 6.26.249 12.387.08 6.128.521 11.515.982 11.972 1.136 1.129 4.692-3.508 10.052-13.112 6.311-11.308 5.395-10.783 13.791-7.901 9.316 3.199 18.717 5.424 18.717 4.432 0-1.001-3.065-4.991-9.832-12.797l-5.431-6.268 3.16-3.709c10.684-12.539 11.452-13.675 9.459-13.977-1.053-.161-6.482 1.299-12.065 3.242-5.583 1.943-10.34 3.533-10.575 3.533-.234 0-3.343-3.928-6.908-8.73zM31.567 893.354c12.315-5.362 22.853-9.775 23.422-9.806 1.355-.075 8.895 7.818 20.435 21.393 5.132 6.036 12.458 14.252 16.28 18.256 3.994 4.185 6.567 7.642 6.05 8.129-.495.466-6.96 3.408-14.367 6.538-7.407 3.129-13.865 6.065-14.352 6.521-1.58 1.488 5.395 8.892 18.62 19.765 17.229 14.165 16.3 13.33 17.559 15.793 3.878 7.582-6.061 8.015-24.32 1.058-17.747-6.761-64-29.676-65.808-32.601-.806-1.304 1.094-2.356 14.429-7.993 6.858-2.899 13.078-5.6 13.822-6.001.923-.499-4.37-5.249-16.737-15.019-9.949-7.86-17.939-14.738-17.756-15.286.182-.549 10.408-5.385 22.723-10.747zm36.506 7.846c-7.005-8.093-12.822-14.7-12.927-14.681-1.11.201-40.299 17.321-40.874 17.857-.428.398 7.315 7.126 17.209 14.953 9.892 7.826 17.986 14.552 17.986 14.947 0 .395-6.557 3.571-14.572 7.058l-14.57 6.339 2.35 1.81c3.677 2.834 45.228 23.277 55.309 27.212 11.625 4.537 21.48 7.115 23.801 6.224 1.761-.676 1.76-.775-.056-2.796-1.034-1.152-7.522-6.703-14.418-12.334-13.163-10.75-22.88-20.721-22.88-23.475 0-1.152 4.05-3.346 13.719-7.438 7.544-3.194 14.093-6.135 14.552-6.538.46-.402-2.028-3.812-5.528-7.577-3.502-3.765-12.098-13.468-19.102-21.561zm382.839-336.633c2.941-1.466 6.72-2.663 8.394-2.661 4.207.005 8.993 3.163 12.646 8.346l3.078 4.368 5.882-3.034c11.134-5.742 21.716-3.511 30.164 6.358 1.921 2.247 8.505 13.721 14.63 25.497 9.007 17.321 10.906 21.688 9.94 22.851-1.568 1.888-26.586 16.372-36.876 21.349-4.438 2.145-10.967 4.94-14.511 6.211-3.544 1.271-6.443 2.699-6.443 3.173 0 2.666-5.861 11.888-10.652 16.759-13.461 13.687-30.236 15.56-40.986 4.578-10.703-10.932-12.127-28.571-3.673-45.47l3.403-6.802-1.395-7.401c-.766-4.072-1.703-10.807-2.081-14.967-.633-6.971-.474-7.991 2.021-12.97 3.547-7.077 19.198-22.567 26.459-26.185zm13.673 2.305c-5.79-3.531-9.553-2.401-20.19 6.057-8.147 6.479-11.71 10.368-15.898 17.347-2.648 4.416-3.238 6.129-2.309 6.719 2.558 1.625 7.019.707 16.47-3.387 9.359-4.053 10.107-4.21 20.233-4.24 10.186-.029 10.751.087 17.958 3.703 4.469 2.242 10.807 6.743 15.863 11.266 4.63 4.144 10.996 9.099 14.145 11.012 8.216 4.991 20.833 9.077 20.833 6.749 0-1.601-18.498-36.219-21.644-40.507-8.444-11.508-20.942-13.291-32.115-4.584-3.48 2.713-4.313 2.354-7.359-3.169-1.516-2.749-4.21-5.882-5.987-6.966zm14.345 28.368c-4.521-2.237-7.24-2.835-14.083-3.094-9.011-.342-13.535.742-25.219 6.048-3.171 1.438-6.538 2.639-7.483 2.665-.944.028 1.651 1.818 5.765 3.98 6.91 3.63 7.921 3.885 13.207 3.346 4.008-.409 7.339-.077 11.104 1.108 4.108 1.292 5.864 1.433 7.429.595 3.194-1.709 9.55-1.297 15.741 1.02 5.748 2.15 13.376 8.055 13.376 10.355 0 1.918 3.475 2.474 14.965 2.391 10.275-.074 10.388-.1 5.877-1.343-7.398-2.041-14.149-6.252-24.95-15.567-5.568-4.803-12.647-9.98-15.729-11.504zm-36.081 15.636c-.027-.323-4.034-2.461-8.902-4.752l-8.856-4.164.485 3.665a707.17 707.17 0 0 0 1.514 10.41l1.027 6.744 5.146-4.631c2.831-2.547 6.157-5.093 7.391-5.658 1.234-.563 2.224-1.29 2.195-1.614zm18.372 1.222c-7.627-3.257-18.322.81-27.542 10.475-12.979 13.609-17.334 33.099-10.431 46.697 8.17 16.094 25.092 17.627 40.607 3.675 6.336-5.695 8.917-10.223 12.973-22.75 4.498-13.892 8.44-20.985 14.189-25.529l4.783-3.781-3.284-2.505c-4.994-3.809-11.757-6.55-16.196-6.564-7.937-.025-18.088 8.009-24.52 19.405-1.708 3.028-3.512 5.506-4.008 5.506-4.218 0 7.332-18.614 13.647-21.994l2.64-1.414-2.858-1.221zm66.873 15.032c-.491-.119-8.399-.431-17.571-.693-18.786-.537-18.515-.626-24.013 7.888-2.938 4.548-7.265 16.134-6.364 17.035.34.341 2.762-.171 5.38-1.138 9.542-3.523 44.677-22.582 42.568-23.092zm-182.466-5.44c6.644-4.505 15.579-.427 19.064 8.697 2.243 5.874 1.467 18.492-1.712 27.789l-2.387 6.984-8.48-.093c-18.015-.197-31.442-7.912-32.666-18.772-1.001-8.881 4.901-14.284 14.385-13.168 4.656.547 5.313.405 5.313-1.146 0-2.908 3.285-8.124 6.483-10.291zm11.265 2.632c-3.687-2.582-7.579-1.956-11.364 1.829-1.964 1.964-3.446 4.485-3.517 5.986-.277 5.754-.526 5.939-6.035 4.466-11.957-3.199-18.473 6.909-10.293 15.964 5.445 6.026 19.138 10.74 28.834 9.927 3.748-.314 3.977-.542 5.821-5.814 1.056-3.018 2.163-9.323 2.461-14.009.468-7.371.255-9.079-1.569-12.654-1.159-2.274-3.111-4.836-4.338-5.695zm217.894 13.602c1.562-1.563 3.377-1.51 9.346.267 6.079 1.811 10.887 6.086 13.508 12.013 2.155 4.872 7.875 30.085 7.875 34.712 0 4.069-1.67 6.734-3.757 5.997-3.52-1.241-6.509-5.04-11.298-14.361-5.382-10.476-7.552-13.012-13.122-15.34-3.615-1.51-3.721-1.493-4.221.7-.282 1.238-1.444 6.74-2.584 12.227-3.85 18.531-12.018 53.855-13.099 56.651-3.803 9.833-19.789 9.867-30.69.066-8.004-7.196-10.028-16.146-4.768-21.074 7.557-7.079 19.937-5.127 29.724 4.688l5.544 5.561 4.318-18.955c5.593-24.548 11.984-56.165 12.008-59.411.01-1.399.558-3.083 1.216-3.741zm8.39 3.268c-2.729-.81-5.236-1.473-5.572-1.473-.338 0-1.303 4.041-2.146 8.979-1.482 8.67-1.469 8.979.343 8.979 5.474 0 12.044 6.453 17.266 16.961 6.067 12.205 9.454 15.972 9.454 10.512 0-4.415-5.72-30.051-7.486-33.543-2.789-5.523-6.571-8.844-11.859-10.415zm-43.255 68.79c-11.886-4.242-21.186 2.477-16.653 12.031 6.87 14.476 31.376 18.19 31.362 4.753-.006-6.629-6.266-13.771-14.709-16.784zm124.953-62.441c9.876-5.924 18.406-10.633 18.956-10.464 1.229.376 2.19 11.296 2.362 26.836.073 6.448.403 11.722.735 11.722.333 0 5.45-2.918 11.369-6.485 5.919-3.566 11.258-6.484 11.865-6.484 1.609 0 1.355 5.688-.956 21.449-3.984 27.168-9.887 50.537-14.127 55.927-1.076 1.369-2.961 2.437-4.3 2.437-3.195 0-4.088-3.799-4.856-20.662-.644-14.117-2.126-23.236-3.777-23.236-.561 0-5.865 2.919-11.784 6.485-5.919 3.567-11.214 6.485-11.763 6.485-.55 0-1.524-3.03-2.164-6.734-.641-3.704-2.917-14.142-5.06-23.196-2.143-9.054-4.022-18.003-4.177-19.886l-.281-3.424 17.958-10.77zm18.347 15.249c-.059-5.83-.396-13.122-.748-16.204l-.64-5.604-14.964 8.916c-8.231 4.903-15.482 9.445-16.112 10.093-.87.891-.313 4.706 2.282 15.644 1.889 7.957 4.116 17.834 4.952 21.949.834 4.115 1.696 8.033 1.914 8.707.256.784 4.347-1.14 11.389-5.354 6.135-3.671 11.64-6.329 12.458-6.015 2.68 1.029 5.503 17.431 5.546 32.218.024 7.765.968 12.525 2.395 12.061 3.998-1.3 12.692-37.299 16.142-66.84l.674-5.768-10.843 6.514c-5.964 3.584-11.349 6.517-11.966 6.517-1.639.003-2.356-4.865-2.479-16.834zm224.58 14.32c9.344-3.024 22.364.675 29.008 8.241 8.099 9.227 9.532 20.425 4.04 31.58-3.009 6.112-8.176 11.58-10.944 11.58-1.94 0-1.336-1.094 3.396-6.152 5.789-6.191 7.724-10.77 7.764-18.379.026-4.941-.53-7.084-2.983-11.473-7.299-13.074-23.332-17.445-34.986-9.54-14.386 9.758-10.016 31.078 6.369 31.078 5.615 0 9.586-2.571 11.456-7.416 1.848-4.788-1.844-9.445-7.546-9.519-2.62-.034-3.142-2.207-.715-2.977 3.134-.995 8.787 1.931 10.636 5.506 4.039 7.811-3.88 17.898-14.051 17.898-3.365 0-9.36-2.586-12.251-5.286-11.052-10.32-4.992-30.029 10.807-35.141zm-520.523 3.508c5.925-2.482 12.177 1.581 12.177 7.912 0 9.753-12.675 12.101-16.426 3.043-1.099-2.652-1.046-3.621.357-6.564.906-1.898 2.657-3.875 3.892-4.391zm7.733 3.996c-2.722-2.721-5.442-2.504-7.909.634-2.628 3.341-2.596 3.917.381 6.894 2.981 2.981 4.494 3.065 7.339.415 2.719-2.532 2.785-5.346.189-7.943zm-69.216 3.172c.851-4.36 2.808-1.743 2.53 3.384-1.091 20.071-9.316 77.349-11.612 80.853-7.354 11.224-29.231 4.984-34.941-9.967-2.211-5.789-1.397-10.357 2.511-14.101 2.435-2.333 4.073-2.933 8.962-3.288 5.02-.363 6.869.002 11.494 2.264 3.069 1.503 6.902 4.429 8.651 6.605 1.727 2.149 3.297 3.751 3.487 3.56.635-.635 6.181-41.88 7.33-54.524.623-6.859 1.339-13.512 1.588-14.786zm-23.067 61.643c-8.573-4.122-17.692-1.565-18.984 5.325-.762 4.061.538 7.48 4.6 12.107 5.479 6.24 13.508 9.228 20.084 7.475 7.08-1.887 8.968-9.386 4.149-16.487-3.154-4.647-4.633-5.911-9.849-8.42zm568.172-40.622c-.008-.685.585-1.247 1.315-1.247 1.891 0 25.61 49.364 25.61 53.302 0 7.751-12.144 14.187-21.844 11.576-16.247-4.376-8.813-21.818 8.875-20.82 3.293.187 5.987.027 5.987-.353-.003-1.088-14.481-31.728-17.351-36.721-1.42-2.469-2.585-5.05-2.592-5.737zm19.975 47.158c-3.396-1.756-11.6-1.954-14.501-.35-6.714 3.713-8.234 8.288-3.89 11.706 5.526 4.347 14.677 3.506 19.775-1.815 3.485-3.637 2.953-7.298-1.384-9.541zm-434.73-43.215c.574-.712 1.941-1.161 3.036-.997 2.448.365 4.956 7.227 6.739 18.438.683 4.289 1.729 8.128 2.327 8.531.598.404 2.66.756 4.58.784 6.259.089 19.235 2.824 20.793 4.382 1.363 1.363 1.341 1.72-.212 3.435-1.57 1.736-6.798 4.374-16.712 8.433l-3.612 1.479 2.362 8.833c3.808 14.239 2.944 19.268-2.791 16.243-1.277-.674-5.967-4.77-10.42-9.103l-8.098-7.879-9.605 6.513c-10.443 7.08-13.814 8.449-16.112 6.541-2.21-1.833-1.932-2.929 3.474-13.624 4.309-8.522 4.754-9.94 3.392-10.807-9.121-5.806-13.968-9.431-15.683-11.734-1.953-2.621-1.967-2.838-.31-4.489 1.486-1.479 3.555-1.712 14.007-1.581l12.264.155 1.813-5.143c1.959-5.562 7.081-16.315 8.768-18.41zm5.073 9.517c-.869-3.708-1.952-6.973-2.407-7.254-.945-.584-5.634 8.979-8.992 18.335l-2.272 6.333-10.695-.698c-10.618-.694-14.905-.238-14.905 1.588 0 .523 3.479 3.171 7.732 5.883 13.03 8.315 12.148 6.589 7.428 14.543-3.896 6.567-7.674 15.402-6.586 15.402 1.27 0 7.552-3.705 14.589-8.606 4.235-2.949 8.217-5.361 8.849-5.361.632 0 5.158 3.816 10.06 8.48 4.901 4.664 9.337 8.48 9.856 8.48 1.548 0 1.097-3.965-1.535-13.475-1.364-4.935-2.487-9.331-2.494-9.771-.006-.44 1.672-1.485 3.729-2.323 10.087-4.107 17.203-7.761 16.493-8.469-.433-.433-6.143-1.49-12.69-2.348-6.545-.858-12.045-1.704-12.221-1.879-.176-.175-.778-2.973-1.339-6.218-.561-3.244-1.731-8.934-2.6-12.642zm-219.179-9.053c1.025-1.026 1.057-.995 4.626 4.572 4.507 7.033 5.4 7.63 12.549 8.377 3.391.354 6.375.985 6.633 1.401.257.417-1.982 2.139-4.976 3.829-6.438 3.633-7.565 5.434-8.27 13.215-.292 3.218-.938 5.852-1.436 5.852-.499 0-1.671-1.418-2.606-3.151-.933-1.733-2.895-4.537-4.356-6.231-2.312-2.678-3.474-3.147-8.901-3.584-3.433-.276-6.414-1.022-6.623-1.659-.209-.635 1.923-2.409 4.739-3.943 6.019-3.275 7.955-6.474 7.955-13.142 0-2.678.3-5.171.666-5.536zm11.484 14.984c-1.549-.31-4.182-1.96-5.852-3.668l-3.034-3.105-.593 2.963c-.326 1.629-1.945 4.503-3.6 6.386l-3.005 3.424 3.966 1.188c2.182.655 4.687 2.289 5.568 3.634 1.759 2.683 3.379 2.417 3.379-.556 0-1.047 1.347-3.436 2.993-5.311 1.646-1.874 2.993-3.63 2.993-3.9 0-.271-1.267-.746-2.815-1.055zm139.571-13.39c3.314-1.691 4.231-1.585 7.323.848 5.685 4.473.745 14.394-6.051 12.151-5.819-1.921-6.635-10.262-1.272-12.999zm4.975 2.764c-2.5-1.338-2.467-1.344-4.399.792-2.133 2.357-2.082 3.463.26 5.583 1.525 1.381 2.333 1.506 3.991.619 2.651-1.42 2.741-5.606.148-6.994zm-34.631-.165c7.188-4.511 16.608.721 16.608 9.225 0 5.428-5.067 10.86-10.126 10.854-11.086-.012-15.697-14.294-6.482-20.079zm11.166 3.577c-3.946-3.948-10.378-2.62-12.536 2.586-1.37 3.309-.617 6.264 2.283 8.966 7.152 6.663 17.175-4.629 10.253-11.552zm240.887 26.483c6.232-6.232 15.948 3.337 9.938 9.788-4.227 4.537-11.934 1.438-11.934-4.8 0-1.663.888-3.88 1.996-4.988zm7.94 2.446c-.661-.797-1.989-1.448-2.953-1.448-3.969 0-5.198 5.194-1.745 7.37 3.456 2.177 7.349-2.728 4.698-5.922zm-96.737 4.41c8.698-2.861 28.938 3.979 28.938 9.779 0 1.837-.66 1.676-4.307-1.054-6.453-4.828-9.855-5.99-17.714-6.047-6.437-.048-8.081.306-11.128 2.392-4.916 3.367-7.108 7.338-6.333 11.47.74 3.942 6.069 12.096 15.031 22.993 7.564 9.199 9.651 14.317 7.433 18.225-2.735 4.818-5.725 6.006-17.976 7.146-6.352.59-13.96 1.789-16.907 2.665-5.952 1.767-11.949 6.915-11.949 10.257 0 4.201 3.569 10.745 12.082 22.158 10.771 14.445 12.053 16.87 11.667 22.064-.393 5.28-3.703 7.867-10.952 8.565-4.852.466-5.192.367-3.943-1.138.751-.905 2.224-1.647 3.273-1.647 1.047 0 3.461-.65 5.364-1.445 2.973-1.242 3.46-1.917 3.46-4.793 0-3.808-2.733-8.472-12.356-21.086-10.533-13.805-13.006-20.227-10.287-26.735 2.71-6.482 11.764-10.057 30.008-11.848 11.843-1.163 15.182-2.489 16.169-6.424.805-3.208-1.274-6.672-11.83-19.697-4.626-5.708-9.206-12.459-10.177-15.001-3.623-9.488.864-16.993 12.434-20.799zm113.097 1.117c8.159-3.293 15.605 1.232 15.605 9.486 0 3.782-.531 5.174-2.865 7.508-3.581 3.581-7.269 4.555-11.154 2.946-4.454-1.845-6.932-5.549-6.932-10.366 0-4.559 2.062-8.249 5.346-9.574zm10.303 4.172c-4.855-4.56-12.655-1.16-12.655 5.518 0 4.625 2.974 7.678 7.482 7.678 6.888 0 10.207-8.467 5.173-13.196zm298.767 11.55c0-5.727.34-7.732 1.313-7.732 3.544 0 1.974 17.144-2.349 25.69-2.839 5.608-9.253 13.218-11.141 13.218-1.961 0-.811-2.354 3.487-7.134 5.982-6.654 8.69-14.148 8.69-24.042zm-18.455.239c.807-7.714 2.879-7.491 2.723.294-.12 5.976-3.497 14.236-6.575 16.084-2.367 1.422-3.432-.028-1.576-2.145 2.943-3.356 4.8-8.226 5.428-14.233zm-15.016-3.794c.604-2.097 2.388-.306 2.388 2.398 0 3.801-2.692 9.387-4.523 9.387-.916 0-1.402-.547-1.113-1.247.438-1.056 1.61-4.862 3.248-10.538zm-316.205 5.932c8.273-4.81 17.585 6.66 10.863 13.381-4.706 4.708-12.196 2.999-14.617-3.336-1.067-2.789 1.059-8.479 3.754-10.045zm8.324 3.858c-3.343-3.344-7.104-2.433-8.846 2.144-1.354 3.563.964 6.835 4.841 6.835 5.513 0 7.818-5.167 4.005-8.979zm234.904 11.852c5.008-2.276 11.695-2.372 17.891-.261 5.566 1.896 15.257 10.433 18.885 16.636 7.669 13.114 7.411 29.048-.612 37.485-4.25 4.468-8.414 6.121-15.39 6.11-14.132-.024-28.273-13.237-32.146-30.035-3.02-13.1 1.708-25.545 11.372-29.935zm20.76 4.421c-2.968-1.739-6.293-2.68-10.533-2.98-5.306-.375-6.771-.083-10.206 2.034-20.305 12.511-4.05 53.385 21.271 53.49 12.114.049 19.044-9.075 17.893-23.562-.893-11.24-8.458-23.142-18.425-28.982zm-14.471 9.178c6.349-3.569 15.655.872 18.737 8.942 3.44 9.006-1.162 17.758-9.338 17.758-13.615 0-20.765-20.308-9.399-26.7zm10.214 3.142c-4.913-2.903-9.245-1.796-11.81 3.017-3.741 7.024 2.901 17.608 11.049 17.608 3.908 0 7.745-4.204 7.745-8.484 0-4.022-3.479-10.071-6.984-12.141zm-461.502-12.255c.289-.755 1.012-1.373 1.603-1.373.688 0 .97 2.255.78 6.235-.163 3.43-.746 6.236-1.295 6.236-1.081 0-1.948-8.854-1.088-11.098zm44.326 3.749c5.077-3.931 8.141-5.153 8.141-3.248 0 .483-3.928 4.028-8.728 7.879-4.801 3.85-10.05 8.393-11.661 10.096-3.131 3.31-4.552 3.878-4.552 1.819 0-1.546 9.46-10.863 16.8-16.546zm-83.566-12.869c3.376-1.718 13.235-1.566 17.634.272 6.247 2.611 7.052 3.903 7.804 12.547l.69 7.895 6.694 3.518c25.414 13.354 40.815 42.377 37.109 69.925-3.298 24.506-16.948 43.7-38.577 54.246-10.321 5.033-18.669 6.934-30.518 6.952-31.877.049-59.015-20.842-67.368-51.863-2.376-8.826-2.363-26.172.025-34.918 6.743-24.685 25.839-43.59 50.21-49.707 3.97-.995 7.549-2.141 7.952-2.544.403-.403 1.9-3.964 3.328-7.912 1.828-5.055 3.311-7.544 5.017-8.411zm-39.204 64.935c-3.69-1.839-6.938-3.345-7.22-3.345-1.212 0-7.52 19.009-7.52 22.663 0 2.04 24.261 13.267 25.657 11.871.414-.413 5.253-22.17 5.266-23.673.002-.338-2.129-1.414-4.735-2.392-2.605-.978-7.758-3.284-11.448-5.124zm105.344 7.879c-.67-2.513-1.41-2.618-6.21-.881l-3.348 1.212-.287 26.066 4.938-1.679c3.951-1.343 5.107-2.26 5.79-4.593.843-2.884.279-15.785-.883-20.125zm-73.427 3.195c-4.518-.922-9.232-2.063-10.476-2.536-1.244-.473-2.261-.748-2.261-.612 0 .135-1.113 5.612-2.473 12.168-1.359 6.558-2.144 12.215-1.746 12.571 1.776 1.586 21.313 5.234 33.79 6.308l6.126.529.718-11.939c.395-6.567.679-12.279.631-12.694-.047-.416-3.688-1.062-8.09-1.437-4.401-.375-11.699-1.436-16.219-2.358zm60.483.129c-.7-1.825-1.038-1.824-8.374.025-3.017.761-9.631 1.676-14.695 2.034-7.211.51-9.308.998-9.669 2.249-.253.878-.771 6.683-1.151 12.9l-.691 11.304 8.365-.653c4.601-.359 12.236-1.33 16.969-2.156l8.604-1.504.624-4.548c.796-5.806.807-17.596.018-19.651zm-105.486 13.465c-3.928-2.196-8.674-4.998-10.546-6.227l-3.405-2.235.66 8.432c1.078 13.764 1.778 15.282 9.419 20.408l6.66 4.468 1.144-6.726c.629-3.698 1.61-8.39 2.176-10.427l1.034-3.701-7.142-3.992zm34.333 12.906c-5.174-1.208-12.716-3.471-16.762-5.028l-7.354-2.832-.886 2.329c-.487 1.282-1.373 5.179-1.968 8.662-.595 3.483-1.291 7.291-1.547 8.462-.405 1.85.617 2.594 7.754 5.641 12.805 5.466 30.8 10.391 29.415 8.051-.279-.471.266-5.725 1.21-11.675 1.199-7.539 1.389-10.907.631-11.115-.598-.163-5.32-1.287-10.493-2.495zm83.73-1.479c0-1.819 0-1.819-6.984.49-3.017.998-8.695 2.353-12.616 3.011l-7.13 1.197-.681 6.613c-.375 3.639-1.11 8.582-1.633 10.987-.524 2.405-.739 4.587-.476 4.849.262.263 4.654-.706 9.761-2.153 6.98-1.976 9.842-3.303 11.538-5.347 2.312-2.791 8.221-16.911 8.221-19.647zm-45.642 5.836c-8.642.015-17.396-.309-19.454-.721-2.057-.411-3.784-.616-3.838-.453-.053.161-.882 4.784-1.845 10.271-.961 5.487-2.071 10.719-2.467 11.626-.627 1.437.401 1.744 7.911 2.37 10.797.9 30.128.16 31.493-1.204.918-.918 3.901-16.436 3.91-20.348.002-1.36-2.073-1.564-15.71-1.541zm-75.908 7.204c-2.263-1.428-4.389-2.597-4.727-2.597-1.11 0 5.717 11.369 9.922 16.522 4.254 5.213 8.838 9.471 14.181 13.173l3.078 2.132 1.168-7.683c1.464-9.612 1.455-10.176-.163-10.176-1.659 0-17.97-7.907-23.459-11.371zm34.256 14.905c-2.743-.835-5.284-1.522-5.647-1.528-.882-.015-3.076 13.226-2.662 16.06.54 3.698 13.699 7.999 26.375 8.623l10.085.497 1.121-3.216c.616-1.768 1.416-6.089 1.775-9.602l.654-6.387-4.377-.004c-5.629-.005-20.898-2.489-27.324-4.443zm67.709 5.369c3.913-3.765 6.667-6.829 6.117-6.809-.549.019-3.018.679-5.487 1.467-6.351 2.027-21.446 4.411-27.963 4.416l-5.516.004-1.242 9.121c-.683 5.016-1.12 9.229-.969 9.36.894.782 12.483-3.134 19.597-6.621 5.902-2.893 10.433-6.099 15.463-10.938zm-28.261-130.598c-3.719-1.897-11.604-2.557-16.138-1.35-1.438.383-6.867 12.923-6.854 15.83.013 2.851 19.764 6.72 26.138 5.12 2.35-.59 2.391-.774 1.658-7.369-.414-3.72-.775-7.54-.804-8.49-.028-.977-1.762-2.6-4-3.741zm-23.523 18.286c-3.566-2.609-13.414-.577-23.906 4.933-8.799 4.621-8.928 4.128 2.515 9.572 11.891 5.656 15.941 6.944 15.941 5.066 0-.687 1.641-5.067 3.646-9.736 3.487-8.118 3.565-8.547 1.804-9.835zm16.139 4.293c-3.369-.332-7.276-.875-8.684-1.206-2.368-.559-2.8-.081-5.79 6.408-1.778 3.857-3.321 8.249-3.428 9.76-.181 2.553.192 2.835 5.292 4.007 3.018.694 8.744 1.563 12.72 1.933l7.233.671-.011-6.872c-.006-3.779-.279-8.498-.609-10.485-.596-3.611-.602-3.614-6.723-4.216zm22.436 1.493c-3.241-1.728-6.056-3.101-6.254-3.052-6.937 1.738-7.108 1.889-6.477 5.707.335 2.024.614 6.776.62 10.559l.011 6.877 10.226-.56c10.398-.571 20.701-2.462 20.701-3.8 0-1.66-13.34-12.807-18.827-15.731zm-65.287 9.598c-3.929-2.068-7.39-3.76-7.688-3.76-.879 0-11.466 11.203-13.74 14.541l-2.091 3.067 6.179 4.036c3.399 2.219 7.58 4.747 9.289 5.619l3.11 1.583 1.698-3.766c.935-2.072 3.655-6.87 6.044-10.663l4.346-6.896-7.147-3.761zm22.123 8.781c-4.589-1.333-9.082-2.71-9.987-3.061-1.131-.439-2.421.393-4.142 2.673-3.066 4.062-9.677 16.042-9.677 17.537 0 2.212 29.769 11.707 31.445 10.03.466-.466 4.444-21.865 4.463-24.007.004-.411-.841-.748-1.877-.748s-5.637-1.091-10.225-2.424zm67.948 5.524c-1.724-2.802-3.433-5.043-3.797-4.977-.365.065-2.908.695-5.651 1.401-2.744.705-6.406 1.325-8.138 1.377l-3.147.096.538 12.222c.296 6.721.645 12.352.777 12.511.704.851 24.279-5.694 26.218-7.28.611-.5-3.823-10.512-6.8-15.35zm-23.993-.493c-.23-.218-6.804-.566-14.608-.774l-14.187-.377-.503 2.514c-1.944 9.726-3.544 21.306-3.015 21.835.347.348 7.889.633 16.76.633h16.13l-.079-11.718c-.042-6.445-.267-11.896-.498-12.113zm-87.084 5.456c-1.848-1.143-3.632-2.078-3.965-2.078-1.64 0-7.639 16.823-7.639 21.42 0 1.496 1.252 3.085 3.72 4.722l3.718 2.468 3.763-11.465c2.071-6.306 3.763-11.809 3.763-12.228 0-.42-1.512-1.698-3.36-2.839zm-35.912-40.819c.66-2.341 3.072.551 3.83 4.591 1.711 9.12 6.884 13.995 16.732 15.771 5.595 1.009 4.529 2.935-2.709 4.895-9.074 2.456-11.728 5.434-14.493 16.258-1.046 4.101-2.704 5.558-3.403 2.993-3.872-14.211-5.854-16.665-15.667-19.394-3.425-.952-5.879-2.191-5.879-2.967 0-.733.592-1.333 1.315-1.333.724 0 3.58-.672 6.347-1.495 8.052-2.39 9.87-4.912 13.927-19.319zm2.745 11.259c-.837-3.334-1.764-3.028-3.247 1.073-1.31 3.622-5.876 7.72-10.004 8.977-2.241.682-2.092.887 2.44 3.358 3.473 1.894 5.4 3.808 6.875 6.825 1.127 2.307 2.275 4.198 2.548 4.204.274.006 1.397-1.882 2.494-4.193 1.467-3.091 3.284-4.9 6.862-6.828l4.865-2.625-3.586-1.183c-3.937-1.3-8.3-5.831-9.247-9.608zm370.194 1.914c2.91-2.91 3.981-3.333 8.436-3.333 4.366 0 5.614.468 8.642 3.243 7.018 6.431 5.285 17.107-3.397 20.948-3.864 1.709-4.993 1.815-8.42.788-4.872-1.46-8.464-5.179-9.299-9.63-.905-4.827.233-8.211 4.038-12.016zm15.581 2.576c-2.287-2.287-3.81-2.916-7.06-2.916-3.25 0-4.772.629-7.06 2.916-3.974 3.974-3.982 8.828-.026 13.257 2.393 2.678 3.615 3.236 7.086 3.236s4.693-.558 7.086-3.236c3.958-4.429 3.948-9.283-.026-13.257zm-216.315 7.866c3.526-1.414 6.646-2.133 7.182-1.654 1.31 1.173.043 2.109-6.318 4.671-6.278 2.528-7.101 2.624-7.101.824 0-.737 2.808-2.465 6.237-3.841zm475.895 17.581c1.836-.827 4.904-1.264 7.126-1.013 11.876 1.334 15.522 16.597 5.575 23.338-4.964 3.363-11.935 2.686-16.193-1.572-6.105-6.107-4.227-17.272 3.492-20.753zm12.301 4.959c-6.581-6.582-16.484-2.444-16.539 6.91-.057 9.91 13.953 13.329 18.509 4.518 2.318-4.481 1.762-7.696-1.97-11.428zm-345.784 9.018c7.183-1.838 22.462-1.157 30.491 1.359 22.711 7.12 39.388 23.578 43.381 42.817 2.926 14.092-.516 34.224-8.597 50.294l-3.327 6.615 2.02 3.86c5.109 9.762-1.998 25.004-14.002 30.033-4.842 2.029-21.676.164-27.812-3.082-6.041-3.194-9.372-11.484-7.228-17.983 2.539-7.695 20.417-26.622 26.616-28.178 1.354-.34 4.686-.405 7.402-.143l4.938.474 1.498-5.043c6.557-22.082 3.797-39.296-8.107-50.555-12.07-11.415-34.75-17.129-48.982-12.34-7.441 2.504-16.344 9.455-22.468 17.544-5.293 6.989-8.28 11.764-7.579 12.113 6.94 3.445 9.591 6.35 10.687 11.709 1.599 7.816-2.742 31.051-6.889 36.876-1.07 1.502-3.845 3.491-6.168 4.421-6.315 2.526-11.705 1.378-17.711-3.776-2.674-2.295-6.073-5.018-7.555-6.052-7.028-4.906-8.624-20.471-3.07-29.948 2.904-4.955 5.58-7.123 11.154-9.039 3.257-1.12 3.765-1.862 6.304-9.195 7.602-21.954 23.8-37.352 45.004-42.781zm-30.446 51.613c-4.94-2.251-10.157-1.478-13.968 2.072-2.82 2.626-3.865 4.759-5.498 11.223-1.109 4.39-2.276 11.798-2.594 16.462-.534 7.811-.393 8.755 1.802 11.972 2.805 4.109 8.924 6.672 13.305 5.573 1.582-.397 2.406-1.028 1.833-1.402-7.018-4.56-3.852-32.823 4.66-41.606l3.028-3.123-2.568-1.171zm-19.943 4.566c2.297-5.558-7.941 2.863-10.601 8.72-2.476 5.45-2.397 13.736.18 19.06 3.436 7.097 4.581 6.362 5.33-3.421.586-7.658 3.039-19.393 5.091-24.359zm25.914 10.747c.029-8.577-.2-10.002-1.656-10.289-1.07-.212-2.601 1.062-4.169 3.47-5.792 8.888-8.297 29.613-4.138 34.21l1.976 2.183 2.133-2.48c3.258-3.788 5.815-15.625 5.854-27.094zm70.367 23.961c0-5.088-5.241-2.644-15.28 7.123-6.613 6.434-13.652 16.516-13.652 19.555 0 1.684.465 1.873 3.243 1.325 9.644-1.906 25.689-19.396 25.689-28.003zm6.944-.902c-3.802-2.246-4.752-2.051-4.195.863.658 3.443-3.815 12.219-9.389 18.418-5.328 5.926-13.672 11.733-18.145 12.628-3.851.77-3.899 1.352-.405 4.85 4.995 5.002 10.537 5.832 16.139 2.417 9.006-5.491 22.021-22.386 22.021-28.587 0-4.246-2.386-8.439-6.026-10.589zm9.979 22.312c.012-6.249-1.322-6.456-4.946-.766-1.842 2.89-7.067 8.96-11.612 13.486l-8.26 8.231h3.979c2.19 0 5.44-.609 7.221-1.354 7.018-2.932 13.604-12.411 13.618-19.597zm-38.052-109.282c-19.806-4.166-36.357.983-51.219 15.934-7.915 7.963-13.999 17.729-16.422 26.361-.883 3.154-.81 3.315 1.266 2.758 1.213-.325 2.97-.598 3.904-.605 1.002-.008 3.599-2.954 6.346-7.202 6.76-10.448 15.85-19.13 24.055-22.971 20.825-9.752 54.272.802 64.22 20.265 6.312 12.347 6.522 29.769.561 46.532-.992 2.789-1.15 4.429-.472 4.848.564.348 1.858 2.005 2.878 3.682l1.854 3.049 2.549-5.762c4.893-11.066 6.724-18.618 7.276-30.029.583-12.078-.636-18.353-5.387-27.73-6.738-13.298-24.054-25.478-41.409-29.13zm347.728 10.953c9.407-4.094 18.586 1.963 18.586 12.262 0 5.585-2.245 5.355-3.048-.311-1.348-9.529-6.971-12.72-15.362-8.72-1.932.922-3.788 1.401-4.125 1.065-1.026-1.028.663-2.866 3.949-4.296zm-57.63 6.378c.899-1.454 1.906-.2 5.448 6.777 4.323 8.517 13.43 17.785 21.884 22.271 5.607 2.975 7.633 3.493 14.965 3.826 7.869.359 8.909.167 14.43-2.645 3.273-1.668 6.174-2.808 6.448-2.532 1.212 1.211-2.042 4.076-7.006 6.168-8.114 3.421-19.898 2.79-29.2-1.563-9.399-4.398-19.34-14.403-24.026-24.181-1.912-3.992-3.237-7.646-2.943-8.121zm-427.963 22.282c.713-2.554 2.777-.497 3.901 3.891.623 2.432 1.888 5.874 2.808 7.648 1.843 3.55 5.792 5.977 12.548 7.708 4.388 1.125 6.445 3.189 3.891 3.902-14.453 4.038-16.535 5.745-19.023 15.593-1.784 7.06-3.624 7.064-5.428.013-2.381-9.303-5.002-11.923-14.304-14.304-7.051-1.804-7.047-3.644.013-5.428 9.848-2.488 11.556-4.57 15.594-19.023zm6.992 16.999c-1.054-.936-2.728-3.495-3.72-5.687l-1.804-3.985-1.461 3.486c-1.781 4.255-5.011 7.395-9.583 9.317l-3.446 1.449 3.453 1.475c4.162 1.777 8.4 6.122 9.952 10.201l1.138 2.993 1.463-3.462c1.94-4.59 4.06-6.813 8.792-9.228l3.921-2.003-3.395-1.428c-1.866-.785-4.256-2.192-5.31-3.128zm417.792.045c1.584-1.83 3.38-3.166 3.992-2.968 2.008.653 3.648 5.472 4.721 13.881.581 4.555 1.24 9.634 1.466 11.288.404 2.953.593 3.044 10.636 5.131 13.232 2.751 15.713 3.754 15.713 6.358 0 2.295-6.235 5.52-16.361 8.464-3.073.893-5.571 1.929-5.553 2.302.019.372.677 3.596 1.461 7.162 1.673 7.604 1.934 17.571.482 18.468-1.453.898-7.276-2.945-11.034-7.282a515.633 515.633 0 0 0-7.033-7.9l-3.824-4.197-8.442 4.969c-11.258 6.627-16.418 8.462-18.354 6.527-2.193-2.194-.776-7.048 4.666-15.986l4.808-7.896-7.821-7.572c-4.301-4.164-7.818-8.099-7.818-8.743 0-.646.753-1.927 1.675-2.849 1.86-1.86 8.618-1.516 19.378.986l5.593 1.301 4.383-9.057c2.414-4.981 5.682-10.555 7.266-12.387zm5.498 9.221c-.544-3.84-1.363-7.355-1.819-7.812-.957-.957-6.728 8.195-10.349 16.41-1.359 3.085-2.896 5.872-3.414 6.192-.519.32-5.17-.289-10.336-1.356-11.172-2.304-13.885-2.423-13.885-.604 0 1.463 7.797 9.137 12.245 12.052 1.496.98 2.719 2.416 2.719 3.191 0 .775-2.469 5.504-5.487 10.51-3.018 5.006-5.487 9.939-5.487 10.961 0 1.756.207 1.774 3.741.321 2.058-.845 7.416-3.769 11.907-6.498 4.492-2.729 8.683-4.96 9.316-4.96.634 0 5.356 4.377 10.497 9.727l9.348 9.727.042-3.653c.024-2.01-.63-7.173-1.453-11.474-.823-4.3-1.497-8.343-1.497-8.984s4.153-2.555 9.228-4.256c9.91-3.319 12.527-4.583 11.537-5.574-.443-.443-22.338-5.333-24.434-5.456-.098-.006-.459-2.593-.803-5.747-.344-3.155-1.071-8.878-1.616-12.717zm-82.233 20.205c3.848-1.699 4.837-1.698 8.931.012 11.695 4.887 8.214 22.532-4.443 22.532-7.345 0-12.635-5.99-11.667-13.209.6-4.474 2.881-7.439 7.179-9.335zm8.008 2.785c-3.52-1.604-4.477-1.513-8.232.776-7.417 4.523-4.206 15.99 4.479 15.99 3.95 0 9.212-4.544 9.212-7.955 0-3.322-2.591-7.504-5.459-8.811zm126.174-1.192c2.696-2.697 6.556-2.512 9.522.454 2.982 2.981 3.135 6.416.416 9.334-2.387 2.562-6.572 2.833-9.716.63-2.899-2.03-3.018-7.623-.222-10.418zm7.782 2.195c-.659-.659-1.916-1.198-2.794-1.198-4.349 0-5.628 6.535-1.482 7.576 4.297 1.078 7.282-3.371 4.276-6.378zm-186.349 20.505c2.959-2.959 4.508-3.745 7.385-3.745 4.492 0 10.382 2.361 11.198 4.488 1.008 2.629-.344 2.84-3.943.614-6.841-4.227-13.64-1.559-15.739 6.176-1.969 7.265-1.884 7.099-3.039 5.945-2.126-2.126.13-9.469 4.138-13.478zM124.524 22.37c-1.219-3.656 15.422.527 28.199 7.086 11.85 6.084 25.54 19.972 31.437 31.892 3.091 6.251 4.022 9.062 3.256 9.828-.768.768-2.411-1.514-5.75-7.977-10.211-19.773-29.661-34.631-50.323-38.444-3.53-.651-6.599-1.725-6.819-2.385zm2.339 26.605c1.5-2.427 16.545 3.685 24.84 10.092 5.563 4.298 12.493 12.804 12.493 15.336 0 2.341-1.721 2.02-3.113-.582-2.234-4.174-11.209-12.818-16.77-16.149-3.056-1.832-8.027-4.119-11.044-5.084-6.779-2.168-7.164-2.385-6.406-3.613zm-4.988 21.949c.796-1.289 2.442-1.041 7.094 1.072 7.201 3.269 16.376 13.023 12.25 13.023-.565 0-2.399-1.562-4.075-3.471-1.677-1.909-5.919-4.885-9.428-6.612-3.509-1.727-6.138-3.533-5.841-4.012zm-51.957 44.685c3.427-1.806 14.075-2.171 19.49-.667 4.88 1.356 12.934 6.626 12.934 8.465 0 2.25-1.675 1.86-5.796-1.351-4.83-3.764-9.153-5.112-16.4-5.112-9.007 0-15.698 4.089-17.328 10.588-.922 3.674 3.645 12.141 11.794 21.866 11.166 13.328 13.67 19.259 10.21 24.196-2.418 3.454-6.791 5.202-13.108 5.24-8.212.049-20.51 2.422-25.785 4.975-4.2 2.035-7.45 6.04-7.425 9.157.023 3.054 5.324 12.11 13.806 23.584 10.145 13.725 12.084 18.355 9.654 23.054-1.166 2.258-2.776 3.341-6.698 4.505-6.057 1.799-7.456 1.888-8.297.529-.674-1.089-.148-1.34 6.242-2.976 2.555-.654 4.867-2.038 5.81-3.479 1.444-2.203 1.414-2.735-.363-6.695-1.063-2.367-5.403-8.792-9.645-14.279-9.294-12.018-12.786-18.54-12.917-24.119-.123-5.343 2.566-9.102 8.609-12.026 5.126-2.482 19.347-5.258 26.936-5.258 5.697 0 10.564-2.415 11.375-5.642.819-3.259-1.809-7.874-10.704-18.8-8.406-10.328-11.17-14.843-12.304-20.099-1.217-5.639 2.726-11.869 9.91-15.656zm70.17 25.985c8.182-1.254 13.17.243 18.724 5.618 5.268 5.098 17.355 25.757 17.355 29.663 0 6.474-5.205 4.875-14.925-4.584-7.78-7.572-13.684-11.006-17.072-9.93-1.058.336-1.917.917-1.91 1.291.007.375.881 9.66 1.943 20.634 1.061 10.975 2.243 25.199 2.624 31.61l.694 11.657-2.965 2.965c-5.088 5.088-12.516 6.288-21.324 3.444-6.403-2.068-11.57-6.938-12.474-11.754-2.027-10.808 14.581-16.546 27.786-9.599l5.479 2.881-.383-3.629c-.21-1.998-1.102-11.87-1.981-21.942-.879-10.071-2.381-24.438-3.336-31.925-.957-7.487-1.548-14.149-1.317-14.803.232-.654 1.619-1.372 3.082-1.597zm14.214 5.339c-2.845-2.025-10.05-3.378-13.086-2.456-1.303.396-1.395 1.531-.617 7.667l.913 7.201 4.11.092c5.568.124 9.617 2.42 16.369 9.281 6.932 7.045 11.183 10.027 11.183 7.845 0-1.583-8.308-16.429-13.056-23.331-1.601-2.326-4.218-5.161-5.816-6.299zm-18.46 67.678c-7.649-3.472-18.864-1.882-21.504 3.05-1.635 3.055-1.224 4.737 2.076 8.495 2.171 2.473 4.739 4.007 8.577 5.122 17.459 5.076 26.876-9.388 10.851-16.667zm-97.547 66.483c.634-1.391 1.447-2.528 1.805-2.528 2.125 0 7.85 4.936 13.785 11.888l6.816 7.983 3.611-1.584c17.99-7.891 23.066-8.975 23.066-4.931 0 2.059-1.882 5.135-10.617 17.355-1.59 2.223-1.462 2.449 5.336 9.477 14.306 14.794 12.574 17.111-9.114 12.192-5.996-1.36-10.965-2.367-11.04-2.236-.075.131-1.602 3.605-3.396 7.72-4.81 11.036-8.833 16.96-11.518 16.96-3.304 0-4.686-4.056-5.285-15.512l-.525-10.025-9.218-1.096c-10.81-1.285-13.46-2.429-13.46-5.806 0-2.755 6.053-6.744 16.257-10.708 4.838-1.879 5.697-2.573 5.258-4.242-.29-1.097-1.063-6.581-1.718-12.187-.906-7.727-.916-10.804-.043-12.72zm10.517 8.427c-3.613-3.83-6.965-6.965-7.447-6.965-1.276 0-1.072 5.257.605 15.464.813 4.938 1.485 9.53 1.495 10.204.008.674-4.633 3.417-10.316 6.098-5.681 2.681-10.648 5.385-11.034 6.01-1.051 1.703 3.222 2.955 13.104 3.84l8.761.785.588 11.024c.323 6.064 1.063 11.875 1.644 12.915.954 1.706 1.35 1.427 4.083-2.88 1.663-2.624 4.514-8.318 6.337-12.653 2.267-5.396 3.842-7.885 4.992-7.894.926-.007 6.313 1.108 11.973 2.48 11.324 2.743 13.78 3.005 13.78 1.465 0-.566-3.64-4.718-8.088-9.228-9.222-9.348-9.213-7.165-.088-19.796 2.91-4.027 4.889-7.457 4.398-7.621-.49-.162-5.34 1.561-10.779 3.83-13.265 5.539-13.69 5.607-15.735 2.483-.937-1.427-4.659-5.73-8.273-9.561zm150.295 3.944c13.31-4.049 28.938 4.983 28.938 16.725 0 8.228-4.757 13.27-12.521 13.27-2.811 0-4.414-.773-7.033-3.392-3.544-3.543-4.17-6.403-2.414-11.021 1.986-5.224 9.966-5.894 12.186-1.023 1.345 2.954-.265 7.455-2.668 7.455-1.828 0-1.878-.446-.33-2.925.931-1.492.905-2.242-.123-3.479-1.667-2.009-2.944-1.991-5.225.074-4.293 3.885-.291 11.318 6.092 11.318 5.31 0 9.043-3.817 9.043-9.246 0-11.949-16.448-19.578-28.858-13.388-3.792 1.892-6.06 2.158-6.06.712 0-1.054 4.952-3.856 8.973-5.08zm-43.89 36.561c5.056-.895 21.797.461 29.266 2.371 16.87 4.315 33.914 16.142 42.87 29.749 18.531 28.15 14.431 66.197-9.76 90.606-15.007 15.143-34.374 23.291-55.458 23.334-15.012.03-28.477-3.465-46.325-12.026-14.815-7.105-101.76-57.431-101.76-58.901 0-.696 3.477-2.485 7.726-3.975 13.515-4.74 34.29-17.454 55.123-33.739 26.276-20.539 49.272-32.374 69.838-35.94 3.292-.571 7.108-1.236 8.48-1.479zm19.57 3.491c-15.125-2.104-29.72-.066-47.005 6.565-14.855 5.697-27.192 13.205-48.885 29.745-21.297 16.238-38.835 27.276-51.296 32.282-3.898 1.566-7.326 3.088-7.62 3.38-.51.511 75.282 44.492 91.838 53.292 30.767 16.355 58.347 18.65 82.781 6.887 15.624-7.521 26.218-18.12 33.945-33.961 13.104-26.864 8.351-58.026-11.857-77.745-11.035-10.767-26.472-18.299-41.901-20.445zm-31.015 28.136c2.727-3.961 5.245-7.216 5.592-7.233.346-.018 6.182 2.644 12.969 5.914 13.612 6.561 29.597 12.218 40.149 14.209 3.773.712 7.091 1.893 7.372 2.625.814 2.12-14.993 23.362-34.644 46.558a4893.955 4893.955 0 0 0-13.463 15.962c-3.219 3.841-6.975 7.597-8.347 8.347-5.781 3.159-15.71.188-20.541-6.147-9.65-12.652-6.312-27.64 6.158-27.64 9.618 0 18.539 8.263 20.015 18.538l.674 4.697 14.02-16.855c7.711-9.27 15.463-18.726 17.227-21.013l3.208-4.156-3.26-.684c-9.267-1.943-29.086-9.274-39.958-14.78l-12.289-6.224-3.408 4.526c-1.874 2.488-10.156 12.541-18.405 22.34-8.249 9.798-16.005 19.208-17.234 20.911-2.898 4.011-5.844 5.59-10.516 5.634-5.433.051-9.617-2.037-14.301-7.135-7.717-8.398-9-19.33-2.976-25.353 2.766-2.766 4.156-3.393 7.523-3.393 8.14 0 17.787 7.763 20.067 16.151a538.301 538.301 0 0 0 1.562 5.648c.229.785 3.349-2.132 7.472-6.983 12.201-14.354 30.164-36.961 35.334-44.464zm14.646.322c-3.928-1.978-7.49-3.573-7.915-3.543-.425.03-2.735 2.803-5.132 6.162-5.102 7.149-5.5 6.445 7.339 12.953 10.293 5.216 22.61 9.935 34.158 13.086l9.203 2.511 5.089-6.997c2.8-3.848 4.943-7.131 4.764-7.294-.18-.164-4.367-1.29-9.305-2.504-10.241-2.515-27.694-9.082-38.201-14.374zm-69.573 35.722c-4.329-3.302-11.001-4.22-14.148-1.945-1.213.877-2.63 3.131-3.148 5.007-3.87 14.017 16.294 31.027 23.982 20.23 4.465-6.271 1.337-17.173-6.686-23.292zm57.493 21.715c-3.598-2.022-8.886-2.693-11.843-1.504-.698.281-1.933 1.795-2.744 3.364-5.015 9.698 4.443 24.929 15.575 25.082 3.508.048 4.735-.453 6.699-2.735 2.079-2.417 2.347-3.568 1.989-8.519-.499-6.9-3.926-12.456-9.676-15.688zm-56.6 62.595c3.894-2.374 8.099-2.429 12.519-.166 3.714 1.901 7.068 7.227 7.068 11.222 0 3.995-3.354 9.321-7.068 11.222-8.993 4.604-18.87-1.224-18.87-11.134 0-5.256 1.76-8.345 6.352-11.144zm12.814 3.971c-3.6-3.219-7.17-3.637-11.409-1.336-5.695 3.091-6.606 10.723-1.847 15.482 3.973 3.973 8.828 3.982 13.256.025 2.678-2.393 3.237-3.614 3.237-7.086 0-3.472-.559-4.693-3.237-7.085zm74.114 12.098c4.092-1.251 8.434-.416 11.161 2.145 6.213 5.839 2.498 18.285-7.654 25.639l-3.769 2.731 16.591 6.365c9.127 3.501 23.552 8.778 32.057 11.727 8.505 2.95 15.792 5.685 16.192 6.08 1.395 1.376-1.384 8.309-4.884 12.183-4.385 4.854-7.444 5.757-23.82 7.028-14.357 1.115-18.415.437-18.415-3.079 0-2.561 4.441-5.323 12.969-8.068 3.567-1.148 7.86-2.932 9.541-3.964 3.506-2.153 6.258-6.562 4.855-7.776-.51-.442-5.641-2.506-11.403-4.588-26.967-9.748-43.479-16.653-45.642-19.089-6.363-7.167 1.139-23.948 12.221-27.334zm9.141 4.536c-1.411-1.411-3.371-2.547-4.357-2.526-5.03.109-13.062 6.582-15.198 12.247-2.975 7.891.241 14.35 6.629 13.314 6.921-1.123 13.568-8.451 14.831-16.347.572-3.577.319-4.463-1.905-6.688zm52.037 51.795c-.23-.229-3.171-1.274-6.536-2.321l-6.118-1.904-1.213 2.927c-1.69 4.081-6.149 7.136-14.887 10.2-15.359 5.385-15.399 6.967-.154 6.067 15.951-.943 20.96-2.143 24.752-5.935 2.9-2.899 5.228-7.961 4.156-9.034zm-155.37-14.204 5.184-16.212h26.297c14.463 0 26.297.337 26.297.749s-4.878 9.84-10.84 20.951l-10.842 20.201h15.861c13.099 0 15.959.258 16.428 1.48 1.119 2.918-27.813 37.67-46.36 55.682-14.261 13.852-21.772 17.477-23.538 11.359-.453-1.565 1.903-7.214 8.392-20.134 8.61-17.137 11.991-25.051 11.991-28.06 0-1.108-3.162-1.371-16.46-1.371-12.409 0-16.462-.303-16.462-1.233 0-.68 1.996-7.077 4.434-14.217 2.439-7.141 6.766-20.278 9.619-29.195zm52.79-12.688c0-.292-10.223-.531-22.717-.531H89.832l-17.917 54.84 15.961.265c15.757.262 15.966.294 16.284 2.536.501 3.526-3.432 14.154-9.591 25.92-9.778 18.674-11.43 22.342-10.486 23.286 2.442 2.442 18.66-11.67 35.653-31.025 11.51-13.108 26.502-31.777 26.502-32.999 0-.526-6.866-.922-15.962-.922-9.167 0-15.963-.395-15.963-.926 0-.51 3.528-7.357 7.839-15.215 8.42-15.347 13.112-24.375 13.112-25.229zm61.279 94.108c13.672-6.324 25.264 11.103 13.977 21.014-2.871 2.521-4.355 3.068-8.314 3.068-13.745 0-18.058-18.349-5.663-24.082zm12.796 5.14c-4.621-5.071-10.838-4.85-15.076.538-2.513 3.193-2.706 6.421-.627 10.443 3.043 5.883 10.689 6.894 15.53 2.052 3.917-3.916 3.983-8.852.173-13.033zm-69.771 8.916c7.976-4.864 24.356-.449 30.669 8.266 5.436 7.505 4.758 13.919-1.949 18.434-7.002 4.713-20.739 1.952-28.582-5.745l-4.163-4.087-1.123 8.801c-2.561 20.069-4.06 34.338-4.643 44.217-.748 12.673-1.22 15.223-2.722 14.723-1.4-.467-1.225-6.74.766-27.283 2.248-23.212 6.066-50.714 7.382-53.173.653-1.218 2.616-3.087 4.365-4.153zm19.261 3.101c-4.675-2.264-13.717-2.741-17.08-.901-7.651 4.185-5.32 13.93 4.834 20.208 11.576 7.157 26.598 2.717 24.127-7.13-.874-3.481-7.1-9.863-11.881-12.177zm19.932 52.865c2.825-2.48 4.328-3.036 8.166-3.018 2.939.014 5.506.669 6.841 1.746 2.725 2.198 5.345 7.389 5.345 10.59 0 2.264.298 2.433 3.384 1.932 4.366-.708 9.726 1.087 12.99 4.351 2.047 2.047 2.581 3.556 2.581 7.284 0 7.992-6.768 15.028-17.43 18.116-4.614 1.336-20.112 2.928-21.886 2.247-2.381-.914-5.699-12.792-6.309-22.588-.651-10.48 1.046-16.031 6.318-20.66zm14.291 2.367c-1.605-1.708-3.345-2.414-5.949-2.414-8.259 0-12.565 7.84-11.652 21.211.308 4.522 1.431 10.689 2.493 13.707l1.932 5.487 6.376-.312c8.655-.423 17.62-2.758 21.861-5.692 10.61-7.341 8.814-19.936-2.839-19.916-2.565.005-5.552.226-6.639.494-1.724.424-2.058-.187-2.643-4.833-.438-3.476-1.456-6.152-2.94-7.732zm-17.882 96.387c7.956-.364 19.51-.744 25.676-.845l11.21-.185 1.574 3.741c.866 2.058 4.046 10.7 7.068 19.205 3.022 8.505 7.323 20.075 9.559 25.711 2.235 5.636 3.757 10.554 3.381 10.93-.376.376-7.66.871-16.186 1.101-11.223.301-15.636.763-15.985 1.673-.706 1.836 3.8 11.963 10.295 23.138 10.002 17.21 11.258 19.702 11.277 22.376.045 6.561-5.764 5.816-16.189-2.076-12.983-9.829-57.32-57.3-56.324-60.307.23-.697 6.078-1.332 16.059-1.742 8.633-.356 15.848-.805 16.031-.997.185-.194-4.783-9.035-11.038-19.647-10.183-17.276-11.991-20.735-11.124-21.262.137-.084 6.759-.449 14.716-.814zm36.051 4.706-1.084-2.743-10.251.203c-5.637.112-15.989.449-23.001.749l-12.752.544 11.484 19.455c6.316 10.7 11.492 20.016 11.503 20.701.014.807-1.649 1.293-4.717 1.379-2.607.072-9.881.408-16.166.748l-11.427.617 9.381 10.974c22.136 25.897 49.575 51.38 55.324 51.38 1.689 0-.085-4.653-4.957-13.008-12.488-21.409-18.722-35.937-16.133-37.59.653-.416 7.773-.988 15.822-1.268 8.05-.281 14.896-.773 15.214-1.092.317-.32-.598-3.462-2.034-6.984-1.434-3.522-5.424-14.259-8.866-23.862-3.441-9.602-6.745-18.693-7.34-20.203zm-69.702 100.498c4.109-1.787 5.996-1.807 10.07-.104 6.774 2.831 10.001 10.34 7.26 16.898-3.893 9.321-17.826 10.315-22.951 1.64-3.643-6.168-.747-15.667 5.621-18.434zm9.74 3.027c-3.332-1.723-4.51-1.783-8.014-.408-9.603 3.768-6.844 18.848 3.45 18.848 10.641 0 13.997-13.562 4.564-18.44zm618.369-83.822c-12.755-2.667-25.474-.993-37.911 4.993-18.84 9.065-31.944 25.985-38.164 49.275-2.312 8.658-2.558 11.366-2.55 28.04.008 16.204.393 20.649 3.148 36.415 3.977 22.742 5.861 46.212 4.511 56.153-.792 5.832-.732 7.17.299 6.774 1.892-.726 70.148-43.749 80.643-50.829 12.584-8.491 27.998-24.112 32.612-33.049 10.888-21.093 11.477-43.454 1.664-63.34-8.307-16.829-26.026-30.618-44.252-34.432zm-17.99 20.499c1.539-2.22 3.405-4.036 4.147-4.036 2.284 0 11.184 18.83 25.416 53.768 9.374 23.011 9.697 25.46 4.117 31.041-7.787 7.788-21.436 7.998-28.08.432-3.753-4.275-4.027-8.719-.829-13.425 4.18-6.15 15.435-9.649 22.792-7.084 1.771.618 3.322 1.007 3.446.869.253-.286-17.437-42.916-18.073-43.551-.222-.222-5.691 4.714-12.155 10.97-6.463 6.257-15.336 13.802-19.718 16.768-4.381 2.966-8.318 5.697-8.748 6.069-.43.372.62 3.782 2.331 7.577 8.843 19.61 19.899 48.273 19.899 51.587 0 12.493-23.042 18.482-32.623 8.48-2.215-2.311-2.794-3.847-2.794-7.41 0-3.982.471-4.935 4.114-8.334 5.796-5.405 15.104-7.554 21.761-5.023 1.416.538 2.558.579 2.558.091 0-1.793-16.509-40.671-21.974-51.75-5.07-10.278-5.486-11.589-4.058-12.773.874-.726 5.335-4.09 9.912-7.477 9.932-7.347 24.661-21.163 28.559-26.789zm28.454 64.297c-6.01-3.107-15.54-1.198-20.446 4.097-8.516 9.188 5.971 19.406 19.078 13.454 9.202-4.178 9.899-13.138 1.368-17.551zm-41.102 39.103c-6.133-4.567-18.552-2.558-23.563 3.812-2.701 3.436-2.75 6.462-.156 9.761 4.318 5.488 15.627 6.157 22.888 1.351 6.273-4.151 6.633-10.606.831-14.924zm23.106-89.621c-.026-.745-1.484-4.048-3.242-7.34l-3.194-5.986-11.972 12.036c-6.584 6.618-15.641 14.668-20.126 17.888l-8.153 5.852 3.034 6.056c1.669 3.33 3.2 6.236 3.401 6.457.573.628 11.166-6.629 18.851-12.917 8.766-7.169 21.466-20.252 21.401-22.046zm223.74-163.43c-7.953-2.209-16.192-.704-21.065 3.85-2.521 2.353-3.097 3.678-3.097 7.113 0 3.509.573 4.761 3.397 7.425 8.538 8.052 26.302 6.658 31.002-2.433 3.001-5.803-2.052-13.683-10.237-15.955zM961.282 55.628c-1.156-.234-6.928-1.506-12.826-2.827-7.008-1.569-10.725-2.021-10.724-1.303 0 1.547 3.562 10.851 7.208 18.833l3.089 6.763 3.273-5.765c1.802-3.17 5.257-7.904 7.678-10.52 4.024-4.347 4.222-4.793 2.302-5.181zM525.664 67.54c-3.931-2.033-12.578-1.827-17.42.415-10.146 4.697-13.173 13.617-6.508 19.18 3.902 3.258 8.2 4.333 14.491 3.624 8.76-.988 16.461-7.413 16.461-13.734 0-3.26-3.112-7.463-7.024-9.485zm-47.165 48.35c-8.275-3.757-19.038-1.562-25.065 5.112-4.392 4.859-4.76 9.313-1.095 13.266 3.256 3.514 6.483 4.63 13.321 4.603 9.24-.036 17.996-5.55 19.72-12.418.921-3.665-2.185-8.43-6.881-10.563z" fill="#000"/></svg>