<svg xmlns="http://www.w3.org/2000/svg" width="250" height="250" viewBox="0 0 1000 1000" fill="none"><path fill-rule="evenodd" clip-rule="evenodd" d="m0 243.373 72.081-37.012c13.145-6.75 29.245-2.97 38.014 8.923l43.344 58.787c5.693 7.721 3.115 18.702-5.418 23.083l-8.168 4.194a15.567 15.567 0 0 1-15.602-.802l-21.4-13.932a13.562 13.562 0 0 0-13.596-.699L53.71 304.166a13.566 13.566 0 0 0-7.355 11.458l-1.147 25.509a15.566 15.566 0 0 1-8.439 13.147l-8.168 4.194c-8.533 4.381-18.959.077-21.917-9.048L0 328.801v-6.487l8.587 26.496c2.577 7.951 11.664 11.703 19.1 7.884l8.168-4.194a13.564 13.564 0 0 0 7.355-11.457l1.147-25.509a15.567 15.567 0 0 1 8.44-13.148l35.544-18.251a15.565 15.565 0 0 1 15.602.803l21.4 13.932a13.562 13.562 0 0 0 13.596.698l8.168-4.194c7.437-3.817 9.683-13.388 4.722-20.117l-43.344-58.787c-8.187-11.103-23.218-14.631-35.49-8.329L0 245.622v-2.249zm0 167.37c4.812 3.433 8.428 9.684 9.533 17.957.753 5.645-.323 10.559-2.942 14.304A15.566 15.566 0 0 1 0 448.395v-2.21a13.572 13.572 0 0 0 4.952-4.327c2.28-3.261 3.298-7.649 2.598-12.893-.958-7.175-3.815-12.483-7.55-15.676v-2.546zm0 14.195c.456 1.337.815 2.864 1.046 4.596.425 3.187-.095 5.591-1.046 7.308v-11.904zm0 66.087.077.093c13.236 15.856 19.932 33.801 21.334 37.836.263.05.505.205.658.447l6.615 10.454c.035.056.065.114.088.174 2.226.955 4.072 2.759 5 5.128l5.448 13.914c1.649 4.212-.101 8.895-4.095 10.973l-4.429 2.305.739 1.886c2.876 7.348-.822 15.458-8.253 18.1-7.398 2.63-15.729-1.173-18.593-8.488L0 572.128v-5.572l6.48 16.551c2.468 6.302 9.647 9.58 16.022 7.314-1.609.571.493-.176 0 0 6.341-2.254 9.496-9.175 7.041-15.445l-.659-1.684-.11.057-8.588-22.273-5.289-13.508a12.443 12.443 0 0 0-1.932-3.314.991.991 0 0 1-.348-.41c-3.086-3.479-7.976-5.102-12.617-3.932v-2.085c3.763-.808 7.631-.059 10.798 1.881C8.232 524.1 4.65 517.17 0 510.193v-3.535c6.652 9.476 11.353 19.124 14.221 25.849l5.329-2.817c-1.24-3.589-7.384-20.231-19.55-35.502v-3.163zm0 226.964 27.108-5.691c5.946-1.248 11.777 2.56 13.025 8.506l9.318 44.382c1.248 5.945-2.56 11.777-8.506 13.025L0 786.807v-2.044l40.535-8.509a9 9 0 0 0 6.958-10.658l-9.317-44.382a9 9 0 0 0-10.657-6.959L0 720.032v-2.043zm0 15.456a3.996 3.996 0 0 1 2.35 2.86l1.767 8.416a1 1 0 0 1-1.957.411l-1.767-8.416A2.002 2.002 0 0 0 0 735.88v-2.435zm0 20.3 1.843-.387a4 4 0 0 1 4.736 3.093l1.218 5.799.014.072a.274.274 0 0 1 .009.039l1.414 6.735a.999.999 0 1 1-1.957.411l-.725-3.455a4.006 4.006 0 0 1-1.848.935L0 767.975v-2.044l4.293-.901a2.001 2.001 0 0 0 1.547-2.369l-1.218-5.8a2 2 0 0 0-2.368-1.546L0 755.788v-2.043zm0 78.384a7.86 7.86 0 0 1 .141-.815c.538-2.364 2.067-3.97 3.764-5.374 7.575-6.269 28.575-16.2 31.555-17.324 1.66-.626 3.387-.413 5.017.405 2.221 1.116 4.269 3.4 5.617 6.009 1.125 2.175 1.761 4.569 1.661 6.665-.111 2.302-1.084 4.264-3.16 5.364-1.759.932-11.062 6.16-16.882 9.043-.56.276-.797.959-.505 1.511l4.07 7.681c.264.498.875.706 1.364.424 5.001-2.885 11.818-7.674 17.472-9.641 1.45-.505 2.886-.231 4.221.611 1.731 1.091 3.301 3.202 4.434 5.575 1.107 2.318 1.801 4.875 1.884 6.881.065 1.584-.282 2.859-.949 3.592-2.631 2.888-12.695 7.865-18.29 10.461a.48.48 0 0 0-.217.677c2.307 3.949 6.152 10.496 7.896 13.334 1.104 1.797 1.415 3.396 1.197 4.823-.218 1.432-.978 2.712-2.125 3.859-2.041 2.041-5.366 3.672-8.586 5.157-3.192 1.473-5.364 1.605-6.96 1.098-1.271-.404-2.217-1.215-3.023-2.222-.697-.87-1.286-1.892-1.944-2.855-2.367-3.464-19.863-35.744-25.297-45.998C.904 838.331.199 836.109 0 834.269v-2.14zm0 106.236 1.265 5.589a1.961 1.961 0 0 0 1.185 1.387l6.916 2.763c3.048 1.218 3.376 5.401.556 7.081l-6.4 3.808a1.96 1.96 0 0 0-.953 1.556l-.491 7.431A3.903 3.903 0 0 1 0 971.208v-2.905a1.96 1.96 0 0 0 .082-.455l.491-7.431a3.96 3.96 0 0 1 1.926-3.142l6.4-3.808c1.396-.831 1.233-2.903-.275-3.505l-6.916-2.763A3.955 3.955 0 0 1 0 945.885v-7.52zm185.909 61.655-3.65-14.532c-5.051-20.111 7.156-40.509 27.266-45.561 20.111-5.05 40.509 7.157 45.561 27.267l8.245 32.826h-2.062l-8.123-32.338c-4.782-19.04-24.094-30.597-43.133-25.815-19.04 4.781-30.597 24.094-25.814 43.133l3.772 15.02h-2.062zm165.972 0c-3.316-7.919-6.09-18.099-7.79-25.553-.887 3.567-2.351 6.788-5.545 11.077-2.524 3.385-6.663 5.28-10.7 4.4-2.662-.58-5.31-2.365-7.398-5.813-2.012-3.32-1.91-9.081-.415-15.395 2.171-9.171 7.168-19.536 11.936-24.925 4.062-4.59 9.518-4.806 13.83-3.371 2.872.955 5.218 2.655 6.329 4.229 11.228 13.866 23.206 43.571 25.08 54.529.047.275.083.549.11.822h-2.011c-.02-.161-.043-.323-.071-.485-1.843-10.78-13.638-40.01-24.682-53.632-.015-.019-.03-.038-.043-.058-.923-1.324-2.928-2.704-5.343-3.508-3.645-1.212-8.268-1.08-11.701 2.8-4.6 5.199-9.393 15.211-11.488 24.059-1.349 5.699-1.636 10.902.179 13.899 1.739 2.87 3.898 4.412 6.114 4.895 3.281.715 6.619-.889 8.67-3.642 4.322-5.8 5.277-9.538 6.093-15.128a1 1 0 0 1 1.971-.049c1.442 7.342 4.787 21.133 9.001 30.849h-2.126zm362.477 0a3.328 3.328 0 0 1-.057-1.111 3.307 3.307 0 0 1-2.156-1.259l-13.621-17.706a3.303 3.303 0 0 1-.664-2.406 3.302 3.302 0 0 1-2.155-1.258l-13.621-17.706a3.313 3.313 0 0 1 .605-4.644l17.706-13.621a3.313 3.313 0 0 1 4.644.606l13.621 17.705c.548.713.761 1.578.664 2.406a3.295 3.295 0 0 1 2.155 1.259L735.1 979.99c.549.713.762 1.579.664 2.407a3.299 3.299 0 0 1 2.156 1.259l12.59 16.364h-2.524l-11.651-15.145a1.312 1.312 0 0 0-1.84-.24l-17.705 13.621a1.313 1.313 0 0 0-.294 1.764h-2.138zm91.67 0c-5.916-1.639-9.417-7.745-7.825-13.687l37.788-141.028c1.601-5.972 7.739-9.516 13.712-7.916l99.504 26.662c5.972 1.6 9.516 7.738 7.916 13.712l-32.76 122.257h-2.07a.723.723 0 0 0 .01-.039l32.888-122.736c1.314-4.906-1.596-9.948-6.502-11.262l-99.504-26.662a9.196 9.196 0 0 0-11.262 6.502l-37.788 141.028a9.196 9.196 0 0 0 6.502 11.262l7.117 1.907h-7.726zM1000 971.164c-1.375.773-3.191.739-4.567-.467l-5.6-4.91a1.96 1.96 0 0 0-1.774-.426l-7.219 1.829c-3.182.807-5.907-2.385-4.612-5.401l2.939-6.842a1.965 1.965 0 0 0-.143-1.82l-3.971-6.3c-1.75-2.776.444-6.354 3.712-6.055l7.416.681a1.963 1.963 0 0 0 1.687-.699l4.764-5.723c2.1-2.522 6.182-1.541 6.905 1.66l.463 2.039v7.264a3.92 3.92 0 0 1-.765-1.598l-1.648-7.263c-.359-1.586-2.379-2.07-3.419-.822l-4.764 5.724a3.963 3.963 0 0 1-3.405 1.41l-7.416-.681c-1.618-.148-2.704 1.623-1.838 2.997l3.971 6.3a3.958 3.958 0 0 1 .289 3.674l-2.939 6.844c-.641 1.492.708 3.072 2.282 2.673l7.219-1.829a3.96 3.96 0 0 1 3.584.86l5.6 4.91c1.215 1.064 3.122.286 3.249-1.315v3.286zm0-136.892a9.399 9.399 0 0 1 0-2.149v2.149zm0-47.477-51.426 10.795-15.758 24.133c-.974 1.491-3.266 1.061-3.632-.683l-15.474-73.709c-1.248-5.946 2.56-11.777 8.505-13.025L1000 717.977v2.043l-77.374 16.243a9.001 9.001 0 0 0-6.959 10.658l15.474 73.708 15.758-24.132c.29-.444.745-.755 1.264-.864L1000 784.75v2.045zm0-18.833-6.911 1.451a4 4 0 0 1-4.737-3.093l-5.447-25.946a4 4 0 0 1 3.093-4.736l11.556-2.426a3.981 3.981 0 0 1 2.446.259v2.487a1.998 1.998 0 0 0-2.035-.789l-11.556 2.426a2 2 0 0 0-1.546 2.368l5.447 25.946a1.999 1.999 0 0 0 2.368 1.546l7.322-1.537v2.044zm0-12.187-3.649.767a1.001 1.001 0 0 1-.411-1.958l4.06-.852v2.043zm0-183.403-10.153-25.933c-2.877-7.348.821-15.458 8.252-18.1-1.632.579.521-.185 0 0 .628-.224 1.263-.4 1.901-.532v2.081a12.24 12.24 0 0 0-1.221.365c-6.341 2.255-9.496 9.176-7.041 15.446L1000 566.8v5.572zm0-62.035c-3.872-5.827-8.49-11.693-13.883-16.853-13.367-12.788-31.531-21.225-54.957-13.746-23.458 7.488-33.185 24.315-36.395 41.882-3.002 16.434-.339 33.511 2.183 44.324 1.773-3.389 4.953-6.022 9.037-7.028 7.723-1.903 15.793 2.759 18.01 10.405l11.045 38.104c2.229 7.689-2.267 15.483-10.033 17.397-2.977.733-6.006.491-8.731-.521l3.758 7.652a10.465 10.465 0 0 0 8.711 5.83l46.134 3.012a9.318 9.318 0 0 1 5.748-5.234c4.909-1.567 10.166 1.146 11.733 6.055 1.567 4.909-1.146 10.165-6.055 11.733-4.909 1.567-10.166-1.146-11.733-6.055l-.013-.04-49.748-3.002a12.468 12.468 0 0 1-9.644-5.562l-16.86-25.478c-3.494-.58-6.5-3.121-7.514-6.621l-4.134-14.262c-.772-2.661-.255-5.368 1.214-7.449a1.223 1.223 0 0 1-.011-.104l-.665-12.353a1.002 1.002 0 0 1 .878-1.047l.331-.04c-1.358-4.199-6.788-22.438-5.75-42.74 1.191-23.315 10.87-49.324 44.76-60.143 33.873-10.812 57.455 4.564 72.563 22.665l.021.024v3.169c-.508-.64-1.027-1.278-1.556-1.912-14.664-17.569-37.542-32.536-70.42-22.04-32.861 10.489-42.216 35.731-43.371 58.34-1.057 20.686 4.716 39.192 5.776 42.389l5.024-.615.054-.005c.059-.432.137-.857.235-1.277a1.007 1.007 0 0 1-.142-.318c-2.706-10.745-6.1-29.561-2.802-47.613 3.328-18.217 13.426-35.662 37.754-43.428 24.271-7.747 43.099.958 56.947 14.207 4.751 4.545 8.912 9.627 12.501 14.755v3.543zm0-61.928a16.036 16.036 0 0 1-4.011 1.136c-8.359 1.234-17.237-3.994-19.973-14.602-1.817-7.042-1.386-13.218.921-18.025 2.323-4.84 6.46-8.035 11.273-8.903 4.222-.761 8.317.241 11.79 2.707v2.542c-3.353-2.853-7.41-4.006-11.435-3.28-4.139.746-7.76 3.498-9.825 7.8-2.055 4.281-2.517 9.953-.787 16.66 2.495 9.674 10.453 14.198 17.744 13.123a13.978 13.978 0 0 0 4.303-1.368v2.21zm0-11.517a7.884 7.884 0 0 1-.406.646c-1.221 1.746-3.031 2.784-5.018 3.077-3.924.579-8.752-1.77-10.372-8.05-1.305-5.059-.832-8.843.383-11.374 1.208-2.517 3.187-3.908 5.26-4.282 3.249-.586 7.881 1.369 10.153 7.954v12.029zm0-108.043-15.848-48.904c-4.555-14.056 1.755-29.342 14.899-36.092l.949-.487v2.248l-.035.019c-12.272 6.302-18.164 20.572-13.911 33.696L1000 322.361v6.488zM924.381.019l-.146.544c-4.307 16.073-20.828 25.611-36.901 21.305L806.119.107a13.742 13.742 0 0 1-.307-.087h7.71l74.33 19.916c15.005 4.02 30.43-4.884 34.451-19.89l.007-.026h2.071zm-173.772 0 .932 1.212c.548.713.761 1.578.664 2.407a3.298 3.298 0 0 1 2.155 1.258L767.981 22.6a3.314 3.314 0 0 1-.605 4.645L749.67 40.867a3.313 3.313 0 0 1-4.644-.606l-13.621-17.706a3.306 3.306 0 0 1-.664-2.407 3.298 3.298 0 0 1-2.155-1.258L714.965 1.186a3.304 3.304 0 0 1-.576-1.166h2.202l13.58 17.652a1.312 1.312 0 0 0 1.84.238l17.705-13.62a1.311 1.311 0 0 0 .24-1.84l-1.87-2.43h2.523zm-373.317 0c1.239 10.355-11.733 19.608-20.048 9.859-1.917-2.248-3.762-5.761-5.463-9.858h2.124c1.521 3.544 3.158 6.564 4.861 8.56 6.956 8.156 17.768.122 16.509-8.56h2.017zm-113.969 0 .462 1.838c1.469 5.849-4.179 10.972-9.857 8.94-5.026-1.796-10.679-.023-13.846 4.274-5.022 6.812-14.346 9.153-21.99 5.524-4.822-2.29-10.642-1.182-14.222 2.777-4.044 4.473-11.443 2.625-12.912-3.223L185.902.02h2.062l4.934 19.644c1.079 4.297 6.516 5.654 9.488 2.367 4.17-4.61 10.948-5.909 16.564-3.242 6.786 3.223 15.064 1.143 19.522-4.904 3.689-5.003 10.276-7.062 16.13-4.97 4.172 1.492 8.322-2.272 7.243-6.57L261.261.02h2.062zM589.288 1000.02l-1.538-17.843a1 1 0 0 1 .671-1.032l23.387-8.042a.998.998 0 0 1 .696.017l64.558 25.771a1 1 0 0 1 .629.929v.2h-3.608l.182-.092-62.157-24.813-20.574 7.075 4.062 1.726 37.873 16.104h-5.105l-38.479-16.358 1.41 16.358h-2.007zM677.691.02v79.306c0 .163-.04.32-.112.46v54.709a1 1 0 0 1-.65.937l-129.979 48.58a1 1 0 0 1-1.266.34l-60.386-29.355a1 1 0 0 1-.563-.9v-7.075c-.25.036-.504.054-.763.054-2.239 0-4.143-1.364-5.441-3.315-1.303-1.959-2.077-4.607-2.077-7.482s.774-5.523 2.077-7.481c1.298-1.952 3.202-3.316 5.441-3.316.259 0 .513.018.763.054v-13.823c0-.029.001-.057.004-.085l-.002-.041a1 1 0 0 1 .554-.914l108.859-54.27L589.289.02h2.007l4.905 56.888a1 1 0 0 1-.55.98l-107.583 53.635 57.728 26.069 110.398-50.253-53.987-23.398-98.259 47.581 6.875 3.011a.559.559 0 0 1 .043-.019l27.448-11.303a.992.992 0 0 1 .525-.065l50.34 7.362c.05.007.099.018.146.032l13.479-5.979-50.359-6.864a.998.998 0 0 1-.302-1.89l47.145-22.927a.998.998 0 0 1 .825-.022l38.745 16.283a1.001 1.001 0 0 1-.694 1.874 1.02 1.02 0 0 1-.252.16l-91.637 40.649-.035.015a1 1 0 0 1-.843.019l-44.239-19.374a1 1 0 0 1-.034-1.816l100.624-48.727a1 1 0 0 1 .834-.018l55.012 23.843-2.979-74.599L628.392.02h5.112l22.048 9.373L674.058.02h3.633zm-79.324 1000-.408-5.585a1 1 0 0 1 1.386-.995l15.601 6.58H609.8l-5.842-2.463 1.629 2.463h-2.397l-2.556-3.865-.562-.237.3 4.102h-2.005zM614.976.02l31.837 13.427a1 1 0 0 1 .609.855l3.875 57.8a1 1 0 0 1-1.394.986l-47.145-20.345a1.001 1.001 0 0 1-.601-.846L598.368.02h2.005l3.734 51.127 45.085 19.456-1.721-25.67a1.004 1.004 0 0 1-.234-.239L630.159 20.13v17.33a1 1 0 0 1-1.834.552L603.198.02h2.398l22.563 34.113V16.94a.998.998 0 0 1 1.821-.57l17.239 24.795-1.751-26.114L609.829.02h5.147zm375.226 418.857c-1.402.253-2.864 1.204-3.812 3.179-.963 2.007-1.467 5.288-.249 10.009 1.377 5.339 5.279 6.994 8.143 6.572 1.475-.218 2.784-.976 3.671-2.245.88-1.258 1.57-3.353 1.137-6.594-1.287-9.636-6.475-11.356-8.89-10.921zM733.23 19.497a1.312 1.312 0 0 0-.24 1.838l13.621 17.706a1.313 1.313 0 0 0 1.84.24l17.705-13.62a1.312 1.312 0 0 0 .24-1.84L752.775 6.114a1.312 1.312 0 0 0-1.839-.24L733.23 19.498zM99.155 959.058c1.788-1.861 4.926-1.02 5.541 1.487l4.259 17.346c.593 2.416-1.622 4.586-4.027 3.942l-16.623-4.457c-2.405-.645-3.238-3.631-1.515-5.428l12.365-12.89zm1.443 1.385-12.364 12.889a1.273 1.273 0 0 0 .589 2.112l16.623 4.457a1.274 1.274 0 0 0 1.567-1.534l-4.259-17.346a1.274 1.274 0 0 0-2.156-.578zm404.269-19.715c-1.478-2.115-.043-5.03 2.536-5.147l17.842-.804c2.488-.112 4.184 2.482 3.084 4.717l-7.604 15.439c-1.1 2.233-4.191 2.469-5.618.43l-10.24-14.635zm1.64-1.146 10.238 14.635a1.274 1.274 0 0 0 2.186-.168l7.604-15.439a1.273 1.273 0 0 0-1.2-1.835l-17.842.804a1.274 1.274 0 0 0-.986 2.003zm196.958-418.495c-2.574-.183-3.936-3.134-2.403-5.21l10.607-14.371c1.478-2.003 4.562-1.688 5.606.573l7.21 15.627c1.043 2.26-.72 4.812-3.202 4.637l-17.818-1.256zm.142-1.995 17.816 1.255a1.273 1.273 0 0 0 1.246-1.803l-7.21-15.627a1.275 1.275 0 0 0-2.182-.223l-10.605 14.371a1.274 1.274 0 0 0 .935 2.027zM242.225 550.1c-2.255-1.256-2.238-4.506.03-5.738l15.694-8.524c2.187-1.19 4.849.403 4.837 2.893l-.089 17.21c-.013 2.49-2.69 4.055-4.865 2.844l-15.607-8.685zm.972-1.748 15.607 8.685a1.274 1.274 0 0 0 1.893-1.106l.089-17.21a1.274 1.274 0 0 0-1.882-1.125l-15.695 8.524a1.274 1.274 0 0 0-.012 2.232zm710.92-512.98c-2.442-.834-3.004-4.035-.991-5.651l13.929-11.18c1.941-1.558 4.842-.465 5.273 1.988l2.974 16.951c.429 2.453-1.927 4.468-4.282 3.664l-16.903-5.773zm.646-1.894 16.903 5.773a1.273 1.273 0 0 0 1.666-1.425l-2.974-16.953a1.274 1.274 0 0 0-2.051-.773l-13.929 11.18a1.273 1.273 0 0 0 .385 2.198zm-771.561 61.95c-1.362-2.194.232-5.025 2.812-5.001l17.861.173c2.489.026 4.041 2.709 2.822 4.879l-8.439 15c-1.22 2.17-4.32 2.238-5.634.123l-9.422-15.175zm1.7-1.056 9.422 15.175c.51.822 1.716.796 2.19-.048l8.439-15a1.274 1.274 0 0 0-1.098-1.898l-17.86-.174a1.273 1.273 0 0 0-1.093 1.944zm556.331 692.585-10.795-6.233a1 1 0 0 1 1-1.732l10.795 6.233 6.234-10.797a1 1 0 0 1 1.732 1l-6.234 10.797 10.797 6.233a1 1 0 0 1-1 1.732l-10.797-6.233-6.232 10.794a1 1 0 0 1-1.732-1l6.232-10.794zm-64.354 56.481-10.796-6.233a1 1 0 0 1 1-1.732l10.796 6.233 6.233-10.796a1 1 0 0 1 1.732 1l-6.233 10.796 10.796 6.233a1 1 0 0 1-1 1.732l-10.796-6.233-6.233 10.796a1 1 0 0 1-1.732-1l6.233-10.796zm84.403 18.337-10.796-6.233a1 1 0 0 1 1-1.732l10.796 6.233 6.233-10.795a1 1 0 0 1 1.732 1l-6.233 10.795 10.796 6.233a1 1 0 0 1-1 1.732l-10.796-6.233-6.233 10.797a1 1 0 0 1-1.732-1l6.233-10.797zM892.38 95.928l-10.998 2.715a1 1 0 0 1-.48-1.942l10.998-2.715c-2.911-13.943 5.469-27.818 19.164-31.73l-2.715-10.996a1 1 0 0 1 1.942-.48l2.715 10.996c13.942-2.912 27.818 5.47 31.73 19.164l10.997-2.715a1 1 0 0 1 .48 1.943l-10.998 2.714c2.913 13.942-5.468 27.819-19.164 31.731l2.715 10.996a1 1 0 0 1-1.942.48l-2.715-10.997c-13.942 2.912-27.818-5.469-31.729-19.165zM911.544 64.2c-12.624 3.644-20.35 16.435-17.7 29.305l7.284-1.797c-1.669-8.85 3.605-17.582 12.214-20.224l-1.798-7.284zm31.249 17.22c-3.645-12.624-16.437-20.35-29.307-17.7l1.798 7.284c8.851-1.67 17.583 3.605 20.224 12.215l7.285-1.798zm-17.222 31.25c12.625-3.645 20.351-16.438 17.701-29.308l-7.284 1.799c1.669 8.85-3.605 17.582-12.216 20.223l1.799 7.286zm-31.248-17.222c3.645 12.624 16.436 20.35 29.306 17.701l-1.798-7.285c-8.85 1.668-17.581-3.605-20.223-12.216l-7.285 1.8zm19.5-22.02c-7.539 2.373-12.159 10.023-10.75 17.799l6.137-1.516a1 1 0 0 1 .48 1.942l-6.137 1.516c2.372 7.539 10.021 12.159 17.797 10.75l-1.515-6.138a1 1 0 1 1 1.942-.48l1.515 6.138c7.54-2.372 12.16-10.021 10.751-17.798l-6.138 1.515a1.001 1.001 0 0 1-.48-1.942l6.138-1.514c-2.372-7.54-10.022-12.162-17.799-10.752l1.516 6.14a1.001 1.001 0 0 1-1.942.479l-1.515-6.138zm4.207 12.868a2.202 2.202 0 0 1 1.056 4.275 2.202 2.202 0 0 1-1.056-4.275zM447.61 461.12a1.002 1.002 0 0 1 .029-.6l18.761-50.856a.998.998 0 0 1 1.734-.259l32.797 43.159a.99.99 0 0 1 .203.567c.051.195.043.405-.029.6l-18.761 50.855a.998.998 0 0 1-1.734.259l-32.797-43.158a.99.99 0 0 1-.203-.567zm38.211-6.825 12.496-1.866-27.86-36.661 15.364 38.527zm-19.783-37.873L450.1 459.627l12.495-1.866 3.443-41.34zm-3.115 43.534-12.496 1.866 27.861 36.662-15.365-38.528zm19.783 37.87 15.938-43.203-12.495 1.866-3.443 41.337zm-18.078-40.367 19.161-2.861-15.654-39.254-3.507 42.115zm19.488-.667-19.161 2.861 15.655 39.255 3.506-42.116zm-116.199-7.662a19.862 19.862 0 0 0 1.673-.545c.467-.18.964-.313 1.463-.262 2.614.271 4.297 3.365 3.003 5.821-2.66 5.046-5.455 12.141-4.917 18.179l3.799 42.655c.951 10.671 8.644 19.211 18.291 23.915l.016.009c19.439 10.375 35.257 31.088 37.454 55.749 1.68 18.858-2.011 36.384-11.642 49.699-9.649 13.338-25.259 22.478-47.487 24.458-22.228 1.979-39.208-4.258-51.062-15.681-11.832-11.402-18.563-28.001-20.242-46.858-2.196-24.662 9.712-47.844 27.026-61.503l.015-.011c8.648-6.325 14.712-16.088 13.761-26.76l-3.799-42.655c-.538-6.037-4.543-12.528-8.051-17.024-1.71-2.19-.599-5.533 1.927-6.26.482-.138.992-.096 1.484-.001.367.071.953.163 1.809.247-1.599-3.673-3.25-7.088-4.544-9.48-1.659-3.068.348-6.997 3.82-7.305l34.004-3.029c3.444-.307 6.098 3.132 5.041 6.424a136.156 136.156 0 0 0-2.842 10.218zm-33.234 3.326c3.096.138 8.03.094 15.566-.577 7.589-.676 12.469-1.512 15.487-2.197a137.583 137.583 0 0 1 3.119-11.382c.625-1.948-.921-4.001-2.959-3.82l-34.005 3.029c-2.065.184-3.224 2.537-2.237 4.361 1.426 2.637 3.279 6.495 5.029 10.586zm2.578 22.706 3.799 42.655c1.013 11.363-5.352 21.803-14.57 28.551-16.796 13.263-28.365 35.773-26.232 59.723 1.634 18.34 8.13 34.506 19.638 45.596 11.485 11.068 27.958 17.047 49.496 15.129 21.538-1.919 36.695-10.715 46.044-23.639 9.367-12.948 12.904-30.008 11.271-48.348-2.134-23.958-17.507-44.07-36.379-54.15-10.256-5.004-18.369-14.158-19.382-25.523l-3.799-42.655c-.57-6.4 2.321-13.941 5.139-19.289.64-1.214-.147-2.765-1.438-2.899-.186-.019-.363.07-.538.138-1.491.575-6.724 2.248-19.883 3.42-13.16 1.172-18.606.45-20.176.148-.184-.035-.373-.093-.554-.041-1.248.359-1.747 2.026-.903 3.108 3.72 4.766 7.897 11.677 8.467 18.076zm32.035 183.22c-18.688 1.664-32.962-3.585-42.927-13.189-9.944-9.582-15.605-23.53-17.016-39.378a56.21 56.21 0 0 1 .407-13.317c.831-5.547 3.877-10.484 8.662-13.408 7.137-4.362 20.612-10.376 42.711-12.344 22.1-1.969 36.427 1.57 44.221 4.601 5.227 2.033 9.098 6.354 10.895 11.665a56.186 56.186 0 0 1 2.755 13.036c1.412 15.848-1.695 30.577-9.788 41.766-8.112 11.214-21.233 18.903-39.92 20.568zm-.178-1.992c17.997-1.603 30.665-8.949 38.477-19.748 7.83-10.824 10.782-25.085 9.417-40.416a54.191 54.191 0 0 0-2.657-12.572c-1.607-4.749-5.052-8.626-9.725-10.443-7.636-2.969-21.673-6.401-43.319-4.473-21.647 1.927-34.856 7.787-41.847 12.058-4.277 2.614-6.983 7.039-7.726 11.998a54.243 54.243 0 0 0-.393 12.843c1.366 15.331 6.792 28.846 16.411 38.116 9.598 9.249 23.365 14.24 41.362 12.637zm4.572-37.096c6.145-.548 11.577 3.996 12.124 10.14.548 6.145-3.996 11.577-10.14 12.124-6.145.547-11.577-3.997-12.124-10.14-.548-6.146 3.996-11.577 10.14-12.124zm.178 1.992c-5.045.449-8.776 4.909-8.326 9.954.449 5.045 4.909 8.776 9.954 8.326 5.045-.449 8.776-4.909 8.326-9.954-.449-5.045-4.909-8.776-9.954-8.326zm36.346-41.579a.999.999 0 1 1 1.95.44s-3.325 15.734-48.323 19.741c-9.599.855-17.403.853-23.741.329a1.001 1.001 0 0 1 .166-1.994c6.246.518 13.937.516 23.397-.327 21.759-1.938 33.487-6.588 39.766-10.788 5.921-3.962 6.785-7.401 6.785-7.401zm-76.151 34.133a5.887 5.887 0 1 1 1.043 11.727 5.887 5.887 0 0 1-1.043-11.727zm.177 1.992a3.887 3.887 0 1 0 .691 7.743 3.887 3.887 0 0 0-.691-7.743zm66.135-10.588a3.526 3.526 0 1 1 .625 7.024 3.526 3.526 0 0 1-.625-7.024zm.178 1.992a1.525 1.525 0 1 0 .27 3.038 1.525 1.525 0 0 0-.27-3.038zm-64.779-24.57a3.526 3.526 0 1 1 .625 7.024 3.526 3.526 0 0 1-.625-7.024zm.178 1.992a1.525 1.525 0 1 0 .27 3.038 1.525 1.525 0 0 0-.27-3.038zm48.68-7.249a6.38 6.38 0 0 1 6.918 5.786 6.381 6.381 0 0 1-5.786 6.918 6.38 6.38 0 0 1-6.918-5.786 6.38 6.38 0 0 1 5.786-6.918zm.178 1.992a4.38 4.38 0 0 0-3.972 4.748 4.381 4.381 0 0 0 4.748 3.972 4.38 4.38 0 0 0 3.972-4.748 4.38 4.38 0 0 0-4.748-3.972zM15.079 406.029a4.672 4.672 0 0 1 9.289 1.003l-1.361 12.613 6.222-1.138-2.426-13.271a4.672 4.672 0 0 1 9.191-1.679l2.429 13.288A4.673 4.673 0 0 1 40.096 426l1.956 10.701a4.67 4.67 0 1 1-9.19 1.68l-1.953-10.683-12.378 2.262a4.673 4.673 0 0 1-5.484-5.096l2.032-18.835zm4.931-2.154a2.67 2.67 0 0 0-2.942 2.369l-2.033 18.835a2.67 2.67 0 0 0 3.137 2.914l13.361-2.442a.999.999 0 0 1 1.163.804l2.133 11.666a2.672 2.672 0 0 0 5.256-.961l-2.133-11.666a1.002 1.002 0 0 1 .804-1.164l.578-.105a2.67 2.67 0 1 0-.961-5.256l-.578.106a1 1 0 0 1-1.163-.804l-2.606-14.255a2.67 2.67 0 1 0-5.255.961l2.605 14.255a.999.999 0 0 1-.804 1.163l-8.523 1.558a1 1 0 0 1-1.174-1.091l1.505-13.945a2.671 2.671 0 0 0-2.37-2.942zm27.72-1.621a4.67 4.67 0 0 1 3.755-5.435l15.771-2.883a4.671 4.671 0 0 1 1.68 9.191l-11.176 2.042.607 3.32c2.181-.604 4.598-.968 6.997-.846 2.55.129 5.37.828 7.803 2.689 2.501 1.914 4.156 4.723 4.868 8.24.881 4.346.091 8.207-2.019 11.273-2.035 2.956-5.016 4.771-7.901 5.741-2.875.965-6.008 1.217-8.765.708-2.509-.464-6.026-1.86-7.445-5.43a4.672 4.672 0 0 1 8.452-3.945c.126.052.344.123.689.187 1.078.199 2.604.124 4.093-.377 1.477-.496 2.564-1.286 3.181-2.181.541-.787.984-2.022.559-4.121-.332-1.638-.937-2.329-1.389-2.674-.52-.398-1.344-.716-2.601-.78-2.676-.136-5.902.958-7.667 2.024a4.672 4.672 0 0 1-7.01-3.159l-2.482-13.584zm4.114-3.468a2.672 2.672 0 0 0-2.147 3.108l2.483 13.584a2.672 2.672 0 0 0 4.008 1.807c2.025-1.222 5.642-2.47 8.803-2.309 1.536.078 2.786.478 3.714 1.188.889.68 1.72 1.823 2.134 3.866.523 2.582.005 4.379-.872 5.652-.919 1.335-2.41 2.345-4.191 2.943-1.786.6-3.656.713-5.093.448-.992-.183-1.48-.467-1.721-.664a.999.999 0 0 1-.279-.365 2.672 2.672 0 0 0-4.919 2.082c1.036 2.607 3.683 3.782 5.949 4.201 2.397.442 5.187.229 7.765-.637 2.584-.869 5.16-2.465 6.89-4.979 1.774-2.577 2.49-5.876 1.707-9.742-.631-3.116-2.062-5.471-4.124-7.048-2.022-1.547-4.414-2.165-6.689-2.281-2.505-.128-5.088.34-7.37 1.08a1 1 0 0 1-1.292-.772l-.987-5.403a1 1 0 0 1 .804-1.163l12.159-2.223a2.671 2.671 0 1 0-.96-5.255l-15.772 2.882zm38.099-6.987a4.674 4.674 0 0 1 4.826-1.912 4.674 4.674 0 0 1 3.613 3.727l5.822 31.853a4.672 4.672 0 0 1-9.191 1.68l-3.794-20.758-3.205 4.639a4.67 4.67 0 0 1-6.498 1.188 4.67 4.67 0 0 1-1.188-6.498l9.615-13.919zm4.405.044a2.669 2.669 0 0 0-2.759 1.093l-9.616 13.918a2.673 2.673 0 0 0 4.396 3.037l4.577-6.625a1 1 0 0 1 1.807.388l4.228 23.133a2.671 2.671 0 1 0 5.256-.96l-5.823-31.853a2.67 2.67 0 0 0-2.066-2.131zm94.234 377.506a.999.999 0 0 1 1.168-.797l31.578 5.969a.999.999 0 0 1 .797 1.168l-1.134 5.998 4.336.819c.542.103.899.626.797 1.169l-1.618 8.559a1 1 0 0 1-1.168.797l-13.047-2.466a1 1 0 0 1-.797-1.169l1.118-5.914-14.738-2.785-5.522 29.216 14.738 2.785 1.752-9.272-5.416-1.024a1 1 0 0 1-.797-1.168l1.351-7.147a1 1 0 0 1 1.169-.796l19.445 3.675c.542.103.899.626.797 1.168l-5.592 29.584a1.001 1.001 0 0 1-1.168.797l-8.144-1.54a.999.999 0 0 1-.797-1.168l1.212-6.413-2.938-.556-1.212 6.414a1 1 0 0 1-1.168.797l-23.849-4.508a1 1 0 0 1-.797-1.169l1.212-6.413-4.835-.914a.999.999 0 0 1-.796-1.168l6.926-36.647a1 1 0 0 1 1.169-.797l4.834.914 1.134-5.998zm1.779 1.354-1.133 5.998a1.002 1.002 0 0 1-1.169.797l-4.834-.914-6.556 34.682 4.835.914a.999.999 0 0 1 .797 1.168l-1.212 6.413 21.884 4.137 1.212-6.414a1.001 1.001 0 0 1 1.168-.797l4.903.927a1 1 0 0 1 .797 1.169l-1.212 6.413 6.178 1.168 5.221-27.619-17.48-3.303-.98 5.181 5.416 1.024c.543.102.9.624.797 1.168l-2.124 11.237a1 1 0 0 1-1.168.797l-16.703-3.157a.999.999 0 0 1-.797-1.168l5.894-31.182a.999.999 0 0 1 1.168-.796l16.703 3.157a1 1 0 0 1 .797 1.168l-1.118 5.914 11.081 2.095 1.247-6.594-4.336-.82a1 1 0 0 1-.797-1.168l1.134-5.998-29.613-5.597zm141.399-47.289a.997.997 0 0 1 1.168-.797l37.395 7.068a.998.998 0 0 1 .796 1.168l-1.133 5.998 4.336.819a1 1 0 0 1 .796 1.169l-2.945 15.581a1 1 0 0 1-1.168.797l-4.336-.82-.956 5.057 4.336.82c.543.102.9.624.797 1.168l-4.052 21.44a1.002 1.002 0 0 1-1.169.797l-13.046-2.466a1 1 0 0 1-.797-1.169l3.969-21.001-14.737-2.786-3.97 21.002a1 1 0 0 1-1.168.796l-12.964-2.45a1 1 0 0 1-.797-1.168l9.645-51.023zm1.779 1.354-9.273 49.058 10.999 2.079 3.969-21.002a1.002 1.002 0 0 1 1.169-.797l16.702 3.158c.543.102.9.624.797 1.168l-3.969 21.001 11.081 2.095 3.681-19.475-4.336-.819a1 1 0 0 1-.796-1.169l1.327-7.022a1 1 0 0 1 1.168-.797l4.336.82 2.573-13.616-4.335-.82a.999.999 0 0 1-.797-1.168l1.134-5.998-35.43-6.696zm9.551 9.739a.999.999 0 0 1 1.168-.797l16.703 3.157a1 1 0 0 1 .797 1.168l-2.239 11.841a1 1 0 0 1-1.168.797l-16.703-3.157a1.002 1.002 0 0 1-.797-1.169l2.239-11.84zm1.779 1.354-1.867 9.875 14.738 2.786 1.867-9.876-14.738-2.785zm472.925-582.882-1.347-8.114a.998.998 0 0 1 .822-1.15l5.614-.933-3.036-18.282-5.613.932a1.001 1.001 0 0 1-1.151-.822l-.818-4.932-10.621 1.763a1.001 1.001 0 0 1-1.151-.822l-1.082-6.524-34.062 5.655a.995.995 0 0 1-.746-.173 1.005 1.005 0 0 1-.405-.649l-.856-5.159-5.614.932a.995.995 0 0 1-1.15-.822l-1.209-7.282a.998.998 0 0 1 .822-1.15l5.615-.933-1.046-6.3a.997.997 0 0 1 .822-1.15l6.524-1.083-.894-5.383a1 1 0 0 1 .823-1.15l20.256-3.363a1.004 1.004 0 0 1 1.151.823l.893 5.382 11.53-1.915a1 1 0 0 1 1.15.823l1.047 6.3 11.986-1.99a1 1 0 0 1 1.15.824l1.046 6.295 6.295-1.045a.998.998 0 0 1 1.15.822l.858 5.159 6.296-1.045a1.001 1.001 0 0 1 1.151.822l1.082 6.524 6.069-1.008a1 1 0 0 1 1.15.823l1.877 11.302 5.613-.932a.995.995 0 0 1 1.15.822l3.816 22.986a.998.998 0 0 1-.822 1.15l-5.614.933 1.612 9.71a.998.998 0 0 1-.822 1.15l-6.069 1.009 2.028 12.213a1 1 0 0 1-.823 1.15l-6.297 1.046.894 5.385a.995.995 0 0 1-.822 1.15l-12.897 2.142 1.121 6.751a.995.995 0 0 1-.822 1.15l-5.387.895 3.905 23.517 5.386-.894a1 1 0 0 1 1.15.823l1.058 6.372a.995.995 0 0 1-.822 1.15l-18.89 3.136a.998.998 0 0 1-1.15-.822l-3.729-22.456-7.434 1.234a.998.998 0 0 1-1.15-.822l-1.235-7.434-23.972 3.98 1.726 10.393a1 1 0 0 1-.823 1.15l-5.386.895 2.015 12.137 5.386-.894a.998.998 0 0 1 1.15.822l1.058 6.373a.995.995 0 0 1-.173.746 1.005 1.005 0 0 1-.649.405l-23.442 3.891a1 1 0 0 1-1.15-.823l-3.729-22.455-7.889 1.31a1 1 0 0 1-1.15-.823l-1.235-7.435-11 1.827 1.234 7.434a.998.998 0 0 1-.822 1.15l-8.8 1.462 3.565 21.469 8.799-1.461a.995.995 0 0 1 1.15.822l1.273 7.662 11.986-1.99a1 1 0 0 1 1.151.823l.974 5.872 37.264-4.955a1 1 0 0 1 1.118.827l1.525 9.184a1.002 1.002 0 0 1-.849 1.155l-46.308 6.425a1 1 0 0 1-1.123-.827l-.904-5.439-13.688 2.273a1 1 0 0 1-1.151-.823l-1.427-8.6-16.301 2.706a1.001 1.001 0 0 1-1.151-.822l-1.271-7.662-4.945.821a1 1 0 0 1-1.15-.823l-7.585-45.69a.998.998 0 0 1 .822-1.15l4.945-.822-2.161-13.017a.998.998 0 0 1 .822-1.15l7.252-1.205-1.526-9.189a.995.995 0 0 1 .173-.746c.154-.215.388-.361.649-.405l8.064-1.338-1.347-8.115a.998.998 0 0 1 .822-1.15l8.8-1.462-1.368-8.238a.995.995 0 0 1 .173-.746c.154-.215.388-.361.649-.405l11.987-1.989-1.395-8.404a.998.998 0 0 1 .822-1.15l38.918-6.462a.995.995 0 0 1 1.15.822l1.396 8.405 11.8-1.959a.998.998 0 0 1 1.15.822l1.369 8.24 13.992-2.323a.995.995 0 0 1 1.15.822l1.348 8.116 16.917-2.81zm1.314 1.809-18.89 3.137a.995.995 0 0 1-1.15-.822l-1.348-8.116-13.992 2.323a.998.998 0 0 1-1.15-.822l-1.369-8.24-11.8 1.959a.995.995 0 0 1-1.15-.822l-1.396-8.405-36.945 6.135 1.395 8.404a.995.995 0 0 1-.173.746 1.005 1.005 0 0 1-.649.405l-11.987 1.989 1.368 8.238a.995.995 0 0 1-.822 1.15l-8.8 1.462 1.347 8.115a.995.995 0 0 1-.173.746 1.005 1.005 0 0 1-.649.405l-8.064 1.338 1.526 9.189a.995.995 0 0 1-.822 1.15l-7.252 1.205 2.161 13.017a.998.998 0 0 1-.822 1.15l-4.945.822 7.258 43.717 4.945-.821c.545-.09 1.06.278 1.151.823l1.271 7.662 16.301-2.706a.995.995 0 0 1 .746.173c.215.154.361.388.405.649l1.427 8.6 13.688-2.273a1 1 0 0 1 1.15.823l.908 5.465 44.326-6.15-1.198-7.216-37.264 4.955a1.001 1.001 0 0 1-1.119-.827l-.969-5.841-11.986 1.99a1 1 0 0 1-1.15-.823l-1.273-7.662-8.799 1.461a.995.995 0 0 1-1.15-.822l-3.892-23.442a.998.998 0 0 1 .822-1.15l8.8-1.462-1.234-7.434a.998.998 0 0 1 .822-1.15l12.973-2.154a.995.995 0 0 1 1.15.822l1.235 7.435 7.889-1.31a1 1 0 0 1 1.15.823l3.729 22.455 21.469-3.564-.731-4.4-5.386.894a.995.995 0 0 1-.746-.173 1.005 1.005 0 0 1-.405-.649l-2.342-14.11a1 1 0 0 1 .823-1.15l5.386-.895-1.726-10.393a1 1 0 0 1 .823-1.15l25.945-4.307a.998.998 0 0 1 1.15.822l1.235 7.434 7.434-1.234a.998.998 0 0 1 1.15.822l3.729 22.456 16.917-2.809-.731-4.399-5.386.894a1 1 0 0 1-1.15-.823l-4.232-25.49a.995.995 0 0 1 .822-1.15l5.387-.895-1.121-6.751a.995.995 0 0 1 .822-1.15l12.897-2.142-.894-5.385a.995.995 0 0 1 .822-1.15l6.297-1.046-2.028-12.213a1 1 0 0 1 .823-1.15l6.069-1.009-1.612-9.71a.998.998 0 0 1 .822-1.15l5.614-.933-3.489-21.013-5.613.932a.995.995 0 0 1-1.15-.822l-1.877-11.302-6.069 1.008a1 1 0 0 1-1.151-.823l-1.082-6.524-6.296 1.045a.998.998 0 0 1-1.15-.822l-.858-5.159-6.295 1.045a.998.998 0 0 1-1.15-.822l-1.046-6.296-11.986 1.99a1 1 0 0 1-1.15-.823l-1.047-6.3-11.53 1.915a1 1 0 0 1-1.151-.823l-.893-5.382-18.283 3.035.894 5.382a1 1 0 0 1-.823 1.15l-6.524 1.084 1.046 6.3a.995.995 0 0 1-.822 1.15l-5.615.933.882 5.309 5.614-.932a.995.995 0 0 1 .746.173c.215.154.361.388.405.649l.856 5.159 34.062-5.655a1.001 1.001 0 0 1 1.151.822l1.082 6.524 10.621-1.763a1.001 1.001 0 0 1 1.151.822l.818 4.932 5.613-.932a.995.995 0 0 1 1.15.822l3.363 20.255a.998.998 0 0 1-.822 1.15l-5.614.933 1.347 8.114a.998.998 0 0 1-.822 1.15zm-42.193-56.149.686 4.188-4.187.686-.686-4.188 4.187-.686zM284.838 714.668a.999.999 0 0 1 1.169-.797l30.325 5.732c.543.101.9.625.797 1.168l-1.048 5.547 4.773.902a1 1 0 0 1 .797 1.169l-8.366 44.258a.999.999 0 0 1-1.168.797l-12.457-2.354a1.002 1.002 0 0 1-.797-1.169l2.513-13.294-14.598-2.759-2.513 13.294a.999.999 0 0 1-1.168.797l-12.066-2.281a1 1 0 0 1-.797-1.168l8.366-44.259a.999.999 0 0 1 1.168-.796l4.022.76 1.048-5.547zm1.78 1.354-1.049 5.547a1.002 1.002 0 0 1-1.168.797l-4.022-.761-7.994 42.294 10.101 1.909 2.513-13.294a.997.997 0 0 1 1.168-.797l16.563 3.131c.543.102.9.624.797 1.168l-2.513 13.294 10.492 1.983 7.994-42.293-4.773-.902a1 1 0 0 1-.797-1.169l1.048-5.547-28.36-5.36zm3.961 7.764a1 1 0 0 1 1.168-.797l16.418 3.103a1 1 0 0 1 .797 1.169l-3.925 20.767a1.001 1.001 0 0 1-1.168.797l-16.418-3.104a.999.999 0 0 1-.797-1.168l3.925-20.767zm1.78 1.354-3.554 18.802 14.453 2.732 3.553-18.802-14.452-2.732zm2.29-661.423C312.8 39.112 348.947 37.98 377.657 51.1c28.829 13.175 50.871 41.04 40.155 75.025 1.277.103 2.529.197 3.741.282 7.301.512 12.239 7.933 9.604 14.814l-3.161 8.254c-1.55 4.046-5.395 6.77-9.749 6.78-7.433.017-19.787-.156-28.768-1.321-5.101-.662-11.205-1.914-16.78-3.202-6.569 7.536-15.266 10.335-24.426 11.262-4.655.472-9.454.462-14.181.338a544.5 544.5 0 0 1-4.771-.152c-1.776-.061-3.532-.122-5.263-.163-1.262.13-2.55.117-3.842-.05a.997.997 0 0 1-.182-.025 16.898 16.898 0 0 1-3.467-.874c-11.945-4.393-28.418-10.718-40.542-16.415-10.693-5.025-24.444-12.588-33.934-17.952-6.996-3.954-10.166-12.273-7.726-19.91l13.444-42.082c3.043-9.527 13.547-14.441 22.859-10.846 7.301 2.82 16.039 6.106 23.981 8.855zm29.313 97.297c5.655-.627 10.706-4.523 12.571-10.362l16.591-51.93c2.708-8.478-2.424-17.48-11.089-19.594-12.251-2.986-28.692-7.21-41.051-11.18-9.513-3.058-21.515-7.54-31.037-11.219-8.256-3.189-17.546 1.178-20.233 9.589l-13.444 42.081c-2.157 6.752.65 14.081 6.805 17.56 9.486 5.362 23.181 12.894 33.8 17.884 12.04 5.658 28.443 11.957 40.382 16.347 1.028.379 2.069.635 3.107.778 1.184.001 2.385.019 3.598.046zm-52.195-94.918a1 1 0 0 1 1.323-.5 244.728 244.728 0 0 0 12.004 5.03l.06-.041c.234-.166.515-.42.862-.74l.03-.028c.311-.287.682-.627 1.033-.876.182-.129.407-.267.655-.358.244-.087.625-.168 1.033-.015.026.01.052.02.077.033 4.273 2.028 9.948 4.409 16.684 5.66.035.007.07.015.104.025.366.11.63.341.805.538.181.2.329.433.451.652.235.42.448.936.633 1.383l.015.035c.202.487.374.898.547 1.207.075.135.134.22.174.269 6.774 1.948 13.7 3.828 20.685 5.489 7.622 1.813 12.354 9.688 9.951 17.207l-12.073 37.791a1 1 0 0 1-1.905-.609l12.073-37.79c2.03-6.354-1.961-13.096-8.509-14.653-7.059-1.68-14.051-3.578-20.875-5.543a1.773 1.773 0 0 1-.813-.531 3.594 3.594 0 0 1-.454-.653c-.237-.424-.452-.942-.638-1.39l-.011-.028c-.202-.489-.374-.9-.547-1.212a2.094 2.094 0 0 0-.163-.255c-6.745-1.276-12.428-3.635-16.701-5.648-.014.008-.028.019-.043.029-.235.167-.516.423-.864.743l-.025.023c-.313.287-.686.63-1.039.88a2.787 2.787 0 0 1-.658.356 1.478 1.478 0 0 1-1.037.007 246.783 246.783 0 0 1-12.343-5.164 1 1 0 0 1-.501-1.323zm-22.81 26.597a1 1 0 0 1 .648 1.257l-4.693 14.691a8.696 8.696 0 0 0 4.122 10.282l10.837 5.904a1 1 0 1 1-.957 1.756l-10.836-5.904a10.694 10.694 0 0 1-5.071-12.646L247.7 93.34a1 1 0 0 1 1.257-.648zm36.169 4.678c1.17-.847 2.624-1.242 4.042-.788 1.418.453 2.373 1.618 2.837 2.986.463 1.367.465 3.003-.045 4.6-.51 1.597-1.46 2.929-2.631 3.774-1.17.846-2.625 1.241-4.042.789-1.418-.453-2.374-1.619-2.837-2.986-.463-1.368-.465-3.004.045-4.601.51-1.598 1.46-2.928 2.631-3.775zm1.171 1.62c-.79.572-1.504 1.531-1.897 2.763-.394 1.232-.368 2.427-.055 3.35.312.924.88 1.508 1.55 1.722.671.215 1.472.067 2.263-.504.79-.571 1.503-1.53 1.897-2.761.393-1.232.368-2.428.055-3.351-.312-.924-.88-1.508-1.551-1.722-.67-.215-1.472-.067-2.262.504zM296.636 64.4c1.708.58 3.369 1.132 4.96 1.642 6.537 2.102 14.235 4.276 21.852 6.3.026-.124.077-.246.153-.358 6.374-9.316 16.428-14.05 27.565-15.219 11.126-1.168 23.395 1.21 34.375 6.17a1 1 0 0 1-.824 1.823c-6.891-3.114-14.28-5.172-21.528-5.944 14.77 5.695 26.004 14.002 33.047 24.317 7.955 11.654 10.498 25.777 6.847 41.361 3.994.609 8.433 1.089 12.707 1.463.007-.069.021-.138.043-.207 10.456-32.73-10.601-59.847-39.007-72.828-28.114-12.847-62.729-11.53-80.19 11.48zm104.47 59.773a.705.705 0 0 1 .013-.063c3.559-15.116 1.09-28.682-6.535-39.85-7.638-11.189-20.515-20.06-37.922-25.621a1 1 0 0 1-.31-.164 52.322 52.322 0 0 0-4.977.28c-10.605 1.113-19.979 5.556-25.952 14.11a995.857 995.857 0 0 0 17.086 4.32c.464.114.919.245 1.364.392a.931.931 0 0 1 .087.023l26.106 8.34c13.277 4.242 20.602 18.444 16.36 31.721l-.906 2.837c4.898 1.367 10.018 2.657 14.392 3.463.391.072.79.142 1.194.212zm-17.512-4.22.927-2.9c3.906-12.225-2.839-25.303-15.063-29.208l-18.641-5.954c4.365 4.427 6.251 11.056 4.212 17.439l-16.59 51.931a16.999 16.999 0 0 1-8.356 9.944c1.353.047 2.709.092 4.061.128 4.704.123 9.402.13 13.927-.328 8.545-.866 16.383-3.376 22.404-9.795a387.3 387.3 0 0 1-4.606-1.129c-5.887-1.482-9.169-7.628-7.332-13.377l3.824-11.97c1.826-5.714 7.979-8.801 13.678-7.036 2.3.713 4.873 1.488 7.555 2.255zm-8.146-.344c-4.682-1.45-9.7 1.095-11.182 5.733l-3.824 11.971c-1.496 4.684 1.182 9.637 5.916 10.828 6.91 1.74 16.19 3.877 23.378 4.809 8.838 1.147 21.074 1.322 28.506 1.305 3.507-.008 6.624-2.202 7.886-5.496l3.161-8.253c2.137-5.58-1.865-11.683-7.876-12.104-6.949-.487-15.316-1.268-21.863-2.474-7.508-1.384-17.115-4.154-24.102-6.319zm-8.962 8.439a9.078 9.078 0 0 1 11.247-5.937l6.357 1.899a1 1 0 1 1-.572 1.917l-6.358-1.899a7.078 7.078 0 0 0-8.769 4.628l-2.91 9.108a1 1 0 0 1-1.905-.609l2.91-9.107zm-15.081 66.945c-.619-2.225 1.404-4.286 3.64-3.709l11.905 3.071c2.236.577 3.009 3.359 1.391 5.007l-8.612 8.774c-1.618 1.648-4.413.927-5.031-1.298l-3.293-11.845zm3.14-1.772a1 1 0 0 0-1.213 1.236l3.293 11.846a1 1 0 0 0 1.677.432l8.612-8.774a1 1 0 0 0-.464-1.669l-11.905-3.071zM633.94 931.552a8.68 8.68 0 0 1 8.68-8.68 8.68 8.68 0 0 1 8.68 8.68 8.68 8.68 0 0 1-8.68 8.68 8.68 8.68 0 0 1-8.68-8.68zm8.68-6.68a6.68 6.68 0 1 0 0 13.36 6.68 6.68 0 0 0 0-13.36zm126.754-271.115a1 1 0 0 1-1-1c0-.235.081-.45.216-.467.13-.112.341-.006.593.608l-.232-1.047.077-.036.427 1.904.422-.094-.503.132-.009-.042h-.003l.012.042zm22.816-10.416a1 1 0 0 1-1-1c0-.237.082-.453.219-.468.131-.111.347.002.604.64l-.232-1.084.077-.035.414 1.91.409-.087-.491.124-.009-.041h-.002a.85.85 0 0 0 .011.041zm2.355-6.046a1 1 0 0 1-1-1c0-.235.082-.452.218-.468.131-.111.346.001.602.635l-.234-1.077.077-.036.418 1.909.413-.089-.494.126-.009-.041h-.002l.011.041zM615.893 255.13l198.601 76.236 19.23 7.381c17.794 6.831 26.682 26.793 19.851 44.587l-31 80.759c-6.831 17.794-26.793 26.681-44.587 19.851l-19.23-7.382-198.6-76.235-19.231-7.382c-17.794-6.83-26.681-26.792-19.851-44.586l31.001-80.759c6.83-17.794 26.792-26.682 44.586-19.851l19.23 7.381zm-56.886 142.613 54.302-141.462-17.362-6.665c-16.763-6.435-35.569 1.938-42.003 18.701l-31.001 80.758c-6.434 16.763 1.938 35.568 18.701 42.003l17.363 6.665zm-11.304-37.745a6.156 6.156 0 1 1 4.413-11.495 6.156 6.156 0 0 1-4.413 11.495zm6.085-4.258a4.156 4.156 0 1 0-7.76-2.977 4.156 4.156 0 0 0 7.76 2.977zm2.136-17.16a6.156 6.156 0 1 1 4.413-11.495 6.156 6.156 0 0 1-4.413 11.495zm6.085-4.258a4.154 4.154 0 0 0-2.39-5.368 4.154 4.154 0 0 0-5.368 2.39 4.154 4.154 0 0 0 2.39 5.368 4.154 4.154 0 0 0 5.368-2.39zm7.717 15.02a6.156 6.156 0 1 1-11.495-4.413 6.156 6.156 0 0 1 11.495 4.413zm-4.258-6.085a4.155 4.155 0 1 0 2.391 5.368 4.155 4.155 0 0 0-2.391-5.368zm-15.508-1.503a6.155 6.155 0 1 1-11.493-4.412 6.155 6.155 0 0 1 11.493 4.412zm-4.257-6.085a4.156 4.156 0 1 0-2.979 7.76 4.156 4.156 0 0 0 2.979-7.76zm16.826-54.098c2.823-7.355 11.074-11.028 18.429-8.205 7.355 2.823 11.029 11.074 8.205 18.429-2.823 7.355-11.074 11.029-18.429 8.206-7.355-2.824-11.029-11.075-8.205-18.43zm8.922 16.562c6.323 2.428 13.418-.731 15.845-7.054 2.428-6.324-.731-13.419-7.055-15.846-6.324-2.427-13.418.731-15.845 7.055-2.428 6.324.731 13.418 7.055 15.845zm43.726-41.135L560.874 398.46l198.601 76.235 54.302-141.462-198.6-76.235zm3.847 15.739a5.469 5.469 0 0 1 7.065-3.145l171.152 65.699a5.468 5.468 0 0 1 3.146 7.065l-44.76 116.602a5.467 5.467 0 0 1-7.064 3.145L577.41 396.404a5.469 5.469 0 0 1-3.145-7.065l44.759-116.602zm6.348-1.278a3.467 3.467 0 0 0-4.48 1.995l-44.76 116.602a3.47 3.47 0 0 0 1.995 4.481l171.152 65.699a3.468 3.468 0 0 0 4.481-1.995l44.76-116.602a3.47 3.47 0 0 0-1.995-4.481l-171.153-65.699zm26.678 84.545a.999.999 0 1 1 1.977-.3l.007.041.027.152c.026.137.068.345.129.615.124.542.328 1.334.646 2.317a36.989 36.989 0 0 0 3.556 7.7c3.641 6.005 10.201 13.158 21.898 17.649 11.698 4.49 21.359 3.563 28.083 1.537 3.368-1.015 6.006-2.308 7.795-3.343.895-.518 1.576-.97 2.03-1.289a16.357 16.357 0 0 0 .63-.466l.032-.026a1.001 1.001 0 0 1 1.27 1.545l-.018.015-.041.033-.151.117c-.131.1-.322.242-.571.417-.498.351-1.229.835-2.179 1.385-1.9 1.099-4.68 2.46-8.22 3.527-7.091 2.137-17.212 3.084-29.376-1.585-12.165-4.67-19.052-12.146-22.892-18.479-1.917-3.162-3.072-6.033-3.748-8.121a29.216 29.216 0 0 1-.694-2.488 19.156 19.156 0 0 1-.178-.879l-.009-.052-.002-.016-.001-.004v-.002zm11.106-14.268a5.69 5.69 0 0 1 7.353-3.274 5.69 5.69 0 0 1 3.274 7.353 5.69 5.69 0 0 1-7.353 3.274 5.69 5.69 0 0 1-3.274-7.353zm6.637-1.407a3.692 3.692 0 1 0-2.647 6.893 3.692 3.692 0 0 0 2.647-6.893zm41.001 19.695a5.693 5.693 0 1 1 10.627 4.08 5.693 5.693 0 0 1-10.627-4.08zm6.637-1.407a3.693 3.693 0 1 0-2.645 6.894 3.693 3.693 0 0 0 2.645-6.894zm98.213-24.668-54.302 141.463 17.363 6.665c16.763 6.434 35.568-1.938 42.003-18.701l31-80.759c6.435-16.763-1.938-35.568-18.701-42.003l-17.363-6.665zm-20.202 121.147a6.156 6.156 0 1 1 4.413-11.495 6.156 6.156 0 0 1-4.413 11.495zm6.085-4.258a4.156 4.156 0 1 0-7.76-2.977 4.156 4.156 0 0 0 7.76 2.977zm2.136-17.16a6.156 6.156 0 1 1 4.413-11.495 6.156 6.156 0 0 1-4.413 11.495zm6.085-4.258a4.155 4.155 0 1 0-7.757-2.978 4.155 4.155 0 0 0 7.757 2.978zm7.717 15.02a6.156 6.156 0 1 1-11.495-4.413 6.156 6.156 0 0 1 11.495 4.413zm-4.258-6.085a4.154 4.154 0 0 0-5.368 2.39 4.154 4.154 0 0 0 2.39 5.368 4.154 4.154 0 0 0 5.368-2.39 4.154 4.154 0 0 0-2.39-5.368zm-15.508-1.503a6.155 6.155 0 1 1-11.493-4.411 6.155 6.155 0 0 1 11.493 4.411zm-4.257-6.085a4.157 4.157 0 0 0-2.979 7.759 4.156 4.156 0 0 0 2.979-7.759zm16.825-54.098c2.824-7.355 11.075-11.028 18.43-8.205 7.355 2.823 11.028 11.074 8.205 18.429-2.823 7.355-11.074 11.029-18.429 8.206-7.355-2.824-11.029-11.075-8.206-18.43zm8.922 16.562c6.324 2.428 13.418-.731 15.846-7.054 2.427-6.324-.731-13.418-7.055-15.846-6.324-2.427-13.418.731-15.845 7.055-2.428 6.324.731 13.418 7.054 15.845zm-55.925 258.346a1 1 0 0 1-1-1c0-.235.082-.452.218-.468.131-.112.346.001.602.635l-.234-1.077.077-.036.418 1.909.413-.089-.494.126-.009-.041h-.002a.85.85 0 0 0 .011.041zm-420.896 147.21a1 1 0 0 1 1.169-.797l42.292 7.994a.999.999 0 0 1 .796 1.168l-1.705 9.022a1 1 0 0 1-1.168.797l-27.811-5.256-1.94 10.264 22.083 4.174a1 1 0 0 1 .797 1.168l-1.375 7.276a1 1 0 0 1-1.169.797l-22.083-4.174-2.32 12.277 27.811 5.256a1 1 0 0 1 .796 1.169l-1.49 7.887a1.001 1.001 0 0 1-1.169.797l-42.292-7.994a1.002 1.002 0 0 1-.797-1.168l9.575-50.657zm1.78 1.354-9.204 48.691 40.327 7.623 1.119-5.922-27.81-5.257a1 1 0 0 1-.797-1.168l2.692-14.242a.999.999 0 0 1 1.168-.797l22.083 4.174 1.004-5.311-22.083-4.174a.999.999 0 0 1-.797-1.168l2.311-12.229a1 1 0 0 1 1.169-.797l27.811 5.256 1.334-7.057-40.327-7.622zm-55.137-12.387a1 1 0 0 1 1.168-.797l13.1 2.476a1 1 0 0 1 .797 1.169l-1.08 5.711 3.799.718a1 1 0 0 1 .797 1.168l-1.17 6.189 4.633.876 1.169-6.189a.999.999 0 0 1 1.169-.797l3.798.718 1.08-5.711a.999.999 0 0 1 1.168-.797l13.1 2.476a.999.999 0 0 1 .797 1.168l-9.724 51.444a1 1 0 0 1-1.168.797l-13.1-2.476a1 1 0 0 1-.797-1.169l5.182-27.416-2.816-.532-1.025 5.424a1 1 0 0 1-1.168.797l-6.598-1.247a1 1 0 0 1-.797-1.169l1.025-5.424-2.816-.532-5.182 27.417a.999.999 0 0 1-1.168.796l-13.1-2.476a.999.999 0 0 1-.797-1.168l9.724-51.444zm1.779 1.354-9.352 49.479 11.135 2.104 5.182-27.416a1 1 0 0 1 1.168-.797l4.781.904c.543.102.9.625.797 1.168l-1.025 5.424 4.633.876 1.025-5.424a.999.999 0 0 1 1.168-.797l4.781.904c.543.102.9.625.797 1.168l-5.182 27.416 11.135 2.105 9.352-49.479-11.135-2.104-1.079 5.711a1.002 1.002 0 0 1-1.169.797l-3.798-.718-1.17 6.189a1 1 0 0 1-1.168.796l-6.598-1.247a.999.999 0 0 1-.797-1.168l1.17-6.189-3.799-.718a1 1 0 0 1-.797-1.168l1.08-5.711-11.135-2.105zm-49.179-9.503a.999.999 0 0 1 1.168-.796l30.325 5.731a1 1 0 0 1 .797 1.169l-1.048 5.547 4.773.902a1 1 0 0 1 .797 1.169l-8.366 44.258a.999.999 0 0 1-1.168.797l-12.457-2.355a.999.999 0 0 1-.796-1.168l2.512-13.294-14.598-2.759-2.513 13.294a1 1 0 0 1-1.168.797l-12.066-2.281a1.001 1.001 0 0 1-.797-1.168l8.366-44.259a1.001 1.001 0 0 1 1.168-.797l4.022.761 1.049-5.548zm1.779 1.354-1.048 5.548a1 1 0 0 1-1.169.796l-4.022-.76-7.994 42.294 10.101 1.909 2.513-13.295a.999.999 0 0 1 1.168-.796l16.563 3.13a1 1 0 0 1 .797 1.169l-2.513 13.294 10.492 1.983 7.994-42.293-4.773-.903a.999.999 0 0 1-.797-1.168l1.048-5.547-28.36-5.361zm3.961 7.765a.999.999 0 0 1 1.169-.797l16.418 3.103c.542.103.899.626.797 1.168l-3.926 20.768a.999.999 0 0 1-1.168.796l-16.418-3.103a1 1 0 0 1-.797-1.168l3.925-20.767zm1.78 1.354-3.554 18.802 14.453 2.731 3.554-18.801-14.453-2.732zM75.417 104.588a1.994 1.994 0 0 1-.804.687l-12.779 6.011a2 2 0 0 1-2.661-.958l-1.823-3.875-3.941 1.854a2 2 0 0 1-2.661-.958l-1.957-4.16-3.352 1.576a2 2 0 0 1-2.663-.957l-7.572-16.099c-.471-1-.042-2.19.958-2.66l3.354-1.579-2.124-4.514a2 2 0 0 1 .958-2.662l3.942-1.853-1.455-3.094a2 2 0 0 1 .958-2.66l12.788-6.017-.93-1.977a2 2 0 0 1 .958-2.66l31.216-14.684.851 1.81-31.216 14.684 1.731 3.68c.019.033.037.069.054.104l4.43 9.419c.017.035.032.072.047.107l13.849 29.441 2.949-1.387a2 2 0 0 1 2.661.958l4.873 10.358 5.498-2.586a2 2 0 0 1 2.661.958l2.451 5.212 7.127-3.352a2 2 0 0 1 2.66.959l1.931 4.103 1.382-.65a2 2 0 0 1 2.66.958l7.219 15.345a2 2 0 0 1-.959 2.661l-1.382.65 1.844 3.919c.47.999.04 2.191-.958 2.661l-14.434 6.79 3.495 7.429 26.456-12.446.852 1.81-26.458 12.446a2 2 0 0 1-2.66-.958l-3.495-7.431c-.47-1-.042-2.19.958-2.66l14.434-6.79-1.844-3.919a2 2 0 0 1 .959-2.661l1.382-.65-7.219-15.344-1.382.65c-1 .47-2.19.042-2.66-.958l-1.931-4.104-7.124 3.351c-1 .472-2.192.043-2.662-.957l-2.452-5.212-5.498 2.586a2 2 0 0 1-2.661-.958l-4.873-10.358-2.949 1.387a1.988 1.988 0 0 1-1.007.184zM55.434 64.481l-12.788 6.015 1.456 3.094a2 2 0 0 1-.959 2.66l-3.942 1.855 2.124 4.514a2 2 0 0 1-.958 2.662l-3.354 1.576 7.573 16.099 3.354-1.577a2 2 0 0 1 2.661.958l1.956 4.16 3.942-1.854a2 2 0 0 1 2.661.958l1.823 3.875 12.779-6.011-4.631-9.844-12.162 5.72a2 2 0 0 1-2.661-.959l-7.573-16.098a2 2 0 0 1 .958-2.66l12.171-5.725-4.43-9.418zm5.282 11.228-12.171 5.724 7.572 16.098 12.163-5.72.008-.005-7.572-16.097zM466.552 281.58l-124.511 11.273c-2.646.24-4.275-2.826-2.594-4.885l78.826-96.543c-.062-.782.092-1.663.476-2.616 1-2.483 3.649-5.58 7.687-8.511 3.469-2.518 8.131-2.105 11.309.772 6.865 6.213 19.97 19.816 31.737 41.98 11.767 22.165 15.693 40.641 16.993 49.809.605 4.255-1.67 8.396-5.751 9.742-4.968 1.638-8.81 1.496-11.374.611-1.188-.41-2.12-.986-2.798-1.632zm.879-2.055.001.002c.438.724 1.32 1.363 2.571 1.794 2.277.786 5.683.835 10.095-.62 3.155-1.04 4.864-4.271 4.397-7.56-1.284-9.048-5.166-27.279-16.779-49.153s-24.538-35.303-31.313-41.436c-2.472-2.237-6.094-2.594-8.793-.636-3.649 2.649-6.102 5.396-7.006 7.64-.451 1.122-.527 2.074.096 2.697 7.62 7.606 21.093 22.411 30.654 40.421 9.215 17.357 13.928 36.054 16.077 46.851zm-48.286-86.007-78.148 95.714c-.561.687-.018 1.709.864 1.629l123.56-11.187c-2.145-10.706-6.795-29.038-15.833-46.062-9.449-17.8-22.77-32.427-30.301-39.943a3.378 3.378 0 0 1-.142-.151zm-11.247 79.641c-3.273-6.165-.925-13.827 5.24-17.1 6.165-3.273 13.827-.925 17.1 5.24 3.273 6.165.925 13.827-5.24 17.1-6.165 3.273-13.827.925-17.1-5.24zm1.766-.938c2.755 5.19 9.206 7.167 14.396 4.412 5.19-2.755 7.167-9.206 4.412-14.396-2.755-5.19-9.206-7.167-14.396-4.412-5.19 2.755-7.167 9.206-4.412 14.396zm-51.275 10.882a3.786 3.786 0 0 1 1.568-5.118 3.786 3.786 0 0 1 5.118 1.568 3.786 3.786 0 0 1-1.568 5.118 3.786 3.786 0 0 1-5.118-1.568zm1.766-.938a1.787 1.787 0 0 0 3.154-1.674 1.787 1.787 0 0 0-3.154 1.674zm83.712-11.727-.014-.027a3.786 3.786 0 0 1 1.568-5.118 3.786 3.786 0 0 1 5.118 1.568 3.786 3.786 0 0 1-6.672 3.577zm1.738-.992a1.787 1.787 0 0 0 0 0zm-5.259-24.84c2.941.379 5.271 2.465 6.357 3.648a1.814 1.814 0 0 1-.359 2.791c-1.349.869-4.133 2.298-7.074 1.92-2.94-.379-5.27-2.465-6.356-3.648-.79-.86-.622-2.157.359-2.791 1.349-.869 4.132-2.298 7.073-1.92zm-5.828 3.499c.928.981 2.728 2.583 5.008 2.876 2.279.293 4.427-.8 5.573-1.515-.928-.981-2.729-2.583-5.009-2.876-2.279-.293-4.426.8-5.572 1.515zm-28.058-13.597c-3.273-6.165-.925-13.827 5.24-17.1 6.165-3.273 13.827-.925 17.1 5.24 3.273 6.165.925 13.827-5.24 17.1-6.165 3.273-13.827.925-17.1-5.24zm1.766-.938c2.755 5.19 9.206 7.167 14.396 4.412 5.19-2.755 7.167-9.206 4.412-14.396-2.755-5.19-9.206-7.167-14.396-4.412-5.19 2.755-7.167 9.206-4.412 14.396zm-8.058 13.327c-.628 2.898-2.907 5.041-4.178 6.021a1.812 1.812 0 0 1-2.75-.597c-.75-1.418-1.936-4.313-1.307-7.21.629-2.898 2.906-5.041 4.178-6.022a1.813 1.813 0 0 1 2.749.597c.751 1.419 1.936 4.314 1.308 7.211zm-5.249 4.319c1.058-.84 2.807-2.498 3.295-4.743.486-2.244-.419-4.478-1.033-5.681-1.059.841-2.807 2.498-3.294 4.743-.487 2.244.418 4.478 1.032 5.681zm-27.05 22.935c-3.273-6.165-.925-13.827 5.24-17.1 6.165-3.273 13.827-.925 17.1 5.24 3.273 6.165.925 13.827-5.24 17.1-6.165 3.273-13.827.925-17.1-5.24zm1.766-.938c2.755 5.19 9.206 7.167 14.396 4.412 5.19-2.755 7.167-9.206 4.412-14.396-2.755-5.19-9.206-7.167-14.396-4.412-5.19 2.755-7.167 9.206-4.412 14.396zm46.852 657.407c.097-3.545 2.012-7.47 5.253-10.739 4.758-4.799 12.357-8.194 20.935-6.873 8.579 1.32 15.935 8.57 18.671 16.049 1.889 5.163 1.576 10.412-1.804 14.007-3.394 3.609-8.305 5.526-11.662 5.94 2.007 2.302 4.632 5.357 6.128 8.428 1.397 2.867 1.805 5.757.263 8.186-2.84 4.473-7.515 7.307-12.263 6.685-3.154-.413-6.386-2.341-9.135-6.444-4.472-6.676-10.783-17.527-14.1-25.945-1.473-3.738-2.348-7.02-2.286-9.294zm2 .054c-.057 2.085.797 5.08 2.147 8.506 3.269 8.297 9.494 18.987 13.901 25.565 2.344 3.5 5.043 5.223 7.733 5.575 4.018.526 7.911-1.988 10.315-5.774 1.176-1.854.693-4.05-.373-6.238-1.81-3.715-5.364-7.384-7.264-9.639a1.001 1.001 0 0 1 .935-1.629c2.543.438 8.42-1.321 12.203-5.346 2.88-3.062 2.993-7.552 1.384-11.95-2.51-6.862-9.227-13.549-17.097-14.76-7.871-1.211-14.845 1.901-19.211 6.305-2.842 2.867-4.589 6.276-4.673 9.385zm15.503-2.134c1.023-1.172 2.327-1.503 3.685-1.253 1.735.321 3.592 1.703 4.847 3.424 1.316 1.805 1.923 3.953 1.328 5.558-.43 1.161-1.443 2.138-3.36 2.533-2.261.467-4.642-1.235-6.052-3.562-.807-1.332-1.293-2.835-1.303-4.121-.008-1.019.276-1.916.855-2.579zm1.506 1.316c-.276.317-.365.76-.361 1.247.008.971.405 2.096 1.014 3.101.513.846 1.181 1.61 1.932 2.115.63.422 1.316.667 2.005.525 1.037-.214 1.656-.642 1.889-1.27.399-1.078-.185-2.473-1.069-3.684-.799-1.097-1.892-2.045-3.004-2.467-.87-.331-1.755-.312-2.406.433zm-64.866 35.677-.918-.593.871.509-.876-.518c-6.781-12.311 10.442-22.659 18.139-12.455 2.362 3.13 4.314 7.83 6.296 10.667.463.662.922 1.215 1.396 1.588.467.366.939.533 1.45.263.572-.302.814-.822.873-1.485.054-.601-.028-1.298-.193-2.078-.702-3.319-2.868-7.932-4.313-12.885-1.474-5.055 1.32-9.202 5.48-11.12 4.069-1.875 9.432-1.574 13.179 2.125 2.944 2.906 9.115 16.372 9.217 29.185.069 8.69-2.631 17.045-10.747 21.73-8.153 4.706-15.616 2.894-21.951-1.584-9.172-6.483-15.919-18.675-18.779-23.867l.876.518zm.876-1.482c2.775 5.039 9.28 16.906 18.182 23.198 5.714 4.039 12.442 5.73 19.796 1.485 7.443-4.296 9.811-12.014 9.747-19.982-.097-12.175-5.825-25.015-8.623-27.777-3.107-3.068-7.561-3.288-10.935-1.732-3.285 1.514-5.561 4.751-4.398 8.743 1.461 5.007 3.64 9.674 4.35 13.031.587 2.776.144 4.77-1.703 5.745-1.519.802-2.963.33-4.332-1.115-2.353-2.485-4.571-8.296-7.34-11.967-6.3-8.35-20.33.197-14.793 10.283l.045.08.004.008zm217.8-84.891-12.672 40.225c-.474 1.511-2.432 1.897-3.445.681l-11.156-13.401-16.822 4.587c-1.528.416-2.91-1.023-2.434-2.53l12.672-40.227c-7.966-8.885-11.176-21.629-7.334-33.825 5.788-18.376 25.407-28.595 43.782-22.806 18.376 5.788 28.595 25.407 22.806 43.782-3.842 12.197-13.777 20.8-25.397 23.514zm-32.279-9.018-12.342 39.181 16.822-4.588a2 2 0 0 1 2.063.65l11.156 13.401 12.342-39.18a34.733 34.733 0 0 1-16.147-1.154 34.735 34.735 0 0 1-13.894-8.31zm31.651 7.111c11.03-2.513 20.476-10.648 24.118-22.208 5.457-17.322-4.177-35.817-21.5-41.274-17.322-5.457-35.817 4.177-41.274 21.5-3.641 11.559-.563 23.639 7.035 32.02a.998.998 0 0 1 .46.498 32.74 32.74 0 0 0 14.005 8.756 32.733 32.733 0 0 0 16.494.851 1 1 0 0 1 .662-.143zm-4.734-51.686c2.217-2.315 6.128-1.084 6.617 2.085l1.338 8.658a1.87 1.87 0 0 0 1.034 1.397l7.891 3.806c2.888 1.395 2.924 5.495.062 6.939l-7.82 3.947a1.87 1.87 0 0 0-1.01 1.417l-1.182 8.68c-.432 3.176-4.32 4.479-6.579 2.202l-6.171-6.218a1.87 1.87 0 0 0-1.658-.522l-8.621 1.559c-3.156.571-5.595-2.726-4.128-5.576l4.006-7.792a1.866 1.866 0 0 0-.016-1.737l-4.146-7.718c-1.517-2.825.863-6.163 4.028-5.65l8.647 1.404a1.87 1.87 0 0 0 1.65-.553l6.058-6.328zm1.444 1.384-6.058 6.328a3.87 3.87 0 0 1-3.414 1.143l-8.647-1.404c-1.529-.247-2.679 1.365-1.946 2.73l4.146 7.716a3.865 3.865 0 0 1 .032 3.6l-4.006 7.791c-.708 1.377.47 2.969 1.994 2.694l8.621-1.559a3.867 3.867 0 0 1 3.434 1.082l6.171 6.218c1.091 1.099 2.969.469 3.177-1.064l1.182-8.681a3.877 3.877 0 0 1 2.09-2.932l7.821-3.947c1.382-.698 1.365-2.678-.031-3.351l-7.889-3.806a3.866 3.866 0 0 1-2.142-2.894l-1.338-8.657c-.237-1.531-2.126-2.126-3.197-1.007zm106.334-5.262-35.094 9.403a1 1 0 0 1-.518-1.932l35.095-9.403-9.404-35.094a1 1 0 0 1 1.932-.518l9.403 35.094 33.16-8.885-9.403-35.094a1 1 0 0 1 1.932-.518l9.403 35.095 35.096-9.404a1 1 0 1 1 .518 1.932l-35.096 9.404 8.885 33.16 35.095-9.404a1 1 0 0 1 .518 1.932l-35.096 9.404 9.404 35.095a1 1 0 0 1-1.932.518l-9.403-35.096-33.16 8.885 9.404 35.096a1 1 0 0 1-1.932.518l-9.404-35.096-35.095 9.404a1 1 0 0 1-.518-1.932l35.096-9.404-8.886-33.16zm35.092-9.403-33.16 8.885 8.885 33.161 33.16-8.885-8.885-33.161zm-15.16 9.741c6.226-1.669 12.636 2.032 14.304 8.258 1.668 6.226-2.032 12.636-8.258 14.304-6.227 1.668-12.636-2.032-14.304-8.258-1.668-6.226 2.032-12.636 8.258-14.304zm.518 1.932c-5.16 1.382-8.227 6.694-6.844 11.854 1.382 5.16 6.694 8.227 11.854 6.844 5.16-1.383 8.227-6.694 6.844-11.854-1.383-5.16-6.694-8.227-11.854-6.844zm226.091-460.489c2.525.464 3.619 3.473 1.982 5.451l-14.869 17.972a1.365 1.365 0 0 0 .804 2.211l9.4 1.727c2.733.503 3.712 3.915 1.661 5.789l-41.869 38.284c-2.793 2.553-7.021-.736-5.232-4.071l15.158-28.269a1.364 1.364 0 0 0-.955-1.985l-10.592-1.946c-2.291-.422-3.47-2.989-2.297-5.001l19.216-32.975a3.365 3.365 0 0 1 3.514-1.614l24.079 4.427zm-24.441-2.459a1.363 1.363 0 0 0-1.424.654l-19.216 32.974a1.362 1.362 0 0 0 .931 2.026l10.592 1.948c2.241.412 3.433 2.887 2.355 4.896l-15.158 28.27c-.725 1.351.989 2.684 2.12 1.649l41.869-38.284c.831-.76.434-2.142-.673-2.345l-9.4-1.729c-2.525-.465-3.619-3.473-1.982-5.451l14.869-17.972a1.363 1.363 0 0 0-.804-2.209l-24.079-4.427zm-439.345 1.093c-.244 1.574-2.142 2.245-3.322 1.173l-6.889-6.266-6.925 15.323a2 2 0 0 1-2.823.908l-13.31-7.688a2.002 2.002 0 0 1-.67-2.832l9.042-13.716-10.219-1.78c-1.717-.3-2.257-2.5-.871-3.559l40.14-30.7c1.432-1.096 3.468.114 3.192 1.895l-7.345 47.242zm-1.976-.307 7.345-47.241-40.141 30.7 10.217 1.78a2 2 0 0 1 1.327 3.07l-9.041 13.716 13.311 7.688 6.925-15.323a2.001 2.001 0 0 1 3.168-.656l6.889 6.266zM730.939 64.27c5.057 0 9.162 4.106 9.162 9.163 0 5.056-4.105 9.161-9.162 9.161s-9.162-4.104-9.162-9.161c0-5.058 4.105-9.163 9.162-9.163zm0 2a7.165 7.165 0 0 0-7.162 7.163 7.165 7.165 0 0 0 7.162 7.161 7.165 7.165 0 0 0 7.162-7.161 7.165 7.165 0 0 0-7.162-7.163zM127.897 826.79c5.057 0 9.162 4.105 9.162 9.162s-4.105 9.162-9.162 9.162-9.162-4.105-9.162-9.162 4.105-9.162 9.162-9.162zm0 2a7.165 7.165 0 0 0-7.162 7.162 7.165 7.165 0 0 0 7.162 7.162 7.165 7.165 0 0 0 7.162-7.162 7.165 7.165 0 0 0-7.162-7.162zm385.714-226.919c5.057 0 9.162 4.105 9.162 9.162s-4.105 9.162-9.162 9.162-9.162-4.105-9.162-9.162 4.105-9.162 9.162-9.162zm0 2a7.165 7.165 0 0 0-7.162 7.162 7.165 7.165 0 0 0 7.162 7.162 7.165 7.165 0 0 0 7.162-7.162 7.165 7.165 0 0 0-7.162-7.162zM381.353 315.167c5.057 0 9.162 4.106 9.162 9.162 0 5.057-4.105 9.162-9.162 9.162s-9.162-4.105-9.162-9.162c0-5.056 4.105-9.162 9.162-9.162zm0 2a7.166 7.166 0 0 0-7.162 7.162 7.165 7.165 0 0 0 7.162 7.162 7.165 7.165 0 0 0 7.162-7.162 7.166 7.166 0 0 0-7.162-7.162zm284.059 478.016c6.226-1.668 12.636 2.032 14.304 8.258 1.668 6.226-2.032 12.635-8.258 14.304-6.227 1.668-12.636-2.032-14.304-8.258-1.668-6.227 2.032-12.636 8.258-14.304zm.518 1.932c-5.16 1.382-8.227 6.694-6.844 11.854 1.382 5.159 6.694 8.227 11.854 6.844 5.16-1.383 8.227-6.694 6.844-11.854-1.383-5.16-6.694-8.227-11.854-6.844zm19.53 72.887c6.226-1.669 12.636 2.032 14.304 8.258 1.668 6.226-2.032 12.636-8.258 14.304-6.227 1.668-12.636-2.032-14.304-8.258-1.668-6.226 2.032-12.636 8.258-14.304zm.518 1.932c-5.16 1.382-8.227 6.694-6.844 11.854 1.382 5.16 6.694 8.227 11.854 6.844 5.16-1.383 8.227-6.694 6.844-11.854-1.383-5.16-6.694-8.227-11.854-6.844zM59.227 618.388a6.798 6.798 0 0 1 6.795 6.794 6.798 6.798 0 0 1-6.795 6.794 6.797 6.797 0 0 1-6.794-6.794 6.797 6.797 0 0 1 6.794-6.794zm0 2a4.796 4.796 0 0 0-4.794 4.794 4.796 4.796 0 0 0 4.794 4.794 4.797 4.797 0 0 0 4.795-4.794 4.797 4.797 0 0 0-4.795-4.794zm240.6-187.17a6.797 6.797 0 0 1 6.794 6.794 6.797 6.797 0 0 1-6.794 6.794 6.797 6.797 0 0 1-6.794-6.794 6.797 6.797 0 0 1 6.794-6.794zm0 2a4.796 4.796 0 0 0-4.794 4.794 4.796 4.796 0 0 0 4.794 4.794 4.796 4.796 0 0 0 4.794-4.794 4.796 4.796 0 0 0-4.794-4.794zm70.844 463.805a6.797 6.797 0 0 1 6.794 6.794 6.797 6.797 0 0 1-6.794 6.794 6.797 6.797 0 0 1-6.794-6.794 6.797 6.797 0 0 1 6.794-6.794zm0 2a4.796 4.796 0 0 0-4.794 4.794 4.796 4.796 0 0 0 4.794 4.794 4.796 4.796 0 0 0 4.794-4.794 4.796 4.796 0 0 0-4.794-4.794zm562.882-602.339a6.719 6.719 0 0 1 6.716 6.716 6.719 6.719 0 0 1-6.716 6.716 6.719 6.719 0 0 1-6.716-6.716 6.719 6.719 0 0 1 6.716-6.716zm0 2a4.718 4.718 0 0 0-4.716 4.716 4.718 4.718 0 0 0 4.716 4.716 4.718 4.718 0 0 0 4.716-4.716 4.718 4.718 0 0 0-4.716-4.716zm-400.897-88.047a6.719 6.719 0 0 1 6.716 6.716 6.719 6.719 0 0 1-6.716 6.716 6.719 6.719 0 0 1-6.716-6.716 6.719 6.719 0 0 1 6.716-6.716zm0 2a4.718 4.718 0 0 0-4.716 4.716 4.718 4.718 0 0 0 4.716 4.716 4.718 4.718 0 0 0 4.716-4.716 4.718 4.718 0 0 0-4.716-4.716zm127.399 246.265a6.719 6.719 0 0 1 6.716 6.716 6.719 6.719 0 0 1-6.716 6.716 6.719 6.719 0 0 1-6.716-6.716 6.719 6.719 0 0 1 6.716-6.716zm0 2a4.718 4.718 0 0 0-4.716 4.716 4.718 4.718 0 0 0 4.716 4.716 4.718 4.718 0 0 0 4.716-4.716 4.718 4.718 0 0 0-4.716-4.716zM641.056 188.17c1.253-1.439 3.613-.445 3.461 1.456l-.458 5.684a19.498 19.498 0 0 0 6.638 16.277l4.303 3.741c1.44 1.252.446 3.615-1.455 3.461l-5.684-.458a19.496 19.496 0 0 0-16.276 6.639l-3.742 4.302c-1.251 1.439-3.614.446-3.462-1.455l.458-5.684a19.498 19.498 0 0 0-6.638-16.277l-4.303-3.741c-1.44-1.252-.446-3.615 1.455-3.461l5.684.458a19.496 19.496 0 0 0 16.276-6.639l3.743-4.303zm-25.79 12.484 4.247 3.693a21.5 21.5 0 0 1 7.32 17.946l-.452 5.613 3.694-4.248a21.5 21.5 0 0 1 17.946-7.321l5.611.452-4.247-3.693a21.5 21.5 0 0 1-7.32-17.946l.452-5.613-3.694 4.248a21.5 21.5 0 0 1-17.946 7.321l-5.611-.452zM853.043 777.43c-.345-1.654 1.62-2.788 2.878-1.663l3.265 2.919a14.735 14.735 0 0 0 12.834 3.438l4.285-.895c1.653-.345 2.786 1.62 1.663 2.878l-2.919 3.265a14.74 14.74 0 0 0-3.439 12.834l.895 4.285c.345 1.651-1.617 2.787-2.878 1.662l-3.264-2.918a14.74 14.74 0 0 0-12.834-3.439l-4.285.895c-1.653.345-2.788-1.62-1.663-2.878l2.919-3.265a14.733 14.733 0 0 0 3.438-12.833l-.895-4.285zm-3.463 21.147 3.541-.739a16.74 16.74 0 0 1 14.574 3.905l2.696 2.41-.739-3.539a16.737 16.737 0 0 1 3.906-14.575l2.411-2.696-3.541.739a16.735 16.735 0 0 1-14.575-3.905l-2.696-2.411.739 3.541a16.733 16.733 0 0 1-3.905 14.574l-2.411 2.696zm-567.167 84.12c.852-1.456 3.066-.979 3.243.696l.464 4.334a14.676 14.676 0 0 0 7.185 11.105l3.763 2.199c1.456.849.982 3.064-.694 3.244l-4.336.463a14.675 14.675 0 0 0-11.104 7.185l-2.199 3.763c-.85 1.456-3.067.98-3.244-.695l-.464-4.335a14.67 14.67 0 0 0-7.185-11.104l-3.764-2.2c-1.453-.849-.979-3.063.696-3.243l4.335-.464a14.671 14.671 0 0 0 11.105-7.185l2.199-3.763zm-16.659 13.318 3.098 1.811a16.666 16.666 0 0 1 8.163 12.618l.382 3.567 1.811-3.098a16.67 16.67 0 0 1 12.618-8.163l3.567-.381-3.098-1.811a16.673 16.673 0 0 1-8.163-12.619l-.382-3.566-1.81 3.097a16.667 16.667 0 0 1-12.619 8.163l-3.567.382zM114.509 350.701c.089-1.586 2.151-2.139 3.022-.81l2.069 3.162a12.582 12.582 0 0 0 9.824 5.673l3.773.211c1.586.089 2.139 2.151.81 3.022l-3.162 2.069a12.584 12.584 0 0 0-5.673 9.824l-.211 3.773c-.089 1.586-2.151 2.139-3.022.81l-2.069-3.162a12.58 12.58 0 0 0-9.824-5.672l-3.773-.212c-1.586-.089-2.139-2.151-.81-3.022l3.162-2.069a12.584 12.584 0 0 0 5.673-9.824l.211-3.773zm-7.052 16.752 2.701.152a14.58 14.58 0 0 1 11.386 6.572l1.481 2.263.151-2.7a14.584 14.584 0 0 1 6.573-11.386l2.263-1.481-2.7-.151a14.581 14.581 0 0 1-11.386-6.573l-1.481-2.263-.151 2.7a14.584 14.584 0 0 1-6.573 11.386l-2.264 1.481zm183.142-79.376c5.057 0 9.162 4.105 9.162 9.162s-4.105 9.162-9.162 9.162-9.162-4.105-9.162-9.162 4.105-9.162 9.162-9.162zm0 2a7.165 7.165 0 0 0-7.162 7.162 7.165 7.165 0 0 0 7.162 7.162 7.165 7.165 0 0 0 7.162-7.162 7.165 7.165 0 0 0-7.162-7.162zM40.262 17.974c5.056 0 9.162 4.105 9.162 9.163 0 5.056-4.106 9.161-9.162 9.161-5.057 0-9.162-4.105-9.162-9.162 0-5.056 4.105-9.162 9.162-9.162zm0 2a7.165 7.165 0 0 0-7.162 7.163 7.165 7.165 0 0 0 7.162 7.161 7.165 7.165 0 0 0 7.162-7.162 7.165 7.165 0 0 0-7.162-7.162zm432.753 525.57a6.719 6.719 0 0 1 6.716 6.716 6.72 6.72 0 0 1-6.716 6.716 6.72 6.72 0 0 1-6.716-6.716 6.719 6.719 0 0 1 6.716-6.716zm0 2a4.717 4.717 0 0 0-4.716 4.716 4.718 4.718 0 0 0 4.716 4.716 4.718 4.718 0 0 0 4.716-4.716 4.717 4.717 0 0 0-4.716-4.716zM174.326 314.402a6.719 6.719 0 0 1 6.716 6.716 6.719 6.719 0 0 1-6.716 6.716 6.719 6.719 0 0 1-6.716-6.716 6.719 6.719 0 0 1 6.716-6.716zm0 2a4.718 4.718 0 0 0-4.716 4.716 4.718 4.718 0 0 0 4.716 4.716 4.718 4.718 0 0 0 4.716-4.716 4.718 4.718 0 0 0-4.716-4.716zm741.885 360.397a6.719 6.719 0 0 1 6.716 6.716 6.72 6.72 0 0 1-6.716 6.716 6.72 6.72 0 0 1-6.716-6.716 6.719 6.719 0 0 1 6.716-6.716zm0 2a4.717 4.717 0 0 0-4.716 4.716 4.718 4.718 0 0 0 4.716 4.716 4.718 4.718 0 0 0 4.716-4.716 4.717 4.717 0 0 0-4.716-4.716zM748.363 932.046a6.719 6.719 0 0 1 6.716 6.716 6.719 6.719 0 0 1-6.716 6.716 6.719 6.719 0 0 1-6.716-6.716 6.719 6.719 0 0 1 6.716-6.716zm0 2a4.718 4.718 0 0 0-4.716 4.716 4.718 4.718 0 0 0 4.716 4.716 4.718 4.718 0 0 0 4.716-4.716 4.718 4.718 0 0 0-4.716-4.716zm-279.041-81.257a6.719 6.719 0 0 1 6.716 6.716 6.72 6.72 0 0 1-6.716 6.716 6.72 6.72 0 0 1-6.716-6.716 6.719 6.719 0 0 1 6.716-6.716zm0 2a4.717 4.717 0 0 0-4.716 4.716 4.718 4.718 0 0 0 4.716 4.716 4.718 4.718 0 0 0 4.716-4.716 4.717 4.717 0 0 0-4.716-4.716zM59.15 925.553a6.72 6.72 0 0 1 6.716 6.716 6.72 6.72 0 0 1-6.716 6.716 6.72 6.72 0 0 1-6.717-6.716 6.72 6.72 0 0 1 6.717-6.716zm0 2a4.718 4.718 0 0 0-4.717 4.716 4.718 4.718 0 0 0 4.717 4.716 4.718 4.718 0 0 0 4.716-4.716 4.718 4.718 0 0 0-4.716-4.716zm39.235-224.236a3 3 0 0 1-.781 1.071l-15.752 13.786a3 3 0 0 1-4.233-.282L63.833 702.14a3.002 3.002 0 0 1 .281-4.234l15.753-13.785a2.988 2.988 0 0 1 1.164-.632 2.99 2.99 0 0 1-1.07-.78l-13.786-15.752a3 3 0 0 1 .282-4.234l15.752-13.786a3 3 0 0 1 4.234.282l13.786 15.753c.506.578.75 1.295.742 2.007a2.987 2.987 0 0 1 1.892 1.002l13.786 15.753c.506.578.75 1.296.742 2.008a2.987 2.987 0 0 1 1.892 1.002l13.786 15.752a3 3 0 0 1-.282 4.233l-15.752 13.786a3 3 0 0 1-4.233-.282l-13.786-15.752a2.978 2.978 0 0 1-.631-1.164zm-15.79-17.598a.998.998 0 0 0-1.411-.093l-15.752 13.785a1 1 0 0 0-.094 1.412l13.786 15.752a1 1 0 0 0 1.411.094l15.752-13.786a1 1 0 0 0 .094-1.412l-13.786-15.752zM98.63 667.7c.415-.364.457-.997.094-1.411l-13.786-15.753a1.001 1.001 0 0 0-1.411-.094l-15.753 13.786a1.002 1.002 0 0 0-.094 1.412l13.786 15.752c.364.415.996.457 1.411.094L98.63 667.7zm16.42 18.762a1 1 0 0 0 .094-1.411l-13.786-15.752a1 1 0 0 0-1.411-.094l-15.753 13.786a1 1 0 0 0-.093 1.411l13.786 15.752a1 1 0 0 0 1.411.094l15.752-13.786zm-14.436 15.292a.999.999 0 0 0-.093 1.41l13.786 15.752a1 1 0 0 0 1.411.094l15.752-13.786a1 1 0 0 0 .094-1.411l-13.786-15.752a1 1 0 0 0-1.411-.094l-15.753 13.787zM272.28 215.475a2.985 2.985 0 0 1-1.945-.893l-13.922-14.207a3.002 3.002 0 0 1 .043-4.243l14.207-13.921a3 3 0 0 1 4.243.043l13.922 14.207a2.99 2.99 0 0 1 .854 1.963 2.98 2.98 0 0 1 1.945.893l13.922 14.207c.538.549.822 1.252.854 1.964a2.985 2.985 0 0 1 1.946.893l13.921 14.207a3 3 0 0 1-.043 4.243l-14.207 13.921a2.999 2.999 0 0 1-4.242-.043l-13.922-14.207a2.99 2.99 0 0 1-.854-1.963 2.983 2.983 0 0 1-1.945-.893l-13.922-14.207a2.994 2.994 0 0 1-.855-1.964zm15.105-16.2c.394-.387.401-1.02.014-1.415l-13.922-14.207a1 1 0 0 0-1.414-.014l-14.207 13.922a1 1 0 0 0-.014 1.414l13.922 14.207a1 1 0 0 0 1.414.014l14.207-13.921zm16.721 17.063a1 1 0 0 0 .015-1.414l-13.922-14.207a1 1 0 0 0-1.414-.014l-14.207 13.922a1 1 0 0 0-.015 1.414l13.922 14.207a1 1 0 0 0 1.414.014l14.207-13.922zm-12.807 15.351a1 1 0 0 0-.014 1.414l13.921 14.207c.387.394 1.02.401 1.415.014l14.207-13.922a1 1 0 0 0 .014-1.414l-13.922-14.207a1 1 0 0 0-1.414-.014l-14.207 13.922zM579.77 518.134a3.302 3.302 0 0 1-2.043-.046l-21.085-7.377a3.313 3.313 0 0 1-2.033-4.219l7.377-21.086a3.314 3.314 0 0 1 4.219-2.033l21.086 7.377c.849.297 1.5.905 1.872 1.652a3.305 3.305 0 0 1 2.492-.125l21.086 7.377a3.302 3.302 0 0 1 1.872 1.653 3.305 3.305 0 0 1 2.492-.125l21.086 7.377a3.314 3.314 0 0 1 2.033 4.22l-7.377 21.085a3.313 3.313 0 0 1-4.22 2.033l-21.085-7.377a3.292 3.292 0 0 1-1.623-1.232c.192.645.19 1.354-.048 2.037l-7.377 21.085a3.298 3.298 0 0 1-1.652 1.871c.352.755.421 1.644.125 2.493l-7.377 21.085a3.313 3.313 0 0 1-4.22 2.033l-21.085-7.377a3.313 3.313 0 0 1-2.033-4.219l7.377-21.086a3.295 3.295 0 0 1 1.652-1.871 3.305 3.305 0 0 1-.125-2.492l7.377-21.086a3.295 3.295 0 0 1 1.237-1.627zm7.666-23.824a1.313 1.313 0 0 0-.805-1.672l-21.086-7.377a1.312 1.312 0 0 0-1.671.805l-7.377 21.086a1.314 1.314 0 0 0 .805 1.672l21.086 7.376a1.312 1.312 0 0 0 1.671-.805l7.377-21.085zm25.45 8.903a1.312 1.312 0 0 0-.805-1.671l-21.086-7.377a1.312 1.312 0 0 0-1.671.805l-7.377 21.086a1.314 1.314 0 0 0 .805 1.672l21.086 7.376a1.313 1.313 0 0 0 1.671-.803l7.377-21.088zm-5.489 21.748a1.314 1.314 0 0 0 .805 1.672l21.086 7.376a1.312 1.312 0 0 0 1.671-.805l7.377-21.086a1.312 1.312 0 0 0-.805-1.671l-21.086-7.377a1.312 1.312 0 0 0-1.671.804l-7.377 21.087zm-12.463 25.593a1.313 1.313 0 0 0 1.672-.804l7.377-21.086a1.314 1.314 0 0 0-.805-1.672l-21.086-7.376a1.312 1.312 0 0 0-1.671.805l-7.377 21.086a1.312 1.312 0 0 0 .805 1.671l21.085 7.376zm-21.746-5.488a1.312 1.312 0 0 0-1.671.804l-7.377 21.086a1.314 1.314 0 0 0 .805 1.672l21.086 7.376a1.312 1.312 0 0 0 1.671-.805l7.377-21.086a1.312 1.312 0 0 0-.805-1.671l-21.086-7.376zm237.083-8.775c3.925-2.621 9.153.397 8.846 5.108l-.769 11.787a3.694 3.694 0 0 0 1.398 3.142l9.274 7.316c3.707 2.923 2.452 8.827-2.124 9.991l-11.447 2.911a3.697 3.697 0 0 0-2.556 2.301l-4.092 11.081c-1.635 4.429-7.638 5.06-10.158 1.069l-6.306-9.989a3.7 3.7 0 0 0-2.98-1.72l-11.803-.467c-4.716-.187-7.171-5.701-4.154-9.331l7.551-9.084a3.698 3.698 0 0 0 .714-3.364l-3.203-11.37c-1.279-4.544 3.206-8.583 7.591-6.835l10.973 4.374c1.13.45 2.409.316 3.421-.36l9.824-6.56zm1.11 1.664-9.824 6.56a5.697 5.697 0 0 1-5.271.554l-10.973-4.374c-2.845-1.134-5.756 1.487-4.925 4.435l3.203 11.37a5.7 5.7 0 0 1-1.102 5.184l-7.551 9.084c-1.957 2.356-.364 5.934 2.696 6.055l11.803.467a5.7 5.7 0 0 1 4.591 2.65l6.305 9.989c1.636 2.589 5.531 2.18 6.592-.693l4.092-11.081a5.698 5.698 0 0 1 3.938-3.547l11.449-2.911c2.968-.755 3.783-4.587 1.378-6.483l-9.274-7.316a5.695 5.695 0 0 1-2.156-4.842l.769-11.787c.199-3.057-3.193-5.015-5.74-3.314zM688.63 703.451l-1.506-3.501a1 1 0 0 1 .524-1.314l4.574-1.968-1.812-4.209a1.004 1.004 0 0 1 .524-1.314l11.105-4.78a1 1 0 0 1 1.314.524l1.811 4.208 5.411-2.328a1 1 0 0 1 1.314.524l7.092 16.479a1.004 1.004 0 0 1-.524 1.314l-5.41 2.327 2.484 5.77a1.004 1.004 0 0 1-.524 1.314l-4.813 2.071 2.637 6.127a1 1 0 0 1-.524 1.314l-4.455 1.917 1.815 4.216a1 1 0 0 1-.524 1.313l-4.574 1.97 2.021 4.694a1 1 0 0 1-.524 1.313l-6.09 2.621a1 1 0 0 1-1.314-.523l-2.02-4.693-4.575 1.969a1 1 0 0 1-1.314-.524l-1.814-4.216-4.455 1.918a1.004 1.004 0 0 1-1.314-.524l-2.637-6.127-4.813 2.072a1.004 1.004 0 0 1-1.314-.524l-2.482-5.768-5.411 2.329a1 1 0 0 1-1.314-.524l-7.093-16.479a1.004 1.004 0 0 1 .524-1.314l5.41-2.328-1.812-4.209a1.004 1.004 0 0 1 .524-1.314l11.106-4.78a1 1 0 0 1 1.314.524l1.811 4.209 4.575-1.969a.998.998 0 0 1 1.314.523l1.505 3.5 4.253-1.83zm14.974 36.864c.439-.19.753-.324.753-.324l-2.021-4.694a.999.999 0 0 1 .524-1.313l4.574-1.97-1.815-4.216a1.004 1.004 0 0 1 .524-1.314l4.455-1.917-2.637-6.127a1 1 0 0 1 .524-1.314l4.813-2.071-2.484-5.77a1.004 1.004 0 0 1 .524-1.314l5.41-2.327-6.301-14.642-5.411 2.328a1 1 0 0 1-1.314-.524l-1.811-4.208-9.268 3.989 1.812 4.209a1.004 1.004 0 0 1-.524 1.314l-4.574 1.968 1.506 3.501a1 1 0 0 1-.524 1.314l-6.09 2.62a1.004 1.004 0 0 1-1.314-.523l-1.505-3.5-4.575 1.969a1 1 0 0 1-1.314-.523l-1.811-4.209-9.269 3.989 1.812 4.209a1.004 1.004 0 0 1-.524 1.314l-5.41 2.328 6.302 14.642 5.411-2.329a1 1 0 0 1 1.314.524l2.482 5.768 4.813-2.072a1.004 1.004 0 0 1 1.314.524l2.637 6.127 4.455-1.918a1 1 0 0 1 1.314.524l1.814 4.216 4.575-1.969a1 1 0 0 1 1.314.524l2.02 4.693 3.5-1.506zm99.192-30.659a1.001 1.001 0 0 1-1.82.83l-22.213-48.658a1 1 0 0 1 1.82-.83l22.213 48.658zm10.128 32.233a1.001 1.001 0 0 1-1.82.83l-3.628-7.948a1 1 0 0 1 1.82-.83l3.628 7.948zM135.495 454.026a5.364 5.364 0 0 1-1.208-4.995l4.255-15.881a5.372 5.372 0 0 1 6.576-3.797l29.671 7.95 13.166-13.777a5.365 5.365 0 0 1 5.272-1.477l5.922 1.587 11.34-42.321c-11.22-6.491-17.171-19.926-13.658-33.039 4.197-15.664 20.322-24.974 35.987-20.777 15.664 4.197 24.974 20.322 20.777 35.987-3.551 13.254-15.642 21.958-28.768 21.781l-11.312 42.218 5.924 1.587a5.37 5.37 0 0 1 3.827 3.915l4.512 18.514 2.673.717 1.864-6.958a5.371 5.371 0 0 1 6.577-3.797l12.618 3.381a5.37 5.37 0 0 1 3.796 6.577l-1.864 6.957 4.007 1.074a5.373 5.373 0 0 1 3.797 6.576l-4.256 15.881a5.366 5.366 0 0 1-3.544 3.722.997.997 0 0 1-.358.434l-15.584 10.558a5.372 5.372 0 0 1-4.402.741l-85.856-23.005a5.37 5.37 0 0 1-3.441-2.842l-8.217-16.936a1.005 1.005 0 0 1-.093-.555zm76.806-71.746-11.219 41.872 10.502 2.814 11.2-41.798a29.518 29.518 0 0 1-5.176-.905 29.446 29.446 0 0 1-5.307-1.983zm-67.7 49.005a3.371 3.371 0 0 0-4.127 2.382l-4.255 15.881a3.37 3.37 0 0 0 2.382 4.127l112.331 30.099a3.37 3.37 0 0 0 4.126-2.383l4.256-15.881a3.37 3.37 0 0 0-2.383-4.126l-112.33-30.099zm-6.258 24.391 7.262 14.968a3.366 3.366 0 0 0 2.159 1.783l85.856 23.005a3.372 3.372 0 0 0 2.762-.465l13.772-9.331-111.811-29.96zM232.3 329.431c-14.598-3.912-29.626 4.764-33.537 19.363-3.912 14.598 4.764 29.626 19.363 33.537 14.598 3.912 29.626-4.764 33.537-19.363 3.912-14.598-4.765-29.626-19.363-33.537zm-6.724 121.48-4.254-17.45a3.368 3.368 0 0 0-2.401-2.457l-26.212-7.023a3.366 3.366 0 0 0-3.308.927l-12.409 12.986 48.584 13.017zm25.934 6.949 1.864-6.957a3.37 3.37 0 0 0-2.382-4.127l-12.618-3.381a3.37 3.37 0 0 0-4.127 2.383l-1.864 6.957 19.127 5.125zm540.553 197.896a1 1 0 0 1 1.82-.83l9.463 20.73 11.209-5.118a1.001 1.001 0 0 1 .83 1.82l-11.209 5.117 7.002 15.338a1 1 0 0 1-1.82.83l-17.295-37.887zm-535.491-20.565c2.099-2.522 6.181-1.541 6.906 1.66l1.644 7.263a1.961 1.961 0 0 0 1.185 1.387l6.916 2.763c3.047 1.218 3.377 5.402.555 7.081l-6.398 3.808a1.96 1.96 0 0 0-.954 1.556l-.491 7.431c-.217 3.275-4.094 4.88-6.562 2.717l-5.6-4.91a1.96 1.96 0 0 0-1.774-.426l-7.218 1.829c-3.183.807-5.908-2.385-4.613-5.401l2.939-6.843a1.96 1.96 0 0 0-.142-1.818l-3.971-6.3c-1.751-2.777.443-6.356 3.711-6.056l7.416.681a1.963 1.963 0 0 0 1.687-.698l4.764-5.724zm1.538 1.28-4.766 5.724a3.96 3.96 0 0 1-3.405 1.41l-7.416-.681c-1.618-.148-2.704 1.623-1.837 2.997l3.971 6.301a3.96 3.96 0 0 1 .288 3.674l-2.939 6.843c-.641 1.492.708 3.072 2.283 2.673l7.218-1.829a3.955 3.955 0 0 1 3.584.86l5.6 4.91c1.222 1.071 3.141.275 3.248-1.345l.491-7.431a3.959 3.959 0 0 1 1.926-3.142l6.4-3.808c1.396-.831 1.233-2.903-.275-3.505l-6.916-2.763a3.958 3.958 0 0 1-2.393-2.803l-1.644-7.263c-.359-1.585-2.379-2.07-3.418-.822zm-51.419-412.497c.808-4.054 5.914-5.422 8.641-2.315l6.617 7.541a2.99 2.99 0 0 0 2.595.996l9.963-1.176c4.106-.485 6.984 3.948 4.872 7.502l-5.127 8.623a2.989 2.989 0 0 0-.146 2.776l4.198 9.112c1.729 3.755-1.597 7.863-5.629 6.952l-9.785-2.211a2.988 2.988 0 0 0-2.686.719l-7.369 6.807c-3.036 2.806-7.972.911-8.351-3.205l-.921-9.989a2.988 2.988 0 0 0-1.515-2.332l-8.751-4.905c-3.606-2.021-3.329-7.3.468-8.933l9.216-3.963a2.984 2.984 0 0 0 1.75-2.161l1.96-9.838zm1.962.391-1.96 9.839a4.994 4.994 0 0 1-2.922 3.607l-9.216 3.963c-2.275.978-2.44 4.14-.28 5.35l8.751 4.905a4.99 4.99 0 0 1 2.529 3.893l.921 9.99c.227 2.465 3.183 3.6 5.001 1.92l7.369-6.808a4.988 4.988 0 0 1 4.484-1.201l9.785 2.211c2.416.546 4.408-1.915 3.373-4.164l-4.198-9.112a4.986 4.986 0 0 1 .243-4.635l5.126-8.623c1.266-2.129-.458-4.784-2.918-4.494l-9.963 1.176a4.987 4.987 0 0 1-4.333-1.664l-6.617-7.54c-1.633-1.861-4.691-1.042-5.175 1.387zm597.979 508.759a1 1 0 0 1-1.82.83l-3.053-6.688a1 1 0 0 1 1.82-.83l3.053 6.688zm-5.625-7.624a1.001 1.001 0 0 1-1.82.83l-3.482-7.627a1 1 0 0 1 1.82-.83l3.482 7.627zm-11.806-9.071a1 1 0 0 1 .83 1.82l-3.08 1.406a1 1 0 0 1-.83-1.82l3.08-1.406zm4.457-.022a1 1 0 0 1 .83 1.82l-1.96.894a1 1 0 0 1-.83-1.82l1.96-.894zm32.264-27.589a1.001 1.001 0 0 1-1.82.83l-7.413-16.237a1 1 0 0 1 .495-1.325l11.192-5.11a1.001 1.001 0 0 1 .83 1.82l-10.282 4.694 6.998 15.328zm12.6-6.346a1.001 1.001 0 0 1-1.82.83l-6.513-14.266a1 1 0 0 1 .495-1.325l11.329-5.172a1 1 0 0 1 1.325.495l20.955 45.902a1.001 1.001 0 0 1-1.82.83l-20.539-44.992-9.51 4.341 6.098 13.357zm22.877 29.899a1 1 0 0 1 1.82-.83l3.116 6.826a1 1 0 0 1-1.82.83l-3.116-6.826zm2.256 9.687a1 1 0 0 1 1.82-.83l4.354 9.538a1 1 0 0 1-.495 1.325l-49.488 22.592a1 1 0 0 1-1.325-.495l-4.921-10.779a1 1 0 0 1 1.82-.83l4.505 9.869 47.669-21.761-3.939-8.629zm-70.35-14.891a1 1 0 0 1-.83-1.82l3.429-1.565a1 1 0 0 1 .83 1.82l-3.429 1.565zm-3.629-4.083a1 1 0 0 1 .83 1.82l-9.6 4.381 3.717 8.142a1.001 1.001 0 0 1-1.82.83l-4.132-9.051a1 1 0 0 1 .495-1.325l10.51-4.797zm-8.677-43.387a1.001 1.001 0 0 1-.83-1.82l9.908-4.524a1.001 1.001 0 0 1 .83 1.82l-9.908 4.524zm19.729-6.329a1.001 1.001 0 0 1-.83-1.82l6.546-2.989a1.001 1.001 0 0 1 .83 1.82l-6.546 2.989zm-23.688-13.051a1 1 0 0 1 1.82-.83l3.659 8.015a1.001 1.001 0 0 1-1.82.83l-3.659-8.015zm-11.935 29.312a1.001 1.001 0 0 1-.83-1.82l6.543-2.987a1.001 1.001 0 0 1 .83 1.82l-6.543 2.987zm-275.91-652.52c13.453 3.268 21.72 16.843 18.452 30.295-3.269 13.453-16.844 21.721-30.296 18.452-13.453-3.267-21.72-16.843-18.452-30.295 3.269-13.453 16.844-21.72 30.296-18.453zm-.472 1.943c-12.38-3.008-24.873 4.602-27.881 16.98-3.007 12.38 4.601 24.874 16.981 27.882 12.38 3.007 24.873-4.602 27.881-16.982 3.007-12.379-4.601-24.872-16.981-27.88zm4.773 21.352c2.227 2.124 1.319 5.863-1.635 6.73l-13.598 3.987c-2.953.866-5.736-1.79-5.01-4.78l3.345-13.77c.727-2.991 4.419-4.074 6.646-1.95l10.252 9.783zm-1.38 1.446-10.252-9.782c-1.113-1.061-2.959-.52-3.322.974l-3.345 13.77c-.363 1.495 1.027 2.823 2.504 2.39l13.598-3.987c1.476-.434 1.93-2.303.817-3.365zM161.257 928.894a3.306 3.306 0 0 1-1.737 1.791l-20.449 8.992a3.315 3.315 0 0 1-4.365-1.699l-8.992-20.449a3.314 3.314 0 0 1 1.699-4.365l20.449-8.992a3.29 3.29 0 0 1 2.025-.206 3.3 3.3 0 0 1-1.352-1.521l-8.992-20.449a3.314 3.314 0 0 1 1.699-4.365l20.449-8.992a3.303 3.303 0 0 1 2.495-.069 3.301 3.301 0 0 1 1.738-1.793l20.449-8.992a3.315 3.315 0 0 1 4.365 1.699l8.991 20.449a3.314 3.314 0 0 1-1.698 4.365l-20.449 8.992a3.297 3.297 0 0 1-2.032.205 3.3 3.3 0 0 1 1.359 1.525l8.991 20.449a3.314 3.314 0 0 1-1.698 4.365l-20.449 8.992a3.301 3.301 0 0 1-2.496.068zm-10.861-22.218a1.312 1.312 0 0 0-1.729-.673l-20.449 8.992a1.312 1.312 0 0 0-.673 1.729l8.992 20.449a1.313 1.313 0 0 0 1.729.673l20.449-8.992a1.313 1.313 0 0 0 .673-1.727l-8.992-20.451zm13.829-35.534a1.313 1.313 0 0 0-1.729-.672l-20.449 8.992a1.313 1.313 0 0 0-.673 1.729l8.992 20.449a1.313 1.313 0 0 0 1.729.673l20.449-8.992a1.313 1.313 0 0 0 .673-1.729l-8.992-20.45zm10.823 19.644a1.313 1.313 0 0 0 1.729.673l20.449-8.992a1.313 1.313 0 0 0 .673-1.729l-8.992-20.449a1.312 1.312 0 0 0-1.729-.673l-20.449 8.992a1.312 1.312 0 0 0-.673 1.729l8.992 20.449zm-13.829 35.536a1.313 1.313 0 0 0 1.729.673l20.449-8.992a1.314 1.314 0 0 0 .673-1.729l-8.992-20.449a1.312 1.312 0 0 0-1.729-.673l-20.449 8.992a1.312 1.312 0 0 0-.674 1.727l8.993 20.451zm-24.712-328.138a34.345 34.345 0 0 1-16.143-17.955c-6.96-17.714 1.771-37.747 19.486-44.708 17.714-6.961 37.747 1.771 44.708 19.486a34.356 34.356 0 0 1 .306 24.396l26.71 20.849c1.287 1.006.891 3.047-.679 3.499l-13.105 3.762-.743 13.639c-.088 1.622-1.972 2.468-3.244 1.456l-28.73-22.894-.003.001-5.461 36.327c-.242 1.607-2.199 2.269-3.366 1.142l-9.829-9.485-12.177 6.173c-1.452.736-3.127-.478-2.881-2.087l5.151-33.601zm46.338-19.088c2.751-7.276 2.917-15.555-.149-23.358-6.556-16.687-25.428-24.912-42.115-18.355-16.687 6.556-24.912 25.428-18.355 42.115 3.047 7.755 8.754 13.682 15.665 17.148a.985.985 0 0 1 .306.152c7.898 3.857 17.326 4.52 26.144 1.055 8.692-3.415 15.088-10.171 18.295-18.22a.986.986 0 0 1 .209-.537zm-40.614-28.03c.269-3.195 4.086-4.694 6.458-2.537l6.332 5.759a1.87 1.87 0 0 0 1.684.437l8.335-1.952c3.122-.732 5.727 2.435 4.409 5.357l-3.52 7.803a1.867 1.867 0 0 0 .105 1.736l4.432 7.324c1.66 2.743-.547 6.2-3.733 5.848l-8.51-.936a1.866 1.866 0 0 0-1.618.636l-5.595 6.477c-2.096 2.427-6.065 1.398-6.716-1.742l-1.739-8.382a1.867 1.867 0 0 0-1.105-1.342l-7.891-3.32c-2.955-1.245-3.202-5.336-.417-6.926l7.434-4.244c.535-.305.884-.853.937-1.467l.718-8.529zm1.992.168-.718 8.53a3.869 3.869 0 0 1-1.937 3.035l-7.434 4.243c-1.345.768-1.226 2.746.201 3.346l7.891 3.32a3.871 3.871 0 0 1 2.287 2.78l1.739 8.382c.315 1.515 2.232 2.013 3.244.841l5.595-6.478a3.866 3.866 0 0 1 3.351-1.316l8.51.936c1.539.17 2.604-1.499 1.802-2.824l-4.432-7.324a3.871 3.871 0 0 1-.217-3.594l3.52-7.803c.637-1.412-.621-2.941-2.129-2.587l-8.335 1.952a3.873 3.873 0 0 1-3.485-.905l-6.333-5.759c-1.146-1.042-2.989-.319-3.12 1.225zm22.933 47.583 27.893 22.227.743-13.639a2 2 0 0 1 1.446-1.814l13.105-3.763-26.251-20.49c-3.239 7.469-9.104 13.797-16.936 17.479zm-28.766.278-5.057 32.993 12.175-6.173a2.002 2.002 0 0 1 2.294.344l9.829 9.486 5.302-35.269c-8.33 2.663-17.031 1.976-24.543-1.381zm1.258-524.72a1.984 1.984 0 0 1-.783.656l-2.949 1.387 4.873 10.358a2 2 0 0 1-.959 2.662l-5.498 2.585 2.452 5.213c.47.998.04 2.19-.958 2.66l-7.126 3.353 1.93 4.104c.47.999.04 2.191-.958 2.661l-1.382.65 7.218 15.344 1.38-.649a2 2 0 0 1 2.663.957l1.843 3.919 14.434-6.79a2 2 0 0 1 2.661.958l3.495 7.43a2 2 0 0 1-.959 2.661l-26.457 12.446-.852-1.81 26.458-12.446-3.495-7.429-14.434 6.79a2 2 0 0 1-2.661-.959l-1.843-3.919-1.382.651a2 2 0 0 1-2.661-.959l-7.218-15.345c-.47-1-.042-2.19.958-2.66l1.382-.65-1.93-4.104a2 2 0 0 1 .958-2.661l7.126-3.352-2.452-5.213a2.001 2.001 0 0 1 .958-2.66l5.499-2.587-4.873-10.358a2.001 2.001 0 0 1 .958-2.66l2.95-1.387-20.111-42.752-31.216 14.684-.851-1.81 31.215-14.684c1-.47 2.192-.04 2.662.959l.932 1.979 12.786-6.015c1-.47 2.192-.041 2.662.958l1.455 3.093 3.941-1.855c1-.47 2.192-.04 2.662.96 0 0 2.123 4.512 2.123 4.515l3.353-1.578a2 2 0 0 1 2.662.959l7.573 16.098c.47.998.04 2.19-.958 2.66l-3.354 1.578 1.955 4.159c.472 1 .043 2.191-.957 2.661l-3.942 1.855 1.823 3.876c.47.998.042 2.19-.958 2.66l-12.779 6.011a1.99 1.99 0 0 1-1.044.181zm-12.87-29.74 7.572 16.099.008-.005 12.162-5.72-7.572-16.1-12.17 5.726zm-.852-1.81 12.17-5.725a2 2 0 0 1 2.662.959l7.571 16.097c.472 1 .043 2.191-.957 2.662l-12.162 5.721 4.631 9.844 12.778-6.01-1.823-3.877c-.47-.998-.04-2.19.959-2.66l3.941-1.855-1.956-4.159a2 2 0 0 1 .958-2.662l3.354-1.576-7.573-16.099-3.353 1.578c-1 .47-2.189.041-2.662-.958l-2.123-4.515-3.942 1.854a2 2 0 0 1-2.661-.959l-1.455-3.093-12.786 6.015 4.429 9.419zm782.916 195.289a7.89 7.89 0 0 1-5.608 5.69l-19.432 5.207a7.893 7.893 0 0 1-9.662-5.579L868.933 224a7.893 7.893 0 0 1 5.579-9.662l19.432-5.207a7.89 7.89 0 0 1 7.701 2.124 7.943 7.943 0 0 1 2.149-3.726 7.888 7.888 0 0 1-5.686-5.607l-5.207-19.432a7.893 7.893 0 0 1 5.579-9.662l19.432-5.207a7.893 7.893 0 0 1 9.662 5.579l5.207 19.432a7.89 7.89 0 0 1-2.121 7.698 7.93 7.93 0 0 1 3.725 2.151 7.89 7.89 0 0 1 5.608-5.69l19.432-5.207a7.893 7.893 0 0 1 9.662 5.579l5.207 19.432a7.893 7.893 0 0 1-5.579 9.662l-19.432 5.207a7.893 7.893 0 0 1-7.701-2.123 7.888 7.888 0 0 1-5.607 5.69l-19.432 5.207a7.89 7.89 0 0 1-7.701-2.124zm32.711-12.746a5.891 5.891 0 0 0 7.212 4.164l19.433-5.207a5.892 5.892 0 0 0 4.164-7.213l-5.207-19.432a5.892 5.892 0 0 0-7.213-4.164l-19.432 5.207a5.893 5.893 0 0 0-4.164 7.213l5.207 19.432zm9.716-6.488-3.252-12.137a1 1 0 0 1 .606-1.192s2.457-.95 5.161-.984c2.934-.037 6.099.972 7.165 4.948 1.057 3.945-1.122 6.525-3.622 8.092-2.32 1.455-4.886 1.993-4.886 1.993a1 1 0 0 1-1.172-.72zm1.673-1.484c.834-.256 2.116-.727 3.323-1.483 1.831-1.148 3.526-2.992 2.752-5.88-.765-2.857-3.1-3.493-5.208-3.466-1.43.017-2.781.331-3.615.573l2.748 10.256zm-51.268-2.169a5.892 5.892 0 0 0-7.213-4.164l-19.432 5.207a5.892 5.892 0 0 0-4.164 7.213l5.207 19.432a5.892 5.892 0 0 0 7.212 4.164l19.433-5.207a5.892 5.892 0 0 0 4.164-7.213l-5.207-19.432zm-15.295 18.987-.47 3.329a1 1 0 0 1-1.98-.28l2.135-15.121a1 1 0 0 1 1.778-.476l9.409 12.027a1 1 0 0 1-1.576 1.232l-2.074-2.652a1.032 1.032 0 0 1-.111.037l-7.064 1.893-.047.011zm5.887-3.647-4.551-5.817-1.032 7.313 5.583-1.496zm15.351-23.027a5.892 5.892 0 0 0-4.011 7.17l5.207 19.432a5.892 5.892 0 0 0 7.212 4.164l19.433-5.207a5.891 5.891 0 0 0 4.163-7.213l-5.206-19.432a5.892 5.892 0 0 0-7.059-4.203 6.917 6.917 0 0 1-.154.043l-19.432 5.207-.153.039zm17.34 6.546a1 1 0 0 1-1.858.74s-.211-.463-.78-.738c-.478-.231-1.169-.309-2.138-.049-.997.267-1.841.725-2.222 1.491-.236.475-.268 1.059-.082 1.753.256.957.834 1.334 1.547 1.485.649.137 1.378.131 2.11.143 2.43.04 4.803.298 5.671 3.536.587 2.192-.106 5.091-3.186 5.917-2.187.586-3.596.094-4.511-.622-1.422-1.113-1.672-2.913-1.672-2.913a1.002 1.002 0 0 1 .854-1.128 1.002 1.002 0 0 1 1.128.854s.136.997.922 1.612c.558.436 1.429.622 2.761.265 1.785-.478 2.113-2.197 1.772-3.467-.374-1.397-1.244-1.825-2.243-1.965-.886-.125-1.85-.074-2.75-.122-1.985-.106-3.682-.641-4.335-3.077-.336-1.254-.203-2.304.224-3.162.614-1.235 1.887-2.102 3.494-2.532 1.601-.428 2.737-.201 3.527.181 1.335.646 1.767 1.798 1.767 1.798zm1.881-13.767a5.893 5.893 0 0 0 4.011-7.17l-5.207-19.432a5.892 5.892 0 0 0-7.213-4.164l-19.432 5.207a5.892 5.892 0 0 0-4.164 7.213l5.207 19.432a5.892 5.892 0 0 0 7.059 4.203l.154-.043 19.432-5.207.153-.039zm-24.207-16.198a1 1 0 0 1 1.666-1.106l5.832 8.785.933-7.703a1.002 1.002 0 0 1 1.826-.434l4.107 6.179.975-10.52a1 1 0 0 1 1.992.184l-1.236 13.339a1.001 1.001 0 0 1-1.829.462l-4.175-6.281-.934 7.706a1.002 1.002 0 0 1-1.826.433l-7.331-11.044zm-408.69 587.525c.28 1.406.442 2.857.477 4.34.323 13.852-10.662 25.36-24.513 25.683-13.852.323-25.36-10.662-25.683-24.513-.323-13.852 10.662-25.36 24.513-25.683a25.07 25.07 0 0 1 7.929 1.086.985.985 0 0 1 .235-.291l38.766-32.937c.008-.008.016-.014.024-.02a90.918 90.918 0 0 1-3.354-5.566l-16.928-30.504a3.993 3.993 0 0 1 1.236-5.234l16.509-11.303a3.994 3.994 0 0 1 5.769 1.394l14.555 26.889.085.156 147.043-133.922 38.269 2.642-3.447 38.368-155.912 122.464 22.511 17.174a3.994 3.994 0 0 1 .485 5.915l-13.724 14.56a3.996 3.996 0 0 1-5.363.41l-27.514-21.449a91.97 91.97 0 0 1-3.172-2.59l-38.5 32.757a.993.993 0 0 1-.296.174zm3.214-89.375 16.928 30.504a88.846 88.846 0 0 0 23.056 26.952l27.514 21.449a1.993 1.993 0 0 0 2.677-.204l13.724-14.56c.811-.861.7-2.235-.241-2.953l-24.31-18.545a90.834 90.834 0 0 1-24.785-28.975l-14.555-26.889a1.995 1.995 0 0 0-2.881-.696l-16.509 11.303a1.996 1.996 0 0 0-.618 2.614zm-18.39 71.036c7.032 2.862 12.502 8.828 14.659 16.23l37.791-32.153a90.846 90.846 0 0 1-14.407-16.4l-38.043 32.323zm55.798-56.372a88.833 88.833 0 0 0 23.154 26.389l.154.118 155.641-122.251 3.187-35.474-35.381-2.442-146.755 133.66zm18.808 8.835a.999.999 0 1 1-1.294-1.524l131.839-111.942a.999.999 0 1 1 1.294 1.524L553.371 705.77zm-84.589 47.702c-12.748.297-22.857 10.889-22.561 23.637.297 12.748 10.889 22.857 23.637 22.561 12.748-.297 22.857-10.889 22.561-23.637-.297-12.748-10.889-22.857-23.637-22.561zm.297 12.738c5.718-.133 10.469 4.402 10.603 10.121.133 5.718-4.402 10.469-10.121 10.603-5.718.133-10.469-4.402-10.603-10.121-.133-5.718 4.402-10.469 10.121-10.603zm.046 2c-4.615.107-8.275 3.942-8.167 8.557.107 4.615 3.942 8.275 8.557 8.167 4.615-.107 8.275-3.942 8.167-8.557-.107-4.615-3.942-8.275-8.557-8.167zm-31.949-79.91-12.742 1.641a1.001 1.001 0 0 1-.256-1.984l12.742-1.641-1.64-12.741a1.001 1.001 0 0 1 1.984-.256l1.64 12.742 12.742-1.641a1.001 1.001 0 0 1 .256 1.984l-12.743 1.641 1.641 12.743a1.001 1.001 0 0 1-1.984.256l-1.64-12.744zM104.592 789.74l-10.843 6.892a1 1 0 0 1-1.073-1.688l10.843-6.892-6.892-10.843a1 1 0 0 1 1.688-1.072l6.892 10.842 10.843-6.892a1 1 0 0 1 1.072 1.688l-10.842 6.892 6.892 10.844a1 1 0 0 1-1.688 1.072l-6.892-10.843zm69.103-612.361-12.41-3.325a1 1 0 0 1 .518-1.932l12.41 3.325 3.325-12.409a1 1 0 0 1 1.932.518l-3.325 12.409 12.41 3.325a1 1 0 0 1-.518 1.932l-12.41-3.325-3.325 12.41a1 1 0 0 1-1.932-.518l3.325-12.41zm370.735 261.36-12.698-1.957a1 1 0 0 1 .304-1.976l12.699 1.956 1.956-12.697a1 1 0 0 1 1.976.304l-1.956 12.697 12.698 1.957a1 1 0 0 1-.304 1.976l-12.698-1.956-1.957 12.698a1 1 0 0 1-1.976-.304l1.956-12.698zM83.71 504.307l-12.698-1.956a1 1 0 0 1 .305-1.976l12.698 1.955 1.956-12.697a1 1 0 0 1 1.976.304l-1.956 12.698 12.698 1.956a1 1 0 1 1-.304 1.976l-12.698-1.955-1.956 12.698a1 1 0 0 1-1.977-.304l1.956-12.699zm750.933-239.632.212-3.773c.088-1.586 2.153-2.138 3.021-.81l2.07 3.162a12.582 12.582 0 0 0 9.824 5.673l3.773.211c1.586.089 2.139 2.151.81 3.022l-3.162 2.069a12.585 12.585 0 0 0-5.673 9.824l-.211 3.773c-.089 1.586-2.151 2.139-3.022.81l-2.069-3.162a12.584 12.584 0 0 0-9.824-5.672l-3.771-.211c-1.588-.087-2.141-2.153-.812-3.022l3.162-2.07a12.58 12.58 0 0 0 5.672-9.824zm-6.839 12.979 2.7.152a14.583 14.583 0 0 1 11.386 6.572l1.481 2.263.151-2.7a14.584 14.584 0 0 1 6.573-11.386l2.263-1.481-2.7-.151a14.581 14.581 0 0 1-11.386-6.573l-1.481-2.263-.152 2.7a14.58 14.58 0 0 1-6.572 11.386l-2.263 1.481zM61.689 156.544c1.185-1.059 3.034.01 2.709 1.565l-.772 3.699a12.583 12.583 0 0 0 2.936 10.958l2.518 2.816c1.06 1.184-.009 3.036-1.564 2.71l-3.699-.772a12.578 12.578 0 0 0-10.957 2.936l-2.817 2.518c-1.185 1.06-3.035-.009-2.71-1.564l.773-3.699a12.584 12.584 0 0 0-2.937-10.958l-2.518-2.817c-1.06-1.187.009-3.035 1.564-2.709l3.699.772a12.582 12.582 0 0 0 10.958-2.936l2.817-2.519zm-16.831 6.86 1.803 2.017a14.58 14.58 0 0 1 3.402 12.698l-.553 2.649 2.017-1.803a14.579 14.579 0 0 1 12.699-3.403l2.647.553-1.802-2.017a14.583 14.583 0 0 1-3.403-12.698l.553-2.649-2.016 1.804a14.585 14.585 0 0 1-12.699 3.402l-2.648-.553zm255.665 187.445.494-2.206a1.518 1.518 0 0 1 1.812-1.152l1.482.332.531-2.37a1.517 1.517 0 0 1 1.812-1.151l92.562 20.702a1.52 1.52 0 0 1 1.15 1.813l-.531 2.371 1.484.331a1.522 1.522 0 0 1 1.149 1.813l-.494 2.208 1.493.334a1.518 1.518 0 0 1 1.152 1.812l-5.793 25.901a1.52 1.52 0 0 1-1.813 1.15l-1.494-.335-.494 2.21a1.52 1.52 0 0 1-1.813 1.148l-1.482-.331-.53 2.372a1.522 1.522 0 0 1-1.813 1.149l-92.56-20.703a1.518 1.518 0 0 1-1.152-1.812l.531-2.371-1.481-.332a1.517 1.517 0 0 1-1.151-1.812l.494-2.208-1.497-.334a1.52 1.52 0 0 1-1.148-1.813l5.792-25.902a1.52 1.52 0 0 1 1.813-1.148l1.495.334zm-7.043 26.682 1.496.334a1.522 1.522 0 0 1 1.149 1.813l-.494 2.208 1.483.331a1.52 1.52 0 0 1 1.149 1.813l-.531 2.37 91.621 20.493.53-2.373a1.52 1.52 0 0 1 1.813-1.148l1.482.331.494-2.206a1.518 1.518 0 0 1 1.812-1.152l1.495.335 5.583-24.959-1.497-.334a1.52 1.52 0 0 1-1.148-1.813l.494-2.208-1.484-.331a1.522 1.522 0 0 1-1.149-1.813l.531-2.371-91.621-20.492-.53 2.368a1.516 1.516 0 0 1-1.812 1.153l-1.482-.332-.494 2.21a1.52 1.52 0 0 1-1.813 1.148l-.002-.001-1.493-.333-5.582 24.959zm41.494-13.887a1.001 1.001 0 0 1 1.952.436l-4.069 18.19 9.036 2.021a1.001 1.001 0 0 1-.436 1.952l-9.035-2.021a2.001 2.001 0 0 1-1.517-2.388l4.069-18.19zm14.578 4.286a2.001 2.001 0 0 1 2.388-1.517l10.164 2.274a2 2 0 0 1 1.515 2.388l-4.068 18.19a1.001 1.001 0 0 1-1.952-.436l1.448-6.472-10.164-2.274-1.448 6.472a1.001 1.001 0 0 1-1.952-.436l4.069-18.189zm9.931 12.475 2.185-9.766-10.164-2.274-2.185 9.766 10.164 2.274zm10.784 4.868-3.053-.683a2.001 2.001 0 0 1-1.517-2.388l2.492-11.14a1.001 1.001 0 0 1 1.952.436l-2.492 11.14 3.975.889.056.011a.916.916 0 0 1 .056.014l3.973.889 2.492-11.139a1.001 1.001 0 0 1 1.952.436l-2.492 11.138a2.001 2.001 0 0 1-2.388 1.517l-3.054-.683-1.362 6.09a1.001 1.001 0 0 1-1.952-.436l1.362-6.091zm-51.823-23.939a2 2 0 0 1 2.388-1.515l8.059 1.803a2.001 2.001 0 0 1 1.517 2.388l-2.168 9.695a2.003 2.003 0 0 1-2.389 1.515l-8.059-1.803-1.464 6.544a1.001 1.001 0 0 1-1.952-.436l4.068-18.191zm-.216 10.131 8.06 1.802 2.168-9.693-8.061-1.803-2.167 9.694zM187.931 696.228a.999.999 0 0 1 1.168-.797l36.896 6.974a.999.999 0 0 1 .797 1.168l-1.775 9.39a1 1 0 0 1-1.168.797l-28.767-5.437-1.809 9.571 21.011 3.971 1.934.352a1.002 1.002 0 0 1 .804 1.17l-.718 3.795 4.835.914a1 1 0 0 1 .797 1.169l-3.501 18.519a1.001 1.001 0 0 1-1.168.797l-4.834-.914-1.102 5.83a1 1 0 0 1-1.169.797l-36.896-6.974a1 1 0 0 1-.797-1.168l1.775-9.39a1 1 0 0 1 1.168-.797l28.767 5.437 1.809-9.57-22.951-4.325a.998.998 0 0 1-.798-1.169l.898-4.75-4.834-.914a.999.999 0 0 1-.797-1.168l3.32-17.565a1 1 0 0 1 1.168-.797l4.835.914 1.102-5.83zm1.779 1.354-1.102 5.83a1 1 0 0 1-1.168.797l-4.835-.914-2.948 15.6 4.834.914c.543.102.9.624.797 1.168l-.898 4.75 22.952 4.325a1 1 0 0 1 .797 1.168l-2.18 11.536a1 1 0 0 1-1.169.797l-28.766-5.437-1.404 7.425 34.931 6.602 1.102-5.83a.999.999 0 0 1 1.168-.797l4.835.914 3.129-16.554-4.835-.914a1 1 0 0 1-.796-1.168l.716-3.79-.951-.173-.006-.001-21.994-4.157a1 1 0 0 1-.797-1.168l2.18-11.537a1 1 0 0 1 1.169-.796l28.766 5.437 1.404-7.425-34.931-6.602zm42.267 6.252a.997.997 0 0 1 .749-.156l42.713 8.073a1 1 0 0 1 .797 1.168l-1.634 8.643a1 1 0 0 1-1.168.797l-12.795-2.419-7.825 41.398a1 1 0 0 1-1.168.797l-14.872-2.811a.999.999 0 0 1-.797-1.168l7.825-41.398-13.081-2.473a1 1 0 0 1-.797-1.168l1.634-8.643c.049-.26.2-.491.419-.64zm1.36 1.994-1.262 6.678 13.081 2.472c.542.103.899.626.797 1.169l-7.825 41.398 12.907 2.439 7.824-41.398a1.002 1.002 0 0 1 1.169-.797l12.795 2.419 1.262-6.678-40.748-7.702zm147.141 26.075a.998.998 0 0 1 .749-.157l42.713 8.074a1 1 0 0 1 .797 1.168l-1.634 8.643a1 1 0 0 1-1.168.796l-12.795-2.418-7.825 41.398a1.001 1.001 0 0 1-1.169.797l-14.872-2.811a1.002 1.002 0 0 1-.797-1.169l7.825-41.398-13.08-2.472a1 1 0 0 1-.797-1.168l1.633-8.643c.05-.261.2-.491.42-.64zm1.36 1.994-1.262 6.678 13.08 2.472a1 1 0 0 1 .797 1.168l-7.825 41.398 12.907 2.44 7.825-41.398a1 1 0 0 1 1.168-.797l12.796 2.418 1.262-6.677-40.748-7.702zM90.924 249.601a6.89 6.89 0 0 1 9.269 2.979 6.889 6.889 0 0 1-2.98 9.269 6.887 6.887 0 0 1-9.268-2.979 6.887 6.887 0 0 1 2.979-9.269zm.914 1.779a4.886 4.886 0 0 0-2.114 6.576 4.887 4.887 0 0 0 6.576 2.114 4.886 4.886 0 0 0 2.113-6.576 4.886 4.886 0 0 0-6.575-2.114zm14.273-17.215a6.887 6.887 0 0 1-2.979 9.269 6.888 6.888 0 0 1-9.269-2.979 6.889 6.889 0 0 1 2.98-9.269 6.887 6.887 0 0 1 9.268 2.979zm-1.779.914a4.887 4.887 0 0 0-6.576-2.114 4.887 4.887 0 0 0-2.114 6.576 4.887 4.887 0 0 0 6.576 2.114 4.887 4.887 0 0 0 2.114-6.576zM81.781 246.66a6.888 6.888 0 0 1-2.979 9.269 6.888 6.888 0 0 1-9.269-2.979 6.888 6.888 0 0 1 2.979-9.269 6.888 6.888 0 0 1 9.269 2.979zm-1.779.914a4.887 4.887 0 0 0-6.576-2.114 4.887 4.887 0 0 0-2.114 6.576 4.887 4.887 0 0 0 6.576 2.114 4.887 4.887 0 0 0 2.114-6.576zm-55.33 9.697 4.035 7.858a.457.457 0 0 0 .615.198l7.857-4.035a3.914 3.914 0 0 1 5.269 1.693l3.146 6.128a3.914 3.914 0 0 1-1.693 5.269l-7.859 4.035a.455.455 0 0 0-.197.613l4.035 7.858a3.914 3.914 0 0 1-1.694 5.269l-6.127 3.146a3.913 3.913 0 0 1-5.268-1.693l-4.035-7.858a.456.456 0 0 0-.614-.198l-7.858 4.035a3.913 3.913 0 0 1-5.269-1.694l-3.146-6.127a3.914 3.914 0 0 1 1.694-5.269l7.857-4.033a.458.458 0 0 0 .198-.615l-4.035-7.858a3.914 3.914 0 0 1 1.693-5.269l6.128-3.146a3.913 3.913 0 0 1 5.268 1.693zm-1.779.914a1.913 1.913 0 0 0-2.576-.827l-6.127 3.146a1.913 1.913 0 0 0-.828 2.575l4.035 7.858a2.457 2.457 0 0 1-1.063 3.307l-7.858 4.035a1.913 1.913 0 0 0-.828 2.575l3.147 6.127a1.91 1.91 0 0 0 2.575.828l7.857-4.033a2.456 2.456 0 0 1 3.308 1.062l4.035 7.858a1.911 1.911 0 0 0 2.575.827l6.128-3.146a1.913 1.913 0 0 0 .828-2.575l-4.035-7.858a2.456 2.456 0 0 1 1.063-3.307l7.858-4.035a1.913 1.913 0 0 0 .828-2.575l-3.146-6.128a1.913 1.913 0 0 0-2.576-.827l-7.858 4.035a2.457 2.457 0 0 1-3.307-1.064l-4.035-7.858zm55.538-32.917a6.887 6.887 0 0 1 9.268 2.979 6.887 6.887 0 0 1-2.979 9.269 6.887 6.887 0 0 1-9.268-2.979 6.887 6.887 0 0 1 2.979-9.269zm.914 1.779a4.886 4.886 0 0 0-2.114 6.576 4.886 4.886 0 0 0 6.575 2.114 4.886 4.886 0 0 0 2.114-6.576 4.886 4.886 0 0 0-6.575-2.114zM25.972 539.31l-5.098-8.058-5.474 2.894a14.397 14.397 0 0 1 1.388 2.681l1.471 3.756 4.792-1.087a9.204 9.204 0 0 1 2.921-.186zm3.991 31.166 4.239-2.206c3.082-1.604 4.428-5.219 3.155-8.469l-5.448-13.914c-1.303-3.328-4.918-5.234-8.416-4.441l-4.485 1.017.853 2.213 10.102 25.8zM4.122 840.134c5.411 10.21 22.825 42.357 25.181 45.806.629.919 1.188 1.901 1.854 2.733.557.696 1.189 1.287 2.067 1.566 1.27.403 2.976.165 5.518-1.008 2.994-1.381 6.111-2.857 8.009-4.755.822-.823 1.405-1.719 1.562-2.747.158-1.032-.125-2.174-.924-3.473-1.749-2.848-5.605-9.413-7.919-13.374a2.479 2.479 0 0 1 1.102-3.499c5.387-2.5 15.12-7.213 17.653-9.993.397-.436.468-1.223.429-2.164-.073-1.781-.708-4.044-1.69-6.101-.806-1.69-1.845-3.243-3.028-4.25-.982-.837-2.055-1.296-3.165-.91-5.548 1.931-12.223 6.654-17.13 9.485-1.474.849-3.334.284-4.13-1.22l-4.07-7.681c-.818-1.544-.183-3.463 1.384-4.239 5.803-2.875 15.08-8.089 16.834-9.019 1.416-.75 2.022-2.122 2.098-3.692.085-1.781-.485-3.805-1.439-5.651-1.147-2.217-2.851-4.191-4.739-5.14-1.11-.557-2.283-.747-3.414-.32-2.925 1.102-23.548 10.839-30.985 16.992-1.365 1.13-2.656 2.377-3.089 4.278-.449 1.974.024 4.587 2.031 8.376zM201.215 973.87a5.515 5.515 0 0 1 2.686 10.696 5.516 5.516 0 0 1-6.691-4.005 5.516 5.516 0 0 1 4.005-6.691zm.487 1.939a3.518 3.518 0 0 0-2.553 4.265 3.518 3.518 0 0 0 4.265 2.553 3.518 3.518 0 0 0 2.553-4.265 3.518 3.518 0 0 0-4.265-2.553zm9.969 18.107a1 1 0 0 1 1.724-1.014s2.852 4.712 9.455 3.054c6.603-1.659 6.891-7.161 6.891-7.161a1 1 0 0 1 1.998.08s-.211 6.963-8.401 9.021c-8.192 2.056-11.667-3.98-11.667-3.98zm16.092-18.984a1 1 0 0 1-1.998-.08s.103-4.274 5.103-5.53c5-1.255 7.111 2.462 7.111 2.462.28.476.121 1.089-.354 1.37-.476.28-1.09.121-1.37-.354 0 0-1.488-2.395-4.899-1.538-3.413.857-3.593 3.67-3.593 3.67zm489.072-13.253a1.311 1.311 0 0 0 .24-1.839l-13.621-17.706a1.313 1.313 0 0 0-1.84-.24l-17.705 13.621a1.313 1.313 0 0 0-.24 1.84l13.621 17.705a1.313 1.313 0 0 0 1.84.24l17.705-13.621zm16.441 21.371a1.313 1.313 0 0 0 .239-1.84l-13.621-17.706a1.312 1.312 0 0 0-1.839-.24l-17.706 13.621a1.313 1.313 0 0 0-.24 1.84l13.621 17.705a1.314 1.314 0 0 0 1.84.241l17.706-13.621zm119.098-43.759-2.336 8.718a.456.456 0 0 0 .323.559l8.719 2.336a3.913 3.913 0 0 1 2.766 4.793l-1.83 6.833a3.914 3.914 0 0 1-4.793 2.767l-8.719-2.337a.456.456 0 0 0-.559.324l-2.336 8.718a3.913 3.913 0 0 1-4.792 2.767l-6.833-1.831a3.914 3.914 0 0 1-2.767-4.793l2.336-8.718a.456.456 0 0 0-.323-.559l-8.718-2.336a3.914 3.914 0 0 1-2.767-4.793l1.831-6.833a3.913 3.913 0 0 1 4.793-2.766l8.718 2.336a.456.456 0 0 0 .559-.323l2.336-8.719a3.913 3.913 0 0 1 4.793-2.767l6.832 1.831a3.914 3.914 0 0 1 2.767 4.793zm-1.932-.518a1.913 1.913 0 0 0-1.353-2.343l-6.832-1.831a1.913 1.913 0 0 0-2.343 1.353l-2.336 8.719a2.457 2.457 0 0 1-3.009 1.737l-8.718-2.336a1.911 1.911 0 0 0-2.343 1.352l-1.831 6.833a1.914 1.914 0 0 0 1.353 2.343l8.718 2.336a2.457 2.457 0 0 1 1.737 3.009l-2.336 8.718a1.914 1.914 0 0 0 1.353 2.343l6.833 1.831a1.912 1.912 0 0 0 2.342-1.353l2.336-8.72a2.457 2.457 0 0 1 3.009-1.736l8.719 2.337a1.914 1.914 0 0 0 2.343-1.353l1.83-6.833a1.912 1.912 0 0 0-1.352-2.343l-8.719-2.336a2.458 2.458 0 0 1-1.737-3.009l2.336-8.718zm1.926 52.092a1.001 1.001 0 0 1 .518-1.932l17.793 4.768a1 1 0 0 1-.518 1.932l-17.793-4.768zm35.648-22.882a6.975 6.975 0 0 1 4.929 8.537 6.975 6.975 0 0 1-8.537 4.929 6.975 6.975 0 0 1-4.929-8.537 6.975 6.975 0 0 1 8.537-4.929zm-.518 1.932a4.972 4.972 0 0 0-6.087 3.515 4.973 4.973 0 0 0 3.515 6.087 4.973 4.973 0 0 0 6.087-3.515 4.973 4.973 0 0 0-3.515-6.087zm26.702-5.668a6.975 6.975 0 0 1-8.537 4.929 6.975 6.975 0 0 1-4.929-8.537 6.975 6.975 0 0 1 8.537-4.929 6.975 6.975 0 0 1 4.929 8.537zm-1.932-.518a4.973 4.973 0 0 0-3.515-6.087 4.973 4.973 0 0 0-6.087 3.515 4.973 4.973 0 0 0 3.515 6.087 4.973 4.973 0 0 0 6.087-3.515zm-66.001-104.684a5.371 5.371 0 0 1 6.577-3.797l84.712 22.699a5.37 5.37 0 0 1 3.797 6.576l-14.024 52.335a5.369 5.369 0 0 1-6.576 3.797l-84.712-22.698a5.371 5.371 0 0 1-3.797-6.577l14.023-52.335zm1.932.518-14.023 52.335a3.37 3.37 0 0 0 2.383 4.127l84.712 22.698a3.368 3.368 0 0 0 4.126-2.383l14.024-52.335a3.37 3.37 0 0 0-2.383-4.126l-84.712-22.699a3.37 3.37 0 0 0-4.127 2.383zm129.923-87.557a3.988 3.988 0 0 1-1.848.935l-11.555 2.425a4 4 0 0 1-4.737-3.092l-5.447-25.946a4 4 0 0 1 3.093-4.736l11.556-2.426a3.998 3.998 0 0 1 4.736 3.092l1.767 8.417a1 1 0 1 1-1.957.41l-1.767-8.416a2 2 0 0 0-2.368-1.546l-11.556 2.426a2 2 0 0 0-1.546 2.368l5.447 25.946a2 2 0 0 0 2.368 1.546l11.556-2.426a2 2 0 0 0 1.546-2.368l-1.218-5.8a2 2 0 0 0-2.368-1.546l-5.843 1.226a1 1 0 1 1-.411-1.957l5.843-1.227a4.001 4.001 0 0 1 4.737 3.093l1.217 5.8.013.064a.647.647 0 0 1 .011.047l1.414 6.735a1 1 0 0 1-1.958.411l-.725-3.455zm-78.037-181.437-2.585-8.742-4.846 1.801c-3.311 1.231-5.063 4.736-4.075 8.145l4.134 14.262c.988 3.404 4.372 5.651 7.913 5.258l5.295-.588-5.836-20.136zm81.15 46.897a7.34 7.34 0 0 0-4.758 9.22 7.34 7.34 0 0 0 9.22 4.758 7.34 7.34 0 0 0 4.758-9.22 7.34 7.34 0 0 0-9.22-4.758zm-67.803-14.571c-3.02-1.902-5.384-4.856-6.435-8.478l-.51-1.763-5.641.627-.089.009 16.078 24.296a10.466 10.466 0 0 0 8.096 4.67l49.229 2.97a9.257 9.257 0 0 1 .125-2.465l-45.67-2.982a12.465 12.465 0 0 1-10.377-6.944l-4.708-9.588a1.004 1.004 0 0 1-.098-.352zm-4.969-10.46.416 1.436c1.927 6.648 8.944 10.703 15.659 9.049 6.673-1.644 10.535-8.343 8.621-14.949l-11.046-38.105c-1.927-6.648-8.944-10.704-15.659-9.048-6.673 1.643-10.535 8.343-8.62 14.949l2.009 6.93 8.788 29.719-.168.019zm-13.081-39.938-6.137.751.522 9.692a8.812 8.812 0 0 1 2.191-1.186l5.029-1.87-1.035-3.572a14.32 14.32 0 0 1-.57-3.815zM486.735 126.222c1.049.589 1.957 1.492 2.678 2.576l.032.048c.484-.142.99-.219 1.512-.219 1.917 0 3.582 1.021 4.735 2.533 1.152 1.511 1.836 3.556 1.836 5.772 0 2.217-.684 4.261-1.836 5.772-1.153 1.512-2.818 2.534-4.735 2.534a5.382 5.382 0 0 1-2.28-.51 7.414 7.414 0 0 1-1.942 1.608v7.136l58.386 28.382v-14.97a1.006 1.006 0 0 1 0-.295v-27.108l-58.386-26.365v13.106zm17.349 4.279c.285-.184.643-.212.953-.074l28.775 12.869a1 1 0 0 1 .592.913v22.246a1 1 0 0 1-1.433.902l-28.775-13.812a1 1 0 0 1-.568-.901V131.34c0-.339.172-.654.456-.839zm1.544 2.382v19.131l26.776 12.852v-20.009l-26.776-11.974zm3.394 11.813a1 1 0 0 1 1.331-.478l16.958 7.983a1 1 0 1 1-.852 1.81l-16.958-7.984a1 1 0 0 1-.479-1.331zm-18.611-14.024c.69 1.645 1.079 3.569 1.079 5.607 0 2.539-.604 4.902-1.643 6.768.359.126.73.191 1.11.191 1.16 0 2.281-.614 3.144-1.746.864-1.133 1.427-2.742 1.427-4.56 0-1.818-.563-3.426-1.427-4.559-.863-1.132-1.984-1.746-3.144-1.746-.184 0-.367.015-.546.045zm185.168-49.76-16.508 7.314-.009.005-111.941 50.955v26.079l95.802-37.632-15.272-12.552a1 1 0 0 1 .243-1.692l47.685-20.301V80.912zm-128.458 86.502v14.399l128.458-48.012v-38.54l-45.384 19.322 15.313 12.586a1.001 1.001 0 0 1-.27 1.703l-98.117 38.542zm-66.925-37.509c-1.056 1.588-1.742 3.838-1.742 6.374 0 2.536.686 4.787 1.742 6.374 1.061 1.594 2.416 2.423 3.776 2.423 1.361 0 2.716-.829 3.776-2.423 1.056-1.587 1.742-3.838 1.742-6.374 0-2.536-.686-4.786-1.742-6.374-1.06-1.594-2.415-2.423-3.776-2.423-1.36 0-2.715.829-3.776 2.423zm179.401-44.099 16.094-7.132V1.434l-19.077 9.664 2.983 74.709zm-146.23 29.841 32.428 14.202 40.122-17.797-47.096-6.888-25.454 10.483zm92.824-12.588 29.491-13.082-35.926-15.1-43.769 21.285 49.889 6.799a.974.974 0 0 1 .315.098z" fill="#000"/></svg>