<svg xmlns="http://www.w3.org/2000/svg" width="250" height="250" viewBox="0 0 1000 1000" fill="none"><defs><linearGradient id="a" x1="27.8861" x2="317.65" y1="60.0842" y2="569.128" gradientUnits="userSpaceOnUse"><stop stop-color="#FF6331"/><stop offset="1" stop-color="#FC7AED"/></linearGradient><linearGradient id="b" x1="-9.8414" x2="403.304" y1="743.98" y2="820.436" gradientUnits="userSpaceOnUse"><stop stop-color="#6268FF"/><stop offset="1" stop-color="#C7ADFF"/></linearGradient><linearGradient id="c" x1="176.545" x2="-71.0235" y1="666.664" y2="1018.41" gradientUnits="userSpaceOnUse"><stop stop-color="#FFC9D3"/><stop offset="1" stop-color="#FFC24C"/></linearGradient><linearGradient id="d" x1="176.545" x2="-71.0235" y1="666.664" y2="1018.41" gradientUnits="userSpaceOnUse"><stop stop-color="#6F72FF"/><stop offset="1" stop-color="#FF4CED"/></linearGradient><linearGradient id="e" x1="1001" x2="372.061" y1="999.998" y2="358.431" gradientUnits="userSpaceOnUse"><stop stop-color="#3AC4FF"/><stop offset=".6821" stop-color="#FF71EF"/><stop offset="1" stop-color="#FEA7FB"/></linearGradient><linearGradient id="f" x1="352.091" x2="433.871" y1="167.703" y2="335.162" gradientUnits="userSpaceOnUse"><stop stop-color="#E4A8FF"/><stop offset="1" stop-color="#F5DFFF"/></linearGradient><linearGradient id="g" x1="433.827" x2="306.323" y1="0" y2="167.659" gradientUnits="userSpaceOnUse"><stop stop-color="#6F72FF"/><stop offset="1" stop-color="#FF4CED"/></linearGradient><linearGradient id="h" x1="500.574" x2="1055.45" y1="77.7444" y2="218.938" gradientUnits="userSpaceOnUse"><stop stop-color="#0366F7"/><stop offset="1" stop-color="#EBA7FE"/></linearGradient><linearGradient id="i" x1="500.574" x2="1055.45" y1="77.7444" y2="218.938" gradientUnits="userSpaceOnUse"><stop stop-color="#6268FF"/><stop offset="1" stop-color="#C7ADFF"/></linearGradient><linearGradient id="j" x1="758.282" x2="543.758" y1="0" y2="419.099" gradientUnits="userSpaceOnUse"><stop stop-color="#FFC9D3"/><stop offset="1" stop-color="#FFC24C"/></linearGradient><filter id="k" width="1004.18" height="1003.89" x="-1.1777" y="-1.8906" color-interpolation-filters="sRGB" filterUnits="userSpaceOnUse"><feFlood flood-opacity="0" result="BackgroundImageFix"/><feGaussianBlur in="BackgroundImageFix" stdDeviation="1"/><feComposite in2="SourceAlpha" operator="in" result="effect1_backgroundBlur_3665_22454"/><feBlend in="SourceGraphic" in2="effect1_backgroundBlur_3665_22454" result="shape"/></filter></defs><path fill="url(#a)" d="M1 0h351.09v666.667H1z"/><path fill="url(#b)" d="M1 666.664h351.09v333.333H1z"/><path fill="url(#c)" d="M1 666.664h351.09v333.333H1z"/><path fill="url(#d)" d="M1 666.664h351.09v333.333H1z"/><path fill="url(#e)" d="M352.091 335.18H1001v664.818H352.091z"/><path fill="url(#f)" d="M352.091 167.703h163.473v167.481H352.091z"/><path fill="url(#g)" d="M352.091 0h163.473v167.7H352.091z"/><path fill="url(#h)" d="M515.563 0h485.436v335.181H515.563z"/><path fill="url(#i)" d="M515.563 0h485.436v335.181H515.563z"/><path fill="url(#j)" d="M515.563 0h485.436v335.181H515.563z"/><g opacity=".8"><path stroke="#F6E0FF" stroke-width="7" d="M676.545 335.18v664.818M1001 667.586H352.091"/><path stroke="#F6E0FF" stroke-linecap="round" stroke-width="7" d="m724.857 715.922-96.626-96.658M628.231 715.922l96.626-96.658"/><ellipse cx="676.545" cy="667.591" fill="#F6E0FF" rx="19.264" ry="19.2704"/></g><g opacity=".8"><path stroke="#FD7BEE" stroke-width="7" d="M758.282 0v335.181M1001 167.594H515.564"/><path stroke="#FD7BEE" stroke-linecap="round" stroke-width="7" d="m785.502 194.82-54.44-54.457M731.062 194.82l54.439-54.457"/><ellipse cx="758.281" cy="167.592" fill="#FD7BEE" rx="12.5958" ry="12.6"/></g><g opacity=".8"><path stroke="#FD7BEE" stroke-width="7" d="M176.545 666.664v333.333M352.09 833.328H1"/><path stroke="#FD7BEE" stroke-linecap="round" stroke-width="7" d="m203.765 860.562-54.44-54.457M149.325 860.562l54.44-54.457"/><ellipse cx="176.545" cy="833.332" fill="#FD7BEE" rx="15.1398" ry="15.1449"/></g><g opacity=".8"><path stroke="#F6E0FF" stroke-width="7" d="M176.545 0v670.362M352.091 335.18H.9994"/><path stroke="#F6E0FF" stroke-linecap="round" stroke-width="7" d="m216.938 375.586-80.786-80.812M136.152 375.586l80.785-80.812"/><ellipse cx="176.545" cy="335.184" fill="#F6E0FF" rx="15.1398" ry="15.1449"/></g><g opacity=".8"><path stroke="#7285FB" stroke-width="7" d="M433.826 167.586v167.591"/><path stroke="#7285FB" stroke-linecap="round" stroke-width="7" d="m461.045 278.664-54.44-54.458M406.605 278.664l54.44-54.458"/><path stroke="#7285FB" stroke-width="7" d="M515.562 251.383H352.089"/><ellipse cx="433.826" cy="251.382" fill="#7285FB" rx="10.652" ry="10.6555"/></g><g opacity=".8"><path stroke="#FD7BEE" stroke-width="7" d="M433.826.1094V167.701"/><path stroke="#FD7BEE" stroke-linecap="round" stroke-width="7" d="m461.045 111.078-54.44-54.4575M406.605 111.078l54.44-54.4575"/><path stroke="#FD7BEE" stroke-width="7" d="m515.562 83.9062-163.473.0001"/><ellipse cx="433.826" cy="83.9055" fill="#FD7BEE" rx="10.652" ry="10.6555"/></g><g filter="url(#k)"><path fill="#FFB9EC" fill-opacity=".4" d="M1001 .1074H.8221V1000H1001V.1074Z"/></g></svg>