<svg xmlns="http://www.w3.org/2000/svg" width="250" height="250" viewBox="0 0 1000 1000" fill="none"><defs><linearGradient id="a" x1="26.8861" x2="316.65" y1="60.5842" y2="569.628" gradientUnits="userSpaceOnUse"><stop stop-color="#E44F20"/><stop offset="1" stop-color="#B00E9D"/></linearGradient><linearGradient id="b" x1="-10.8414" x2="402.304" y1="744.48" y2="820.936" gradientUnits="userSpaceOnUse"><stop stop-color="#6268FF"/><stop offset="1" stop-color="#C7ADFF"/></linearGradient><linearGradient id="c" x1="175.545" x2="-72.0235" y1="667.164" y2="1018.91" gradientUnits="userSpaceOnUse"><stop stop-color="#FFC9D3"/><stop offset="1" stop-color="#FFC24C"/></linearGradient><linearGradient id="d" x1="175.545" x2="-72.0235" y1="667.164" y2="1018.91" gradientUnits="userSpaceOnUse"><stop stop-color="#4043D8"/><stop offset="1" stop-color="#EB37D9"/></linearGradient><linearGradient id="e" x1="999.999" x2="371.06" y1="1000.5" y2="358.931" gradientUnits="userSpaceOnUse"><stop stop-color="#124FC5"/><stop offset=".6821" stop-color="#C02AAF"/><stop offset="1" stop-color="#E052DA"/></linearGradient><linearGradient id="f" x1="351.09" x2="432.87" y1="168.203" y2="335.662" gradientUnits="userSpaceOnUse"><stop stop-color="#D374FE"/><stop offset="1" stop-color="#DA9BF7"/></linearGradient><linearGradient id="g" x1="432.826" x2="305.322" y1=".5" y2="168.159" gradientUnits="userSpaceOnUse"><stop stop-color="#194EC4"/><stop offset="1" stop-color="#E230D0"/></linearGradient><linearGradient id="h" x1="499.573" x2="1054.44" y1="78.2444" y2="219.438" gradientUnits="userSpaceOnUse"><stop stop-color="#0366F7"/><stop offset="1" stop-color="#EBA7FE"/></linearGradient><linearGradient id="i" x1="499.573" x2="1054.44" y1="78.2444" y2="219.438" gradientUnits="userSpaceOnUse"><stop stop-color="#6268FF"/><stop offset="1" stop-color="#C7ADFF"/></linearGradient><linearGradient id="j" x1="757.281" x2="542.757" y1=".5" y2="419.599" gradientUnits="userSpaceOnUse"><stop stop-color="#F36EB6"/><stop offset="1" stop-color="#FF842B"/></linearGradient><filter id="k" width="1004" height="1004" x="-2.001" y="-1.5" color-interpolation-filters="sRGB" filterUnits="userSpaceOnUse"><feFlood flood-opacity="0" result="BackgroundImageFix"/><feGaussianBlur in="BackgroundImageFix" stdDeviation="1"/><feComposite in2="SourceAlpha" operator="in" result="effect1_backgroundBlur_3665_22497"/><feBlend in="SourceGraphic" in2="effect1_backgroundBlur_3665_22497" result="shape"/></filter></defs><path fill="url(#a)" d="M0 .5h351.09v666.667H0z"/><path fill="url(#b)" d="M0 667.164h351.09v333.333H0z"/><path fill="url(#c)" d="M0 667.164h351.09v333.333H0z"/><path fill="url(#d)" d="M0 667.164h351.09v333.333H0z"/><path fill="url(#e)" d="M351.09 335.68h648.909v664.818H351.09z"/><path fill="url(#f)" d="M351.09 168.203h163.473v167.481H351.09z"/><path fill="url(#g)" d="M351.09.5h163.473v167.7H351.09z"/><path fill="url(#h)" d="M514.562.5h485.436v335.181H514.562z"/><path fill="url(#i)" d="M514.562.5h485.436v335.181H514.562z"/><path fill="url(#j)" d="M514.562.5h485.436v335.181H514.562z"/><g opacity=".8"><path stroke="#FF7CFA" stroke-width="7" d="M675.545 335.68v664.82M1000 668.086H351.091"/><path stroke="#FF7CFA" stroke-linecap="round" stroke-width="7" d="m723.857 716.422-96.626-96.658M627.232 716.422l96.626-96.658"/><ellipse cx="675.545" cy="668.091" fill="#FF7CFA" rx="19.264" ry="19.2704"/></g><g opacity=".8"><path stroke="#F0389C" stroke-width="7" d="M757.281.5v335.181M999.999 168.094H514.563"/><path stroke="#F0389C" stroke-linecap="round" stroke-width="7" d="m784.501 195.32-54.44-54.457M730.061 195.32l54.439-54.457"/><ellipse cx="757.28" cy="168.092" fill="#F0389C" rx="12.5958" ry="12.6"/></g><g opacity=".8"><path stroke="#F0389C" stroke-width="7" d="M175.545 667.164V1000.5M351.09 833.828H0"/><path stroke="#F0389C" stroke-linecap="round" stroke-width="7" d="m202.765 861.062-54.44-54.457M148.325 861.062l54.44-54.457"/><ellipse cx="175.545" cy="833.832" fill="#F0389C" rx="15.1398" ry="15.1449"/></g><g opacity=".8"><path stroke="#FF7CFA" stroke-width="7" d="M175.545.5v670.362M351.091 335.68H-.0006"/><path stroke="#FF7CFA" stroke-linecap="round" stroke-width="7" d="m215.938 376.086-80.786-80.812M135.152 376.086l80.785-80.812"/><ellipse cx="175.545" cy="335.684" fill="#FF7CFA" rx="15.1398" ry="15.1449"/></g><g opacity=".8"><path stroke="#6649DC" stroke-width="7" d="M432.827 168.086v167.591"/><path stroke="#6649DC" stroke-linecap="round" stroke-width="7" d="m460.046 279.164-54.44-54.458M405.606 279.164l54.44-54.458"/><path stroke="#6649DC" stroke-width="7" d="M514.563 251.883H351.09"/><ellipse cx="432.827" cy="251.882" fill="#6649DC" rx="10.652" ry="10.6555"/></g><g opacity=".8"><path stroke="#F65D3C" stroke-width="7" d="M432.827.6094V168.201"/><path stroke="#F65D3C" stroke-linecap="round" stroke-width="7" d="m460.046 111.578-54.44-54.4575M405.606 111.578l54.44-54.4575"/><path stroke="#F65D3C" stroke-width="7" d="m514.563 84.4062-163.473.0001"/><ellipse cx="432.827" cy="84.4055" fill="#F65D3C" rx="10.652" ry="10.6555"/></g><g filter="url(#k)"><path fill="#FC6BFF" fill-opacity=".4" d="M999.999.498H-.0011V1000.5H999.999V.498Z"/></g></svg>