<svg width="250" height="250" viewBox="1 1 1000 1000" fill="none" xmlns="http://www.w3.org/2000/svg"><path fill-rule="evenodd" clip-rule="evenodd" d="M137.032 936.944c1.37-27.39 21.44-52.49 41.51-77.6 26.22-32.79 52.43-65.59 36.97-103.46-15.46-37.87-57.13-42.94-98.81-48.02-41.68-5.07-83.35-10.15-98.81-48.02-3.42-8.39-4.8-16.52-4.59-24.47h.14c1.37-27.39 21.44-52.49 41.51-77.6 26.22-32.8 52.43-65.59 36.97-103.46-14.51-35.54-52.11-42.19-91.13-47.07v369.86c35.24 4.92 67.72 13.3 80.96 45.74 2.59 6.34 4.01 12.53 4.46 18.6 1.48 29.69-20.02 56.58-41.52 83.47-19.7 24.64-39.4 49.29-41.41 76.086h176.01c-15.2-6.226-28.65-17.156-37.81-39.596-3.42-8.39-4.8-16.53-4.59-24.47h.14v.01zM529.203 909.324c-32.021-10.468-101.188-33.231-100.22-69.88h.14c1.37-27.39 21.44-52.49 41.51-77.6 26.22-32.8 52.43-65.59 36.97-103.46-15.46-37.87-57.13-42.94-98.81-48.02-41.68-5.07-83.35-10.15-98.81-48.02-3.42-8.39-4.8-16.53-4.59-24.47h.14c1.37-27.39 21.44-52.49 41.51-77.6 26.22-32.8 52.43-65.59 36.97-103.46-15.46-37.87-57.13-42.94-98.81-48.02-43.31-5.27-104.88-17.26-103.41-72.49h.14c1.37-27.39 21.44-52.49 41.51-77.6 26.22-32.79 52.43-65.59 36.97-103.46-13.08-32.04-39.77-40.61-65.59-48.9-5.37-1.72-10.69-3.44-15.85-5.34H3.473v1.3c.02 3.35.04 6.88.04 10.62 0 41.28 43.65 56.19 85.32 61.26 38.84 4.73 69.18 24.75 72.27 66.62 1.51 30.26-27.18 57.61-55.92 85.02-33.85 32.28-67.78 64.64-52.57 101.91 15.46 37.86 57.13 42.94 98.81 48.01s83.35 10.15 98.82 48.02c2.59 6.33 4.01 12.53 4.45 18.6 1.48 29.69-20.02 56.58-41.52 83.47-26.22 32.79-52.43 65.59-36.97 103.45 15.46 37.87 57.13 42.94 98.81 48.01s83.35 10.15 98.82 48.02c2.59 6.34 4.01 12.53 4.46 18.6 1.48 29.69-20.02 56.58-41.52 83.47-26.22 32.79-52.43 65.59-36.97 103.46 12.18 29.84 38.84 34.3 64.24 38.56 22.86 3.83 44.71 7.49 54.1 29.31.31.76.6 1.506.87 2.266h120.27c35.853-31.576 29.383-78.766-10.1-91.676l.02.02zM880.013 835.494l.15-.11c-15.46-37.87-46.64-42.94-77.81-48.02-31.18-5.07-62.35-10.15-77.81-48.02-3.42-8.39-4.8-16.53-4.59-24.47h.14c1.37-27.39 21.44-52.49 41.51-77.6 26.22-32.79 52.43-65.59 36.97-103.46-15.46-37.87-57.13-42.94-98.81-48.02-41.68-5.08-83.35-10.15-98.81-48.02-3.42-8.39-4.8-16.53-4.59-24.47h.14c1.37-27.39 21.44-52.49 41.51-77.6 26.22-32.79 52.43-65.59 36.97-103.46-15.46-37.87-57.13-42.94-98.81-48.02-41.68-5.07-83.35-10.15-98.81-48.02-3.42-8.39-4.8-16.53-4.59-24.47h.14c1.37-27.39 21.44-52.49 41.51-77.6 8.78-10.98 17.56-21.96 24.77-33.14h-120.3c1.79 5.17 2.83 10.25 3.2 15.25 1.48 29.69-20.02 56.58-41.51 83.47-26.22 32.8-52.43 65.59-36.97 103.45s57.13 42.94 98.81 48.01 83.35 10.15 98.81 48.02c2.59 6.33 4.01 12.53 4.46 18.6 1.48 29.69-20.02 56.58-41.52 83.47-26.22 32.79-52.43 65.59-36.97 103.46 15.46 37.86 57.13 42.94 98.81 48.01s83.35 10.15 98.82 48.02c2.59 6.33 4.01 12.53 4.46 18.6 1.48 29.69-20.02 56.58-41.52 83.47-26.22 32.79-52.43 65.59-36.97 103.45 9.46 23.16 28.73 34.05 51.81 40.18-.64.07-.99.1-.99.1 1.8.31 3.56.64 5.29.98 2.79.66 5.63 1.27 8.51 1.82 55.48 12.93 70.89 38.63 77.11 53.07 14.69 35.98-6.77 67.38-31.17 98.546h86.5c7.43-21.956 26.97-42.666 46.54-63.406 30.53-32.35 61.12-64.76 45.88-102.1h-.25l-.02.03zM905.613 359.784c-3.42-8.39-4.8-16.53-4.59-24.47h.14c1.37-27.39 21.44-52.49 41.51-77.6 26.22-32.79 52.43-65.59 36.97-103.46-15.46-37.87-57.13-42.94-98.81-48.02-41.68-5.07-83.35-10.15-98.81-48.02-3.42-8.39-4.8-16.53-4.59-24.47h.14c.56-11.24 4.28-22.1 9.85-32.74h-86.05c-5.12 6.94-10.63 13.83-16.14 20.72-26.22 32.8-52.43 65.59-36.97 103.45s57.13 42.94 98.81 48.01 83.35 10.15 98.82 48.02c2.59 6.33 4.01 12.53 4.46 18.6 1.48 29.69-20.02 56.58-41.52 83.47-26.22 32.79-52.43 65.59-36.97 103.46 15.46 37.86 57.13 42.94 98.81 48.01s83.35 10.15 98.82 48.02c2.59 6.33 4.01 12.53 4.45 18.6 1.48 29.69-20.02 56.58-41.52 83.47-26.22 32.79-52.431 65.59-36.97 103.45 15.46 37.86 57.13 42.94 98.81 48.01 2.18.27 4.36.53 6.527.8v-369.77c-40.437-4.95-80.157-10.81-95.167-47.58l-.01.04z" fill="#000"/></svg>