<svg width="250" height="250" viewBox="1 0 1000 1000" fill="none" xmlns="http://www.w3.org/2000/svg"><path fill-rule="evenodd" clip-rule="evenodd" d="M.792 13.044C17.348 29.293 32.35 51.006 41.42 66.598a4.5 4.5 0 0 1-7.781 4.524C25.985 57.962 14.072 40.491.792 26.003V13.044zm0 166.666c3.613.092 7.17 1.274 10.418 3.989 4.226 3.535 5.985 8.198 5.963 13.231-.018 4.811-1.647 9.934-3.963 14.983-3.005 6.55-7.513 13.685-12.418 20.865v-16.626c1.632-2.769 3.067-5.44 4.237-7.991 2.094-4.566 3.132-8.323 3.145-11.268.011-2.725-.834-4.697-2.738-6.29-1.365-1.141-2.878-1.785-4.644-1.89v-9.003zm0 95.2c3.081-4.209 6.19-8.864 9.348-13.654l1.297-1.97c6.16-9.358 12.53-19.037 18.855-25.307 3.39-3.359 7.227-6.226 11.491-7.282 4.623-1.145 9.142-.018 13.155 3.402 3.748 3.192 5.924 7 6.608 11.255.666 4.136-.142 8.288-1.596 12.184-2.85 7.646-8.736 15.659-14.069 22.852l-.449.605c-5.409 7.293-10.172 13.717-12.372 19.211-1.102 2.753-1.327 4.743-1.034 6.174.255 1.244 1.01 2.623 3.237 4.04 2.337 1.488 4.389 1.933 6.256 1.815 1.933-.123 4.023-.873 6.32-2.341 4.718-3.017 9.427-8.474 14.174-14.806 1.558-2.078 3.143-4.287 4.721-6.485 2.972-4.14 5.916-8.241 8.593-11.354 2.079-2.417 4.37-4.708 6.834-6.134 2.588-1.498 5.963-2.338 9.373-.584 2.794 1.437 4.79 3.519 5.892 6.177 1.05 2.533 1.123 5.193.873 7.58-.25 2.389-.868 4.863-1.509 7.176-.253.913-.504 1.782-.75 2.636-.416 1.446-.822 2.847-1.2 4.338-1.195 4.696-1.638 8.555-.588 11.747.945 2.872 3.413 6.088 10.239 8.759a4.5 4.5 0 1 1-3.279 8.381c-8.556-3.348-13.5-8.214-15.51-14.33-1.904-5.795-.843-11.829.416-16.776.407-1.605.89-3.281 1.338-4.834.236-.818.462-1.602.662-2.324.62-2.237 1.062-4.108 1.23-5.71.168-1.605.017-2.585-.236-3.197-.198-.478-.576-1.034-1.647-1.595-.105.021-.362.094-.794.345-1.12.648-2.614 1.996-4.52 4.213-2.444 2.841-4.954 6.344-7.736 10.225-1.628 2.272-3.348 4.672-5.202 7.145-4.762 6.353-10.306 13.012-16.526 16.99-3.174 2.029-6.726 3.495-10.6 3.74-3.94.249-7.863-.79-11.656-3.204-3.904-2.484-6.396-5.786-7.223-9.829-.788-3.855.07-7.756 1.498-11.322 2.646-6.615 8.046-13.886 13.088-20.676l.858-1.156c5.535-7.466 10.547-14.418 12.865-20.636 1.133-3.037 1.476-5.541 1.143-7.611-.313-1.951-1.285-3.898-3.557-5.833-2.006-1.708-3.592-1.905-5.154-1.517-1.923.476-4.355 1.999-7.32 4.938-5.627 5.578-11.508 14.504-17.911 24.224l-1.064 1.616C12.357 274.244 6.7 282.708.792 289.285V274.91zm0 150.538c14.674-2.339 33.806.328 52.598 3.833 6.652 1.241 13.276 2.59 19.75 3.907 13.135 2.674 25.647 5.221 36.502 6.484 8.067.939 14.688 1.089 19.582.198 4.899-.891 7.054-2.607 7.965-4.538 1.106-2.345.873-4.119-.46-6.099-1.588-2.361-4.79-4.967-9.81-7.746-9.482-5.248-23.224-9.96-37.834-14.97l-2.357-.809c-15.138-5.196-31.007-10.759-42.176-17.493-5.584-3.366-10.504-7.315-13.486-12.108-3.151-5.063-3.992-10.857-1.666-17.026 2.273-6.029 6.508-9.985 11.995-12.066 5.258-1.995 11.418-2.184 17.755-1.436 12.655 1.495 27.947 6.992 42.732 13.074 6.94 2.854 13.661 5.788 20.079 8.588 7.684 3.354 14.933 6.518 21.602 9.129 6.004 2.351 11.08 4.06 15.028 4.889 1.971.414 3.478.568 4.569.536 1.021-.029 1.366-.21 1.366-.21.556-.365.736-.673.786-1.403.075-1.066-.231-2.794-1.243-5.38-1.519-3.879-4.013-8.273-6.845-13.262a516.713 516.713 0 0 1-3.092-5.5c-3.818-6.919-7.782-14.816-8.848-22.322-.548-3.854-.375-7.859 1.155-11.68 1.55-3.871 4.336-7.158 8.354-9.774 4.167-2.714 8.566-3.735 12.938-2.579 4.159 1.1 7.453 3.957 10.063 7.192 5.145 6.378 9.23 16.286 12.836 25.864a907.666 907.666 0 0 1 2.73 7.38c2.689 7.334 5.243 14.298 7.999 19.996 1.824 3.77 3.566 6.609 5.235 8.459 1.676 1.857 2.78 2.185 3.376 2.203.756.023 2.164-.347 4.402-2.18 2.183-1.786 4.603-4.511 7.275-8.053 3.501-4.639 7.022-10.096 10.743-15.862 2.043-3.168 4.147-6.428 6.342-9.699 5.936-8.848 12.553-17.784 19.728-22.954 3.663-2.639 7.835-4.569 12.426-4.72 4.711-.154 9.186 1.588 13.298 5.045 8.408 7.071 10.402 16.561 8.258 26.679-2.071 9.769-8.014 20.483-15.846 31.44-14.524 20.32-36.838 43.19-58.04 64.921-1.728 1.77-3.448 3.534-5.156 5.287-8.958 9.197-14.658 16.56-18.064 22.361-3.437 5.856-4.318 9.747-4.237 12.122.073 2.107.891 3.246 1.981 4.035 1.286.93 3.236 1.53 5.452 1.649l.111.006.111.011c6.807.669 13.896-3.454 21.804-11.881 6.838-7.287 13.383-16.791 20.054-26.478.93-1.35 1.862-2.703 2.798-4.055 7.422-10.72 15.229-21.573 23.472-27.896 4.2-3.222 8.929-5.605 14.146-5.911 5.358-.313 10.491 1.606 15.294 5.594 4.454 3.698 7.595 7.614 9.301 11.872 1.74 4.34 1.841 8.668.806 12.854-1.966 7.943-8.113 15.514-14.517 22.667-1.798 2.008-3.645 4.012-5.508 6.034-5.104 5.54-10.331 11.212-15.013 17.466-6.278 8.386-11.153 17.308-12.825 27.231-.908 10.62 2.082 21.87 6.843 33.451 3.209 7.805 7.024 15.336 10.792 22.772 1.915 3.781 3.819 7.537 5.623 11.293 5.13 10.675 9.58 21.568 9.27 31.295-.161 5.065-1.606 9.911-4.89 14.199-3.241 4.232-8.013 7.581-14.274 10.169-5.559 2.297-10.786 3.08-15.684 2.342-4.911-.74-9.099-2.949-12.662-6-6.92-5.924-11.825-15.338-15.885-24.663-1.745-4.009-3.404-8.176-5.013-12.219l-.874-2.195c-1.902-4.763-3.75-9.295-5.692-13.391-4.043-8.524-7.908-13.802-12.045-15.711-2.655-1.225-6.218-1.048-11.361 1.7-5.148 2.75-11.037 7.659-17.576 14.292-10.351 10.502-21.546 24.491-33.199 39.052a2686.88 2686.88 0 0 1-9.303 11.581c-14.78 18.257-30.171 36.285-44.734 46.916-7.29 5.321-14.865 9.166-22.448 9.914-7.906.779-15.266-1.867-21.582-8.363-6.14-6.315-9.023-13.378-8.938-20.892.084-7.324 2.98-14.52 7.29-21.333 8.56-13.536 23.758-27.179 39.161-39.775 5.599-4.578 11.213-9.011 16.633-13.29 9.815-7.749 18.99-14.993 26.268-21.677 5.632-5.174 9.68-9.625 11.869-13.312 2.219-3.74 1.811-5.362 1.305-6.18-.532-.859-2.024-2.054-6.78-1.9-4.603.149-10.81 1.56-18.372 3.998-11.519 3.714-25.155 9.452-39.442 15.465-4.44 1.869-8.944 3.764-13.466 5.633-18.767 7.757-37.947 15.1-53.095 17.343-1.86.275-3.704.481-5.513.598V579.45a59.127 59.127 0 0 0 4.05-.465c13.736-2.033 31.803-8.866 50.739-16.692a2212.36 2212.36 0 0 0 13.087-5.475c14.381-6.054 28.6-12.038 40.572-15.899 7.792-2.512 15.078-4.279 21.117-4.475 5.886-.19 12.184 1.105 15.606 6.631 3.446 5.567 1.726 11.603-1.209 16.548-2.966 4.997-7.916 10.256-13.704 15.572-7.532 6.919-17.245 14.59-27.286 22.521-5.349 4.226-10.792 8.525-16.048 12.823-15.457 12.64-29.448 25.374-37.041 37.379-3.767 5.956-5.688 11.322-5.741 16.102-.053 4.591 1.605 9.177 6.108 13.808 4.325 4.449 8.737 5.844 13.43 5.381 5.018-.495 10.87-3.175 17.534-8.039 13.341-9.739 27.954-26.721 42.857-45.131 3.018-3.728 6.046-7.513 9.071-11.293 11.693-14.615 23.33-29.159 34.083-40.068 6.769-6.867 13.5-12.627 19.984-16.092 6.488-3.467 13.568-5.05 20.264-1.96 7.721 3.564 12.864 12.017 16.89 20.506 2.092 4.411 4.043 9.206 5.944 13.968l.891 2.238c1.611 4.046 3.202 8.042 4.878 11.893 4.037 9.272 8.196 16.757 13.22 21.058 2.408 2.061 4.911 3.295 7.648 3.708 2.75.414 6.131.058 10.374-1.696 5.142-2.125 8.275-4.553 10.155-7.008 1.837-2.399 2.73-5.15 2.834-8.436.223-6.977-3.079-15.809-8.288-26.646-1.618-3.368-3.419-6.925-5.283-10.606-3.872-7.648-8.016-15.834-11.368-23.987-5.016-12.202-8.709-25.289-7.538-38.331l.016-.183.03-.181c2.005-12.2 7.903-22.679 14.718-31.783 5.015-6.699 10.763-12.935 15.96-18.575 1.788-1.94 3.511-3.81 5.116-5.603 6.595-7.366 10.975-13.21 12.259-18.399.589-2.379.496-4.545-.38-6.731-.907-2.267-2.803-4.907-6.407-7.898-3.254-2.702-5.97-3.442-8.322-3.305-2.494.146-5.337 1.326-8.643 3.862-6.77 5.193-13.709 14.636-21.337 25.655-.912 1.316-1.832 2.653-2.76 4.002-6.605 9.599-13.624 19.798-21.022 27.681-8.295 8.839-18.272 16.099-29.965 15-3.434-.199-7.387-1.155-10.665-3.525-3.508-2.537-5.933-6.499-6.115-11.795-.172-5.029 1.684-10.844 5.607-17.527 3.955-6.737 10.239-14.743 19.525-24.276a7595.44 7595.44 0 0 1 5.005-5.134c21.385-21.923 43.165-44.25 57.219-63.912 7.599-10.631 12.563-19.984 14.198-27.698 1.561-7.364.059-12.773-4.911-16.952-2.578-2.167-4.716-2.763-6.535-2.704-1.939.064-4.213.898-6.907 2.839-5.536 3.989-11.273 11.473-17.27 20.411-1.955 2.914-3.945 5.995-5.94 9.085-3.869 5.991-7.761 12.018-11.466 16.929-2.849 3.775-5.83 7.235-8.923 9.767-3.038 2.486-6.779 4.567-11.04 4.438-4.421-.134-7.897-2.618-10.497-5.5-2.606-2.889-4.836-6.716-6.813-10.804-2.993-6.187-5.798-13.839-8.531-21.297a841.963 841.963 0 0 0-2.555-6.91c-3.692-9.806-7.284-18.179-11.26-23.108-1.951-2.418-3.579-3.471-4.836-3.803-1.043-.276-2.555-.252-4.925 1.291-2.519 1.64-3.838 3.388-4.528 5.112-.71 1.773-.912 3.921-.538 6.556.778 5.474 3.845 11.905 7.704 18.896.87 1.577 1.789 3.196 2.717 4.828 2.944 5.183 5.97 10.511 7.775 15.12 1.201 3.067 2.136 6.446 1.908 9.72-.25 3.604-1.912 6.87-5.3 9.086-2.051 1.341-4.41 1.768-6.54 1.829-2.166.062-4.516-.242-6.912-.745-4.786-1.005-10.489-2.964-16.619-5.364-6.641-2.601-14.338-5.954-22.309-9.428-6.467-2.818-13.116-5.715-19.529-8.353-14.782-6.08-28.945-11.073-40.101-12.391-5.57-.657-9.904-.333-13.038.855-2.904 1.102-4.96 2.998-6.183 6.244-1.17 3.104-.796 5.652.799 8.214 1.763 2.832 5.12 5.791 10.159 8.828 10.075 6.075 24.84 11.306 40.26 16.599l2.752.944c14.218 4.872 28.748 9.85 39.035 15.544 5.45 3.017 10.334 6.559 13.263 10.911 3.186 4.733 3.903 10.237 1.208 15.949-2.889 6.126-8.848 8.952-15.219 10.111-6.374 1.159-14.177.868-22.528-.104-11.275-1.311-24.522-4.006-37.92-6.732-6.368-1.295-12.77-2.597-19.01-3.761-19.832-3.7-38.007-6.004-50.764-3.51v-10.154zm0 341.707c.351.026.702.053 1.051.082 7.171.599 14.2 2.076 19.742 5.112 5.706 3.125 10.034 8.049 10.904 15.217.914 7.541-.783 19.148-2.961 31.773-.584 3.386-1.21 6.88-1.85 10.451-1.81 10.101-3.73 20.816-5.117 31.419-1.878 14.37-2.701 28.05-1.023 39.104 1.686 11.092 5.713 18.539 12.625 22.074 16.876 8.635 41.716 14.229 63.37 14.031 10.815-.1 20.508-1.644 27.884-4.739 7.344-3.081 11.944-7.48 13.675-13.147 4.385-14.35 8.621-37.092 9.628-59.033.502-10.959.192-21.581-1.255-30.776-1.459-9.276-4.011-16.672-7.669-21.551-7.347-9.796-22.953-15.03-39.078-14.863-7.92.082-15.579 1.48-21.877 4.032-6.341 2.569-10.947 6.153-13.368 10.371-1.675 2.917-3.642 9.952-4.855 19.463-1.184 9.3-1.563 20.317-.455 30.795 1.118 10.556 3.7 20.131 8.11 26.891 4.26 6.53 10.139 10.381 18.574 10.212 9.316-.186 16.163-2.954 21.235-7.017 5.123-4.102 8.702-9.742 11.05-16.036 4.767-12.775 4.12-27.292 1.971-34.099-.744-2.356-2.646-4.35-5.715-5.802-3.085-1.461-7.02-2.19-10.962-2.1-3.968.09-7.52.998-9.916 2.386-2.347 1.36-3.074 2.806-3.074 4.161 0 5.334.44 8.978.93 11.298.246 1.163.495 1.942.68 2.41.063.159.11.263.14.324a4.5 4.5 0 0 1-6.8 5.885c-.802-.859-1.337-1.958-1.706-2.892-.415-1.043-.795-2.328-1.12-3.864-.65-3.076-1.124-7.366-1.124-13.161 0-5.6 3.466-9.575 7.563-11.948 4.047-2.345 9.19-3.483 14.222-3.597 5.059-.115 10.432.792 15.018 2.963 4.602 2.178 8.735 5.81 10.446 11.227 2.76 8.741 3.341 25.318-2.121 39.955-2.765 7.412-7.165 14.557-13.856 19.915-6.741 5.399-15.543 8.768-26.681 8.991-12.023.24-20.618-5.595-26.291-14.293-5.525-8.468-8.337-19.663-9.522-30.862-1.194-11.279-.78-23.004.477-32.879 1.23-9.665 3.353-18.237 5.976-22.806 3.755-6.543 10.319-11.204 17.793-14.232 7.517-3.046 16.32-4.599 25.165-4.69 17.404-.181 36.534 5.347 46.371 18.462 4.933 6.578 7.802 15.649 9.36 25.552 1.571 9.983 1.874 21.249 1.354 32.587-1.039 22.654-5.395 46.144-10.011 61.251-2.769 9.062-9.932 15.096-18.8 18.817-8.836 3.707-19.803 5.333-31.284 5.438-22.942.211-49.243-5.65-67.552-15.017-10.682-5.466-15.553-16.431-17.422-28.735-1.876-12.344-.909-27.047.996-41.623 1.418-10.834 3.393-21.865 5.213-32.02.633-3.524 1.244-6.944 1.808-10.212 2.246-13.022 3.618-23.202 2.895-29.161-.44-3.634-2.494-6.326-6.29-8.406-3.96-2.168-9.554-3.484-16.17-4.037l-.3-.025v-9.026zM112.514 1000c3.382-2.478 6.804-4.955 10.219-7.421l2.084-1.505c16.726-12.081 33.114-23.917 44.515-34.786 5.948-5.67 10.234-10.799 12.537-15.292 2.266-4.423 2.321-7.591 1.023-10.11a4.5 4.5 0 1 1 7.999-4.124c3.11 6.032 2.013 12.434-1.013 18.338-2.989 5.835-8.134 11.791-14.336 17.702-11.86 11.307-28.7 23.468-45.191 35.377l-2.347 1.695-.174.126h-15.316zm244.884 0a55.835 55.835 0 0 0-.842-5.557c-1.89-9.22-6.361-18.243-15.696-24.322-5.189-3.379-12.764-3.896-22.47-2.461-7.658 1.133-15.87 3.341-24.257 5.597-2.151.578-4.312 1.16-6.479 1.727-10.302 2.696-20.906 5.125-29.747 4.49-4.511-.323-8.876-1.458-12.591-4.009-3.778-2.594-6.525-6.408-8.154-11.43-1.407-4.339-.522-8.329 2.028-11.591 2.33-2.979 5.896-5.175 9.674-6.91 7.362-3.381 17.615-5.905 27.516-8.342l.876-.216c10.463-2.576 20.551-5.107 27.966-8.469 7.795-3.535 10.292-6.895 10.136-10.095-.038-.771-.241-1.199-.463-1.495-.25-.332-.73-.763-1.679-1.19-2.023-.911-5.34-1.438-10.07-1.46-7.974-.037-18.215 1.319-29.265 2.783-1.968.261-3.961.525-5.972.785-12.988 1.681-26.696 3.196-37.5 2.013-5.413-.593-10.566-1.903-14.626-4.575-4.255-2.8-7.093-6.967-7.822-12.551-.792-6.074.923-11.241 4.523-15.396 3.45-3.983 8.437-6.824 13.94-8.969 10.97-4.277 25.752-6.429 39.817-8.231 1.893-.242 3.773-.478 5.633-.712 12.284-1.543 23.679-2.974 32.125-5.376 4.891-1.391 8.161-2.948 9.98-4.578.852-.762 1.272-1.441 1.472-2.028.193-.567.278-1.325.02-2.425-.509-2.177-1.726-3.633-3.881-4.726-2.356-1.195-5.801-1.911-10.384-2.117-8.181-.367-18.422.917-29.322 2.284-1.362.171-2.734.343-4.114.513-12.06 1.489-24.784 2.854-34.739 1.302-5.028-.784-9.826-2.374-13.539-5.47-3.857-3.218-6.138-7.723-6.613-13.43-.458-5.487.67-10.194 3.391-14.013 2.671-3.749 6.557-6.191 10.808-7.821 8.32-3.19 19.418-3.762 29.931-3.951a845.68 845.68 0 0 1 7.151-.091c8.263-.081 16.006-.158 22.452-1.083 4.104-.59 7.244-1.475 9.427-2.676 2.065-1.135 3.065-2.421 3.47-3.964.504-1.926.44-4.381-.317-7.493-.753-3.101-2.122-6.574-3.925-10.392-1.799-3.809-3.949-7.797-6.208-11.958l-.382-.705c-2.12-3.904-4.317-7.95-6.278-11.96-4.072-8.328-7.594-17.378-6.979-25.739.318-4.332 1.744-8.489 4.694-12.177 2.916-3.644 7.122-6.581 12.623-8.862 5.56-2.306 10.672-3.072 15.35-2.156 4.727.926 8.498 3.469 11.521 6.843 5.796 6.47 9.335 16.622 12.386 26.558.676 2.201 1.333 4.41 1.986 6.608 2.422 8.146 4.804 16.157 7.977 23.158 4.026 8.881 8.852 15 15.456 17.454 4.548 1.691 10.531.879 17.976-1.885 6-2.228 12.233-5.432 18.585-8.696a846.218 846.218 0 0 1 4.363-2.233c7.554-3.83 15.489-7.596 22.449-8.542 3.582-.487 7.286-.29 10.68 1.326 3.47 1.651 6.104 4.538 7.926 8.469 1.868 4.031 2.246 8.012 1.191 11.811-1.024 3.689-3.284 6.797-5.968 9.42-5.259 5.14-13.186 9.381-20.568 13.148-1.047.534-2.085 1.06-3.109 1.579-6.52 3.302-12.499 6.33-16.884 9.577-5.24 3.878-6.255 6.596-5.64 8.921.06.226.119.316.129.331l.002.003c.004.007.005.008.02.018.051.035.396.238 1.362.293 2.056.116 5.302-.507 9.843-1.98 5.643-1.83 12.196-4.573 19.411-7.594 4.395-1.84 9.034-3.782 13.862-5.683 12.355-4.865 25.73-9.35 37.344-9.746 5.87-.199 11.6.629 16.608 3.233 5.099 2.652 9.11 6.969 11.725 13.102 2.585 6.061 2.97 11.721 1.11 16.872-1.821 5.042-5.57 8.973-10.042 12.114-8.792 6.176-21.912 10.327-34.464 13.989-1.842.538-3.677 1.066-5.492 1.589-10.948 3.153-21.229 6.113-28.897 9.865-4.446 2.174-7.52 4.393-9.285 6.658-1.605 2.06-2.201 4.223-1.584 7 .629 2.829 1.919 4.072 3.657 4.771 2.112.85 5.364 1.056 9.977.403 7.425-1.051 16.517-3.996 26.492-7.227a1104.73 1104.73 0 0 1 7.532-2.419c12.483-3.944 25.972-7.719 37.269-7.12 5.755.306 11.292 1.756 15.896 5.187 4.658 3.472 7.917 8.639 9.664 15.538 1.768 6.984 1.174 13.132-1.681 18.368-2.796 5.129-7.468 8.845-12.851 11.639-10.613 5.51-25.582 8.211-39.844 10.429-2.221.345-4.428.679-6.607 1.009-12.224 1.851-23.603 3.575-32.147 6.467-5.019 1.699-8.456 3.619-10.441 5.727-1.751 1.86-2.532 4.006-1.946 7.148 1.652 8.858 4.339 18.455 7.196 28.11.606 2.05 1.221 4.105 1.834 6.156.391 1.307.782 2.612 1.169 3.912h-9.393l-.362-1.211c-.622-2.08-1.251-4.183-1.879-6.304-2.861-9.672-5.668-19.658-7.412-29.013-1.112-5.964.519-11.015 4.24-14.967 3.488-3.705 8.584-6.213 14.109-8.083 9.37-3.172 21.712-5.035 33.867-6.87 2.141-.323 4.276-.646 6.389-.974 14.525-2.259 27.995-4.807 37.081-9.523 4.467-2.319 7.459-4.96 9.094-7.959 1.576-2.891 2.178-6.641.859-11.852-1.34-5.294-3.619-8.52-6.317-10.53-2.751-2.051-6.389-3.172-10.995-3.416-9.425-.501-21.404 2.709-34.081 6.714-2.335.738-4.699 1.505-7.065 2.272-10.037 3.257-20.13 6.531-28.408 7.703-5.131.727-10.282.773-14.599-.965-4.691-1.888-7.859-5.661-9.083-11.168-1.234-5.558.118-10.438 3.271-14.484 2.994-3.842 7.488-6.794 12.429-9.211 8.443-4.13 19.629-7.346 30.492-10.468 1.79-.515 3.572-1.027 5.331-1.54 12.838-3.746 24.453-7.545 31.811-12.714 3.603-2.531 5.781-5.122 6.751-7.807.93-2.577.968-5.85-.923-10.285-1.861-4.363-4.488-7.029-7.599-8.647-3.201-1.664-7.253-2.39-12.15-2.223-9.917.338-22.011 4.265-34.353 9.125-4.358 1.716-8.789 3.569-13.115 5.377-7.524 3.146-14.731 6.159-20.678 8.087-4.682 1.518-9.289 2.622-13.127 2.405-1.981-.112-4.094-.59-5.936-1.851-1.935-1.323-3.178-3.24-3.77-5.477-2.163-8.172 3.304-14.252 8.985-18.458 5.054-3.74 11.827-7.166 18.26-10.419 1.01-.51 2.012-1.017 2.997-1.52 7.591-3.873 14.251-7.543 18.368-11.567 2.005-1.96 3.131-3.748 3.587-5.392.426-1.532.38-3.321-.685-5.619-1.111-2.398-2.393-3.538-3.627-4.126-1.309-.623-3.099-.875-5.601-.535-5.209.708-11.808 3.705-19.591 7.651a859.082 859.082 0 0 0-4.123 2.111c-6.37 3.277-13.206 6.794-19.762 9.228-7.92 2.941-16.534 4.75-24.245 1.884-10.014-3.722-16.168-12.581-20.517-22.175-3.455-7.621-6.069-16.424-8.508-24.641-.629-2.115-1.245-4.191-1.861-6.199-3.141-10.226-6.216-18.426-10.487-23.194-2.011-2.245-4.135-3.543-6.548-4.016-2.46-.482-5.731-.205-10.172 1.637-4.5 1.867-7.312 4.01-9.043 6.173-1.695 2.119-2.546 4.494-2.745 7.213-.422 5.74 2.048 12.864 6.088 21.126 1.874 3.831 3.985 7.719 6.129 11.667l.356.657c2.244 4.134 4.513 8.337 6.436 12.409 1.918 4.063 3.573 8.16 4.533 12.11.957 3.939 1.294 8.017.277 11.9-1.172 4.471-4.154 7.541-7.838 9.568-3.566 1.962-7.943 3.046-12.485 3.698-7.101 1.02-15.679 1.102-24.041 1.182a751.9 751.9 0 0 0-6.68.082c-10.709.194-20.247.817-26.871 3.356-3.22 1.235-5.383 2.792-6.7 4.641-1.267 1.778-2.067 4.268-1.753 8.042.297 3.555 1.585 5.744 3.41 7.266 1.969 1.642 4.966 2.836 9.16 3.489 8.49 1.324 19.923.181 32.25-1.341 1.365-.168 2.74-.341 4.121-.515 10.731-1.35 21.813-2.745 30.821-2.341 5.102.229 10.032 1.042 14.052 3.081 4.221 2.141 7.385 5.624 8.573 10.702.592 2.527.54 5.02-.264 7.38-.798 2.339-2.237 4.262-3.986 5.828-3.38 3.028-8.27 5.036-13.523 6.53-9.166 2.608-21.361 4.135-33.53 5.66-1.853.232-3.705.464-5.546.7-14.265 1.826-27.926 3.881-37.692 7.688-4.865 1.897-8.319 4.067-10.407 6.476-1.938 2.238-2.856 4.845-2.4 8.34.376 2.881 1.684 4.775 3.845 6.197 2.356 1.551 5.889 2.624 10.658 3.146 9.56 1.047 22.201-.288 35.365-1.991 1.926-.25 3.866-.507 5.803-.764 10.994-1.46 21.982-2.919 30.631-2.879 5.055.024 9.927.545 13.722 2.253 1.961.883 3.799 2.155 5.178 3.988 1.406 1.87 2.143 4.071 2.259 6.465.462 9.456-7.46 15.126-15.409 18.731-8.328 3.776-19.309 6.494-29.53 9.011l-.223.055c-10.427 2.568-19.991 4.923-26.565 7.943-3.322 1.525-5.332 2.986-6.34 4.275-.788 1.008-1.002 1.899-.557 3.271 1.099 3.387 2.751 5.457 4.687 6.786 2 1.373 4.665 2.203 8.141 2.452 7.136.513 16.34-1.476 26.824-4.22 2.016-.527 4.072-1.081 6.157-1.642 8.436-2.271 17.312-4.661 25.542-5.878 10.179-1.505 20.612-1.443 28.697 3.822 11.904 7.752 17.379 19.216 19.602 30.056.51 2.489.853 4.959 1.065 7.365h-9.04zm141.466 0c.76-.577 1.519-1.144 2.276-1.697 5.495-4.017 11.05-7.481 16.389-9.75 5.288-2.248 10.799-3.511 16.005-2.535 4.958.93 11.071 4.167 16.825 8.508a74.52 74.52 0 0 1 6.451 5.474h-14.255c-4.321-2.937-8.154-4.663-10.681-5.136-2.734-.513-6.322.057-10.825 1.972-1.978.841-4.049 1.906-6.197 3.164h-15.988zm113.648 0c.189-3.596.67-6.997 1.415-10.209 2.751-11.831 9.058-20.776 17.237-27.253 16.146-12.785 39.331-15.812 57.078-13.871 16.919 1.85 26.93 16.298 31.31 30.721 1.818 5.98 3.932 12.911 6.294 20.612h-9.414a7926.11 7926.11 0 0 1-5.492-17.996c-3.956-13.029-12.075-23.122-23.676-24.39-16.416-1.795-36.895 1.197-50.513 11.98-6.702 5.307-11.802 12.533-14.057 22.235a49.36 49.36 0 0 0-1.167 8.171h-9.015zm145.009 0c-2.671-7.013-4.77-13.932-6.857-21.347-.783-2.78-1.563-5.627-2.371-8.575-3.652-13.32-7.871-28.71-15.418-49.355-3.56-9.739-9.385-15.834-16.324-19.518-7.043-3.74-15.519-5.139-24.449-4.893-17.965.497-36.521 7.617-45.654 13.271a4.5 4.5 0 0 1-4.739-7.653c10.305-6.379 30.393-14.069 50.145-14.614 9.93-.274 20.081 1.248 28.918 5.94 8.941 4.748 16.249 12.595 20.556 24.377 7.686 21.024 12.011 36.801 15.667 50.141.799 2.92 1.568 5.724 2.332 8.441 2.369 8.415 4.707 16.017 7.864 23.785h-9.67zm243.269-223.79c-8.326.569-16.426 1.845-22.648 3.201a4.5 4.5 0 0 1-1.917-8.793c6.655-1.451 15.447-2.841 24.565-3.428v9.02zm0-186.742c-5.573.372-10.833-.093-15.303-1.96-6.317-2.639-10.453-7.83-11.794-15.389-1.37-7.732 1.113-14.518 5.904-20.217 4.66-5.544 11.564-10.166 19.505-14.151.556-.279 1.118-.556 1.688-.831v11.227c-6.016 3.274-10.582 6.674-13.537 10.19-3.268 3.886-4.471 7.76-3.713 12.038.788 4.451 2.846 6.671 5.802 7.906 2.708 1.131 6.508 1.557 11.448 1.159v10.028zm0-97.612c-6.666-1.946-12.681-5.035-17.394-9.773-5.63-5.661-9-13.274-9.763-22.941-.753-9.542 1.182-17.281 5.927-23.062 4.693-5.717 11.535-8.784 19.107-10.276a58.51 58.51 0 0 1 2.123-.376v10.15l-.19.037c-6.261 1.234-10.612 3.522-13.311 6.81-2.646 3.224-4.302 8.141-3.687 15.93.604 7.664 3.163 12.935 6.884 16.676 2.655 2.669 6.1 4.756 10.304 6.306v10.519zm0-202.583a63.755 63.755 0 0 1-4.438 4.51c-3.785 3.455-8.011 6.276-12.659 7.375-4.857 1.148-9.767.314-14.442-2.802-4.615-3.077-6.918-7.438-7.25-12.445-.312-4.713 1.127-9.753 3.273-14.678 4.291-9.843 12.335-21.202 20.049-32.084l.134-.188c5.656-7.979 11.147-15.727 15.333-22.835v16.635c-2.488 3.644-5.079 7.298-7.628 10.894l-.495.699c-7.902 11.146-15.304 21.67-19.143 30.476-1.918 4.4-2.715 7.876-2.542 10.486.153 2.314 1.057 4.081 3.263 5.551 2.682 1.789 5.045 2.084 7.378 1.532 2.542-.601 5.424-2.309 8.661-5.264 3.487-3.181 6.978-7.417 10.506-12.237v14.375zm0-100.559c-1.597-.097-3.403.249-5.495 1.068-4.59 1.798-9.869 5.682-15.507 10.99-8.968 8.44-17.882 19.517-25.403 28.86a850.558 850.558 0 0 1-5.468 6.75 4.5 4.5 0 0 1-6.953-5.716c1.597-1.941 3.338-4.106 5.197-6.417 7.532-9.362 16.985-21.113 26.459-30.031 5.896-5.55 12.182-10.384 18.392-12.816 2.872-1.125 5.845-1.768 8.778-1.692v9.004zm0-162.781c-3.027-3.301-6.126-6.446-9.261-9.349C983.047 8.731 974.62 2.953 966.881.445a33.236 33.236 0 0 0-1.49-.445h19.971c4.188 2.903 8.303 6.297 12.281 9.98 1.055.976 2.105 1.978 3.147 3.001v12.952zM953.03 0c-2.133.711-4.173 1.84-6.129 3.421-3.872 3.131-5.661 6.29-6.273 9.372-.628 3.16-.123 6.779 1.567 10.945 3.453 8.502 11.269 17.925 20.506 27.663 3.275 3.453 6.75 6.966 10.197 10.449 5.948 6.011 11.807 11.931 16.381 17.29 3.653 4.282 6.814 8.562 8.727 12.652 1.893 4.048 2.924 8.706.937 13.116-2.111 4.692-6.494 6.54-10.856 7.025-4.264.473-9.35-.214-14.612-1.35-6.606-1.425-14.423-3.794-22.389-6.207-4.607-1.397-9.265-2.808-13.765-4.06-12.774-3.553-24.503-5.91-33.152-4.673-4.197.6-7.302 2-9.479 4.199-2.159 2.18-3.86 5.602-4.389 11.13-.541 5.644.253 9.824 1.778 12.997 1.518 3.16 3.918 5.647 7.13 7.662 6.643 4.165 16.276 6.037 27.021 7.309 2.781.329 5.656.618 8.542.908 7.753.78 15.577 1.566 21.825 3.158 4.356 1.11 8.566 2.741 11.739 5.458 3.375 2.889 5.352 6.824 5.352 11.779 0 12.558-8.067 20.363-17.925 25.965-6.827 3.879-15.321 7.133-23.723 10.352-3.449 1.321-6.881 2.636-10.178 3.986-11.758 4.816-22.255 10.214-29.067 18.161-6.55 7.642-10.074 18.109-6.838 34.167a4.5 4.5 0 0 1-8.822 1.778c-3.711-18.41.246-31.791 8.827-41.802 8.318-9.704 20.599-15.763 32.489-20.633 3.796-1.555 7.523-2.981 11.122-4.359 8.083-3.095 15.536-5.947 21.745-9.475 8.744-4.97 13.37-10.391 13.37-18.14 0-2.26-.778-3.719-2.206-4.942-1.63-1.396-4.272-2.596-8.108-3.573-5.55-1.415-12.308-2.094-19.77-2.844-3.039-.306-6.194-.623-9.432-1.006-10.698-1.267-22.206-3.268-30.744-8.622-4.379-2.746-8.079-6.429-10.462-11.389-2.377-4.948-3.286-10.838-2.624-17.753.673-7.03 2.979-12.592 6.952-16.604 3.954-3.993 9.104-5.991 14.602-6.777 10.739-1.535 24.159 1.385 36.837 4.913 5.002 1.391 9.878 2.872 14.56 4.294 7.648 2.322 14.775 4.486 21.08 5.846 5.033 1.086 8.953 1.509 11.721 1.202 2.672-.297 3.348-1.121 3.642-1.773.42-.934.53-2.589-.883-5.61-1.394-2.981-3.928-6.529-7.421-10.622-4.395-5.15-9.797-10.604-15.54-16.402-3.498-3.532-7.122-7.191-10.722-10.986-9.2-9.701-18.149-20.218-22.313-30.471-2.116-5.211-3.132-10.672-2.057-16.085.795-4.004 2.679-7.698 5.661-11.039h15.569zM767.31 0c2.472 6.045 5.448 12.197 9.325 18.919 2.315 4.011 6.425 5.763 13.037 5.782 6.669.02 14.617-1.749 23.135-3.646l.257-.057c8.268-1.84 17.209-3.824 24.702-3.48 3.823.176 7.638.962 10.942 2.951 3.406 2.049 5.936 5.176 7.414 9.39 1.581 4.502 1.139 8.77-.88 12.582-1.916 3.619-5.124 6.592-8.7 9.111-6.713 4.726-16.163 8.798-25.228 12.704l-1.555.671c-9.838 4.245-19.123 8.37-25.592 13.182-6.441 4.79-8.844 9.269-7.771 14.322.591 2.793 1.829 4.486 3.444 5.641 1.737 1.242 4.249 2.096 7.681 2.485 6.987.794 16.054-.479 25.849-1.979l1.517-.234c8.968-1.379 18.495-2.844 26.122-2.241 4.079.322 8.148 1.262 11.447 3.535 3.482 2.4 5.68 5.994 6.368 10.656.625 4.242.179 8.057-1.318 11.43-1.487 3.35-3.871 5.949-6.625 8.004-5.331 3.98-12.658 6.336-19.347 8.329-.945.281-1.881.556-2.804.828-5.963 1.754-11.428 3.361-15.85 5.62-4.984 2.547-7.606 5.406-8.21 9.259-.31 1.975.087 5.616 1.429 11.116 1.296 5.313 3.31 11.75 5.727 19 1.294 3.881 2.701 7.989 4.162 12.254 3.949 11.527 8.288 24.191 11.819 36.571 4.818 16.888 8.358 33.966 7.23 47.639-.568 6.889-2.347 13.291-6.089 18.394-3.823 5.214-9.411 8.679-16.773 10.086-14.071 2.687-25.002-.875-33.576-8.511-8.302-7.393-14.125-18.366-18.918-30.04-3.039-7.403-5.816-15.507-8.54-23.456-1.544-4.506-3.071-8.963-4.62-13.214-4.388-12.052-9.047-22.78-15.104-30.568-3.687-4.741-8.868-6.441-15.706-6.376-6.266.059-13.204 1.588-20.625 3.223-.938.207-1.885.415-2.838.622-8.103 1.763-16.938 3.502-24.581 2.257-3.952-.643-7.752-2.101-11.024-4.854-3.271-2.752-5.734-6.564-7.39-11.467-1.66-4.914-1.961-9.406-.831-13.477 1.133-4.078 3.568-7.258 6.54-9.773 5.612-4.748 13.898-7.689 21.155-10.264l.306-.109c7.839-2.782 14.585-5.213 18.895-8.727 2.034-1.658 3.284-3.379 3.875-5.282.588-1.894.671-4.435-.45-7.993-1.117-3.547-2.676-5.694-4.351-7.05-1.688-1.367-3.824-2.196-6.524-2.555-5.679-.755-12.725.658-20.74 2.32l-.485.101c-7.383 1.532-15.752 3.269-22.785 2.16-3.766-.594-7.419-2.029-10.427-4.898-2.998-2.861-4.992-6.801-6.065-11.768-1.088-5.03-.751-9.513.994-13.433 1.727-3.881 4.64-6.773 7.945-9.001 5.87-3.958 13.906-6.371 21.065-8.521l1.816-.547c8.132-2.46 14.77-4.722 18.705-8.202 1.81-1.6 2.89-3.337 3.305-5.417.429-2.148.242-5.124-1.344-9.308-1.185-3.129-2.659-4.812-4.122-5.776-1.493-.984-3.41-1.507-5.957-1.551-4.525-.079-9.779 1.292-15.955 2.903-1.256.327-2.551.665-3.885 1.002-7.35 1.859-15.912 3.686-23.675 1.696-8.358-2.143-14.853-8.386-18.677-20.24-3.984-12.351-5.542-23.221-5.084-32.73h9.013c-.465 8.295.84 18.199 4.636 29.968 3.118 9.667 7.674 13.086 12.346 14.284 5.268 1.35 11.717.198 19.235-1.703 1.114-.282 2.261-.584 3.429-.891 6.143-1.616 12.886-3.39 18.774-3.288 3.679.064 7.421.839 10.752 3.035 3.362 2.216 5.879 5.595 7.587 10.103 1.984 5.239 2.608 9.981 1.753 14.259-.869 4.346-3.168 7.743-6.17 10.397-5.688 5.029-14.407 7.758-22.059 10.074l-1.423.429c-7.617 2.299-14.355 4.331-19.034 7.486-2.367 1.596-3.909 3.299-4.754 5.198-.828 1.86-1.183 4.341-.42 7.872.797 3.683 2.1 5.839 3.482 7.158 1.372 1.309 3.182 2.136 5.616 2.52 5.216.822 11.988-.513 20.04-2.183l.499-.104c7.42-1.54 15.907-3.302 23.254-2.326 3.896.518 7.718 1.823 11.002 4.482 3.299 2.67 5.729 6.442 7.273 11.341 1.54 4.888 1.709 9.347.458 13.37-1.247 4.015-3.767 7.127-6.781 9.584-5.609 4.573-13.745 7.458-20.906 9.998-.222.079-.445.157-.664.236-7.828 2.778-14.487 5.231-18.66 8.761-1.959 1.658-3.146 3.384-3.681 5.31-.536 1.933-.547 4.542.685 8.189 1.237 3.66 2.88 5.965 4.659 7.461 1.778 1.496 3.968 2.417 6.677 2.858 5.677.925 12.837-.344 21.221-2.168.924-.201 1.862-.408 2.81-.618 7.268-1.608 15.202-3.364 22.48-3.433 8.449-.08 16.864 2.096 22.895 9.85 6.989 8.986 12.036 20.876 16.457 33.014 1.681 4.616 3.261 9.233 4.825 13.8 2.648 7.737 5.248 15.33 8.205 22.532 4.672 11.382 9.866 20.76 16.578 26.737 6.439 5.736 14.518 8.566 25.901 6.391 5.365-1.025 8.861-3.374 11.202-6.567 2.423-3.304 3.892-7.901 4.379-13.812.984-11.927-2.129-27.65-6.916-44.43-3.461-12.136-7.678-24.447-11.605-35.908-1.479-4.319-2.919-8.518-4.26-12.54-2.428-7.285-4.542-14.016-5.933-19.712-1.344-5.51-2.19-10.72-1.575-14.645 1.247-7.948 6.839-12.726 13.005-15.878 5.238-2.676 11.631-4.55 17.503-6.271.907-.266 1.802-.528 2.677-.789 6.906-2.057 12.682-4.039 16.533-6.915 1.839-1.371 3.066-2.83 3.783-4.444.706-1.591 1.055-3.648.64-6.464-.353-2.395-1.308-3.69-2.571-4.56-1.448-.997-3.716-1.71-7.049-1.973-6.547-.518-15.13.798-24.617 2.253l-.951.146c-9.469 1.45-19.812 2.982-28.228 2.026-4.27-.485-8.457-1.646-11.9-4.108-3.564-2.549-5.986-6.25-7.013-11.094-2.168-10.219 3.703-17.831 11.204-23.411 7.472-5.557 17.799-10.081 27.398-14.224l1.107-.478c9.48-4.088 18.139-7.823 24.06-11.992 3.047-2.146 4.96-4.136 5.929-5.965.865-1.634 1.076-3.296.341-5.389-.835-2.38-2.079-3.766-3.562-4.658-1.584-.953-3.771-1.537-6.716-1.672-6.046-.278-13.706 1.354-22.331 3.274l-.838.186c-8.053 1.795-16.847 3.755-24.537 3.732-8.082-.023-16.179-2.263-20.807-10.285-4.841-8.39-8.352-15.96-11.208-23.416h9.679zM556.747 0c3.628 3.443 7.068 7.396 9.935 11.703 4.506 6.771 7.771 14.69 7.789 23.033.019 8.5-3.341 16.946-11.182 24.511-3.478 3.355-6.577 6.464-9.403 9.314l-1.118 1.128c-2.38 2.403-4.587 4.629-6.639 6.619-4.659 4.52-8.959 8.271-13.438 10.399-4.795 2.278-9.649 2.64-15.04.832-5.088-1.706-10.527-5.303-16.908-10.508-7.553-6.163-10.188-14.268-9.497-22.442.672-7.953 4.45-15.849 9.411-22.427 4.975-6.597 11.433-12.262 18.004-15.623 6.38-3.264 14.019-4.881 20.317-1.127 4.471 2.666 7.062 6.428 7.897 10.799.795 4.165-.086 8.42-1.544 12.197-2.904 7.526-8.723 14.76-13.085 19.122a4.498 4.498 0 0 1-6.363 0 4.499 4.499 0 0 1 0-6.364c3.909-3.909 8.778-10.107 11.052-15.998 1.13-2.931 1.461-5.38 1.099-7.268-.32-1.681-1.253-3.32-3.664-4.757-2.305-1.374-6.245-1.337-11.611 1.408-5.175 2.647-10.627 7.343-14.916 13.03-4.304 5.707-7.143 12.019-7.629 17.766-.467 5.527 1.2 10.616 6.219 14.71 6.191 5.051 10.595 7.781 14.079 8.949 3.181 1.067 5.626.85 8.316-.428 3.008-1.429 6.379-4.213 11.035-8.73 1.982-1.922 4.119-4.078 6.507-6.488l1.125-1.136c2.836-2.86 5.993-6.027 9.545-9.454 6.22-6.001 8.444-12.154 8.431-18.015-.013-6.019-2.393-12.223-6.282-18.066-3.875-5.822-9.075-11.017-14.25-14.921A58.866 58.866 0 0 0 542.469 0h14.278zm-41.801 0c-2.719 1.586-5.562 3.482-8.496 5.626-10.442 7.632-21.4 17.93-31.205 27.181a4.5 4.5 0 0 1-6.177-6.546c9.068-8.556 19.581-18.454 29.87-26.261h16.008zm-89.742 0c1.853 6.218 3.632 12.328 5.054 18.024 2.157 8.647 3.644 16.911 3.144 23.595-.254 3.385-1.036 6.68-2.76 9.478-1.788 2.9-4.435 5.011-7.886 6.136a92.95 92.95 0 0 0-2.226.773c-3.163 1.126-7.387 2.629-11.386 2.933-2.708.206-5.645-.072-8.517-1.398-2.896-1.337-5.391-3.586-7.437-6.784-1.738-2.719-3.126-7.242-4.397-12.473-1.322-5.441-2.668-12.347-4.103-20.328-1.092-6.081-2.234-12.765-3.458-19.956h9.13c1.136 6.66 2.192 12.829 3.187 18.364 1.428 7.95 2.735 14.633 3.99 19.796 1.305 5.373 2.416 8.47 3.234 9.749 1.262 1.974 2.518 2.949 3.626 3.461 1.133.523 2.454.718 4.063.595 2.677-.203 5.292-1.126 8.272-2.178 1.028-.363 2.101-.741 3.232-1.111 1.455-.474 2.362-1.244 3.014-2.302.715-1.16 1.258-2.901 1.447-5.427.385-5.138-.768-12.194-2.902-20.745-1.573-6.305-3.593-13.111-5.714-20.202h9.393zm-58.775 0c.72 8.048-.029 15.386-.879 20.313a4.5 4.5 0 1 1-8.869-1.532c.796-4.608 1.461-11.454.706-18.781h9.042zM127.392 0c-17.21 12.439-33.677 24.519-44.373 35.439-5.434 5.547-9 10.428-10.564 14.563-1.46 3.864-1.093 6.739.94 9.323 2.073 2.634 5.328 4.065 10.473 4.038 5.253-.027 11.906-1.6 19.767-4.437 13.359-4.818 29.044-12.828 45.448-21.206 2.909-1.486 5.841-2.983 8.787-4.476 19.295-9.781 39.197-19.39 56.126-23.458 8.481-2.038 16.631-2.795 23.793-1.215 7.357 1.624 13.5 5.688 17.65 12.79 4.384 7.504 5.866 14.661 4.656 21.463-1.196 6.722-4.918 12.505-9.826 17.53-9.657 9.884-25.092 17.966-39.612 25.434l-1.709.879c-14.32 7.359-27.589 14.179-35.757 21.826-4.174 3.908-6.575 7.645-7.32 11.335-.716 3.547-.043 7.761 3.408 13.025 7.428 11.331 13.881 14.331 19.29 14.502 5.942.187 12.088-2.886 19.296-7.102.737-.431 1.486-.874 2.245-1.323 2.767-1.636 5.66-3.348 8.514-4.802 3.663-1.866 7.601-3.495 11.71-4.153 4.196-.673 8.552-.328 12.899 1.708 4.288 2.008 8.243 5.508 11.957 10.606 3.676 5.045 5.854 9.77 6.544 14.279.705 4.611-.193 8.705-2.168 12.276-3.734 6.748-11.263 11.412-17.641 15.121-.952.554-1.884 1.088-2.795 1.611-2.339 1.341-4.539 2.602-6.594 3.914-2.849 1.818-5.013 3.488-6.435 5.133-1.362 1.577-1.838 2.886-1.816 4.144.023 1.345.629 3.42 3.013 6.444 17.496 22.19 27.967 31.95 30.631 33.874a4.5 4.5 0 0 1-5.27 7.296c-3.749-2.707-14.867-13.325-32.428-35.597-3.093-3.924-4.876-7.86-4.945-11.863-.07-4.091 1.659-7.466 4.004-10.181 2.286-2.646 5.332-4.876 8.404-6.836 2.249-1.436 4.731-2.859 7.138-4.239a413.59 413.59 0 0 0 2.568-1.48c6.716-3.905 11.945-7.458 14.29-11.698 1.064-1.924 1.536-4.017 1.147-6.558-.404-2.642-1.783-6.033-4.921-10.34-3.099-4.254-5.958-6.566-8.5-7.756-2.483-1.162-4.975-1.402-7.659-.972-2.771.444-5.747 1.604-9.047 3.286-2.576 1.313-5.143 2.831-7.87 4.442a525.5 525.5 0 0 1-2.431 1.433c-6.953 4.066-15.235 8.609-24.123 8.328-9.421-.297-18.198-5.847-26.534-18.563-4.432-6.76-5.991-13.359-4.703-19.74 1.26-6.239 5.1-11.545 9.991-16.124 9.123-8.541 23.428-15.885 37.183-22.948l2.318-1.19c14.892-7.66 28.86-15.091 37.29-23.72 4.135-4.233 6.627-8.456 7.403-12.818.762-4.281-.025-9.285-3.566-15.346-2.798-4.788-6.742-7.421-11.818-8.541-5.271-1.163-11.9-.709-19.751 1.177-15.736 3.781-34.712 12.876-54.16 22.735a3087.316 3087.316 0 0 0-8.648 4.406c-16.361 8.359-32.658 16.685-46.602 21.715-8.202 2.959-15.995 4.934-22.774 4.97-6.888.036-13.253-1.957-17.593-7.472-4.38-5.566-4.614-11.909-2.285-18.071 2.225-5.891 6.837-11.844 12.551-17.678C85.692 19.848 98.55 9.925 112.084 0h15.308zm598.543 0c19.873 64.792 57.013 183.607 79.745 248.773a4.5 4.5 0 1 1-8.498 2.964C774.079 185.508 736.188 64.184 716.521 0h9.414zM381.249 1000l-.163-.96c-1.986-11.651-4.194-24.609-6.775-38.471-8.467-45.477-20.674-99.007-40.767-140.559a4.5 4.5 0 0 1 8.103-3.918c20.658 42.72 33.031 97.284 41.512 142.83 2.581 13.861 4.828 27.042 6.831 38.791l.39 2.287h-9.131zM.792 536.98c15.732-7.607 36.713-13.598 57.252-18.989 4.476-1.175 8.928-2.32 13.312-3.449 16.684-4.294 32.382-8.335 44.561-12.732 7.714-2.785 13.525-5.549 17.152-8.321 3.653-2.792 3.961-4.634 3.732-5.824-.241-1.255-1.056-2.601-4.81-3.526-3.895-.96-9.644-1.045-17.108-.399-9.247.801-20.03 2.591-31.66 4.522-7.233 1.2-14.793 2.455-22.517 3.561-19.635 2.81-40.096 4.598-56.149.972a60.663 60.663 0 0 1-3.765-.975v-10.53a46.314 46.314 0 0 0 5.968 1.751c14.068 3.177 32.867 1.697 52.53-1.117 7.163-1.026 14.485-2.238 21.643-3.423 11.99-1.985 23.523-3.895 33.087-4.724 7.671-.664 14.793-.721 20.363.652 5.712 1.407 10.959 4.698 12.238 11.348 1.292 6.716-2.619 11.943-7.48 15.657-4.885 3.734-11.883 6.913-19.828 9.782-12.671 4.575-29.002 8.776-45.749 13.085a2814.279 2814.279 0 0 0-12.98 3.362c-21.34 5.602-42.053 11.588-56.873 19.026a94.62 94.62 0 0 0-2.919 1.527V536.98zm900.325 45.644a13.5 13.5 0 0 1 16.525-1.897l23.418 14.341c7.729 4.732 8.691 15.583 1.919 21.603l-19.101 16.978a13.498 13.498 0 0 1-15.31 1.828l-23.443-12.474c-8.044-4.281-9.624-15.138-3.133-21.534l19.125-18.845zm11.826 5.778a4.503 4.503 0 0 0-5.51.633l-19.125 18.845c-2.163 2.132-1.636 5.751 1.045 7.178l23.444 12.474a4.496 4.496 0 0 0 5.102-.61L937 609.944c2.258-2.006 1.936-5.623-.64-7.201l-23.417-14.341zm-95.532-251.189a4.5 4.5 0 0 1 1.606 6.158c-5.345 9.119-9.453 26.976-9.115 45.609.34 18.688 5.124 36.635 15.968 46.859 12.614 11.893 35.097 41.569 49.168 70.049 7.015 14.199 12.215 28.635 12.746 40.696.268 6.08-.635 11.891-3.409 16.795-2.833 5.008-7.391 8.661-13.617 10.7-5.734 1.879-10.916 2.051-15.546.485-4.606-1.559-8.139-4.662-10.92-8.375-5.243-7.003-8.511-17.221-11.493-26.545l-.226-.708c-3.201-10.004-6.164-19.027-10.617-25-2.146-2.877-4.461-4.786-7.078-5.781-2.586-.982-5.911-1.241-10.401-.044-3.124.833-6.224 3.863-8.716 10.504-2.453 6.533-3.93 15.617-4.425 26.604-.989 21.91 1.969 50.241 7.615 78.086 5.648 27.851 13.916 54.863 23.367 74.19 4.741 9.695 9.639 17.162 14.436 21.855 4.821 4.716 8.823 5.993 12.163 5.251 4.912-1.092 8.153-2.806 10.321-4.743 2.142-1.913 3.479-4.257 4.254-7.031 1.63-5.835.716-13.216-.737-21.363-.185-1.043-.38-2.102-.578-3.168-.534-2.905-1.078-5.852-1.46-8.599-.522-3.752-.821-7.603-.321-11.074.511-3.549 1.922-7.103 5.149-9.633 3.151-2.47 7.339-3.414 12.244-3.316 6.602.132 11.011 4.336 13.779 9.776 2.698 5.302 4.247 12.451 5.198 20.398 1.673 13.978 1.639 31.954 1.605 50.131-.005 2.567-.009 5.137-.009 7.7 0 20.977.318 41.549 3.308 57.098 1.496 7.783 3.591 13.891 6.357 18.076 2.668 4.037 5.802 6.091 9.716 6.458 4.411.414 7.333-.765 9.515-2.844 2.357-2.247 4.267-5.953 5.623-11.275 2.724-10.693 2.722-25.813 1.955-42.135-.245-5.226-.57-10.579-.892-15.895-.662-10.933-1.315-21.704-1.25-30.872.048-6.845.489-13.167 1.723-18.282 1.194-4.945 3.386-9.846 7.832-12.315 10.071-5.596 19.044-6.932 27.074-2.861 7.583 3.845 13.164 12.007 18.094 22.217a4.501 4.501 0 0 1-8.106 3.913c-4.803-9.95-9.302-15.691-14.058-18.103-4.31-2.185-9.935-2.131-18.633 2.701-1.043.579-2.422 2.288-3.453 6.56-.99 4.101-1.427 9.602-1.474 16.233-.062 8.87.56 19.1 1.211 29.835.328 5.392.662 10.91.922 16.447.761 16.218.876 32.612-2.224 44.779-1.556 6.108-4.044 11.668-8.136 15.568-4.268 4.068-9.851 5.919-16.562 5.29-7.209-.676-12.569-4.682-16.385-10.456-3.719-5.626-6.099-13.079-7.688-21.339-3.179-16.536-3.469-37.979-3.469-58.798 0-2.59.004-5.171.009-7.734.031-18.284.061-35.638-1.542-49.027-.917-7.662-2.321-13.531-4.282-17.387-1.893-3.721-3.849-4.817-5.938-4.859-3.783-.075-5.612.697-6.51 1.401-.823.645-1.492 1.723-1.794 3.833-.315 2.188-.165 5.023.326 8.551.353 2.536.842 5.186 1.364 8.018.203 1.107.412 2.241.62 3.408 1.414 7.928 2.804 17.275.545 25.364-1.17 4.188-3.324 8.107-6.926 11.323-3.575 3.193-8.328 5.475-14.364 6.817-7.61 1.691-14.578-1.899-20.409-7.604-5.857-5.729-11.293-14.24-16.229-24.335-9.905-20.254-18.366-48.072-24.101-76.355-5.737-28.289-8.818-57.396-7.786-80.28.514-11.41 2.062-21.562 4.989-29.361 2.887-7.691 7.522-14.09 14.825-16.037 5.937-1.584 11.237-1.451 15.917.327 4.65 1.767 8.243 4.99 11.094 8.815 5.487 7.359 8.854 17.883 11.886 27.359l.09.277c3.213 10.04 6.083 18.901 10.351 24.602 2.042 2.728 4.2 4.432 6.6 5.243 2.376.804 5.515.912 9.859-.512 4.315-1.413 6.967-3.717 8.586-6.579 1.678-2.967 2.472-6.94 2.25-11.967-.447-10.154-4.966-23.226-11.823-37.105-13.674-27.677-35.557-56.44-47.274-67.488-13.487-12.716-18.436-33.698-18.791-53.244-.357-19.6 3.877-39.281 10.349-50.323a4.501 4.501 0 0 1 6.158-1.607zm77.102 134.323a4.5 4.5 0 0 1 5.884-2.425c16.417 6.836 47.225 33.871 47.652 88.208a4.5 4.5 0 0 1-9 .071c-.398-50.648-28.951-74.49-42.111-79.97a4.5 4.5 0 0 1-2.425-5.884zM508.717 103.568c9.575 6.277 18.104 11.508 26.116 14.226 11.839 4.017 20.969.123 28.003-6.775 7.234-7.093 11.971-17.198 14.047-24.35a4.5 4.5 0 1 1 8.643 2.508c-2.359 8.128-7.725 19.773-16.389 28.269-8.862 8.69-21.422 14.223-37.196 8.871-9.244-3.136-18.665-8.999-28.158-15.222a1420.54 1420.54 0 0 1-4.748-3.13c-8.144-5.384-16.489-10.901-25.376-15.597-21.014-11.103-44.281-17.2-72.137-4.433-28.441 13.036-53.602 41.314-72.661 69.099-18.995 27.692-31.457 54.185-34.711 62.762-3.792 9.997-.294 18.606 5.077 22.219 2.654 1.784 5.903 2.493 9.456 1.618 3.602-.887 7.895-3.507 12.217-9.084 3.471-4.479 8.353-12.363 14.514-22.312 1.99-3.214 4.113-6.643 6.366-10.243 9.099-14.542 20.086-31.486 32.221-46.899 12.093-15.358 25.561-29.506 39.71-38.194 14.242-8.744 29.753-12.263 45.154-5.088 28.03 13.06 38.762 28.899 41.141 44.058 1.999 12.735-2.156 24.25-4.567 30.931-.354.982-.671 1.86-.925 2.622-2.269 6.807-19.531 48.6-42.862 84.685-11.643 18.009-25.055 35.007-39.161 45.434-14.179 10.482-30.097 14.957-45.424 5.4-15.041-9.378-19.92-25.847-18.897-43.798 1.021-17.924 7.906-38.217 17.499-57.052 9.615-18.875 22.138-36.656 34.801-49.558 6.329-6.448 12.802-11.789 19.074-15.421 6.207-3.596 12.648-5.766 18.748-5.175 5.337.516 9.809 1.982 13.356 4.455 3.589 2.502 5.973 5.855 7.368 9.682 2.701 7.412 1.666 16.491-.629 25.16-4.068 15.358-12.901 32.17-18.241 42.332a638.836 638.836 0 0 0-1.987 3.802c-4.897 9.488-12.421 23.843-21.56 34.407-4.568 5.28-9.82 9.954-15.68 12.485-6.062 2.618-12.704 2.89-19.378-.592-5.072-2.646-7.426-7.053-7.789-11.896-.339-4.523 1.036-9.318 2.89-13.602 3.729-8.618 10.249-17.089 14.276-21.117a4.499 4.499 0 1 1 6.364 6.363c-3.367 3.368-9.175 10.92-12.38 18.328-1.613 3.727-2.356 6.944-2.175 9.355.157 2.09.962 3.538 2.977 4.59 3.996 2.085 7.774 1.981 11.646.308 4.077-1.76 8.275-5.293 12.442-10.11 8.331-9.63 15.406-23.03 20.37-32.647.62-1.201 1.316-2.529 2.069-3.964 5.392-10.279 13.675-26.071 17.456-40.346 2.172-8.203 2.601-15.033.873-19.774-.82-2.249-2.125-4.033-4.058-5.381-1.976-1.377-4.861-2.472-9.077-2.88-3.453-.334-7.952.866-13.37 4.005-5.354 3.1-11.193 7.856-17.162 13.937-11.931 12.156-23.944 29.158-33.205 47.339-9.28 18.22-15.609 37.256-16.533 53.479-.922 16.198 3.52 28.695 14.673 35.649 10.867 6.776 22.605 4.394 35.313-5 12.781-9.449 25.487-25.347 36.954-43.084 22.892-35.407 39.836-76.508 41.881-82.644.321-.962.685-1.988 1.071-3.074 2.423-6.816 5.679-15.977 4.068-26.237-1.78-11.343-9.846-25.087-36.051-37.296-11.718-5.459-23.941-3.2-36.643 4.6-12.796 7.856-25.482 21.019-37.349 36.091-11.823 15.017-22.6 31.624-31.663 46.106a2311.839 2311.839 0 0 0-6.082 9.789c-6.258 10.109-11.526 18.618-15.313 23.506-5.232 6.749-11.136 10.821-17.179 12.309-6.093 1.5-11.937.267-16.63-2.889-9.322-6.27-13.529-19.54-8.47-32.879 3.526-9.295 16.333-36.422 35.704-64.661 19.306-28.144 45.609-58.108 76.333-72.19 31.311-14.351 57.656-7.197 80.092 4.658 9.314 4.921 18.088 10.724 26.23 16.108 1.564 1.035 3.106 2.054 4.623 3.049zm34.362 135.762c13.438 1.027 27.106 7.139 35.594 12.371a4.5 4.5 0 0 1-4.722 7.662c-7.779-4.795-20.049-10.18-31.557-11.059-5.705-.435-10.954.257-15.345 2.413-4.301 2.112-8.106 5.784-10.783 11.955-1.617 3.724-1.956 6.937-1.524 9.818.438 2.923 1.715 5.787 3.749 8.701 4.071 5.837 10.605 11.146 17.7 16.911l.593.482c6.974 5.669 14.618 11.933 18.82 19.166 2.177 3.747 3.548 7.926 3.392 12.551-.156 4.621-1.823 9.275-5.034 13.997-6.592 9.693-15.156 13.134-24.287 13.073-8.663-.058-17.79-3.276-25.947-6.284l-1.812-.669c-7.793-2.884-14.658-5.423-20.694-5.954-3.132-.275-5.748.032-7.96.965-2.16.912-4.248 2.552-6.154 5.479-1.885 2.894-2.39 5.292-2.223 7.364.172 2.145 1.106 4.426 2.921 6.952 3.764 5.238 10.355 10.299 17.817 16.003l.136.104c7.076 5.407 14.93 11.412 19.778 18.179 2.501 3.489 4.385 7.416 4.88 11.802.502 4.452-.471 8.989-3.053 13.558-2.522 4.461-5.683 7.674-9.421 9.755-3.716 2.068-7.719 2.86-11.702 2.933-7.157.13-14.966-2.103-21.948-4.1l-1.601-.458c-7.827-2.223-14.518-3.912-20.098-3.244-2.642.316-4.913 1.158-6.895 2.701-2.001 1.559-3.966 4.033-5.658 8.005-3.412 8.011-2.622 12.999-.538 16.758 2.338 4.219 6.63 7.592 11.985 11.652l.472.357c4.896 3.709 10.668 8.08 14.145 14.009 3.85 6.567 4.658 14.509.73 24.61-6.14 15.789-17.093 27.565-25.62 36.732-1.746 1.877-3.39 3.645-4.871 5.316-4.603 5.195-7.245 9.008-7.939 12.255-.31 1.449-.224 2.786.344 4.195.595 1.479 1.819 3.272 4.157 5.391 2.074 1.879 4.121 2.737 6.189 2.943 2.132.212 4.641-.237 7.612-1.571 6.068-2.724 13.16-8.722 21.121-17.515 15.738-17.381 33.357-43.928 51.515-71.286l.381-.574c18.156-27.353 36.818-55.425 54.216-74.781 8.683-9.659 17.339-17.484 25.745-21.909 8.518-4.484 17.401-5.752 25.626-1.052 3.846 2.197 6.65 5.225 8.324 8.995 1.649 3.709 2.074 7.846 1.691 12.132-.757 8.448-4.745 18.328-10.469 28.843-11.505 21.131-31.136 46.768-51.13 72.148-3.029 3.844-6.067 7.683-9.089 11.502-17.065 21.571-33.648 42.528-45.374 60.317-6.914 10.489-11.934 19.576-14.403 26.832-2.565 7.538-1.855 11.47-.092 13.443 5.1 5.707 11.166 7.181 18.453 5.563 7.64-1.697 16.481-6.815 25.997-14.417 18.963-15.149 38.919-38.746 54.995-58.505a4.5 4.5 0 0 1 6.98 5.68c-16.012 19.682-36.533 44.019-56.358 59.857-9.88 7.891-20.013 14.028-29.664 16.171-10.004 2.221-19.547.116-27.114-8.352-5.256-5.881-4.469-14.251-1.717-22.339 2.847-8.369 8.383-18.229 15.408-28.886 11.962-18.147 28.84-39.475 45.886-61.018 3.011-3.804 6.026-7.616 9.021-11.418 20.091-25.499 39.219-50.537 50.295-70.881 5.565-10.222 8.823-18.779 9.41-25.343.289-3.22-.088-5.733-.951-7.676-.837-1.883-2.251-3.512-4.564-4.834-4.642-2.653-10.089-2.419-16.968 1.202-6.99 3.68-14.796 10.563-23.244 19.961-16.862 18.759-35.132 46.202-53.41 73.742l-.705 1.06c-17.906 26.98-35.824 53.977-52.019 71.864-8.166 9.019-16.281 16.172-24.107 19.685-3.974 1.784-8.082 2.724-12.189 2.316-4.171-.415-7.983-2.187-11.341-5.23-3.01-2.728-5.212-5.594-6.463-8.697-1.278-3.174-1.458-6.345-.797-9.439 1.249-5.84 5.501-11.26 10.006-16.343 1.699-1.918 3.5-3.861 5.35-5.858 8.5-9.172 18.034-19.459 23.488-33.483 3.091-7.949 2.144-12.958-.106-16.796-2.51-4.282-6.921-7.676-12.29-11.746l-.228-.173c-4.958-3.758-10.817-8.198-14.192-14.288-3.682-6.644-4.146-14.609.13-24.647 2.152-5.052 4.95-8.887 8.409-11.58 3.478-2.708 7.364-4.059 11.355-4.537 7.686-.92 16.161 1.403 23.626 3.524l1.185.337c7.429 2.116 13.989 3.984 19.741 3.879 2.901-.052 5.369-.618 7.489-1.798 2.098-1.168 4.139-3.094 5.963-6.32 1.762-3.119 2.211-5.769 1.945-8.119-.273-2.416-1.345-4.908-3.253-7.571-3.936-5.494-10.634-10.695-18.064-16.374l-.576-.441c-6.925-5.291-14.494-11.073-19.084-17.461-2.425-3.375-4.239-7.2-4.583-11.481-.351-4.355.857-8.704 3.652-12.997 2.773-4.259 6.201-7.173 10.197-8.86 3.947-1.665 8.13-2 12.247-1.638 7.312.643 15.323 3.616 22.755 6.375.697.259 1.39.516 2.076.769 8.388 3.092 16.057 5.682 22.895 5.728 6.369.043 12.01-2.115 16.783-9.134 2.471-3.633 3.395-6.667 3.482-9.24.087-2.57-.647-5.09-2.178-7.726-3.214-5.531-9.4-10.757-16.715-16.703l-1.043-.846c-6.705-5.443-14.137-11.475-18.956-18.381-2.593-3.718-4.57-7.869-5.268-12.516-.703-4.689-.06-9.602 2.168-14.736 3.472-8.001 8.73-13.336 15.073-16.451 6.254-3.07 13.23-3.824 19.997-3.308zm175.494 419.215a4.5 4.5 0 0 1 5.764-2.698c10.851 3.932 24.857 14.245 32.632 32.404 7.821 18.264 9.109 43.899-4.482 78.051a4.5 4.5 0 0 1-8.362-3.328c12.932-32.494 11.244-55.597 4.571-71.18-6.718-15.689-18.724-24.333-27.425-27.485a4.501 4.501 0 0 1-2.698-5.764zm25.404-20.111a4.5 4.5 0 0 1 5.943-2.274c18.594 8.305 40.003 34.714 41.769 76.882a4.5 4.5 0 0 1-8.993.377c-1.651-39.445-21.553-62.389-36.447-69.041a4.5 4.5 0 0 1-2.272-5.944zM591.229 123.812a4.499 4.499 0 0 1 4.756 4.228c.503 8.546-1.124 21.433-7.794 32.577-6.823 11.399-18.81 20.728-38.201 21.698a4.501 4.501 0 0 1-.448-8.989c16.216-.811 25.557-8.358 30.927-17.331 5.523-9.228 6.956-20.209 6.532-27.426a4.5 4.5 0 0 1 4.228-4.757zm3.352 50.148a4.499 4.499 0 0 1 3.554 5.279c-3.9 19.985-16.257 30.934-29.929 36.28-13.422 5.248-28.096 5.133-37.585 3.453a4.5 4.5 0 0 1 1.569-8.862c8.315 1.472 21.237 1.524 32.74-2.973 11.255-4.401 21.151-13.11 24.372-29.622a4.5 4.5 0 0 1 5.279-3.555zm2.172 118.908a4.501 4.501 0 0 1 1.25 6.24c-3.797 5.695-8.437 15.692-9.779 26.769-1.331 10.98.59 22.698 9.397 32.605a4.5 4.5 0 0 1-6.727 5.979c-10.96-12.329-13.157-26.864-11.605-39.667 1.54-12.704 6.784-24.018 11.224-30.678a4.5 4.5 0 0 1 6.24-1.248zm34.086 58.978a4.5 4.5 0 0 1 4.743 4.243c.273 4.926 4.982 18.208 23.642 23.887 11.729 3.57 19.429 8.886 23.727 15.23 4.356 6.431 4.875 13.423 3.156 19.444-1.912 6.689-6.969 10.479-12.328 12.951-4.018 1.851-8.81 3.216-13.3 4.495-1.302.371-2.579.734-3.804 1.101-5.773 1.725-10.778 3.586-14.505 6.493-3.503 2.733-6.023 6.503-6.601 12.633a4.5 4.5 0 1 1-8.96-.845c.818-8.679 4.635-14.68 10.025-18.884 5.166-4.03 11.611-6.271 17.463-8.021 1.523-.455 2.994-.874 4.412-1.279 4.334-1.238 8.179-2.335 11.501-3.867 4.232-1.95 6.559-4.159 7.442-7.249 1.063-3.722.763-7.914-1.953-11.924-2.774-4.095-8.4-8.473-18.896-11.668-22.471-6.838-29.535-23.51-30.007-31.998a4.5 4.5 0 0 1 4.243-4.742zm-418.18 380.748a13.502 13.502 0 0 1 15.713 5.459l14.88 23.08c4.91 7.615 1.071 17.81-7.642 20.297l-24.575 7.013a13.5 13.5 0 0 1-14.588-4.995l-15.711-21.407c-5.392-7.347-2.106-17.815 6.517-20.762l25.406-8.685zm8.149 10.336a4.502 4.502 0 0 0-5.238-1.82l-25.406 8.685c-2.875.983-3.97 4.472-2.173 6.921l15.712 21.407a4.498 4.498 0 0 0 4.863 1.665l24.574-7.013c2.905-.829 4.184-4.227 2.547-6.765l-14.879-23.08zm-32.586-119.018a4.5 4.5 0 0 1 4.363 4.633c-.451 15.031-4.171 46.343-15.174 72.27 21.733-13.35 58.594-27.005 106.442-22.254a4.501 4.501 0 0 1-.89 8.956c-51.535-5.117-89.374 12.174-107.873 25.665-1.923 1.402-3.991 1.028-4.955.724-1.079-.34-1.986-.931-2.656-1.504-.67-.572-1.398-1.375-1.903-2.39-.452-.908-1.145-2.899-.049-5.02 13.145-25.448 17.579-60.625 18.062-76.717a4.5 4.5 0 0 1 4.633-4.363zm792.622 207.831a4.502 4.502 0 0 1 4.927 4.03c.734 7.353-1.273 18.015-9.336 26.996-7.513 8.369-19.862 14.82-38.919 16.195 3.632 9.674 6.729 22.935 6.246 36.761-.568 16.299-6.147 33.696-22.009 46.569a4.5 4.5 0 0 1-5.671-6.988c13.316-10.808 18.181-25.436 18.686-39.895.508-14.553-3.44-28.614-7.377-37.434-1.688-3.781 1.198-7.681 4.937-7.773 20.1-.493 31.319-6.664 37.41-13.448 6.174-6.877 7.591-14.941 7.076-20.088a4.5 4.5 0 0 1 4.03-4.925zm-21.096 58.979a4.5 4.5 0 0 1 6.294.944c2.885 3.902 4.946 9.489 6.172 15.634 1.242 6.226 1.696 13.385 1.107 20.692-1.17 14.488-6.535 30.357-19.048 40.372a4.5 4.5 0 0 1-5.624-7.026c9.85-7.884 14.641-20.942 15.701-34.07.525-6.502.112-12.824-.962-18.208-1.09-5.466-2.792-9.619-4.583-12.044a4.498 4.498 0 0 1 .943-6.294zM386.445 388.781c-6.643 5.657-12.421 14.652-15.674 21.313a4.5 4.5 0 0 1-8.087-3.95c3.535-7.239 9.975-17.444 17.926-24.215 3.987-3.395 8.673-6.202 13.841-7.043 5.373-.875 10.812.456 15.836 4.523 2.548 2.062 3.534 4.952 3.583 7.831.046 2.736-.73 5.661-1.867 8.548-2.286 5.8-6.601 12.821-11.99 20.469-9.311 13.215-22.48 29.193-35.888 45.46-2.174 2.639-4.356 5.285-6.527 7.928-15.674 19.076-30.87 37.997-40.413 53.367-4.799 7.728-7.931 14.193-9.111 19.112-1.187 4.958-.136 6.865 1.169 7.81 2.951 2.137 5.552 3.026 7.871 3.215 2.338.19 4.721-.305 7.26-1.445 5.291-2.374 10.528-7.165 16.341-12.729.368-.352.739-.707 1.112-1.066 5.206-4.997 10.939-10.499 16.948-13.657 3.326-1.748 6.992-2.931 10.943-2.85 4.005.083 7.919 1.457 11.7 4.198 5.166 3.745 6.463 9.884 6.103 16.051-.362 6.21-2.434 13.581-5.377 21.471-5.122 13.732-13.339 30.179-21.626 46.763a3776.754 3776.754 0 0 0-3.761 7.54c-9.589 19.285-18.657 38.238-23.138 53.694-2.245 7.741-3.214 14.206-2.732 19.19.466 4.825 2.224 7.884 5.241 9.755 3.159 1.958 6.209 2.43 9.378 1.871 3.316-.585 6.976-2.344 11.04-5.249 7.712-5.513 15.725-14.265 24.399-23.74.575-.626 1.15-1.255 1.729-1.887 9.116-9.945 18.938-20.442 29.214-27.117 10.419-6.768 22.129-10.108 34.365-4.234 6.373 3.058 10.843 7.153 13.522 12.206 2.659 5.017 3.325 10.551 2.864 16.119-.902 10.888-6.255 23.06-11.387 34.269l-1.278 2.784c-4.848 10.552-9.292 20.225-10.809 28.471-.807 4.392-.679 7.909.36 10.682.989 2.639 2.97 5.059 6.835 7.041 3.994 2.048 7.539 2.581 10.777 2.167 3.292-.421 6.586-1.864 9.949-4.265 6.854-4.894 13.254-13.211 19.561-22.49a609.933 609.933 0 0 0 5.213-7.841c4.341-6.603 8.652-13.158 12.814-18.137 2.942-3.519 6.136-6.672 9.62-8.612 3.639-2.027 7.813-2.825 12.141-1.132 3.775 1.477 6.488 3.964 8.209 7.187 1.657 3.104 2.265 6.642 2.377 10.142.199 6.247-1.187 13.641-2.489 20.588l-.38 2.03c-1.46 7.867-2.639 15.122-2.056 21.109.558 5.708 2.618 9.569 7.262 11.812 10.672 5.156 21.635.872 32.594-7.913 7.844-6.289 14.705-14.055 20.566-20.69 2.362-2.674 4.561-5.164 6.598-7.3a4.5 4.5 0 0 1 6.362-.151 4.499 4.499 0 0 1 .152 6.362c-1.648 1.729-3.593 3.929-5.778 6.403-5.982 6.77-13.774 15.587-22.271 22.398-11.648 9.338-26.545 16.529-42.138 8.995-8.334-4.026-11.549-11.3-12.305-19.042-.728-7.461.744-15.969 2.165-23.625l.338-1.813c1.355-7.261 2.551-13.669 2.384-18.875-.087-2.748-.556-4.76-1.319-6.191-.701-1.31-1.75-2.341-3.552-3.045-1.249-.489-2.591-.439-4.482.614-2.047 1.14-4.398 3.297-7.093 6.521-3.812 4.561-7.661 10.415-11.863 16.806-1.802 2.741-3.669 5.581-5.626 8.46-6.3 9.268-13.476 18.83-21.774 24.755-4.213 3.008-8.889 5.209-14.037 5.867-5.201.666-10.566-.286-16.026-3.086-5.59-2.867-9.281-6.887-11.156-11.891-1.824-4.87-1.752-10.199-.783-15.468 1.733-9.426 6.672-20.154 11.375-30.371.463-1.007.924-2.008 1.38-3.003 5.274-11.52 9.853-22.229 10.6-31.265.365-4.394-.215-8.083-1.846-11.161-1.613-3.042-4.479-5.915-9.464-8.308-8.303-3.985-16.56-2.183-25.568 3.668-9.151 5.945-18.218 15.544-27.483 25.651l-1.948 2.128c-8.425 9.21-17.06 18.65-25.58 24.74-4.635 3.313-9.559 5.881-14.71 6.79-5.298.934-10.601.067-15.685-3.086-6.021-3.733-8.799-9.731-9.456-16.538-.643-6.648.678-14.392 3.046-22.561 4.744-16.366 14.199-36.042 23.723-55.195 1.266-2.544 2.531-5.078 3.788-7.596 8.318-16.652 16.286-32.603 21.226-45.846 2.849-7.639 4.541-14 4.824-18.85.286-4.893-.888-7.143-2.4-8.239-2.492-1.807-4.66-2.447-6.603-2.486-1.999-.042-4.15.545-6.57 1.817-4.836 2.542-9.699 7.2-15.278 12.544l-.747.715c-5.578 5.339-11.921 11.316-18.879 14.438-3.585 1.609-7.493 2.544-11.673 2.204-4.198-.341-8.342-1.941-12.421-4.895-5.726-4.146-6.159-10.875-4.643-17.198 1.526-6.362 5.287-13.822 10.217-21.761 9.912-15.965 25.505-35.348 41.105-54.334 2.194-2.67 4.389-5.332 6.568-7.977 13.435-16.303 26.348-31.97 35.444-44.881 5.309-7.534 9.101-13.832 10.973-18.585.942-2.39 1.26-4.05 1.242-5.097-.008-.487-.088-.735-.129-.832a.341.341 0 0 0-.117-.155c-3.122-2.527-5.997-3.08-8.728-2.635-2.936.478-6.14 2.192-9.452 5.012zm565.137-84.989c13.877 10.957 22.341 27.243 24.633 42.713 2.278 15.375-.635 31.637-8.995 44.589-8.433 13.063-22.303 22.567-41.345 24.298-18.771 1.707-32.284-3.792-40.968-13.446-8.539-9.493-11.85-22.382-11.66-34.552.196-12.455 4.957-24.563 13.524-33.081 8.657-8.606 21.023-13.353 35.789-11.188 14.12 2.071 22.372 11.667 24.3 22.114 1.888 10.231-2.355 21.612-13.179 26.348-7.946 3.476-14.667 2.932-19.829.241-4.943-2.577-7.961-6.862-9.294-10.154a4.5 4.5 0 0 1 8.343-3.377c.685 1.693 2.403 4.139 5.111 5.55 2.489 1.298 6.333 2.001 12.062-.506 6.27-2.743 9.218-9.519 7.935-16.468-1.243-6.734-6.523-13.342-16.756-14.843-11.944-1.752-21.48 2.048-28.136 8.666-6.747 6.707-10.709 16.501-10.871 26.838-.166 10.622 2.756 21.059 9.353 28.393 6.45 7.172 16.977 12.001 33.461 10.502 16.216-1.474 27.63-9.42 34.599-20.216 7.042-10.909 9.649-24.918 7.653-38.389-1.981-13.376-9.364-27.539-21.307-36.969-11.797-9.316-28.243-14.183-48.971-8.834-24.269 6.263-38.753 20.202-45.682 37.312-7 17.287-6.48 38.31.39 58.748 6.772 20.146 18.428 32.592 33.297 38.964 15.026 6.44 33.914 6.924 55.43 1.891a4.5 4.5 0 1 1 2.049 8.764c-22.643 5.296-43.641 5.067-61.023-2.382-17.539-7.517-30.81-22.137-38.284-44.369-7.375-21.941-8.198-45.247-.201-64.994 8.069-19.923 24.925-35.72 51.775-42.649 23.432-6.047 42.776-.586 56.797 10.486zM702.986 704.168c-3.517-2.262-8.356-3.313-15.306-2.016-7.022 1.311-11.797 4.008-15.084 7.504-3.314 3.525-5.424 8.196-6.52 13.956-2.232 11.723-.09 26.919 3.417 42.983 1.351 6.185 2.924 12.567 4.469 18.833 2.339 9.492 4.614 18.715 5.944 26.574 1.12 6.611 1.698 12.85 1.026 18.043-.674 5.22-2.752 10.235-7.717 12.943-4.507 2.458-9.303 1.816-13.58-.033-4.205-1.817-8.474-5.018-12.648-8.721-5.443-4.831-11.38-11.144-17.349-17.49-3.086-3.284-6.183-6.575-9.223-9.675-9.269-9.453-18.094-17.218-26.074-20.291-3.851-1.482-7.188-1.743-10.18-.836-2.994.908-6.252 3.171-9.587 7.895-3.446 4.881-4.896 8.817-5.193 11.996-.29 3.091.473 5.828 2.15 8.478 3.581 5.66 11.084 10.616 20.762 15.955a565.61 565.61 0 0 0 6.884 3.711c7.508 4.004 15.49 8.261 22.068 13.072 8.698 6.36 16.142 14.51 16.901 25.766.603 8.943-5.511 16.372-12.172 22.709-3.32 3.158-7.125 6.354-10.966 9.579l-.492.412c-4.049 3.401-8.162 6.871-12.073 10.576-7.85 7.434-14.528 15.486-17.826 24.952-3.237 9.291-3.381 20.414 2.723 34.402a4.5 4.5 0 0 1-8.249 3.6c-6.911-15.841-7.034-29.31-2.973-40.963 3.999-11.478 11.897-20.723 20.136-28.526 4.133-3.914 8.442-7.547 12.474-10.933l.395-.332c3.923-3.294 7.536-6.327 10.648-9.288 6.695-6.369 9.691-11.175 9.394-15.583-.488-7.239-5.254-13.272-13.233-19.107-6.013-4.398-13.172-8.218-20.541-12.15-2.47-1.318-4.964-2.648-7.445-4.017-9.441-5.208-19.029-11.136-24.021-19.022-2.609-4.123-4.002-8.825-3.505-14.129.488-5.215 2.767-10.631 6.801-16.348 4.146-5.874 8.915-9.677 14.329-11.318 5.417-1.642 10.868-.935 16.024 1.05 10.034 3.863 20.095 13.034 29.267 22.388 3.373 3.439 6.629 6.905 9.784 10.263 5.758 6.128 11.177 11.894 16.336 16.472 3.95 3.505 7.366 5.948 10.245 7.192 2.807 1.213 4.491 1.052 5.699.393 1.381-.753 2.61-2.387 3.103-6.197.495-3.837.106-9.009-.974-15.385-1.297-7.649-3.408-16.189-5.667-25.323-1.559-6.305-3.187-12.893-4.666-19.667-3.511-16.078-6.074-32.886-3.467-46.586 1.323-6.951 4.019-13.346 8.804-18.437 4.812-5.12 11.426-8.588 19.989-10.187 8.635-1.612 15.939-.494 21.827 3.294 5.808 3.735 9.625 9.676 12.141 16.528 4.969 13.534 5.461 32.326 4.76 50.854-.349 9.213-1.004 18.552-1.624 27.375l-.029.42c-.631 8.985-1.216 17.387-1.417 24.721-.203 7.396-.003 13.373.82 17.597.412 2.111.927 3.504 1.431 4.348.455.764.751.848.789.859h.003c.176.054.713.143 1.863-.262 1.16-.41 2.652-1.224 4.49-2.561 3.683-2.679 8.07-6.941 13.071-12.392 4.968-5.416 10.364-11.806 16.081-18.625l1.832-2.186c5.144-6.14 10.516-12.551 15.961-18.745 12.091-13.752 24.992-26.961 37.256-34.01 6.165-3.544 12.609-5.793 18.989-5.397 6.586.409 12.455 3.595 17.337 9.622 4.828 5.96 7.024 12.382 6.986 19.028-.039 6.541-2.232 12.967-5.597 19.09-6.672 12.145-18.549 24.14-30.474 35.052-4.408 4.034-8.801 7.903-13.011 11.61-7.456 6.567-14.336 12.626-19.704 18.195-4.184 4.341-7.021 7.967-8.402 10.882-1.335 2.818-.913 3.984-.367 4.702.815 1.071 2.476 2.035 6.087 2.2 3.594.163 8.291-.518 13.981-1.852 5.639-1.321 11.933-3.202 18.66-5.266l3.007-.925c5.781-1.779 11.812-3.636 17.809-5.281 13.92-3.818 28.539-6.764 40.513-4.671 6.117 1.069 11.766 3.487 16.248 7.947 4.484 4.461 7.448 10.615 8.815 18.533 1.37 7.928.57 14.649-2.406 20.153-2.974 5.499-7.815 9.223-13.469 11.734-11.044 4.905-26.346 5.666-41.121 5.537-5.645-.05-11.208-.227-16.568-.398-9.164-.291-17.738-.565-25.123-.148-5.803.327-10.261 1.068-13.279 2.316-2.888 1.194-3.758 2.514-3.985 3.873-.307 1.838.168 3.074 1.494 4.318 1.585 1.487 4.389 2.919 8.626 4.21 7.394 2.253 17.361 3.588 28.306 5.055 1.585.212 3.191.427 4.811.648 12.498 1.704 25.833 3.757 36.257 7.841 10.384 4.069 19.365 10.787 20.301 22.549.356 4.482-.534 8.489-2.768 11.823-2.206 3.294-5.451 5.523-9.102 6.993-7.133 2.874-16.722 3.213-26.682 2.347-20.118-1.749-44.39-8.686-60.554-14.493a4.5 4.5 0 0 1-2.712-5.757 4.498 4.498 0 0 1 5.755-2.713c15.839 5.691 39.281 12.344 58.292 13.997 9.604.834 17.435.326 22.539-1.729 2.469-.995 4.047-2.251 4.987-3.655.914-1.363 1.498-3.267 1.272-6.1-.519-6.525-5.306-11.236-14.611-14.882-9.265-3.631-21.541-5.579-34.19-7.303-1.577-.215-3.161-.427-4.747-.639-10.809-1.444-21.618-2.887-29.776-5.373-4.672-1.423-9.063-3.349-12.162-6.255-3.356-3.149-5.049-7.342-4.213-12.362.916-5.499 4.839-8.815 9.423-10.71 4.455-1.842 10.149-2.643 16.211-2.985 7.733-.436 17.061-.143 26.556.155 5.271.165 10.592.332 15.72.377 14.889.13 28.343-.745 37.39-4.762 4.393-1.951 7.433-4.51 9.205-7.789 1.771-3.275 2.58-7.827 1.456-14.341-1.128-6.525-3.422-10.826-6.297-13.685-2.875-2.861-6.68-4.628-11.448-5.462-9.794-1.712-22.657.667-36.583 4.486-5.85 1.604-11.731 3.414-17.516 5.195l-3.042.935c-6.708 2.059-13.273 4.026-19.245 5.425-5.921 1.388-11.589 2.3-16.444 2.079-4.837-.22-9.708-1.619-12.843-5.744-3.402-4.476-2.681-9.61-.602-14 2.034-4.294 5.726-8.784 10.056-13.276 5.602-5.811 12.989-12.321 20.665-19.085 4.146-3.654 8.377-7.382 12.455-11.114 11.922-10.908 22.774-22.032 28.661-32.745 2.915-5.307 4.459-10.245 4.485-14.808.025-4.459-1.391-8.882-4.979-13.312-3.534-4.363-7.185-6.074-10.901-6.305-3.923-.243-8.566 1.125-13.947 4.218-10.829 6.224-22.864 18.367-34.982 32.15-5.37 6.107-10.67 12.433-15.821 18.583l-1.834 2.187c-5.703 6.802-11.223 13.341-16.346 18.927-5.091 5.549-9.971 10.359-14.409 13.586-2.221 1.617-4.504 2.964-6.791 3.77-2.297.81-4.879 1.169-7.456.391-2.729-.823-4.638-2.714-5.922-4.865-1.245-2.09-2.022-4.609-2.534-7.237-1.024-5.253-1.19-12.063-.984-19.565.208-7.563.808-16.168 1.436-25.104l.025-.359c.622-8.864 1.269-18.08 1.612-27.146.703-18.565.078-35.724-4.214-47.412-2.115-5.759-4.964-9.747-8.561-12.061zm-198.737 85.737c-8.718-2.731-18.46-1.659-24.728.24a4.5 4.5 0 1 1-2.61-8.613c7.447-2.256 19.108-3.636 30.028-.216 11.27 3.53 21.439 12.116 25.129 28.909 1.177 5.356 2.212 10.549 3.144 15.23.673 3.379 1.293 6.491 1.875 9.203 1.469 6.853 2.898 12.215 4.874 16.614 1.932 4.302 4.378 7.65 7.914 10.456 3.594 2.852 8.531 5.315 15.687 7.501a4.5 4.5 0 0 1-2.629 8.608c-7.806-2.386-13.883-5.274-18.653-9.059-4.827-3.83-8.097-8.405-10.529-13.818-2.388-5.315-3.972-11.461-5.464-18.414-.677-3.156-1.304-6.316-1.969-9.663-.88-4.437-1.826-9.204-3.039-14.726-2.959-13.463-10.663-19.631-19.03-22.252zm207.579-198.01c13.589-4.341 26.809-2.615 35.056-.522a4.5 4.5 0 1 1-2.212 8.723c-7.349-1.864-18.714-3.267-30.104.372-11.172 3.568-22.886 12.143-30.99 31.243-1.486 3.503-2.934 6.974-4.361 10.394-7.802 18.697-14.951 35.829-23.981 47.894-5.439 7.268-11.788 13.043-19.706 16.295-7.961 3.27-17.056 3.802-27.634 1.368-21.257-4.89-38.231-21.006-44.982-39.18-3.393-9.138-4.27-18.982-1.596-28.274 2.691-9.351 8.882-17.799 18.996-24.186 7.915-4.999 17.118-5.537 25.681-3.436 8.539 2.096 16.729 6.864 23.127 12.978 6.375 6.091 11.284 13.827 12.727 22.063 1.482 8.456-.773 17.127-8.16 24.309-6.341 6.165-13.019 9.02-19.5 8.994-6.431-.025-11.994-2.886-16.152-6.855-4.136-3.949-7.086-9.171-8.355-14.457-1.258-5.238-.971-11.102 2.24-15.796a4.5 4.5 0 0 1 7.428 5.082c-1.327 1.94-1.795 4.955-.917 8.613.867 3.61 2.94 7.299 5.82 10.048 2.856 2.728 6.302 4.351 9.972 4.365 3.621.014 8.139-1.535 13.192-6.447 5.182-5.039 6.551-10.684 5.566-16.303-1.023-5.84-4.669-11.94-10.079-17.109-5.386-5.147-12.208-9.064-19.055-10.744-6.823-1.674-13.375-1.077-18.729 2.304-8.396 5.303-13.119 11.997-15.153 19.066-2.051 7.129-1.464 14.985 1.385 22.651 5.734 15.437 20.362 29.356 38.562 33.544 9.149 2.105 16.291 1.503 22.197-.923 5.951-2.444 11.103-6.926 15.92-13.362 8.297-11.087 14.926-26.949 22.769-45.715 1.45-3.47 2.942-7.04 4.493-10.696 9.069-21.377 22.728-31.891 36.535-36.301zm-7.97-61.954c7.391-11.341 23.04-17.452 39.323-8.807 16.741 8.887 18.706 27.03 11.924 39.473-3.412 6.26-9.154 11.375-16.618 13.253-7.531 1.895-16.172.336-25.042-5.545-7.718-5.117-12.13-11.768-13.528-18.81-1.386-6.982.275-13.939 3.941-19.564zm4.887 17.812c.875 4.404 3.7 9.1 9.673 13.061 7.192 4.769 13.261 5.479 17.874 4.318 4.679-1.177 8.517-4.442 10.91-8.832 4.828-8.856 3.301-21.09-8.241-27.217-11.997-6.37-22.609-1.83-27.563 5.772-2.507 3.847-3.539 8.434-2.653 12.898zm-76.434-266.894a4.5 4.5 0 0 1 2.042 6.027c-3.807 7.711-2.734 16.319 1.726 24.947 4.475 8.658 12.142 16.819 20.387 22.891 8.156 6.006 17.277 11.166 26.539 16.293l2.244 1.241c8.443 4.666 16.967 9.375 24.504 14.602 8.226 5.705 15.592 12.231 20.647 20.401 5.115 8.268 7.715 17.984 6.755 29.742-1.506 18.451-10.132 30.128-22.324 37.956-11.841 7.602-27.024 11.549-41.594 15.148-10.392 2.567-17.94 9.285-23.219 16.958-5.307 7.713-8.111 16.109-9.047 21.31a4.5 4.5 0 0 1-8.858-1.594c1.139-6.326 4.386-15.945 10.49-24.817 6.132-8.914 15.354-17.353 28.476-20.594 14.822-3.662 28.512-7.323 38.888-13.985 10.024-6.435 16.958-15.678 18.218-31.114.807-9.886-1.359-17.679-5.439-24.275-4.141-6.693-10.398-12.383-18.123-17.74-7.141-4.953-15.266-9.443-23.803-14.162l-2.174-1.203c-9.235-5.112-18.834-10.526-27.516-16.919-9.065-6.675-17.786-15.83-23.046-26.007-5.276-10.207-7.287-21.953-1.8-33.064a4.5 4.5 0 0 1 6.027-2.042zm-1.899-100.59a4.5 4.5 0 0 1 4.179 4.8c-4.401 63.685 32.333 96.684 71.078 126.865 2.706 2.108 5.429 4.207 8.15 6.305 16.582 12.782 33.115 25.527 45.672 40.151 14.812 17.249 24.389 37.417 22.66 63.854-1.114 17.029-5.878 30.264-13.242 40.819-7.341 10.521-17.082 18.113-27.749 24.158-10.623 6.02-22.361 10.607-33.738 14.985l-1.471.566c-10.97 4.218-21.549 8.286-31.037 13.384-15.155 8.143-21.945 19.445-24.489 30.183-2.586 10.927-.805 21.466 1.562 27.66a4.499 4.499 0 1 1-8.406 3.214c-2.916-7.626-4.976-20.014-1.913-32.948 3.107-13.124 11.46-26.619 28.986-36.037 10.005-5.375 21.07-9.629 31.882-13.786l1.653-.636c11.45-4.405 22.579-8.774 32.535-14.415 9.911-5.617 18.463-12.392 24.803-21.478 6.317-9.053 10.623-20.665 11.643-36.257 1.54-23.548-6.836-41.482-20.507-57.403-11.903-13.862-27.594-25.966-44.23-38.799-2.743-2.117-5.513-4.253-8.295-6.42-38.955-30.344-79.27-65.956-74.526-134.586a4.501 4.501 0 0 1 4.8-4.179zM345.424 44.445a4.5 4.5 0 0 1-.807 6.313c-29.018 22.44-50.731 61.626-57.91 78.43a4.5 4.5 0 1 1-8.276-3.535c7.437-17.411 29.905-58.215 60.68-82.015a4.5 4.5 0 0 1 6.313.807zm15.548 35.516a4.5 4.5 0 0 1-1.046 6.277c-27.186 19.419-37.395 40.473-39.094 47.694a4.5 4.5 0 1 1-8.76-2.061c2.287-9.72 14.002-32.513 42.623-52.957a4.5 4.5 0 0 1 6.277 1.047zM61.99 89.707c5.273-.053 10.673 1.218 14.861 4.117 10.287 7.122 20.69 18.418 30.467 31.162 9.823 12.801 19.212 27.325 27.431 41.141 16.425 27.614 28.344 52.692 29.862 56.15.191.434.411.926.656 1.472 2.612 5.837 7.939 17.739 8.468 28.952.295 6.255-.857 12.919-5.352 18.26-4.527 5.377-11.776 8.626-21.988 9.432-11.72.925-23.089-7.161-33.242-18.161-10.39-11.255-20.613-26.779-30.056-43.315-15.103-26.449-28.573-56.16-37.74-76.383-2.297-5.066-4.324-9.536-6.038-13.21-3.796-8.133-4.716-15.374-3.169-21.544 1.558-6.208 5.473-10.761 10.235-13.709 4.709-2.915 10.297-4.31 15.605-4.364zM44.88 109.97c-.913 3.64-.587 8.731 2.594 15.548 1.77 3.793 3.84 8.359 6.172 13.501 9.178 20.241 22.4 49.401 37.266 75.435 9.323 16.326 19.15 31.161 28.854 41.674 9.94 10.769 18.706 15.863 25.921 15.293 8.722-.689 13.338-3.319 15.81-6.256 2.503-2.974 3.483-7.06 3.248-12.04-.443-9.387-5.038-19.72-7.717-25.745-.235-.529-.455-1.025-.657-1.484-1.371-3.122-13.121-27.872-29.357-55.168-8.113-13.638-17.303-27.84-26.836-40.263-9.575-12.481-19.304-22.91-28.45-29.241-2.29-1.586-5.733-2.557-9.647-2.517-3.88.039-7.82 1.073-10.96 3.017-3.086 1.91-5.338 4.645-6.24 8.246zm275.184 206.298a4.499 4.499 0 0 1 4.858 4.11c.749 8.985 7.508 29.114 28.03 37.035a4.5 4.5 0 0 1-3.241 8.396c-24.921-9.619-32.845-33.737-33.757-44.683a4.499 4.499 0 0 1 4.11-4.858zm-78.575-44.347c3.586 6.566 3.89 14.944-.227 24.393-4.204 9.648-15.909 13.871-25.826 12.136-5.16-.903-10.218-3.434-13.976-7.955-3.772-4.54-5.956-10.75-5.956-18.517 0-9.002 3.97-15.585 9.997-19.327 5.824-3.616 13.12-4.313 19.64-2.74 6.543 1.578 12.834 5.573 16.348 12.01zm-31.241-1.623c-3.234 2.007-5.744 5.612-5.744 11.68 0 6.043 1.671 10.109 3.878 12.764 2.222 2.674 5.268 4.259 8.605 4.842 7.078 1.239 13.939-2.079 16.024-6.865 3.238-7.43 2.577-12.826.579-16.485-2.068-3.788-5.98-6.469-10.559-7.574-4.602-1.11-9.347-.496-12.783 1.638zm-86.152 475.189c-3.893 6.388-10.997 10.841-21.238 12-10.458 1.183-19.967-6.843-23.422-16.298-1.799-4.92-2.137-10.566-.1-16.081 2.046-5.537 6.332-10.534 13.058-14.417 7.795-4.501 15.481-4.354 21.735-1.006 6.044 3.236 10.296 9.206 12.194 15.639 1.905 6.455 1.59 13.901-2.227 20.163zm-14.215-27.868c-3.355-1.796-7.732-2.168-12.987.866-5.233 3.022-7.919 6.502-9.115 9.741-1.204 3.261-1.053 6.691.11 9.873 2.466 6.749 8.77 11.032 13.957 10.445 8.053-.912 12.395-4.181 14.565-7.741 2.247-3.686 2.613-8.414 1.28-12.932-1.34-4.54-4.244-8.342-7.81-10.252zM742.845 269.48c-1.17 7.388-6.392 13.411-15.746 16.584-4.871 1.652-10.246.768-14.913-1.251-4.73-2.047-9.238-5.462-12.657-9.69-3.414-4.225-5.92-9.495-6.197-15.258-.283-5.884 1.783-11.846 6.749-17.175 5.904-6.334 13.451-7.461 20.315-5.455 6.625 1.936 12.646 6.739 16.765 12.416 4.097 5.646 6.79 12.839 5.684 19.829zm-24.973-23.606c-4.088-1.195-7.95-.541-11.207 2.953-3.427 3.676-4.502 7.31-4.344 10.605.165 3.417 1.686 6.913 4.208 10.033 2.521 3.119 5.864 5.631 9.231 7.088 3.432 1.485 6.399 1.682 8.447.988 6.826-2.315 9.199-5.998 9.749-9.469.612-3.868-.851-8.686-4.08-13.136-3.207-4.42-7.678-7.798-12.004-9.062z" fill="#fff"/></svg>