<svg width="250" height="250" viewBox="1 0 1000 1000" fill="none" xmlns="http://www.w3.org/2000/svg"><path d="M1000.79 778.6v-39.985c-6.53-7.701-14.197-14.613-23.221-20.475-33.614-21.85-75.568-28.372-114.564-31.659-20.525-1.734-43.068-1.963-66.401-2.2-66.642-.677-139.726-1.42-190.644-37.469-57.063-40.41-59.41-123.767-61.281-190.266-.224-7.931-.44-15.622-.742-22.971-.3-7.323-.517-14.984-.74-22.883v-.013c-1.88-66.541-4.236-149.95-61.283-190.341-50.987-36.102-123.751-36.817-190.37-37.472-23.384-.23-46.012-.452-66.675-2.195-39.033-3.303-81.855-8.476-115.484-30.302C70.08 124.827 57.409 77.974 51.268 34.191 49.712 23.11 48.675 11.677 47.956 0H31.099c.683 17.262 1.85 34.107 4.11 50.213 6.142 43.783 18.813 90.636 58.13 116.165 33.617 21.839 76.439 27.012 115.472 30.315 20.663 1.743 43.291 1.965 66.677 2.195 66.622.655 139.391 1.37 190.372 37.472 57.049 40.384 59.402 123.816 61.279 190.362v.007c.223 7.894.439 15.55.739 22.868.302 7.349.518 15.04.742 22.97 1.871 66.498 4.218 149.857 61.281 190.267 50.907 36.042 123.972 36.785 190.605 37.462h.002c23.347.237 45.905.466 66.443 2.203 38.991 3.292 80.945 8.907 114.573 30.757 17.798 11.566 30.322 27.407 39.266 45.344z" fill="#fff"/><path d="M.792 0h.009c.518 27.53 1.381 54.49 4.918 79.64 6.14 43.781 18.799 90.634 58.117 116.176 33.629 21.84 76.451 27.013 115.484 30.302 20.675 1.747 43.318 1.972 66.717 2.203 66.607.66 139.349 1.38 190.317 37.465 57.07 40.4 59.415 123.839 61.285 190.386.222 7.887.437 15.537.735 22.849.302 7.341.518 15.023.741 22.943v.002c1.875 66.512 4.224 149.89 61.296 190.293 50.918 36.05 123.995 36.792 190.635 37.47 23.332.237 45.875.466 66.401 2.199 39.005 3.288 81.855 8.463 115.482 30.3 39.318 25.555 51.977 72.394 58.118 116.176 5.314 37.878 7.978 79.787 9.113 121.596h-16.544c-.7-36.431-3.987-72.535-8.628-105.573-6.141-43.782-18.8-90.635-58.118-116.177-33.614-21.841-76.473-27.011-115.482-30.304-20.523-1.732-43.062-1.96-66.39-2.196-66.643-.676-139.725-1.416-190.646-37.468-57.078-40.42-59.418-123.801-61.285-190.314-.222-7.914-.438-15.589-.738-22.924-.3-7.316-.516-14.97-.738-22.861v-.007l-.001-.002v-.003c-1.877-66.544-4.23-149.968-61.281-190.364-50.978-36.085-123.722-36.805-190.33-37.464-23.399-.232-46.042-.456-66.717-2.203-39.034-3.302-81.855-8.462-115.484-30.302C23.587 196.126 9.48 172.325.792 146.151V0z" fill="#fff"/><path d="M.792 226.864v29.464c.479.322.957.645 1.436.954 33.616 21.84 76.45 27.013 115.484 30.302 20.672 1.748 43.313 1.972 66.712 2.203 66.605.66 139.354 1.38 190.323 37.465 57.043 40.391 59.401 123.822 61.281 190.348v.002c.223 7.9.44 15.563.74 22.886.302 7.352.519 15.045.742 22.978 1.871 66.507 4.216 149.863 61.278 190.26 50.929 36.061 124.01 36.798 190.652 37.47 23.331.235 45.872.462 66.398 2.195 38.995 3.306 81.855 8.462 115.482 30.317 39.309 25.542 51.977 72.381 58.118 116.163.761 5.908 1.663 11.827 2.567 17.754 2.147 14.085 4.303 28.22 4.581 42.373h16.538c-.502-25.489-4.013-50.455-7.312-73.907v-.002l-.315-2.24c-6.141-43.783-18.814-90.622-58.118-116.164-33.627-21.85-76.491-27.011-115.482-30.312-20.528-1.734-43.072-1.962-66.406-2.198h-.015c-66.639-.673-139.715-1.411-190.629-37.458-57.066-40.411-59.41-123.773-61.28-190.272v-.002c-.223-7.928-.439-15.617-.74-22.964-.301-7.324-.517-14.986-.741-22.887v-.005c-1.88-66.543-4.237-149.965-61.281-190.357-50.977-36.091-123.741-36.805-190.361-37.459h-.007c-23.386-.23-46.016-.452-66.68-2.195-39.02-3.303-81.855-8.476-115.471-30.316A100.086 100.086 0 0 1 .792 226.864z" fill="#fff"/><path d="M.792 300.692v21.247c23.286 6.488 47.994 9.132 71.357 11.106 20.663 1.743 43.291 1.965 66.677 2.195 66.622.655 139.391 1.37 190.371 37.473 57.045 40.392 59.402 123.806 61.281 190.348v.006c.224 7.899.44 15.56.74 22.883.302 7.351.519 15.043.742 22.975 1.871 66.497 4.216 149.854 61.28 190.263 50.906 36.042 123.971 36.784 190.604 37.461 23.347.237 45.905.466 66.444 2.203 38.996 3.293 81.855 8.449 115.473 30.304 39.318 25.542 54.245 72.381 60.4 116.163.246 1.782.528 3.572.812 5.369l.001.008c.486 3.077.975 6.179 1.294 9.304h17.378c-.7-10.463-2.031-20.717-3.426-30.69-6.155-43.796-21.087-90.635-60.405-116.177-33.613-21.854-76.472-27.011-115.482-30.303-20.519-1.733-43.057-1.961-66.384-2.197-66.642-.676-139.731-1.416-190.652-37.468-57.082-40.422-59.42-123.821-61.284-190.33-.222-7.908-.437-15.578-.736-22.908-.301-7.323-.517-14.984-.74-22.883l-.001-.006c-1.879-66.542-4.236-149.955-61.281-190.347-50.977-36.094-123.717-36.81-190.323-37.466-23.402-.231-46.047-.454-66.724-2.202-28.82-2.438-59.695-5.882-87.416-16.331z" fill="#fff"/><path d="M.792 357.685v18.253c8.702 1.045 17.339 1.845 25.807 2.554 20.676 1.748 43.318 1.972 66.717 2.203 66.607.66 139.349 1.38 190.318 37.465 57.058 40.392 59.414 123.809 61.294 190.351.223 7.9.44 15.562.74 22.886.3 7.328.515 14.996.736 22.901v.007c1.865 66.516 4.202 149.906 61.286 190.326 50.92 36.055 124.004 36.796 190.648 37.472 23.326.236 45.864.464 66.386 2.196 39.009 3.288 81.855 8.463 115.486 30.304 30.164 19.592 47.163 51.728 55.036 85.397h19.524c-6.969-39.229-23.582-78.716-58.505-101.419-33.627-21.842-76.486-26.998-115.482-30.304-20.523-1.732-43.062-1.961-66.39-2.197-66.643-.675-139.725-1.416-190.645-37.468-57.077-40.397-59.422-123.756-61.293-190.264-.223-7.931-.44-15.623-.741-22.974-.299-7.302-.514-14.941-.735-22.816v-.005c-1.873-66.553-4.222-150.009-61.287-190.415-50.969-36.085-123.71-36.805-190.317-37.464-23.4-.232-46.042-.456-66.718-2.204-13.666-1.147-27.81-2.528-41.865-4.785zM155.698 1000c-17.563-43.844-19.558-98.239-21.209-143.24v-.007c-.177-4.822-.35-9.536-.538-14.118-.3-7.323-.517-14.984-.74-22.883v-.002c-1.88-66.543-4.236-149.96-61.294-190.353-20.74-14.68-45.072-23.506-71.125-28.857v19.855c19.99 5.456 38.672 13.401 55.08 25.025 57.045 40.392 59.401 123.806 61.281 190.345.223 7.901.439 15.564.74 22.888.125 3.049.247 6.156.371 9.315 1.597 40.641 3.528 89.779 16.137 132.032h21.297zM.792 778.648c24.325 47.041 26.803 110.484 28.775 160.979.132 3.372.262 6.685.395 9.933.3 7.381.404 15.107.512 23.075.12 8.866.244 18.032.645 27.355h16.886c-1.067-16.888-1.672-33.534-2.239-49.127-.216-5.942-.426-11.73-.655-17.321-.218-5.331-.41-10.841-.607-16.491v-.002C42.458 858.256 39.884 784.25.792 738.585v40.063z" fill="#fff"/><path d="M.792 684.684a137.13 137.13 0 0 1 9.516 6.182c57.065 40.406 59.414 123.862 61.287 190.412V881.3c.222 7.87.437 15.503.735 22.799 1.19 28.767 3.718 62.762 7.803 95.901h18.469c-6.504-38.005-8.83-78.486-10.214-111.919-.3-7.324-.517-14.987-.74-22.888-1.88-66.534-4.236-149.958-61.281-190.35A152.413 152.413 0 0 0 .792 660.304v24.38zM.792 566.485c37.082 4.254 72.236 13.388 100.629 33.487 57.045 40.38 59.402 123.804 61.282 190.344v.008c.223 7.898.439 15.56.74 22.882.302 7.352.519 15.046.742 22.979 1.527 54.204 3.369 119.601 34.904 163.815h29.854c-44.859-43.126-46.981-118.622-48.701-179.841-.223-7.93-.439-15.621-.741-22.971-.3-7.325-.517-14.987-.74-22.888v-.003c-1.88-66.544-4.236-149.967-61.282-190.347C85.014 560.961 43.718 552.317.792 548.911v17.574z" fill="#fff"/><path d="M.792 517.849c53.14 1.846 106.318 8.436 146.179 36.663 57.07 40.401 59.416 123.843 61.287 190.393.221 7.885.436 15.533.735 22.845.302 7.35.518 15.042.741 22.973 1.871 66.507 4.216 149.863 61.293 190.26a159.39 159.39 0 0 0 36.474 19.016h96.66c-43.09-3.406-84.593-12.036-117.088-35.038-57.084-40.407-59.421-123.796-61.286-190.322v-.005c-.222-7.907-.437-15.576-.736-22.907-.298-7.3-.513-14.936-.735-22.808v-.012c-1.873-66.546-4.222-150.013-61.287-190.418C119.147 507.428 59.143 502.575.792 501.401v16.448z" fill="#fff"/><path d="m.792 471.577 1.353.013c66.62.653 139.392 1.365 190.389 37.474 57.045 40.393 59.402 123.807 61.282 190.349.223 7.901.439 15.565.74 22.89.301 7.35.518 15.042.741 22.974 1.871 66.498 4.216 149.854 61.281 190.259 50.922 36.053 124.013 36.795 190.661 37.472 23.326.236 45.864.465 66.385 2.197 35.478 2.993 74.164 7.533 106.164 24.794h38.891a100.948 100.948 0 0 0-13.523-10.513c-33.618-21.841-76.477-27.016-115.486-30.304-20.522-1.732-43.06-1.96-66.386-2.197-66.644-.675-139.727-1.416-190.648-37.472-57.084-40.419-59.422-123.809-61.286-190.325-.222-7.908-.437-15.578-.736-22.908-.301-7.323-.517-14.984-.74-22.883v-.006c-1.88-66.543-4.236-149.957-61.282-190.349-50.988-36.086-123.74-36.809-190.355-37.471-5.869-.059-11.69-.117-17.445-.198v16.204zM80.136 0c.202 1.596.414 3.185.636 4.767 6.142 43.77 18.8 90.635 58.117 116.164 33.617 21.84 76.451 27.013 115.485 30.302 20.672 1.747 43.313 1.971 66.712 2.203 66.605.659 139.354 1.379 190.324 37.464 57.063 40.406 59.411 123.86 61.283 190.412v.012c.222 7.874.437 15.512.735 22.813.302 7.347.518 15.034.741 22.961v.008c1.872 66.508 4.219 149.869 61.295 190.268 50.919 36.05 123.995 36.792 190.636 37.469 23.331.237 45.874.466 66.401 2.2 36.262 3.07 75.875 9.318 108.289 27.744v-24.532c-29.037-12.117-61.722-16.651-92.235-19.235-20.525-1.734-43.067-1.961-66.399-2.197h-.007c-66.637-.674-139.713-1.413-190.639-37.472-57.066-40.396-59.41-123.741-61.281-190.253l-.001-.01c-.223-7.93-.439-15.622-.741-22.973-.301-7.326-.517-14.991-.74-22.895-1.88-66.532-4.236-149.951-61.283-190.341-50.967-36.085-123.715-36.805-190.32-37.465-23.399-.231-46.04-.456-66.712-2.203-39.033-3.289-81.868-8.462-115.484-30.302C118.984 81.559 105.326 40.356 98.548 0H80.135z" fill="#fff"/><path d="M134.461 0c8.354 29.977 22.794 57.825 49.979 75.484 33.629 21.84 76.451 27 115.484 30.303 20.677 1.747 43.321 1.97 66.723 2.201 66.606.656 139.346 1.372 190.322 37.466 57.047 40.391 59.403 123.8 61.283 190.34v.013c.223 7.899.44 15.56.74 22.883.299 7.32.514 14.978.735 22.875v.014l.001.007v.011c1.864 66.509 4.201 149.907 61.287 190.33 50.918 36.05 124.002 36.792 190.64 37.47 23.332.237 45.873.466 66.396 2.199 20.483 1.727 42.029 3.97 62.739 8.875v-19.977c-15.04-2.979-30.656-4.542-46.684-4.921-14-.33-28.887-.267-44.29-.202-72.339.306-156.065.66-212.742-39.466-57.086-40.42-59.423-123.811-61.287-190.328v-.007c-.222-7.906-.437-15.573-.736-22.901-.3-7.324-.517-14.985-.74-22.884-1.881-66.543-4.238-149.96-61.296-190.353-50.968-36.085-123.71-36.805-190.317-37.464-23.399-.232-46.041-.456-66.716-2.203-39.033-3.29-81.855-8.463-115.484-30.302-22.264-14.464-35.98-35.76-44.804-59.463h-21.233z" fill="#fff"/><path d="M199.945 0c7.758 11.64 17.561 21.91 30.058 30.025 33.617 21.84 76.438 27.012 115.472 30.315 20.665 1.743 43.297 1.965 66.686 2.195 66.62.654 139.383 1.368 190.359 37.46 57.047 40.39 59.403 123.809 61.282 190.351.224 7.904.44 15.57.741 22.897.302 7.352.518 15.046.741 22.979 1.872 66.497 4.217 149.85 61.282 190.258 50.464 35.728 122.702 36.036 188.862 36.317 23.967.102 47.136.2 68.183 1.978 5.659.479 11.4 1.026 17.179 1.677v-17.591l-1.12-.095c-21.052-1.781-44.226-1.881-68.198-1.985-66.156-.286-138.387-.598-188.847-36.324-57.065-40.404-59.41-123.759-61.281-190.256-.224-7.934-.44-15.627-.742-22.979-.301-7.325-.517-14.988-.74-22.89-1.881-66.543-4.238-149.966-61.283-190.347-50.978-36.102-123.746-36.817-190.369-37.472-23.386-.23-46.014-.452-66.677-2.195-39.033-3.303-81.855-8.475-115.484-30.315A100.797 100.797 0 0 1 228.938 0h-28.993z" fill="#fff"/><path d="M307.563 0c26.685 9.321 56.02 12.566 83.474 14.88 20.675 1.747 43.318 1.972 66.717 2.203 66.607.66 139.348 1.38 190.316 37.465 57.071 40.402 59.416 123.847 61.287 190.396.222 7.884.437 15.53.735 22.84.302 7.35.518 15.04.742 22.97v.008c1.871 66.507 4.216 149.863 61.295 190.258 50.469 35.732 122.707 36.043 188.868 36.328h.002c13.602.059 26.947.116 39.791.48v-16.334c-7.784-.096-15.709-.13-23.724-.164-66.164-.282-138.41-.589-188.892-36.333-57.086-40.408-59.423-123.798-61.287-190.324v-.009c-.221-7.905-.436-15.573-.736-22.901-.297-7.291-.512-14.916-.733-22.778l-.001-.014v-.023c-1.873-66.546-4.223-150.015-61.288-190.422C613.161 2.44 540.413 1.72 473.807 1.06 456.948.895 440.483.731 424.865 0H307.563z" fill="#fff"/><path d="M679.015 0a147.645 147.645 0 0 1 14.618 9.101c57.045 40.393 59.402 123.807 61.283 190.349.223 7.9.439 15.563.74 22.888.302 7.352.518 15.045.741 22.979 1.872 66.497 4.217 149.851 61.282 190.257 49.006 34.696 118.546 35.764 183.111 35.939v-16.101c-59.833-.499-122.084-4.023-167.052-35.859-57.086-40.422-59.423-123.812-61.287-190.329v-.008c-.222-7.905-.437-15.572-.736-22.9-.301-7.325-.517-14.988-.74-22.888-1.779-62.943-3.984-140.984-52.5-183.428h-39.46z" fill="#fff"/><path d="M771.946 0c25.404 43.72 27.099 103.689 28.52 153.993.224 7.9.44 15.562.741 22.885.302 7.351.518 15.042.741 22.974v.007c1.871 66.507 4.216 149.86 61.282 190.255 37.611 26.631 87.304 33.183 137.56 35.193v-16.934c-44.67-2.612-87.909-10.484-121.501-34.267-57.065-40.407-59.41-123.76-61.282-190.258-.223-7.933-.439-15.627-.741-22.979-.301-7.325-.517-14.988-.74-22.889-1.255-44.413-2.723-96.344-20.52-137.98h-24.06z" fill="#fff"/><path d="M835.215 0c8.741 35.17 9.842 74.12 10.815 108.551.223 7.899.439 15.56.74 22.884.299 7.328.514 14.995.736 22.9v.008c1.864 66.517 4.201 149.907 61.287 190.328 25.755 18.237 57.807 26.951 91.997 31.132v-18.131c-27.904-4.818-53.983-13.476-75.943-29.023-57.074-40.396-59.419-123.75-61.29-190.257v-.008c-.224-7.93-.44-15.621-.742-22.971-.298-7.298-.513-14.932-.734-22.803v-.013c-.825-29.294-1.742-61.864-7.376-92.597h-19.49z" fill="#fff"/><path d="M888.268 0c2.135 21.472 2.745 43.05 3.311 63.096.223 7.9.44 15.564.741 22.889.301 7.352.518 15.045.741 22.979 1.871 66.497 4.217 149.851 61.281 190.257 14.004 9.915 29.686 17.159 46.448 22.464V300.65c-10.769-4.429-20.961-9.865-30.393-16.543-57.045-40.396-59.405-124.439-61.275-191.082-.224-7.971-.441-15.693-.743-23.062-.301-7.325-.517-14.987-.741-22.888-.425-15.059-.875-30.982-1.978-47.075h-17.392z" fill="#fff"/><path d="M936.592 0c.205 5.968.372 11.849.535 17.603V17.62l.001.006v.006c.223 7.903.44 15.567.742 22.892.303 7.386.52 15.137.744 23.145 1.871 66.799 4.244 151.532 61.279 191.906.297.212.597.423.897.632v-29.642c-42.331-43.715-44.428-118.621-46.117-178.916v-.023l-.001-.013c-.224-7.996-.44-15.735-.743-23.11-.3-7.318-.516-14.973-.739-22.866L953.144 0h-16.552zM983.622 0c.208 5.82.376 11.832.549 17.988 1.147 40.93 2.472 88.247 16.619 128.011V20.659c-.22-6.345-.39-12.594-.57-18.701v-.016c-.01-.649-.03-1.296-.05-1.942h-16.548zM772.033 999.999h23.945c-8.845-22.29-24.109-42.208-45.259-55.959-33.627-21.855-76.486-27.011-115.482-30.304-20.538-1.737-43.095-1.966-66.442-2.203h-.002c-66.632-.677-139.697-1.419-190.604-37.461-57.063-40.409-59.409-123.765-61.28-190.262-.224-7.933-.44-15.625-.742-22.976-.3-7.326-.517-14.989-.74-22.891-1.88-66.544-4.236-149.968-61.282-190.347-50.987-36.109-123.768-36.822-190.396-37.474-21.99-.215-43.309-.424-62.953-1.896v16.937c15.03.658 30.819.814 46.97.975h.022c66.596.661 139.337 1.382 190.299 37.467 57.045 40.391 59.402 123.825 61.282 190.351v.002c.223 7.9.439 15.562.74 22.885.302 7.352.518 15.045.741 22.979 1.872 66.506 4.217 149.862 61.281 190.254 50.93 36.062 124.013 36.8 190.656 37.474h.022c23.32.235 45.852.463 66.369 2.195 38.996 3.302 81.855 8.463 115.487 30.318 15.927 10.358 28.85 24.213 37.368 39.936z" fill="#fff"/></svg>