<svg width="360" height="640" viewBox="1 0 1440 2560" fill="none" xmlns="http://www.w3.org/2000/svg"><path d="M1287.26.335c-.66 5.56-1.9 11.49-3.81 17.82-23.54 78.14-190.24 64.16-394.888-17.82h398.698zM140.542 208.175c98.65-82.01 249.94 38.19 156.331 208.99v.01c-48.94 89.29-174.331 174.87-296.08 222.07v-110.16c49.135-65.477 66.186-133.563 80.837-192.06 13.678-54.616 25.263-100.874 58.912-128.85zM1388.4 657.195c-38.98 11.59-50.4-30.45-18.59-55.79 29.31-23.34 52.43-47.71 70.98-72.45v110.25c-17.62 6.83-35.16 12.87-52.39 17.99zM737.762 1464.31c37.993-35.12 23.388-61.6 12.925-80.57-6.799-12.32-11.849-21.48.416-27.78 12.86-6.6 25.998 9.27 41.654 28.19 22.265 26.89 49.626 59.95 88.535 43.29 165.148-70.73-171.649-291.9-496.24-412.35-145.86-54.105-288.65-79.535-384.26-87.745v62.84c50.91 17.485 116.59 44.485 193.75 92.165 85.822 53.04 173.435 136.58 253.899 213.31 124.706 118.9 232.241 221.44 289.321 168.67v-.02zM1401.22 976.905c-40.88-12.52-28.6-53.31 0-52.19 12.01.47 25.26 1.29 39.57 2.5v62.43c-14.42-4.92-27.63-9.09-39.57-12.74zM1440.41 2008.79c-90.71 4.42-206.09-1.98-337.92-46.49-158.281-53.44-327.354-179.55-475.952-290.38-188.086-140.29-343.369-256.11-402.446-169.15-42.972 63.27-2.189 101.68 27.414 129.56 19.017 17.9 33.42 31.47 18.036 44.48-16.067 13.6-35.922.26-58.955-15.22-33.346-22.41-73.353-49.29-118.174-5.38-140.26 137.37 290.349 379.77 795.67 444.48 206.987 26.52 408.127 7.71 552.337-20.16.13-.02.25-.05.38-.07v-71.68c-.13 0-.25 0-.38.01h-.01zM.792 2008.79v71.67c51.82-10.32 59.15-74.29 0-71.67z" fill="#000"/><path d="M1438.66 1911.87c-87.53-22.93-152.31-56.74-208.56-93.99-79.32-52.53-131.1-109.64-171.94-154.68-66.82-73.69-104.331-115.06-185.258-51.18-161.1 127.19 194.338 337.86 564.648 347.31.49.01.97.01 1.44 0 .61-.01 1.21-.04 1.8-.08v-46.75c-.69-.23-1.4-.44-2.13-.63zM.792 1912.5v46.75c27.7-1.87 27.46-37.79 0-46.75zM1147.99 2440.57c0-20.48 29.85-19.03 65.83-17.27 54.63 2.67 123.41 6.03 123.41-65.63 0-101.27-139.54-116.85-344.192-139.69-120.155-13.41-262.752-29.33-412.726-66.56-109.767-27.26-178.776-48.98-223.472-63.05-67.787-21.34-79.652-25.08-92.958-3.79-22.07 35.32 117.96 167.09 189.591 223.3 140.36 110.12 295.889 196.62 434.19 252.13H1287.3c6.48-56.68-48.35-75.09-91.13-89.46-26.38-8.86-48.18-16.18-48.18-29.98zM1013 301.215c7.42 49.663 45.9 42.695 73.23 37.746 15.05-2.725 26.71-4.838 27.95 3.454.94 6.256-8.96 11.56-21.18 18.102-21.75 11.655-50.84 27.238-39.06 59.128 27.74 75.12 224.68 18.85 363.94-128.44 8.12-8.59 15.75-17.58 22.91-26.81v-161.25c-28.62 15.08-65.04 33.69-110.26 52.36-64.98 26.828-127.02 40.802-178.79 52.463-89.02 20.051-147.69 33.265-138.74 93.237v.01zM1079.14 1391.84c-24.65-.09-59.35-.22-66.77-49.88-12.91-86.51 45.64-90.42 133.09-96.26 56.94-3.8 126.13-8.41 195.81-37.18 37.7-15.56 69.29-29.88 95.35-41.69l4.17-1.89v222.08l-.57.62-.3.33c-.15.16-.29.32-.43.47l-.28.29-.2.21c-139.26 147.31-351.32 215.19-394.69 97.73-11.82-32.01 17.49-51.4 39.24-65.79 12.08-8 21.83-14.45 20.9-20.65-1.23-8.3-11.75-8.34-25.32-8.39zM93.902 1138.46c-9.52-11.15-38.74 1.73-93.11 26.37v221.94c78.68-85.42 100.88-239.21 93.11-248.31zM12.272 96.478c39.626-21.017 61.798-32.777 69.86-23.333 7 8.2-18.51 108.03-81.34 189.8v-160.39c3.979-2.099 7.805-4.128 11.48-6.077zM1312.86 955.995c0-79.044-64.28-78.713-111.26-78.471-26.16.135-46.96.242-48.29-13.409-1.3-13.403 17.08-20.928 40.06-30.338 42.44-17.381 100.59-41.188 79.33-120.332-28.76-107.065-171.61-71.404-360.873-24.157-147.035 36.704-322.084 80.402-493.414 69.607-24.701-1.56-50.011-3.12-75.551-4.64 280.46-23.85 591.98-78.67 577.08-186.43-10.613-76.74-63.935-67.569-99.128-61.516-18.261 3.141-31.642 5.442-31.642-5.534 0-13.565 14.698-19.482 31.73-26.338 30.128-12.128 67.562-27.197 43.881-92.742-42.62-117.94-293.241-27.11-571.631 198.04-91.639 74.1-211.75 117.7-292.36 145.25v99.95c143.471 50.76 369.4 118 544.661 169.67 277.949 81.955 767.407 181.975 767.407-38.61zM1377.15 741.605c16.78-1.87 33.26-5.77 49.32-11.22v.01c4.61-1.56 9.39-3.19 14.32-4.87v99.58c-33.08-11.7-61.8-22.53-84.52-32.09-35.8-18.86-21.12-48.61 0-50.19 6.48-.49 13.46-.89 20.88-1.22z" fill="#000"/></svg>