<svg width="250" height="248" viewBox="1 0 1000 992" fill="none" xmlns="http://www.w3.org/2000/svg"><path fill-rule="evenodd" clip-rule="evenodd" d="M.792 682.372c16.031-8.677 26.152-21.24 29.364-36.511 1.545-7.343 1.638-28.733.129-29.665-.611-.377-1.111-.214-1.111.364 0 2.58-9.724 15.245-14.77 19.232-6.81 5.385-8.29 4.499-5.702-3.414 1.366-4.173 1.709-7.695 1.232-12.649-.677-7.032-3.564-16.963-5.232-17.993-.512-.318-1.823.932-2.913 2.775a15.302 15.302 0 0 1-.997 1.486v-6.12c3.22-5.28 8.21-15.168 10.107-20.54 3.43-9.719 3.436-16.419.026-24.815C7.71 546.612 5.29 543.003.792 540.22v-4.117c1.966.911 4.04 1.907 6.084 2.931 15.026 7.521 21.427 13.458 25.744 23.874l2.546 6.141 5.059-.867c7.6-1.306 14.121-.818 17.35 1.298 3.12 2.044 6.051 7.878 6.012 11.962-.043 4.483-4.16 11.851-7.965 14.254-3.142 1.986-4.822 2.233-11.599 1.715l-7.923-.607-1.57 6.364c-.99 4.017-1.267 8.001-.75 10.806 1.447 7.841 1.04 27.508-.706 34.215-4.21 16.166-15.677 29.686-32.282 38.102v-3.919zm0-64.466a.66.66 0 0 1 .221-.043c1.85 0 1.905 1.144-.22 5.634v-5.591zm0 148.886v-3.728c3.356 1.647 6.448 2.645 6.873 2.219.426-.425-.81-2.98-2.746-5.675-1.935-2.696-3.519-5.501-3.519-6.236 0-.733 2.125-3.308 4.721-5.721l4.723-4.389-4.445.541c-1.647.2-3.798.529-5.607.849v-3.426l4.176-.79c12.712-2.404 13.99-.572 5.46 7.829l-5.415 5.333 3.75 5.569c4.335 6.444 4.948 10.901 1.5 10.901-1.236 0-5.43-1.443-9.32-3.207l-.15-.069zm999.998-25.596v3.428c-.936.164-1.79.327-2.446.469-3.332.722-3.601.49-7.555-6.58-2.254-4.031-4.269-7.329-4.479-7.329-1.021 0-1.732 4.152-1.732 10.124 0 7.301.436 6.888-9.284 8.8-7.258 1.428-7.114 2.213.952 5.217 6.103 2.273 6.17 2.458 4.687 12.799-.445 3.112-.324 5.277.296 5.277.578 0 3.166-3 5.751-6.666 2.586-3.666 5.342-6.666 6.125-6.666.782 0 4.169 1.348 7.525 2.994.06.026.11.052.16.078v3.723-.003l-7.079-3.208-5.419 6.818c-8.685 10.923-12.766 9.109-10.529-4.679.941-5.799.893-5.967-1.999-6.975-14.56-5.076-14.033-10.121 1.315-12.614 4.128-.671 4.166-.727 4.174-5.904.002-2.875.526-7.101 1.162-9.393 1.944-7.003 4.513-5.75 11.036 5.386l3.318 5.665 4.021-.761zm0-205.021v4.144a30.133 30.133 0 0 0-3.222-1.742c-3.211-1.52-7.2-3.105-8.859-3.522l-3.02-.757v7.824c0 4.304-.486 9.108-1.082 10.675-1.427 3.754-7.391 7.291-12.249 7.265-5.091-.026-12.364-3.39-15.243-7.052-1.889-2.401-2.414-2.605-2.969-1.159-1.529 3.985-.508 9.171 2.943 14.947 2.724 4.559 8.122 9.828 21.857 21.338 10.033 8.406 18.564 15.284 18.959 15.284.41 0 1.496-1.499 2.885-3.801v6.167c-.889 1.214-1.81 2.07-2.287 2.065-.632-.007-7.49-5.257-15.24-11.666-7.75-6.408-14.358-11.652-14.682-11.652-.325 0-2.341 1.539-4.484 3.42l-3.895 3.419-5.806-3.142c-3.193-1.727-8.466-5.731-11.716-8.897-3.251-3.166-6.851-7.853-7.997-10.415l-2.087-4.659-1.84 2.81c-1.737 2.65-1.712 3.052.438 7.065 1.255 2.341 2.28 5.763 2.277 7.605-.007 6.949-7.922 15.002-14.751 15.011-1.7.002-4.918-.759-7.151-1.693-3.536-1.477-4.267-1.489-5.663-.095-1.393 1.394-1.01 1.902 2.969 3.932 5.435 2.773 7.296 7.288 3.999 9.699-2.668 1.951-5.938 1.885-12.211-.245-6.235-2.116-6.833-1.718-11.412 7.586-10.707 21.757-4.136 43.257 16.271 53.243 10.386 5.082 31.506 3.656 48.507-3.275 16.609-6.771 35.109-25.326 43.216-43.343 1.134-2.521 2.708-4.594 3.545-4.692v5.295c-.38.81-.831 1.736-1.364 2.792-12.025 23.813-33.741 42.168-55.115 46.583-3.516.725-6.392 1.797-6.392 2.381 0 2.006 8.573 9.211 14.003 11.769 13.958 6.577 28.514 5.68 45.824-2.825a81.168 81.168 0 0 0 3.044-1.575v3.924c-.36.186-.73.37-1.102.551-19.623 9.603-35.042 10.125-51.581 1.744-4.826-2.445-13.518-10.544-13.521-12.597-.001-.457-5.626-.833-12.499-.835-11.563-.003-12.953-.24-18.607-3.168-12.119-6.277-20.247-16.932-22.235-29.15-1.498-9.199.398-18.413 6.166-29.986 2.805-5.624 4.736-10.861 4.365-11.828-.732-1.908 3.229-5.299 6.188-5.299 2.883 0 7.829-5.839 6.597-7.788-1.776-2.81-1.19-10.35 1.096-14.1 3.112-5.103 8.147-7.4 14.557-6.641 4.424.524 5.564.245 7.438-1.813 6.442-7.079 6.341-12.05-.379-18.588-9.437-9.182-11.643-17.056-6.491-23.179 4.218-5.014 10.199-6.491 16.515-4.079 4.583 1.751 8.281 5.07 11.191 10.045 1.012 1.731 1.509 1.77 4.906.384 3.629-1.481 3.904-2.022 6.93-13.626 3.245-12.443 7.457-22.942 10.593-26.407 6.31-6.974 11.609 3.543 13.932 27.665l1.305 13.53 3.685.691c1.471.276 5.875 2.08 10.951 4.438zm0-93.435v3.468a8.39 8.39 0 0 0-2.88-.548c-3.672 0-5.555 1.883-5.555 5.554 0 3.672 1.883 5.555 5.555 5.555 1.132 0 2.09-.179 2.88-.534v3.483a9.535 9.535 0 0 1-2.725.384c-8.075 0-12.145-9.331-6.627-15.205 2.593-2.761 6.255-3.262 9.352-2.157zm0-223.062v3.424c-1.149.386-2.415.83-3.73 1.31-11.112 4.055-20.054 10.061-28.625 19.223-5.747 6.145-6.63 7.664-6.63 11.408 0 6.861-2.362 6.02-3.203-1.142-1.081-9.195-4.758-14.348-10.685-14.973-5.597-.59-8.297.33-11.767 4.008-6.733 7.141-6.137 17.251 1.407 23.876 3.638 3.194 4.607 3.507 9.409 3.045 6.147-.59 7.167-.084 4.892 2.431-4.176 4.614-6.888 30.101-3.815 35.843 1.973 3.687 6.561 7.273 14.229 11.121 6.257 3.14 8.465 3.633 17.969 4.015 8.662.348 10.718.745 10.245 1.976-.427 1.116-2.797 1.541-8.602 1.541-8.605 0-17.793-2.196-23.829-5.694-2.063-1.195-3.932-1.993-4.151-1.773-.22.22 1.772 3.385 4.427 7.035 11.758 16.158 26.836 29.212 42.459 37.11v3.787a97.217 97.217 0 0 1-10.524-5.645c-10.05-6.202-31.007-26.817-36.794-36.191-2.138-3.465-4.225-6.324-4.636-6.353-1.107-.079-9.291 21.588-11.309 29.944-.96 3.971-2.291 10.706-2.959 14.966-1.331 8.498-1.508 8.925-3.244 7.853-3.306-2.043 5.256-35.864 12.906-50.984 2.618-5.172 2.658-5.566.986-9.743-2.773-6.935-2.205-24.62 1.152-35.695.455-1.507-.066-1.945-2.319-1.945-6.859 0-12.778-5.745-15.183-14.741-3.683-13.768 9.085-26.771 21.965-22.372 4.049 1.382 8.509 5.279 9.522 8.319.253.759 3.893-2.043 8.299-6.39 8.918-8.795 19.586-14.974 32.138-18.594zm0-155.725v2.217c-1.959 1.044-5.589 2.488-9.824 3.86-22.292 7.222-46.773 17.58-53.5 22.635-2.033 1.529-2 1.623.833 2.334 4.345 1.09 3.602 3.026-2.76 7.187-6.192 4.05-6.192 4.054-3.635 16.565 1.019 4.987-1.276 4.777-9.607-.881l-6.616-4.492-6.715 3.937c-6.242 3.658-9.93 4.87-9.93 3.263 0-.37.792-3.729 1.761-7.463l1.758-6.79-6.401-5.958c-7.005-6.52-6.862-7.953.799-7.985 8.974-.038 10.446-.884 13.827-7.958 4.248-8.89 5.447-9.745 7.659-5.466l1.765 3.415 7.242-8.058c15.536-17.286 31.888-29.413 45.467-33.72 5.621-1.782 5.834-1.795 6.691-.406.391.633-.893 3.652-2.854 6.708s-3.237 5.886-2.836 6.288c.649.65 13.845-.941 22.051-2.657 5.545-1.16 3.448 2.436-4.401 7.544l-7.457 4.852 9.123.322c3.662.13 6.127.355 7.56.707zM.792 66.253v-2.338c1.171.267 1.718.608 1.718 1.04 0 .275-.626.73-1.718 1.299zm0 300.924v-3.795c5.358 2.721 10.783 4.836 16.161 6.263 10.538 2.794 27.375 2.526 36.535-.583 19.57-6.643 34.886-24.248 37.87-43.53.626-4.05.858-9.049.516-11.11-.938-5.653-2.934-13.191-3.495-13.191-.273 0-3.288 2-6.703 4.444-6.079 4.354-9.175 5.496-9.175 3.386 0-.582 2.124-2.547 4.72-4.367 20.036-14.045 23.514-27.153 11.757-44.304-4.986-7.273-13.12-15.819-15.056-15.819-3.224 0-.627-2.603 3.944-3.953 13.388-3.953 17.385-14.875 7.966-21.766-5.627-4.115-12.985-3.417-16.916 1.604-1.055 1.347-2.248 4.845-2.65 7.771-.733 5.34-2.884 6.698-3.545 2.236-.817-5.514-18.73-11.413-34.658-11.412-12.973.001-14.104 1.126-5.086 5.055 4.018 1.751 7.308 3.822 7.308 4.603 0 2.218-2.215 1.719-10.948-2.466l-8.107-3.887-5.582 6.109c-1.816 1.985-3.593 3.758-4.856 4.875v-4.218a58.826 58.826 0 0 1 1.732-2.051c2.452-2.785 4.266-5.255 4.033-5.488-.174-.174-2.544.486-5.765 1.572v-3.431c6.852-1.99 14.27-3.216 22.271-3.686 13.668-.802 24.378.871 33.329 5.206 3.665 1.777 6.823 2.777 7.017 2.221 1.298-3.709 5.855-8.534 9.13-9.662 4.844-1.669 5.204-1.68 10.147-.307 4.472 1.243 10.487 7.294 11.581 11.652.382 1.517.382 3.999 0 5.515-1.042 4.158-6.947 10.277-11.298 11.715l-3.864 1.274 6.175 6.671c7.838 8.466 12.84 18.236 13.594 26.55.479 5.271.096 7.303-2.317 12.282-1.591 3.281-3.508 6.809-4.26 7.84-1.166 1.6-.554 2.736 4.192 7.777 7.603 8.077 12.013 14.769 17.847 27.087 4.501 9.5 5.184 12.701 2.711 12.701-.479 0-2.196-3.376-3.817-7.5-2.692-6.85-10.657-20.153-16.094-26.877l-2.192-2.713.063 9.379c.112 16.356-5.688 30.051-17.65 41.679-19.017 18.483-48.65 21.512-76.565 8.649zm0 92.586v-3.485c.638-.23 1.177-.523 1.496-.842.733-.733 1.333-2.633 1.333-4.222 0-1.588-.6-3.488-1.333-4.221-.319-.319-.858-.613-1.496-.843v-3.463c3.401 1.148 6.162 4.222 6.162 8.372 0 4.37-2.44 7.671-6.162 8.704zm999.998-226.562c-.954.856-1.643 1.371-1.881 1.371-1.781 0-1.125-1.942 1.881-5.648v4.277zm0 18.786v3.789c-1.558-.964-3.066-1.206-5.61-1.206-15.219 0-20.901 23.502-7.373 30.497 4.167 2.156 7.113 2.176 11.17.077a14.478 14.478 0 0 0 1.813-1.116v3.611c-3.187 1.803-6.72 2.634-10.142 1.992-11.994-2.25-17.322-16.537-10.942-29.34 2.685-5.39 2.767-5.974 1.11-7.805-.986-1.089-1.792-2.316-1.792-2.726 0-1.522 3.05-.677 4.89 1.357 1.613 1.782 2.398 1.914 5.172.866 4.099-1.546 4.088-2.346-.085-6.157-1.845-1.685-3.011-3.407-2.592-3.826.419-.419 1.217-.762 1.773-.762 1.698 0 7.506 6.381 7.506 8.247 0 .963.874 1.754 1.945 1.756 1.004.002 2.073.268 3.157.746zm0 92.749v3.26c-3.838-1.443-5.118-3.436-1.386-3.436.322 0 .786.06 1.386.176zM.792 347.935v-3.229c4.33.795 16.133 4.747 28.911 9.73 4.875 1.9 9.784 3.455 10.91 3.455 1.126 0 7.18-4.931 13.453-10.958 6.273-6.028 14.072-12.753 17.33-14.948 5.394-3.633 7.77-4.25 7.77-2.022 0 .455-3.088 3.006-6.862 5.668-3.776 2.661-11.744 9.509-17.708 15.217-7.983 7.639-11.602 10.376-13.724 10.376-1.584 0-9.383-2.513-17.328-5.583-7.946-3.071-16.905-6.151-19.91-6.845a21.029 21.029 0 0 1-2.842-.861zm0-60.208v-3.588c5.521-3.859 9.068-11.687 7.885-17.993-.415-2.215-2.353-5.467-4.59-7.705-1.295-1.294-2.298-2.172-3.295-2.759v-3.763c4.874 2.057 10.12 8.448 11.25 14.417 1.563 8.273-3.975 17.365-11.25 21.391zm999.998-14.66v1.819c-.47.349-1.558.312-3.696.025-3.097-.416-4.684-.083-5.755 1.207-.813.98-1.917 1.782-2.452 1.782-1.591 0-1.115-2.449.91-4.687 2.276-2.512 9.532-2.425 10.993-.146zM.792 274.977v-2.118c.197.233.33.492.383.777.133.705.068 1.131-.383 1.341zm904.495 326.13c-8.254-3.749-14.012-1.9-7.138 2.293 4.134 2.522 10.14 3.945 11.942 2.831 1.837-1.135.248-2.831-4.804-5.124zm71.849-106.286c-.934-1.987-2.1-3.611-2.592-3.611-1.086 0-4.98 6.279-6.019 9.709-.569 1.88.011 3.194 2.373 5.388 3.345 3.105 9.152 6.467 9.892 5.726.794-.794-1.899-13.48-3.654-17.212zm-4.611 16.89c-3.27-2.11-6.079-3.836-6.245-3.836-.841 0-2.944 9.992-2.316 11.008 1.117 1.807 10.159 7.801 14.516 9.622l3.877 1.62v-5.571c0-6.213-.43-6.775-9.832-12.843zm-33.564 12.632c-5.557-4.103-12.461-3.464-15.921 1.475-2.871 4.101-2.172 8.033 2.474 13.898 6.885 8.691 7.478 8.954 9.688 4.296 1.042-2.195 3.923-5.729 6.405-7.852l4.51-3.861-2.223-2.978c-1.223-1.637-3.443-3.878-4.933-4.978zm37.055 6.344c-3.487-1.597-7.956-4.135-9.93-5.641-4.054-3.092-4.581-2.688-5.531 4.238-.578 4.236-.305 5.277 1.953 7.408 4.047 3.816 11.073 7.599 15.682 8.442l4.167.762v-12.305l-6.341-2.904zm-20.904 7.34c.935-5.529-.1-5.815-7.298-2.014-7.094 3.745-11.304 10.259-11.892 18.4-.263 3.64.145 8.431.918 10.776 1.701 5.153 9.419 13.605 16.682 18.265l5.385 3.455 3.372-2.491 3.37-2.494-5.579-5.899c-9.601-10.152-12.1-19.381-7.809-28.832 1.141-2.512 2.424-6.636 2.851-9.166zm8.107 3.89c-2.116-1.615-4.117-2.934-4.448-2.934-1.41 0-1.573 7.461-.221 10.112 4.126 8.089 18.99 10.142 22.738 3.141 1.51-2.823 1.359-3.255-1.141-3.255-3.489 0-12.714-3.85-16.928-7.064zm-37.26 31.415c-7.864-7.027-18.994-1.893-19.107 8.812-.029 2.808.924 4.684 3.88 7.642 3.544 3.543 4.359 3.861 8.502 3.305 6.67-.895 10.353-4.969 10.353-11.452 0-4.317-.536-5.544-3.628-8.307zm-9.671 4.93c2.706-1.979 6.329.053 5.868 3.291-.267 1.874-1.099 2.425-3.663 2.425-3.939 0-5.277-3.47-2.205-5.716zm55.038-529.377c1.263-2.48 2.12-4.686 1.902-4.903-.83-.83-13.634 6.358-20.839 11.7-4.141 3.069-12.63 10.879-18.868 17.355-10.063 10.448-11.257 12.106-10.602 14.715.907 3.607.654 3.367 4.733 4.537 2.863.82 4.116.432 8.382-2.601 6.432-4.574 16.826-9.344 36.574-16.783l15.796-5.95-5.435-.35c-2.99-.191-5.622-.908-5.847-1.592-.224-.685 2.11-2.862 5.19-4.837 3.079-1.977 5.599-3.768 5.599-3.98 0-.211-4.249-.086-9.442.28-10.81.764-11.198.354-7.143-7.591zM924.287 95c-1.084-.317-3.381-3.372-5.11-6.79l-3.14-6.21-3.223 6.016c-3.174 5.92-3.327 6.034-9.813 7.146l-6.588 1.129 4.858 4.036 4.857 4.035-1.234 5.387c-.678 2.964-1.045 5.575-.817 5.803.227.227 2.651-.897 5.384-2.499 2.732-1.601 5.539-2.912 6.237-2.912.698 0 3.518 1.548 6.268 3.44s5.263 3.177 5.583 2.856c.323-.321.123-2.752-.442-5.401-1.302-6.1-.981-6.957 3.67-9.832 2.095-1.294 3.809-2.757 3.809-3.251 0-.493-1.874-1.228-4.166-1.635-2.291-.406-5.051-1-6.133-1.318zM16.804 548.323c-2.831-2.082-5.397-3.785-5.703-3.785-.306 0 .72 3.125 2.278 6.943 5.17 12.671 4.365 22.295-3.197 38.234l-3.25 6.847 3.474 10.369c2.951 8.808 3.393 11.508 2.931 17.951l-.543 7.582 3.823-3.689c6.753-6.518 15.89-24.544 15.89-31.351 0-1.011-2.304-2.293-6.11-3.4-5.676-1.65-7.014-2.662-5.51-4.167.331-.331 4.206.351 8.61 1.514 17.98 4.752 25.33 3.761 28.967-3.902 2.144-4.519 2.297-7.734.523-11.064-3.215-6.037-8.72-7.107-20.433-3.971-12.988 3.478-15.315 3.792-14.712 1.986.279-.836 2.091-1.973 4.03-2.53 4.154-1.191 4.33-2.53 1.154-8.753-3.6-7.059-6.573-10.662-12.221-14.814zM407.702 97.867c8.141-2.602 23.64-2.803 32.816-.425 22.92 5.94 39.72 22.975 39.684 40.238-.019 9.481-7.489 20.957-16.234 24.942-2.991 1.363-3.113 2.325-1.445 11.35 1.034 5.596.946 6.71-.653 8.259-1.709 1.656-2.41 1.186-9.341-6.264l-7.495-8.055h-6.118c-14.757 0-33.028-7.466-43.117-17.621-8.261-8.315-11.496-15.225-11.514-24.596-.025-13.542 7.796-22.835 23.417-27.828zm37.427 4.37c-8.425-3.02-28.658-3.962-35.698-1.662-16.921 5.532-25.133 18.077-20.961 32.022 5.149 17.213 25.373 30.374 48.756 31.73l9.78.568 5.661 6.508c3.113 3.58 5.978 6.508 6.364 6.508.386 0 .207-3.589-.4-7.977-.798-5.772-.759-8.091.14-8.391.682-.228 3.579-1.963 6.438-3.856 11.209-7.425 14.714-19.639 8.993-31.336-5.078-10.377-15.975-19.416-29.073-24.114zm-38.238 14.935c0-1.98 2.286-1.864 5.335.273 1.785 1.251 3.517 1.508 6.08.906 4.846-1.14 6.987-.749 14.137 2.582 3.506 1.633 7.699 2.74 9.837 2.598 4.197-.279 17.699 5.806 18.705 8.429.903 2.354-.589 3.303-2.766 1.761-7.801-5.528-17.519-8.738-16.222-5.361 1.015 2.648-1.612 3.111-3.692.651-2.698-3.191-7.81-6.208-12.813-7.565-3.377-.915-4.505-.801-5.908.603-1.571 1.571-2.248 1.493-7.214-.834-3.012-1.411-5.479-3.23-5.479-4.043zm7.777 16.355c0-1.488 5.508-1.542 5.693-.055.35 2.799.45 3.181.973 3.699.305.304 6.554 1.935 13.886 3.624 13.371 3.082 16.962 4.512 15.322 6.102-.775.751-13.234-2.03-38.651-8.629-8.428-2.188-9.551-4.444-1.945-3.907 2.769.195 4.722-.149 4.722-.834zM831.84 762.478c3.699-2.91 12.148-3.385 13.163-.742.503 1.312-.316 1.666-3.843 1.666-6.005 0-8.332 1.436-11.087 6.835-1.526 2.987-2.692 4.164-3.413 3.443-1.603-1.603 1.495-8.303 5.18-11.202zm-35.565 7.36c2.224-.46 7.251.542 9.406 1.874 1.824 1.127 1.332 5.622-.828 7.576-2.75 2.49-3.137 7.776-.517 7.065 8.956-2.426 10.097-1.794 7.588 4.208-3.471 8.31-10.841 11.858-17.368 8.365-2.633-1.41-7.832-8.896-7.053-10.157.314-.508 2.513-.925 4.886-.925 3.165 0 4.765-.641 5.999-2.403 2.113-3.018 1.379-4.263-2.512-4.263-7.818 0-7.477-9.712.399-11.34zm6.665 5.913c0-2.111-3.906-3.372-6.943-2.241-1.374.512-2.5 1.725-2.5 2.696 0 1.391 1.004 1.695 4.722 1.425 3.118-.226 4.721-.864 4.721-1.88zm5.456 14.593c.463-.819.189-1.333-.669-1.253-4.459.415-14.628 2.115-15.024 2.51-1.09 1.089 4.8 5.131 7.477 5.131 2.656 0 6.127-2.699 8.216-6.388zm-54.685-16.882c5.387-2.161 10.618-1.354 14.751 2.277 2.16 1.896 3.929 4.146 3.929 4.999 0 2.274-.93 1.94-5.321-1.914-3.575-3.139-4.45-3.406-9.281-2.834-5.771.684-8.25-.855-4.078-2.528zM218.032 207.457c7.564-2.011 10.095-2.089 18.359-.561 17.644 3.262 28.916 15.795 32.038 35.622 1.153 7.324 1.315 7.608 4.336 7.608 6.953 0 11.428 9.34 6.917 14.442-.836.947-1.223 2.959-.894 4.655.43 2.219-.153 3.722-2.264 5.833-3.453 3.453-8.542 3.734-14.058.776-2.668-1.431-4.753-1.812-6.766-1.235-4.502 1.291-8.887-.032-10.743-3.242-.922-1.594-3.233-3.905-5.136-5.136-6.46-4.177-4.398-13.864 2.955-13.878 5.098-.01 7.759-4.671 5.846-10.238-3.296-9.589-9.599-14.197-19.415-14.197-11.18 0-21.047 8.62-19.472 17.011.545 2.909 1.426 4.084 3.441 4.59 1.491.374 3.256 1.88 3.924 3.345 2.873 6.305-2.608 12.272-9.042 9.843-2.474-.933-3.499-.842-4.768.427-4.63 4.632-17.151 2.04-19.684-4.075-1.078-2.604-1.969-3.144-5.189-3.144-2.515 0-4.837-.892-6.576-2.527-5.219-4.902-2.235-14.36 4.531-14.36 1.651 0 2.777-.637 2.777-1.568 0-2.49 6.537-7.32 9.905-7.32 2.217 0 3.431-.792 4.366-2.847 3.899-8.556 14.577-17.157 24.612-19.824zm24.714 4.415c-11.455-3.903-23.896-2.953-32.716 2.498-4.684 2.895-11.149 9.788-13.569 14.469-1.509 2.917-1.513 3.442-.035 4.668.914.76 1.814 1.185 1.999.946.185-.24 1.458-2.303 2.829-4.584 10.711-17.814 36.757-20.398 50.842-5.044 3.097 3.376 5.27 7.191 6.583 11.56 1.079 3.585 3.176 7.769 4.662 9.297l2.7 2.777-.721-5.555c-1.041-8.029-7.556-20.764-13.01-25.433-2.497-2.138-6.802-4.658-9.564-5.599zm-.48 9.262c-5.763-2.94-17.775-3.82-23.403-1.714-6.418 2.401-11.65 6.949-15.28 13.278-1.818 3.169-3.309 6.029-3.316 6.354-.005.326 1.202.539 2.683.475 1.81-.079 3.912-1.732 6.405-5.036 11.783-15.62 36.778-12.248 42.152 5.686 1.336 4.46 3.829 5.794 5.022 2.685 1.845-4.805-6.746-17.893-14.263-21.728zm19.093 27.881c-1.222-1.222-2.904-2.222-3.739-2.222-2.434 0-7.064 4.18-7.777 7.023-.567 2.258-1.306 2.602-5.402 2.518-4.553-.094-4.746.036-4.746 3.235 0 2.782.58 3.504 3.512 4.368 2.541.749 3.678 1.862 4.109 4.022.752 3.759 4.495 4.879 8.926 2.668 3.008-1.5 3.476-1.458 5.588.513 6.601 6.158 16.779 2.88 12.298-3.96-1.633-2.493-1.577-2.697 1.085-3.91 3.245-1.479 3.758-5.371 1.064-8.066-2.214-2.213-4.862-2.218-8.007-.015-2.854 1.999-4.689 1.296-4.689-1.796 0-1.187-1-3.156-2.222-4.378zm-67.733-13.298c-1.241-1.241-3.256-2.256-4.478-2.256-2.66 0-6.347 3.46-7.822 7.34-.824 2.166-1.587 2.643-3.342 2.086-4.577-1.453-7.628 5.2-3.831 8.353 1.587 1.315 3.019 1.441 9.44.82 2.399-.231 2.731.131 2.437 2.657-.776 6.671 10.87 10.34 15.679 4.941 2.272-2.551 2.546-2.599 5.347-.944 3.276 1.935 6.208 1.326 7.298-1.515.859-2.237-3.254-5.962-6.583-5.962-1.878 0-2.134-.519-1.589-3.237.823-4.12-1.431-6.35-4.669-4.617-3.409 1.824-4.255 1.464-4.971-2.111-.362-1.814-1.675-4.314-2.916-5.555zm516.563-16.805c8.03-2.852 26.11-2.526 32.532.586 10.16 4.923 9.845 19.883-.532 25.177-6.568 3.352-20.035 4.963-27.778 3.325-7.362-1.557-11.02-4.097-13.536-9.4-4.34-9.148-1.105-15.987 9.314-19.688zm27.669 2.301c-4.624-1.325-18.798-1.22-25.065.188-4.471 1.004-10.393 5.275-10.393 7.495 0 1.575 9.128 2.88 19.442 2.778 9.627-.094 24.997-2.354 24.997-3.675 0-1.702-5.35-5.745-8.981-6.786zm8.981 12.718c0-3.227-10.566-.634-13.765 3.377-3.069 3.85-10.455 5.058-14.542 2.381-1.541-1.01-2.8-2.512-2.8-3.339 0-1.025-2.031-1.679-6.388-2.056-3.513-.304-6.56-.401-6.774-.216-.987.868 3.832 7.077 6.925 8.924 4.294 2.563 18.64 2.877 26.541.583 5.305-1.541 10.803-6.455 10.803-9.654zm15.065 558.247c1.744-2.821 18.075 3.311 24.437 9.176 4.927 4.54 7.61 9.428 6.977 12.709-.557 2.891-2.42 1.613-3.892-2.668-.711-2.07-2.461-5.032-3.889-6.582-2.529-2.747-14.613-9.19-17.24-9.191-2.896-.002-7.115-2.275-6.393-3.444zm72.778 6.696c3.141-3.14 6.027-2.642 11.063 1.909 5.264 4.756 10.818 14.377 14.855 25.734 3.246 9.133 3.526 11.321 1.45 11.321-.79 0-2.064-2.375-2.833-5.277-3.546-13.394-16.313-33.588-20.386-32.244-3.552 1.172-4.387 5.573-3.638 19.19.403 7.333.81 14.832.904 16.665.245 4.765-1.805 5.175-2.781.555-1.438-6.804-2.372-25.065-1.56-30.483.432-2.875 1.749-6.193 2.926-7.37zm-721.078 2.519c0-.73.432-1.328.961-1.328 1.784 0 6.679 4.485 7.41 6.79l.727 2.288 2.466-2.317c1.356-1.275 3.058-2.317 3.783-2.317 1.96 0 1.593 2.33-.627 3.964-1.651 1.215-1.692 1.515-.278 1.98.917.302 5.079 1.64 9.25 2.976 9.963 3.188 21.882 11.285 31.459 21.367 13.126 13.819 19.14 25.809 23.753 47.362 4.346 20.294 1.767 34.315-8.376 45.543l-4.161 4.605 3.078 6.856c6.398 14.258 7.93 27.312 3.967 33.812-6.468 10.606-27.048 8.214-38.773-4.507-12.059-13.083-14.387-31.733-6.04-48.407 3.283-6.558 6.932-9.233 10.723-7.858 1.891.687 12.87 16.446 14.334 20.577.208.584 3.273-.354 6.811-2.086 14.536-7.112 20.247-24.088 15.609-46.399-3.187-15.333-7.165-25.566-11.598-29.832-10.144-9.762-27.209-8.716-37.141 2.278-5.487 6.073-7.902 11.305-11.167 24.187-3.344 13.191-3.374 13.572-1.052 13.572 2.32 0 1.346 4.284-2.461 10.825-5.096 8.756-13.459 10.214-18.627 3.249-4.635-6.249-6.606-15.496-3.883-18.219.849-.849 1.088-5.165.737-13.277-.617-14.221-3.232-21.534-9.835-27.501-6.456-5.832-15.478-6.633-25.05-2.223-2.378 1.095-8.6 6.277-13.823 11.514-9.98 10.006-11.61 13.242-13.825 27.461-1.74 11.168 3.343 23.389 12.245 29.438 7.51 5.104 8.18 5.01 16.703-2.368 12.007-10.393 17.215-8.822 18.907 5.704 1.424 12.235-3.425 26.672-11.89 35.396-10.032 10.338-27.71 14.513-38.388 9.067-13.561-6.92-12.398-20.155 3.445-39.173l5.855-7.029-3.577-5.044c-1.966-2.774-4.245-7.044-5.064-9.488-2.279-6.81-1.72-20.939 1.166-29.441 3.834-11.294 11.575-26.647 17.23-34.17 6.294-8.374 19.876-19.519 29.008-23.803 7.566-3.549 19.598-6.415 27.05-6.445l4.929-.019-2.985-3.117c-1.642-1.713-2.985-3.712-2.985-4.443zm19.997 14.135c-14.279-4.46-31.833-3.511-43.45 2.347-13.408 6.762-28.37 20.681-34.792 32.371l-3.256 5.924 4.922-4.179c10.592-8.993 23.255-12.824 32.408-9.803 5.483 1.81 11.749 8.273 15.096 15.574 2.355 5.137 2.917 8.294 3.316 18.635l.48 12.451 4.321-2.205c4.558-2.324 6.806-1.918 9.882 1.79 1.333 1.605 1.833.555 4.054-8.496 1.393-5.679 3.808-12.933 5.366-16.118 3.119-6.376 10.195-14.056 15.473-16.797 5.014-2.603 17.991-3.181 23.135-1.032 4.171 1.743 4.172 1.742 2.891-.705-2.414-4.611-18.234-19.11-25.431-23.307-3.957-2.309-10.443-5.211-14.415-6.45zm-14.092 83.45c-2.558-.02-5.932-.523-7.499-1.118-3.54-1.347-3.774.309-.38 2.686 3.106 2.176 7.569 2.219 10.372.099 2.007-1.519 1.836-1.635-2.493-1.667zm-1.362 6.431c-2.985.284-5.532-.192-7.335-1.375-3.534-2.315-3.554-.714-.039 3.079 3.339 3.602 5.175 3.684 8.992.4l2.953-2.54-4.571.436zm-33.228 7.143c-.763-1.374-2.245-2.482-3.293-2.459-1.047.022-7.868 5.283-15.156 11.691-9.59 8.433-13.578 11.311-14.441 10.419-.859-.887.166-2.413 3.664-5.45l4.858-4.217-4.268-1.409-4.266-1.408-5.725 6.3C38.694 934.38 33.617 944 33.617 950.036c0 6.015 4.408 10.458 11.968 12.065 15.015 3.191 31.928-6.977 38.155-22.938 2.848-7.305 3.517-22.4 1.18-26.611zm77.777 19.299c-4.392-7.521-8.959-14.557-10.15-15.635-2.082-1.884-2.268-1.848-4.847.936-4.023 4.34-6.858 14.325-6.818 24.008.079 19.269 14.13 34.91 31.416 34.972 6.555.022 7.256-.223 10.276-3.604 2.719-3.042 3.242-4.58 3.242-9.519 0-6.435-2.104-14.564-6.124-23.652-2.581-5.838-2.591-5.846-6.007-4.556-3.812 1.439-4.194 2.692-1.791 5.869 2.056 2.719 2.213 6.172.245 5.416-.802-.307-5.05-6.712-9.442-14.235zm-42.502-40.792c-2.678-3.761-2.651-3.758-7.631-.689l-3.819 2.355 3.264 1.392c3.368 1.437 10.484 2.002 10.484.831 0-.364-1.035-2.113-2.298-3.889zm649.191-84.313c1.347-.542 2.847-1.017 3.332-1.056 1.921-.152 6.247 5.461 7.338 9.523 3.032 11.271 4.445 30.765 2.325 32.073-1.525.943-1.784-.306-3.116-15.057-1.166-12.912-3.568-21.511-6.3-22.56-1.724-.662-4.003 1.696-6.614 6.85-1.919 3.787-6.114 21.103-6.156 25.413-.039 3.901-2.19 8.628-3.383 7.435-.666-.665-.457-4.732.564-11.013 2.884-17.733 7.459-29.776 12.01-31.608zM60.898 854.402c.61-.986 1.221-.814 2.29.646.8 1.096 1.614 2.469 1.808 3.051.194.583 2.157-.005 4.363-1.306 5.075-2.994 13.83-4.078 19.04-2.359 5.135 1.695 10.44 7.765 11.438 13.088.854 4.552-.594 12.934-3.359 19.434l-1.752 4.122-5.28-3.266c-7.245-4.482-17.215-7.746-25.834-8.458-10.449-.862-10.224-.589-6.47-7.838 1.84-3.552 3.858-7.083 4.487-7.846.79-.96.724-2.396-.21-4.655-.744-1.797-.98-3.873-.521-4.613zm28.283 4.362c-4.9-2.581-10.43-2.559-16.204.064-4.87 2.212-10.869 8.682-12.567 13.553-1.015 2.914-.903 3.03 3.339 3.434 3.932.376 4.456.127 5.048-2.392.963-4.095 4.65-7.671 9.36-9.083 3.465-1.038 4.806-.902 8.39.852 2.346 1.148 4.91 3.338 5.697 4.865 1.456 2.826 1.332 10.087-.233 13.61-.484 1.09-.4 1.944.189 1.944 1.685 0 3.8-5.655 4.36-11.665.648-6.971-1.954-12.326-7.379-15.182zm-8.486 9.328c-1.622-2.575-4.194-2.955-5.921-.875-3.002 3.617 1.965 7.966 5.293 4.638 1.414-1.416 1.56-2.283.628-3.763zm70.584-5.786c7.09-1.206 14.441.966 19.805 5.85 2.413 2.198 2.555 2.205 4.728.239 3.011-2.725 4.271-1.148 2.102 2.631-1.272 2.217-1.466 3.787-.71 5.761 2.139 5.587 3.984 13.85 3.255 14.578-.414.414-3.254.259-6.309-.346-7.143-1.414-19.181-.287-28.054 2.626-3.841 1.26-7.298 1.977-7.684 1.593-.384-.386-.939-4.463-1.235-9.063-.896-13.967 3.933-22.142 14.102-23.869zm15.586 7.021c-10.291-6.81-21.45-4.573-25.459 5.105-1.537 3.711-1.059 15.846.646 16.408.834.275 1.057-1.383.694-5.162-.5-5.203-.279-5.823 3.381-9.483 3.326-3.326 4.672-3.916 8.941-3.916 6.616 0 11.579 3.957 12.547 10.003.678 4.25 2.342 5.496 7.389 5.535 1.575.013 1.827-.593 1.27-3.039-1.476-6.488-5.262-12.707-9.409-15.451zm-4.004 7.589c-1.593-2.525-3.216-2.748-5.244-.721-2.265 2.266-.557 6.083 2.721 6.083 2.652 0 4.041-2.953 2.523-5.362zm177.687 3.737c7.215-1.944 10.796-2.088 10.796-.434 0 .701-1.824 3.501-4.052 6.221-3.242 3.956-3.743 5.146-2.5 5.941 1.206.772 14.836.459 22.661-.521.611-.076 1.111.575 1.111 1.446s-3.408 3.428-7.574 5.682c-6.618 3.583-7.249 4.188-5 4.79 1.417.379 4.604.696 7.085.704 4.446.016 9.551 2.44 7.601 3.611-.55.331-4.001 1.196-7.667 1.924-21.263 4.219-47.936 11.945-56.633 16.407-4.187 2.149-4.246 2.259-1.895 3.516 3.846 2.059 2.885 3.867-3.796 7.143l-6.223 3.052.39 7.915c.256 5.187-.04 8.06-.857 8.335-.687.231-4.169-2.031-7.736-5.028l-6.488-5.447-7.087 3.179c-3.899 1.75-7.828 3.181-8.733 3.181-1.811 0-1.806-.027 1.247-9.191l2.138-6.414-5.211-5.289c-2.866-2.91-5.21-5.898-5.21-6.641 0-.941 2.541-1.35 8.372-1.35h8.372l4.528-7.222c2.49-3.972 5.149-7.221 5.909-7.221.76 0 1.829 1.478 2.375 3.286l.995 3.286 8.332-7.3c16.283-14.265 32.522-24.267 44.75-27.561zm4.131 3.076c0-1.026-4.682.083-10.422 2.467-9.342 3.879-26.458 15.618-36.673 25.151-7.548 7.045-8.653 8.541-7.948 10.764.45 1.419 2.332 3.218 4.182 3.995 2.981 1.254 3.884 1.125 7.948-1.132 8.767-4.866 17.438-7.636 52.356-16.724 3.127-.814 2.996-.905-2.135-1.477-3.009-.334-5.658-1.183-5.888-1.884-.23-.702 2.355-2.863 5.747-4.804 3.39-1.94 6.164-3.796 6.164-4.125 0-.329-1.733-.272-3.85.125-2.118.397-6.367.388-9.443-.02-6.549-.868-7.088-2.442-2.815-8.232 1.527-2.071 2.777-3.917 2.777-4.104zm-58.484 37.945c-1.052-3.337-2.269-6.066-2.704-6.066-.437 0-2.397 2.499-4.357 5.555l-3.564 5.555h-13.384l4.586 4.974 4.586 4.977-1.806 4.514c-.993 2.483-1.492 4.828-1.108 5.211.383.385 3.191-.47 6.237-1.896l5.539-2.596 5.567 4.696 5.567 4.693v-13.422l5.125-2.604 5.123-2.604-6.748-2.461c-6.625-2.415-6.781-2.569-8.659-8.526zm362.736-38.244c23.362-3.572 45.272 7.268 48.866 24.18 4.104 19.316-13.128 38.894-40.289 45.769-4.832 1.223-11.331 2.212-14.443 2.196-5.612-.027-5.708.032-13.018 8.025-6.651 7.274-7.55 7.899-9.278 6.464-1.908-1.583-1.868-5.51.159-15.643.545-2.73.103-3.355-3.774-5.334-5.105-2.604-11.024-8.965-13.21-14.198-.84-2.011-1.527-6.547-1.527-10.08.002-19.145 20.529-37.405 46.514-41.379zm24.702 5.07c-15.682-4.988-34.197-1.977-49.778 8.093-11.607 7.504-18.106 17.581-18.106 28.078 0 8.84 3.434 14.726 12.15 20.827 7.71 5.396 7.527 4.736 4.951 17.882-.757 3.857-.708 3.83 6.164-3.611l6.927-7.499h6.39c8.177 0 21.969-3.524 29.251-7.475 3.122-1.694 8.23-5.409 11.353-8.258 19.312-17.622 14.915-40.336-9.302-48.037zm-3.873 16.71c3.974-2.153 5.978-2.269 5.978-.347 0 .812-2.551 2.672-5.669 4.132-5.365 2.513-5.746 2.551-7.103.694-1.068-1.462-2.24-1.766-4.608-1.196-4.669 1.124-10.652 4.328-13.065 6.997-2.655 2.935-5.105 3.015-5.105.166 0-2.075-.21-2.098-4.721-.512-2.598.914-6.643 2.929-8.99 4.479-2.348 1.549-4.579 2.506-4.959 2.125-2.583-2.583 11.979-10.979 19.227-11.085 2.443-.037 5.943-.886 7.776-1.888 5.797-3.17 12.257-4.466 15.315-3.073 2.142.977 3.406.871 5.924-.492zm-6.768 15.238c1.959-1.432 4.969-.886 4.969.901 0 .628 2.044.755 5 .311 4.011-.602 5-.425 5 .896 0 1.059-1.882 2.059-5.278 2.808-2.902.639-12.276 2.946-20.83 5.124-16.693 4.252-21.008 4.816-20.287 2.656.247-.743 7.163-2.931 15.369-4.862 10.646-2.508 14.815-3.938 14.56-4.996-.196-.816.477-2.092 1.497-2.838zM211.379 623.373c10.815-3.733 25.968-2.346 31.621 2.894 7.262 6.729-.014 22.895-12.303 27.338-3.835 1.387-3.975 1.626-3.417 5.788.321 2.387 1.245 4.76 2.055 5.275 2.625 1.664 9.157 1.015 12.927-1.284 4.067-2.479 6.764-1.958 4.431.856-3.358 4.049-14.001 6.113-18.662 3.617-1.407-.752-3.087-.721-5.205.097-4.278 1.653-15.539 1.823-17.103.259-2.22-2.22-.191-3.586 3.72-2.507 4.354 1.203 14.756-1.026 14.588-3.126-.061-.763-.186-2.889-.278-4.722-.138-2.782-.632-3.333-2.98-3.333-4.208 0-13.028-4.88-17.005-9.411-2.805-3.194-3.511-4.983-3.511-8.897 0-6.426 3.185-10.104 11.122-12.844zm27.509 4.158c-3.915-2.956-19.248-3.842-25.587-1.48-7.438 2.771-9.67 5.204-9.694 10.567-.019 4.338 4.702 9.513 11.814 12.95 11.716 5.662 26.28-2.452 26.433-14.727.053-4.21-.428-5.395-2.966-7.31zm485.703 2.069c.597-1.567 1.542-2.849 2.103-2.849 1.153 0 2.369 2.671 2.369 5.2 0 .927.776 3.322 1.725 5.322 1.588 3.345 4.829 5.434 11.976 7.716 3.351 1.07 1.523 3.123-4.037 4.535-6.715 1.704-9.356 4.177-11.192 10.471-1.902 6.521-4.259 6.618-5.35.219-1.175-6.884-3.362-9.628-9.461-11.874-2.928-1.077-5.753-2.33-6.276-2.784-1.237-1.069 2.096-2.765 7.273-3.698 3.789-.684 9.787-5.866 9.787-8.455 0-.524.489-2.235 1.083-3.803zm8.576 15.313c-1.633-.856-3.852-3.275-4.93-5.375l-1.958-3.817-1.8 3.136c-.989 1.725-3.34 3.819-5.224 4.652l-3.424 1.516 3.771 3.11c2.075 1.71 4.083 4.082 4.46 5.272.621 1.958.998 1.805 4.022-1.64 1.836-2.091 4.398-4.138 5.695-4.55 2.279-.723 2.258-.8-.612-2.304zm48.082 274.655c.597-1.567 1.821-2.849 2.721-2.849 1.801 0 5.988 5.135 8.936 10.962 1.889 3.73 1.911 3.739 7.63 2.864 8.844-1.353 13.249-1.217 13.809.425.277.812-2.027 3.916-5.12 6.897l-5.623 5.421 3.834 6.37c2.11 3.503 3.836 7.04 3.836 7.859 0 2.987-3.734 2.779-11.415-.633-4.319-1.92-7.912-3.367-7.983-3.218-1.353 2.859-10.254 13.14-11.8 13.631-3.981 1.264-4.685-.404-3.953-9.351l.692-8.453-5.724-2.222c-10.725-4.163-9.831-8.542 2.203-10.779l6.875-1.279v-6.397c0-3.519.487-7.68 1.082-9.248zm8.209 8.915c-2.315-4.026-4.604-7.32-5.085-7.32-.481 0-.874 3.438-.874 7.641 0 8.717-.592 9.531-7.777 10.69-7.982 1.286-9.008 2.356-4.201 4.376 2.272.953 4.611 1.734 5.198 1.734.586 0 1.802.736 2.703 1.636 1.288 1.288 1.411 2.625.581 6.322-.579 2.578-.906 5.967-.723 7.531.305 2.622.755 2.302 5.785-4.101 3.001-3.819 6.143-6.944 6.982-6.944.838 0 4.047 1.279 7.13 2.841 3.083 1.562 6.081 2.683 6.662 2.489.58-.194-.461-2.739-2.312-5.656-1.85-2.919-3.364-6.015-3.364-6.882 0-.866 2.001-3.182 4.444-5.146 2.444-1.964 4.443-3.923 4.443-4.353 0-.733-5.951.096-12.497 1.738-2.637.662-3.248.093-7.095-6.596zm-329.555-9.44c18.287-4.308 38.894 5.305 45.771 21.35 2.447 5.708 4.535 15.039 4.535 20.264 0 3.451.307 3.834 3.084 3.834 7.023 0 11.734 8.619 7.357 13.457-1.124 1.24-2.102 3.947-2.173 6.011-.263 7.566-6.021 9.942-14.602 6.026-3.456-1.578-7.159-2.359-10.531-2.22-5.45.223-9.798-2.463-9.798-6.054 0-.916-.713-1.666-1.585-1.666s-2.651-1.353-3.952-3.008c-4.088-5.198-.495-12.546 6.137-12.546 7.21 0 8.427-7.146 2.786-16.342-4.596-7.49-18.22-10.568-26.734-6.041-5.604 2.982-9.969 9.769-9.215 14.328.329 1.986 1.255 3.611 2.058 3.611 1.969 0 6.064 5.352 6.064 7.927 0 1.14-1.059 3.132-2.355 4.427-1.967 1.968-3.18 2.241-7.383 1.666-3.161-.434-5.605-.211-6.58.597-2.274 1.888-11.093 1.43-14.416-.747-1.582-1.037-3.421-3.332-4.089-5.1-1.003-2.658-1.853-3.215-4.909-3.215-4.676 0-9.149-4.2-9.149-8.59 0-4.536 2.866-8.075 6.541-8.075 2.199 0 3.534-.845 4.659-2.949 1.708-3.197 7.697-6.291 10.269-5.304 1.004.385 2.465-.796 3.942-3.184 2.926-4.735 11.982-13.288 16.594-15.673 1.909-.988 5.362-2.241 7.674-2.784zm42.719 43.954c-2.107-1.907-6.498-2.409-8.644-.989-.679.449-2.07 2.45-3.094 4.446-1.566 3.058-2.192 3.451-3.971 2.5-3.208-1.718-5.386-1.363-6.7 1.092-1.561 2.916.259 6.389 3.597 6.866 1.447.207 2.662 1.288 2.899 2.577.225 1.223.916 2.848 1.536 3.611 1.31 1.613 7.339 1.822 9.69.335 1.142-.724 2.384-.252 4.247 1.613 3.934 3.932 8.845 4.67 11.749 1.767 1.987-1.986 2.139-2.692.981-4.546-1.946-3.116-1.735-3.924 1.407-5.355 3.331-1.519 3.586-4.68.594-7.388-2.116-1.915-3.568-1.914-9.76.005-2.125.658-2.499.364-2.499-1.96 0-1.505-.915-3.563-2.032-4.574zm-18.529-38.92c-10.912-3.781-22.788-3.242-31.473 1.427-4.094 2.201-11.015 8.839-13.634 13.078-2.127 3.441-2.207 4.057-.727 5.538 1.482 1.481 1.938 1.227 4.115-2.294 6.247-10.11 17.53-15.794 29.449-14.837 15.701 1.259 26.203 10.543 29.542 26.113.723 3.369 2.013 5.891 3.486 6.811 2.296 1.433 2.325 1.353 1.576-4.297-1.982-14.941-10.94-27.591-22.334-31.539zm-1.103 9.039c-5.575-2.87-17.319-3.69-22.901-1.601-6.185 2.315-10.936 6.162-14.447 11.7-3.854 6.076-3.904 6.579-.701 7.033 1.832.261 3.404-.83 5.885-4.082 4.974-6.523 10.762-9.414 18.833-9.407 11.658.011 20.068 5.817 22.946 15.839 1.668 5.814 1.454 5.566 4.087 4.73 1.965-.624 2.082-1.147 1.072-4.822-2.535-9.237-7.369-15.581-14.774-19.39zm-49.516 11.892c-1.729-.895-3.456-1.626-3.838-1.626-1.468 0-7.192 6.581-7.192 8.268 0 1.339-.683 1.602-2.791 1.072-3.415-.856-6.096 1.144-6.096 4.548 0 3.916 2.671 5.392 8.348 4.614l4.983-.684v3.842c0 2.862.701 4.302 2.752 5.645 3.849 2.522 10.334 2.32 13.061-.406 2.058-2.059 2.419-2.091 5.232-.477 3.28 1.883 6.396 1.29 7.434-1.413.909-2.369-1.341-4.73-5.342-5.609-2.994-.657-3.302-1.091-2.748-3.863.82-4.098-1.805-6.578-4.911-4.638-3.177 1.984-4.368 1.613-4.368-1.364 0-4.19-1.12-6.15-4.524-7.909zm398.352-160.176c2.443-1.378 4.911-2.356 5.484-2.176 2.329.733 1.648 2.78-1.268 3.806-6.399 2.252-13.578 12.452-13.636 19.37-.026 3.251-1.643 4.994-2.838 3.06-1.485-2.402.797-11.102 4.266-16.272 1.951-2.905 5.548-6.41 7.992-7.788zm-14.917-171.819c1.702-2.164 3.313-2.927 6.181-2.927 5.162 0 7.587 1.441 9.272 5.513 1.638 3.95-.01 9.383-3.393 11.194-9.188 4.917-18.448-5.662-12.06-13.78zm11.685 3.183c-3.202-4.887-10.656-3.233-10.656 2.366 0 5.854 7.45 8.084 10.656 3.189 1.685-2.573 1.685-2.982 0-5.555zM53.528 889.969c2.547-2.546 4.244-3.247 7.863-3.247 3.62 0 5.315.701 7.861 3.247 2.547 2.548 3.249 4.243 3.249 7.863 0 3.619-.702 5.315-3.249 7.862-2.546 2.547-4.242 3.248-7.861 3.248-3.62 0-5.316-.701-7.862-3.248-2.547-2.547-3.248-4.243-3.248-7.862 0-3.62.702-5.315 3.248-7.863zm13.417 2.308c-4.695-4.696-13.33-.871-13.33 5.904 0 6.494 8.66 9.876 13.33 5.206 1.235-1.235 2.223-3.703 2.223-5.555 0-1.852-.989-4.321-2.223-5.555zm843.756-.665c6.975-2.21 17.377-1.883 24.474.773 7.033 2.632 18.731 12.775 22.234 19.28 1.31 2.434 2.729 3.755 3.651 3.4 9.012-3.458 16.284 1.588 14.206 9.859-.421 1.677-.055 3.154.992 4.024 2.416 2.007 2.026 6.103-.909 9.516-2.026 2.354-3.838 3.102-8.611 3.551-3.44.324-7.186 1.459-8.694 2.635-3.21 2.502-10.41 2.734-12.348.399-.761-.917-2.908-1.667-4.771-1.667-4.804 0-7.45-2.813-7.45-7.92 0-3.553.521-4.513 3.201-5.899 2.205-1.14 3.356-2.713 3.7-5.06.424-2.883-.221-4.068-4.211-7.747-5.569-5.134-10.974-6.511-18.083-4.61-9.812 2.624-15.747 9.911-15.677 19.249.043 5.913 2.017 8.654 6.228 8.654 4.844 0 8.178 2.821 8.178 6.92 0 4.362-2.797 7.523-6.659 7.523-2.122 0-3.357.821-4.278 2.843-1.669 3.664-10.336 7.633-14.436 6.61-1.625-.406-3.831-1.528-4.904-2.495-1.586-1.428-2.474-1.515-4.774-.469-7.697 3.508-14.171-.286-13.611-7.975.258-3.547.92-4.88 2.836-5.721 1.825-.801 2.5-2.034 2.5-4.572 0-3.625 3.631-9.33 5.94-9.33.803 0 1.862-3.308 2.656-8.294 1.586-9.97 4.521-16.185 10.685-22.628 4.841-5.06 10.526-8.499 17.935-10.849zm59.187 26.836c-1.357-.951-3.087-1.729-3.845-1.729-1.495 0-5.905 4.304-5.905 5.765 0 1.708-2.129.893-4.898-1.877-3.515-3.515-5.588-3.502-9.151.061-2.354 2.354-2.716 3.494-2.122 6.666.649 3.456.471 3.829-1.832 3.844-3.974.027-5.539 1.582-5.138 5.104.342 2.996.683 3.205 5.071 3.117 3.64-.073 4.852.367 5.352 1.945.985 3.104 6.511 2.662 9.183-.735 1.943-2.469 2.738-2.696 7.272-2.075 8.943 1.226 14.284-4.976 7.892-9.165-2.555-1.674-2.657-2.015-1.111-3.724 2.389-2.638 2.12-5.176-.768-7.197zm-34.232-12.562c-5.067-3.064-6.987-3.597-12.686-3.522-8.461.11-14.629 2.278-20.307 7.139-5.15 4.409-7.628 9.09-9.349 17.657-1.599 7.958-.882 9.987 2.907 8.26 2.203-1.003 2.815-2.098 2.815-5.028 0-11.02 9.175-20.466 21.521-22.158 6.068-.832 11.582.929 17.819 5.689 3.202 2.446 5.305 3.353 6.317 2.729 2.318-1.433-1.885-6.44-9.037-10.766zm-.197-9.743c-12.727-5.925-32.087-1.388-41.482 9.721-4.697 5.554-8.29 14.342-8.573 20.967-.206 4.775.105 5.99 1.612 6.3 1.466.302 2.029-.76 2.63-4.958 1.237-8.634 4.764-15.528 10.659-20.828 13.469-12.111 32.942-11.224 45.185 2.057 2.432 2.637 5.748 5.129 7.37 5.537 2.779.698 2.873.595 1.614-1.758-2.575-4.812-13.197-14.329-19.015-17.038zm-45.803 43.34c-6.146-6.516-11.726-4.509-12.772 4.595-.361 3.138-1.204 5.474-2.011 5.554-.763.076-1.888.201-2.499.277-1.559.195-1.389 6.083.222 7.694 2.209 2.21 6.694 1.509 9.883-1.547l3.006-2.88 1.501 3.132c2.147 4.479 6.212 5.615 11.358 3.175 2.94-1.396 4.324-2.872 4.766-5.088.549-2.741 1.182-3.161 5.219-3.456 4.289-.313 4.594-.556 4.594-3.668 0-3.254-.122-3.329-5.214-3.159-4.477.15-5.261-.147-5.554-2.108-.188-1.256-1.246-2.835-2.35-3.508-1.659-1.011-2.4-.694-4.252 1.82l-2.241 3.045-3.656-3.878zm-721.894-43.784c2.914-1.697 10.57-1.426 13.277.47 3.707 2.597 5.217 8.456 3.336 12.955-2.183 5.223-4.842 7.039-10.306 7.039-5.71 0-10.095-3.525-11.109-8.93-.749-3.989 1.623-9.682 4.802-11.534zm11.602 4.077c-2.089-2.432-8.339-2.549-10.687-.2-2.75 2.75-3.31 6.846-1.345 9.845 3.463 5.284 10.621 5.058 13.456-.425 1.761-3.405 1.363-5.974-1.424-9.22zM70.625 4.319C71.814 1.512 73.1.153 74.576.153c1.203 0 7.624 2.722 14.272 6.05 12.586 6.3 24.546 15.859 29.134 23.284 2.154 3.486 2.773 3.757 10.267 4.495 12.42 1.224 28.101 5.664 39.372 11.146l10.292 5.008 9.784-4.928c13.759-6.93 28.616-11.67 38.933-12.42 11.688-.85 12.639-.044 11.308 9.583-2.339 16.898-11.35 38.94-21.144 51.72-4.136 5.397-6.099 9.2-7.211 13.966-3.442 14.757-12.236 26.249-24.085 31.475-3.535 1.559-13.732 4.663-22.662 6.898-12.742 3.191-17.004 4.741-19.816 7.21-5.399 4.74-12.522 7.554-19.194 7.582-6.775.028-10.997-1.825-15.001-6.584-3.171-3.769-7.44-14.303-7.44-18.359 0-2.154-1.331-3.337-6.944-6.171-15.362-7.761-24.144-16.727-26.433-26.993-1.136-5.088-1.008-6.518 1.114-12.416 1.466-4.073 2.482-9.764 2.612-14.63.164-6.216.742-8.68 2.635-11.238l2.425-3.28-2.576-8.35c-6.212-20.136-7.623-39.34-3.591-48.882zM82.97 19.107c-2.655-5.304-5.837-10.556-7.07-11.672-2.172-1.967-2.269-1.965-3.097.066-2.029 4.96-.79 24.147 2.355 36.536 1.708 6.722 3.454 12.592 3.88 13.046.427.453 3.475-1.908 6.773-5.248l5.995-6.071-2.005-8.507c-1.102-4.678-4.176-12.846-6.831-18.15zm9.157-7.595c-4.379-2.466-9.162-4.838-10.627-5.272l-2.666-.787L81.286 8.9c1.35 1.895 4.126 7.078 6.17 11.515 3.385 7.352 4.57 10.937 6.63 20.065l.7 3.108 2.893-2.275c3.317-2.61 4.815-2.881 4.815-.872 0 .772-2.755 3.555-6.123 6.186-6.118 4.778-18.141 17.927-20.61 22.537-.823 1.54-1.046 4.64-.605 8.397.546 4.649.24 6.868-1.398 10.102-1.154 2.28-2.442 5.739-2.862 7.685-1.594 7.384 3.503 17.347 11.993 23.444l4.755 3.415-.459-3.124c-.519-3.537 1.658-5.715 2.622-2.624 3.172 10.165 6.868 12.569 19.317 12.569 8.722 0 9.306-.681 4.989-5.813-2.833-3.365-3.097-5.36-.812-6.123.673-.224 1.551.62 1.95 1.877 1.214 3.827 4.376 4.774 8.836 2.647 2.162-1.031 4.237-1.568 4.612-1.194 1.179 1.181-.789 3.221-4.678 4.845-2.064.863-3.752 2.305-3.752 3.206 0 .918 3.51 3.406 7.988 5.661 6.684 3.366 8.84 3.942 13.189 3.524 2.861-.274 6.729-1.589 8.598-2.919 3.223-2.294 5.747-1.696 4.098.97-1.146 1.856-9.146 5.54-12.03 5.54-1.477 0-3.372.83-4.21 1.843-2.149 2.597-12.036 7.021-15.725 7.034-4.382.015-10.327-2.702-13.574-6.205-3.432-3.704-3.481-2.51-.164 3.994 3.442 6.748 8.44 9.999 15.371 9.999 5.811 0 11.666-2.428 17.308-7.174 2.409-2.028 8.194-4.103 20.293-7.279 21.357-5.607 28.829-8.922 34.414-15.266 5.421-6.16 8.327-12.116 10.729-21.988 1.445-5.939 2.948-8.963 6.485-13.044 9.545-11.02 19.928-35.508 21.305-50.252l.672-7.206-4.881.008c-10.766.016-32.104 7.023-46.388 15.23l-5.956 3.423-8.057-4.345c-13.565-7.318-34.611-13.205-47.202-13.205-3.709 0-4.461-.54-7.686-5.516-4.59-7.086-12.682-14.133-22.721-19.788zm58.954 74.22c8.48-2.13 25.847 1.288 25.847 5.088 0 1.968.099 1.977-8.089-.79-8.521-2.88-16.109-2.273-24.804 1.985-5.75 2.815-8.161 2.965-6.58.408 1.052-1.702 8.684-5.45 13.626-6.69zm-14.146 18.146c0-2.014 2.757-1.945 29.873.745 22.764 2.257 24.563 2.583 24.563 4.434 0 1.418-6.559 8.725-9.01 10.037-7.157 3.831-21.327 3.185-30.273-1.38-5.25-2.679-15.153-11.72-15.153-13.836zm17.678 4.377c-.252-.721-3.208-1.659-6.569-2.085l-6.11-.774 2.738 2.975c1.506 1.638 5.891 4.529 9.743 6.425 5.736 2.824 8.361 3.449 14.498 3.449 7.848 0 12.51-1.641 16.181-5.698 2.02-2.232 1.995-2.273-1.67-2.848-8.244-1.294-12.05-1.314-12.05-.062 0 1.891-3.479 4.672-6.916 5.53-2.427.606-3.657.126-6.205-2.424-1.749-1.748-3.387-3.769-3.64-4.488zm-68.78-36.666c0-.794.625-1.444 1.388-1.442 3.453.002 15.351 6.919 21.705 12.619 3.841 3.447 7.513 6.266 8.157 6.266.646 0 1.436-1 1.755-2.222.32-1.222 1.273-2.222 2.118-2.222 2.572 0 1.714 4.277-1.247 6.217-2.356 1.544-3.301 1.61-6.139.435-1.846-.765-4.341-2.774-5.546-4.466-2.605-3.66-12.185-10.174-18.025-12.257-2.291-.816-4.166-2.134-4.166-2.928zm-4.425 8.544c1.632-1.008 10.79 1.477 16.892 4.584 5.464 2.784 11.697 8.337 13.695 12.202 2.119 4.097 2.15 3.997-1.892 6.088-2.545 1.316-5.57 1.694-11.073 1.382-8.044-.454-11.584-2.218-15.81-7.88-2.71-3.627-3.972-15.041-1.813-16.376zm11.898 6.155c-2.04-.852-5.056-1.887-6.702-2.301-2.684-.673-2.993-.447-2.993 2.183 0 4.885 2.987 10.46 6.877 12.832 6.075 3.705 21.733 2.644 17.878-1.211-1.035-1.035-1.711-1.018-3.032.078-4.158 3.452-12.498-3.344-9.666-7.877 1.194-1.912.927-2.33-2.362-3.704zm118.062-37.2c5.804-3.038 10.966-5.405 11.47-5.26 2.576.745.339 2.842-7.11 6.665-11.412 5.858-22.578 13.55-24.274 16.72-1.209 2.258-1.095 3.38.763 7.515 1.202 2.673 3.502 6.073 5.113 7.554 3.246 2.986 3.72 4.528 1.391 4.528-2.56 0-9.373-8.468-10.661-13.25-2.242-8.325 3.02-13.85 23.308-24.471zm-92.208 84.384c-.917-.592-4.275-1.085-7.465-1.095-6.266-.017-6.504.53-2.766 6.374l1.601 2.501 3.798-3.334c2.089-1.834 4.405-3.343 5.148-3.352.849-.011.731-.418-.316-1.094zm11.076 5.416c-2.56-1.146-5.224-2.051-5.92-2.013-3.591.2-10.711 4.609-10.711 6.633 0 1.651 6.84 3.558 10.583 2.95 2.134-.345 5.415-1.722 7.291-3.057l3.41-2.429-4.653-2.084zM552.98 2.812c6.955-3.05 18.723-1.217 24.24 3.772 2.762 2.498 6.126 9.18 7.184 14.27l.845 4.07 9.631 1.95c5.297 1.073 11.443 2.548 13.659 3.28 3.959 1.307 4.094 1.25 7.959-3.264 9.509-11.11 25.302-13.033 34.524-4.203 6.157 5.895 8.405 13.644 8.697 29.985l.253 14.19 3.92 4.34c7.838 8.676 7.499 18.22-.983 27.655-3.951 4.393-4.994 6.529-6.06 12.412-3.724 20.54-10.833 33.713-21.276 39.425-5.075 2.778-7.18 3.256-14.465 3.291-9.834.047-14.532-2.335-15.167-7.688-.609-5.143 6.159-18.38 9.399-18.38 1.957 0 1.921 1.153-.132 4.084-1.468 2.097-1.458 2.43.091 3.025.957.367 3.076.679 4.706.691 1.63.013 7.132 1.434 12.225 3.159l9.262 3.134 2.853-4.52c3.44-5.449 6.487-13.856 8.495-23.436l1.487-7.094-5.68 3.191c-13.64 7.66-36.001 12.348-60.118 12.602-15.432.163-15.605.137-22.218-3.332-13.207-6.928-27.937-17.549-37.735-27.21-5.493-5.414-10.081-9.845-10.197-9.845-.115 0-1.126 2.375-2.246 5.278-3.038 7.873-2.695 19.402.784 26.402l2.734 5.501 7.221.337c3.972.186 9.621.819 12.553 1.408 7.63 1.531 7.631 1.531 6.813-2.832-1.109-5.915 2.297-3.926 3.851 2.248 3.747 14.878-1.011 20.747-13.508 16.664-21.787-7.118-32.574-34.106-21.952-54.928 1.874-3.674 1.863-3.993-.308-8.888-2.731-6.158-2.968-15.926-.503-20.631 2.14-4.082 6.903-8.61 11.492-10.921 2.44-1.23 4.016-3.278 5.44-7.07 5.971-15.906 15.002-28.955 22.23-32.122zm-9.714 122.81c-6.051-1.629-20.836-3.056-20.836-2.01 0 1.921 9.68 8.834 14.711 10.505 7.116 2.363 10.839 1.02 10.839-3.912 0-2.957-.506-3.45-4.714-4.583zM526.25 50.425c.837-3.207 1.393-5.832 1.237-5.832-.158 0-1.958 1.126-4.001 2.503-8.635 5.819-10.457 15.708-4.983 27.046 7.773 16.1 44.372 43.729 60.451 45.634 8.284.981 34.565-1.648 46.472-4.65 27.608-6.959 45.173-22.75 39.748-35.734-3.031-7.253-7.205-10.513-7.218-5.636-.011 4.85-2.375 10.937-5.729 14.756-7.831 8.92-30.277 16.64-58.383 20.078l-15.313 1.873-6.109-3.075c-19.016-9.571-38.349-26.072-44.932-38.347-3.519-6.561-3.695-9.21-1.24-18.616zm45.689-43.066c-10.711-6.277-20.798-2.566-29.163 10.728-6.726 10.688-14.275 31.6-14.983 41.504-.728 10.212 22.548 32.86 45.677 44.444l6.047 3.03 14.85-1.858c23.599-2.952 38.628-7.391 49.886-14.74 3.153-2.056 6.522-4.945 7.488-6.42 2.858-4.361 5.405-23.054 4.782-35.09-.911-17.615-6.364-26.731-16.942-28.316-8.302-1.245-17.256 3.283-23.007 11.634l-1.845 2.682-11.989-2.961c-6.594-1.627-13.513-2.96-15.377-2.958-4.273 0-6.055-1.76-6.055-5.981 0-5.658-4.174-12.654-9.369-15.698zm-14.025 4.958c1.563-.474 3.508-.655 4.322-.402.813.252 2.172.459 3.017.459.844 0 3.287 1.538 5.428 3.418 12.269 10.773-.126 30.288-15.23 23.977-7.503-3.135-10.836-13.15-6.904-20.751 1.712-3.311 4.307-5.166 9.367-6.701zm7.176 3.828c-2.039-.852-3.848-1.481-4.021-1.398-.172.084-1.42.366-2.775.628-3.942.763-8.095 6.554-8.067 11.25.065 10.51 12.523 14.848 19.35 6.735 5.139-6.11 3.068-14.058-4.487-17.215zm-6.277 4.772c1.069-.28 2.206-.566 2.528-.637.324-.071 1.698.65 3.056 1.6 5.262 3.686 1.008 11.97-5.053 9.839-1.655-.583-3.183-1.963-3.396-3.07-.639-3.317.795-7.191 2.865-7.732zm68.376 8.01c5.369-3.373 13.218-2.403 17.824 2.202 3.152 3.152 3.508 4.179 3.508 10.13 0 5.939-.361 6.983-3.476 10.1-2.533 2.533-4.818 3.626-8.425 4.034-15.589 1.756-22.68-18.141-9.431-26.465zm15.306 4.47c-5.451-5.45-14.143-3.947-17.729 3.068-3.711 7.255 1.75 15.905 10.039 15.905 9.953 0 14.773-11.89 7.69-18.973zm-10.947 4.038c1.358-.951 2.746-1.73 3.085-1.73 2.039 0 5.555 3.857 5.555 6.094 0 2.972-2.653 6.127-5.151 6.127-5.882 0-8.259-7.151-3.489-10.491zm-52.026.96c.933-2.431 2.582-1.876 3.335 1.124.971 3.868 4.688 4.698 8.482 1.893l3.109-2.3 1.136 3.258c1.414 4.058 5.989 5.552 8.909 2.91 3.2-2.897 5.88-2.115 3.739 1.09-2.632 3.942-10.706 4.478-13.669.907-.922-1.11-2.474-1.404-4.959-.938-1.989.374-4.658.122-5.932-.56-2.857-1.528-4.961-5.271-4.15-7.383zm45.668 24.932c7.563-3.44 15.084-2.202 17.391 2.862 2.677 5.876-5.69 12.833-15.446 12.84-7.211.006-10.91-2.878-9.728-7.585 1.028-4.097 2.637-5.776 7.783-8.117zm13.3 2.769c-3.941-2.882-12.214-.94-16.508 3.877-1.719 1.929-1.844 2.657-.698 4.04 2.016 2.427 9.837 2.127 14.22-.545 4.632-2.824 5.676-5.404 2.986-7.372zm-95.068-21.388c1.284-1.285 3.462-2.326 4.836-2.313 4.169.04 11.463 3.959 13.997 7.517 3.086 4.332 3.21 10.828.241 12.418-9.789 5.238-26.497-10.198-19.074-17.622zm11.238 3.36c-5.027-2.827-7.025-2.958-8.988-.592-1.227 1.477-1.198 2.259.169 4.697 3.73 6.647 14.341 10.343 15.293 5.328.614-3.237-1.858-6.84-6.474-9.433zm67.522 91.616c-10.948-2.262-10.738-2.28-12.017 1.081-2.522 6.635-.727 8.854 8.146 10.07 5.534.758 16.317-1.904 18.535-4.576 1.175-1.415.806-1.922-2.355-3.242-2.06-.861-7.6-2.36-12.309-3.333zM320.709 17.812c2.491-1.131 5.745-2.067 7.232-2.08 4.299-.04 11.608 4.068 13.778 7.742 1.87 3.165 2.136 3.267 4.389 1.69 1.319-.925 4.242-1.68 6.496-1.68 3.212 0 4.72.739 6.974 3.418 1.582 1.88 2.876 4.314 2.876 5.41 0 1.54 1.145 2.122 5.045 2.562 5.998.675 8.984 3.083 10.626 8.564 2.623 8.754-4.471 16.5-13.874 15.149-4.329-.622-4.664-.465-6.241 2.945-3.288 7.109-14.305 10.558-22.623 7.08-4.255-1.776-8.483-6.684-8.483-9.845 0-1.65-.481-1.994-1.944-1.397-6.175 2.525-9.172 2.803-12.988 1.209-8.54-3.568-9.551-15.158-1.778-20.383 3.461-2.326 3.812-3.031 3.519-7.084-.486-6.72 1.713-10.9 6.996-13.3zm15.381 4.236c-2.387-2.118-8.284-3.232-11.963-2.261-4.342 1.145-7.222 4.94-7.222 9.518 0 2.378.505 5.266 1.12 6.417.969 1.809.448 2.39-3.846 4.29-3.508 1.552-5.18 3.043-5.69 5.077-1.02 4.062 1.383 9.08 5.083 10.613 2.636 1.093 3.98.929 8.377-1.016 6.292-2.783 7.177-2.85 7.177-.54 0 3.45 3.671 9.45 6.76 11.049 4.028 2.083 9.196 2.057 13.673-.067 3.695-1.753 7.34-6.721 7.34-10.004 0-1.443.603-1.731 2.5-1.191 9.483 2.7 13.319 1.586 15.31-4.445.958-2.907.847-4.336-.547-7.033-2.1-4.062-6.017-5.284-11.52-3.595-4.861 1.492-6.295.384-4.527-3.496 3.39-7.442-8.031-12.37-12.1-5.221-1.039 1.829-2.243 3.329-2.673 3.333-.43.003-1.731-2.117-2.894-4.715-1.162-2.597-3.122-5.618-4.358-6.713zm39.199 198.309c2.859-3.234 5.766-5.704 6.457-5.486.694.216 3.854 3.824 7.025 8.014l5.766 7.621 17.008.208c11.488.142 19.588.823 24.952 2.097l7.941 1.887 10.895-7.284c5.991-4.007 11.48-7.285 12.197-7.285 2.026 0 3.152 1.956 7.998 13.887 5.051 12.438 8.221 23.684 10.359 36.748 1.921 11.742 1.928 42.149.013 52.609-2.827 15.441-9.39 31.185-12.999 31.185-2.129 0-2.059-.284 1.694-6.96 3.224-5.734 6.966-17.855 8.437-27.334l.754-4.852-8.098-8.153-8.097-8.152 3.05-1.16c1.678-.638 3.893-1.167 4.923-1.175 1.03-.008 2.992-.315 4.36-.683 2.381-.637 2.273-.907-2.499-6.214-2.743-3.052-4.988-6.195-4.988-6.984 0-.806 2.449-2.023 5.578-2.774l5.577-1.338-.723-5.717c-1.81-14.332-12.394-46.904-15.65-48.166-.731-.283-6.617 3.084-13.081 7.484-8.72 5.936-12.488 9.257-14.606 12.873-1.571 2.68-3.361 4.873-3.98 4.873-.617 0-3.017-1.5-5.331-3.333-2.314-1.834-4.69-3.333-5.28-3.333-.59 0-3.343 1.999-6.121 4.444-2.777 2.444-5.588 4.444-6.248 4.444-.659 0-2.48-2.527-4.044-5.614-3.063-6.046-3.651-6.187-10.746-2.578-6.073 3.089-7.142 1.917-6.512-7.141.188-2.704-.97-5.55-4.412-10.832-2.566-3.941-5.077-7.165-5.576-7.165-1.425 0-17.058 21.236-21.562 29.291-4.829 8.636-11.708 25.33-11.708 28.414 0 1.654 1.016 2.372 4.166 2.939 4.732.855 8.054 2.351 8.054 3.629 0 .476-3.749 3.485-8.332 6.685-8.669 6.052-10.919 9.723-5.277 8.604 8.675-1.721 11.187-1.904 11.828-.867.382.618-2.809 5.194-7.093 10.169-5.878 6.824-7.79 9.856-7.79 12.354 0 5.029 3.183 19.365 6.058 27.288 1.539 4.236 2.135 7.333 1.49 7.731-1.665 1.03-2.731-.659-5.345-8.473-7.574-22.647-7.512-52.097.16-75.532 5.406-16.514 17.497-37.475 29.358-50.893zm-23.054 62.939c-3.309-2.099-6.15-1.042-6.87 2.559-.386 1.931-.481 3.731-.212 4.001.27.268 2.3-.89 4.511-2.577 2.956-2.255 3.636-3.308 2.571-3.983zm131.722 1.548c-.712-2.659-.744-2.669-4.541-1.555-2.418.708-2.393.805 1.346 5.166 3.631 4.233 3.814 4.311 3.838 1.666.016-1.527-.274-3.902-.643-5.277zm.7 19.72c0-5.065-.221-5.542-2.5-5.404-4.013.243-7.499 1.062-7.499 1.763 0 .656 8.942 9.196 9.628 9.196.204 0 .371-2.5.371-5.555zm-136.27 1.666c4.318-5.166 4.155-5.462-2.319-4.215-2.087.401-2.5 1.204-2.5 4.849 0 2.401.144 4.366.32 4.366.177 0 2.201-2.25 4.499-5zm85.082-70.586c-6.74-1.304-29.685-2.263-35.07-1.466-2.727.404-3.619 1.174-4.068 3.51-.315 1.647-.358 3.214-.092 3.482.264.268 3.04-.593 6.167-1.914s6.121-2.131 6.657-1.801c.534.33 2.026 2.692 3.313 5.247 1.289 2.555 2.51 4.833 2.713 5.061.205.227 2.713-1.647 5.575-4.167 2.863-2.519 5.664-4.58 6.223-4.58.561 0 2.991 1.583 5.398 3.518 2.409 1.936 4.505 3.31 4.661 3.055.155-.254 1.448-2.127 2.875-4.161 1.427-2.033 2.387-3.905 2.134-4.159-.253-.252-3.172-.984-6.486-1.625zM193.036 582.777c5.604-2.746 14.442-3.37 14.442-1.021 0 2.912-22.573 11.125-24.708 8.99-1.092-1.092 3.496-4.654 10.266-7.969zm45.548 4.51c9.095-3.268 20.476 1.078 24.791 9.467 2.057 4 2.485 6.309 2.138 11.553-.372 5.637-.909 6.979-3.847 9.605-1.907 1.704-5.425 3.39-7.971 3.82-13.612 2.3-25.487-6.122-26.54-18.825-.454-5.475-.216-6.205 3.247-9.965 2.057-2.232 5.738-4.776 8.182-5.655zm2.189 5.734c1.509-2.224 2.634-3.976 2.5-3.893-.135.083-1.371.369-2.748.633-1.376.266-4.251 2.131-6.388 4.147-3.148 2.969-3.885 4.485-3.885 7.996 0 11.243 13.792 19.892 25.313 15.875 3.846-1.341 6.905-5.29 6.905-8.916 0-2.341-.087-2.326-2.952.538-5.475 5.475-13.781 5.231-18.645-.55-3.757-4.465-3.795-10.386-.1-15.83zm13.819-.208c-4.336-2.242-5.885-2.043-9.812 1.262-2.603 2.19-3.418 3.792-3.418 6.716 0 7.489 8.163 11.79 14.265 7.516 5.782-4.049 5.234-12.252-1.035-15.494zm205.347-2.699c2.551-1.57 11.181-.708 13.209 1.319 2.169 2.17.912 4.839-3.055 6.482-1.812.751-3.131 1.922-2.931 2.602.2.68 3.218 2.674 6.708 4.431 8.496 4.277 18.258 4.45 26.308.466 5.364-2.655 8.505-2.696 6.894-.091-.437.71-3.161 2.303-6.051 3.542-4.117 1.765-5.255 2.813-5.255 4.842 0 1.423-1.625 5.301-3.61 8.617-2.915 4.868-4.881 6.679-10.201 9.394-5.783 2.953-7.688 3.356-15.553 3.294-9.151-.073-15.641-2.188-21.211-6.909-3.699-3.137-7.942-9.411-9.364-13.851-.739-2.306-2.06-4.166-2.959-4.166-2.189 0-10.424-4.26-10.424-5.393 0-2.133 1.617-2.084 5.943.178 9.449 4.94 25.377 3.626 33.502-2.765l2.912-2.291-3.404-2.07c-3.795-2.309-4.46-5.785-1.458-7.631zm32.107 24.411c.832-4.163-1.459-4.498-4.996-.733-2.237 2.382-2.314 2.892-.928 6.188l1.51 3.593 1.874-2.86c1.031-1.573 2.173-4.358 2.54-6.188zm-8.252 8.963c-.646-4.397-1.724-4.295-4.506.421-2.58 4.37-6.962 5.716-15.492 4.755-3.931-.444-5.766-1.331-7.658-3.704-2.769-3.473-3.073-3.405-4.11.923-.691 2.882-.434 3.104 5.593 4.857 7.609 2.212 15.972 1.61 22.268-1.602 3.937-2.008 4.352-2.607 3.905-5.65zm-13.857-16.462c-5.518-2.923-4.928-2.91-9.162-.208-2.166 1.382-3.408 3.16-3.557 5.087-.125 1.629-.714 3.449-1.31 4.045-1.452 1.452 3.045 8.273 5.975 9.062 3.224.867 10.905.729 12.342-.222.679-.449 2.005-2.322 2.947-4.162 1.586-3.096 1.556-3.541-.401-5.956-1.162-1.435-2.113-3.181-2.113-3.878 0-.697-2.124-2.392-4.721-3.768zm-16.093 3.724c-.703-.703-.828-.7-3.963.114-1.589.412-1.734.843-.697 2.093.718.865 1.942 1.573 2.717 1.573 1.572 0 2.981-2.743 1.943-3.78zm-7.093 4.059c-7.64-6.861-10.489-3.062-4.032 5.38 4.608 6.025 5.676 6.308 6.987 1.855.986-3.347.761-3.898-2.955-7.235zm36.795-2.501c0-.611-1-1.111-2.222-1.111-1.221 0-2.222.5-2.222 1.111s1.001 1.111 2.222 1.111c1.222 0 2.222-.5 2.222-1.111zm-13.936-18.967c-.351-.567-2.078-1.031-3.839-1.031-3.887 0-5.332 1.79-2.239 2.772 2.751.873 6.949-.33 6.078-1.741zm-278.841-.053c8.809-4.003 20.044-1.865 23.302 4.435.956 1.851 1.738 5.515 1.737 8.141-.003 10.009-6.917 17.143-19.755 20.383-11.149 2.814-17.605-.417-18.812-9.419-1.179-8.794 5.092-19.71 13.528-23.54zm1.219 4.825c2.588-3.697.078-2.978-4.42 1.265-8.806 8.306-9.903 21.152-2.06 24.134 3.862 1.469 12.918-.453 18.656-3.958l4.425-2.703-3.994.623c-10.204 1.593-18.432-11.044-12.607-19.361zm16.933-.217c-5.622-5.238-15.33-.85-15.33 6.93 0 6.873 7.504 11.671 13.227 8.458 6.207-3.484 7.187-10.652 2.103-15.388zm247.594 51.716c-.79-2.058 3.096-2.52 4.334-.516.475.769 3.042 1.048 6.778.738 5.978-.496 8.712.722 5.785 2.576-2.024 1.283-10.132 1.27-13.528-.021-1.483-.564-2.999-1.814-3.369-2.777zm148.585 5.311c.797-2.074 4.672-1.159 14.536 3.436 11.836 5.514 25.072 16.345 39.117 32.011l5.74 6.403 1.471-3.07c.81-1.688 1.966-3.027 2.567-2.975.875.076 7.209 10.478 8.563 14.058.171.453 3.56 1.145 7.531 1.539 3.972.393 7.914 1.081 8.76 1.528 1.698.895 1.011 1.749-6.973 8.677l-4.238 3.678 1.277 5.21c.702 2.866 1.537 6.088 1.857 7.16 1.057 3.541-2.452 3.224-9.271-.839l-6.706-3.995-7.073 4.487c-8.793 5.579-10.315 5.723-9.447.897 2.429-13.51 2.65-12.493-3.609-16.573-6.071-3.956-6.861-6.521-2.343-7.6 2.631-.629 2.5-.823-2.532-3.781-9.294-5.465-25.786-12.404-44.112-18.561-9.886-3.322-17.796-6.576-17.796-7.323 0-.916 2.905-1.447 9.123-1.667l9.123-.322-7.456-4.852c-8.558-5.568-9.904-8.637-3.291-7.498 14.636 2.521 20.344 3.208 21.02 2.531.424-.424-.852-3.07-2.834-5.882-1.982-2.812-3.334-5.817-3.004-6.677zm13.258 6.259c-3.575-1.813-6.894-3.301-7.379-3.309-.484-.008.391 2.154 1.944 4.805 4.879 8.323 4.361 8.958-6.618 8.114-5.193-.399-9.444-.525-9.444-.279 0 .245 2.52 2.063 5.6 4.039 3.079 1.975 5.414 4.153 5.19 4.837-.226.685-2.87 1.41-5.877 1.612l-5.468.367 14.567 5.323c16.422 5.999 33.64 13.98 39.041 18.097 2.428 1.848 4.539 2.578 6.42 2.218 2.811-.536 6.073-4.044 6.073-6.528 0-2.213-21.825-24.341-29.942-30.36-4.185-3.102-10.533-7.124-14.107-8.936zm54.009 42.002c-1.551-2.874-3.125-5.53-3.497-5.903-.375-.375-1.932 2.055-3.463 5.397-2.709 5.918-2.946 6.114-9.001 7.469-3.421.765-6.22 1.772-6.22 2.236 0 .464 1.806 1.959 4.013 3.323l4.013 2.481-.75 6.633-.751 6.631 4.237-2.568c2.331-1.413 5.116-3.098 6.191-3.742 1.52-.911 3.168-.491 7.386 1.88 2.986 1.678 5.658 3.052 5.939 3.052.281 0-.003-2.593-.63-5.763l-1.14-5.763 4.783-3.948 4.781-3.948-6.537-1.122c-6.26-1.074-6.653-1.34-9.354-6.345zm-449.459-32.016c3.123-1.262 3.411-1.262 6.717-.006 3.999 1.521 3.549 3.397-.761 3.17-1.987-.104-4.992.201-6.678.68-2.609.739-2.96.587-2.345-1.013.397-1.037 1.777-2.31 3.067-2.831zm-136.23 17.315c6.21-3.37 14.677-.798 18.035 5.477 1.431 2.672 1.903 2.807 7.707 2.2 5.025-.527 6.85-.23 9.737 1.583 4.531 2.844 6.627 9.508 4.766 15.145-2.482 7.521-15.502 15.33-25.753 15.447-5.752.064-6.692-.28-10.41-3.817-11.728-11.156-13.94-30.686-4.082-36.035zm12.874 5.231c-6.95-7.222-15.943-2.847-15.943 7.757 0 10.292 9.468 24.158 16.495 24.158 7.484 0 19.375-6.507 22.965-12.568 2.188-3.691 1.472-7.915-1.964-11.596-2.594-2.779-6.388-3.16-11.995-1.205-3.272 1.14-3.853 1.045-4.887-.806-.645-1.157-2.748-3.739-4.671-5.74zM828.124 712.4c2.035-.42 5.848-.441 8.473-.047 8.956 1.347 16.765 11.831 16.922 22.719l.08 5.555 6.737 3.194c8.854 4.198 21.094 15.766 24.888 23.52 2.841 5.806 3.031 5.955 8.082 6.281 6.285.407 6.4 2.423.165 2.9l-4.492.343.749 5.767c.411 3.172 1.236 6.085 1.832 6.473.595.388 3.896 1.026 7.334 1.419 7.177.821 10.148 2.201 8.432 3.917-.726.727-2.524.782-4.99.155-2.12-.54-5.903-1.274-8.406-1.63-4.533-.647-4.553-.634-5.911 3.896-.749 2.5-1.614 5.203-1.922 6.007-.353.92 1.27 2.271 4.38 3.646 4.955 2.192 7.143 4.226 5.89 5.477-.367.369-3.181-.505-6.249-1.943l-5.581-2.614-7.469 8.186c-4.11 4.503-7.44 8.469-7.403 8.813.038.346 1.24 3.126 2.672 6.177 5.416 11.546 7.635 28.425 3.925 29.849-1.372.527-1.666-.593-1.666-6.346 0-8.343-2.337-16.936-6.767-24.886l-3.251-5.833 7.23-7.09c8.932-8.757 9.19-10.451 1.662-10.905-7.974-.48-6.33-2.574 1.94-2.47l6.924.087 1.846-4.834c1.015-2.659 1.557-5.123 1.203-5.477-.354-.354-4.208-.043-8.565.693-4.357.735-8.232 1.028-8.609.65-1.561-1.562 2.182-3.129 10.146-4.246 8.07-1.132 8.46-1.321 8.445-4.073-.007-1.587-.325-4.048-.706-5.467-.821-3.07-3.253-2.766-12.164 1.522-5.99 2.882-8.222 3.355-8.222 1.743 0-1.54 4.381-4.029 11.943-6.784 3.819-1.391 6.939-2.837 6.933-3.214-.007-.377-1.467-3.223-3.247-6.327-4.423-7.711-14.314-16.452-23.497-20.766l-7.641-3.588-.022-6.037c-.026-7.153-3.127-14.304-7.971-18.379-2.627-2.211-4.551-2.803-9.107-2.803-8.872 0-12.141 3.1-14.637 13.887-1.061 4.582-1.701 5.539-3.659 5.469-1.946-.07-2.696 1.023-4.165 6.078-3.635 12.503-8.935 19.375-14.943 19.375-3.992 0-8.494-4.009-16.883-15.035-5.057-6.649-5.906-7.315-7.939-6.227-1.835.983-2.499.839-3.435-.744-5.952-10.08-10.787-13.915-17.538-13.915-12.597 0-17.899 12.617-11.439 27.224l2.732 6.179-4.417 5.796c-2.713 3.56-5.479 9.138-7.174 14.464-3.607 11.327-3.553 12.559.586 13.387 5.69 1.139 14.428 5.358 14.428 6.967 0 1.934.022 1.936-5.785-.552-2.671-1.146-6.462-2.435-8.424-2.866-3.424-.753-3.566-.645-3.566 2.71 0 6.631 1.221 7.507 9.1 6.538 7.062-.869 10.898-.454 10.898 1.178 0 .928-8.045 2.299-13.487 2.299-4.388 0-4.088 1.524 1.93 9.819.15.206 2.481-.918 5.179-2.5 4.755-2.786 11.639-3.989 10.285-1.795-.367.593-2.831 2.036-5.477 3.206-2.646 1.171-5.173 2.716-5.618 3.435-1.13 1.829 2.17 5.135 7.892 7.905 2.671 1.293 4.624 2.727 4.34 3.187-.284.46-2.248 3.41-4.365 6.555-5.163 7.671-6.988 16.037-5.455 24.993 1.271 7.418.305 10.335-2.034 6.14-.888-1.593-1.457-6.318-1.452-12.062.009-9.691 2.405-17.59 6.816-22.464.992-1.095 1.597-2.151 1.347-2.348-.251-.195-2.894-2.067-5.87-4.159l-5.414-3.803-1.808 2.664c-.994 1.467-2.341 4.185-2.994 6.044-.654 1.859-1.779 3.575-2.5 3.816-2.35.783-1.366-4.577 1.941-10.575 1.767-3.207 2.751-6.115 2.185-6.464-.564-.349-2.029-2.601-3.256-5.004-2.681-5.255-4.706-5.498-13.125-1.58-6.318 2.941-9.055 3.449-9.055 1.678 0-1.368 6.82-4.877 13.151-6.769 4.528-1.354 4.781-1.638 4.167-4.708-.359-1.796-.654-4.704-.654-6.46 0-2.895-.354-3.194-3.797-3.194-2.088 0-4.586-.302-5.548-.672-3.048-1.17-.701-2.661 4.189-2.661h4.712l1.327-6.388c1.52-7.317 7.066-19.661 10.47-23.301l2.311-2.47-2.388-6.239c-3.264-8.529-3.217-17.829.112-22.707 4.794-7.023 15.631-9.947 22.912-6.182 3.21 1.66 10.608 9.256 11.437 11.744.379 1.137 1.607 1.059 5.976-.383 8.35-2.754 22.364-4.374 31.119-3.598l7.842.696 1.865-5.918c2.167-6.869 6.803-11.831 12.077-12.92zm-20.801 27.945c1.05-3.211 1.744-6.211 1.542-6.666-.516-1.158-21.803.585-27.448 2.247l-4.649 1.368 7.204 9.1c3.964 5.006 8.262 9.666 9.551 10.356 4.691 2.511 9.472-3.174 13.8-16.405zm-378.19-19.031c9.323-3.721 19.811 1.012 22.24 10.036l1.131 4.2 6.911-3.763c12.568-6.844 21.628-8.949 38.018-8.835 11.068.077 16.518.66 23.329 2.499 11.641 3.141 23.068 8.862 30.134 15.088l5.693 5.015 2.083-2.338c3.552-3.987 8.757-5.6 13.739-4.258 8.834 2.379 14.372 10.268 12.861 18.322-1.014 5.408-7.043 10.308-13.782 11.203l-5.386.714 3.723 8.611c8.59 19.87 7.186 33.115-4.55 42.925l-4.94 4.13 2.029 3.987c6.155 12.099 11.845 34.587 10.987 43.429-.648 6.682-2.56 3.782-3.461-5.246-.924-9.281-3.918-21.458-7.04-28.639l-1.932-4.444-.985 5.544c-3.827 21.521-24.701 40.363-48.821 44.069-7.236 1.112-10.03 1.028-18.331-.555-32.054-6.115-58.088-32.828-70.995-72.844l-2.973-9.218-4.274 4.837c-6.822 7.723-17.222 23.272-22.096 33.041-4.267 8.552-6.661 11.156-6.661 7.246 0-5.665 20.406-37.624 29.323-45.921 2.461-2.291 2.894-3.636 2.894-8.992 0-7.283 2.864-16.364 8.252-26.166l3.786-6.889-4.075-2.627c-2.241-1.445-4.949-4.377-6.017-6.516-4.914-9.834-.245-23.882 9.186-27.645zm13.451 3.832c-10.121-5.233-21.25 2.457-21.25 14.685 0 8.47 5.127 14.683 12.115 14.683 4.098 0 5.348 1.716 2.402 3.293-2.908 1.556-9.547 12.989-12.314 21.207-3.168 9.4-2.861 12.883 1.734 19.705 5.803 8.618 15.671 15.234 26.891 18.031 4.386 1.093 5.878 2.502 3.888 3.671-1.538.904-12.951-2.635-17.956-5.568-2.725-1.597-7.112-4.891-9.747-7.321-2.635-2.43-4.792-3.883-4.792-3.231 0 2.295 5.877 17.515 9.733 25.205 16.046 32 41.749 50.783 69.699 50.936 12.654.067 21.846-2.861 32.535-10.369 12.163-8.542 19.475-20.124 21.431-33.949 1.412-9.967.891-10.847-4.94-8.347-6.609 2.833-11.456 3.754-12.328 2.341-.402-.651.173-1.502 1.282-1.891 1.108-.389 5.97-2.202 10.804-4.029 20.804-7.867 25.445-22.394 14.627-45.797-1.976-4.278-4.429-8.464-5.45-9.302-3.167-2.6-2.089-3.475 4.287-3.475 13.531 0 20.374-7.275 15.575-16.555-2.236-4.324-6.883-7.079-11.937-7.079-5.196 0-8.211 2.457-11.029 8.985-2.122 4.913-5.044 5.509-3.859.787.851-3.389-8.693-12.434-18.164-17.214-6.465-3.264-23.204-8.366-24.195-7.375-.239.241 2.343 2.836 5.739 5.769 5.682 4.905 7.747 8.24 5.105 8.24-.589 0-4.225-2.95-8.081-6.558l-7.01-6.557-7.115 4.28c-6.625 3.985-8.941 4.55-8.941 2.185 0-.53 2.875-2.625 6.387-4.656l6.388-3.692-7.343-.325c-10.267-.454-22.187 2.283-32.865 7.548-9.15 4.511-13.672 8.581-13.672 12.304 0 2.106-1.92 3.921-3.003 2.838-.348-.348-.046-3.618.672-7.265 1.605-8.158-.139-13.467-5.303-16.138zm1.377 49.903c1.179-3.073 2.924-.615 2.924 4.119 0 6.031 3.488 11.427 8.944 13.833 2.413 1.066 4.387 2.311 4.387 2.768 0 3.726-9.555-.399-13.385-5.78-2.523-3.542-4.097-11.741-2.87-14.94zm31.808 56.567c0-2.369.868-2.011 12.084 4.996l10.416 6.508 9.441-4.362c8.871-4.098 13.468-5.12 11.635-2.586-1.401 1.935-17.943 9.443-20.807 9.443-3.433 0-22.769-11.888-22.769-13.999zm-18.885 10.509c0-1.739 3.32-.989 7.607 1.717 2.328 1.469 9.337 6.738 15.577 11.71s12.527 9.578 13.972 10.235c2.26 1.03 4.471.267 15.786-5.45 14.204-7.176 27.357-12.014 29.337-10.79 1.899 1.174.02 2.349-7.847 4.906-3.971 1.292-13.284 5.401-20.694 9.13-10.296 5.184-14.15 6.613-16.342 6.063-1.578-.396-7.82-4.665-13.874-9.488-6.052-4.821-13.821-10.638-17.263-12.923-3.442-2.286-6.259-4.585-6.259-5.11zm41.104-58.944c0-2.127.102-2.121 3.917.237 3.654 2.257 4.102 2.302 6.608.659 4.008-2.627 5.071.167 1.23 3.23-2.306 1.839-2.957 3.212-2.68 5.65.505 4.413 4.315 4.909 7.416.965 3.053-3.88 5.179-2.612 2.926 1.746-1.97 3.81-6.262 5.237-10.707 3.559-1.715-.648-5.089-.913-7.497-.591-3.665.492-4.842.122-7.238-2.274-1.575-1.574-2.862-3.635-2.862-4.58 0-2.499 3.06-2.104 3.887.504.388 1.22 1.998 2.544 3.579 2.941 6.073 1.524 9.369-4.653 4.266-7.996-1.564-1.026-2.845-2.848-2.845-4.05zm65.701 9.569c1.194-2.698 2.647-4.906 3.229-4.906 1.933 0 1.096 5.173-1.44 8.899-3.979 5.845-7.973 8.222-13.905 8.275-6.69.059-7.453-1.987-1.033-2.762 6.599-.797 10.566-3.665 13.149-9.506zm-60.979-55.227c1.985-2.198 4.201-4.023 4.924-4.056 1.533-.071 9.24 9.008 9.24 10.885 0 2.117-1.374 1.468-5.573-2.633l-4.002-3.907-2.627 2.796c-2.568 2.733-5.573 3.733-5.573 1.853 0-.519 1.625-2.741 3.611-4.938zm-25.83 3.104c0-.917.739-1.666 1.641-1.666 1.975 0 4.576 3.788 5.68 8.273.444 1.802 2.246 4.486 4.004 5.966 10.453 8.796 7.833 26.106-4.883 32.262-8.469 4.1-15.399 2.692-21.307-4.33-2.361-2.805-2.91-4.601-2.91-9.518 0-7.684 1.942-12.315 7.038-16.79 3.465-3.043 3.941-4.022 3.36-6.926-.837-4.184 1.316-4.599 3.136-.605.907 1.993 2.137 2.777 4.354 2.777 1.699 0 3.375-.462 3.725-1.027.769-1.248-1.598-6.75-2.906-6.75-.512 0-.932-.749-.932-1.666zm8.647 14.511c-3.43-2.402-10.696-2.17-15.045.482-5.369 3.273-8.035 8.378-8.039 15.393-.005 5.28.416 6.364 3.772 9.721 4.686 4.686 10.544 5.135 16.307 1.251 10.296-6.938 11.831-20.666 3.005-26.847zm-14.479 15.019c4.098-2.387 11.387.086 11.387 3.863 0 2.046-.56 2.015-3.973-.221-2.245-1.471-3.323-1.579-5.568-.556-3.555 1.62-3.79 1.599-3.79-.342 0-.886.874-2.121 1.944-2.744zm63.318-20.364c1.853-2.021 5.838-2.678 5.838-.961 0 .541-1.316 1.845-2.924 2.898-2.28 1.494-2.585 2.124-1.395 2.861 1.047.648 2.26.028 3.851-1.966 2.697-3.385 5.66-2.696 3.75.871-.973 1.819-.534 2.775 2.65 5.778 8.824 8.322 8.418 26.775-.736 33.491-4.362 3.199-13.838 3.186-18.168-.026-9.977-7.4-11.86-24.805-3.498-32.32 3.357-3.017 6.896-6.553 10.632-10.626zm8.798 11.074c-10.528-6.815-23.365 2.36-21.232 15.175 2.149 12.9 11.196 19.388 20.399 14.628 1.72-.89 3.945-3.339 4.944-5.445 3.547-7.475 1.29-20.865-4.111-24.358zm-10.489 15.375c1.357-.951 3.246-1.73 4.196-1.73 2.482 0 6.666 3.178 6.666 5.063 0 2.024-.568 2.011-3.771-.089-2.537-1.662-6.228-1.248-6.228.7 0 .545-.749.992-1.666.992-2.492 0-2.01-2.966.803-4.936zm293.122-48.797c4.431-5.635 14.36-2.631 14.36 4.344 0 3.662-4.649 8.282-8.331 8.282-3.367 0-8.333-4.516-8.333-7.576 0-1.168 1.036-3.44 2.304-5.05zm9.694 1.739c-2.039-2.039-6.229-1.588-7.511.809-1.551 2.896-.362 5.512 2.87 6.323 4.672 1.174 7.933-3.84 4.641-7.132zm-85.915 5.279c3.188-1.292 3.655-1.255 7.18.568 8.124 4.201 4.58 16.15-4.787 16.15-9.287 0-11.17-13.16-2.393-16.718zm8.153 7.542c-.185-1.229-1.337-2.869-2.559-3.644-4.635-2.942-9.883 2.291-7.243 7.223 2.397 4.481 10.568 1.497 9.802-3.579zm-519.352 12.623c7.996-2.313 14.197-.428 19.196 5.836 2.9 3.636 3.312 3.817 5.07 2.226 4.824-4.366 14.43-.587 15.935 6.268.59 2.683 1.304 3.128 5.854 3.64 7.016.791 10.264 4.504 10.23 11.698-.04 8.501-5.452 13.2-13.766 11.953-4.495-.675-4.714-.565-6.554 3.295-3.717 7.795-17.608 10.73-25.053 5.293-1.61-1.176-3.815-3.918-4.898-6.094l-1.968-3.955-4.555 1.568c-8.519 2.936-16.489-2.612-16.499-11.482-.004-3.814 4.619-10.362 7.316-10.362 1.171 0 1.567-1.647 1.567-6.516 0-7.621 2.504-11.742 8.125-13.368zm14.324 5.069c-2.601-2.325-9.709-3.401-13.006-1.968-5.07 2.206-6.475 5.203-5.74 12.243l.69 6.597-3.306.726c-6.238 1.37-8.738 8.99-4.457 13.585 3.419 3.671 6.266 4.04 11.528 1.492 5.972-2.892 7.395-2.897 7.395-.029 0 6.332 6.402 12.166 13.349 12.166 6.217 0 12.725-4.786 13.922-10.239.6-2.73 1.133-3.174 3.113-2.595 6.782 1.985 9.095 1.894 12.11-.478 2.406-1.893 3.055-3.33 3.055-6.767 0-7.443-5.875-10.742-13.775-7.738-3.478 1.322-4.446.013-2.746-3.717 1.043-2.289.937-3.345-.566-5.639-2.787-4.251-8.148-3.904-11.995.778l-2.976 3.621-2.158-5c-1.186-2.749-3.183-5.917-4.437-7.038zm489.971-276.253c5.266-2.167 10.832 1.04 10.832 6.24 0 5.833-7.152 15.969-11.269 15.969-5.78 0-16.505-8.718-16.505-13.418 0-1.175 1.061-3.196 2.356-4.491 1.947-1.947 3.195-2.239 7.22-1.688 2.984.41 4.866.232 4.866-.458 0-.619 1.126-1.588 2.5-2.154zm6.167 3.544c-2.045-2.044-3.846-1.607-6.316 1.533-2.127 2.707-2.476 2.787-6.202 1.44-3.398-1.228-4.193-1.182-5.711.337-1.379 1.379-1.498 2.26-.547 4.038 1.539 2.875 6.591 6.505 10.375 7.455 2.506.629 3.378.08 6.32-3.982 3.596-4.964 4.297-8.604 2.081-10.821zm-53.989 3.995c1.098-1.097 3.331-1.995 4.963-1.995 7.596 0 9.352 8.336 3.589 17.036-4.221 6.375-7.024 7.235-13.243 4.063-6.987-3.565-9.977-7.003-9.977-11.469 0-4.985 2.172-6.641 7.982-6.087 3.466.33 5.213-.074 6.686-1.548zm8.476 4.499c-.534-3.763-4.566-4.005-7.178-.431-1.903 2.606-2.372 2.737-5.527 1.544-7.265-2.75-9.673 2.258-3.558 7.401 5.706 4.803 8.571 5.472 11.527 2.695 3.169-2.978 5.215-7.821 4.736-11.209zm-617.927 14.13c1.073-3.399 2.564-6.181 3.316-6.181.75 0 1.709 2.125 2.129 4.722 1.113 6.889 4.397 13.759 7.38 15.448 1.432.811 5.348 2.479 8.701 3.706 3.354 1.228 6.004 2.715 5.888 3.306-.115.59-2.989 1.705-6.384 2.476-11.469 2.605-14.58 5.473-17.852 16.448-1.933 6.489-3.852 5.517-6.005-3.043-2.355-9.35-5.118-12.346-14.175-15.359-3.915-1.304-6.947-2.886-6.737-3.516.21-.631 3.828-2.013 8.038-3.073 9.178-2.31 12.812-5.766 15.702-14.934zm4.662 8.54c-1.162-2.597-2.214-4.699-2.338-4.67-.124.028-1.257 2.151-2.52 4.717-1.764 3.59-3.654 5.346-8.184 7.609-5.169 2.584-5.593 3.038-3.465 3.713 4.076 1.294 9.846 7.128 11.246 11.371l1.328 4.021 1.657-3.243c2.618-5.124 4.907-7.292 10.19-9.656l4.923-2.202-3.257-1.664c-5.099-2.606-7.3-4.904-9.58-9.996zm413.608-12.204c8.201-2.667 14.313 1.938 20.987 15.814 6.474 13.457 15.548 45.847 15.548 55.495 0 2.099.938 2.689 6.123 3.849 22.629 5.065 21.064 29.228-3.155 48.683-12.828 10.308-36.2 22.033-38.026 19.079-.938-1.517-1.265-1.315 8.891-5.519 17.82-7.378 37.044-22.974 42.687-34.633 4.444-9.181 2.118-18.547-5.64-22.703-5.446-2.918-16.732-2.686-23.174.475-5.502 2.7-7.703 3.1-7.703 1.4 0-1.405 7.059-4.999 12.926-6.579l4.579-1.233-1.571-8.604c-4.29-23.472-12.972-48.604-19.951-57.753-5.506-7.222-10.147-6.996-18.724.91-4.82 4.442-14.601 18.488-13.585 19.504.276.276 2.299.792 4.498 1.149 3.655.593 4.164.338 5.97-3 1.085-2.007 3.262-5.146 4.839-6.975 5.666-6.574 11.294-.948 12.938 12.932.981 8.288-2.042 6.27-3.827-2.556-1.36-6.715-2.934-10.032-4.761-10.032-.464 0-2.391 2.375-4.284 5.277l-3.442 5.277 2.351 1.785c3.799 2.887 1.021 3.149-9.626.91-13.287-2.795-29.826-2.804-40.641-.022-4.528 1.164-8.982 2.289-9.898 2.5-1.218.279-1.581-.427-1.355-2.625.41-3.951-2.531-10.88-4.618-10.88-2.473 0-5.65 4.66-8.491 12.456-2.931 8.045-4.078 9.73-4.996 7.34-.777-2.026 4.089-15.371 7.198-19.739 1.222-1.716 3.225-3.382 4.452-3.704 3.261-.853 7.571 3.077 8.936 8.151 1.299 4.822 1.67 4.967 7.928 3.091 4.981-1.493 4.965-2.031-.387-12.201-4.858-9.236-9.852-14.281-14.135-14.281-9.777 0-24.252 26.36-34.485 62.804-1.855 6.609-3.374 12.431-3.374 12.935 0 .506 1.265.919 2.813.919 5.399 0 16.073 6.031 16.073 9.081 0 1.64-1.972.981-7.677-2.565-4.707-2.926-6.345-3.383-10.254-2.859-13.692 1.837-19.126 15.824-11.042 28.424 8.143 12.69 21.863 20.37 44.883 25.125 4.115.85 3.24 3.45-1.009 3.002-6.408-.677-19.588-4.75-26.244-8.109-12.278-6.198-22.432-17.938-24.738-28.603-1.632-7.543 1.619-13.934 11.218-22.058 1.53-1.295 3.427-5.886 5.416-13.103 9.833-35.681 22.458-61.322 32.835-66.688 1.741-.901 4.776-1.638 6.744-1.638 5.026 0 11.999 7.581 17.328 18.84l4.2 8.875 12.22.02 12.221.021 4.82-7.813c5.895-9.556 14.151-18.008 19.191-19.648zm211.785 3.847c13.673-1.43 14.932-.719 12.589 7.102-2.421 8.082-9.821 8.449-14.532.721-3.374-5.534-2.932-7.313 1.943-7.823zm9.661 5.024c.674-2.199.388-2.485-2.365-2.371-4.138.17-7.018.961-7.018 1.927 0 .43.778 1.893 1.729 3.251 2.816 4.021 5.908 2.886 7.654-2.807zm.955 11.292c6.297-5.419 18.885-2.435 29.571 7.01 3.033 2.682 4.597 4.851 4.089 5.673-.571.924-2.746-.162-7.134-3.564-8.583-6.655-12.536-8.468-18.453-8.468-4.161 0-5.348.487-6.882 2.827-1.551 2.369-1.646 3.515-.587 7.055 1.613 5.384 7.654 13.316 12.813 16.831 4.06 2.767 5.29 5.505 2.472 5.505-2.478 0-12.688-9.804-15.876-15.243-4.179-7.131-4.184-14.038-.013-17.626zm-23.843-.023c2.234-.798 4.913-1.473 5.954-1.499 3.464-.089 7.386 2.425 8.689 5.57 2.408 5.812-2.948 18.615-12.187 29.137-3.043 3.467-6.726 5.456-6.726 3.632 0-.274 2.509-3.813 5.578-7.866 10.007-13.223 12.809-21.023 8.936-24.895-1.262-1.262-3.168-2.294-4.238-2.293-3.273.001-14.944 6.078-21.167 11.019-7.446 5.913-10.209 5.323-3.836-.82 5.177-4.989 12.7-9.736 18.997-11.985zm-259.383 21.227c1.31-3.416 14.134-1.199 16.283 2.817.791 1.477.614 2.5-.65 3.763-1.55 1.55-2.079 1.558-4.942.078-1.764-.912-4.747-1.659-6.63-1.659-3.563 0-5.205-2.02-4.061-4.999zm37.091 1.714c5.465-2.921 13.957-2.702 14.541.375.485 2.546-1.562 3.981-5.709 4.005-1.709.009-4.62.797-6.466 1.753-2.619 1.353-3.708 1.446-4.945.419-2.619-2.173-1.82-4.2 2.579-6.552zm-263.014 13.747c7.258-3.126 9.748-3.292 13.19-.88 1.898 1.328 2.458 2.606 2.127 4.858-.439 2.99-.306 3.069 6.282 3.697 3.702.354 8.699 1.331 11.105 2.173 3.982 1.392 5.178 1.292 13.331-1.121 23.037-6.818 37.378-3.433 44.382 10.475 6.358 12.624-2.992 29.563-20.783 37.65l-7.114 3.234-.644 9.014c-.555 7.764-2.474 15.45-5.722 22.927-.736 1.693-.18 1.944 4.309 1.944 9.832 0 16.192 5.031 16.192 12.807 0 4.541-5.214 8.929-12.564 10.574-6.114 1.368-6.322 1.534-6.322 5.054 0 7.447-4.933 14.824-11.907 17.808-4.427 1.894-5.879 1.93-5.828.141.022-.763 2.121-2.389 4.664-3.611 6.346-3.05 9.05-7.16 9.73-14.791.51-5.723.825-6.351 3.341-6.67 13.792-1.745 19.522-8.306 12.785-14.638-3.36-3.156-12.71-4.272-18.844-2.246-4.907 1.619-10.152 8.341-11.888 15.237-1.158 4.599-2.361 5.859-3.632 3.803-.331-.536.172-3.58 1.119-6.765 1.327-4.474 3.33-7.419 8.798-12.941 8.996-9.084 11.753-15.78 12.332-29.937.226-5.537-.125-14.45-.78-19.81-.656-5.359-.891-10.045-.522-10.413 1.521-1.521 2.942 1.999 3.584 8.885.376 4.026 1.046 7.908 1.489 8.624 1.16 1.878 13.463-4.567 18.68-9.785 11.998-11.999 10.276-27.894-3.757-34.688-4.432-2.145-6.305-2.4-13.64-1.856-4.674.347-12.628 1.889-17.669 3.426-8.702 2.654-9.38 2.708-13.331 1.043-2.291-.963-8.552-2.007-13.916-2.319-5.362-.312-10.039-1.035-10.391-1.605-.354-.571.463-2.213 1.813-3.65 1.351-1.439 2.095-3.194 1.655-3.906-1.173-1.898-6.89-.515-16.883 4.086-21.684 9.983-22.852 10.324-31.116 9.104-14.662-2.164-27.617.686-33.482 7.366-5.844 6.657-5.57 15.109.818 25.182 3.165 4.99 10.5 10.993 15.244 12.477 2.182.682 2.387.212 3.058-7 .807-8.69 2.269-13.424 4.147-13.424.902 0 .99 1.511.305 5.277-.527 2.902-.954 10.777-.949 17.498.009 9.819.512 13.673 2.552 19.606 3.807 11.064 9.84 20.152 17.409 26.227 7.353 5.9 11.722 11.598 11.628 15.158-.055 2.09-.318 1.986-2.5-.992-1.341-1.83-4.311-5.263-6.601-7.627-4.141-4.278-4.197-4.296-10.534-3.505-10.625 1.328-14.352 3.364-16.512 9.02-1.797 4.706-1.787 5.017.224 7.254 1.867 2.075 2.939 2.267 9.605 1.714 7.442-.618 7.517-.595 9.205 2.669 2.476 4.789 9.776 9.602 16.763 11.053 6.72 1.395 7.789 4.074 1.413 3.544-6.882-.571-12.936-3.571-17.751-8.796-4.655-5.05-4.781-5.105-12.138-5.218-4.361-.067-8.163-.72-9.198-1.58-3.006-2.496-3.377-7.402-.97-12.844 2.397-5.422 5.852-7.818 12.988-9.012 7.593-1.271 7.593-1.271 3.436-6.716-5.19-6.797-10.486-19.854-12.057-29.726l-1.284-8.075-5.874-2.592c-15.112-6.669-23.769-25.512-17.604-38.319 4.507-9.362 19.232-14.215 36.601-12.062l8.963 1.111 11.665-4.984a9264.64 9264.64 0 0 0 17.775-7.616zm277.728.514c4.158-1.357 14.038-.121 18.911 2.365 5.357 2.734 9.885 8.544 10.734 13.775.677 4.171-1.374 5.834-2.526 2.048-3.512-11.544-14.206-17.55-26.148-14.685-6.963 1.67-12.585 6.976-14.375 13.563-2.257 8.31-2.094 8.003-3.519 6.578-.997-.997-.973-2.536.101-6.554 2.334-8.723 7.611-14.086 16.822-17.09zm-71.585 1.792c9.253-3.296 18.519-1.295 25.617 5.534 4.733 4.551 7.945 12.313 6.574 15.886-.903 2.354-2.161.682-3.786-5.035-1.737-6.102-7.702-12.046-13.72-13.665-11.721-3.157-24.196 3.285-26.303 13.58-.929 4.541-2.917 3.904-2.753-.881.219-6.38 5.798-12.365 14.371-15.419zm81.59 7.151c0-2.866 5.001.505 6.648 4.481 1.8 4.345.082 8.868-4.368 11.495-9.415 5.563-21.638-2.266-17.843-11.428 1.28-3.095 1.524-3.202 3.715-1.667 4.243 2.973 11.848 1.124 11.848-2.881zm-82.128 3.007c2.822-3.589 2.937-3.591 6.126-.15 2.899 3.127 6.76 3.571 9.967 1.146 3.025-2.288 3.452-2.138 4.781 1.672 2.106 6.043-1.932 11.757-9.134 12.926-10.285 1.668-17.637-8.097-11.74-15.594zm-193.162 1.738c2.899-2.899 20.96-.26 24.098 3.522 1.82 2.192-4.384 2.985-13.95 1.784-11.205-1.407-13.071-2.383-10.148-5.306zm51.992.805c0-1.382.553-1.856 1.666-1.429.916.352 1.666 1.028 1.666 1.502s1.126 1.18 2.5 1.567c2.334.656 2.371.802.555 2.196-1.068.821-1.944 2.312-1.944 3.314 0 2.282-2.073 2.392-2.93.156-1.109-2.888-3.864-2.011-3.111.989.87 3.466-1.261 4.75-2.876 1.733-.702-1.313-1.93-2.079-2.798-1.746-2.085.8-3.215-1.272-1.693-3.106.675-.812.915-2.291.532-3.284-.879-2.293 2.073-2.449 3.934-.207 1.702 2.051 4.499 1.003 4.499-1.685zm115.858-112.959c5.179-5.658 15.232-1.236 15.232 6.699 0 3.79-2.873 7.496-6.912 8.92-3.169 1.117-8.593-1.473-10.399-4.962-1.925-3.724-1.292-6.974 2.079-10.657zm10.154 2.579c-4.285-4.284-12.213.708-9.417 5.931 2.049 3.83 5.345 4.972 8.459 2.931 3.121-2.044 3.574-6.245.958-8.862zm245.465-45.585c2.209-3.373 4.492-3.542 9.185-.68 12.615 7.692 24.029 43.567 16.321 51.294-4.958 4.971-12.926-.861-19.784-14.478-7.215-14.329-9.706-30.057-5.722-36.136zm10.093 4.587c-6.457-6.649-8.66-5.395-8.516 4.847.213 15.017 14.307 42.04 20.655 39.604 7.05-2.706-1.303-33.292-12.139-44.451zm-483.537 2.539c9.617-2.605 22.797-2.314 31.346.693 7.244 2.546 16.642 11.635 18.293 17.689 1.804 6.618 1.485 13.176-.953 19.596l-2.179 5.73 6.067 5.557c5.827 5.337 7.419 8.7 4.866 10.278-.66.409-5.59-.111-10.956-1.153l-9.756-1.896-5.553 3.99c-20.874 14.997-49.947 16.967-64.652 4.38-6.902-5.909-9.468-11.581-9.467-20.929.001-6.288.61-9.031 3.179-14.328 6.362-13.109 22.089-24.82 39.765-29.607zm25.594 2.7c-18.248-4.294-38.314 2.029-53.157 16.752-9.649 9.57-13.251 17.516-12.292 27.104 2.523 25.188 39.29 31.399 68.297 11.539l7.37-5.046 8.915 1.713c4.902.941 9.077 1.561 9.276 1.376.199-.185-1.906-2.428-4.679-4.984-2.773-2.555-5.318-5.519-5.657-6.586-.338-1.065.447-4.341 1.746-7.277 6.611-14.947-2.278-30.462-19.819-34.591zm-6.392 15.822c3.49-.765 8.887-.242 8.887.862 0 .551-4.102 1.821-9.116 2.821-9.745 1.945-11.764 2.933-9.214 4.509 2.656 1.642.273 2.677-6.587 2.858-7.881.209-15.076 3.352-15.076 6.586 0 1.804-1.15 2.453-6.111 3.448-3.612.725-6.56.819-7.212.231-1.401-1.265 1.311-3.084 4.634-3.107 2.494-.017 5.911-2.674 5.911-4.596 0-1.432 6.291-4.014 13.594-5.578 3.216-.69 6.451-2.116 7.188-3.168 1.171-1.67 4.975-3.083 13.102-4.866zM191.94 469.7c12.459-5.66 14.983-6.356 14.983-4.128 0 1.513-39.535 18.972-42.962 18.972-3.03 0-1.327-2.46 2.834-4.094 3.324-1.305 4.185-2.171 3.762-3.785-.71-2.715 2.406-3.945 5.626-2.221 2.101 1.124 4.292.464 15.757-4.744zm313.269-77.479c1.222-.539 4.947-.81 8.279-.602 5.499.343 6.433.802 10.136 4.974l4.078 4.597 3.527-1.759c6.25-3.118 14.529 1.178 14.529 7.537 0 2.974.26 3.14 4.937 3.14 3.62 0 5.771.717 8.055 2.681 2.734 2.352 3.117 3.456 3.117 8.984 0 5.559-.375 6.626-3.179 9.038-2.644 2.274-4.142 2.679-8.888 2.403-5.471-.318-5.8-.172-7.93 3.495-3.144 5.414-8.642 8.316-15.757 8.316-6.868 0-10.858-2.418-14.238-8.628-1.529-2.809-2.742-3.865-3.888-3.386-.917.383-4.019.948-6.893 1.254-4.706.502-5.562.221-8.609-2.826-2.735-2.735-3.384-4.312-3.384-8.223 0-5.313 2.276-9.455 5.939-10.811 2.026-.75 2.371-1.769 2.381-7.052.01-5.04.523-6.725 2.789-9.165 1.528-1.643 3.777-3.428 4.999-3.967zm14.164 4.534c-4.063-3.195-11.484-2.965-15.49.48-2.6 2.236-3.089 3.482-2.942 7.499.095 2.651.346 5.784.555 6.964.259 1.465-.404 2.345-2.095 2.777-4.397 1.123-6.968 4.222-6.968 8.398 0 7.742 7.517 10.746 15.125 6.044 4.152-2.566 5.981-2.099 5.989 1.532.008 4.65 4.011 9.456 8.997 10.798 3.826 1.03 5.511.93 9.404-.557 5.002-1.91 7.798-5.081 8.431-9.554.282-1.997.959-2.597 2.603-2.31 9.138 1.592 11.495 1.449 13.782-.839 3.121-3.121 3.101-9.327-.04-12.468-2.065-2.065-3.189-2.278-8.863-1.686l-6.499.68.667-4.866c.601-4.38.378-5.055-2.237-6.768-3.881-2.543-7.978-1.399-10.169 2.837-2.068 4.003-3.363 3.461-5.703-2.39-.962-2.403-3.009-5.36-4.547-6.571zm327.669 8.352c7.906-2.215 19.95-1.576 26.704 1.418 7.669 3.401 15.812 12.105 20.442 21.855 3.924 8.266 3.925 8.266 8.231 8.095 5.647-.226 9.948 3.561 9.948 8.757 0 1.996-.501 3.939-1.114 4.318-.744.46-.744 1.379 0 2.77 3.227 6.03-1.404 12.236-9.112 12.21-2.624-.01-5.48-.467-6.346-1.015-1.019-.645-2.48-.404-4.139.681-3.918 2.569-10.31 2.363-12.549-.403-1.031-1.271-3.47-2.663-5.424-3.092-1.953-.429-4.046-1.705-4.651-2.838-2.821-5.27.052-12.203 5.057-12.203 1.966 0 2.636-.825 3.227-3.975.609-3.249.227-4.653-2.096-7.699-4.996-6.551-9.279-8.861-16.249-8.766-4.229.056-7.606.868-10.587 2.544-10.706 6.017-14.032 20.92-5.139 23.032 4.39 1.042 6.91 3.659 6.91 7.175 0 3.934-4.926 8.065-8.744 7.335-1.906-.364-3.388.306-5.114 2.312-1.919 2.232-3.74 2.933-8.679 3.343-5.78.479-6.501.269-9.553-2.784-2.198-2.197-3.794-2.992-4.771-2.373-2.581 1.638-7.19 1.033-10.204-1.339-2.194-1.725-2.927-3.304-2.927-6.3 0-3.952 2.51-8.061 4.923-8.061.685 0 2.232-2.126 3.438-4.722 1.394-3.002 3.465-5.329 5.682-6.388 2.703-1.292 3.887-2.933 5.269-7.3 3.142-9.927 10.643-19.152 19.234-23.655 1.343-.704 5.093-2.023 8.333-2.932zm44.212 34.164c-1.767-2.057-7.16-1.683-9.264.644-1.011 1.117-1.84 3.586-1.84 5.487 0 3.192-.319 3.483-4.166 3.802-3.379.278-4.234.827-4.528 2.905-.498 3.511 1.815 5.949 5.266 5.549 2.091-.242 3.167.338 3.955 2.133.595 1.357 1.845 2.637 2.777 2.844 2.561.573 7.546-1.364 8.252-3.205.547-1.421 1.044-1.411 3.922.078 8.466 4.377 17.443-.963 11.167-6.643l-2.239-2.026 2.239-2.383c3.578-3.81 2.723-6.846-2.451-8.688-1.196-.426-3.229.424-5.414 2.263-3.412 2.871-3.537 2.891-4.992.787-.82-1.187-2.029-2.782-2.684-3.547zm-67.483 5.448c-2.032-2.401-6.494-3.795-8.911-2.784-1.841.772-4.699 6.336-4.699 9.151 0 1.577-.867 2.303-3.054 2.555-2.545.292-3.114.953-3.404 3.954-.288 2.993.156 3.832 2.621 4.955 2.554 1.164 3.564 1.008 7.265-1.122l4.298-2.473.734 3.073c1.146 4.795 2.551 5.851 7.784 5.851 4.815 0 9.309-2.741 9.309-5.678 0-.814 1.351-.981 3.972-.49 4.462.838 7.137-.662 7.137-4.002 0-2.411-2.029-3.445-7.069-3.606-2.733-.087-3.511-.619-3.605-2.46-.243-4.801-3.305-6.441-5.99-3.206-1.737 2.094-4.445 2.169-4.445.123 0-.848-.873-2.577-1.943-3.841zm48.72-34.92c-5.763-2.549-17.411-3.472-23.742-1.881-10.575 2.658-19.362 9.83-23.663 19.315-4.076 8.983-4.391 11.374-1.69 12.819 1.948 1.044 2.322.925 2.331-.742.015-3.133 5.387-13.892 8.667-17.362 7.8-8.255 23.783-11.948 34.308-7.928 6.178 2.359 13.847 9.121 17.286 15.241 1.359 2.418 3.825 5.096 5.481 5.952l3.009 1.556-1.681-4.022c-4.356-10.427-12.302-19.407-20.306-22.948zm-4.167 7.391c-2.01-.839-6.295-1.493-9.524-1.449-15.633.205-26.131 8.794-29.594 24.212-.909 4.039-.82 4.661.588 4.12.912-.349 2.244-.635 2.962-.635.717 0 1.966-2.126 2.774-4.722 3.248-10.443 11.913-16.673 23.408-16.829 7.593-.104 15.293 3.901 18.985 9.875 2.573 4.165 3.034 4.409 5.442 2.883 1.282-.811 1.13-1.659-.875-4.904-3.047-4.931-9.4-10.56-14.166-12.551zm-171.663-8.786c.93-2.039 2.113-2.74 4.631-2.74 9.104 0 26.6 25.893 28.535 42.23.518 4.37.229 5.66-1.694 7.583-1.979 1.98-2.811 2.146-5.7 1.138-11.682-4.072-30.144-38.612-25.772-48.211zm10.066 3.442c-6.703-5.641-8.951-2.854-6.067 7.52 3.395 12.213 13.085 27.632 20.512 32.637 4.769 3.214 6.094 2.323 5.287-3.557-1.492-10.883-11.722-29.86-19.732-36.6zM380.784 262.254c5.411-1.496 16.084-.359 19.334 2.06 5.61 4.176 5.92 11.911.618 15.385-2.566 1.681-3.521 1.688-11.926.092-5.025-.953-13.01-2.062-17.746-2.463-7.477-.632-8.61-1.008-8.61-2.848 0-3.405 9.609-9.813 18.33-12.226zm8.951 4.784c1.684-2.405 1.633-2.467-1.944-2.395-2.021.041-5.754.724-8.295 1.52-4.842 1.514-12.009 6.031-11.066 6.973.302.303 4.376.979 9.053 1.504 4.678.524 9.584 1.278 10.902 1.676 1.955.589 2.141.453 1.009-.735-1.888-1.982-1.745-5.564.341-8.543zm54.009-4.154c7.217-2.252 15.281-2.027 19.497.543 5.717 3.486 6.445 10.964 1.419 14.586-2.502 1.804-4.56 1.935-20.83 1.334-9.928-.367-18.053-1.113-18.053-1.658 0-3.986 10.181-12.374 17.967-14.805zm9.155 4.454c1.785-2.725 1.765-2.768-1.267-2.682-5.109.146-12.017 3.122-16.563 7.138l-4.293 3.792 21.706.092-.699-2.785c-.439-1.745-.022-3.82 1.116-5.555zm113.622-5.385c1.263-1.264 3.101-.118 3.45 2.152.18 1.171 1.075 4.197 1.988 6.725 1.462 4.047 2.459 4.943 8.349 7.497 6.518 2.826 7.789 5.104 2.88 5.153-1.339.013-4.507.965-7.039 2.115-3.835 1.741-4.948 3.014-6.665 7.617-2.442 6.546-3.942 7.391-5.22 2.944-2.399-8.352-4.465-10.975-10.438-13.256-6.865-2.621-7.456-4.608-1.68-5.653 2.292-.415 5.474-1.415 7.071-2.224 2.828-1.429 6.538-7.51 6.538-10.715 0-.875.344-1.935.766-2.355zm3.108 12.587c-.94-1.818-1.889-3.306-2.108-3.306-.219 0-1.245 1.29-2.276 2.867-1.034 1.576-3.375 3.496-5.206 4.265l-3.327 1.399 2.909 1.905c1.598 1.049 3.815 3.397 4.922 5.219l2.014 3.313 1.832-2.795c1.007-1.536 3.421-3.616 5.364-4.621l3.531-1.826-2.973-1.559c-1.636-.856-3.742-3.044-4.682-4.861zm-163.849 6.612c0-1.621 2.918-1.203 4.444.637 1.784 2.15 3.849 2.107 7.295-.15 1.525-1 3.069-1.521 3.431-1.16 1.248 1.249-.679 4.124-3.476 5.187-2.241.852-2.806 1.828-2.806 4.838 0 3.548.314 3.862 5.277 5.278 10.805 3.083 35.828.992 35.828-2.994 0-2.342 2.603-1.868 4.253.774.8 1.282 1.297 2.427 1.1 2.546-.194.118-3.854 1.149-8.131 2.29-8.713 2.323-41.675 3.497-45.203 1.61-1.083-.58-6.854-1.188-12.822-1.35-9.251-.252-11.837-.762-17.518-3.453-3.667-1.735-8.04-3.082-9.721-2.992-3.812.207-3.861-.948-.189-4.397l2.867-2.694 2.21 3.035c4.175 5.732 22.465 9.171 34.828 6.549 2.782-.59 3.39-1.312 3.685-4.37.275-2.858-.277-4.161-2.5-5.91-1.568-1.233-2.852-2.706-2.852-3.274zm8.587 16.306c.369-.369-.287-.631-1.458-.583-1.294.053-1.556.316-.671.671.801.321 1.761.281 2.129-.088zm-171.874 48.367c-.031-2.333 6.993-.651 16.27 3.894 9.776 4.788 22.439 15.047 34.435 27.895l9.064 9.709 1.39-3.05c.764-1.679 1.963-3.051 2.663-3.051.701 0 2.949 3.464 4.998 7.699l3.724 7.698 8.172.766c4.494.422 8.427 1.182 8.742 1.69.533.863-3.153 4.647-9.394 9.644l-2.681 2.147 1.793 7.119c.991 3.936 1.369 7.543.844 8.068-.523.524-4.239-.891-8.306-3.165l-7.358-4.115-6.992 4.555c-8.866 5.777-10.121 5.83-9.201.39 2.267-13.407 2.592-11.857-3.348-15.901-2.969-2.02-5.739-4.182-6.157-4.804-1.094-1.63-.001-2.904 2.492-2.904 3.556 0 2.48-1.511-3.676-5.161-8.634-5.118-20.317-10.02-40.78-17.11-10.057-3.484-18.465-6.877-18.685-7.539-.262-.785 2.817-1.318 8.841-1.529l9.241-.324-7.475-5c-7.343-4.91-9.421-7.798-5.578-7.754 1.069.011 5.943.744 10.832 1.627 14.563 2.631 14.661 2.579 9.463-5.094-1.822-2.688-3.322-5.569-3.333-6.4zM310.2 394.33c-1.549-2.875-3.154-5.563-3.57-5.977-.413-.414-1.922 1.918-3.352 5.182-2.58 5.886-2.66 5.95-9.762 7.709l-7.161 1.774 9.678 6.43-.745 6.596-.747 6.595 3.684-2.437c7.851-5.195 8.444-5.277 14.564-2.013 3.094 1.65 5.745 2.881 5.892 2.735.145-.146-.297-2.717-.982-5.713l-1.247-5.448 4.742-4.208 4.741-4.207-3.682-.598c-2.025-.329-4.931-.732-6.458-.896-2.03-.219-3.537-1.707-5.595-5.524zm-53.841-42.258c-1.833-.922-4.438-2.016-5.788-2.433-2.444-.753-2.442-.734.387 4.328 1.563 2.798 2.559 5.824 2.213 6.727-.716 1.868-6.192 2.094-14.031.578-2.75-.531-5.132-.835-5.294-.675-.162.16 2.495 2.143 5.905 4.407 3.41 2.264 6.003 4.715 5.763 5.446-.239.731-2.647 1.579-5.35 1.884l-4.912.556 12.22 4.299c13.699 4.821 35.713 14.91 40.155 18.404 1.603 1.262 4.098 2.294 5.543 2.294 2.95 0 7.071-3.566 7.071-6.117 0-.921-5.519-7.371-12.265-14.336-11.195-11.557-23.005-21.03-31.617-25.362zm509.451 10.941c4.502-1.894 8.334-1.066 11.049 2.384 4.87 6.191.701 14.714-7.197 14.714-9.744 0-12.753-13.355-3.852-17.098zm8.524 4.69c-1.981-2.459-4.337-3.012-7.245-1.701-3.443 1.554-4.38 5.836-1.88 8.599 5.06 5.591 13.84-1.047 9.125-6.898zm-91.966 16.747c5.861-1.866 13.404.925 20.808 7.698 2.566 2.347 7.901 5.86 11.856 7.807 12.599 6.203 20.006 16.33 22.456 30.706.548 3.214 2.083 5.73 5.546 9.087 7.079 6.864 9.63 12.616 10.255 23.132.508 8.557.686 9.041 4.772 13.011 2.922 2.838 4.801 6.038 6.033 10.276.982 3.384 2.275 6.154 2.873 6.154.597 0 3.523 2.439 6.502 5.418 5.449 5.449 8.917 13.247 8.922 20.059 0 1.886 1.493 4.258 4.401 6.993 6.055 5.699 8.177 10.245 8.172 17.525-.005 8.108-5.384 19.102-7.596 15.522-.401-.647.025-2.325.944-3.728.92-1.403 2.231-4.632 2.916-7.173 1.915-7.111-.111-12.942-6.722-19.345-4.318-4.183-5.451-6.031-5.457-8.888-.015-8.69-4.131-16.251-11.993-22.033-3.4-2.5-4.699-4.424-5.715-8.454-.934-3.712-2.779-6.678-6.392-10.278l-5.079-5.06.208-7.439c.272-9.767-2.809-17.077-9.877-23.433-4.647-4.179-5.315-5.372-6.033-10.799-1.719-12.99-8.413-22.043-20.926-28.304-4.304-2.153-10.034-5.951-12.733-8.439-6.735-6.208-11.46-8.067-16.829-6.621-2.31.622-5.284 2.287-6.612 3.7-2.452 2.61-4.895 12.049-4.114 15.898a933.4 933.4 0 0 0 1.072 5.166c.354 1.681 1.382 3.055 2.285 3.055 4.947 0 14.997 13.592 16.679 22.558.424 2.258 1.226 4.106 1.783 4.106.557 0 3.326 2.125 6.153 4.721 5.639 5.179 9.189 11.728 9.228 17.025.021 3.094.511 3.563 5.229 4.999 6.263 1.907 8.461 5.274 2.443 3.743-6.31-1.605-14.668-1.064-18.495 1.197-1.94 1.145-3.854 1.755-4.255 1.357-1.664-1.666.851-4.042 6.135-5.797 5.193-1.725 5.633-2.146 5.629-5.392-.007-6.009-7.248-16.003-13.457-18.575-2.156-.893-3.203-2.124-3.203-3.771 0-8.066-8.041-20.474-14.87-22.943-2.288-.828-4.464-2.778-5.737-5.142-1.128-2.096-4.893-6.44-8.365-9.655-9.632-8.918-17.955-10.326-24.747-4.185-7.142 6.458-8.733 21.253-3.447 32.058 2.921 5.973 2.961 6.294 1.208 9.971-3.507 7.354-1.78 14.974 5.021 22.148 2.841 2.998 3.105 3.811 2.097 6.461-1.64 4.314-1.426 9.132.577 13.004 1.671 3.233 1.617 3.462-1.651 7.186-4.105 4.675-5.253 8.714-3.67 12.911 1.031 2.725.817 3.604-1.562 6.431-4.542 5.397-5.397 10.634-3.091 18.958.321 1.162-.789 2.178-3.427 3.131-2.309.835-4.579 2.718-5.559 4.614-1.852 3.583-2.185 11.773-.642 15.83.558 1.467.638 3.272.18 4.014-1.617 2.619-3.87-2.174-4.317-9.19-.544-8.55 1.681-14.418 6.481-17.089 3.159-1.756 3.395-2.278 2.8-6.154-.822-5.354.939-12.024 3.874-14.68 1.841-1.667 2.137-2.895 1.589-6.565-.754-5.058.739-9.987 4.121-13.598 2.028-2.164 2.122-2.842.902-6.537-.815-2.471-1.088-6.445-.679-9.92.589-5.015.362-6.083-1.688-7.906-5.737-5.104-8.008-15.785-4.927-23.162 1.419-3.397 1.362-4.186-.6-8.15-4.814-9.73-4.553-23.047.625-31.883 7.028-11.991 21.059-11.854 33.866.329l4.456 4.24.739-5.071c1.367-9.38 5.184-14.471 12.631-16.84zM100.273 933.834c0-1.996.987-1.964 6.157.196 2.651 1.108 6.913 1.679 11.523 1.543 9.549-.28 9.927-.191 7.381 1.734-4.525 3.423-25.061.577-25.061-3.473zm722.573-810.396c5.656-2.287 13.442.437 16.251 5.685 1.906 3.561.742 14.027-2.256 20.281-5.807 12.118-12.606 15.73-23.596 12.535-12.068-3.509-19.77-10.856-20.616-19.672-.482-5.015-.236-5.691 3.396-9.323 4.258-4.258 8.446-5.009 15.066-2.702 3.224 1.123 3.706.95 6.464-2.326 1.638-1.949 4.021-3.963 5.291-4.478zm9.564 4.137c-1.51-1.035-3.923-1.88-5.361-1.88-2.607 0-7.638 4.193-9.89 8.242-1.133 2.037-1.36 2.049-5.091.278-5.636-2.674-10.378-2.371-13.62.873-5.958 5.957-1.697 15.524 9.392 21.079 11.217 5.619 17.57 4.645 23.104-3.544 4.558-6.745 5.884-10.403 5.863-16.168-.02-5.236-.504-6.217-4.397-8.88zm-108.454 34.959c1.78-2.881 8.071 3.45 10.313 10.378 1.402 4.333 5.903 5.4 5.903 1.401 0-1.453.735-3.613 1.631-4.8 1.721-2.274 1.924-1.949 2.13 3.399.103 2.7.656 3.386 2.906 3.612 12.731 1.28 25.802 6.829 34.815 14.781 6.966 6.149 15.343 18.136 18.419 26.361 2.07 5.535 3.011 6.714 6.315 7.908 5.898 2.133 11.551 8.324 11.545 12.645-.004 4.374-3.472 10.339-6.584 11.327-2.757.875-2.818 1.638-.56 7.003 2.615 6.212 6.021 21.279 6.03 26.664.016 9.189-5.628 16.907-12.362 16.907-2.951 0-3.183.311-3.183 4.266 0 2.347 1 8.176 2.222 12.954 2.59 10.129 2.657 10.885.917 10.305-2.389-.797-5.556-12.4-6.155-22.554-.432-7.306.022-13.64 1.675-23.331 1.248-7.317 2.567-16.608 2.932-20.648l.661-7.343-9.734-.595c-5.355-.327-10.607-.948-11.67-1.38-1.414-.575-.882.958 1.985 5.716 11.056 18.357 11.13 40.586.172 51.981-7.707 8.016-17.18 9.169-28.438 3.464-8.616-4.367-17.788-15.922-20.182-25.427-1.181-4.692-1.544-5.046-6.424-6.263-4.068-1.014-6.66-2.81-12.154-8.423-8.076-8.249-8.667-7.949-8.414 4.277.105 5.003-.25 7.416-1.05 7.149-3.32-1.106-3.455-14.549-.21-20.826 1.412-2.731 2.307-3.07 9.906-3.759 10.914-.988 18.452-3.326 20.809-6.451 3.102-4.114 3.539-1.578 1.495 8.718-1.866 9.408-1.962 26.024-.16 27.826.419.418 2.876-1.279 5.46-3.774 10.638-10.27 25.765-13.43 41.058-8.576 2.09.663 2.2.393 1.463-3.571-1.487-8.008-8.412-19.404-16.52-27.191-6.728-6.461-7.72-7.941-8.199-12.221-.654-5.851 2.121-10.118 8.243-12.675 4.471-1.869 16.813-2.169 22.469-.547 2.094.6 3.968.931 4.163.735.198-.195-.214-1.994-.912-3.996-1.218-3.496-1.46-3.619-6.092-3.097-8.694.98-23.754-3.184-23.754-6.568 0-1.948 1.568-1.893 5.609.197 4.612 2.385 13.177 3.832 17.42 2.945l3.588-.752-5.674-7.569c-7.012-9.355-18.46-17.681-28.641-20.83-9.18-2.838-25.769-3.038-35.864-.432-10.812 2.792-23.347 9.875-31.615 17.864-6.469 6.25-7.24 7.435-6.674 10.27 2.183 10.911 4.27 43.147 3.64 56.247-.38 7.943-.93 20.651-1.219 28.238-.635 16.687-4.178 32.311-7.327 32.311-1.338 0-1.243-.723 1.541-11.666.935-3.666 2.002-11.137 2.375-16.602l.677-9.937-2.523 2.299c-3.878 3.534-6.973 4.798-11.742 4.798-5.695 0-9.766-3.245-13.128-10.467-6.21-13.337-1.352-32.788 16.529-66.191 11.843-22.122 28.177-35.43 49.978-40.718 5.456-1.323 7.499-2.314 7.499-3.634 0-2.135-2.923-6.576-5.975-9.073-1.195-.979-1.8-2.34-1.354-3.059zm76.393 64.144c-9.07-3.499-23.817-4.116-29.07-1.215-5.637 3.112-5.542 5.236.3 6.707 11.596 2.919 38.885 4.61 40.194 2.491.954-1.544-4.363-5.259-11.424-7.983zm-115.391 29.003c-.122-11.916-.882-26.664-1.689-32.775l-1.464-11.11-4.119 7.284c-16.16 28.574-22.913 52.369-18.118 63.845 4.093 9.795 12.862 12.556 19.331 6.086 5.628-5.627 6.305-9.36 6.059-33.33zm50.723 8.887c.531-2.749.884-5.025.784-5.055-.1-.031-2.681.541-5.736 1.271-3.055.73-8.177 1.755-11.385 2.278l-5.831.951 4.657 5.428c4.205 4.901 11.434 9.483 15.059 9.546.891.015 1.406-1.673 1.438-4.697.026-2.597.482-6.972 1.014-9.722zm48.096 15.716c-7.234-1.604-13.626-2.222-16.941-1.638-9.073 1.598-18.009 6.672-22.26 12.643l-2.409 3.384 2.976 4.295c1.638 2.362 3.936 5.163 5.108 6.224 2.038 1.845 2.252 1.801 4.861-1.016 5.505-5.94 14.63-2.285 13.721 5.496-.335 2.868-.025 3.775 1.28 3.763 3.633-.036 4.554-1.547 3.173-5.206-1.081-2.866-.984-3.921.584-6.313 2.244-3.426 6.581-4.751 10.18-3.111 2.352 1.072 2.726.851 3.807-2.247.659-1.89 1.198-6.06 1.198-9.269v-5.835l-5.278-1.17zm-.657 22.67c-.85-2.214-3.425-2.204-5.651.022-2.138 2.138-2.23 4.247-.261 5.882 1.932 1.602 6.891-3.352 5.912-5.904zm-18.729 2.943c-1.793-1.793-4.769-1.684-6.36.233-1.031 1.243-.778 1.932 1.222 3.333 1.386.971 3.411 1.767 4.497 1.767 2.268 0 2.667-3.307.641-5.333zm48.427-23.739c-.085-6.523-.92-11.719-2.828-17.59-2.882-8.871-4.235-8.755-4.31.369-.021 2.547-.774 8.63-1.675 13.519-3.401 18.487-3.401 18.331-.166 18.331 1.575 0 4.268-1.209 5.982-2.686 2.974-2.563 3.112-3.112 2.997-11.943zm-38.098-45.815c-10.2-2.838-11.411-1.502-4.552 5.022 7.543 7.176 24.502 10.857 34.551 7.499 4.576-1.53 9.886-6.245 9.886-8.778 0-2.782-16.582-1.655-18.64 1.267-3.283 4.663-15.874 3.373-18.264-1.871-.662-1.455-2.004-2.868-2.981-3.139zm-46.556-47.561c6.961-2.153 25.96.985 32.957 5.443 5.062 3.226.722 3.654-6.534.646-6.017-2.496-8.966-3.002-18.026-3.098-10.412-.11-13.802-1.317-8.397-2.991zm-15.304 10.706c4.284-1.864 6.018-1.91 10.76-.282 4.799 1.647 8.696 4.412 8.741 6.202.05 2.02-1.993 1.703-5.18-.804-6.15-4.838-15.519-3.393-18.355 2.831-1.226 2.694-3.136 3.121-3.886.87-.611-1.833 4.214-7.203 7.92-8.817zm39.696-151.67c.714-2.385 1.892-4.336 2.613-4.336.724 0 1.927 2.739 2.676 6.088 1.54 6.88 4.444 9.864 11.428 11.746 5.613 1.51 4.94 3.36-1.856 5.095-6.399 1.633-9.313 4.279-11.637 10.568-.947 2.563-2.22 4.57-2.832 4.462-.611-.11-1.704-2.525-2.429-5.368-1.572-6.163-4.261-9.107-10.435-11.428-2.52-.947-4.568-2.221-4.55-2.832.018-.611 2.611-1.861 5.766-2.777 6.393-1.858 9.329-4.783 11.256-11.218zm3.169 7.214c0-2.327-1.42-1.817-3.717 1.333-1.127 1.549-3.251 3.363-4.721 4.033-3.437 1.566-3.357 2.127.63 4.396 1.807 1.028 3.607 3.153 4.001 4.722.898 3.579 1.991 3.618 3.581.127.683-1.497 2.764-3.512 4.626-4.474l3.385-1.751L759.617 60c-2.138-1.88-3.892-4.116-3.892-4.97zM9.883 232.258c1.509-3.006 3.004-5.463 3.32-5.463 1.184 0 10.277 5.716 11.569 7.271 2.08 2.507-2.037 2.087-6.555-.67-2.054-1.252-3.866-2.125-4.025-1.939-.16.185-1.114 1.962-2.126 3.948-1.78 3.503-2.938 4.304-4.279 2.963-.356-.357.587-3.106 2.096-6.11zm34.546.925c3.417-3.791 5.093-1.193 1.928 2.99-2.172 2.872-2.056 3.857.376 3.222 1.104-.289 2.56-1.992 3.236-3.786 1.627-4.311 4.063-4.36 3.12-.062-.614 2.793-.328 3.292 2.248 3.94 5.246 1.316 8.138 4.046 11.573 10.922 3.88 7.76 4.326 13.939 1.422 19.635-6.344 12.444-21.984 11.351-29.993-2.094-5.279-8.86-4.989-17.267.827-23.935 1.065-1.222 2.292-3.722 2.725-5.555.433-1.833 1.576-4.208 2.538-5.277zm14.173 11.578c-3.816-3.003-9.897-3.137-14.52-.318-10.04 6.124-6.804 23.301 5.545 29.434 3.62 1.798 4.813 1.906 8.593.774 5.21-1.562 8.72-6.52 8.71-12.305-.009-5.121-4.477-14.556-8.328-17.585zm-8.295 15.338c3.261-3.262 11.084-2.732 11.084.75 0 1.219-.905 1.429-3.81.883-3.125-.585-4.075-.294-5.268 1.617-1.727 2.766-2.672 2.936-3.553.638-.358-.931.337-2.678 1.547-3.888zm35.123 1.907c1.423-1.423 2.623.562 2.623 4.339 0 7.813-6.358 15.773-14.245 17.83-1.42.37-3.077.178-3.683-.428-.725-.725.719-2 4.246-3.75 6.154-3.052 10.35-8.624 10.35-13.741 0-1.946.32-3.858.71-4.25zm-56.647 13.78c1.096-1.281 2.383-2.33 2.858-2.33 1.438 0 .97 3.595-.707 5.468-2.41 2.685-1.012 7.864 2.122 7.864 2.745 0 4.547-1.667 5.163-4.78.587-2.954 2.563-2.843 2.989.167.577 4.078-3.773 7.946-8.933 7.946-2.36 0-5.502.795-6.984 1.764-3.23 2.118-8.334 1.31-11.109-1.757-2.877-3.18-.972-4.934 2.443-2.249 3.512 2.762 4.945 2.803 8.122.229 3.235-2.619 2.238-5.952-2.41-8.069-1.913-.871-3.378-2.083-3.255-2.694.235-1.172 1.337-1.165 5.287.036 1.71.52 3.005.052 4.415-1.595zm16.33 51.648c7.367-6.694 10.723-8.689 10.723-6.374 0 1.208-11.822 12.482-15.83 15.096-2.974 1.94-3.374 1.913-15.29-1.043-6.73-1.67-12.513-3.481-12.848-4.024-1.396-2.26 3.213-2.033 13.925.682l11.373 2.883 7.947-7.22zm892.385 296.261c1.461-2.306 3.755-3.415 3.755-1.815 0 .376-.845 3.063-1.879 5.971-1.863 5.243-1.854 5.331 1.059 11.218 1.615 3.263 2.731 6.137 2.481 6.387-1.158 1.158-4.057-1.217-5.706-4.674l-1.817-3.814-3.458 2.109c-10.282 6.27-24.724-3.545-21.263-14.452 1.223-3.853 3.984-2.916 3.184 1.081-1.215 6.075 4.272 12.161 10.956 12.15 4.422-.007 9.489-3.913 10.336-7.969.422-2.031 1.482-4.817 2.352-6.192zm15.545 9.198c4.822-4.821 21.538 1.274 21.538 7.852 0 3.305-1.524 4.144-7.364 4.056-9.25-.14-18.321-7.76-14.174-11.908zm13.483 3.827c-4.877-2.215-10.832-2.904-10.832-1.254 0 2.883 10.455 7.446 13.97 6.097 2.755-1.056 1.733-2.633-3.138-4.843zm3.055-35.118c6.386-2.94 14.294-.101 18.38 6.6 3.982 6.533 1.793 15.669-4.705 19.631-4.991 3.044-12.964 3.011-16.88-.069-9.402-7.396-7.719-21.133 3.205-26.162zm9.961 3.397c-4.914-2.053-5.934-1.995-10.168.587-4.386 2.675-5.904 5.405-5.904 10.622 0 6.003 4.887 10.55 11.302 10.518 5.085-.026 8.645-2.103 10.788-6.29 2.838-5.548-.044-12.941-6.018-15.437zm-7.172 7.85c.753-.909 2.276-1.652 3.383-1.652 2.76 0 3.956 4.234 1.804 6.386-3.185 3.185-8.064-1.267-5.187-4.734zm-7.392-326.604c.936-2.435 1.275-2.125 4.374 4.008 2.945 5.827 8.602 9.867 13.816 9.867 2.571 0 3.66.453 3.335 1.389-.771 2.217-8.936 1.486-13.263-1.188-4.535-2.803-9.404-11.098-8.262-14.076z" fill="#fff"/></svg>