<svg width="250" height="250" viewBox="1 0 1000 1000" fill="none" xmlns="http://www.w3.org/2000/svg"><path fill-rule="evenodd" clip-rule="evenodd" d="M.794 534.088c6.523.371 11.2 2.801 15.947 8.048 6.769 7.481 12.556 22.41 15.668 40.421 2.667 15.433.492 23.043-7.653 26.782-4.331 1.989-14.258 2.737-23.962 2.261v-3.259c4.654.33 9.26.23 13.575-.381 14.076-1.994 15.723-4.032 14.96-18.509-.847-16.102-7.3-35.856-14.311-43.809-2.352-2.669-6.151-5.704-8.44-6.742a19.894 19.894 0 0 0-5.784-1.606v-3.206zm0 123.264c6.259 2.636 14.27 7.987 18.019 12.217l1.969 2.222 2.804-4.894c5.463-9.539 18.132-19.234 28.547-21.848 6.117-1.535 17.663-.642 23.159 1.792 6.743 2.985 13.585 10.329 16.31 17.506 9.837 25.895.684 52.844-29.231 86.066-8.086 8.981-13.004 12.188-22.368 14.587-5.63 1.443-7.696 1.522-13.233.505-7.015-1.288-16.387-5.788-25.976-11.904v-4.092a171.808 171.808 0 0 0 14.38 8.367c7.2 3.737 8.106 3.947 17.003 3.938 8.19-.008 10.073-.365 14.657-2.772 13.033-6.843 35.734-37.446 42.21-56.906 2.465-7.403 2.698-9.373 2.309-19.553-.36-9.345-.89-12.308-3.043-16.98-3.6-7.806-7.26-11.802-13.55-14.794-17.307-8.232-39.423.681-49.077 19.78-1.761 3.484-3.504 6.334-3.872 6.334-.37 0-3.58-2.79-7.135-6.198-3.998-3.834-9.142-7.464-13.484-9.514a44.777 44.777 0 0 0-.398-.187v-3.672zm0 159.658c3.243.108 6.553.748 9.075 1.891 5.084 2.305 12.805 9.866 14.672 14.37l1.299 3.132 2.927-2.082c14.01-9.961 33.277-8.11 41.662 4.005 2.782 4.019 3.089 5.254 3.075 12.349-.03 14.207-6.855 24.13-24.498 35.614-24.572 15.996-35.023 16.914-47.65 4.189-.187-.189-.374-.38-.562-.573v-4.982c7.525 8.614 14.466 12.012 21.554 10.684 8.662-1.623 31.697-15.53 39.216-23.676 7.078-7.669 10.463-18.4 8.315-26.363-4.063-15.07-26.234-19.253-39.94-7.537-2.282 1.95-4.415 3.547-4.74 3.547-.326 0-1.734-2.25-3.13-4.999-3.698-7.291-7.172-10.97-13.181-13.959-3.137-1.561-5.645-2.386-8.094-2.495v-3.115zM50.014 1000c4.644-13.778 12.327-24.63 20.728-29.011 5.816-3.034 13.72-2.868 21.929.458l6.355 2.574.668-3.561c.368-1.959.561-6.209.429-9.443-.132-3.233.085-6.404.48-7.044 1.957-3.161 10.148 3.476 13.885 11.252l3.031 6.305 9.417-9.066c11.088-10.675 12.195-10.631 10.478.421-1.306 8.412-3.551 15.641-6.365 20.509-1.083 1.872-1.968 3.573-1.968 3.779 0 .207 1.616.908 3.59 1.559 3.8 1.253 8.45 6.114 11.075 11.268h-3.997c-.901-1.479-1.912-2.921-2.803-3.899-2.844-3.123-7.093-5.305-10.329-5.305-3.558 0-4.317-1.794-1.883-4.45 3.145-3.43 6.255-10.241 7.942-17.387.84-3.554 1.533-6.881 1.542-7.391.008-.511-2.651 1.606-5.91 4.703-3.26 3.099-7.197 6.462-8.751 7.474-3.104 2.021-5.934 1.56-5.934-.967 0-2.214-3.888-9.774-6.478-12.598-2.114-2.303-4.522-3.243-3.316-1.294.348.562.137 4.58-.469 8.931l-1.102 7.91 5.467 5.218c5.808 5.546 11.321 12.953 13.513 18.16.14.331.27.628.401.895h-4.083l-.198-.401c-4.924-9.951-13.969-19.335-22.805-23.662-7.267-3.559-16.69-4.532-21.747-2.247-7.684 3.474-14.67 13.723-18.95 26.31h-3.841zm167.913 0c-.017-1.092.009-1.827.087-2.13.614-2.389 1.949-3.095 11.527-6.089 5.958-1.864 10.832-3.668 10.832-4.011 0-.342-1.639-1.504-3.643-2.582-4.627-2.488-11.533-9.935-13.438-14.488-1.864-4.456-1.891-13.949-.051-18.346 2.164-5.173 7.619-10.789 13.433-13.831 7.063-3.694 18.792-3.833 27.694-.326 7.243 2.852 17.192 11.717 21.427 19.09l2.991 5.209.035-3.602c.132-13.626 9.236-29.187 19.906-34.026 9.632-4.366 25.489-1.516 33.964 6.108 7.801 7.016 10.573 19.439 6.348 28.447-2.867 6.111-11.467 13.948-20.653 18.822l-8.15 4.324 15.743-.146c8.66-.08 15.955.065 16.213.323.259.259-.372 4.908-1.4 10.333l-1.313 6.921h-3.552l.036-.2c.949-5.236 1.945-10.445 2.215-11.577.471-1.981-.063-2.062-14.242-2.175-9.382-.074-17.537-.727-22.459-1.799-4.251-.926-7.963-1.685-8.25-1.685-.286-.001-1.063 1.73-1.726 3.846-.922 2.941-.921 4.193.006 5.321 1.279 1.56 6.795 5.248 12.022 8.269h-11.121c-.576-1.975-1.081-3.305-1.482-3.802-.57-.707-1.792-1.212-2.714-1.121-7.599.746-8.459 1.041-7.973 2.734.148.514.331 1.254.544 2.189h-7.79c1.529-3.322 2.417-5.687 2.07-5.96-.491-.387-2.054-1.706-3.471-2.932l-2.576-2.23-4.122 2.522c-2.119 1.296-8.84 5.054-15.378 8.6h-7.478a292.856 292.856 0 0 0 6.174-3.287l11.75-6.432-12.489-.082c-10.834-.072-13.539.27-20.39 2.573-4.346 1.46-8.156 2.915-8.467 3.233-.309.316 3.66 2.229 7.827 3.995h-9.389c-3.015-1.189-5.205-1.991-5.487-1.993-.426-.005-.767.802-.76 1.793 0 .056.002.123.005.2h-2.885zm344.676 0c-3.349-6.882-3.505-15.111.219-22.401 2.545-4.983 9.555-11.154 13.703-12.063 2.207-.484 2.927-1.148 2.574-2.37-.271-.935-1.657-5.641-3.081-10.457-1.424-4.817-2.915-11.369-3.315-14.562-.866-6.927.136-7.643 8.495-6.06 13.126 2.486 23.549 11.063 28.848 23.737 1.928 4.611 3.394 6.938 3.88 6.155.429-.693 2.775-2.141 5.214-3.219 4.182-1.848 4.504-2.296 5.655-7.859.671-3.245 2.279-7.993 3.573-10.551 2.883-5.699 11.386-13.818 17.262-16.481 5.552-2.517 9.708-2.605 10.452-.221 1.08 3.462 2.628 16.256 2.647 21.896l.021 5.688 7.986-.011c9.096-.012 14.101 2.014 20.318 8.221 6.149 6.142 8.159 11.152 8.447 21.063l.255 8.747 5.455.781c7.005 1.003 15.513 5.169 20.674 9.967h-5.484c-2.235-1.67-4.96-3.339-6.886-4.164-2.594-1.11-7.311-2.283-10.48-2.607-5.598-.573-5.816-.499-7.602 2.565-1.195 2.053-1.606 2.781-.9 4.206h-9.407c.953-.441 1.907-1.049 3.057-1.881 5.697-4.121 8.069-9.338 8.01-17.614-.072-10.189-5.653-19.45-14.213-23.589-6.425-3.106-16.31-2.942-21.828.362-5.938 3.555-9.22 9.826-9.061 17.31.094 4.414-.237 5.917-1.302 5.917-2.675 0-3.22-9.674-.887-15.746 1.01-2.629-5.256-4.836-13.73-4.836-6.104 0-7.774.443-12.619 3.345-3.748 2.244-6.607 4.997-8.688 8.367-5.436 8.801-4.477 20.25.781 28.365h-4.515c-.725-1.21-1.18-1.251-3.598 0h-6.95c1.127-.741 2.258-1.688 3.393-2.839 3.695-3.747 3.736-3.886 3.524-11.639-.259-9.399-1.181-11.37-6.886-14.708-10.24-5.993-19.967-3.921-27.972 5.956-2.644 3.261-3.181 4.918-3.515 10.828-.284 5.012.43 9.003 2.293 12.402h-3.817zm195.652 0c-4.328-5.296-4.833-10.826-1.209-15.033 1.991-2.312 3.317-2.857 6.956-2.854 2.472.002 5.264.369 6.205.815 1.251.595 1.898.222 2.41-1.391.386-1.211 2.167-3.095 3.958-4.186 9.851-5.999 19.29 2.914 16.174 15.272-.688 2.728-1.553 5.201-2.559 7.377h-3.805c3.751-7.048 4.323-14.75 1.1-18.842-3.626-4.605-9.655-2.889-12.306 3.501-1.087 2.62-1.726 3.071-3.491 2.465-1.188-.409-4.226-.791-6.75-.851-3.925-.093-4.807.279-6.103 2.573-1.373 2.426-1.32 3.058.558 6.689.923 1.782 2.021 3.137 3.759 4.465h-4.897zm242.535-110.099c-7.385-7.613-14.674-18.461-18.847-28.084-2.868-6.611-3.201-8.443-3.213-17.667-.012-7.859.422-11.167 1.836-14.004 2.37-4.753 7.59-10.102 11.546-11.833 2.254-.987 5.434-1.411 8.678-1.303v3.115c-2.489-.111-4.921.519-7.892 1.866-5.324 2.413-10.168 9.491-11.209 16.376-1.597 10.57 2.981 24.146 13.049 38.69 2.068 2.986 4.082 5.605 6.052 7.864v4.98zm0-136.299c-16.398-10.462-33.433-25.654-40.392-37.589-8.32-14.265-10.458-29.484-5.851-41.631 3.025-7.974 10.807-15.954 17.921-18.374 6.864-2.336 17.389-2.194 25.619.345a28.87 28.87 0 0 1 2.703.999v3.672c-5.982-2.808-7.73-3.125-15.892-3.101-7.448.024-10.085.46-13.396 2.221-5.581 2.968-10.235 8.02-13.086 14.206-3.339 7.246-3.293 22.131.095 30.338 6.273 15.198 21.954 31.627 42.279 44.823v4.091zm0-142.002c-6.155-.302-12.224-1.097-16.715-2.38-10.818-3.091-18.896-7.357-24.118-12.736-7.704-7.937-9.164-14.949-5.535-26.592l1.982-6.364-10.484.355c-7.929.268-10.46.041-10.382-.932.057-.707.172-1.98.258-2.826.247-2.463 7.383-9.746 11.708-11.949 2.753-1.403 3.719-2.437 3.162-3.384-.93-1.578-12.062-11.439-15.489-13.722-1.274-.849-2.318-2.185-2.318-2.969 0-3.253 23.012-.876 30.887 3.191 2.903 1.5 2.975 1.471 3.624-1.483 1.2-5.459 6.151-10.926 12.975-14.333 3.535-1.763 6.79-3.207 7.234-3.207 1.903 0 1.881 2.345-.076 8.148-1.15 3.406-2.089 8.342-2.089 10.967 0 4.162.231 4.673 1.803 3.985.992-.435 5.148-.996 9.235-1.25a36.746 36.746 0 0 1 4.338-.031v3.206c-14.14-1.757-32.161 10.062-40.774 27.944-4.386 9.103-4.79 18.197-1.101 24.701 5.382 9.491 23.98 17.132 41.875 18.402v3.259zm0-161.873c-5.69 6.461-10.876 10.471-17.05 13.356-16.53 7.725-32.744 3.272-41.356-11.36-2.403-4.082-2.827-5.957-2.827-12.52 0-6.624.432-8.496 3.044-13.206 5.577-10.055 13.379-14.706 25.809-15.385 6.905-.378 9.525-.022 16.129 2.194 3.92 1.315 10.614 4.543 16.251 7.624v4.107c-8.861-5.513-15.486-8.429-22.383-9.898-11.978-2.551-20.671-.377-28.083 7.025-12.48 12.463-9.305 31.006 6.751 39.436 6.529 3.429 16.734 2.99 25.263-1.085 6.847-3.273 11.348-7.007 18.452-15.746v5.458zm0-81.297c-5.034-.289-7.91-.975-12.8-2.595-11.512-3.814-20.185-9.274-28.32-17.827-17.963-18.885-21.47-43.989-9.543-68.314 2.866-5.847 5.915-9.845 12.579-16.494 11.257-11.233 22.388-17.347 38.084-20.876v3.476c-13.133 2.921-25.274 9.638-35.568 19.911-9.82 9.8-14.989 19.2-17.593 31.992-5.972 29.335 13.931 57.875 46.028 66.004 2.029.514 4.472.908 7.133 1.181v3.542zm0-191.008c-26.711-4.794-52.315-11.814-57.517-16.137-2.317-1.925-2.428-2.505-1.818-9.483.711-8.118 5.562-32.125 8.74-43.256 1.1-3.855 3.098-8.192 4.44-9.638 2.352-2.535 2.758-2.607 11.199-2.013 7.851.552 21.121 2.673 34.956 5.381v3.491a522.543 522.543 0 0 0-23.935-4.078c-14.651-2.149-18.234-2.457-18.234-1.574 0 .385 16.318 23.848 18.182 26.144.184.226 1.535-.786 3.003-2.251 5.223-5.216 12.736-4.288 18.249 2.255 1.306 1.552 2.045 2.345 2.735 2.567v4.974c-.79.485-1.344.788-1.462.788-.232 0-1.201-1.641-2.155-3.647-.953-2.005-3.038-4.321-4.634-5.145-2.887-1.491-6.453-1.813-8.95-.81-2.034.817-4.358 6.051-4.357 9.808.001 4.726 5.13 15.069 10.016 20.198 3.925 4.122 7.064 5.266 11.542 3.578v3.564c-3.356 1.376-4.155 1.112-7.747-.258-3.477-1.326-5.684-3.276-9.433-8.335-2.692-3.631-5.127-6.562-5.41-6.512-3.342.592-30.83 12.752-30.208 13.363 1.59 1.568 30.409 9.159 46.524 12.255 2.022.388 4.131.777 6.274 1.158v3.613zM790.189 0c-3.01 6.507-7.287 10.348-11.872 10.348-3.543 0-14.698-4.991-17.859-7.991A25.657 25.657 0 0 1 758.257 0h4.896c1.217.93 2.748 1.846 4.753 2.888 8.338 4.331 13.544 4.495 16.376.514A31.005 31.005 0 0 0 786.385 0h3.804zm-68.307 0c.592.551 1.14 1.11 1.637 1.673 4.534 5.145 8.798 13.346 8.009 15.401-.795 2.068-11.374 3.856-23.505 3.974l-11.012.106-.639 3.402c-.872 4.64-7.541 11.11-12.952 12.565-16.204 4.357-28.404-13.688-15.897-23.512 3.709-2.915 10.037-2.999 12.867-.173 2.465 2.461 2.693 7.455.442 9.703-3.32 3.315-4.247 1.659-2.045-3.653.92-2.22-1.991-5.021-5.218-5.021-3.685 0-7.606 4.64-7.606 9 0 2.671.872 4.425 3.504 7.054 3.023 3.019 4.189 3.497 8.501 3.494 9.546-.007 15.808-6.444 15.814-16.255.004-5.598-1.781-10.35-5.361-14.264-2.029-2.218-2.045-2.219-6.32-.28-2.358 1.069-5.91 1.944-7.894 1.944-3.925 0-9.912-2.437-12.982-5.158h5.892c1.608.99 3.205 1.087 6.814 1.087 3.417 0 5.305-.215 7.194-1.087h9.408c.373.753 1.057 1.701 2.102 3.142 1.672 2.305 3.631 6.49 4.352 9.301l1.311 5.109 9.337-.062c9.395-.062 18.607-1.134 19.777-2.303 1.083-1.081-4.459-9.462-8.92-13.487a29.667 29.667 0 0 0-2.091-1.7h5.481zm-67.451 0c-3.85 3.522-6.995 11.105-7.006 17.256-.022 11.358 7.25 22.855 17.25 27.273 2.586 1.142 7.886 2.37 11.78 2.729 3.926.362 6.952 1.11 6.795 1.681-.337 1.224-12.323 1.372-16.865.209-2.925-.748-4.149-.079-14.942 8.165-6.467 4.94-23.165 18.158-37.107 29.375-13.942 11.218-25.883 20.395-26.535 20.395-.651 0-1.185.202-1.185.448s-.711 3.824-1.581 7.951c-2.956 14.035-5.908 15.19-18.247 7.145-7.887-5.141-11.087-8.477-11.087-11.56 0-.951 1.689-3.743 3.752-6.202 7.028-8.372 8.739-11.853 11.221-22.823 4.813-21.26 5.828-29.003 6.377-48.622l.549-19.637-4.732-2.77c-4.624-2.706-8.106-6.58-10.264-11.013h3.815c.973 1.774 2.259 3.386 3.88 4.896 6 5.588 18.692 7.546 20.341 3.137.78-2.086.496-2.372-2.868-2.887-4.25-.65-7.526-2.431-9.654-5.146h5.548c3.843 2.675 7.846 2.674 11.914 0h6.95c-.296.153-.622.326-.981.518-7.765 4.15-11.479 15.821-8.4 26.397 2.899 9.955 10.856 15.335 22.685 15.335 11.657 0 22.549-7.959 25.409-18.567.604-2.24 1.428-4.073 1.832-4.074.403 0 .875-2.191 1.048-4.868.173-2.678 1.141-6.735 2.152-9.016.752-1.7 2.171-3.816 3.709-5.725h4.447zM349.479 0l-.558 2.944 2.85 16.736c1.566 9.205 3.406 22.579 4.09 29.721 1.842 19.276.52 21.077-18.974 25.825-21.798 5.311-42.276 8.058-61.477 8.249-9.812.097-13.536-.343-21.641-2.558-11.674-3.189-24.421-9.326-27.101-13.048-1.139-1.579-2.499-6.442-3.311-11.834-2.203-14.612-5.285-47.14-5.43-56.035h2.885c.159 4.278 4.055 40.496 5.66 52.541 1.533 11.511 1.679 11.925 5.314 15.162 3.687 3.283 9.125 5.733 19.612 8.838l5.358 1.585-.869-2.281c-2.254-5.92-6.434-30.829-8.316-49.545-.85-8.465-1.619-11.837-3.047-13.378-1.05-1.132-2.066-3.135-2.257-4.451-.284-1.953-2.142-3.13-10.138-6.424A348.655 348.655 0 0 0 227.057 0h9.38c3.857 1.635 7.885 3.145 8.854 3.145.426 0 3.112-1.265 6.751-3.145h7.477l-1.37.742c-6.943 3.75-12.623 7.359-12.623 8.019 0 1.133 15.913 15.531 19.189 17.361.94.525 2.405.276 3.794-.644C270.498 24.161 278.966 8.755 282.993 0h7.79c2.486 10.907 9.055 48.43 11.385 65.405 1.853 13.501 1.369 12.647 6.722 11.836 2.567-.39 4.949-.99 5.296-1.334 2.199-2.198-7.133-59.998-11.778-75.907h11.124c2.997 1.732 5.899 3.244 7.854 4.011 4.239 1.664 19.371 5.308 22.039 5.308.441 0 1.561-4.174 2.502-9.319h3.552zM143.745 0c.497.975.921 1.96 1.253 2.934 3.126 9.162 2.124 10.028-6.798 5.881-3.032-1.41-7.367-2.566-9.634-2.572l-4.122-.009v9.173c0 8.548-.213 9.476-3.118 13.603-6.92 9.831-17.992 14.795-40.061 17.966-19.366 2.782-29.595.547-33.593-7.336-2.396-4.727-1.908-24.551.856-34.742A84.403 84.403 0 0 1 50.015 0h3.84c-2.675 7.871-4.294 16.656-4.366 25.27-.138 16.722 2.209 19.048 19.204 19.027 11.534-.012 31.062-3.818 38.241-7.45 10.395-5.261 14.351-11.286 14.391-21.921.024-6.262-.436-8.157-3.769-14.926h4.083c1.011 2.076 1.975 2.33 6.565 2.61 3.099.188 7.418 1.086 9.598 1.996 2.178.909 4.156 1.458 4.394 1.22.421-.421-.836-3.181-2.447-5.826h3.996zM.794 102.276c16.512 3.231 33.833 7.298 43.728 10.535 7.44 2.433 8.588 3.151 10.154 6.345 1.627 3.321 1.647 4.445.259 14.407-3.357 24.1-8.275 42.284-12.453 46.052-3.232 2.915-7.454 2.963-26.212.302a430.337 430.337 0 0 1-15.476-2.495v-3.613c15.619 2.772 33.259 5.171 33.918 4.513.539-.539-20.452-23.148-21.491-23.148-.42 0-1.29.634-1.934 1.41-.644.775-3.992 2.674-7.44 4.218-1.229.551-2.219.994-3.053 1.335v-3.563c1.43-.538 2.997-1.365 4.77-2.475 10.085-6.314 13.856-11.293 13.856-18.294 0-7.806-8.384-10.862-15.875-5.785a75.202 75.202 0 0 1-2.751 1.784v-4.974c.667.213 1.299-.096 2.365-.761 7.822-4.878 18.413-1.061 19.964 7.192l.644 3.428 9.42-4.85c8.797-4.529 18.178-11.67 18.178-13.837 0-1.476-5.843-3.578-20.787-7.479a484.161 484.161 0 0 0-29.784-6.756v-3.491zm0 140.048c.367-.082.736-.163 1.107-.243 8.36-1.79 25.962-1.254 34.522 1.052 11.348 3.057 20.984 8.607 29.494 16.99 15.126 14.9 21.014 33.553 16.91 53.587l-1.777 8.692 9.27 8.747c5.1 4.811 9.844 9.874 10.543 11.251 1.121 2.21.985 2.734-1.166 4.473-2.24 1.812-3.426 1.901-14.821 1.12-19.36-1.329-18.708-1.441-26.661 4.613-8.856 6.743-16.863 10.803-27.152 13.77-6.576 1.895-10.473 2.306-21.433 2.254-3.69-.017-6.496-.066-8.836-.2v-3.542c8.823.906 20.09.498 26.869-1.216 9.565-2.419 22.106-8.69 29.884-14.943l6.699-5.384 16.745.728c11.228.489 16.745.382 16.745-.326 0-.58-4.224-4.907-9.386-9.614-5.163-4.706-9.732-9.488-10.153-10.625-.421-1.137-.144-4.399.616-7.247 2.104-7.89 1.793-22.747-.64-30.616-5.657-18.286-23.714-34.492-43.811-39.316-11.544-2.771-22.885-2.905-33.568-.529v-3.476zm0 178.106c5.024 2.743 9.215 5.371 9.87 6.43 1.345 2.174 3.378.789 7.94-5.409 9.759-13.253 21.359-22.638 32.245-26.085 13.269-4.202 29.049 2.59 35.83 15.421 3.1 5.867 3.127 16.96.055 22.756-5.764 10.872-16.558 17.097-29.636 17.091-10.211-.003-18.416-2.873-31.121-10.885-12.501-7.883-11.018-8.148-19.944 3.551-1.817 2.381-3.55 4.512-5.24 6.428v-5.46a225.136 225.136 0 0 0 3.446-4.356l6.817-8.82-8.285-5.307c-.671-.43-1.33-.846-1.977-1.248v-4.107zM610.645 0c2.934 4.53 7.208 8.021 12.457 9.433 7.788 2.093 15.801-2.614 19.055-9.433h3.933c-1.227 3.524-3.522 6.743-6.897 9.185-2.352 1.702-4.703 3.239-5.221 3.415-.519.177-1.421 2.868-2.004 5.981-1.335 7.124-3.731 10.416-8.912 12.245-10.909 3.853-22.239-5.674-17.732-14.911 2.4-4.919 4.227-4.435 3.426.908-.885 5.892-.091 8.345 3.181 9.834 3.279 1.493 9.214 1.529 11.937.075 2.387-1.276 4.998-6.861 4.998-10.691 0-2.168-.485-2.605-2.89-2.605-6.089 0-16.003-6.633-19.694-13.176a10.277 10.277 0 0 0-.151-.26h4.514zm50.581 1000a9.737 9.737 0 0 1-.809-.8l-1.938-2.177-3.075 2.187c-.328.233-.653.498-.973.79h-4.447c2.225-2.76 4.698-5.088 5.763-5.088.545 0 .708-2.333.376-5.403-.715-6.614 1.451-11.427 6.749-14.992 2.968-1.998 4.577-2.351 9.088-1.989 7.501.601 11.594 4.556 12.299 11.882.453 4.708.211 5.432-2.977 8.882-2.246 2.433-4.517 3.834-6.447 3.975-4.429.324-4.309-1.699.221-3.695 7.036-3.1 8.248-9.334 2.861-14.714-3.888-3.883-7.176-4.422-11.942-1.961-4.425 2.285-6.195 5.474-6.195 11.161 0 4.48.443 5.48 4.001 9.034 1.405 1.402 2.371 2.315 3.334 2.908h-5.889zm-83.108 0c-1.848-2.357-2.83-5.416-2.833-9.05-.003-3.753.583-5.063 3.63-8.106 3.348-3.344 4.007-3.588 8.359-3.098 4.952.557 9.426 3.763 8.144 5.834-.506.817-1.736.541-4.11-.925-4.551-2.808-6.361-2.642-9.924.916-4.029 4.024-4.048 8.465-.052 12.455.77.77 1.548 1.428 2.333 1.974h-5.547zM.794 546.218c1.043-.038 2.748.974 4.124 2.722 2.088 2.651 2.899 6.551 1.363 6.551-.778 0-3.891-3.691-5.487-6.182v-3.091zm0 139.069c6.451.475 13.322 3.213 18.643 8.118 2.446 2.255 4.546 4.1 4.666 4.1.12 0 .767-1.319 1.436-2.933 2.019-4.869 9.689-11.553 15.69-13.674 8.598-3.038 16.955-.976 21.675 5.348 2.475 3.316 3.473 12.506 1.963 18.084-2.451 9.06-19.18 30.675-27.173 35.11-7.968 4.422-14.466 2.843-29.94-7.277a134.971 134.971 0 0 1-6.96-4.854v-4.515c5.383 4.335 11.709 8.515 18.149 11.844 8.785 4.539 10.04 4.721 16.036 2.326 8.257-3.3 27.732-30.22 27.715-38.311-.011-5.095-2.122-10.283-5.256-12.917-8.536-7.173-25.658.497-30.171 13.515-.724 2.089-1.79 3.956-2.368 4.149-.578.192-2.691-1.648-4.694-4.089-5.08-6.191-12.612-9.905-19.411-10.62v-3.404zM91.702 1000c.36-.477.975-1.11 1.874-1.99 3.275-3.206 5.62-3.929 5.62-1.733 0 1.121-1.117 2.586-2.5 3.723h-4.994zm550.456 0c1.398-2.93 1.917-6.251 1.163-9.589-1.828-8.097-7.868-12.993-16.029-12.993-6.241 0-10.792 4.088-10.792 9.697 0 9.153 10.167 10.596 12.847 1.823 1-3.275 3.175-2.185 2.906 1.455-.515 7.001-9.735 9.937-15.639 4.972-4.147-3.486-5.07-8.377-2.539-13.463 2.939-5.906 6.605-8.052 13.749-8.052 5.072 0 6.779.503 10.418 3.071 7.952 5.608 10.622 15.121 7.848 23.079h-3.932zm358.632-272.69c-7.104-5.32-12.191-10.441-15.492-15.578-4.29-6.676-4.872-15.276-1.357-20.066 3.522-4.8 9.946-6.887 16.849-6.379v3.405c-5.849-.615-11.158.993-13.891 5.159-2.261 3.446-2.258 9.467.007 13.842 2.304 4.449 7.415 9.887 13.884 15.1v4.517zm0-178c-.57-.899-.95-1.642-.95-1.998 0-.725.37-1.072.95-1.093v3.091zm0-222.872c-3.972-2.445-7.54-4.965-9.559-6.933-14.592-14.227-10.374-33.636 7.31-33.636.717 0 1.479.05 2.249.142v3.313c-.894-.214-1.703-.34-2.34-.345-8.026-.062-13.942 6.669-12.518 14.245 1.418 7.554 5.953 13.568 14.858 19.325v3.889zM96.695 0c-1.501 1.234-3.316 2.081-4.354 1.683C91.276 1.276 90.985.95 91.703 0h4.992zM.794 286.011c2.413.288 4.964.993 6.775 1.916 2.224 1.132 4.115 2.058 4.203 2.058.088 0 1.38-1.841 2.87-4.09 1.49-2.25 4.452-5.008 6.579-6.13 15.308-8.07 27.88 8.254 20.835 27.054-4.305 11.493-17.518 28.446-22.17 28.446-2.9 0-11.701-4.283-19.092-8.827v-3.89c2.662 1.719 5.715 3.416 9.19 5.124l9.632 4.732 4.099-3.972c8.91-8.636 17.376-24.521 17.322-32.504-.034-5.109-3.48-11.745-7.06-13.593-1.716-.886-3.955-1.601-4.974-1.588-5.092.064-12.416 6.302-14.17 12.068-.744 2.446-3.057 3.089-4.24 1.179-.882-1.427-6.098-3.789-9.8-4.67v-3.313zM69.887 5.432c1.605-2.289 4.578-3.144 4.578-1.317 0 1.587-4.25 8.292-5.254 8.292-1.501 0-1.065-4.493.676-6.975zm36.148 15.875c4.242-2.767 6.043-2.941 6.043-.584 0 2.22-7.351 5.851-8.838 4.366-.894-.893-.208-1.822 2.795-3.782zM83.919 24.05c2.478-2.634 3.486-2.923 4.498-1.288.923 1.493-2.493 5.081-4.837 5.081-2.479 0-2.4-.882.339-3.793zm-24.711-.111c1.692-1.69 2.64.101 2.077 3.927-.581 3.954-3.308 4.105-3.308.183 0-1.585.554-3.434 1.23-4.11zm57.19 590.617c6.346-3.512 14.124-.529 16.375 6.282 1.423 4.305.645 7.297-2.873 11.05-6.766 7.217-18.83 2.439-18.731-7.421.045-4.458 1.97-8.108 5.229-9.911zm10.568 3.784c-3.602-2.83-7.122-2.694-10.212.393-3.092 3.086-3.228 6.602-.394 10.199 2.676 3.398 8.192 3.718 11.26.653 3.069-3.065 2.749-8.572-.654-11.245zm13.432 102.217c2.824-2.82 4.309-3.499 7.65-3.499 12.032 0 15.631 15.903 4.765 21.053-7.596 3.6-15.905-1.938-15.914-10.608-.003-2.551.907-4.357 3.499-6.946zm12.33 1.721c-4.405-3.461-8.795-2.653-11.239 2.068-2.854 5.51.698 11.235 6.971 11.235 6.683 0 9.606-9.11 4.268-13.303zm-72.51 102.903c0-2.585 2.66-.293 5.375 4.632 2.99 5.424 5.51 15.141 4.393 16.945-1.212 1.958-3.285-.855-3.878-5.26-.307-2.291-1.76-6.614-3.224-9.606-1.466-2.993-2.666-6.012-2.666-6.711zm17.518-.005c0-1.879 1.946-1.197 3.547 1.244 1.903 2.9 2.524 9.13.965 9.685-1.023.363-4.512-8.087-4.512-10.929zM915.038 7.978c1.13-1.898 2.795.304 5.258 6.959 3.584 9.683 9.108 15.347 16.477 16.901 3.004.633 6.568 1.15 7.92 1.15 3.506 0 7.98 1.875 7.258 3.043-.337.544-3.411 2.007-6.834 3.253-7.555 2.752-13.72 7.058-15.769 11.014-.838 1.618-2.038 6.142-2.667 10.054-1.915 11.914-1.968 12.075-3.597 10.724-.797-.659-2.184-3.411-3.083-6.116-4.3-12.927-10.596-18.072-23.606-19.285-11.402-1.063-11.617-2.652-.923-6.841 12.85-5.036 16.583-9.988 18.37-24.369.388-3.113.925-6.032 1.196-6.487zm4.508 13.892c-1.585-3.822-3.171-4.307-3.185-.973-.018 3.973-4.762 12.726-8.38 15.463-1.903 1.438-5.084 3.314-7.067 4.17-1.984.854-2.879 1.591-1.991 1.636.889.046 4.023.797 6.964 1.67 6.203 1.84 11.847 6.925 14.666 13.212 1.171 2.612 2.063 3.624 2.356 2.676.261-.837 1.032-3.683 1.714-6.324 1.59-6.149 5.253-10.362 12.358-14.214 4.011-2.175 5.002-3.078 3.388-3.092-1.254-.01-4.821-.967-7.924-2.127-5.988-2.237-10.605-6.567-12.899-12.097zM431.62 41.748c5.139-6.1 13.814-3.037 15.406 5.437 1.022 5.436-1.363 13.971-4.885 17.489-2.761 2.757-3.365 2.923-8.257 2.275-10.583-1.402-17.298-6.236-17.298-12.453 0-5.069 2.992-8.076 8.105-8.142 2.34-.03 4.256-.367 4.258-.747.002-.382 1.203-2.118 2.671-3.859zm10.154 2.208c-2.866-4.086-8.06-2.254-9.568 3.373-.773 2.887-1.147 3.087-5.78 3.087-5.987 0-7.843 1.927-5.919 6.146 1.608 3.523 8.62 6.666 14.938 6.695 4.679.021 5.029-.171 6.44-3.547 1.972-4.711 1.914-12.867-.111-15.754zM163.924 98.08c2.869-2.559 3.923-2.895 7.565-2.407 10.891 1.458 12.267 16.177 1.803 19.289-10.476 3.116-17.531-9.599-9.368-16.882zm10.816 2.871c-3.085-3.082-4.633-3.157-8.151-.393-5.217 4.097-2.506 11.245 4.263 11.245 2.148 0 3.739-.757 4.813-2.288 2.261-3.223 1.999-5.644-.925-8.564zm496.522 11.876c4.198-1.762 8.412-.455 11.358 3.526 1.819 2.457 2.646 2.782 5.956 2.339 4.874-.653 10.102 1.917 10.977 5.397 1.729 6.882-2.899 13.815-11.95 17.902-6.147 2.776-11.324 2.746-14.363-.082-2.804-2.608-7.157-11.68-7.952-16.572-.819-5.044 1.937-10.814 5.974-12.51zm8.022 5.2c-4.382-5.564-10.229-2.051-10.229 6.147 0 5.738 4.819 14.977 8.484 16.265 4.126 1.449 15.78-4.522 18.033-9.24 3.219-6.743-2.213-11.7-9.076-8.281-3.417 1.703-5.075 1.429-5.075-.835 0-.74-.962-2.565-2.137-4.056zm204.835 66.762c2.977-1.434 4.558-1.475 6.979-.181 3.113 1.663 5.38 7.129 5.468 13.18.07 4.837-.285 5.86-2.779 8.002-2.264 1.945-4.04 2.457-8.521 2.457-8.38 0-13.804-3.486-13.804-8.871 0-2.379 4.006-6.566 6.283-6.566 1.131 0 2.227-1.287 2.944-3.458.629-1.903 2.173-3.956 3.43-4.563zm7.379 5.163c-1.854-2.644-6.128-3.045-7.044-.659-.344.895-.626 2.747-.626 4.116 0 2.024-.527 2.492-2.834 2.504-1.559.009-3.454.409-4.211.888-2.118 1.34-.987 5.574 1.893 7.093 3.081 1.625 12.321.929 13.56-1.023 1.424-2.241.951-10.51-.738-12.919zm-254.451-18.193c2.811-2.273 6.147-2.439 8.883-.441 1.516 1.108 2 2.7 2 6.594 0 4.205-.578 5.847-3.197 9.087-4.902 6.064-9.964 5.972-16.923-.308-3.429-3.092-4.097-4.343-4.097-7.668 0-5.14 3.75-8.087 8.171-6.421 2.27.855 3.264.694 5.163-.843zm7.328 3.894c-1.318-3.463-3.416-3.434-6.688.09-2.044 2.201-2.867 2.53-3.855 1.543-1.78-1.777-5.945-1.556-6.68.355-1.088 2.832 1.541 6.566 6.221 8.837 2.502 1.214 5.234 1.944 6.072 1.623.838-.321 2.521-2.644 3.741-5.162 1.755-3.62 2.005-5.144 1.189-7.286zM94.24 106.692c5.015-5.227 13.428-3.454 16.332 3.443 1.154 2.741 1.809 3.084 6.204 3.259 4.106.163 5.4.739 7.879 3.509 6.489 7.252 1.236 16.944-11.272 20.802-15.003 4.628-19.53 1.22-23.28-17.52-.827-4.133 1.059-10.285 4.137-13.493zm11.187 2.131c-3.109-3.43-7.921-2.428-10.288 2.143-3.182 6.142-.44 20.062 4.695 23.836 2.325 1.71 3.235 1.791 8.244.742 7.63-1.596 12.965-4.731 14.868-8.737 2.043-4.298 2.007-4.751-.603-7.547-1.867-2.003-3.022-2.293-7.934-1.995l-5.75.347-.703-3.386c-.386-1.863-1.524-4.294-2.529-5.403zm34.103 353.25c3.967-5.657 16.622-1.292 28.389 9.793 7.866 7.41 12.256 15.007 12.256 21.208 0 3.561-.743 4.838-5.925 10.188a14746.81 14746.81 0 0 0-10.621 10.975c-8.535 8.83-20.903 12.437-30.816 8.985-2.528-.881-4.738-1.46-4.91-1.287-.736.734 5.217 5.675 7.187 5.967 2.594.381 3.51 2.412 1.445 3.203-2.284.876-8.118-2.526-10.538-6.145l-2.179-3.26-14.586 6.484c-8.022 3.565-16.612 8.037-19.087 9.934l-4.502 3.452 4.347 1.102c2.392.606 5.744 2.002 7.45 3.102 5.379 3.467 16.997 14.714 16.324 15.802-1.991 3.217-16.901 4.157-24.572 1.546-4.624-1.573-10.982-7.302-11.08-9.983-.026-.687-.964.487-2.086 2.609-2.143 4.054-4.052 5.056-4.052 2.126 0-3.097 4.179-10.457 8.938-15.742 3.339-3.709 4.158-5.165 2.906-5.165-.96 0-3.322-1.575-5.25-3.499-3.034-3.032-3.502-4.176-3.502-8.564 0-6.575 2.268-12.967 6.788-19.132 5.386-7.347 6.699-6.457 8.836 5.991.972 5.655 1.795 12.446 1.83 15.092l.064 4.81 13.607-5.959c7.485-3.277 13.784-6.484 13.999-7.125.588-1.763-6.572-1.439-10.258.464-2.381 1.23-3.446 1.34-4.328.446-1.648-1.671 1.326-3.664 7.773-5.208l5.168-1.238-6.204-4.071c-6.378-4.187-10.038-9.42-8.813-12.606.959-2.498 2.759-1.378 3.717 2.315.74 2.851 6.83 8.44 9.197 8.44.389 0 .227-1.734-.358-3.854-2.442-8.831 2.499-24.428 9.755-30.789 2.228-1.954 3.221-3.666 3.005-5.181-.393-2.758 1.6-6.771 2.95-5.938.539.332.979 2.459.979 4.727 0 4.8.881 6.731 6.332 13.886 7.346 9.64 22.856 19.946 30.021 19.946 4.193 0 7.958-3.2 7.958-6.764 0-1.411-1.166-4.862-2.589-7.668-6.92-13.637-31.023-28.483-32.251-19.865-.992 6.956 15.516 24.679 21.021 22.569 3.162-1.212 1.437-5.212-4.806-11.145-4.813-4.573-5.882-6.093-4.627-6.574 1.954-.749 7.686 3.395 11.371 8.22 3.52 4.609 3.563 10.263.094 12.532-2.326 1.522-2.841 1.497-6.956-.343-7.914-3.539-20.303-18.697-20.393-24.95-.012-.866.7-2.602 1.582-3.859zm.336 23.822c-2.618-2.757-5.901-6.741-7.296-8.854l-2.538-3.841-2.694 2.812c-1.481 1.547-3.93 5.513-5.442 8.815-5.817 12.702-2.365 26.449 8.31 33.089 9.785 6.09 23.267 2.85 32.962-7.919 2.602-2.889 4.363-5.568 3.913-5.952-.45-.384-3.023-1.508-5.717-2.498-5.884-2.163-14.988-8.791-21.498-15.652zM87.902 516.73c-.943-5.567-1.865-10.28-2.047-10.474-.86-.912-6.692 11.137-7.276 15.027-1.112 7.406 2.904 13.641 7.789 12.092 2.989-.946 3.414-5.558 1.534-16.645zm4.873 30.798c-5.766-2.749-6.285-2.79-9.236-.726-4.4 3.077-2.07 8.652 5.21 12.461 3.312 1.732 17.316 2.643 18.753 1.22 1.115-1.105-9.55-10.486-14.727-12.955zm514.451-22.632c5.39-2.776 11.747 1.251 11.747 7.44 0 9.668-13.964 11.321-16.324 1.933-.83-3.303 1.314-7.694 4.577-9.373zm7.007 4.044c-.68-.679-2.21-1.235-3.401-1.235-2.761 0-4.637 1.873-4.637 4.631s1.876 4.631 4.637 4.631c4.114 0 6.291-5.141 3.401-8.027zm74.874-2.444c8.623-4.03 17.436-.439 18.749 7.639.938 5.778-.369 10.339-4.269 14.889l-3.564 4.158 5.807.481c5.199.43 6.221.924 9.762 4.716 3.397 3.637 3.957 4.903 3.957 8.957 0 9.366-5.467 14.554-14.341 13.606-2.598-.277-5.495-.826-6.438-1.22-1.434-.597-1.283.349.917 5.791 1.872 4.628 2.754 9.029 3.06 15.254.488 9.949-1.331 19.042-3.808 19.042-1.717 0-1.717-.469.006-9.219.701-3.557.909-8.52.497-11.817-.871-6.965-4.865-18.014-5.417-14.983-2.38 13.112-11.518 20.574-20.172 16.473-6.276-2.974-9.357-10.004-7.892-18.005.677-3.698.561-4.156-.897-3.527-.923.398-3.585 1.387-5.918 2.196-10.919 3.792-22.019-6.279-17.891-16.231 1.466-3.533 7.497-7.411 14.328-9.21l4.562-1.202-3.294-2.574c-9.372-7.324-8.065-21.374 2.305-24.787 6.952-2.288 12.979.634 18.182 8.812.828 1.303 1.252 1.41 1.665.422 1.313-3.139 6.252-7.862 10.104-9.661zm13.003 4.217c-3.496-3.491-5.25-3.663-10.9-1.072-7.126 3.267-10.691 9.441-10.768 18.646-.034 4.046.337 4.844 2.931 6.318 2.768 1.573 3.246 1.565 7.017-.122 12.74-5.696 18.375-17.124 11.72-23.77zm-32.55 1.284c-9.537-7.49-21.089 4.902-13.246 14.21 1.494 1.773 5.897 4.823 9.785 6.78 6.063 3.048 7.364 3.371 9.134 2.267 4.575-2.853.845-18.136-5.673-23.257zm14.472 27.721c-1.329-4.18-8.794-2.498-8.794 1.982 0 2.428 4.261 5.387 6.513 4.524 2.023-.775 3.113-3.886 2.281-6.506zm26.276-1.637c-2.738-1.414-9.28-1.976-11.884-1.021-.567.208-2.983.879-5.369 1.491-3.845.986-4.416 1.526-5.021 4.744-.866 4.613 1.613 7.463 10.235 11.766 7.864 3.924 11.294 3.938 15.176.061 4.964-4.957 3.357-13.687-3.137-17.041zm-42.026.551c-2.125-.589-4.328-1.011-4.895-.937-12.522 1.633-19.064 5.286-19.064 10.645 0 4.864.859 6.562 4.196 8.285 6.09 3.145 11.994 1.661 18.982-4.772 3.951-3.637 4.645-4.863 4.645-8.212 0-3.673-.26-4.01-3.864-5.009zm19.206 15.08c-2.151-4.421-2.238-4.474-7.378-4.402l-5.202.073-2.926 6.175c-5.631 11.883-2.347 22.177 7.052 22.103 8.771-.069 13.523-13.53 8.454-23.949zm-346.405-14.213c21.943-7.216 41.497 11.757 41.497 40.265 0 7.428.15 7.934 2.97 10.016 4.645 3.43 8.365 11.883 8.365 19.011 0 7.107-3.086 16.929-7.193 22.89-9.595 13.928-38.047 32.351-50.069 32.421-2.306.013-6.677-.712-9.713-1.613-6.996-2.074-13.657-8.682-23.229-23.04-11.995-17.993-16.745-34.59-13.5-47.166 2.901-11.243 9.307-18.259 19.381-21.229 3.748-1.107 4.406-1.836 6.878-7.633 4.994-11.706 13.957-20.417 24.613-23.922zm19.448 4.276c-9.724-4.701-22.763-1.664-31.86 7.421-4.791 4.785-11.689 17.356-10.542 19.212 1.604 2.59 4.589.998 6.929-3.695 5.142-10.312 15.395-17.776 24.478-17.822 12.747-.063 21.736 10.965 23.385 28.688.6 6.443.897 7.166 3.115 7.589 1.966.375 2.587-.064 3.127-2.212.945-3.762-1.277-17.834-3.671-23.238-2.647-5.978-9.541-13.323-14.961-15.943zm-3.229 10.529c-5.217-2.951-8.98-2.93-15.469.088-5.546 2.579-9.123 6.212-13.562 13.776l-2.764 4.711 2.492 1.631c5.394 3.527 9.581 7.925 12.556 13.189 3.005 5.317 3.189 5.451 5.309 3.886 4.469-3.303 13.009-6.795 18.088-7.395l5.232-.619v-4.816c0-10.484-4.856-20.477-11.882-24.451zm-32.929 22.453c-5.296-2.787-14.104-2.905-19.096-.255-4.62 2.452-9.908 9.34-11.41 14.86-1.833 6.735-.625 19.641 2.571 27.468 6.07 14.869 19.842 33.935 27.931 38.668 7.007 4.101 15.304 3.906 24.237-.572 10.743-5.383 23.628-14.185 29.379-20.068 12.397-12.68 16.189-30.186 8.759-40.43-8.335-11.491-27.552-11.652-40.454-.339-4.177 3.662-3.83 3.877-8.129-5.028-3.046-6.308-7.628-11.062-13.788-14.304zm8.628 31.242c5.799-3.236 13.542 1.4 13.483 8.075-.017 1.981-1.186 4.813-2.94 7.128-2.688 3.544-2.847 4.252-2.065 9.195 1.215 7.672.468 8.172-8.942 5.987-4.273-.991-8.006-2.041-8.298-2.333-.292-.291.807-2.676 2.442-5.3 2.751-4.412 2.897-5.143 1.951-9.753-1.241-6.049.338-10.748 4.369-12.999zm8.536 4.318c-1.037-.936-3.066-1.703-4.511-1.703-4.566 0-6.484 4.253-4.847 10.747.968 3.837.827 4.987-1.055 8.673-1.195 2.337-1.814 4.26-1.377 4.274.436.013 2.57.436 4.742.939l3.949.915-.696-5.046c-.629-4.577-.396-5.452 2.492-9.376 3.666-4.977 3.949-7.031 1.303-9.423zm136.999-63.828c4.5-3.148 11.806-1.827 15.571 2.815 2.488 3.068 2.358 9.991-.251 13.302-2.468 3.133-8.035 5.19-11.618 4.292-3.29-.824-7.489-5.332-8.345-8.958-.838-3.551 1.464-9.228 4.643-11.451zm11.776 3.935c-3.091-3.087-6.611-3.223-10.212-.393-3.403 2.673-3.723 8.18-.655 11.245 3.069 3.065 8.584 2.745 11.261-.654 2.833-3.596 2.697-7.112-.394-10.198zm79.894 6.582c4.409-8.721 5.716-8.001 6.346 3.498.676 12.353 2.514 16.183 10.151 21.158 3.204 2.089 7.279 4.587 9.053 5.55 1.774.964 3.226 2.17 3.226 2.681 0 .51-4.568 1.178-10.152 1.486-6.402.352-11.358 1.181-13.416 2.244-3.609 1.864-8.256 7.731-12.131 15.316-1.394 2.727-3.09 4.774-3.77 4.55-.801-.264-1.421-4.002-1.762-10.616-.38-7.381-1.053-11.085-2.43-13.367-1.993-3.306-8.739-8.307-15.37-11.393-2.427-1.13-3.786-2.417-3.596-3.41.241-1.266 2.411-1.704 10.598-2.135 5.662-.298 11.288-1.098 12.501-1.777 3.293-1.843 7.334-7.025 10.752-13.785zm5.483 18.47c-.836-1.613-1.849-5.495-2.252-8.625l-.733-5.69-3.959 5.303c-4.34 5.814-9.65 8.794-17.612 9.884-4.651.637-4.704.684-2.412 2.209 7.656 5.091 11.602 11.157 12.716 19.55l.695 5.228 3.326-4.82c4.177-6.052 12.095-10.456 18.957-10.543 4.129-.053 4.508-.227 2.798-1.287-4.006-2.481-10.048-8.357-11.524-11.209zm322.602 27.432c1.594-1.593 3.707-2.527 5.714-2.527 4.139 0 8.244 4.007 8.244 8.048 0 4.607-3.554 8.418-7.85 8.418-7.59 0-11.387-8.668-6.108-13.939zm8.576 2.163c-2.947-2.062-3.472-2.022-5.953.456-2.559 2.555-2.607 4.333-.177 6.529 2.45 2.214 4.599 2.156 6.715-.179 2.337-2.579 2.138-4.902-.585-6.806zm-293.111 3.113c3.628-1.814 7.398-1.346 10.334 1.282 7.184 6.434 1.42 17.98-8.089 16.199-8.753-1.639-10.272-13.468-2.245-17.481zm8.339 4.105c-3.651-3.646-9.717-1.169-9.717 3.968 0 3.921 1.96 5.993 5.668 5.993 1.414 0 3.266-.578 4.119-1.284 2.025-1.678 1.984-6.624-.07-8.677zm-196.209-.869c4.493-2.288 7.892-1.585 11.567 2.392 3.938 4.263 3.871 9.362-.178 13.405-5.061 5.053-13.002 3.622-16.101-2.901-2.339-4.922-.371-10.305 4.712-12.896zm7.806 3.127c-2.087-1.392-6.464-.807-8.187 1.095-3.578 3.948-.608 11.496 4.524 11.496 2.233 0 7.167-4.266 7.167-6.195 0-1.586-2.135-5.483-3.504-6.396zm422.988-.53c1.447-3.714 3.728-2.696 5.763 2.572 3.114 8.06 2.493 15.032-2.078 23.336l-3.901 7.089 6.134-5.306c3.375-2.92 6.625-5.308 7.225-5.308 2.124 0 4.298 4.636 4.298 9.165 0 6.256-3.272 12.52-9.426 18.046l-5.141 4.616 2.904.674c4.721 1.096 7.541 3.353 7.541 6.034 0 8.879-23.374 19.34-36.507 16.34l-4.739-1.084-1.974 4.457c-2.784 6.285-7.466 12.816-14.833 20.694-9.138 9.769-16.467 12.469-25.52 9.401-5.762-1.953-17.984-10.937-25.04-18.409l-6.616-7.002-6.533 2.071c-5.049 1.601-8.317 1.958-14.387 1.571-17.358-1.106-26.472-10.447-15.618-16.007l3.805-1.949-5.624-2.807c-6.278-3.133-11.757-7.867-13.955-12.057-1.508-2.874-1.927-8.696-.833-11.545.892-2.32 2.733-2.042 9.68 1.46 3.368 1.698 6.37 3.087 6.671 3.087.302 0-1.333-1.698-3.634-3.773-6.923-6.246-9.725-12.035-9.731-20.099-.007-9.358 1.338-10.521 6.445-5.571 5.069 4.913 9.549 7.413 27.962 15.609 8.278 3.684 16.781 7.841 18.894 9.237 2.856 1.887 5.237 2.542 9.275 2.549 6.261.011 14.362 3.372 18.224 7.56l2.487 2.697 3.638-4.244c4.229-4.935 12.396-9.086 17.901-9.1 3.25-.009 4.523-.75 8.243-4.797 2.421-2.631 10.566-10.074 18.101-16.536 13.042-11.188 18.9-17.542 20.899-22.671zm4.029 11.867c-.023-8.036-1.133-8.921-4.709-3.754-1.652 2.388-9.032 9.535-16.4 15.883-7.368 6.347-15.38 13.59-17.804 16.094l-4.407 4.552 3.815 2.505c5.371 3.529 7.982 9.155 8.448 18.208.45 8.749.804 8.988 12.281 8.292 8.366-.509 18.65-4.81 22.542-9.43 2.488-2.952 2.532-3.199.79-4.47-1.013-.741-4.509-1.346-7.768-1.346-8.074 0-8.791-1.575-2.528-5.561 11.659-7.422 18.812-19.376 15.099-25.236-.737-1.164-2.137-.364-6.781 3.874-7.43 6.781-14.672 11.124-16.129 9.669-.733-.732.723-3.435 4.668-8.669 7.072-9.384 8.903-13.632 8.883-20.611zm-134.96 21.19c-4.808-2.192-10.782-5.534-13.275-7.427l-4.532-3.441.478 5.767c.655 7.869 4.18 12.101 19.963 23.964 2.416 1.816 2.73 2.461 1.573 3.243-1.746 1.184-9.108-.845-18.536-5.106-3.621-1.638-6.751-2.976-6.956-2.976-.205 0-.373 1.218-.373 2.708 0 6.625 7.716 13.581 19.431 17.518 3.765 1.266 6.847 2.859 6.847 3.54 0 .682-1.855 1.865-4.122 2.631-9.892 3.34-11.341 6.067-4.895 9.215 6.606 3.225 25.131 3.301 29.487.12 1.628-1.189 1.642-1.636.179-5.777-3.148-8.909-1.146-20.253 4.452-25.227 1.213-1.078 2.206-2.379 2.206-2.89 0-.865-10.777-6.219-31.927-15.862zm93.921 17.228c-3.681-2.618-9.748-3.422-14.966-1.983-3.957 1.09-11.078 7.17-14.208 12.13l-1.606 2.546-4.861-4.854c-8.989-8.977-20.491-9.978-27.184-2.365-10.233 11.639-1.482 30.841 21.053 46.193 8.452 5.757 13.535 7.256 19.452 5.733 5.927-1.525 19.275-15.371 24.697-25.615 3.714-7.022 4.082-8.415 4.069-15.437-.015-8.699-1.701-12.974-6.446-16.348zm-38.213-46.849c4.294-3.609 8.525-3.491 12.366.344 5.107 5.1 3.787 12.379-2.738 15.102-3.055 1.274-3.994 1.274-7.049 0-6.665-2.782-8.017-10.877-2.579-15.446zm9.571 2.556c-3.063-2.407-3.111-2.413-6.324-.867-3.138 1.51-3.972 5.313-1.87 8.517 2.2 3.354 7.047 3.498 9.305.278 2.3-3.278 1.99-5.493-1.111-7.928zm-278.112 15.558c.295-.769 1.116-1.204 1.825-.968 1.587.529 1.835 16.191.256 16.24-1.144.035-2.929-13.066-2.081-15.272zm-36.562 1.953c0-.616.655-1.12 1.456-1.12 1.935 0 18.168 23.99 17.243 25.484-.395.64-1.197.841-1.78.445-1.618-1.094-16.919-23.532-16.919-24.809zm-266.895 42.691c6.663-2.421 13.734 2.634 14.912 10.657.968 6.597-2.688 17.78-7.327 22.413-3.366 3.361-3.809 3.505-9.091 2.961-18.053-1.861-29.964-16.708-20.509-25.563 2.18-2.042 3.616-2.426 8.706-2.331 4.041.075 6.095-.293 6.095-1.094 0-1.397 4.935-6.215 7.214-7.043zm6.536 3.505c-1.382-.627-2.917-1.142-3.414-1.142-2.079 0-7.144 5.436-7.786 8.354-.587 2.664-1.037 3.039-2.91 2.419-5.178-1.712-10.634-1.706-12.357.015-4.299 4.294-.962 11.625 7.182 15.774 12.085 6.156 17.322 5.208 21.404-3.876 4.288-9.543 3.354-19.053-2.119-21.544zm314.886-18.15c4.866-1.788 9.543-3.263 10.394-3.28.85-.016 6.878.998 13.396 2.255 10.075 1.942 11.893 2.587 12.131 4.309.414 2.994-12.877 74.702-14.066 75.89-1.071 1.069-73.341-16.33-75.992-18.295-1.147-.85-.89-3.197 1.479-13.47 2.782-12.061 3.041-12.635 8.486-18.828 7.299-8.301 31.38-23.882 44.172-28.581zm20.843 2.308c-4.739-.897-9.157-1.631-9.819-1.631-.661 0-6.015 4.504-11.896 10.01-12.39 11.598-12.487 11.325 4.075 11.498l9.812.103 8.682-8.715c4.775-4.794 8.475-8.923 8.221-9.175-.253-.252-4.337-1.193-9.075-2.09zm-28.901 10.464c5.331-4.951 9.229-8.971 8.662-8.933-4.407.3-34.816 19.283-39.176 24.457l-2.694 3.197 11.758-4.86c10.825-4.474 12.527-5.574 21.45-13.861zm34.464 24.08c2.607-14.347 4.566-26.259 4.354-26.47-.212-.212-3.583 2.833-7.491 6.767l-7.107 7.151 2.449 20.323c1.346 11.178 2.584 19.872 2.752 19.319.167-.552 2.437-12.743 5.043-27.09zm-20.139-10.705c.009-1.41-21.652-.908-22.154.515-.249.708-1.869 5.167-3.598 9.91-3.089 8.471-3.102 8.598-.802 7.149 19.935-12.554 26.549-16.932 26.554-17.574zm-29.764 11.528c2.157-5.868 3.82-10.771 3.696-10.895-.462-.461-25.992 10.332-26.616 11.253-1.025 1.512-4.251 17.266-3.656 17.86.294.293 5.511-1.285 11.594-3.508l11.06-4.042 3.922-10.668zm39.029 11.884c-1.201-10.188-2.5-19.322-2.888-20.299-.598-1.51-3.027-.298-16.162 8.06-8.501 5.409-16.065 10.42-16.807 11.136-1.1 1.059 2.423 3.625 18.918 13.788l20.267 12.49-.574-3.326c-.314-1.829-1.555-11.661-2.754-21.849zm-22.564 13.336c-8.714-5.401-16.59-10.186-17.501-10.635-1.054-.518-5.403.575-11.96 3.009l-10.305 3.825 4.122 1.098c9.321 2.484 49.968 12.521 50.7 12.521.433 0-6.341-4.419-15.056-9.818zm-66.044-54.989c0-2.396 16.468.412 17.312 2.953.391 1.174-.688 1.303-5.937.71-7.322-.827-11.375-2.132-11.375-3.663zm-257.588-89.196c3.211-2.102 6.441-.235 11.525 6.661l5.123 6.946h8.92c13.258 0 14.829 3.351 6.726 14.343-2.621 3.556-4.766 6.797-4.766 7.201 0 .405 1.163 4.147 2.583 8.318 4.302 12.631 1.875 14.938-11.235 10.674l-8.588-2.793-6.411 4.926c-10.848 8.337-14.477 6.524-14.477-7.235v-8.424l-7.213-5.257c-5.285-3.851-7.209-5.879-7.198-7.586.026-3.778 1.177-4.681 9.812-7.698l8.206-2.867 2.871-8.195c1.579-4.507 3.434-8.564 4.122-9.014zm7.434 7.089c-3.168-4.228-5.096-5.545-5.978-4.085-.274.455-1.48 4.13-2.678 8.168-1.2 4.039-2.841 7.89-3.65 8.56-.809.67-4.827 2.238-8.929 3.484-4.104 1.246-7.644 2.818-7.87 3.495-.226.676 2.82 3.583 6.768 6.459 3.949 2.877 7.429 6.184 7.734 7.347.304 1.164.286 5.299-.04 9.19-.792 9.432.596 9.983 9.161 3.627 3.511-2.606 7.384-4.738 8.605-4.738 1.223 0 4.918.926 8.212 2.058 10.614 3.648 11.381 2.882 7.729-7.718-1.134-3.29-2.061-6.98-2.061-8.201 0-1.219 2.135-5.087 4.744-8.594 6.483-8.712 5.942-9.637-5.401-9.253-8.811.297-8.952.263-11.09-2.686a673.554 673.554 0 0 0-5.256-7.113zm432.705 84.856c4.522-2.225 6.87-2.166 10.87.27 2.348 1.429 3.634 3.256 4.466 6.342 1.602 5.942-.193 11.893-5.86 19.42-7.178 9.538-12.275 10.351-22.482 3.584-12.154-8.055-15.977-19.504-8.588-25.713 3.677-3.089 8.338-3.315 12.764-.619 2.98 1.814 3.245 1.825 4.278.175.605-.969 2.654-2.524 4.552-3.459zm10.607 4.659c-2.61-3.721-8.177-3.13-12.375 1.314-1.87 1.981-3.749 3.602-4.176 3.602-.427 0-1.862-1.019-3.189-2.264-3.101-2.909-9.213-3.082-11.237-.318-3.833 5.236.391 13.976 9.609 19.884 7.49 4.8 11.519 4.525 16.077-1.094 6.902-8.511 8.807-16.113 5.291-21.124zm-367.877 14.745c3.948-1.946 5.917-1.972 10.322-.134 6.339 2.646 8.523 10.516 4.668 16.83-5.973 9.782-21.636 5.073-21.636-6.505 0-3.843 2.953-8.371 6.646-10.191zm9.28 3.159c-2.734-1.048-7.171-.728-8.985.647-2.556 1.939-3.954 6.539-2.858 9.415 1.151 3.024 4.887 5.764 7.858 5.764 3.014 0 7.266-3.524 8.06-6.682.751-2.989-1.563-8.181-4.075-9.144zm102.58 1.692c6.036-2.979 11.345-.676 14.515 6.296 3.337 7.337 1.811 19.067-3.21 24.665-2.755 3.073-3.272 3.234-9.981 3.105-8.157-.158-16.729-3.311-19.883-7.315-2.99-3.794-3.661-9.008-1.571-12.193 2.075-3.162 7.893-5.815 11.121-5.072 1.918.441 2.661-.212 4.372-3.842 1.133-2.406 3.22-4.946 4.637-5.644zm9.354 4.793c-1.658-1.655-3.779-3.008-4.717-3.008-2.923 0-7.729 5.681-7.729 9.134v3.119l-5.168-.612c-4.116-.486-5.584-.235-7.213 1.237-4.689 4.238-1.159 11.555 6.895 14.295 5.455 1.857 13.929 2.158 16.844.6 2.538-1.356 4.086-7.123 4.093-15.246.006-5.827-.31-6.826-3.005-9.519zm467.245 19.537c1.134-.485 3.452-.663 5.152-.396 3.278.516 8.759 5.663 8.759 8.226 0 1.099 1.171 1.527 4.174 1.527 14.476 0 16.44 15.926 2.775 22.512-12.322 5.94-20.913 4.791-24.485-3.275-5.818-13.135-4.287-25.21 3.625-28.594zm8.684 5.894c-1.416-1.798-3.127-2.712-5.077-2.712-6.591 0-9.189 9.481-5.561 20.289 2.604 7.757 4.034 8.849 10.787 8.242 6.665-.6 13.618-3.814 15.954-7.374 4.321-6.587-.982-13.378-8.618-11.037-4.3 1.318-5.349.863-5.349-2.323 0-1.306-.961-3.594-2.136-5.085zm-201.9-.06c7.539-1.977 22.794-2.006 30.441-.056 14.81 3.776 30.096 15.183 37.609 28.067 2.26 3.874 4.875 6.827 7.13 8.052 7.858 4.269 9.45 12.865 4.336 23.425-1.676 3.462-3.592 9.305-4.259 12.984-2.072 11.441-7.386 20.978-16.915 30.358-12.772 12.573-25.813 17.962-43.541 17.994-25.859.047-48.073-15.815-57.625-41.148-2.612-6.929-2.937-9.192-3.174-22.126-.145-7.924-.57-16.967-.943-20.098-.488-4.092-.231-6.758.913-9.496 1.727-4.125 6.937-7.957 10.827-7.963 1.468-.003 4.89-2.229 8.759-5.701 6.927-6.216 17.558-11.963 26.442-14.292zm26.346 2.565c-17.681-3.181-36.357 1.941-49.632 13.611l-4.738 4.165 2.934 1.496c1.615.823 3.655 2.122 4.534 2.886 1.379 1.199 2.086.877 5.115-2.33 6.213-6.578 14.897-8.413 21.316-4.504 4.816 2.932 6.91 7.593 6.962 15.493.055 8.495-4.03 17.321-12.19 26.324-6.655 7.345-11.539 9.402-18.117 7.634-4.89-1.315-18.489-10.199-22.012-14.381l-2.515-2.986-.57 4.818c-.313 2.649-.103 8.291.467 12.536 3.31 24.644 21.335 43.752 46.222 48.995 24.337 5.127 50.612-7.236 62.159-29.247 3.194-6.089 7.352-18.595 6.474-19.471-.179-.18-2.362.846-4.853 2.278-2.49 1.432-8.165 3.764-12.61 5.183-8.983 2.868-13.333 2.476-18.616-1.674-5.755-4.521-12.975-22.619-12.975-32.526 0-6.988 1.818-11.314 6.469-15.391 5.019-4.402 8.82-5.083 14.459-2.591 4.103 1.813 9.963 7.709 10.002 10.066.044 2.524 1.767 3.59 4.2 2.599 1.366-.555 3.78-1.288 5.365-1.628l2.881-.617-2.366-4.258c-1.301-2.343-5.289-7.19-8.861-10.771-7.478-7.497-19.531-13.915-29.504-15.709zm-30.881 71.801c1.005-1.624 2.421-.867 3.968 2.123 3.406 6.577 14.175 9.878 22.009 6.747 2.41-.962 4.847-2.62 5.417-3.684 1.182-2.205 4.056-2.619 4.056-.583 0 1.879-5.079 6.528-8.569 7.845-8.461 3.193-21.749-1.009-25.535-8.075-1.035-1.93-1.641-3.898-1.346-4.373zm9.422-52.765c-6.51-4.259-15.909-1.488-19.829 5.845-1.133 2.121-2.468 3.858-2.967 3.859-.497.003-2.646-1.568-4.775-3.487-6.862-6.192-15.566-5.909-19.562.635-5.418 8.875.745 20.463 16.308 30.667 6.444 4.225 8.619 5.119 12.444 5.119 4.291 0 5.057-.437 10.355-5.917 7.979-8.251 12.413-16.918 12.413-24.261 0-6.956-1.204-10.377-4.387-12.46zm41.443 6.228c-8.474-7.12-19.553.695-19.52 13.771.021 7.956 7.383 24.997 12.746 29.505 2.667 2.241 3.875 2.554 8.422 2.177 6.142-.509 20.052-6.7 24.508-10.908 6.235-5.888 8.614-14.731 5.253-19.522-3.823-5.451-12.514-6.927-19.325-3.282-4.271 2.287-5.859 1.969-5.859-1.17 0-3.082-2.632-7.551-6.225-10.571zm-510.905-9.35c7.535-1.633 14.611-1.807 25.792-.635 6.29.66 8.995 1.513 13.067 4.122l5.136 3.291 4.255-2.812c8.641-5.71 18.756-4.023 23.775 3.966 2.785 4.43 2.379 13.909-.861 20.116l-2.273 4.356 2.622 7.8c10.972 32.641-6.491 67.498-39.226 78.301-11.901 3.928-26.546 3.921-37.951-.02-19.053-6.58-33.233-20.56-39.038-38.486-2.316-7.152-2.453-7.322-7.704-9.512-6.596-2.751-13.325-9.75-14.284-14.858-2.056-10.942 5.373-18.6 17.423-17.961l5.053.267 2.005-5.369c1.506-4.032 4.232-7.62 10.943-14.401 9.984-10.09 19.488-15.612 31.266-18.165zm16.088 5.715 2.349-3.176-7.502.068c-12.695.114-25.177 4.799-34.879 13.093l-4.284 3.662 4.753 1.206c5.854 1.484 8.332 3.647 11.764 10.271 2.169 4.186 2.668 6.584 2.674 12.863.012 9.552-2.954 21.833-6.204 25.689-4.86 5.768-12.273 7.105-25.3 4.563-2.451-.478-2.692-.275-2.194 1.844 1.77 7.515 8.11 17.984 15.15 25.014 11.617 11.602 24.427 16.95 40.659 16.972 16.496.024 29.044-5.163 40.967-16.936 7.666-7.569 12.243-15.136 15.228-25.174 2.429-8.171 2.216-23.785-.441-32.378-1.156-3.739-2.361-6.797-2.676-6.797-.316 0-3.55 2.724-7.189 6.054-11.847 10.84-18.685 10.5-31.322-1.557-10.435-9.957-13.847-16.163-13.879-25.247-.02-5.546.425-7.463 2.326-10.034zm.26 65.918c29.58-10.392 28.165-10.366 29.395-.535.759 6.067-.541 12.814-3.622 18.794-8.352 16.213-32.978 18.706-45.385 4.595-3.372-3.836-7.958-12.309-7.116-13.149.266-.267 12.295-4.634 26.728-9.705zm25.577 4.398c.331-7.892.194-8.655-1.546-8.598-1.685.056-45.708 15.082-46.552 15.891-.737.705 4.998 8.588 8.222 11.302 5.456 4.594 9.726 5.932 17.529 5.492 8.168-.461 13.73-3.703 18.863-10.995 2.763-3.924 3.161-5.426 3.484-13.092zm-8.506-71.532c-5.039-2.285-7.433-2.373-11.055-.408-3.581 1.944-6.42 9.022-5.525 13.779 1.13 6.018 5.385 13.166 11.434 19.206 13.114 13.096 19.089 12.948 32.451-.803 10.19-10.485 12.887-22.543 6.476-28.946-4.984-4.977-13.892-4.062-19.632 2.017-1.811 1.917-3.755 3.486-4.322 3.486-.566 0-2.058-1.443-3.316-3.208-1.258-1.764-4.188-4.069-6.511-5.123zM193 796.555c-4.213-2.848-6.772-2.908-11.116-.263-4.399 2.678-7.454 7.818-7.458 12.551-.005 4.75-.942 5.331-6.28 3.895-8.218-2.21-16.411 1.291-18.022 7.7-.41 1.631.019 4.531 1.079 7.304 3.228 8.438 14.09 13.703 30.14 14.606l9.496.536 3.504-3.5c2.74-2.737 3.873-5.115 5.189-10.89 3.564-15.652 1.319-26.631-6.532-31.939zm622.563-13.312c3.113-3.309 7.038-3.05 10.64.705 2.401 2.502 3.043 4.218 3.394 9.076.381 5.262.119 6.356-2.163 9.006-2.378 2.76-3.166 3.015-9.309 3.015-5.139 0-7.369-.49-9.516-2.09-5.58-4.161-4.954-9.968 1.377-12.76 1.835-.81 3.337-2.169 3.337-3.021 0-.852 1.007-2.621 2.24-3.931zm8.113 2.812c-1.16-1.159-2.54-2.106-3.067-2.106-1.941 0-4.195 3.32-4.195 6.182 0 2.554-.436 2.992-3.245 3.272-4.469.443-6.034 3.133-3.47 5.964 1.676 1.849 2.935 2.118 8.716 1.861l6.758-.299.306-6.384c.254-5.313-.048-6.737-1.803-8.49zm-388.541-.775c3.12-1.575 3.317-1.587 6.581-.347 3.275 1.244 6.034 6.412 5.198 9.737-2.065 8.216-14.289 8.185-16.356-.041-.831-3.309 1.32-7.703 4.577-9.349zm7.007 4.02c-.68-.679-2.21-1.235-3.401-1.235-2.761 0-4.637 1.873-4.637 4.631s1.876 4.631 4.637 4.631c4.114 0 6.291-5.141 3.401-8.027zm527.07-.219c4.06-1.816 6.927-1.751 6.927.155 0 .524-.811 1.192-1.803 1.485-.993.293-3.516 1.435-5.609 2.538-2.34 1.232-4.05 1.608-4.44.977-1.007-1.628.453-3.156 4.925-5.155zm15.176 10.979c4.871-1.716 7.183-1.799 7.521-.273.244 1.102-1.328 1.957-7.755 4.212-2.676.94-7.223 3.825-10.105 6.413-3.896 3.498-5.539 4.406-6.404 3.542-2.26-2.257 8.094-10.849 16.743-13.894zm-449.354 17.598c6.994-4.39 13.145-7.982 13.668-7.982 5.403 0 6.489 6.889 2.366 15.005-1.414 2.784-2.574 5.177-2.576 5.319-.002.142 1.318.258 2.934.258 5.969 0 13.55 3.788 13.55 6.769 0 2.833-5.46 7.605-11.119 9.72-6.555 2.449-17.592 3.706-23.244 2.647-2.037-.382-5.086-1.855-6.774-3.274l-3.07-2.579-4.173 2.126c-4.721 2.405-4.574 1.848-3.001 11.359 2.816 17.029-6.833 38.35-26.381 58.291-7.285 7.433-9.018 8.661-14.381 10.186-10.833 3.082-18.316 1.041-34.28-9.351l-8.881-5.781-15.219 15.077 4.64 1.917c7.801 3.221 7.331 7.017-1.412 11.414-5.101 2.566-19.08 7.766-20.876 7.766-1.716 0-.327-17.992 1.946-25.207 1.309-4.156 2.548-6.284 3.798-6.524 1.934-.373 6.812 3.487 6.839 5.411.009.609.433 1.764.941 2.566.716 1.129 2.644-.36 8.518-6.578l7.592-8.038-7.924-8.009c-5.686-5.749-9.006-10.198-11.759-15.76-12.435-25.126 1.739-49.235 26.285-44.71 6.777 1.251 12.378 3.948 18.508 8.914 2.669 2.162 4.728 3.207 4.959 2.515 2.027-6.072 12.255-14.952 20.685-17.957 12.137-4.326 26.528.16 31.888 9.943 1.115 2.033 1.149 2.033 5.016-.174 3.414-1.949 3.905-2.716 3.994-6.231.177-7.055 3.135-10.38 16.943-19.048zm15.515-1.874c0-1.241-.68-1.962-1.803-1.914-2.289.1-22.843 13.496-25.247 16.454-1.509 1.857-2.622 8.166-1.44 8.166 1.825 0 22.313-10.663 24.041-12.513 2.497-2.672 4.449-7.145 4.449-10.193zm8.113 19.549c-1.206-.644-5.727-1.364-10.047-1.6-7.547-.412-8.17-.265-15.842 3.72-4.393 2.282-7.986 4.496-7.986 4.919 0 1.436 4.151 3.365 8.524 3.961 5.837.797 15.509-1.094 22.133-4.325 5.787-2.824 6.737-4.794 3.218-6.675zm-60.435 2.282c-12.895-6.455-30.641.009-37.529 13.669-3.678 7.292-3.674 7.291-9.473 1.835-6.642-6.25-13.412-9.53-21.107-10.226-14.903-1.349-24.167 7.588-24.291 23.433-.055 7.025.325 8.551 3.975 15.929 6.54 13.218 23.683 28.498 42.559 37.934 7.521 3.759 17.075 3.775 23.948.039 10.518-5.717 28.152-29.986 32.421-44.62 2.43-8.331 1.987-24.769-.669-24.769-.555 0-6.045 3.03-12.198 6.732l-11.188 6.731 2.1 4.025c2.068 3.962 2.333 8.754.485 8.754-.52 0-1.595-1.948-2.39-4.329-1.325-3.971-5.222-8.288-10.161-11.257-1.383-.833-1.643-1.514-.884-2.313.78-.818 2.088-.617 4.724.725l3.646 1.856 12.145-7.315c6.681-4.022 12.092-7.754 12.026-8.291-.279-2.254-4.566-6.755-8.139-8.542zm-90.915 86.759c0-.699-.894-2.364-1.985-3.699-1.584-1.94-2.093-2.119-2.525-.887-1.329 3.793-2.648 10.285-3.3 16.248l-.71 6.471 8.542-3.113c8.849-3.226 13.374-5.643 13.374-7.146 0-.48-2.203-1.466-4.895-2.191-5.211-1.405-8.501-3.604-8.501-5.683zm463.718-99.278c9.298-2.005 19.237-2.555 21.4-1.183.717.455 2.353 4.499 3.636 8.988l2.331 8.162 5.973 2.989c12.267 6.137 17.292 13.617 25.76 38.338 7.006 20.455 10.253 34.605 9.666 42.122-1.152 14.729-10.377 26.438-25.319 32.136-9.942 3.792-29.418 9.64-41.901 12.581-19.571 4.612-34.487-.223-43.747-14.185-6.565-9.899-17.567-50.788-17.567-65.287 0-8.236 2.148-15.697 6.079-21.116l3.007-4.148-2.651-8.832c-3.114-10.37-3.022-10.599 6.08-15.188 11.205-5.649 29.019-11.446 47.253-15.377zm17.951 2.207c2.246-3.628-30.689 3.361-50.66 10.752-10.387 3.845-19.391 8.437-18.428 9.399.859.857 16.625-1.646 27.436-4.356 17.91-4.491 39.792-12.788 41.652-15.795zm5.095 11.374c-.361-1.518-1.174-4.023-1.805-5.567l-1.147-2.807-3.225 2.058c-8.984 5.733-45.614 16.756-60.175 18.107-3.953.366-7.188 1.057-7.188 1.533 0 .477.576 3.019 1.281 5.648l1.28 4.781 8.252-.589c15.495-1.104 51.605-12.029 60.377-18.267 2.468-1.756 2.89-2.634 2.35-4.897zm-11.106-2.389c.906-1.463 2.349-1.004 3.481 1.105 1.45 2.706 1.343 5.216-.222 5.205-1.493-.009-4.07-5-3.259-6.31zm-9.865 4.518c-.021-1.964 1.843-1.533 3.041.704 1.494 2.788 1.327 5.213-.359 5.213-1.325 0-2.65-2.923-2.682-5.917zm-13.878 4.811c.945-1.527 2.374-1.107 3.523 1.038 1.562 2.916 1.359 6.29-.34 5.64-1.738-.666-3.985-5.382-3.183-6.678zm-14.337 3.97c1.212-1.958 2.969.054 3.28 3.756.233 2.778-.045 3.765-.974 3.455-1.469-.489-3.171-5.812-2.306-7.211zm-15.672 3.655c.889-2.315 2.44-.637 3.278 3.547.526 2.63.322 3.312-.992 3.312-1.869 0-3.287-4.254-2.286-6.859zm74.272-5.746c-5.539-2.761-7.034-2.665-13.396.864-11.818 6.556-43.647 15.765-60.394 17.474-6.564.671-6.906.847-9.572 4.942-4.277 6.571-6.147 14.281-5.382 22.193 1.935 20.016 12.106 54.249 18.517 62.323 1.584 1.994 1.635 1.959 1.667-1.147.062-5.998 7.405-11.53 13.271-9.998 1.48.387 2.128-.197 2.677-2.405.399-1.603 1.683-3.94 2.854-5.193 1.994-2.134 2.024-2.434.471-4.802-1.386-2.113-2.8-2.645-8.646-3.256-9.568-1-17.037-3.952-20.786-8.217-8.087-9.197-3.262-20.672 9.193-21.867 4.817-.462 4.948-.568 6.189-4.996 1.366-4.872 6.436-10.187 10.746-11.268 8.814-2.208 18.07 8.557 18.07 21.015 0 3.621.427 4.449 2.976 5.765 2.934 1.515 3.014 1.48 5.619-2.45 1.563-2.358 4.324-4.728 6.761-5.802l4.119-1.814-3.043-3.837c-3.877-4.888-7.106-11.974-7.135-15.656-.032-4.069 2.441-9.445 5.25-11.41 4.42-3.092 13.621-1.592 17.286 2.818 1.128 1.357 1.857 1.241 6.004-.961 5.03-2.671 9.481-3.175 12.725-1.441 2.675 1.43 2.541.766-1.289-6.41-3.241-6.074-8.742-11.467-14.752-14.464zm-8.052 23.874c-7.115-4.332-13.073-.643-13.073 8.094 0 7.395 6.219 16.127 15.249 21.412 5.823 3.407 7.823 2.844 15.674-4.415 7.388-6.831 9.266-10.031 9.266-15.794 0-5.413-1.282-7.744-4.965-9.026-4.166-1.45-8.056-.436-11.494 2.997-3.516 3.511-4.725 3.675-6.242.844-.622-1.162-2.609-3.012-4.415-4.112zm34.722 21.662c-2.616-8.688-4.515-12.434-4.515-8.912 0 5.627-13.301 20.399-19.615 21.784-2.685.589-2.825.856-1.879 3.568.562 1.611 2.896 4.169 5.186 5.681l4.162 2.752 2.725-2.564c4.91-4.623 13.692-5.447 18.203-1.707 1.621 1.343.034-6.318-4.267-20.602zm-71.099-5.055c-3.019-2.37-8.275-2.776-10.749-.829-3.254 2.56-5.105 6.449-5.105 10.72v4.379l-6.302-.089c-8.196-.115-11.597 2.148-12.039 8.013-.575 7.618 6.887 13.32 18.899 14.44l6.655.62v-4.316c0-7.951 4.821-13.259 12.509-13.777l3.166-.213-.643-5.491c-.766-6.528-2.666-10.53-6.391-13.457zm38.221 16.771c-5.128-5.122-14.507-1.852-18.127 6.321-1.121 2.532-2.202 4.603-2.401 4.603-.199 0-2.379-1.152-4.846-2.56-8.806-5.027-16.983-2.224-17.985 6.164-.979 8.2 7.654 17.362 21.486 22.801 6.192 2.434 7.398 2.603 10.978 1.532 4.297-1.285 8.226-6.256 12.333-15.597 4.18-9.512 3.645-18.188-1.438-23.264zm35.068 12.212c-4.692-4.031-12.387-2.312-16.61 3.709-2.048 2.922-2.732 2.806-6.679-1.136l-3.348-3.342-1.374 6.042c-.756 3.324-2.638 8.361-4.183 11.195l-2.808 5.152 5.132 4.65c6.104 5.532 10.968 7.784 14.929 6.915 3.844-.843 13.95-11.541 16.641-17.615 2.77-6.255 2.11-12.297-1.7-15.57zm-69.78 22.234c-1.536-1.052-3.428-1.911-4.206-1.911-2.07 0-4.148 4.568-4.776 10.5-.043.397-2.28.466-4.971.152-4.017-.469-5.403-.17-7.729 1.666-3.569 2.819-3.627 6.135-.18 10.226 4.596 5.454 20.654 8.387 25.884 4.729 2.384-1.667 4.438-9.063 4.438-15.98 0-3.307-.516-4.354-2.834-5.756a145.851 145.851 0 0 1-5.626-3.626zm45.815 12.77c-1.559-.692-5.193-3.322-8.076-5.844l-5.243-4.588-2.767 2.764c-2.296 2.294-3.682 2.763-8.153 2.763-2.964 0-6.315-.341-7.449-.759-1.885-.694-2.081-.282-2.303 4.829-.134 3.074-.924 7.565-1.758 9.982-.833 2.415-1.394 4.513-1.246 4.661.836.835 39.829-10.898 39.829-11.984 0-.311-1.275-1.132-2.834-1.824zM347.543 839.162c2.834-1.124 9.551.176 11.631 2.252 2.568 2.564 3.501 10.864 1.801 16.009-1.785 5.399-8.919 13.941-13.103 15.686-4.661 1.945-8.523.727-16.663-5.259-10.356-7.612-13.391-18.263-6.829-23.957 3.229-2.801 10.198-3.134 13.741-.656 2.24 1.566 2.523 1.517 5.124-.901 1.514-1.408 3.448-2.836 4.298-3.174zm8.806 4.942c-1.391-1.389-3.13-2.516-3.864-2.503-2.754.049-7.8 3.278-8.905 5.699-1.05 2.303-4.28 3.588-4.28 1.703 0-1.36-5.835-4.338-8.501-4.338-5.856 0-7.867 8.14-3.579 14.495 3.359 4.975 12.701 11.232 16.772 11.232 2.55 0 4.159-.936 6.993-4.07 7.968-8.807 10.071-17.518 5.364-22.218zm233.949 25.605c2.198-2.195 3.289-2.546 6.369-2.046 4.688.76 6.348 2.417 7.109 7.099.5 3.076.149 4.165-2.049 6.36-1.754 1.752-3.778 2.648-5.981 2.648-7.482 0-10.843-8.674-5.448-14.061zm8.684 2.741c-2.538-2.534-3.279-2.555-6.224-.174-3.141 2.54-2.144 7.05 1.776 8.032 2.111.529 3.165.155 4.622-1.642 2.384-2.941 2.364-3.681-.174-6.216zm-481.356 18.414c5.499-4.447 13.516-.718 13.516 6.285 0 7.002-8.017 10.731-13.516 6.284-1.836-1.485-2.41-2.981-2.41-6.284 0-3.304.574-4.8 2.41-6.285zm8.539 2.842c-3.369-3.046-7.389-1.133-7.389 3.516 0 4.233 4.171 6.277 7.209 3.533 2.57-2.324 2.634-4.831.18-7.049zm575.071 9.276c1.9-.763 6.542-.79 8.477-.049 2.512.963 4.825 6.155 4.074 9.145-.803 3.194-5.057 6.681-8.15 6.681-3.094 0-7.347-3.487-8.15-6.681-.701-2.79 1.53-8.203 3.749-9.096zm7.045 3.464c-1.096-.585-2.372-1.05-2.834-1.034-6.028.224-5.843 9.488.19 9.488 4.625 0 6.606-6.336 2.644-8.454zm-203.765 74.53c4.05-1.76 3.24-1.754 7.34-.044 6.634 2.768 7.972 10.873 2.547 15.432-4.294 3.609-8.526 3.491-12.366-.343-5.008-5.002-3.803-12.316 2.479-15.045zm8.081 4.319c-2.534-2.289-5.914-2.148-8.42.355-2.817 2.814-2.585 5.614.677 8.176 5.976 4.695 13.368-3.448 7.743-8.531zm-80.721-794.59c1.509-.819 3.983-1.507 5.498-1.53 3.356-.05 8.64 4.182 9.502 7.609.535 2.129 1.232 2.503 4.571 2.458 17.09-.236 15.401 19.145-2.122 24.341-11.657 3.458-17.393 1.427-20.716-7.333-4.163-10.977-2.715-22.302 3.267-25.545zm9.865 4.683c-3.222-3.824-5.858-4.007-9.229-.64-2.111 2.107-2.53 3.525-2.53 8.563 0 7.293 2.496 15.134 5.483 17.223 2.788 1.95 5.171 1.927 12.052-.112 15.267-4.528 16.998-19.473 2.026-17.49-4.951.656-5.134.59-5.134-1.849 0-1.391-1.201-3.954-2.668-5.695zM926.155 212.2c3.732-3.726 10.699-3.487 15.189.519 2.856 2.549 3.365 3.704 3.365 7.635 0 5.374-2.879 9.205-8.247 10.974-10.929 3.602-18.674-10.772-10.307-19.128zm12.563 2.841c-1.312-1.231-3.652-2.238-5.2-2.238-3.58 0-7.873 4.209-7.873 7.718 0 3.58 4.291 7.719 8.003 7.719 6.747 0 10.029-8.547 5.07-13.199zM81.427 230.046c7.393-4.579 17.77.772 17.77 9.161 0 5.053-1.672 8.372-5.385 10.697-9.606 6.014-21.69-4.478-16.86-14.641.905-1.907 2.919-4.254 4.475-5.217zm12.36 4.978c-5.33-5.954-14.17-2.96-14.17 4.8 0 4.217 1.548 6.56 5.169 7.82 8.125 2.828 14.644-6.312 9-12.62zm441.361 8.4c3.343-2.704 9.994-2.234 25.701 1.813 15.315 3.948 20.86 4.347 28.437 2.052 2.782-.843 5.174-1.537 5.316-1.543.142-.007.258.945.258 2.114 0 2.651-1.471 5.489-5.505 10.628-2.894 3.686-3.163 4.713-3.367 12.863-.472 18.867-5.883 32.576-17.311 43.858-10.663 10.529-20.947 14.886-35.131 14.886-18.398 0-37.517-10.887-49.415-28.138-2.481-3.599-4.865-5.869-6.603-6.291-4.22-1.025-10.448-5.51-10.448-7.524 0-1.251 2.729-3.166 8.791-6.168 10.761-5.331 16.844-10.78 22.335-20.011 6.355-10.683 9.096-11.869 18.293-7.917 7.532 3.237 10.312 2.488 13.64-3.676 1.527-2.828 3.781-5.953 5.009-6.946zm19.123 41.193c.855-1.652 1.412-3.373 1.236-3.824-.177-.451-4.031.78-8.565 2.737-4.534 1.955-13.497 5.324-19.917 7.486-6.42 2.162-11.9 4.159-12.177 4.436-1.189 1.187 7.926 3.127 14.312 3.045 10.313-.132 21.072-6.078 25.111-13.88zm6.697-35.768c-9.479-2.279-18.462-4.144-19.962-4.144-2.842 0-3.768.971-8.974 9.418-3.898 6.326-6.764 6.956-15.942 3.506-5.001-1.88-7.457-2.334-8.785-1.623-1.015.542-4.007 4.45-6.65 8.684-5.832 9.344-11.501 14.492-22.006 19.979l-7.963 4.158 5.153 2.311c10.667 4.783 29.743 3.502 50.328-3.381 13.136-4.392 35.013-14.109 45.151-20.054 8.324-4.881 18.389-13.338 18.389-15.45 0-.711-1.901-.764-5.752-.161-5.039.789-7.888.387-22.987-3.243zm20.04 36.097c.867-4.187 1.441-10.29 1.274-13.565l-.303-5.953-4.122 2.557c-2.267 1.406-7.142 4.104-10.835 5.995-6.249 3.2-6.801 3.767-7.991 8.21-1.561 5.83-7.972 12.591-15.862 16.728-4.842 2.537-6.618 2.884-14.819 2.892-8.149.009-9.998-.343-14.743-2.802-5.251-2.721-5.682-2.775-13.353-1.709-4.36.606-9.434.858-11.277.561-1.887-.306-3.349-.097-3.349.477 0 .56 4.058 5.095 9.017 10.078 10.656 10.706 20.146 16.005 31.931 17.826 25.569 3.953 48.693-13.591 54.432-41.295zm285.269-28.941c5.473-2.209 11.976.427 14.581 5.908 4.662 9.81-6.539 19.604-16.022 14.01-7.395-4.364-6.502-16.714 1.441-19.918zm9.905 5.166c-3.069-3.065-8.584-2.745-11.26.653-3.988 5.062-1.665 11.084 4.752 12.322 6.7 1.292 11.404-8.086 6.508-12.975zm-248.521 1.523c3.295-1.849 8.918-1.293 11.617 1.147 4.896 4.423 2.817 13.7-3.539 15.796-5.144 1.695-10.176-.788-12.175-6.008-1.336-3.491.75-9.058 4.097-10.935zm9.243 3.828c-.681-.679-2.778-1.235-4.659-1.235-2.624 0-3.689.584-4.562 2.497-2.645 5.798 2.151 10.588 7.957 7.946 1.916-.871 2.5-1.936 2.5-4.556 0-1.879-.556-3.973-1.236-4.652zm-443.569 21.329c5.217-3.177 10.531-2.627 14.681 1.517 2.705 2.701 3.504 4.355 3.504 7.255 0 11.225-12.386 16.871-19.841 9.043-1.476-1.549-2.992-4.067-3.37-5.593-1.047-4.231 1.308-9.958 5.026-12.222zm12.081 4.113c-3.717-3.712-7.543-3.881-10.946-.482-3.205 3.2-3.43 8.924-.469 11.881 2.962 2.958 8.693 2.733 11.897-.468 3.404-3.398 3.235-7.219-.482-10.931zm-1.004 253.119c5.893-2.479 13.029 2.338 13.029 8.795 0 8.495-10.623 12.69-16.082 6.351-4.205-4.882-2.617-12.761 3.053-15.146zm8.052 4.838c-2.884-2.608-7.045-2.156-9.107.988-1.582 2.411-1.608 2.974-.249 5.403.964 1.723 2.571 2.833 4.409 3.046 5.664.654 9.024-5.754 4.947-9.437zm580.742-249.778c5.228-2.372 14.042-2.461 20.706-.21 3.65 1.234 6.989 3.622 11.872 8.49 7.154 7.134 9.481 11.845 10.86 21.996l.671 4.931 5.064-5.675c6.362-7.128 17-12.654 26.146-13.582 20.691-2.1 37.145 16.678 29.883 34.1-3.146 7.547-10.674 13.629-21.711 17.543-2.107.747-.478 1.362 16.294 6.141 8.793 2.504 8.821 2.68 4.349 26.334-6.43 34.012-8.6 42.095-12.285 45.765-3.867 3.849-13.029 7.062-27.573 9.671-9.596 1.722-11.451 1.76-21.539.441-14.244-1.863-28.551-4.81-42.602-8.774-23.121-6.524-29.84-10.178-31.107-16.92-.735-3.917 2.197-19.416 7.916-41.835 3.998-15.667 4.096-16.452 3.13-25.213-.578-5.243-.614-9.504-.086-10.141.642-.775 3.117-.711 8.411.216 4.125.724 8.778 1.333 10.338 1.356l2.837.041-4.053-3.656c-8.484-7.655-14.321-21.006-13.094-29.949 1.216-8.856 7.554-17.432 15.573-21.07zm22.037 4.178c-2.391-1.218-6.932-2.44-10.09-2.714-4.91-.427-6.561-.069-11.392 2.474-8.189 4.309-11.692 9.705-12.206 18.8-.333 5.884.028 8.015 2.134 12.61 2.906 6.338 7.762 12.219 13.558 16.417 4.131 2.991 8.899 3.675 15.895 2.277l3.17-.633-5.408-4.399c-9.298-7.564-14.787-16.511-13.559-22.098.996-4.53 5.105-7.694 9.991-7.694 3.624 0 4.719.581 7.954 4.221 2.062 2.322 5.749 8.249 8.192 13.173 3.261 6.571 4.854 8.797 5.985 8.363.848-.326 2.2-.591 3.004-.591 2.934 0 .956-18.646-2.746-25.894-2.692-5.269-9.032-11.536-14.482-14.312zm67.637 17.433c-5.663-2.583-16.846-2.472-23.905.239-6.386 2.451-14.331 9.312-18.751 16.19-3.769 5.866-3.854 6.471-1.137 8.164 1.822 1.138 2.754.725 7.98-3.525 14.172-11.528 27.233-12.947 31.197-3.39 3.095 7.461-3.714 12.504-22.148 16.406-9.833 2.081-13.239 3.798-10.532 5.311 2.079 1.162 18.161 3.96 22.725 3.954 13.839-.019 26.956-9.814 28.227-21.079.996-8.825-4.762-18.213-13.656-22.27zm-69.521 4.962c-8.282-9.42-16.842.062-9.363 10.372 2.969 4.092 14.81 14.643 16.434 14.643.449 0 1.647-.916 2.661-2.036 1.786-1.97 1.712-2.312-2.273-10.608-2.266-4.714-5.622-10.281-7.459-12.371zm59.732 11.636c-2.87-2.866-7.804-2.6-14.364.772-9.727 5.001-16.534 12.28-13.921 14.889.979.979 19.266-3.354 24.936-5.907 4.478-2.017 5.41-2.888 5.41-5.066 0-1.446-.928-3.556-2.061-4.688zm-34.819 11.694c-2.74-2.078-9.166-1.728-11.527.63-3.124 3.119-3.608 6.714-1.411 10.471 2.442 4.177 6.564 5.656 10.839 3.888 5.981-2.474 7.191-11.125 2.099-14.989zm-38.861 8.082c-6.801-.052-14.846-.524-17.878-1.05l-5.511-.955.616 5.522 1.251 11.182.634 5.66h4.428c11.335 0 29.261-5.827 37.274-12.115 2.073-1.627 2.16-2.107 1.03-5.681-1.22-3.857-1.284-3.895-5.356-3.186-2.267.394-9.687.675-16.488.623zm69.481 26.019c-.007-.566-5.912-4.986-13.126-9.823l-13.116-8.792-3.361 1.96c-3.915 2.284-4.03 1.529 2.588 17.169 4.647 10.984 6.781 13.88 9.467 12.85 2.77-1.061 17.557-12.324 17.548-13.364zm3.378-12.588c-15.293-4.227-21.85-5.715-21.85-4.955 0 .227 2.824 2.127 6.275 4.22 3.452 2.094 8.412 5.437 11.025 7.428l4.749 3.621 7.104-2.461c3.908-1.353 7.273-2.731 7.478-3.061.205-.332-6.447-2.488-14.781-4.792zm-45.293-1.25c-4.866-1.35-4.945-1.347-6.199.203-1.236 1.529-7.227 19.95-10.97 33.737-2.333 8.594-8.851 38.784-8.851 40.998 0 .672 9.497 3.426 9.919 2.876.073-.094 2.527-9.897 5.453-21.783 2.925-11.886 7.387-28.839 9.915-37.673 2.529-8.834 4.597-16.337 4.597-16.675 0-.336-1.739-1.095-3.864-1.683zm-14.787 13.359c1.703-5.356 3.001-9.83 2.886-9.943-.114-.111-1.539.496-3.167 1.349-8.007 4.198-29.234 8.646-34.587 7.248-1.17-.305-2.127-.386-2.127-.178 0 .207-1.208 5.142-2.683 10.966-1.475 5.824-3.757 16.069-5.07 22.766-2.817 14.373-2.325 17.211 3.487 20.156 4.131 2.093 23.044 8.317 25.272 8.317.957 0 1.949-3.019 3.125-9.519 2.171-11.993 8.811-38.402 12.864-51.162zm33.771 16.173c-.969-.707-4.026-6.526-6.794-12.93-2.767-6.404-5.259-11.266-5.538-10.805-1.459 2.417-14.034 49.977-18.75 70.918-.452 2 .263 2.286 9.594 3.833 5.545.92 13.392 1.98 17.436 2.355 7.141.663 7.44.596 10.321-2.289 2.25-2.256 3.766-5.825 6.288-14.807 3.972-14.148 10.073-43.942 9.179-44.834-.348-.348-3.752 1.724-7.563 4.606-7.116 5.38-10.808 6.409-14.173 3.953zm50.826-17.899c.003-1.78-.587-3.461-1.309-3.738-.722-.277-6.239 1.331-12.258 3.573l-10.942 4.077-.709 5.836c-1.731 14.249-11.063 53.37-14.104 59.123-.851 1.61-.616 1.754 1.918 1.18 18.678-4.238 24.472-7.023 26.054-12.524 2.044-7.109 11.345-54.249 11.35-57.527zM734.491 165.513c6.234-.426 12.079-.842 12.989-.926.909-.083 7.515.324 14.68.906 13.237 1.073 24.168 3.685 27.311 6.525 1.363 1.232 2.619 1.366 5.839.622 4.578-1.059 9.901-.411 14.115 1.72 10.123 5.115 12.816 19.215 5.362 28.062-3.351 3.976-14.67 9.623-22.704 11.325-5.916 1.254-6.402 1.586-8.428 5.751l-2.151 4.419 3.801.689c5.379.973 13.898 5.002 16.52 7.813 7.094 7.605-3.436 17.665-24.569 23.471-27.115 7.451-65.79 8.367-86.287 2.044-13.675-4.218-17.508-11.96-9.626-19.449 2.225-2.112 6.125-4.635 8.669-5.605l4.623-1.764-3.947-6.099c-5.258-8.124-9.76-19.187-11.757-28.893-2.142-10.405-2.061-13.765.386-16.209 6.755-6.746 29.312-12.634 55.174-14.402zm35.036 4.12c-8.398-1.21-31.451-1.185-43.161.049-24.343 2.564-45.976 9.598-45.976 14.949 0 1.863 9.253 6.183 10.178 4.753 1.12-1.731 6.607-4.052 13.523-5.723 13.707-3.311 24.393-4.303 46.372-4.303 18.813 0 22.751.268 26.104 1.783 3.484 1.574 4.282 1.613 6.774.325 1.553-.801 3.47-2.236 4.261-3.188 1.257-1.512 1.138-1.97-.945-3.656-2.808-2.27-7.259-3.567-17.13-4.989zm38.352 7.842c-4.024-1.907-11.609-2.227-14.393-.608-.992.578-1.804 2.151-1.804 3.496 0 2.343.237 2.424 5.499 1.881 3.288-.339 6.391-.09 7.718.62 3.135 1.675 5.518 6.717 4.705 9.954-.888 3.527-7.451 8.169-13.881 9.815-5.502 1.408-6.47 2.148-7.591 5.797-.919 2.992 1.113 3.042 9.313.224 12.271-4.216 17.931-10.052 17.931-18.491 0-5.81-2.729-10.429-7.497-12.688zm-34.745 6.335c-2.692-1.046-29.442-1.977-36.583-1.273-21.186 2.09-32.762 4.067-39.158 6.688l-3.091 1.267 3.091.743c1.7.408 11.438.789 21.64.844 18.952.104 34.777-1.398 46.966-4.457 9.771-2.454 10.132-2.646 7.135-3.812zm14.494 9.889c.632-4.749.992-9.075.799-9.613-.198-.551-1.476-.345-2.927.473-1.417.797-6.277 2.643-10.8 4.1-25.089 8.083-68.591 10.041-87.421 3.933-2.729-.885-5.164-1.407-5.411-1.16-1.023 1.022 3.964 17.173 7.527 24.374 4.541 9.178 14.352 20.061 21.669 24.038 10.593 5.757 25.657 7.476 37.817 4.313 21.452-5.58 35.142-23.408 38.747-50.458zm-47.893 13.476c3.982-2.074 5.815-1.979 8.928.466 3.672 2.886 4.29 6.471 2.002 11.635-2.275 5.136-8.616 11.031-11.831 10.999-3.753-.037-10.423-3.577-13.404-7.114-3.749-4.45-4.449-7.783-2.493-11.879 1.888-3.953 5.599-5.247 10.46-3.645 2.621.864 3.982.765 6.338-.462zm7.43 3.776c-1.887-1.885-5.277-1.476-7.684.928-2.063 2.059-2.293 2.081-4.8.44-1.449-.948-3.938-1.574-5.533-1.392-2.447.28-2.953.866-3.228 3.73-.27 2.803.383 4.105 3.743 7.461 5.763 5.755 9.972 5.688 15.052-.238 3.792-4.425 4.738-8.644 2.45-10.929zm56.653-24.331c-2.76-1.931-5.589-2.016-9.042-.271-2.113 1.067-2.725 2.376-3.412 7.297-.462 3.297-.636 6.198-.387 6.446.737.738 11.082-3.5 13.187-5.403 2.617-2.365 2.457-6.109-.346-8.069zm-14.979 42.642c-3.657-1.128-7.179-2.035-7.827-2.014-.649.019-4.002 2.928-7.451 6.463-10.33 10.589-23.111 15.565-39.586 15.414-13.081-.12-24.045-4.219-33.089-12.368l-3.72-3.351-6.131 3.059c-16.54 8.254-13.057 15.595 9.61 20.255 11.19 2.3 41.309 2.252 56.321-.089 24.362-3.8 43.991-12.107 43.991-18.617 0-2.85-5.234-6.629-12.118-8.752zm-425.323-53.595c6.623-1.64 7.222-1.115 7.137 6.264-.041 3.679-.896 10.023-1.901 14.097l-1.826 7.41 4.106 3.91c2.462 2.345 4.556 5.547 5.23 7.995 3.171 11.525-7.413 22.101-17.288 17.278-4.5-2.198-6.71-6.388-5.834-11.055.768-4.086 2.746-5.933 6.357-5.933 3.516 0 7.53 3.852 5.807 5.573-.945.943-1.691.8-3.271-.628-3.428-3.098-6-.854-5.244 4.574.743 5.332 8.231 6.853 13.11 2.663 2.518-2.165 2.891-3.216 2.891-8.166 0-4.89-.423-6.123-3.042-8.852-4.167-4.344-9.565-5.685-15.8-3.926l-4.859 1.37-.067 6.14c-.079 7.231-2.367 12.259-6.697 14.72-3.627 2.06-3.714 2.968-.707 7.387 3.173 4.663 9.229 7.56 16.725 7.999 5.217.307 7.104-.097 11.864-2.539 6.669-3.421 12.085-10.006 13.018-15.828.762-4.759 2.982-7.232 3.9-4.343.749 2.352-.737 7.653-3.415 12.185l-2.048 3.467 5.045 11.719c2.775 6.445 10.17 22.92 16.432 36.611 6.262 13.691 11.386 25.342 11.386 25.892 0 .55 2.445 2.08 5.434 3.4 10.775 4.759 11.516 8.031 3.583 15.819-10.288 10.099-12.923 10.145-19.963.347-3.971-5.525-5.147-6.351-18.033-12.654-17.183-8.404-27.438-12.272-40.384-15.23l-10.109-2.311-3.287 3.177c-12.72 12.293-32.366 5.943-36.173-11.694l-.677-3.139-11.042.049c-6.073.027-12.361-.317-13.974-.765-2.567-.711-2.848-1.161-2.24-3.598 1.297-5.194 4.086-9.975 8.243-14.127 4.936-4.929 9.835-7.4 17.82-8.989 3.246-.646 6.04-1.257 6.207-1.359.167-.102-.228-2.294-.878-4.872-1.072-4.253-1.693-4.936-6.718-7.391-3.045-1.488-7.167-4.608-9.161-6.935-4.403-5.137-7.978-14.233-7.557-19.234.304-3.625.386-3.687 5.317-4 4.37-.278 9.695.472 17.811 2.505 2.012.505 2.368-.028 3.431-5.146 1.612-7.751 8.199-15.206 15.608-17.664 5.118-1.698 14.764-1.689 20.059.016 1.833.589 2.416-.004 3.952-4.021 3.069-8.026 12.455-15.876 21.722-18.168zM425.86 322.93c0-1.29-11.901-7.339-12.757-6.484-1.281 1.279-.543 2.079 4.395 4.763 5.21 2.832 8.362 3.48 8.362 1.721zm-13.901-1.027c-.357-.575-1.006-1.045-1.445-1.045-2.306 0-1.703 1.817 2.114 6.37l4.234 5.05 4.959-4.653-4.607-2.338c-2.534-1.286-4.899-2.809-5.255-3.384zm-2.108 7.151c-4.524-4.588-6.661-6.065-6.661-4.604 0 .407 6.41 9.189 7.798 10.686.196.21 1.154.078 2.128-.296 1.48-.567.941-1.522-3.265-5.786zm-42.273-145.837c.553-4.04.422-4.371-1.731-4.334-6.016.104-14.935 6.104-18.732 12.602-4.362 7.463-4.742 9.238-2.552 11.939 1.903 2.345 2.042 2.363 6.091.744 2.28-.911 6.002-1.656 8.271-1.656 3.54 0 4.278-.397 5.19-2.792 1.141-2.997 2.497-9.456 3.463-16.503zm-31.339 18.524c-9.236-4.66-21.959-1.358-27.607 7.165-3.921 5.917-4.397 14.44-1.08 19.334 2.499 3.685 7.325 6.665 12.499 7.717 1.643.334 2.728 1.135 2.496 1.84-.696 2.109-4.569 1.999-9.721-.276-4.708-2.08-4.975-2.093-6.334-.324-6.072 7.908-5.534 20.742 1.17 27.919 3.807 4.076 9.406 6.345 15.657 6.345 7.265 0 11.525-1.779 15.739-6.571 2.704-3.076 3.333-4.667 3.333-8.437 0-8.943-4.657-13.806-13.221-13.806-7.497 0-13.572 5.756-13.572 12.859 0 5.51 8.564 10.08 12.16 6.488 2.208-2.205 1.457-6.617-1.45-8.519-1.802-1.179-2.345-2.098-1.65-2.793 1.756-1.753 5.4.197 7.127 3.814 1.407 2.945 1.447 3.911.28 6.727-2.949 7.107-13.385 7.471-17.573.613-5.484-8.981.829-20.759 12.283-22.921 7.681-1.45 16.658 4.363 18.756 12.144.859 3.187 1.838 4.219 5.562 5.865 6.252 2.761 8.176 6.003 7.532 12.692-.42 4.376-1.112 5.861-3.877 8.328-2.788 2.488-3.982 2.903-6.958 2.42-3.498-.566-7.46-3.193-7.46-4.946 0-1.221 3.865-1.088 4.637.16 1.3 2.099 6.498 1.093 8.684-1.683 3.73-4.736 2.443-10.419-2.995-13.229-4.085-2.108-4.845-1.973-5.592 1.001-1.012 4.026-6.421 9.438-11.496 11.505-4.101 1.669-4.573 2.186-4.026 4.401 2.548 10.313 18.145 15.934 28.336 10.213 8.219-4.612 11.69-17.538 7.301-27.188-2.317-5.096-9.173-11.185-16.09-14.291-5.655-2.54-11.615-8.026-12.487-11.496-.409-1.627-1.613-2.387-4.518-2.85-8.049-1.285-13.785-9.491-11.402-16.314 4.376-12.539 21.709-11.201 21.709 1.675 0 2.792-1.849 4.678-2.443 2.493-2.355-8.664-5.119-10.947-10.842-8.955-3.829 1.334-5.276 3.631-5.231 8.307.054 5.604 4.065 9.073 10.491 9.073 6.406 0 11.116-5.583 11.116-13.175 0-5.365-3.517-10.436-9.243-13.324zm-47.411 20.328c-3-.568-6.573-1.033-7.938-1.033-2.307 0-2.432.274-1.781 3.859 1.53 8.42 7.125 16.354 14.035 19.905 5.058 2.597 5.601 2.504 6.322-1.1.338-1.685 1.844-4.918 3.346-7.187 2.669-4.027 2.693-4.206 1.028-7.711-1.803-3.794-3.491-4.551-15.012-6.733zm98.277 36.605c-4.199-9.58-7.747-17.496-7.883-17.591-.137-.095-2.405 1.182-5.04 2.838-2.634 1.656-6.692 3.265-9.016 3.576-2.325.312-4.226.888-4.226 1.28 0 .393 1.222 1.837 2.716 3.21 6.096 5.599 8.651 16.328 6.03 25.328-3.776 12.975-17.268 19.93-29.537 15.228-1.161-.444-1.941.254-2.694 2.41l-1.059 3.034 6.346 1.234c11.407 2.219 27.715 8.087 42.414 15.26 12.572 6.134 14.849 6.928 17.711 6.18 3.751-.979 7.538-5.22 7.531-8.432-.002-1.197-3.526-9.818-7.831-19.157-4.304-9.339-11.262-24.818-15.462-34.398zm-82.415 8.357c-2.647-3.073-3.472-3.163-12.037-1.326-7.402 1.588-13.664 5.876-18.016 12.338-5.184 7.693-5.05 7.826 7.913 7.826 11.631 0 14.5-.944 14.5-4.771 0-.846 2.257-3.733 5.014-6.415l5.015-4.878-2.389-2.774zm13.326 7.757c-8.506-1.754-9.099-1.672-13.075 1.814-4.652 4.08-6.204 8.106-5.589 14.501 1.425 14.814 19.481 21.31 30.009 10.797 4.096-4.091 6.373-11.202 4.171-13.026-1.112-.922-1.616-.635-2.37 1.348-1.641 4.307-6.971 7.996-11.557 7.996-8.417 0-13.048-6.902-9.499-14.156 1.209-2.469 2.718-3.971 4.204-4.182 2.916-.413 3.079 1.932.258 3.692-2.952 1.841-2.815 7.827.23 9.956 5.64 3.946 13.169-.261 13.162-7.353-.002-2.149-.857-5.305-1.9-7.014-1.56-2.554-2.987-3.33-8.044-4.373zm338.001 42.386c11.8-2.859 24.54-1.149 35.701 4.792 7.169 3.816 17.198 13.802 22.141 22.046 4.799 8.005 8.781 20.679 8.781 27.947 0 24.647-21.431 52.32-61.314 79.176-15.479 10.421-26.174 16.39-27.262 15.213-2.282-2.466-15.082-38.206-18.567-51.843-5.045-19.737-4.803-41.279.646-57.629 3.815-11.444 7.282-17.176 15.299-25.291 7.644-7.739 15.115-12.12 24.575-14.411zm27.192 4.919c-22.763-8.39-48.308 3.019-59.915 26.76-5.103 10.436-6.876 17.931-7.533 31.827-.661 14.017.62 24.235 4.992 39.789 2.565 9.129 13.679 39.89 14.905 41.256 1.401 1.56 28.975-16.059 42.722-27.301 10.866-8.886 24.897-23.743 30.302-32.087 12.044-18.594 13.443-33.333 4.844-51.087-7.139-14.742-17.038-24.262-30.317-29.157zm-34.362 31.071c5.955-2.663 12.318-.01 16.999 7.086l2.459 3.729 3.94-2.008c10.547-5.373 22.572.843 22.572 11.669 0 12.339-18.101 30.366-33.327 33.191-3.809.707-4.162.52-9.302-4.907-6.316-6.67-11.527-16.473-13.171-24.775-2.171-10.965 1.668-20.335 9.83-23.985zm11.35 5.822c-4.736-4.153-9.342-4.224-13.645-.208-3.84 3.581-4.648 6.524-4.112 14.947.501 7.854 4.909 17.496 11.327 24.778 4.045 4.588 4.579 4.869 8.319 4.368 8.137-1.09 22.215-11.786 26.468-20.11 2.494-4.883 2.797-12.141.636-15.224-3.64-5.189-12.279-5.597-17.935-.843-3.988 3.35-4.91 3.202-6.306-1.019-.645-1.953-2.783-4.963-4.752-6.689zm-201.829-1.969c.963-2.746 3.261.793 3.875 5.971.741 6.242 4.003 12.848 7.464 15.113 1.431.935 5.483 2.743 9.004 4.016 3.521 1.274 6.402 2.919 6.402 3.656 0 .84-2.565 1.813-6.873 2.607-3.781.696-7.789 1.755-8.907 2.353-3.679 1.967-7.181 7.136-9.455 13.962-1.233 3.697-2.838 6.723-3.568 6.723-.806 0-1.824-2.518-2.591-6.406-2.45-12.443-5.313-15.525-18.379-19.795-3.004-.982-5.289-2.305-5.078-2.94.213-.635 3.244-1.733 6.737-2.439 12.959-2.619 15.074-4.877 21.369-22.821zm5.75 21.112c-.723-.871-2.152-3.784-3.174-6.474l-1.86-4.892-2.14 4.189c-2.671 5.23-7.284 9.172-12.584 10.758l-4.078 1.221 3.876 1.733c4.603 2.058 10.257 8.17 11.199 12.108 1.113 4.653 1.581 4.727 3.453.551 2.218-4.946 7.068-9.132 12.445-10.741l4.084-1.222-4.954-2.825c-2.723-1.554-5.544-3.537-6.267-4.406zm-134.975-19.506c10.259-3.621 21.831-1.135 27.089 5.819 4.803 6.354 7.053 19.258 4.753 27.266-.872 3.034-.783 3.344.773 2.689.967-.409 4.112-.965 6.988-1.235 11.369-1.071 18.673 6.664 17.702 18.747-.868 10.807-7.707 20.516-21.26 30.179-11.282 8.046-19.799 7.124-29.891-3.237-3.937-4.042-4.839-4.515-7.023-3.686-1.377.523-5.21.951-8.517.951-6.859 0-12.422-2.508-25.33-11.419-21.908-15.124-31.16-34.587-23.69-49.834 1.884-3.843 4.164-6.635 6.897-8.441 8.236-5.443 22.156-3.79 30.878 3.664l4.313 3.688 1.597-2.532c3.079-4.881 10.273-11.049 14.721-12.619zm17.967 3.291c-7.003-3.175-14.852-2.058-22.19 3.161-3.656 2.6-9.322 9.87-9.322 11.962 0 2.888-2.083 2.296-6.351-1.802-14.324-13.754-33.289-10.817-36.998 5.731-2.999 13.381 6.208 28.513 25.414 41.773 11.392 7.864 18.082 10.636 24.241 10.046 2.792-.269 5.305-.716 5.585-.997.28-.28-1.125-3.222-3.125-6.538-8.967-14.87-7.415-28.682 3.849-34.262 4.483-2.22 5.311-2.318 10.051-1.182 3.597.861 6.711 2.625 10.259 5.811l5.095 4.574 1.804-2.75c1.255-1.912 1.936-5.494 2.236-11.759.645-13.482-2.249-20.003-10.548-23.768zm-5.851 32.471c-10.469-5.406-20.802 3.194-19.074 15.875 1.015 7.451 5.263 14.846 13.625 23.723 11.435 12.139 16.752 13.064 27.897 4.854 14.173-10.442 21.046-21.732 19.347-31.777-1.941-11.477-16.199-14.453-25.821-5.391-3.683 3.468-6.598 4.609-6.598 2.581 0-1.651-6.293-8.273-9.376-9.865zm185.957-22.12c5.893-2.479 13.028 2.338 13.028 8.795 0 8.495-10.622 12.689-16.082 6.351-4.204-4.882-2.616-12.762 3.054-15.146zm8.332 5.422c-3.072-4.381-10.761-1.843-10.761 3.552 0 4.814 7.319 7.285 10.66 3.598 2.129-2.348 2.155-4.222.101-7.15zm394.219 1.102c3.967-2.003 6.068-1.605 9.475 1.797 2.601 2.599 3.023 3.672 2.49 6.334-1.259 6.287-5.79 8.916-11.36 6.593-6.54-2.729-6.903-11.542-.605-14.724zm7.008 4.02c-.68-.679-2.211-1.235-3.401-1.235s-2.72.556-3.401 1.235c-.68.679-1.236 2.208-1.236 3.396 0 1.189.556 2.717 1.236 3.396.681.679 2.211 1.235 3.401 1.235s2.721-.556 3.401-1.235c.68-.679 1.236-2.207 1.236-3.396 0-1.188-.556-2.717-1.236-3.396zM576.679 410.38c2.938-1.184 3.189-1.184 6.31 0 3.593 1.365 5.795 6.597 4.428 10.516-1.253 3.59-5.999 6.244-9.567 5.35-3.162-.792-6.691-5.038-6.691-8.049 0-2.849 2.708-6.684 5.52-7.817zm6.639 4.331c-.68-.679-2.21-1.235-3.4-1.235-2.762 0-4.637 1.873-4.637 4.631s1.875 4.631 4.637 4.631c4.113 0 6.291-5.141 3.4-8.027zm-58.073 17.845c14.287-3.201 18.268-1.962 22.522 7.01 9.351 19.723 22.647 65.268 20.983 71.885-1.703 6.78-8.85 10.59-43.448 23.158-29.919 10.869-79.031 23.448-86.752 22.218-4.432-.705-7.448-5.279-12.756-19.346-5.814-15.409-15.343-49.008-16.087-56.723-.589-6.104-.5-6.41 2.879-9.936 2.658-2.775 6.781-4.916 17.396-9.031 28.968-11.232 66.999-22.903 95.263-29.235zm14.181 6.647c.303-4.624.298-4.631-3.304-4.872-7.957-.533-61.5 14.576-92.571 26.122-22.154 8.232-29.026 11.243-29.026 12.715 0 .892 39.04 20.577 40.806 20.577.228 0 .413-.685.413-1.523 0-3.311 3.482-9.935 6.264-11.913 4.615-3.282 11.993-3.71 18.024-1.045 3.674 1.623 5.163 1.887 5.469.97.968-2.9 8.807-10.143 12.183-11.255 4.737-1.561 12.179-.69 14.927 1.747 1.191 1.057 2.953 3.197 3.914 4.753l1.748 2.831 7.863-11.642c9.31-13.786 12.878-21.158 13.29-27.465zm10.421 14.453c-2.576-6.534-5.002-12.466-5.39-13.182-.407-.751-1.693 1.762-3.041 5.939-1.63 5.057-5.235 11.554-11.949 21.54l-9.613 14.3-.735 16.805 18.549 5.919c10.202 3.253 20.306 6.673 22.452 7.597 3.852 1.658 3.916 1.648 4.83-.752 1.808-4.749-6.197-35.58-15.103-58.166zm-38.443 21.063c-6.544-6.26-16.995-3.133-21.654 6.477-1.417 2.924-2.969 5.322-3.448 5.33-.479.008-2.314-1.01-4.077-2.265-2.247-1.597-5.138-2.403-9.653-2.69-6.058-.385-6.635-.221-9.576 2.716-2.583 2.579-3.13 3.957-3.13 7.876 0 9.683 6.855 17.56 21.31 24.486 9.864 4.727 15.757 5.457 20.26 2.511 5.982-3.914 15.034-22.18 15.085-30.441.033-5.367-2.049-11.064-5.117-14zm-62.722 19.85c-4.334-2.005-14.309-6.721-22.166-10.48l-14.286-6.835.684 3.871c3.206 18.145 20.417 70.426 23.107 70.191.363-.032 2.746-2.688 5.297-5.902 2.55-3.215 9.435-11.767 15.299-19.002l10.664-13.157-3.746-4.14c-2.06-2.278-4.471-5.662-5.36-7.521-1.269-2.659-3.293-4.156-9.493-7.025zm91.562 14.848c-10.485-3.392-19.991-6.446-21.125-6.789-1.722-.52-2.645.504-5.608 6.217-8.97 17.299-16.594 19.419-35.946 9.997-4.152-2.021-7.663-3.517-7.803-3.324-.141.194-7.087 8.804-15.435 19.133-17.432 21.57-17.587 20.44 2.208 16.178 27.159-5.848 54.714-14.275 82.679-25.288 18.219-7.175 21.462-8.671 20.579-9.501-.266-.25-9.064-3.231-19.549-6.623zM148.275 336.431c.993-2.851 3.399.539 9.342 13.159 5.065 10.757 6.002 13.504 4.767 13.977-.846.323-1.633.416-1.751.205-3.853-6.949-12.668-26.451-12.358-27.341zm36.551 3.515c1.968-3.814 3.093-.565 2.365 6.837-.743 7.552-2.213 11.102-3.642 8.795-.944-1.526.008-13.171 1.277-15.632zm533.723 124.243c3.209-1.621 3.435-1.618 7.611.124 2.362.986 4.013 2.707 5.221 5.442 1.608 3.64 2.072 3.965 5.137 3.608 7.367-.859 13.69 5.859 11.779 12.516-2.119 7.378-12.166 13.277-22.907 13.447-4.35.069-5.35-.337-7.933-3.223-3.474-3.881-6.152-12.09-6.152-18.858 0-5.432 3.055-10.94 7.244-13.056zm6.621 3.439c-7.278-2.789-12.104 4.789-9.745 15.302 2.635 11.747 4.881 13.754 13.989 12.508 11.907-1.63 19.863-11.168 13.849-16.602-2.216-2.003-6.089-2.414-10.576-1.121-2.469.712-2.834.531-2.834-1.404 0-3.01-2.637-7.899-4.683-8.683zm-600.052-97.295c-.606-1.851 2.449-1.499 9.463 1.09 5.98 2.208 8.824 4.888 5.057 4.767-3.191-.104-14.074-4.493-14.52-5.857zm72.4 2.231c5.667-1.267 10.768-2.192 11.335-2.055.567.138 6.248 2.046 12.623 4.242 9.673 3.33 11.593 4.339 11.593 6.09 0 3.379-22.699 70.415-24.427 72.141-.866.864-1.91 1.435-2.321 1.269-64.065-26.008-71.148-29.05-71.148-30.559 0-.9 1.93-6.644 4.288-12.764 4.108-10.66 4.57-11.361 10.955-16.654 9.109-7.55 32.976-18.55 47.102-21.71zm20.896 5.04c-5.259-1.875-9.793-3.41-10.076-3.41-.803.001-24.635 16.911-24.687 17.516-.024.295 5.391 1.498 12.034 2.672l12.079 2.134 20.21-15.502-9.56-3.41zm-20.381-.999c0-.195-.349-.292-.773-.215-.425.078-1.932.342-3.349.588-4.551.789-34.397 14.739-38.128 17.82l-3.607 2.978 12.901-3.311c12.145-3.116 13.489-3.725 22.928-10.408 5.515-3.904 10.028-7.258 10.028-7.452zm20.809 35.608c4.894-14.685 8.822-26.664 8.729-26.618-.093.045-3.921 3.031-8.506 6.636l-8.337 6.554-.663 19.794c-.364 10.887-.54 19.916-.392 20.065.15.149 4.276-11.745 9.169-26.431zm-26.583-14.879c-4.476-.834-9.156-1.754-10.4-2.043-1.953-.456-2.915.671-7.07 8.282-2.645 4.846-4.608 9.01-4.363 9.255.245.245 7.244-2.645 15.552-6.423 8.309-3.777 14.951-7.023 14.762-7.212-.19-.189-4.006-1.026-8.481-1.859zm-17.927-.887c0-.863.217-.905-14.095 2.798-6.903 1.786-12.902 3.604-13.332 4.04-.778.789-7.51 17.55-7.202 17.93.089.109 5.251-.916 11.47-2.279 6.22-1.362 11.624-2.493 12.011-2.514.702-.037 11.148-18.754 11.148-19.975zm31.529 51.569c.251-.25.33-10.86.178-23.577l-.278-23.122-16.373 7.441a7752.886 7752.886 0 0 1-18.424 8.354c-1.784.795.324 2.894 16.195 16.136 10.036 8.372 18.452 15.018 18.702 14.768zm-25.736-16.054c-8.183-6.87-15.269-12.429-15.746-12.355-.477.074-5.488 1.138-11.134 2.364l-10.268 2.229 6.661 2.778c19.67 8.206 44.717 18.121 45.019 17.819.19-.19-6.349-5.965-14.532-12.835zM44.344 476.216c1.688-1.326 4.163-2.024 7.177-2.024 3.859 0 5.167.565 8.105 3.499 3.949 3.944 4.649 8.801 2.003 13.908-1.951 3.769-7.91 6.623-11.97 5.731-10.283-2.255-13.427-14.742-5.315-21.114zm10.939 2.227c-6.021-2.74-11.732.651-11.732 6.964 0 9.215 11.924 11.71 15.44 3.232 1.646-3.966-.008-8.513-3.708-10.196zm214.851 7.529c4.416-2.491 11.336-1.3 14.775 2.542 7.075 7.91.601 20.54-9.872 19.261-4.903-.599-9.669-4.89-10.531-9.479-.792-4.222 1.963-10.255 5.628-12.324zm11.538 4.607c-3.191-3.186-5.476-3.657-8.839-1.82-5.021 2.743-6.332 9.468-2.576 13.219 3.151 3.147 9.566 2.806 12.291-.654 2.959-3.757 2.679-7.194-.876-10.745zm505.655 4.967c2.644-3.007 6.837-2.252 10.474 1.885 1.783 2.028 3.497 4.962 3.808 6.52.532 2.654 1.067 2.91 8.459 4.056 13.882 2.153 26.359 9.808 33.059 20.284l2.678 4.186 12.613-7.775c6.936-4.277 12.601-8.013 12.589-8.304-.012-.29-3.56-2.75-7.884-5.466-5.487-3.446-7.535-5.265-6.781-6.018.688-.687 6.304-.949 15.404-.722 23.707.593 25.113 4.019 9.964 24.285-7.333 9.811-8.619 9.76-8.619-.343 0-4.527-.415-7.66-.988-7.461-.543.189-6.344 3.585-12.892 7.547-10.857 6.568-11.859 7.43-11.374 9.776 2.443 11.841 1.436 25.532-2.546 34.616l-1.866 4.259 4.029 2.945c5.076 3.71 10.179 11.171 10.179 14.882 0 3.283-4.156 7.102-7.728 7.102-3.393 0-7.903-3.919-7.527-6.54.172-1.203 1.192-2.354 2.267-2.559 1.38-.263 1.782.075 1.369 1.151-1.316 3.424 4.972 5.326 7.51 2.272 1.068-1.285.772-2.405-1.697-6.393-2.277-3.677-5.702-6.648-14.308-12.41-6.224-4.167-14.72-10.171-18.882-13.343l-7.567-5.765-3.425 1.842c-3.219 1.731-3.423 2.166-3.377 7.204.058 6.349-1.102 8.883-6.724 14.717-5.369 5.57-10.086 7.289-13.629 4.971-3.951-2.585-3.395-6.906 1.585-12.299 2.267-2.456 4.122-4.645 4.122-4.866 0-.219-2.208-.245-4.908-.058-9.388.65-13.841-6.573-7.125-11.559 3.83-2.843 14.877-2.975 20.465-.244 3.75 1.833 3.834 1.827 7.301-.545l3.508-2.4-3.441-12.316c-1.892-6.774-3.932-16.267-4.534-21.097-2.248-18.051-4.748-24.731-9.256-24.731-2.543 0-3.711 4.403-2.102 7.927 1.359 2.982.914 3.929-1.425 3.032-3.766-1.443-4.204-8.349-.778-12.245zm99 13.55c-1.185-.634-6.851-1.377-12.59-1.651l-10.436-.499 14.078 8.624-.34 6.486c-.188 3.569.009 6.271.436 6.005 1.302-.809 8.965-12.446 10.019-15.216.823-2.161.627-2.79-1.167-3.749zm-68.669 4.183c-3.638-1.121-8.39-2.039-10.562-2.039-3.852 0-3.939.082-3.54 3.344.225 1.839.664 5.645.977 8.456.814 7.328 6.808 29.363 7.988 29.363 1.444 0 29.655-17.544 29.655-18.442 0-.417-1.441-2.932-3.205-5.589-4.158-6.269-12.995-12.527-21.313-15.093zm27.833 38.61c.054-15.604.619-15.429-16.225-5.074-7.919 4.868-14.539 8.991-14.712 9.163-.429.425 17.993 14.202 22.691 16.97l3.777 2.226 2.22-7.012c1.569-4.961 2.228-9.721 2.249-16.273zm-49.717 8.707c-.833-.527-4.574-.964-8.311-.974-5.358-.012-7.167.394-8.55 1.92-1.653 1.824-1.652 2.039.005 3.695 2.049 2.046 9.022 1.446 14.297-1.23 4.17-2.115 4.312-2.305 2.559-3.411zm5.183 7.41c0-1.789-.365-3.254-.812-3.254-.446 0-2.916 2.201-5.487 4.889-10.148 10.612-12.356 14.664-7.992 14.664 5.945 0 14.291-9.518 14.291-16.299zM539.706 136.035c6.001-4.09 13.855-2.223 17.113 4.068 1.671 3.227 1.637 13.241-.059 17.402-.603 1.479-.06 1.452 4.976-.246 7.133-2.405 11.14-1.667 15.703 2.889 8.7 8.689 1.45 22.857-11.743 22.945l-3.38.023 2.302 3.11c3.073 4.15 3.869 14.699 1.46 19.352-4.972 9.598-18.281 7.751-23.797-3.302-1.415-2.837-2.574-5.859-2.574-6.716 0-.858-1.043.479-2.318 2.972-2.765 5.403-6.168 8.088-11.304 8.92-4.965.805-8.194-.082-12.03-3.305-6.064-5.095-6.108-13.307-.107-19.49l3.129-3.224-7.953-1.234c-4.375-.68-10.462-2.383-13.529-3.784-7.838-3.585-15.656-9.531-15.656-11.91 0-2.531 1.258-2.504 3.597.076 5.481 6.049 20.126 12.361 28.679 12.361h4.269l-3.735-2.535c-4.394-2.982-8.078-9.945-8.078-15.269 0-2.691.838-4.712 2.918-7.037 2.475-2.767 3.81-3.335 8.796-3.749 5.23-.432 6.444-.136 10.994 2.689l5.115 3.175v-4.347c0-5.45 2.805-10.829 7.212-13.834zm35.117 26.42c-5.121-5.115-10.837-4.07-21.893 4.001-3.833 2.798-4.581 3.865-4.18 5.963.768 4.009 6.914 6.581 15.727 6.581 6.732 0 7.581-.247 10.346-3.008 2.23-2.227 3.012-3.985 3.012-6.769 0-2.783-.782-4.541-3.012-6.768zm-31.617 7.591c-2.447-1.787-3.138-1.697-5.56.721-2.421 2.418-2.511 3.108-.722 5.552.891 1.216 2.357 1.712 4.38 1.483 2.504-.285 3.101-.882 3.387-3.383.23-2.02-.267-3.483-1.485-4.373zm-8.651 9.468c-1.739-2.093-2.875-1.962-8.865 1.018-6.095 3.033-11.531 8.067-12.387 11.468-2.09 8.315 7.147 15.275 14.934 11.253 3.674-1.897 5.635-4.549 7.674-10.377 2.508-7.168 3.057-11.818 1.393-11.818-.807 0-2.043-.695-2.749-1.544zm16.797.153c-3.801-1.955-4.431-2.06-4.431-.736 0 .528-.928 1.253-2.061 1.612-1.801.571-2.061 1.557-2.061 7.821 0 12.34 4.633 19.45 12.675 19.45 5.676 0 7.985-2.318 8.711-8.745.923-8.185-3.229-14.463-12.833-19.402zm1.334-39.66c-2.582-2.855-8.676-2.904-12.25-.096-5.132 4.031-5.954 12.11-2.188 21.509 1.322 3.3 2.233 4.117 5.216 4.676 4.501.844 5.694-.114 8.642-6.938 3.049-7.059 3.324-16.117.58-19.151zm-28.524 13.22c-5.719-2.913-9.776-2.611-13.388.995-3.604 3.6-3.76 6.419-.655 11.893 3.22 5.678 8.957 8.73 16.45 8.752 4.998.013 5.925-.27 5.925-1.812 0-1.007.751-2.901 1.669-4.209 1.25-1.784 1.411-2.945.642-4.631-1.827-4.002-6.594-8.925-10.643-10.988zm194.836-97.1c3.698-1.577 9.157-.237 11.65 2.861 3.633 4.51 4.015 10.459 1.187 18.461-3.242 9.172-6.616 12.718-12.097 12.718-5.516 0-14.142-3.299-18.922-7.236-10.097-8.319-5.573-22.068 6.621-20.121 3.603.575 4.294.311 6.716-2.564 1.485-1.763 3.666-3.616 4.845-4.119zm9.391 5.583c-3.653-5.208-11.197-2.605-13.406 4.624-.583 1.908-1.199 2.259-2.955 1.685-4.582-1.497-10.011-1.722-11.514-.475-2.209 1.831-1.872 7.499.637 10.684 4.358 5.534 17.123 10.182 21.515 7.835 5.547-2.965 9.356-19.173 5.723-24.353zM320.54 100.09c4.514-1.124 6.006-1.105 12.058.16 11.56 2.415 23.769 11.22 34.861 25.141l5.188 6.511 7.953-5.702c15.275-10.953 27.264-15.371 39.366-14.502 11.469.822 20.564 7.23 25.481 17.954 8.944 19.513-6.451 39.561-29.298 38.15-13.412-.829-22.244-6.646-38.427-25.307l-5.657-6.523-8.759 6.306c-10.228 7.364-18.942 11.731-26.586 13.323-7.435 1.548-10.853 1.434-18.173-.603-11.634-3.238-21.192-15.683-21.192-27.589 0-12.668 9.552-23.924 23.185-27.319zm20.716 6.744c-7.38-3.606-18.707-4.563-24.277-2.05-10.217 4.611-15.899 12.676-15.87 22.53.02 7.354 2.528 13.016 8.203 18.52 5.616 5.447 11.074 7.137 21.251 6.585 10.395-.565 15.218-2.541 28.834-11.811l10.003-6.811-3.291-4.577c-5.391-7.496-18.446-19.256-24.853-22.386zm89.031 11.134c-13.133-6.674-31.483-1.882-50.726 13.244l-3.839 3.019 6.647 8.022c9.052 10.928 13.997 15.178 22.029 18.94 15.582 7.296 32.988 1.752 38.927-12.398 4.233-10.089-2.211-25.325-13.038-30.827zm428.17 4.735c3.434 4.784 6.968 6.017 15.483 6.952 4.91.539 9.093 1.144 9.295 1.346.851.851-1.262 2.698-4.75 4.153-4.829 2.015-10.124 6.071-12.343 9.453-1.115 1.699-1.953 5.677-2.298 10.912-.334 5.073-1.019 8.396-1.782 8.647-.682.225-2.607-2.28-4.286-5.578-5.343-10.493-10.059-13.705-20.12-13.705-5.953 0-8.876-.695-8.876-2.111 0-.476 3.26-2.575 7.246-4.666 2.586-1.357 4.632-2.583 6.248-3.83-15.655 7.413-32.978 6.874-48.003-1.919-6.659-3.897-17.086-15.655-20.957-23.631-3.373-6.95-7.394-20.426-7.394-24.777 0-1.222-1.431-3.811-3.181-5.753-3.939-4.372-6.403-8.956-5.741-10.681.351-.912 4.184-1.458 12.709-1.808 13.227-.544 17.674-1.879 26.527-7.962 2.541-1.745 5.686-3.601 6.99-4.123 4.862-1.948 7.054-1.183 13.102 4.579 3.268 3.113 6.896 5.66 8.064 5.66 1.166 0 4.533-1.621 7.481-3.602 2.949-1.981 6.255-3.601 7.351-3.601 4.029 0 8.905 3.076 20.988 13.244 12.482 10.504 19.771 14.541 26.254 14.541 6.867 0 3.515 5.561-5.634 9.348-5.003 2.072-5.611 2.724-8.848 9.492-3.155 6.597-8.361 13.965-13.525 19.42zm-43.589-60.9c-3.655-3.396-7.017-6.175-7.472-6.175-.453 0-4.291 2.163-8.527 4.805-10.352 6.458-17.494 8.574-28.945 8.574h-9.209l1.541 2.976c3.05 5.89 13.736 12.467 26.79 16.487 12.62 3.886 24.892 5.378 49.091 5.969 24.937.608 33.779-.226 42.167-3.979l4.637-2.076-5.949-1.866c-6.408-2.011-9.87-4.306-20.415-13.539-10.156-8.891-17.291-13.417-19.866-12.601-1.185.375-4.42 2.239-7.189 4.141-2.769 1.903-6.153 3.459-7.52 3.459-1.614 0-4.82-2.168-9.134-6.175zm8.708 35.942c-7.624-.608-16.99-1.694-20.816-2.414-3.826-.72-6.956-.982-6.956-.584 0 1.897 8.761 10.344 12.703 12.25 9.154 4.426 23.813 1.812 30.499-5.438 2.344-2.541 2.373-2.709.464-2.709-1.119 0-8.272-.497-15.894-1.105zm23.534 29.982c.584-1.797.874-3.892 1.004-6.468.186-3.704.559-7.776.827-9.049.802-3.806 2.194-2.701 6.205 4.921.496.942.968 1.809 1.428 2.606a62.896 62.896 0 0 0 4.909-5.886c4.415-5.983 10.046-15.923 9.358-16.518-.179-.155-2.877.089-5.994.543-3.117.453-8.72.858-12.452.899-6.615.073-6.863.174-10.026 4.106-1.849 2.297-5.801 5.284-9.189 6.946-7.875 3.862-19.054 4.11-25.754.571-6.259-3.307-10.944-7.724-13.708-12.927-2.114-3.98-3.114-4.755-8.148-6.311-3.156-.975-8.097-3.032-10.979-4.569l-5.242-2.796.872 4.698c3.654 19.681 14.489 35.109 30.055 42.792 6.446 3.182 9.093 3.886 16.297 4.333 11.273.7 21.61-2.006 30.537-7.891zm8.988-2.663a40.089 40.089 0 0 1-3.313 2.822 63.044 63.044 0 0 1-2.975 2.112c-1.696 3.404-4.025 6.408-6.234 7.772-4.12 2.543-4.434 4.026-.852 4.026 1.436 0 4.109.626 5.942 1.39 3.485 1.455 9.975 8.069 10.029 10.223.056 2.217 1.733-1.655 2.454-5.666.77-4.285 4.652-9.421 9.214-12.191l3.027-1.839-4.014-.727c-2.207-.4-5.242-1.347-6.745-2.106-1.501-.758-4.376-3.3-6.389-5.648l-.144-.168zm-2.253-2.628-1.262-1.473-.608 2.956-.043.205a54.722 54.722 0 0 0 1.913-1.688zm-666.027 21.672c3.748-1.999 5.725-2.388 10.305-2.024 3.117.247 7.059 1.068 8.759 1.824 1.701.755 6.802 1.424 11.336 1.486 13.483.184 23.858 6.548 30.208 18.528 3.739 7.054 3.891 19.198.331 26.443-1.499 3.05-2.121 5.633-1.685 7.006.381 1.196.152 4.421-.509 7.169-5.624 23.413-43.372 23.219-55.298-.284-2.501-4.929-2.591-4.991-4.612-3.165-4.305 3.891-16.353 24.433-16.353 27.882 0 .264 1.412-.708 3.138-2.159 5.46-4.587 17.264-6.336 25.175-3.728 5.357 1.765 5.256 3.631-.509 9.387-7.148 7.139-16.995 11.656-25.484 11.691-6.296.026-6.44.088-6.441 2.796-.001 2.964-1.679 4.721-3.116 3.264-1.132-1.148 1.305-14.589 4.062-22.403 1.179-3.343 2.145-6.2 2.145-6.35 0-.149-1.365-.571-3.032-.936-7.458-1.636-15.406-10.3-17.613-19.202-1.415-5.703.107-14.905 3.069-18.558l1.87-2.306 7.39 7.125c5.335 5.144 8.416 9.198 11.083 14.586l3.693 7.463 3.084-4.338c1.696-2.385 4.218-5.555 5.604-7.043l2.518-2.706-5.054-5.048c-3.252-3.249-5.667-6.842-6.773-10.083-4.668-13.683 1.081-30.11 12.709-36.317zm9.951 82.406c-.396-.395-3.376-.868-6.623-1.05-9.416-.529-17.661 3.498-21.415 10.459-1.75 3.248-1.808 3.841-.459 4.726 2.333 1.53 7.954.252 15.97-3.631 7.159-3.467 13.908-9.126 12.527-10.504zm34.502-74.151c-4.847-2.506-7.841-3.363-11.747-3.363h-5.242l2.499 2.672c1.373 1.471 4.352 3.603 6.62 4.739 8.926 4.474 16.89 15.573 17.046 23.758.056 2.955 3.583 9.57 4.399 8.251.345-.558 1.127-3.244 1.739-5.969 2.583-11.508-3.86-24.167-15.314-30.088zm-9.83 7.333c-2.89-1.344-6.751-2.448-8.582-2.453-2.843-.01-3.631.582-5.41 4.065-1.145 2.241-2.082 5.162-2.082 6.489 0 2.3.329 2.412 6.956 2.357 5.357-.045 7.823.455 10.733 2.172 2.079 1.227 4.049 1.959 4.38 1.629.814-.812.765-7.898-.07-10.068-.369-.962-3.035-2.848-5.925-4.191zm-18.87 3.968c.838-2.405 1.231-4.359.872-4.341-1.618.081-6.41 4.503-8.447 7.793-5.253 8.488-4.443 16.892 2.372 24.626 5.013 5.686 10.501 8.627 17.601 9.431l5.34.604-6.98-7.276c-10.432-10.872-14.075-21.318-10.758-30.837zm33.667 17.546c-.026-3.738-.748-7.291-1.931-9.509l-1.888-3.54-1.662 5.713c-1.915 6.579-8.479 13.523-13.908 14.714-1.781.39-3.238 1.126-3.238 1.633 0 1.077 10.059 9.204 11.392 9.204 1.579 0 8.236-6.37 9.785-9.364.822-1.586 1.474-5.567 1.45-8.851zm-14.662-5.479c-3.543-2.157-12.406-2.776-15.129-1.057-1.273.804-1.13 1.725.949 6.16 2.891 6.163 5.108 6.659 11.929 2.668 5.863-3.432 6.39-5.249 2.251-7.771zm-53.787 27.454c-1.556-3.07-5.543-8.265-8.859-11.543l-6.03-5.958-1.075 2.82c-1.636 4.301-1.244 11.992.848 16.59 3.206 7.047 11.098 12.679 16.288 11.625 2.794-.567 2.257-6.766-1.172-13.534zm74.597-3.14c-.043-2.888-.685-6.872-1.426-8.853l-1.348-3.601-1.103 2.776c-1.844 4.635-8.276 10.895-13.077 12.726-5.797 2.21-14.846 1.644-21.11-1.322-4.425-2.094-12.471-4.627-13.006-4.094-.813.812 4.059 9.197 7.122 12.254 15.588 15.567 44.232 9.123 43.948-9.886zm-35.474-51.615c-15-8.779-30.648 2.244-30.758 21.666-.043 7.799 1.547 12.104 6.402 17.332 2.231 2.402 9.219 6.852 10.761 6.852.217 0-.924-2.612-2.536-5.805-4.423-8.757-3.49-17.341 2.78-25.549 3.247-4.252 11.898-8.781 16.772-8.781 3.079 0 3.36-.205 2.198-1.603-.733-.881-3.261-2.732-5.619-4.112zM168.03 26.877c8.57-5.219 17.149.203 17.149 10.836 0 7.248-10.083 21.288-16.136 22.47-6.084 1.188-19.19-7.2-23.047-14.752-2.929-5.733-2.654-10.549.825-14.438 3.35-3.744 8.113-4.365 13.373-1.745 2.095 1.044 3.562 1.277 3.963.629.35-.566 2.094-1.916 3.873-3zm9.966 2.154c-3.749-2.004-7.113-.713-11.5 4.413l-2.709 3.166-3.295-2.769c-7.754-6.515-16.04-.547-12.081 8.702 2.546 5.948 13.383 14.257 18.594 14.257 3.843 0 9.349-5.69 12.809-13.236 2.244-4.895 2.395-5.969 1.334-9.503-.657-2.191-2.075-4.455-3.152-5.03zM333.64 929.303c-3.387-1.716-7.463-2.774-11.859-3.077-5.898-.406-7.372-.106-12.347 2.512-10.171 5.354-16.145 16.41-17.24 31.913-.526 7.456-.391 8.534 1.081 8.534 1.033 0 2.94-2.488 4.93-6.432 7.853-15.562 12.415-20.325 19.471-20.325 9.043 0 14.175 8.994 9.873 17.303-1.787 3.45-10.954 12.201-16.893 16.126-3.175 2.098-4.049 3.164-3.09 3.771 6.126 3.881 28.573-7.497 36.217-18.36 5.559-7.896 4.568-19.811-2.208-26.577-1.526-1.524-5.097-3.949-7.935-5.388zm-67.588 13.598c-9.386-4.749-21.921-5.022-29.025-.63-17.431 10.774-15.602 30.926 3.729 41.11 5.049 2.659 5.961 2.784 20.399 2.784 8.313 0 15.427-.313 15.809-.695.382-.382.411-1.589.062-2.683-.451-1.419-2.619-2.519-7.564-3.836-14.055-3.745-21.876-8.763-21.876-14.037 0-1.063 1.578-3.653 3.506-5.754 2.898-3.158 4.195-3.816 7.471-3.793 5.669.041 10.973 2.961 17.607 9.691 5.395 5.473 5.978 5.797 8.643 4.793l2.858-1.078-3.724-7.078c-4.589-8.719-10.727-15.167-17.895-18.794zm57.321 5.141c-3.092-3.089-7.266-3.225-11.107-.361-2.604 1.94-14.229 20.928-14.152 23.113.051 1.42 3.737 5.594 4.94 5.594 2.351 0 16.949-12.038 19.788-16.318 3.724-5.615 3.86-8.705.531-12.028zM264.4 960.059c-5.698-2.95-12.692.085-12.692 5.507 0 3.137 6.294 6.616 17.685 9.774 6.999 1.94 7.656 1.969 8.815.395 1.018-1.383.865-2.245-.823-4.612-2.231-3.129-9.314-9.163-12.985-11.064zm31.699 15.221c-2.056-2.053-4.045-3.008-6.263-3.008-4.433 0-9.274 4.835-9.274 9.262 0 4.427 4.841 9.262 9.274 9.262 4.433 0 9.275-4.835 9.275-9.262 0-2.215-.957-4.201-3.012-6.254zm358.203-34.681c-.192-7.516-.787-14.101-1.321-14.634-1.531-1.529-11.041 3.407-15.887 8.246-4.754 4.748-7.768 10.641-8.829 17.265l-.693 4.331h3.771c2.073 0 6.573.942 9.996 2.094l6.225 2.094 7.091-5.732-.353-13.664zm-67.315-3.282c-3.08-1.15-6.806-2.092-8.28-2.092-2.637 0-2.669.089-2.024 5.572.361 3.065 1.937 9.432 3.504 14.15 2.469 7.433 3.19 8.621 5.412 8.904 6.338.805 10.708 2.627 14.499 6.048 2.249 2.03 4.229 3.51 4.397 3.289 2.942-3.854 4.792-7.295 4.792-8.912 0-1.11-1.645-5.302-3.657-9.316-4.354-8.693-10.659-14.66-18.643-17.643zm396.854-418.102c1.02-2.409-.227-2.188-4.907.873-4.958 3.24-7.938 8.104-7.943 12.959-.002 2.089-.508 4.109-1.123 4.489-.616.38-3.385-.54-6.152-2.045-4.802-2.61-16.286-5.672-21.416-5.71-2.004-.015-.982 1.346 6.069 8.082 4.663 4.454 8.179 8.582 7.813 9.173-.365.59-2.738 2.075-5.273 3.301-4.686 2.266-10.837 7.323-10.837 8.911 0 .48 4.104.873 9.119.873h9.12l3.418-4.952c3.83-5.548 10.969-12.182 16.61-15.437 3.734-2.153 3.749-2.189 4.244-10.438.273-4.553.839-9.088 1.258-10.079zm-7.836-384.108c-.177-3.377-2.019-6.666-10.254-18.316-5.522-7.809-10.267-13.83-10.545-13.378-1.035 1.679-6.876 26.884-8.418 36.325l-2.143 13.121c-.382 2.345-.146 3.329.791 3.294.734-.028 8.058-2.765 16.276-6.084 13.547-5.47 14.922-6.258 14.726-8.44-.119-1.323-.314-4.258-.433-6.522zM586.185 14.465c-1.37 0-3.254-.292-4.187-.65-1.522-.583-1.624.23-1.002 7.976.932 11.611-1.115 33.051-4.844 50.726-4.413 20.92-4.498 21.763-2.494 24.817 2.225 3.391 7.582 6.652 10.935 6.658 1.854.003 9.346-5.419 25.762-18.644C628.161 71.003 657.556 48 659.502 46.886c.131-.075-2.419-2.885-5.668-6.245-3.586-3.71-6.547-7.923-7.542-10.73l-1.637-4.62-1.935 4.072c-5.644 11.877-20.696 19.027-33.86 16.085-11.896-2.659-20.183-12.921-20.183-24.993 0-5.65-.142-5.99-2.492-5.99zm-19.286 92.521c5.907-9.563 4.373-11.542-2.336-3.013-4.559 5.794-5.641 9.17-3.194 9.962.567.183 3.054-2.944 5.53-6.949zm7.014 6.522c1.847-6.574 2.003-8.212.892-9.357-1.122-1.155-2.065-.202-5.6 5.66l-4.251 7.048 2.844 2.311c1.566 1.271 3.077 2.309 3.361 2.308.283-.001 1.523-3.587 2.754-7.97zm7.836 1.036c1.422-7.04 1.402-7.461-.335-7.461-3.009 0-7.491 15.506-4.936 17.083 1.947 1.202 3.75-2.089 5.271-9.622zM291.768 23.727c-2.223-12.169-4.147-22.445-4.275-22.834-.128-.389-3.204 4.915-6.835 11.786-3.632 6.872-7.668 13.558-8.971 14.858-4.034 4.029-7.285 3.114-16.934-4.766l-4.321-3.528.716 7.644c1.025 10.949 4.303 32.332 6.302 41.106 2.416 10.606 4.498 12.342 14.761 12.306 8.922-.032 26.825-1.613 27.654-2.441.765-.764-3.248-27.588-8.097-54.131zm37.298-13.926c-5.344-1.429-12.648-4.153-16.23-6.053-3.581-1.899-6.512-3.338-6.512-3.196 0 .142 1.149 5.341 2.554 11.555 3.302 14.608 6.551 34.658 8.137 50.21l1.261 12.35 4.177-.181c7.225-.31 25.377-5.392 28.031-7.846 2.341-2.166 2.425-2.716 1.928-12.555-.287-5.66-1.573-17.353-2.859-25.985l-2.338-15.693-4.216-.004c-2.317 0-8.588-1.172-13.933-2.602zM50.356 140.41c1.18-7.272 2.005-13.594 1.834-14.05-.171-.456-2.038.671-4.15 2.502-2.111 1.833-8.951 5.986-15.2 9.227-6.247 3.242-11.36 6.401-11.36 7.02 0 .618-1.122 2.593-2.493 4.389l-2.494 3.264 11.51 12.55c11.016 12.009 11.58 12.463 13.14 10.568 2.255-2.741 6.648-19.653 9.213-35.47zM70.589 400.1c-12.71-5.506-25.666-1.741-38.624 11.222-6.492 6.494-15.457 18.206-14.52 18.97 4.44 3.63 22.554 13.571 27.516 15.102 19.398 5.983 36.666-2.418 40.56-19.733 2.09-9.289-4.87-21.202-14.932-25.561zM9.559 596.769c.84-1.358 4.64-1.481 6.643-.214 1.927 1.219.527 3.191-2.253 3.171-3.012-.022-5.267-1.539-4.39-2.957zm-4.081-26.823c.728-1.175 1.979-.715 4.925 1.811 2.332 2.001 2.294 3.286-.098 3.286-2.358 0-5.758-3.591-4.827-5.097zm71.227 410.882c2.262-2.404 4.973-3.184 4.973-1.432 0 1.328-5.131 7.283-6.274 7.283-1.73 0-.963-3.443 1.3-5.851zm886.038-398.771c0-1.964 1.743-1.669 5.925 1.003 2.402 1.535 3.17 4.332 1.189 4.332-2.318 0-7.114-3.595-7.114-5.335zm25.217 3.325c.537-.868 1.396-.757 3.18.411 1.345.88 3.129 1.599 3.966 1.599 2.18 0 3.195 2.127 1.517 3.179-2.842 1.783-10.237-2.647-8.663-5.189zm-10.316-23.65c.737-1.193 1.98-.742 4.936 1.793 1.825 1.565 2.507 5.344.965 5.344-1.616 0-6.593-6.02-5.901-7.137z" fill="#000"/></svg>