<svg width="250" height="250" viewBox="0 0 1000 1000" fill="none" xmlns="http://www.w3.org/2000/svg"><g clip-path="url(#a)"><path fill="none" d="M0 0h1000v1000H0z"/><path d="M693.51 609.285a8.757 8.757 0 0 0-6.45 10.56c1.14 4.7 5.86 7.59 10.56 6.45 4.7-1.14 7.59-5.87 6.45-10.56-1.14-4.7-5.86-7.59-10.56-6.45zm3.65 15.07c-3.62.88-7.27-1.35-8.15-4.97-.88-3.62 1.35-7.27 4.97-8.15 3.62-.88 7.27 1.35 8.15 4.97.88 3.62-1.35 7.27-4.97 8.15zM976.75 777.585c.27-.23.39-.58.34-.92a1.01 1.01 0 0 0-.61-.76l-.38.93.65.76v-.01zM651.22 915.245c-.55 0-1 .45-1 1 0 3.92-.83 8.88-2.48 13.57-1.65 4.71-4.09 9.02-7.23 11.73-.26.22-.39.57-.33.92.06.34.29.63.61.76l10.06 4.11.38-.92.63.78c4.96-4.01 8.09-10.05 10-15.86 1.91-5.83 2.63-11.55 2.71-15.07 0-.27-.1-.53-.28-.72-.19-.19-.45-.3-.71-.3h-12.36zm8.73 15.46c-1.79 5.45-4.63 10.87-8.93 14.54l-8.05-3.29c2.93-2.99 5.14-7.16 6.66-11.47 1.58-4.51 2.44-9.26 2.57-13.24h10.32c-.18 3.37-.9 8.37-2.57 13.46zM951.53 717.535a8.962 8.962 0 0 0-3.73-17.53 8.962 8.962 0 0 0 3.73 17.53zm-3.32-15.57c3.76-.8 7.46 1.6 8.26 5.36.8 3.76-1.6 7.46-5.36 8.25-3.76.8-7.45-1.6-8.25-5.36-.8-3.76 1.6-7.46 5.35-8.26v.01zM730.02 661.625c-.36.12-.63.44-.68.82l.99.14.72-.69a.995.995 0 0 0-1.03-.26v-.01zM0 36.455c.91-.43 1.92-.86 3.04-1.27 3.6-1.33 8.16-2.51 13.16-3.41 9.86-1.78 21.27-2.45 30.19-1.09l43.98 55.89c-11.89-5.01-30.64-13.25-48.89-22.01-15.86-7.61-31.27-15.56-41.48-22.08v2.37c10.33 6.47 25.32 14.18 40.62 21.51 18.33 8.79 37.16 17.07 49.07 22.09l-6.53 13.97c-12.15-4.93-31.02-12.92-49.32-21.37-12.32-5.69-24.32-11.55-33.83-16.81v2.29c9.44 5.17 21.11 10.85 32.99 16.34 18.29 8.44 37.13 16.42 49.31 21.37l-6.76 14.46c-16.43-5-48.81-16.77-75.55-31.73v2.28c27.2 15.07 59.81 26.81 75.8 31.62.48.14.98-.09 1.19-.53l7.49-16.04c.05-.07.1-.13.13-.2.02-.05.01-.09.03-.14l7.92-16.95c.16-.34.11-.74-.12-1.04l-44.73-56.84c-.16-.2-.38-.33-.63-.37-9.28-1.48-21.12-.79-31.25 1.04-5.07.92-9.75 2.12-13.49 3.5-.83.31-1.61.62-2.35.95v2.2H0z" fill="#fff"/><path d="M43.09 44.315c1.76-3.77.14-8.26-3.63-10.02-3.77-1.76-8.26-.12-10.02 3.65-1.76 3.77-.14 8.26 3.63 10.02 3.77 1.76 8.26.12 10.02-3.65zm-11.84-5.53a5.543 5.543 0 0 1 7.36-2.68c2.77 1.29 3.96 4.59 2.67 7.36a5.543 5.543 0 0 1-7.36 2.68c-2.77-1.29-3.96-4.59-2.67-7.37v.01zM448.8 943.495c.36.04.72-.11.94-.4l-.81-.59-.13.99zM650.85 947.345c.34.14.72.09 1.01-.14l-.63-.78-.38.92zM697.34 995.115l4.78-13.74c.92-2.63-1.54-5.2-4.21-4.39l-13.93 4.18c-.43.13-.9.05-1.26-.22l-11.59-8.8c-2.22-1.69-5.42-.14-5.48 2.65l-.32 14.54c-.01.45-.24.87-.61 1.13l-11.95 8.3a3.5 3.5 0 0 0-1.08 1.23h2.83l11.33-7.88c.9-.62 1.44-1.63 1.47-2.73l.32-14.54c.03-1.15 1.35-1.79 2.27-1.1l11.59 8.8c.87.66 2 .86 3.05.55l13.93-4.19c1.11-.33 2.12.73 1.74 1.82l-4.78 13.74c-.36 1.03-.2 2.17.42 3.07l1.71 2.465H700l-2.5-3.605c-.26-.37-.32-.84-.17-1.27l.01-.01zM613.85 748.715c2.01-.81 4.12-2.04 6.15-3.44 4.04-2.78 7.82-6.28 9.83-8.63 3.58-4.19 4.15-10.5.99-15.28v-.02l-.03-.02c-3.94-5.36-11.47-6.16-16.8-2.73-3.7-5.15-11-7.16-16.63-3.62h-.02l-.02.03.57.82-.58-.82c-4.7 3.29-6.48 9.37-4.68 14.58 1.01 2.92 3.25 7.57 5.99 11.63 1.37 2.03 2.89 3.95 4.46 5.45 1.55 1.48 3.26 2.63 5.01 2.96 1.75.33 3.76-.11 5.75-.92l.01.01zm-5.55-.13.17-.92c-1.19-.23-2.56-1.07-4.01-2.44-1.43-1.36-2.85-3.15-4.18-5.12-2.65-3.93-4.81-8.42-5.76-11.16-1.52-4.39 0-9.52 3.92-12.28 4.72-2.96 11.04-1.22 14.12 3.38.26.39.67.59 1.02.66.35.07.8.03 1.18-.24l-.51-.74.03.05.48.69c4.56-3.16 11.07-2.45 14.38 2.03 2.64 4 2.17 9.32-.85 12.85-1.89 2.21-5.54 5.59-9.45 8.28-1.95 1.34-3.93 2.49-5.76 3.23-1.85.75-3.43 1.03-4.62.81l-.19.98v-.06h.03zM532.49 857.335c.33-.17.99-.71.73-1.56-.69-2.3-1.66-6.01-2.17-9.98-.52-3.99-.55-8.12.56-11.31 1.11-3.19 3.69-6.41 6.56-9.23 2.86-2.8 5.93-5.11 7.89-6.49.73-.51.55-1.34.39-1.67-.16-.33-.7-.99-1.55-.73-2.3.69-6.01 1.66-9.98 2.17-3.99.52-8.12.55-11.31-.56-3.19-1.11-6.41-3.68-9.23-6.56-2.8-2.86-5.11-5.93-6.49-7.89-.51-.73-1.34-.55-1.67-.39-.33.16-.99.7-.73 1.55.69 2.3 1.66 6.01 2.17 9.98.52 3.99.55 8.12-.56 11.31-1.11 3.19-3.68 6.41-6.56 9.23-2.86 2.8-5.93 5.11-7.89 6.49-.73.51-.55 1.34-.39 1.67.16.33.7.99 1.55.73 2.3-.69 6.01-1.66 9.98-2.18 3.99-.52 8.12-.55 11.31.56 3.19 1.11 6.41 3.68 9.23 6.57 2.8 2.86 5.11 5.93 6.49 7.89.51.73 1.34.55 1.67.39v.01zm-16.74-16.73c-3.63-1.26-8.14-1.18-12.22-.66-2.53.33-4.94.83-6.97 1.34 1.66-1.29 3.55-2.87 5.37-4.65 2.95-2.89 5.79-6.37 7.05-10.01 1.26-3.63 1.18-8.13.66-12.22-.33-2.53-.83-4.94-1.34-6.98 1.29 1.66 2.87 3.55 4.65 5.37 2.89 2.95 6.37 5.79 10 7.05 3.63 1.26 8.14 1.18 12.23.66 2.53-.33 4.94-.83 6.97-1.34-1.66 1.29-3.55 2.87-5.37 4.65-2.95 2.88-5.79 6.37-7.05 10-1.26 3.63-1.18 8.14-.66 12.23.33 2.53.83 4.94 1.34 6.98-1.29-1.66-2.87-3.55-4.65-5.37-2.89-2.95-6.37-5.79-10.01-7.05zM522.3 880.335c1.44-1.41 2.98-2.57 3.97-3.27.66-.47.48-1.21.36-1.47-.13-.26-.6-.86-1.37-.63-1.16.35-3.03.84-5.02 1.1-2.02.26-4.03.26-5.56-.27-1.52-.52-3.1-1.78-4.53-3.23-1.4-1.44-2.57-2.98-3.27-3.97-.47-.66-1.21-.48-1.47-.36-.26.13-.86.6-.63 1.38.35 1.16.84 3.03 1.09 5.02.26 2.02.26 4.04-.26 5.56-.53 1.52-1.78 3.1-3.23 4.53-1.44 1.4-2.98 2.56-3.97 3.26-.66.47-.48 1.21-.35 1.47.12.26.6.86 1.37.63 1.16-.35 3.03-.84 5.02-1.09 2.02-.26 4.04-.27 5.56.26 1.52.53 3.1 1.78 4.53 3.23 1.41 1.44 2.57 2.98 3.27 3.97.47.67 1.21.49 1.47.36s.86-.6.63-1.37c-.35-1.17-.84-3.04-1.09-5.03-.26-2.02-.26-4.03.26-5.55.53-1.53 1.78-3.11 3.23-4.53h-.01zm-5.48 10.34c.07.56.16 1.1.26 1.63-.35-.4-.72-.81-1.12-1.22-1.49-1.52-3.34-3.04-5.3-3.72-1.96-.68-4.35-.63-6.47-.36-.56.07-1.11.16-1.63.26.4-.35.81-.73 1.22-1.12 1.52-1.49 3.04-3.33 3.72-5.3.68-1.96.63-4.35.36-6.47-.07-.55-.16-1.1-.26-1.62.35.4.72.81 1.12 1.21 1.49 1.52 3.34 3.04 5.3 3.72 1.96.68 4.35.63 6.47.36.56-.07 1.11-.16 1.63-.26-.4.35-.81.73-1.22 1.12-1.52 1.49-3.04 3.33-3.73 5.3-.68 1.96-.63 4.36-.36 6.47h.01zM706.02 867.285c-6.66-.03-12.09 5.34-12.12 12.01-.03 6.66 5.34 12.09 12.01 12.12 6.66.03 12.09-5.34 12.12-12.01.03-6.66-5.34-12.09-12.01-12.12zm-.11 22.13a10.07 10.07 0 0 1-10.02-10.11c.03-5.56 4.56-10.04 10.11-10.02 5.56.03 10.04 4.56 10.02 10.12-.03 5.55-4.56 10.04-10.11 10.01zM1000 853.345l-43.86 31.66a3.438 3.438 0 1 1-4.02-5.58l47.88-34.3v-2.46l-49.04 35.14c-2.47 1.76-3.01 5.21-1.2 7.65a5.44 5.44 0 0 0 7.55 1.18l42.69-30.82v-2.47zM605.02 886.975c.54.1 1.06-.26 1.16-.81 3.68-20.33-5.03-41.32-9.83-49.3a.995.995 0 0 0-1.37-.34c-.47.29-.62.9-.34 1.37 4.68 7.76 13.13 28.25 9.58 47.92-.1.54.26 1.06.81 1.16h-.01zM0 853.325v2.47l46.01-33.22 1.95 9.49c.59 2.86 4.18 3.85 6.15 1.69l10.48-11.46c.34-.37.84-.56 1.34-.5l15.43 1.72c2.9.32 4.95-2.78 3.51-5.32l-7.66-13.5a1.57 1.57 0 0 1-.06-1.43l6.41-14.14c1.21-2.66-1.11-5.57-3.98-4.98l-15.21 3.11c-.49.1-1.01-.04-1.38-.38l-11.47-10.46c-2.16-1.97-5.64-.66-5.97 2.24l-1.74 15.43c-.06.5-.35.95-.79 1.2l-13.49 7.68c-2.54 1.45-2.37 5.16.29 6.37l10.23 4.65L0 842.655v2.46l24.12-17.28 3.85 5.3L0 853.325zm30.51-48.64 13.49-7.68c.99-.57 1.66-1.57 1.79-2.71l1.74-15.43c.14-1.28 1.68-1.86 2.63-.99l11.47 10.46c.84.77 2.01 1.09 3.13.86l15.21-3.11c1.26-.26 2.29 1.02 1.75 2.2l-6.41 14.14c-.47 1.04-.42 2.25.15 3.24l7.66 13.5c.64 1.12-.27 2.49-1.55 2.35l-15.43-1.72a3.58 3.58 0 0 0-3.04 1.14l-10.48 11.46c-.87.95-2.45.52-2.71-.75l-3.13-15.21a3.594 3.594 0 0 0-2.02-2.54l-14.13-6.42c-1.17-.53-1.25-2.17-.13-2.81l.01.02zm-4.77 21.98 16.4-11.75 1.8.82c.46.21.79.62.89 1.12l.73 3.57-15.98 11.53-3.85-5.29h.01zM785.24 957.845l-.81-.59c-.22.29-.25.68-.1 1.01l7.92 16.95s0 .1.03.14c.03.08.09.14.14.21l7.49 16.03.91-.43.29.95c20.73-6.23 69.41-24.12 98.01-45.8.38-.29.5-.8.3-1.22l-16.64-35.62a.858.858 0 0 0-.13-.2c-1.43-1.77-4.26-3.37-7.77-4.74-3.56-1.4-8.01-2.62-12.84-3.56-9.55-1.85-20.75-2.57-29.97-1.15l-6.5-13.92c-.27-.59-.79-.91-1.28-1.07-.49-.16-1.05-.2-1.61-.16-.87.05-1.88.29-2.9.67l-1.55-3.32c2.03-1.24 3.12-3.04 3.56-4.88.48-2.06.16-4.19-.55-5.7-1.52-3.24-4.9-5.89-7.74-7.69-1.45-.91-2.8-1.63-3.79-2.13-.5-.24-.91-.43-1.19-.56-.14-.07-.26-.12-.33-.15-.04-.02-.07-.03-.09-.04-.01 0-.02-.01-.02-.01h-.01l-.25.59.25-.6c-.26-.11-.56-.1-.82.02a.99.99 0 0 0-.53.62v.04c0 .02-.02.05-.03.09-.02.08-.06.2-.1.35-.08.31-.19.75-.32 1.29-.25 1.09-.56 2.6-.79 4.3-.44 3.35-.58 7.65.91 10.83.88 1.87 2.29 3.52 4.19 4.39 1.7.77 3.69.88 5.86.1l1.55 3.31c-.96.54-1.79 1.16-2.38 1.79-.39.41-.72.87-.91 1.35-.19.48-.28 1.08 0 1.66l7.07 15.14-37.28 51.11.81.59-.06.01zm103.99-29.82c-9.64 6.69-27.55 15.69-46.16 24.29-18.3 8.44-37.17 16.43-49.32 21.37l-6.53-13.98c11.91-5.01 30.74-13.29 49.07-22.08 18.1-8.68 35.76-17.88 45.78-24.93l7.17 15.33h-.01zm-94.64 47.47c12.18-4.94 31.03-12.92 49.31-21.37 18.42-8.49 36.31-17.48 46.18-24.26l7.17 15.34c-28.02 20.97-74.94 38.38-95.9 44.76l-6.76-14.47zm13.04-113.7c-.16-.05-.29-.09-.4-.12l.4.12zm-.69-.21c-.15-.04-.21-.06-.24-.07l.24.07zm4.42 19.39c-1.37-.62-2.48-1.86-3.21-3.42-1.22-2.62-1.17-6.42-.74-9.72.21-1.62.51-3.06.75-4.1.05-.2.09-.37.13-.54.15.07.3.14.48.23.95.48 2.24 1.16 3.61 2.03 2.79 1.76 5.74 4.16 7 6.85.53 1.13.79 2.79.42 4.39-.31 1.31-1.05 2.58-2.47 3.51l-1.75-3.75c-.23-.5-.83-.72-1.33-.49-.5.24-.72.83-.48 1.33l1.76 3.77c-1.65.56-3.04.43-4.17-.09zm5.65 8.4c.56-.6 1.49-1.27 2.66-1.82 1.17-.54 2.28-.83 3.1-.88.41-.02.7.02.87.07.07.02.1.04.11.05l12.25 26.23c.93 1.99.06 4.38-1.95 5.32-2.01.94-4.4.08-5.34-1.92l-12.25-26.22s0-.05.03-.12c.07-.17.22-.41.51-.71h.01zm9.9 27.9c1.41 3 5 4.28 7.99 2.88 2.99-1.4 4.32-4.97 2.92-7.98l-4.88-10.44c8.82-1.25 19.5-.56 28.7 1.22 4.75.92 9.07 2.11 12.49 3.45 3.41 1.34 5.78 2.75 6.88 4.07l.18.39c-9.81 6.96-27.5 16.19-45.78 24.96s-37.06 17.03-48.94 22.03l36.2-49.64 4.23 9.07.01-.01zM698.4 562.225l.77.64.74-.68a.998.998 0 0 0-.76-.32 1 1 0 0 0-.75.36zM948.78 809.615h15.05c.56 0 1-.45 1-1 0-4.8 1.02-10.89 3.04-16.63 2.02-5.76 5.01-11.06 8.88-14.39l-.65-.76.38-.93-12.27-5.02a.98.98 0 0 0-1 .15c-6.02 4.85-9.81 12.17-12.13 19.24-2.33 7.09-3.21 14.04-3.3 18.31-.01.27.09.53.28.72.19.19.45.3.72.3v.01zm4.2-18.71c2.2-6.71 5.71-13.41 11.05-17.93l10.26 4.2c-3.65 3.64-6.42 8.78-8.31 14.15-1.95 5.56-3 11.43-3.12 16.3h-13.04c.2-4.14 1.08-10.37 3.16-16.71v-.01zM375.46 982.115c-2.7-6.79-10.39-10.11-17.18-7.41-6.79 2.7-10.1 10.39-7.4 17.18 1.74 4.38 5.56 7.3 9.87 8.11h4.9c.81-.15 1.62-.38 2.41-.7 1.53-.61 2.87-1.48 4.02-2.53l3.04 3.23h2.75l-4.42-4.68c2.9-3.6 3.84-8.61 2.01-13.2zm-8.14 15.32c-5.76 2.29-12.29-.53-14.58-6.29-2.29-5.76.52-12.29 6.28-14.58 5.76-2.29 12.29.52 14.58 6.29 2.29 5.76-.52 12.29-6.29 14.58h.01zM978.92 940.485l-.43 1.06.38-1.08c-7.08-2.46-14.61 1.65-17.32 8.28-6.72-2.48-14.84.3-17.8 7.19l.96.41-.09-.04-.86-.38v.02l-.02.02c-2.26 6.03-.03 12.8 4.95 16.47 2.81 2.08 7.87 4.97 13.03 7 2.58 1.02 5.22 1.84 7.63 2.22 2.39.38 4.69.35 6.51-.45 1.81-.79 3.38-2.47 4.72-4.49 1.35-2.04 2.53-4.54 3.52-7.13 1.98-5.18 3.27-10.87 3.63-14.34.66-6.16-2.83-12.36-8.8-14.77l-.01.01zm6.82 14.56c-.35 3.29-1.59 8.81-3.52 13.83-.96 2.51-2.08 4.87-3.32 6.74-1.25 1.9-2.56 3.2-3.86 3.77-1.29.58-3.14.66-5.38.3-2.23-.35-4.72-1.11-7.22-2.1-5.01-1.97-9.92-4.78-12.58-6.75-4.28-3.15-6.18-8.97-4.27-14.11 2.53-5.88 9.64-8.35 15.54-6.01.46.18.93.11 1.27-.04.35-.15.71-.45.88-.91h.01l-.41-.15-1.14-.44 1.55.59c2.25-5.93 8.85-9.49 14.88-7.42 5.11 2.05 8.13 7.4 7.57 12.7zM997.7 171.455l1.38 1.24.28-1.84-.99-.14-.67.74zM506.97 19.005c-.9 2.46-1.06 5.13-.24 7.77.82 2.64 2.6 5.17 5.48 7.39 4.99 3.85 11.84 2.57 16.47-1.19 4.69-3.81 7.38-10.36 3.96-17.37l-7.62-15.6h-2.23l8.05 16.48c2.94 6.02.69 11.6-3.42 14.94-4.17 3.38-9.96 4.26-13.98 1.16-2.61-2.01-4.11-4.22-4.79-6.4-.68-2.18-.55-4.4.21-6.49 1.53-4.2 5.65-7.83 10.83-9.19l1.18-.31-.54-1.1-4.44-9.1h-2.23l4.36 8.91c-5.2 1.72-9.37 5.54-11.04 10.09l-.01.01z" fill="#fff"/><path d="M981.23 165.165c-7.19 2.86-10.98 9.09-10.99 16.45-6.42-3.98-14.05-5.87-21.49-2.88-7.55 3.03-11.97 9-13.5 15.96-1.52 6.93-.16 14.83 3.75 21.84l.43.78 9.77-4.11-.38-.92.88-.48c-2.19-4.04-3.51-8.87-3.18-13.07.33-4.15 2.26-7.63 6.58-9.33 4.17-1.64 8.27-.33 12.02 2.39 3.74 2.72 6.97 6.76 9.25 10.22l.45.69.76-.31 10.41-4.27-.42-.94c-1.24-2.77-3.01-7.47-3.51-11.81-.25-2.17-.16-4.17.4-5.76.55-1.56 1.56-2.75 3.26-3.41 1.06-.41 2.35-.18 3.88.74 1.51.91 3.09 2.39 4.59 4.14 2.52 2.95 4.68 6.47 5.81 8.8v-4.13c-1.19-1.95-2.67-4.07-4.29-5.97-1.57-1.83-3.31-3.49-5.09-4.55-1.76-1.06-3.73-1.61-5.62-.88-2.31.89-3.7 2.56-4.42 4.6-.71 2-.77 4.34-.51 6.66.48 4.17 2.04 8.54 3.27 11.45l-7.77 3.18c-2.31-3.41-5.51-7.32-9.28-10.06-4.03-2.93-8.86-4.61-13.92-2.63-5.19 2.03-7.47 6.29-7.84 11.03-.34 4.34.89 9.12 2.92 13.2l-7.12 3c-3.37-6.43-4.47-13.5-3.11-19.65 1.39-6.37 5.4-11.77 12.28-14.53 7.24-2.91 14.82-.74 21.25 3.73l1.76 1.22-.19-2.13c-.66-7.43 2.74-13.64 9.66-16.39 5.5-2.18 11.31.47 15.73 4.43l.67-.75.99.15c.15-1.06.37-2.1.64-3.13v-5.45c-1.11 2.06-1.85 4.3-2.31 6.56-4.5-3.57-10.5-6.04-16.46-3.68h-.01zM801.73 719.125c-.27.06-.5.24-.64.48l.87.49.55-.83c-.23-.15-.51-.2-.78-.14zM705.98 711.535a.98.98 0 0 0-.62.54l.91.42.53-.85c-.24-.15-.54-.19-.82-.11zM253.83 999.995h2.07l12.5-45.28 1.77.49c3.35.92 6.81-1.04 7.73-4.39l3.3-11.96a6.283 6.283 0 0 0-4.39-7.73l-42.19-11.65c10.5-.15 19.54-3.66 25.98-9.05 5.51-4.62 9.14-10.61 10.08-17.02.95-6.43-.81-13.18-5.91-19.23-5.03-5.98-10.48-9.22-16.02-9.93-5.55-.71-11.02 1.13-16.05 4.97-6.08 4.64-11.58 12.26-15.97 22.08 1.5-10.8.59-20.27-2.49-27.44-2.52-5.88-6.51-10.26-11.81-12.48-5.3-2.23-11.77-2.25-19.16.3-7.48 2.58-12.44 7.48-14.89 13.48-2.44 5.98-2.37 12.99.04 19.77 2.85 8.02 8.96 15.76 18.11 21.28l-42.8-11.81a6.283 6.283 0 0 0-7.73 4.39l-3.3 11.96c-.92 3.34 1.04 6.81 4.39 7.73l1.77.49L116.49 1000h2.07l22.22-80.495 53.91 14.88L176.58 1000h2.07l17.96-65.085 14 3.86-16.9 61.225h2.08l16.75-60.695 53.91 14.88L253.81 1000l.02-.005zm-19.9-129.2c4.72-3.6 9.68-5.2 14.59-4.58 4.91.63 9.94 3.52 14.75 9.23 4.75 5.64 6.32 11.83 5.46 17.66-.86 5.85-4.19 11.42-9.39 15.77-8.33 6.97-21.44 10.75-36.59 7.31l-5.03-1.39c-1.9-.62-3.83-1.35-5.79-2.21 4.44-19.78 12.65-34.65 22.01-41.8l-.01.01zm-63.6 13.45c-2.27-6.4-2.3-12.88-.07-18.34 2.22-5.44 6.72-9.94 13.69-12.35 7.05-2.43 13-2.34 17.74-.35 4.73 1.99 8.38 5.92 10.74 11.43 4.68 10.91 4.18 27.88-3.1 47.1-21.31-2.67-34.51-14.86-38.99-27.49h-.01zm-35.68 27.02 3.3-11.96a4.285 4.285 0 0 1 5.27-2.99l73.99 20.42c1.68.54 3.34 1 4.98 1.38l54.1 14.93c2.28.63 3.62 2.99 2.99 5.27l-3.3 11.96a4.285 4.285 0 0 1-5.27 2.99l-1.77-.49-.27-.08-56.52-15.6h-.01l-74.5-20.56a4.285 4.285 0 0 1-2.99-5.27z" fill="#fff"/><path d="m224.1 906.715-1-.02c0 .41.23.78.61.94 9.46 4.02 20.78 1.39 28.16-4.02 3.7-2.72 6.52-6.2 7.58-10.03 1.08-3.88.33-8-2.9-11.8-3.21-3.78-6.99-5.23-10.86-4.87-3.8.36-7.55 2.45-10.83 5.43-6.54 5.95-11.59 15.83-11.77 24.35l1 .02h.01zm12.11-22.89c3.09-2.82 6.45-4.61 9.67-4.91 3.16-.3 6.32.83 9.15 4.17 2.82 3.31 3.39 6.75 2.5 9.97-.91 3.26-3.37 6.4-6.84 8.94-6.78 4.97-17 7.34-25.55 4.04.41-7.73 5.05-16.73 11.08-22.21h-.01zM998.49 37.245c.46-.26.97-.52 1.51-.78v-2.2c-.91.4-1.75.82-2.5 1.24-1.35.77-2.47 1.61-3.21 2.52-.05.06-.09.13-.13.21l-16.64 35.61c-.2.43-.07.94.31 1.22 6.53 4.95 14.12 9.7 22.17 14.17v-2.28c-7.35-4.12-14.27-8.48-20.32-13l7.17-15.34c3.49 2.4 7.98 5.07 13.15 7.9v-2.29c-4.84-2.68-9.04-5.2-12.29-7.45l7.16-15.33c1.54 1.08 3.25 2.21 5.13 3.39v-2.37c-1.55-.99-2.98-1.94-4.27-2.86l.18-.39c.52-.62 1.37-1.28 2.57-1.97h.01zM48.54 939.335c1.71.69 3.41 1.17 5.1 1.48 7.4 11.81 21.1 16.22 34.09 16.27.27 0 .52-.1.71-.29.19-.19.29-.44.3-.71l.02-6.85a.99.99 0 0 0-1-1c-8.56-.04-16.65-2.06-22.92-7.79 4.4-1.12 8.35-3.31 11.49-6.05 3.36-2.92 5.98-6.61 7.26-10.59 2.07-6.47-.1-13.29-5.65-17.23-3.2-2.26-7.23-3.38-11.38-2.72-6.67 1.05-12.31 6.37-15.27 15.58-1.23 3.82-1.61 7.46-1.28 10.86-3.73-1.8-6.64-4.18-8.62-7.07-2.25-3.29-3.32-7.29-2.94-11.96a.969.969 0 0 0-.24-.73.967.967 0 0 0-.68-.35l-6.83-.56c-.55-.04-1.03.37-1.08.92-1.09 13.39 6.46 23.75 18.93 28.79h-.01zm18.32-33.51c3.59-.56 7.1.4 9.91 2.38 4.82 3.42 6.71 9.32 4.9 14.99-1.14 3.57-3.53 6.97-6.66 9.69-3.2 2.79-7.32 4.96-11.88 5.88-1-1.09-2.12-2.57-3.02-4.52 3.84-.52 8.5-2.22 11.71-5.02 2.33-2.03 4.49-5.04 5.28-8.16.4-1.57.46-3.21-.02-4.77-.49-1.57-1.5-2.99-3.14-4.14-1.86-1.31-3.73-1.8-5.53-1.63-1.78.16-3.4.97-4.79 2.09-2.76 2.22-4.82 5.81-5.82 8.92-1.49 4.62-1.31 8.57-.15 11.94 0 0 .03.07.04.11.02.05.03.09.04.14 0 .03.03.05.04.07 1.36 3.62 3.46 5.97 4.92 7.37 6.62 6.51 15.2 8.85 24.06 9.05l-.02 4.85c-12.45-.26-24.99-4.68-31.64-15.66-.01-.02-.04-.03-.05-.05-1.26-2.02-2.2-3.86-2.84-7.57v-.02c-.63-3.57-.38-7.49.98-11.72 2.81-8.73 7.98-13.32 13.68-14.22zm8.31 11.06c.35 1.13.32 2.39 0 3.69-.67 2.63-2.55 5.31-4.66 7.14-3 2.61-7.53 4.2-11.14 4.6-.86-2.83-.96-6.17.33-10.17.92-2.85 2.79-6.07 5.17-7.97 1.18-.95 2.43-1.54 3.73-1.66 1.27-.12 2.68.21 4.2 1.27 1.3.92 2.04 1.99 2.38 3.1h-.01zm-43.62-5.18 4.84.39c-.19 4.68.97 8.8 3.33 12.25 2.43 3.56 6.07 6.32 10.61 8.29.48 2.55 1.12 4.3 1.9 5.81-.98-.26-1.96-.58-2.94-.98-11.46-4.63-18.29-13.87-17.73-25.77l-.01.01zM201.39 901.475c.41.05.8-.14 1-.5l-.87-.49-.14.99h.01zM1000 409.995c-3.45-2.52-6.77-5.44-9.93-8.76-22.18-23.34-22.1-58.86-.24-79.63a59.18 59.18 0 0 1 10.17-7.78v-2.33c-4.08 2.36-7.96 5.26-11.55 8.67-22.73 21.6-22.7 58.39.17 82.46 3.6 3.78 7.42 7.05 11.38 9.83v-2.46zM944.69 396.465a8.351 8.351 0 0 0-6.43 9.91c.96 4.51 5.39 7.39 9.9 6.43 4.51-.96 7.39-5.4 6.43-9.91s-5.39-7.39-9.9-6.43zm3.06 14.38a6.358 6.358 0 0 1-7.54-4.89 6.348 6.348 0 0 1 4.89-7.53 6.358 6.358 0 0 1 7.54 4.89c.73 3.43-1.46 6.8-4.89 7.53zM908.7 845.975c.81.13 1.2-.54 1.29-.82.09-.28.17-1.05-.55-1.42-1.16-.61-2.98-1.63-4.72-2.93-1.76-1.31-3.33-2.84-4.12-4.4-.79-1.57-1.07-3.74-1.08-5.93 0-2.17.25-4.24.45-5.53.13-.81-.54-1.2-.82-1.29-.28-.09-1.05-.17-1.43.55-.6 1.16-1.63 2.98-2.93 4.72-1.32 1.76-2.83 3.33-4.4 4.12-1.57.79-3.74 1.07-5.93 1.08-2.17 0-4.24-.25-5.54-.46-.81-.13-1.2.54-1.29.82-.09.28-.17 1.05.55 1.42 1.16.6 2.98 1.63 4.72 2.93 1.76 1.32 3.33 2.84 4.12 4.4.79 1.57 1.07 3.74 1.08 5.93 0 2.17-.25 4.25-.45 5.54-.13.81.54 1.2.82 1.29.28.09 1.05.17 1.43-.55.6-1.16 1.63-2.98 2.93-4.72 1.32-1.76 2.84-3.33 4.4-4.12 1.57-.79 3.74-1.07 5.93-1.08 2.17 0 4.24.25 5.53.46l.01-.01zm-12.37-1.16c-1.99 1-3.73 2.88-5.11 4.71-.42.57-.82 1.14-1.18 1.7.04-.66.07-1.35.06-2.06-.01-2.3-.3-4.84-1.3-6.83-1-1.99-2.87-3.73-4.71-5.1-.57-.42-1.14-.82-1.7-1.18.66.04 1.36.07 2.06.06 2.29 0 4.84-.3 6.82-1.29 1.99-1 3.73-2.88 5.1-4.71.42-.57.82-1.14 1.18-1.7-.04.66-.07 1.36-.06 2.06 0 2.29.3 4.84 1.3 6.82 1 1.99 2.88 3.73 4.71 5.1.57.42 1.14.82 1.7 1.18-.66-.04-1.36-.07-2.07-.06-2.29 0-4.84.3-6.82 1.29l.02.01zM834.63 744.255l.86.51.59-.8c-.23-.17-.52-.23-.79-.17-.28.06-.52.23-.66.47v-.01z" fill="#fff"/><path d="M198.27 863.825c-3.13-2.29-7.12-2.99-11.82-1.39-4.72 1.61-7.48 4.76-8.54 8.65-1.05 3.83-.42 8.26 1.37 12.49 3.56 8.43 11.93 16.5 22.11 17.9l.14-.99.87.49c4.22-7.39 4.95-18.47 2.39-26.93-1.28-4.25-3.43-7.96-6.51-10.22h-.01zm2.71 35.55c-9.03-1.55-16.59-8.83-19.86-16.58-1.67-3.96-2.18-7.92-1.28-11.19.88-3.21 3.14-5.87 7.26-7.27 4.14-1.41 7.43-.76 9.99 1.11 2.61 1.91 4.57 5.17 5.78 9.18 2.36 7.79 1.72 17.9-1.89 24.75zM712.86 586.205c-.38.12-.65.45-.69.84l.99.11.75-.66a.992.992 0 0 0-1.05-.29zM361.42 26.515v44.45h.01l.01 29.12c0 2.13 1.47 4.06 3.71 4.33 6.09.73 21.22 1.27 41.95-6.98 20.72-8.24 31.36-19.02 35.28-23.73 1.44-1.73 1.19-4.14-.28-5.69l-16.83-17.83-.48-.5-26.24-27.79-.55-.59L377.91.015h-2.75l8.16 8.65c-1.62 2.24-3.66 4.59-6.28 7.02-4.94 4.59-9.5 7.68-13.63 9.85V.165c.64-.01 1.3-.06 1.95-.17h-4.33c.12.02.24.05.37.06v26.46h.02zm35.97-2.98 11.94 12.65c-10.44 18.07-27.18 28.44-45.9 34.16v-22.5c7.91-2.95 17.28-7.44 23.8-13.25 4.36-3.88 7.65-7.6 10.15-11.06h.01zm25.46 26.98c-5.45 10.71-14.95 19.92-25.88 26.94-10.75 6.9-22.79 11.63-33.53 13.6v-18.62c19.09-5.72 36.42-16.24 47.31-34.74l12.09 12.82h.01zm17.99 21.89c-3.74 4.49-14.11 15.05-34.48 23.15-20.37 8.1-35.17 7.55-40.97 6.85-1.12-.14-1.94-1.1-1.94-2.34v-6.98c11.1-1.98 23.54-6.84 34.6-13.95 10.92-7.01 20.55-16.24 26.26-27.08l16.34 17.32c.85.9.92 2.17.2 3.04l-.01-.01zm-62.44-55.29c2.59-2.41 4.66-4.75 6.32-7.01l1.14 1.21 10.13 10.73c-2.44 3.42-5.69 7.14-10.08 11.04-6.07 5.4-14.82 9.69-22.48 12.61v-17.95c4.53-2.27 9.55-5.58 14.98-10.63h-.01z" fill="#fff"/><path d="M912.83 680.095c-13.54-22.69-31.7-31.97-48.61-33.49-16.55-1.5-31.85 4.44-40.34 12.39-9.65-5.24-21.2-7.05-32.67-4.27l-29.05 7.03c-2.29.55-4.6-.18-6.2-1.74 1.09-1.11 1.99-2.32 2.57-3.62.17-.37.1-.8-.18-1.09-2.02-2.18-7.94-9.32-11.54-21.61a.998.998 0 0 0-.15-.29c-6.78-19.93-16.55-45.4-27.6-65.29-5.56-10-11.47-18.66-17.54-24.48-6.05-5.81-12.44-8.99-18.89-7.53-3.55.8-5.98 3.27-7.55 6.59-.92 1.95-1.56 4.23-1.98 6.69-1.31-1.23-3.07-2.83-5.2-3.8-1.39-.63-2.97-1.02-4.72-.89-1.76.13-3.62.77-5.61 2.1-3.17 2.12-4.73 5.49-5.37 9.53-.64 4.02-.39 8.83.18 14.04 1.12 10.39 3.47 22.39 3 33.81-2.99 2.73-5.99 5.48-8.88 8.16-4.66 4.32-9.03 8.45-12.6 12.01-3.56 3.55-6.38 6.58-7.88 8.68-3.61 5.05-4.9 12.07-3.67 18.38 1.23 6.33 5.03 12.11 11.73 14.45 7.76 2.71 14.19 1.3 20.04.4 5.8-.89 11.09-1.31 17.17 2.67.02.02.03.04.06.06 1.39.9 1.96 2.11 2.11 3.35.16 1.28-.14 2.59-.53 3.54-.14.33-.08.71.13.99 1.18 1.53 3.59 3.19 7.39 3.62 1.43 5.81.93 14.72-.1 22.64-.53 4.06-1.19 7.81-1.78 10.65-.29 1.42-.57 2.62-.79 3.51-.24.93-.4 1.45-.46 1.58-.17.35-.11.77.14 1.07.51.6 1.33 1.1 2.29 1.48.98.4 2.19.73 3.58.94.92.14 1.94.23 3.01.27-.33 5.47-.95 11.48-1.57 16.33-.32 2.52-.64 4.72-.91 6.37-.14.83-.26 1.51-.36 2.02-.05.26-.1.46-.14.62-.02.08-.04.14-.05.19-.02.05-.02.07-.02.07-.14.33-.09.71.13 1 .51.66 1.35 1.23 2.34 1.68.84.39 1.85.72 2.98.98-.27 5.58-.94 12.23-1.63 17.76-.36 2.9-.73 5.48-1.04 7.42-.16.97-.3 1.78-.42 2.38-.06.3-.11.54-.16.73-.02.09-.04.16-.06.22-.02.06-.03.08-.02.08-.14.34-.09.72.13 1.01.52.66 1.37 1.22 2.36 1.68.85.39 1.87.72 3.02.98l2.22 31.45c.79 11.23 11.49 19.05 22.43 16.41 7.92-1.92 13.6-8.86 13.91-17l.85-22.39 11.17 22.18a16.607 16.607 0 0 0 18.73 8.67c8.91-2.16 14.39-11.13 12.23-20.04l-8.36-34.57c2.14-.79 4.18-1.83 5.95-3.05 2-1.38 3.69-3.03 4.79-4.86 3.15 1.77 8.38 3.4 13.95 3.02 2.44-.17 4.94-.73 7.36-1.83l8.57 35.42c1.91 7.9 9.87 12.76 17.77 10.85a14.713 14.713 0 0 0 11.25-13.77l.76-20.59 6.51 15.3c3.24 7.62 11.53 11.78 19.58 9.83 9.41-2.28 15.01-11.96 12.28-21.25l-9.88-33.72c2.51-1.77 4.73-4.06 6.41-6.92.25-.42.16-.95-.21-1.26-.81-.7-3.9-3.32-7.12-7.15-3.23-3.84-6.53-8.82-7.84-14.22-.05-.19-.15-.34-.28-.47 2.29-1.31 4.4-3.17 6.13-5.74.28-.42.21-.98-.17-1.31-1.6-1.4-11.15-9.3-14.51-23.22 0-.01-.01-.02-.02-.03.68-.51 1.36-1.07 2.05-1.69l-.67-.74.62-.78c-1.7-1.35-3.63-1.41-5.59-4.13a45.88 45.88 0 0 0-7.35-9.63c11.17-2.19 20.09 2.53 26.89 9.62 7.1 7.4 11.81 17.29 14.19 24.23.94 2.75 4.23 4.16 6.82 2.61l28.93-17.28c2.06-1.23 2.78-3.91 1.54-6h.02zm-10.09 8.78-10.85 6.48c-4.59-10.81-13.15-22.2-23.87-29.29-10.87-7.2-24.05-10.02-37.45-3.14-.04.02-.07.06-.11.09-.16-.12-.32-.24-.48-.37-.16-.12-.32-.24-.49-.35 4.76-3.13 12.14-5.72 20.24-6.62 8.52-.95 17.68-.03 25.27 3.95 13.56 7.11 21.77 20.18 27.74 29.26v-.01zm-184.11-55.89a.988.988 0 0 0-1.35.27c-2.01 2.88-5.82 6.68-10.64 8.68-4.77 1.98-10.54 2.22-16.7-1.98-.23-.15-.51-.21-.78-.15s-.5.23-.64.46c-1.76 2.95-7.54 8.67-16.53 8.13.02-4.62-.47-9.97-1.82-15.98-1.98-8.85-5.05-14.97-8.12-19.03-2.5-3.31-5.03-5.27-6.99-6.21 2.38-2.18 4.77-4.36 7.11-6.49 2.48 1.46 7.57 3.63 14.1 2.24 3.54-.75 6.37-2.44 8.42-4.22 1.48-1.3 2.59-2.68 3.25-3.84 2.44 1.6 6.99 3.55 13.97 1.86 4.01-.97 6.98-2.7 8.98-4.47 1-.89 1.77-1.79 2.31-2.63.14-.21.26-.42.37-.64.98.87 2.28 1.74 4.09 2.26 2.48.71 5.78.68 10.23-.74 5.31 11.89 10.1 24.32 14.11 35.6-1.96 3.58-6.47 6.13-11.34 7.36-2.41.61-4.84.87-6.98.78-2.16-.09-3.92-.54-5.06-1.26h.01zm8.45-44.32c-4.06 1.27-6.89 1.22-8.86.66-2.13-.61-3.41-1.82-4.3-2.83l-.75.66-.99-.11c-.03.28-.21.8-.65 1.48-.43.67-1.08 1.44-1.96 2.22-1.76 1.56-4.43 3.13-8.13 4.03-7.33 1.77-11.54-.86-13.28-2.21a1 1 0 0 0-1.56.46c-.32.89-1.39 2.55-3.24 4.17-1.83 1.6-4.36 3.1-7.52 3.77-5.44 1.15-9.76-.43-12.13-1.71 4.18-3.82 8.16-7.47 11.55-10.66 1.84-1.73 2.55-4.3 2.01-6.72-.77-3.5-1.5-7.53-2.03-11.71 2.72.95 6.45 1.77 10.52 1.34 4.46-.47 9.26-2.45 13.54-7.26.39.26.86.52 1.38.77 1.03.48 2.34.92 3.85 1.17 2.87.48 6.45.23 10.07-1.82.91 1.53 1.82 3.1 2.71 4.72 3.39 6.1 6.66 12.74 9.76 19.59l.01-.01zm-52.56-33.82c.24-4.41.98-8.33 2.38-11.3 1.39-2.94 3.39-4.86 6.18-5.49 5.46-1.23 11.19 1.38 17.06 7.02 4.55 4.37 9.06 10.44 13.43 17.58-3.14 1.76-6.23 1.97-8.71 1.55-1.32-.22-2.46-.61-3.33-1.01-.9-.42-1.44-.82-1.61-1.01l-.74.68-.77-.64c-4.08 4.94-8.67 6.85-12.85 7.29-4.16.44-7.98-.56-10.57-1.58-.47-4.43-.69-8.94-.47-13.1v.01zm-20.34 1.79c.59-3.72 1.97-6.48 4.51-8.18 1.74-1.16 3.28-1.66 4.64-1.77 1.36-.1 2.6.19 3.75.71 2.35 1.07 4.15 3 5.66 4.37 0 0 .02.01.03.02-.11.96-.19 1.94-.25 2.94-.29 5.25.12 11.03.84 16.5h-.09c-8.2 2.62-12.39.58-13.3-.35a.973.973 0 0 0-.74-.3.99.99 0 0 0-.73.34 23.657 23.657 0 0 1-3.64 3.36c-.18-1.41-.35-2.8-.5-4.14-.56-5.18-.78-9.77-.19-13.51l.01.01zm.98 19.89c1.46-.99 2.87-2.17 4.2-3.58 2.2 1.44 6.97 2.55 14.29.27.48 3.25 1.07 6.34 1.68 9.1.39 1.78-.13 3.61-1.43 4.84-4.71 4.43-10.5 9.71-16.45 15.14.12-8.68-1.2-17.67-2.28-25.77h-.01zm-1.35 87.75c-5.97.92-11.88 2.2-19.08-.32-5.86-2.05-9.29-7.12-10.42-12.94-1.14-5.84.08-12.28 3.34-16.84 1.4-1.95 4.1-4.88 7.67-8.43 3.55-3.54 7.9-7.65 12.55-11.96 1.82-1.68 3.68-3.4 5.57-5.13 1.54.51 4.22 2.22 7.02 5.93 2.87 3.8 5.83 9.65 7.77 18.26 3.71 16.56.79 27.82-1.24 31.78-4.59-1.47-8.88-1.02-13.17-.36l-.01.01zm21.17 11.75c.37-1.11.63-2.5.45-3.94-.2-1.66-.98-3.34-2.73-4.59-.04-.04-.07-.09-.12-.12-1.26-.84-2.5-1.51-3.71-2.04 1.33-2.72 2.81-7.84 3.08-14.94 9.11.51 15.23-4.76 17.72-8.24 6.47 4.04 12.65 3.74 17.74 1.63 4.88-2.02 8.73-5.68 10.99-8.68 1.46.69 3.26 1.06 5.21 1.14 2.35.1 4.98-.19 7.55-.84 4.51-1.14 9.06-3.44 11.68-6.93.71 2.03 1.4 4.02 2.06 5.95.02.07.07.12.1.18 3.48 11.63 8.96 18.76 11.42 21.53-.86 1.58-2.32 3.09-4.2 4.42-2.1 1.48-4.65 2.67-7.31 3.42-5.4 1.51-10.84 1.07-13.86-2.08l-.72.69-.99-.14c-.04.32-.26.92-.75 1.71-.49.77-1.2 1.66-2.18 2.57-1.95 1.81-4.93 3.65-9.09 4.66-8.35 2.02-14.96-.9-16.86-2.25a.978.978 0 0 0-.86-.14c-.29.09-.53.3-.65.59-.38.95-1.6 2.7-3.7 4.42-2.07 1.7-4.94 3.33-8.53 4.1-6.66 1.43-10.28-.54-11.75-2.07l.01-.01zm52.52 138.88a16.182 16.182 0 0 1-12.38 15.13c-9.74 2.35-19.26-4.61-19.97-14.6l-2.19-30.96c2.65.34 5.82.29 9.23-.44 4.03-.87 7.26-2.67 9.6-4.56 1.8-1.45 3.11-2.98 3.87-4.23 1.53.83 3.99 1.8 7.1 2.31l5.71 11.34-.98 26.01h.01zm43.03-11.03c1.9 7.84-2.92 15.73-10.76 17.62-6.6 1.6-13.42-1.56-16.48-7.63l-18.15-36.04c2.53.18 5.38.03 8.44-.7 4.6-1.11 7.96-3.14 10.22-5.19 1.13-1.02 1.99-2.05 2.59-2.99.21-.32.38-.64.54-.95 3.92 2.95 9.77 2.99 15 1.53.09-.02.18-.06.26-.09l8.33 34.42.01.02zm51.5 2.57c-6.83 1.65-13.71-2.55-15.36-9.38l-8.68-35.89c2.86-1.66 5.54-4.17 7.8-7.78 2.86 1.59 7.81 3.26 13.21 2.99 2.4-.12 4.87-.64 7.28-1.7l6.41 15.06s-.02.06-.02.09l-.91 24.71a12.72 12.72 0 0 1-9.72 11.9h-.01zm48.94-27.96.83-.24.13-.04-.96.28c2.41 8.19-2.53 16.73-10.83 18.74a14.945 14.945 0 0 1-17.27-8.68l-14.8-34.77c2.8-1.6 5.46-4.05 7.72-7.61 4.21 2.62 10.48 3.5 16.59 2.39 3.04-.56 6.09-1.62 8.87-3.24l9.72 33.16v.01zm-18.65-63.36c1.41 5.83 4.93 11.09 8.25 15.03 2.75 3.27 5.39 5.66 6.69 6.8-3.53 5.46-9.31 8.55-15.23 9.63-6.2 1.13-12.33.03-15.94-2.63l-.59.81-.86-.51c-4.32 7.38-10.27 9.84-15.73 10.12-5.53.28-10.57-1.68-12.89-3.19-.23-.15-.51-.2-.78-.14s-.5.23-.63.47c-4.27 7.39-10.3 10.02-15.93 10.41-5.7.39-11.01-1.52-13.65-3.25-.24-.16-.54-.2-.82-.13a.97.97 0 0 0-.63.54c-.83 1.79-2.47 3.53-4.64 5.03-2.16 1.49-4.79 2.71-7.52 3.47-5.55 1.54-11.13 1.13-14.2-2.01a.994.994 0 0 0-1.02-.25c-.36.12-.62.43-.68.81-.05.32-.27.92-.78 1.71-.5.78-1.24 1.67-2.25 2.59-2.02 1.83-5.08 3.69-9.35 4.73-8.57 2.07-15.33-.82-17.27-2.16-.25-.17-.56-.22-.85-.14a1 1 0 0 0-.64.58c-.39.95-1.65 2.71-3.81 4.45a21.034 21.034 0 0 1-8.77 4.16c-3.73.8-7.13.73-9.76.23-1.32-.25-2.42-.6-3.27-.99-.58-.27-1-.53-1.28-.77.05-.22.11-.47.16-.73.13-.64.27-1.47.43-2.45.32-1.97.69-4.58 1.05-7.49.68-5.47 1.35-12.05 1.63-17.65 2.63.35 5.78.31 9.17-.42 3.99-.86 7.18-2.65 9.49-4.53 1.77-1.44 3.06-2.96 3.81-4.2 3.01 1.66 9.64 3.87 17.72 1.92 4.56-1.1 7.88-3.12 10.11-5.16 1.11-1.02 1.96-2.05 2.56-2.98.2-.32.37-.63.52-.93 3.89 2.95 9.67 3 14.84 1.56 2.9-.81 5.7-2.1 8.03-3.73 1.97-1.37 3.63-3.02 4.71-4.83 3.13 1.77 8.29 3.42 13.81 3.04 5.94-.4 12.25-3.15 16.79-10.49 2.83 1.59 7.73 3.27 13.06 3.01 5.78-.28 12.04-2.88 16.62-10.2 2.8 1.51 7.52 2.76 12.49 2.53 2.6-.12 5.29-.66 7.84-1.79v.1l-.01.02zm5.62-7.08c-3.55 4.75-8.65 6.54-13.56 6.77-5.19.24-9.98-1.27-12.18-2.72-.23-.15-.51-.2-.78-.14s-.5.23-.64.47c-4.26 7.36-10.13 9.8-15.52 10.07-5.46.27-10.46-1.7-12.75-3.22l-.55.83-.87-.5c-4.21 7.37-10.16 9.98-15.72 10.36-5.63.38-10.88-1.54-13.5-3.28-.24-.16-.55-.21-.83-.13-.28.08-.51.28-.64.54-.82 1.78-2.43 3.52-4.57 5.01-2.13 1.49-4.72 2.69-7.42 3.44-5.48 1.53-10.99 1.1-14.04-2.05-.27-.27-.67-.37-1.03-.26-.36.12-.63.43-.68.81-.05.32-.26.92-.77 1.71-.49.77-1.22 1.67-2.22 2.58-1.99 1.82-5.01 3.67-9.23 4.7-8.47 2.05-15.16-.86-17.07-2.2a.973.973 0 0 0-.86-.14 1 1 0 0 0-.64.58c-.39.95-1.63 2.7-3.76 4.44a20.603 20.603 0 0 1-8.65 4.13c-3.68.79-7.05.71-9.65.2-1.3-.25-2.4-.6-3.23-.99-.58-.27-.99-.53-1.27-.77.04-.18.08-.36.12-.57.11-.55.24-1.26.38-2.09.28-1.68.59-3.91.92-6.44.62-4.92 1.26-11.03 1.59-16.59 1.62-.07 3.35-.27 5.15-.66 3.9-.85 7.04-2.51 9.33-4.24 1.76-1.33 3.06-2.72 3.83-3.86 2.9 1.43 9.33 3.27 17.25 1.35 4.45-1.08 7.73-2.95 9.95-4.81 1.11-.93 1.96-1.87 2.56-2.72.21-.3.39-.59.55-.87 1.69 1.16 3.76 1.78 5.95 1.99 2.7.25 5.66-.1 8.5-.89 2.84-.78 5.59-1.99 7.89-3.49 1.95-1.27 3.62-2.78 4.72-4.44 3.02 1.53 8.03 2.89 13.42 2.44 5.78-.48 11.99-3.06 16.58-9.74 2.73 1.37 7.49 2.78 12.7 2.43 5.62-.37 11.76-2.8 16.4-9.45 2.35 1.29 5.64 2.64 9.55 2.73 3.35.08 7.09-.78 11.02-3.28 3.32 12.78 11.54 20.55 14.26 22.95l.01.01zm-12.86-26.43c-4.56 3.73-8.78 4.84-12.37 4.76-3.9-.09-7.16-1.59-9.39-2.91a.987.987 0 0 0-1.35.32c-4.3 6.65-10.09 8.97-15.39 9.32-5.35.36-10.18-1.3-12.38-2.6l-.51.86-.84-.54c-4.25 6.66-10.12 9.13-15.59 9.59-5.52.46-10.6-1.15-13.11-2.64l-.51.86-.89-.46c-.83 1.6-2.43 3.18-4.56 4.56-2.11 1.38-4.68 2.51-7.33 3.24-2.66.73-5.37 1.05-7.78.82-2.41-.23-4.45-.98-5.88-2.33a.994.994 0 0 0-1-.22c-.35.12-.61.41-.67.77-.05.25-.26.78-.77 1.5-.5.7-1.23 1.51-2.22 2.35-1.98 1.67-4.97 3.39-9.13 4.4-8.33 2.01-14.8-.45-16.62-1.6l-.53.85-.91-.42c-.39.84-1.63 2.43-3.75 4.03-2.09 1.58-4.97 3.1-8.55 3.88-3.62.78-6.91.78-9.44.39-1.27-.2-2.33-.49-3.13-.82-.49-.2-.85-.4-1.11-.58.1-.34.21-.75.33-1.21.23-.93.51-2.15.81-3.6.59-2.89 1.27-6.68 1.8-10.8 1-7.65 1.56-16.58.2-22.8 1.39 0 2.92-.16 4.61-.53 3.94-.85 7.09-2.63 9.38-4.51 1.73-1.43 3-2.94 3.75-4.18 2.99 1.67 9.54 3.89 17.51 1.96 4.5-1.09 7.78-3.1 9.98-5.14 1.1-1.02 1.93-2.04 2.52-2.97.2-.31.36-.61.5-.91 3.85 2.94 9.56 3.02 14.67 1.59 2.87-.8 5.63-2.09 7.93-3.71.38-.27.75-.56 1.11-.85 2.07 2.08 5.11 3.08 8.15 2.35l29.05-7.02c18.66-4.51 37.52 3.64 47.35 19.11 0 .02 0 .03.01.05.33.63.68 1.18 1.03 1.68.04.07.08.14.13.21.07.12.16.22.26.3 1.65 2.08 3.41 2.98 4.61 3.58l.02.02zm36.27 20.06c-1.41.84-3.33.11-3.9-1.54-2.43-7.1-7.27-17.28-14.64-24.97-7.3-7.61-17.18-12.83-29.64-10.01-.18-.14-.4-.33-.68-.55-.08-.07-.18-.14-.27-.21 12.35-6.01 24.47-3.42 34.71 3.36 10.42 6.9 18.8 18.08 23.24 28.66l-8.82 5.27v-.01zm23.12-13.81c-5.91-8.99-14.4-22.59-28.53-30-8.05-4.22-17.64-5.14-26.42-4.16-8.68.97-16.69 3.83-21.76 7.37-.25-.17-.5-.35-.74-.5-.38-.25-.76-.48-1.13-.68 8.17-7.24 22.54-12.68 38.15-11.27 16.25 1.47 33.85 10.37 47.07 32.53.66 1.11.29 2.58-.85 3.26l-5.81 3.47.02-.02zM949.2 213.205l1.02-.43-.52-.97-.88.48.38.92zM915.26 302.605c-1.66 1.47-.96 4.2 1.2 4.69l10.08 2.26c.22.05.41.2.5.41l4.11 9.48c.88 2.04 3.7 2.21 4.83.3l5.27-8.89c.11-.2.32-.33.55-.35l10.28-.98c2.21-.21 3.25-2.84 1.78-4.5l-6.83-7.75a.722.722 0 0 1-.16-.63l2.24-10.08c.49-2.17-1.69-3.96-3.72-3.08l-9.49 4.1c-.21.09-.45.08-.65-.04l-8.9-5.25c-1.91-1.13-4.29.39-4.08 2.59l.97 10.29c.02.23-.07.45-.24.6l-7.74 6.84v-.01zm9.97-7.63-.97-10.29a.716.716 0 0 1 1.08-.68l8.9 5.25c.74.44 1.66.5 2.45.15l9.49-4.1c.54-.23 1.11.24.98.81l-2.24 10.09c-.19.85.04 1.73.61 2.39l6.83 7.75c.39.44.11 1.13-.47 1.19l-10.28.98c-.87.08-1.64.57-2.08 1.32l-5.27 8.89c-.29.5-1.04.46-1.27-.08l-4.11-9.48c-.34-.8-1.05-1.38-1.9-1.57l-10.08-2.26a.72.72 0 0 1-.32-1.24l7.74-6.84c.65-.57.99-1.43.91-2.29v.01z" fill="#fff"/><path d="M847.46 682.195a.994.994 0 0 0-.05-1.52l-.62.78.67.74zM720.69 899.465c-.02 4.61 3.7 8.37 8.31 8.39 4.61.02 8.37-3.7 8.39-8.31.02-4.61-3.7-8.37-8.31-8.39-4.61-.03-8.37 3.69-8.39 8.31zm14.7.07a6.346 6.346 0 0 1-6.38 6.32c-3.51-.02-6.34-2.88-6.32-6.38.02-3.51 2.88-6.34 6.38-6.32a6.34 6.34 0 0 1 6.32 6.38zM985.75 521.165c-.02-.09-.03-.17-.07-.26-.09-.18-.23-.3-.38-.4a8.892 8.892 0 0 0-5.08-3.28l-92.89-21.69c-4.8-1.12-9.6 1.86-10.73 6.66l-13.13 56.22c-.52 2.24-.14 4.48.89 6.35l-.06.03c-.5.24-.71.84-.47 1.34.24.5.84.71 1.33.47l.36-.18a8.87 8.87 0 0 0 4.6 2.72l92.89 21.7c1.85.43 3.69.25 5.33-.4l.25.32c.34.44.96.51 1.4.17a1 1 0 0 0 .17-1.4l-.04-.05a8.927 8.927 0 0 0 3.62-5.3l13.13-56.22c.56-2.42.09-4.84-1.14-6.79l.02-.01zm-98.87-23.68 92.89 21.69c1.32.31 2.46.98 3.34 1.88l-39.64 19.44c-.05-1.82-.53-3.64-1.49-5.29v-.02l-.02-.02c-3.14-4.82-9.5-5.79-14.2-3.02-2.99-4.56-9.12-6.51-14.07-3.58h-.02l-.02.03a11.084 11.084 0 0 0-3.68 4.09l-27.24-34.88c1.28-.51 2.71-.66 4.15-.32zm52.14 49.79c-1.64 1.81-5.29 4.53-8.96 6.72-1.83 1.09-3.62 2.02-5.13 2.63-.76.31-1.42.52-1.97.64-.57.12-.92.12-1.09.08-.18-.04-.49-.19-.94-.56-.44-.35-.93-.84-1.48-1.45-1.08-1.22-2.28-2.85-3.43-4.63-2.33-3.59-4.39-7.64-5.06-9.99-1.09-3.83.39-8.19 3.77-10.44 4.03-2.38 9.21-.72 11.59 3.31l.76-.45.09-.06-.86.51c.23.39.6.59.94.67.34.08.77.06 1.15-.19 3.93-2.57 9.32-1.76 11.87 2.17 2.02 3.51 1.41 8.07-1.26 11.01l.01.03zm-73.59 11.6 13.13-56.22c.37-1.58 1.25-2.9 2.43-3.84l28.12 36a11.56 11.56 0 0 0-.06 6.44c.14.49.34 1.05.57 1.63l-43.45 21a6.937 6.937 0 0 1-.75-5.02l.01.01zm98.05 30.02-92.88-21.7c-1.23-.29-2.3-.89-3.16-1.69l42.96-20.77c1.04 2.22 2.46 4.76 3.94 7.06 1.19 1.83 2.44 3.55 3.61 4.87.59.66 1.17 1.24 1.72 1.68.54.43 1.13.8 1.74.94.61.14 1.3.07 1.97-.08.7-.15 1.47-.41 2.29-.74 1.64-.66 3.52-1.65 5.4-2.77 2.35-1.4 4.75-3.04 6.66-4.58l29.32 37.65c-1.13.34-2.36.41-3.59.12l.02.01zm8.33-5.17a6.945 6.945 0 0 1-2.9 4.18l-29.65-38.08c.47-.42.89-.83 1.23-1.21 1.48-1.63 2.43-3.66 2.8-5.81l41.01-20.12c.75 1.43 1.02 3.12.62 4.81l-13.13 56.22.02.01zM792.85 690.815l.84.54.51-.86c-.46-.27-1.06-.13-1.35.32zM763.37 697.655c-.26.08-.49.26-.61.5l.89.46.51-.86a.994.994 0 0 0-.79-.1zM653.59 4.855l13.73 4.8c.43.15.76.49.89.93l4.21 13.93c.81 2.67 4.3 3.3 5.99 1.08l8.81-11.58c.27-.36.7-.57 1.16-.56l14.54.3c2.79.06 4.47-3.07 2.88-5.36l-5.82-8.4h-2.43l6.61 9.54c.66.95-.04 2.25-1.19 2.22l-14.54-.3c-1.09-.02-2.13.48-2.79 1.35l-8.81 11.58c-.7.92-2.15.66-2.48-.45l-4.2-13.93a3.417 3.417 0 0 0-2.14-2.24l-13.73-4.8c-1.09-.38-1.29-1.84-.34-2.5l.68-.47h-2.87c-.95 1.74-.22 4.12 1.87 4.86h-.03zM799.91 991.605c.21.45.72.68 1.19.53l-.29-.95-.91.42h.01zM978.92 940.485l-.03-.01-.02-.01-.33.94.38-.92zM120.56 8.825l117.41 32.41c3.35.92 6.81-1.04 7.73-4.39l10.18-36.85h-2.07l-10.02 36.32a4.285 4.285 0 0 1-5.27 2.99l-49.78-13.74 7.06-25.57h-2.07l-6.91 25.04-13.99-3.86 5.84-21.17h-2.07l-5.7 20.64-49.78-13.74a4.285 4.285 0 0 1-2.99-5.27l.45-1.63h-2.07l-.3 1.1a6.283 6.283 0 0 0 4.39 7.73l-.04-.01zM528.06 987.635l.89.4 4.45-9.43-.9-.43v-.01l.9.44.46-.99-1-.37-22.14-8.46-.71-.28-6.7 9.23-.35.49.26.53 10.38 21.24h2.23l-10.54-21.57 5.44-7.5 20.41 7.79-3.16 6.7-13.31-5.92-2.51-1.13 10.57 21.63h2.22l-8.57-17.55 11.68 5.19zM197.42 74.495l-.78.28-33.78 12.23-1.14.41.62 1.04 17.77 29.99c-2.24.88-4.29 2.49-5.75 4.74-3.37 5.19-2.47 12.01 2.37 15.15 4.83 3.14 11.44 1.21 14.81-3.98 1.11-1.7 1.94-3.69 2.31-5.66.38-1.96.32-3.99-.43-5.74l-.03-.06-.03-.05-17.59-29.68 17.55-6.9 10.83 18.28c-1.62.72-3.86 1.91-5.3 4.12-3.37 5.19-2.46 12.01 2.37 15.15 4.83 3.14 11.44 1.21 14.81-3.98 3.63-5.58 1.49-11.42-1.37-16.24l-17.24-29.1zm16.94 44.25c-2.9 4.45-8.32 5.82-12.04 3.39-3.73-2.42-4.68-7.93-1.78-12.38 1.4-2.15 3.82-3.14 5.45-3.82l1.06-.44-.59-.99-11.85-19.99-.86.51-.37-.93-19.43 7.64-1.09.43.6 1.01 18.14 30.61c.54 1.26.62 2.84.29 4.53-.33 1.7-1.05 3.44-2.03 4.94-2.9 4.45-8.32 5.82-12.04 3.39-3.73-2.42-4.68-7.93-1.78-12.38 1.46-2.24 3.59-3.72 5.81-4.3l1.28-.34-.68-1.14-17.79-30.02 31.87-11.54 16.4 27.68c2.8 4.71 4.37 9.59 1.42 14.13l.01.01zM193.21 369.135c-4.51.96-7.39 5.4-6.43 9.91s5.4 7.39 9.91 6.43 7.39-5.4 6.43-9.91-5.4-7.39-9.91-6.43zm3.06 14.38a6.358 6.358 0 0 1-7.54-4.89 6.348 6.348 0 1 1 12.42-2.64c.73 3.43-1.46 6.8-4.89 7.53h.01zM789.81 136.875c-.13.54.2 1.08.73 1.21.54.13 1.08-.2 1.21-.73 6.84-27.9 23.92-46.06 31.51-51.6.45-.33.54-.95.22-1.4-.33-.45-.95-.54-1.4-.22-7.92 5.78-25.31 24.33-32.27 52.74zM836.07 112.645c-5.45 2.74-18.13 11.67-25.76 25.79-.26.49-.08 1.09.4 1.36.49.26 1.09.08 1.35-.4 7.39-13.67 19.72-22.35 24.9-24.95.49-.25.69-.85.45-1.34a1.01 1.01 0 0 0-1.34-.45v-.01zM159.6 209.685l10.08 2.26c.22.05.41.2.5.41l4.11 9.48c.88 2.03 3.7 2.21 4.83.3l5.26-8.89c.12-.2.32-.33.55-.35l10.29-.98c2.21-.21 3.25-2.84 1.78-4.5l-6.83-7.75a.722.722 0 0 1-.16-.63l2.24-10.09c.48-2.16-1.69-3.96-3.73-3.08l-9.48 4.1c-.21.09-.45.08-.65-.04l-8.9-5.25c-1.91-1.13-4.29.39-4.08 2.59l.97 10.29c.02.23-.07.45-.24.6l-7.74 6.84c-1.66 1.47-.96 4.2 1.2 4.69zm7.86-10.03c.65-.58.99-1.43.91-2.29l-.97-10.29a.716.716 0 0 1 1.08-.68l8.9 5.25c.75.44 1.66.5 2.46.15l9.48-4.1c.54-.23 1.11.24.98.81l-2.25 10.09c-.19.85.04 1.73.61 2.39l6.83 7.75c.39.44.11 1.13-.47 1.19l-10.29.98c-.86.08-1.64.57-2.08 1.32l-5.26 8.89c-.3.5-1.04.46-1.27-.08l-4.11-9.48c-.35-.8-1.05-1.38-1.9-1.57l-10.08-2.26a.72.72 0 0 1-.32-1.24l7.74-6.84.01.01z" fill="#fff"/><path d="m193.38 84.095.37.93.86-.51-.44-.73-.79.31zM781.07 79.285a.997.997 0 0 0-1.25.66c-2.38 7.67-5.33 27.04 1.95 43.31a1 1 0 0 0 1.32.5c.5-.22.73-.82.51-1.32-7-15.65-4.17-34.47-1.87-41.9a.997.997 0 0 0-.66-1.25zM768.11 174.585c-1.17-1.31-2-3.33-2.58-5.45-.57-2.09-.86-4.16-.99-5.46-.08-.81-.83-1.02-1.12-1.04-.29-.02-1.06.1-1.23.9-.28 1.28-.8 3.3-1.61 5.32-.82 2.04-1.88 3.95-3.19 5.12s-3.33 2-5.45 2.58c-2.09.57-4.16.86-5.46.99-.81.09-1.02.83-1.04 1.12-.02.29.1 1.06.9 1.23 1.28.28 3.3.8 5.32 1.61 2.04.82 3.95 1.88 5.12 3.18 1.17 1.31 2 3.33 2.58 5.45.57 2.09.86 4.16.99 5.46.09.81.83 1.02 1.12 1.04.29.02 1.06-.1 1.23-.9.28-1.28.8-3.3 1.61-5.32.82-2.04 1.88-3.95 3.18-5.12 1.31-1.17 3.33-2 5.45-2.58 2.09-.57 4.16-.86 5.46-.99.81-.08 1.02-.83 1.04-1.12.02-.29-.1-1.06-.9-1.23-1.28-.28-3.3-.8-5.32-1.61-2.04-.82-3.95-1.88-5.12-3.18h.01zm4.31 6.21c-2.21.6-4.6 1.54-6.26 3.02-1.66 1.48-2.86 3.74-3.71 5.87-.26.66-.49 1.31-.7 1.94-.13-.65-.29-1.33-.47-2.01-.6-2.21-1.54-4.6-3.02-6.26-1.48-1.66-3.74-2.86-5.87-3.71-.66-.26-1.31-.49-1.94-.7.65-.13 1.33-.29 2.01-.47 2.21-.6 4.6-1.54 6.26-3.02 1.66-1.48 2.86-3.74 3.71-5.87.26-.66.49-1.31.7-1.94.13.65.29 1.33.47 2.01.6 2.21 1.54 4.6 3.02 6.26 1.48 1.66 3.74 2.86 5.87 3.71.66.26 1.31.49 1.94.7-.65.13-1.33.29-2.01.47zM177.77 559.155c-.9 2.46-1.06 5.13-.24 7.77.82 2.64 2.6 5.17 5.48 7.39 4.99 3.85 11.84 2.57 16.47-1.19 4.69-3.81 7.38-10.36 3.96-17.37l-16.25-33.25 11.69 5.2.89.4 4.45-9.44.46-.98-1.01-.39-22.14-8.45-.72-.27-6.69 9.22-.35.49.26.54 14.78 30.25c-5.2 1.71-9.37 5.54-11.04 10.09v-.01zm12.71-8.5-.25-.97.9-.44-15.03-30.77 5.44-7.49 20.41 7.79-3.16 6.69-13.31-5.92-.41.91-.9.44 17.46 35.73c2.94 6.02.69 11.6-3.42 14.94-4.16 3.38-9.96 4.26-13.98 1.16-2.61-2.01-4.11-4.22-4.79-6.4-.68-2.18-.55-4.4.21-6.49 1.53-4.2 5.65-7.83 10.83-9.19v.01z" fill="#fff"/><path d="m191.12 549.245-.9.44.26.97 1.18-.31-.54-1.1zM321.02 240.775c-.49-.09-.98.2-1.14.67l.95.31 1 .06c.03-.5-.32-.95-.81-1.04zM849.09 130.565a6.26 6.26 0 0 0-7.43 4.83 6.266 6.266 0 0 0 4.82 7.43c3.39.72 6.71-1.44 7.43-4.82a6.261 6.261 0 0 0-4.82-7.43v-.01zm-2.19 10.3a4.268 4.268 0 0 1-3.28-5.06c.49-2.3 2.76-3.78 5.06-3.28 2.3.49 3.77 2.76 3.28 5.06a4.268 4.268 0 0 1-5.06 3.28zM872.35 102.375c-.97-.38-2.49-1.03-3.97-1.9-1.5-.89-2.85-1.93-3.59-3.07-.74-1.14-1.15-2.79-1.34-4.53-.19-1.71-.17-3.36-.12-4.4.04-.8-.65-1.1-.92-1.16-.27-.06-1.02-.06-1.31.69-.38.97-1.03 2.49-1.9 3.97-.89 1.5-1.94 2.85-3.07 3.59-1.14.74-2.79 1.15-4.53 1.34-1.71.19-3.36.17-4.4.12-.8-.04-1.1.65-1.16.92-.06.27-.06 1.02.69 1.31.97.38 2.49 1.03 3.97 1.9 1.5.89 2.85 1.94 3.59 3.07.74 1.13 1.15 2.79 1.34 4.53.19 1.71.17 3.36.12 4.4-.04.8.65 1.1.92 1.16.27.06 1.02.06 1.31-.69.38-.97 1.03-2.49 1.9-3.97.89-1.5 1.94-2.85 3.07-3.59 1.13-.74 2.79-1.15 4.53-1.34 1.71-.19 3.36-.17 4.4-.12.8.04 1.1-.65 1.16-.92.06-.27.06-1.02-.69-1.31zm-5.1.37c-1.83.21-3.86.66-5.39 1.65-1.53.99-2.77 2.67-3.7 4.25-.16.27-.31.55-.46.82-.02-.31-.05-.62-.09-.93-.21-1.83-.66-3.86-1.65-5.39-.99-1.53-2.67-2.77-4.25-3.7-.27-.16-.55-.31-.82-.46.31-.02.62-.05.93-.09 1.83-.21 3.86-.66 5.39-1.65 1.53-.99 2.77-2.66 3.7-4.25.16-.27.31-.55.46-.82.02.31.05.62.09.93.21 1.83.66 3.86 1.65 5.39.99 1.53 2.67 2.77 4.25 3.7.27.16.55.31.82.46-.31.02-.62.05-.93.09zM894.65 400.785c.25-.81-.37-1.33-.66-1.47-.29-.15-1.08-.34-1.58.35-1.06 1.47-2.84 3.77-4.99 5.9-2.16 2.15-4.6 4.04-6.98 4.83-2.38.79-5.47.73-8.49.3-2.99-.43-5.79-1.2-7.52-1.75-.81-.26-1.33.37-1.47.66-.15.29-.34 1.08.35 1.58 1.47 1.07 3.77 2.85 5.9 4.99 2.15 2.16 4.04 4.6 4.83 6.99.79 2.38.73 5.47.3 8.49-.43 2.99-1.2 5.79-1.75 7.52-.25.81.37 1.33.66 1.47.29.15 1.08.34 1.58-.35 1.06-1.47 2.84-3.77 4.99-5.9 2.16-2.15 4.6-4.04 6.98-4.83 2.38-.79 5.47-.73 8.49-.3 2.99.43 5.79 1.2 7.52 1.75.81.26 1.33-.37 1.47-.66.15-.29.34-1.08-.35-1.58-1.47-1.07-3.77-2.84-5.9-4.99-2.15-2.16-4.04-4.6-4.83-6.99-.79-2.38-.73-5.47-.3-8.49.43-2.99 1.2-5.79 1.75-7.52zm1.97 24.41c1.07 1.08 2.18 2.06 3.21 2.92-1.3-.31-2.76-.61-4.26-.83-3.11-.45-6.58-.56-9.4.38-2.83.94-5.54 3.1-7.77 5.31a43.808 43.808 0 0 0-2.92 3.21c.31-1.3.61-2.75.83-4.26.44-3.11.56-6.58-.38-9.4-.94-2.83-3.1-5.54-5.31-7.77a43.808 43.808 0 0 0-3.21-2.92c1.3.31 2.76.61 4.26.83 3.11.45 6.58.56 9.4-.38 2.83-.94 5.54-3.1 7.77-5.31 1.08-1.07 2.06-2.18 2.92-3.21-.31 1.3-.61 2.75-.83 4.26-.44 3.11-.56 6.58.38 9.4.94 2.83 3.1 5.54 5.31 7.77zM300.06 55.555c6.18-1.6 11.52-5.81 15.66-10.32 4.15-4.52 7.17-9.43 8.69-12.6.12-.24.13-.52.04-.77a.99.99 0 0 0-.53-.57l-11.24-5.09-.41.91-.91-.41c-1.62 3.57-4.42 7.75-7.86 11.34-3.45 3.6-7.45 6.52-11.42 7.69a1 1 0 0 0-.68.7c-.09.34 0 .69.24.95l7.46 7.9c.25.26.63.37.98.28l-.02-.01zm-5.93-8.43c3.9-1.52 7.63-4.4 10.8-7.71 3.3-3.45 6.05-7.43 7.8-11l9.4 4.26c-1.56 3.01-4.27 7.26-7.9 11.2-3.88 4.22-8.7 8-14.12 9.57l-5.98-6.33v.01z" fill="#fff"/><path d="M312.67 26.195c-.5-.23-1.1 0-1.32.5l.91.41.41-.91zM276.91 122.095c4.51-.96 7.39-5.4 6.43-9.91s-5.4-7.39-9.91-6.43-7.39 5.4-6.43 9.91a8.351 8.351 0 0 0 9.91 6.43zm-3.06-14.38c3.43-.73 6.8 1.46 7.53 4.89.73 3.43-1.46 6.8-4.89 7.54a6.348 6.348 0 1 1-2.64-12.42v-.01zM833.52 264.705a1 1 0 0 0 .76.71l.21-.98-.69-.73c-.27.26-.38.64-.28 1zM809.19 264.715c.28.11.59.09.85-.05l-.48-.88-.95.31c.09.28.3.51.58.62zM232.86 254.265c-2.35.65-4.32 1.49-5.81 2.54-1.49 1.06-2.53 2.37-2.9 3.96-.06.24-.09.48-.11.72-.04.08-.09.16-.11.25l-4.59 19.91s-.02.06-.02.09l-10.56 45.79c-.72 3.11 1.14 6.38 4.4 9.5 3.31 3.17 8.33 6.47 14.64 9.7 12.63 6.47 30.62 12.81 50.98 17.51 20.36 4.7 39.32 6.88 53.5 6.59 7.09-.14 13.04-.9 17.41-2.31 4.29-1.38 7.39-3.5 8.11-6.61l15.18-65.79a.78.78 0 0 0 0-.34c.07-.21.16-.41.21-.63.37-1.59 0-3.23-.87-4.83-.87-1.59-2.28-3.21-4.11-4.83-3.51-3.1-8.75-6.34-15.27-9.52l4.22-18.31c1.71-.36 3.01-1.57 3.97-3.14 1.08-1.78 1.79-4.15 2.2-6.69.81-5.07.45-11.16-.98-15.43-.02-.07-.07-.13-.11-.19-.08-.2-.17-.4-.28-.6-.52-.94-1.34-1.87-2.38-2.79-2.08-1.84-5.2-3.76-9.1-5.68-7.59-3.74-18.34-7.55-30.62-10.7l7.82-33.91c.29-1.27-.35-2.44-1.23-3.27-.7-.66-1.64-1.2-2.7-1.58l1.2-5.2c2.43.21 4.46-.92 5.97-2.49 1.69-1.75 2.81-4.13 3.27-6.11 1-4.36.29-9.5-.62-13.47-.46-2-.98-3.74-1.39-4.98-.2-.62-.38-1.12-.5-1.46-.06-.17-.11-.3-.15-.4-.02-.05-.03-.08-.04-.1 0-.01 0-.02-.01-.03l-.04.02.04-.02a.994.994 0 0 0-.71-.61c-.32-.07-.66.02-.9.24l-.02.02c-.02.02-.05.04-.08.08-.07.07-.17.17-.31.3-.26.26-.64.63-1.09 1.11-.91.95-2.14 2.3-3.44 3.91-2.56 3.19-5.46 7.51-6.44 11.77-.58 2.51-.63 5.15.17 7.37.72 2 2.14 3.62 4.36 4.42l-1.2 5.19c-1.12-.13-2.2-.06-3.12.23-1.16.37-2.25 1.14-2.54 2.4l-7.82 33.91c-12.43-2.55-23.75-3.83-32.22-3.79-4.34.02-7.99.38-10.67 1.12-1.34.37-2.48.85-3.36 1.47-.75.53-1.32 1.19-1.62 1.99 0 0-.02.01-.02.02-2.23 3.03-4.49 7.65-5.28 11.96-.4 2.16-.44 4.32.13 6.2.16.51.36.99.61 1.45l-5.14 22.22c-7.25 0-13.38.62-17.89 1.87l-.02-.02zm-7.79 11.41c.81 1.45 2.03 2.89 3.56 4.3 3.33 3.07 8.37 6.28 14.69 9.44 12.66 6.33 30.66 12.58 51.03 17.28 20.36 4.7 39.29 6.96 53.44 6.82 7.07-.07 13-.75 17.34-2.05 2-.6 3.73-1.37 5.09-2.32l-3.56 15.45c-3.72-1.04-5.83-3.42-6.38-4.4a1 1 0 0 0-1.87.42c-.28 4.06-1.97 7.01-4.3 8.94-2.34 1.95-5.39 2.91-8.45 2.9-6.12-.03-11.99-3.95-12.23-11.41a1 1 0 0 0-.9-.96c-.5-.05-.96.28-1.07.77-.83 3.6-5.01 5.61-9.46 5.2-4.35-.4-8.29-3.09-8.54-8.18a1 1 0 0 0-.91-.95c-.5-.05-.95.29-1.06.77-1.02 4.45-3.65 7.25-6.95 8.74-3.33 1.51-7.41 1.7-11.28.75-3.87-.94-7.44-2.99-9.78-5.84-2.32-2.82-3.45-6.45-2.47-10.68l-.97-.22-.77-.63c-2.95 3.61-7.71 4.29-11.58 3.01-3.91-1.29-6.44-4.36-5.6-7.97a.99.99 0 0 0-.55-1.13.994.994 0 0 0-1.22.31c-4.93 6.55-12.2 7.58-18.16 5.13-6-2.46-10.58-8.39-10.09-15.74a.991.991 0 0 0-.62-.99c-.4-.16-.86-.05-1.14.28-1.8 2.12-3.92 2.51-5.65 2.07-1.72-.44-2.97-1.67-3.31-2.88l3.74-16.21-.02-.02zm-7.93 34.39 3.55-15.41c.9.97 2.11 1.7 3.46 2.05 1.87.48 3.99.22 5.92-1.11.45 7.23 5.27 12.93 11.31 15.41 5.98 2.45 13.21 1.77 18.63-3.62.54 3.54 3.55 6.18 7.05 7.33 3.65 1.21 8.14.93 11.62-1.62-.14 3.68 1.12 6.92 3.26 9.52 2.66 3.24 6.64 5.49 10.85 6.51 4.21 1.03 8.76.85 12.57-.88 2.9-1.31 5.35-3.52 6.88-6.69 1.65 4.02 5.62 6.11 9.57 6.48 3.74.35 7.83-.83 10.09-3.64 1.7 6.62 7.76 10.02 13.76 10.05 3.47.02 6.99-1.08 9.74-3.36 2.27-1.89 3.96-4.57 4.67-8.01 1.31 1.3 3.36 2.71 6.14 3.46l-3.92 17.01c-.54 2.35-2.82 4.42-7.01 6-4.15 1.56-9.94 2.54-16.97 2.87-14.06.66-32.88-1.25-53.13-5.92s-38.01-11.2-50.35-17.95c-6.18-3.38-10.95-6.79-14-10.02-3.08-3.26-4.22-6.11-3.68-8.47l-.01.01zm138.71 61.39c-.46 2.01-2.6 3.82-6.78 5.16-4.1 1.32-9.84 2.07-16.84 2.21-13.98.28-32.76-1.86-53.01-6.54-20.25-4.67-38.08-10.96-50.52-17.34-6.23-3.19-11.06-6.38-14.17-9.36-3.16-3.03-4.3-5.6-3.83-7.61l5.26-22.82c.75 1.59 1.91 3.19 3.4 4.76 3.25 3.44 8.22 6.97 14.49 10.4 12.55 6.87 30.49 13.45 50.86 18.15 20.37 4.7 39.39 6.64 53.67 5.96 7.14-.34 13.15-1.33 17.58-3 2.03-.76 3.77-1.7 5.14-2.81l-5.27 22.84h.02zm11.04-74.47c1.73 1.53 2.96 2.97 3.68 4.29.72 1.31.91 2.44.68 3.42-.43 1.88-2.52 3.6-6.69 4.85-4.08 1.23-9.8 1.9-16.79 1.97-13.95.14-32.71-2.09-52.97-6.77-20.26-4.67-38.1-10.88-50.58-17.12-6.25-3.12-11.09-6.23-14.23-9.12-3.2-2.95-4.32-5.41-3.89-7.29.23-.98.89-1.91 2.11-2.78 1.22-.87 2.96-1.63 5.18-2.24 4.18-1.16 9.95-1.76 16.9-1.79l-1.65 7.13.66.15.31.07-.97-.22c-.25 1.07.04 2.15.63 3.14.59.99 1.51 1.98 2.67 2.96 2.33 1.96 5.82 4.01 10.17 6.05 8.7 4.08 21.03 8.2 34.92 11.41 13.89 3.2 26.77 4.9 36.38 5.04 4.8.07 8.83-.25 11.79-.98 1.48-.37 2.74-.85 3.7-1.49.97-.64 1.7-1.48 1.94-2.55l1.64-7.13c6.23 3.07 11.15 6.14 14.4 9.01l.01-.01zm-107.75-53.82c4.13 1.87 7.63 1.13 10.2-.44.61-.37 1.17-.79 1.67-1.24-.45 2.67-.76 5.97-.5 9.22.46 5.68 2.73 11.61 9.48 13.28 6.56 1.62 11.86-1.12 15.58-4.7 2.25-2.17 3.96-4.69 5.08-6.85 1.03 2.89 3.47 5.93 7.97 6.97 4.08.94 8.22-.26 10.91-3.3-.29 4.02-.56 9.52-.1 14.75.34 3.8 1.07 7.56 2.54 10.54 1.47 3 3.74 5.31 7.13 5.98 3.41.67 6.42-.7 8.95-3.04 2.52-2.33 4.66-5.71 6.43-9.34 2.04-4.16 3.63-8.75 4.77-12.69.03.11.05.22.08.33.43 1.4 1.15 2.76 2.34 3.73.92.76 2.07 1.24 3.46 1.37l-6.21 26.92c-.1.42-.4.87-1.09 1.32-.7.46-1.72.88-3.08 1.22-2.71.68-6.55.99-11.28.92-9.43-.14-22.17-1.81-35.96-4.99s-25.98-7.26-34.51-11.27c-4.28-2.01-7.59-3.97-9.73-5.77-1.07-.9-1.81-1.72-2.23-2.44-.42-.72-.5-1.26-.4-1.68l6.9-29.85c.48.4 1.02.75 1.64 1.03l-.04.02zm72.27-93.72s-.08.03-.14.06l.14-.06zm-.87.34.65-.25c-.14.05-.34.13-.65.25-.24-.26-.4-.42-.5-.53l.5.53zm-.61-.66s-.04-.04-.04-.05l.04.05zm-9.4 23.81c-.63-1.74-.63-3.97-.11-6.24.88-3.8 3.53-7.83 6.05-10.97 1.25-1.55 2.44-2.86 3.32-3.78.12-.13.23-.23.34-.35.05.14.1.28.15.44.39 1.2.89 2.87 1.34 4.8.9 3.9 1.52 8.68.62 12.58-.39 1.69-1.36 3.72-2.76 5.18-1.14 1.19-2.51 1.92-4.07 1.89l1.27-5.49c.12-.54-.21-1.07-.75-1.2-.54-.12-1.07.21-1.2.75l-1.27 5.52c-1.49-.61-2.42-1.71-2.93-3.12v-.01zm-2.43 13.37c.07-.29.38-.69 1.19-.95.79-.25 1.88-.3 3.06-.02 1.18.27 2.14.79 2.74 1.36.62.59.73 1.08.66 1.37l-9.88 42.84c-.07.29-.38.69-1.19.95-.79.25-1.88.3-3.06.02-1.18-.27-2.14-.79-2.74-1.36-.62-.59-.73-1.08-.66-1.37l9.88-42.85v.01zm-54.86 33.9c.62-.44 1.53-.84 2.74-1.18 2.43-.67 5.87-1.03 10.14-1.05 8.28-.03 19.44 1.22 31.76 3.74l-1.61 6.98c-.29 1.27.35 2.44 1.23 3.27.9.85 2.2 1.52 3.67 1.86 1.47.34 2.93.31 4.11-.07 1.16-.37 2.25-1.14 2.54-2.4l1.61-6.98c12.18 3.13 22.76 6.89 30.19 10.55 3.83 1.89 6.77 3.72 8.66 5.39.94.83 1.58 1.59 1.95 2.26.36.66.42 1.16.33 1.56-.1.42-.4.87-1.1 1.33-.7.46-1.72.88-3.08 1.22-2.71.68-6.55.99-11.28.92-9.43-.14-22.17-1.81-35.96-4.99s-25.97-7.26-34.51-11.27c-4.28-2.01-7.59-3.97-9.73-5.77-1.07-.9-1.81-1.72-2.23-2.44-.42-.72-.5-1.26-.4-1.68.09-.39.37-.82.98-1.25h-.01zm-6.11 12.69c.58-3.13 2.01-6.47 3.61-9.14.07.13.12.26.2.39.59.99 1.51 1.98 2.67 2.96 2.33 1.96 5.83 4.01 10.17 6.05 8.7 4.08 21.03 8.2 34.91 11.4 13.89 3.2 26.77 4.9 36.38 5.04 4.8.07 8.83-.25 11.79-.98 1.48-.37 2.74-.85 3.7-1.49.27-.18.52-.38.75-.59.58 3.44.63 7.46.06 10.98-.38 2.4-1.04 4.49-1.94 5.97-.9 1.47-1.94 2.21-3.1 2.28-1.56.09-2.64-.32-3.4-.95-.79-.65-1.34-1.61-1.7-2.77-.72-2.36-.56-5.25-.24-6.99a.993.993 0 0 0-.8-1.16.993.993 0 0 0-1.16.8c-.74 4-2.91 12.37-6.35 19.42-1.73 3.53-3.74 6.66-6 8.75-2.24 2.08-4.63 3.05-7.21 2.55-2.59-.51-4.43-2.26-5.72-4.89-1.3-2.66-2.01-6.13-2.34-9.83-.66-7.41.22-15.36.43-18.85l-1-.06-.95-.31c-1.57 4.86-6.18 7.08-10.83 6.01-5.49-1.27-7.22-6.13-6.99-8.67.05-.52-.32-.99-.84-1.08a1 1 0 0 0-1.13.76c-.44 1.89-2.48 6.06-5.92 9.38-3.41 3.28-8.04 5.6-13.71 4.2-5.48-1.36-7.53-6.12-7.97-11.5-.44-5.36.8-10.95 1.51-13.12l-.95-.31-.93-.35c-.37.99-1.7 2.96-3.83 4.26-2.06 1.26-4.86 1.89-8.33.32-1.47-.67-2.33-1.77-2.77-3.19-.45-1.46-.44-3.27-.08-5.25l.01-.04zM287.77 444.675c-1.65-4.69-2.48-9.66-2.48-13.58 0-.55-.45-1-1-1h-12.34c-.27 0-.53.11-.71.3-.19.19-.29.45-.29.72.08 3.52.8 9.24 2.71 15.07 1.91 5.82 5.04 11.85 10 15.86.28.23.67.28 1.01.15l10.06-4.11c.32-.13.55-.42.61-.76.06-.34-.07-.69-.33-.92-3.14-2.71-5.58-7.02-7.23-11.72l-.01-.01zm-12.21.89c-1.67-5.09-2.39-10.09-2.57-13.46h10.32c.13 3.98.98 8.73 2.57 13.24 1.52 4.32 3.73 8.48 6.66 11.48l-8.05 3.29c-4.29-3.67-7.14-9.09-8.93-14.54v-.01zM736.02 27.845c-4.51.96-7.39 5.4-6.43 9.91s5.4 7.39 9.91 6.43 7.39-5.4 6.43-9.91-5.4-7.39-9.91-6.43zm3.06 14.38a6.348 6.348 0 1 1-2.64-12.42 6.348 6.348 0 1 1 2.64 12.42zM750.28 248.395l-.28-.99-.99.32.31.95.96-.28zM777.962 238.319l-.951.308.308.951.951-.308-.308-.951zM364.91 542.635c4.51-.96 7.39-5.4 6.43-9.91s-5.4-7.39-9.91-6.43a8.351 8.351 0 0 0-6.43 9.91c.96 4.51 5.4 7.39 9.91 6.43zm-3.06-14.38a6.348 6.348 0 1 1 2.64 12.42 6.348 6.348 0 1 1-2.64-12.42zM363.37 440.105c4.51-.96 7.39-5.4 6.43-9.91s-5.4-7.39-9.91-6.43-7.39 5.4-6.43 9.91 5.4 7.39 9.91 6.43zm-7.95-6.85a6.348 6.348 0 1 1 12.42-2.64 6.348 6.348 0 1 1-12.42 2.64zM184.17 520.905l.9-.44.41-.91-2.52-1.12 1.21 2.47zM440.98 347.795c-7.28-4.92-17.76-3.88-23.18 3.51l.82.6-.85-.56c-4.31 6.5-3.54 15.11 1.35 20.82 2.78 3.25 8.03 8.1 13.62 11.95 2.8 1.93 5.72 3.63 8.48 4.74 2.74 1.11 5.45 1.7 7.79 1.26 2.33-.44 4.64-1.98 6.78-4.02 2.16-2.05 4.26-4.7 6.16-7.52 3.8-5.63 6.9-12.07 8.3-16.11 2.45-7.1.02-15.39-6.37-19.86h-.02l-.02-.03c-7.75-4.88-17.88-2.02-22.86 5.23v-.01zm21.77-3.55c5.62 3.94 7.77 11.27 5.61 17.55-1.33 3.86-4.36 10.14-8.07 15.65-1.85 2.75-3.85 5.27-5.88 7.19-2.04 1.94-4 3.17-5.78 3.51l.19.98-.02-.11-.16-.87c-1.77.34-4.05-.09-6.66-1.14-2.58-1.05-5.37-2.66-8.1-4.54-5.47-3.76-10.58-8.5-13.24-11.6-4.32-5.05-5-12.66-1.21-18.39 4.75-6.44 14.08-7.43 20.58-2.93l.56-.82-.57.82c.43.3.94.34 1.35.27.41-.08.87-.31 1.17-.74l-.89-.6.13.09.75.51c4.4-6.57 13.45-9.07 20.23-4.82l.01-.01zM591.8 233.425l-.34-.94-12.48 4.47c-.34.12-.59.42-.65.78-1.22 7.63.85 15.61 3.85 22.42 3.01 6.82 7.01 12.58 9.8 15.82.18.2.43.33.69.35.27.02.53-.07.73-.25l11.19-10.07c.2-.18.32-.43.33-.69.01-.27-.08-.52-.25-.72-3.21-3.57-6.53-8.78-8.87-14.4-2.34-5.63-3.66-11.57-3.02-16.64l-.99-.13h.01zm2.17 17.54c2.26 5.44 5.41 10.5 8.58 14.21l-9.7 8.72c-2.62-3.21-6.13-8.43-8.83-14.54-2.85-6.46-4.73-13.79-3.78-20.72l10.45-3.75c-.28 5.15 1.1 10.82 3.28 16.07v.01zM473.87 834.055a7.12 7.12 0 0 0 3.3-9.51 7.11 7.11 0 0 0-9.51-3.3c-3.54 1.72-5.02 5.97-3.3 9.51 1.72 3.54 5.98 5.02 9.51 3.3zm-5.34-11.01c2.54-1.23 5.61-.17 6.84 2.37 1.23 2.54.17 5.61-2.37 6.84-2.54 1.23-5.61.17-6.84-2.37-1.23-2.54-.17-5.61 2.37-6.84zM435.6 538.725c-.25.24-.36.59-.29.92.07.34.31.62.63.74l.35-.94-.69-.72zM719.18 130.805c5.96-9.93 8.01-21.29 3.51-33.46-7.19-19.42-30.18-28.13-49.01-21.34-6.65-18.88-27.94-31.19-47.53-24.47-12.71 4.36-20.44 13.2-24.46 24.13-4 10.9-4.31 23.86-2.29 36.58 2.02 12.72 6.39 25.28 11.82 35.41 4 7.46 8.64 13.7 13.42 17.69-1.23.59-2.61 1.37-3.82 2.28-1.51 1.15-3 2.72-3.08 4.62-.06 1.49.89 2.85 2.04 3.91 1.02.95 2.35 1.8 3.77 2.49-1.42 2.76-3.07 7.13-3.77 12.03-.75 5.23-.42 11.15 2.55 16.3 1.88 3.26 4.47 5.29 7.34 6.82 2.82 1.5 6.03 2.57 9.06 3.8 3.07 1.26 6.08 2.73 8.79 5.09 2.69 2.35 5.13 5.63 6.97 10.54 2.94 7.83 2.32 15.83.31 22.7-2.02 6.87-5.41 12.53-7.89 15.61a1.002 1.002 0 1 0 1.56 1.26c2.64-3.27 6.16-9.16 8.25-16.3 2.1-7.15 2.79-15.61-.35-23.97-1.95-5.2-4.57-8.76-7.53-11.35-2.95-2.58-6.2-4.15-9.35-5.44-3.2-1.31-6.17-2.28-8.87-3.72-2.64-1.41-4.9-3.2-6.55-6.05-2.67-4.62-3.01-10.04-2.31-15.01.67-4.73 2.29-8.94 3.63-11.51 1.34.5 2.72.86 3.99.99 1.57.16 3.23 0 4.33-.97.7-.61 1.06-1.47 1.25-2.33.19-.86.24-1.83.21-2.77-.04-1.37-.23-2.87-.37-4.05 6.21 1.31 14.22.9 22.82-.89 11.23-2.34 23.66-7.07 34.75-13.67 11.08-6.59 20.9-15.08 26.84-24.98l-.03.03zm-86.04 43.64c.02.86-.02 1.64-.16 2.28-.14.64-.37 1.04-.62 1.27-.45.4-1.38.63-2.8.48-1.37-.14-2.97-.6-4.51-1.29-1.53-.68-2.94-1.56-3.93-2.48-1.03-.95-1.43-1.78-1.41-2.36.04-.93.84-2.01 2.3-3.12 1.36-1.04 3.05-1.9 4.39-2.5 1.09.78 2.19 1.44 3.29 1.96.93.44 1.94.81 3.02 1.13.14 1.37.39 2.99.43 4.62v.01zm58.18-20.37c-10.9 6.48-23.12 11.13-34.13 13.43-11.07 2.3-20.73 2.19-26.64-.61-5.92-2.81-12.23-10.19-17.58-20.17-5.33-9.94-9.62-22.28-11.61-34.78-1.99-12.51-1.65-25.1 2.2-35.57 3.83-10.43 11.15-18.79 23.23-22.93 18.73-6.42 39.37 5.66 45.32 24.17l.33 1.01.99-.39c18.1-7.1 40.51 1.25 47.38 19.82 4.26 11.52 2.35 22.24-3.35 31.73-5.71 9.53-15.23 17.81-26.14 24.29z" fill="#fff"/><path d="m417.8 351.295-.02.02-.01.02.83.55-.8-.59zM685.13 308.045c-5.83 1.24-9.55 6.97-8.31 12.8 1.24 5.83 6.97 9.55 12.8 8.31 5.83-1.24 9.55-6.97 8.31-12.8-1.24-5.83-6.97-9.55-12.8-8.31zm4.08 19.16c-4.75 1.01-9.42-2.02-10.43-6.77-1.01-4.75 2.02-9.42 6.77-10.43 4.75-1.01 9.42 2.02 10.43 6.77 1.01 4.75-2.02 9.42-6.77 10.43zM431.98 935.205c4.66 3.96 10.48 7.47 16.82 8.3l.13-1 .81.6 6.42-8.77a.991.991 0 0 0-.64-1.57c-4.09-.67-8.42-3.08-12.29-6.22-3.86-3.14-7.16-6.94-9.21-10.28a.98.98 0 0 0-.62-.45c-.26-.06-.53-.02-.76.12l-10.52 6.45a1 1 0 0 0-.45.63c-.06.26-.01.54.13.76 1.91 2.96 5.51 7.46 10.18 11.43zm9.98-7.11c3.55 2.89 7.61 5.28 11.67 6.31l-5.15 7.02c-5.58-.88-10.83-4.03-15.2-7.74-4.09-3.48-7.31-7.35-9.23-10.14l8.8-5.4c2.19 3.33 5.4 6.93 9.11 9.95zM552.45 139.355c0-.55-.45-1-1-1v1h1zM592.79 233.545c.04-.34-.1-.69-.37-.91a.983.983 0 0 0-.96-.16l.34.94.99.13zM510.43 493.445c.11-.1.2-.23.25-.38l5.27-14.05c.19-.52-.07-1.09-.59-1.29l-49.05-18.39c-.52-.19-1.09.07-1.29.59l-5.27 14.05a1 1 0 0 0 .59 1.28l30.14 11.3-54.89 52.16.69.73-.35.94 16.84 6.31c.36.13.76.05 1.03-.21l56.63-53.04zm-57.54 51.16-14.76-5.53 54.89-52.16c.25-.24.36-.59.29-.92-.07-.34-.31-.62-.63-.74l-30.7-11.51 4.57-12.18 47.18 17.69-4.84 12.9-56 52.46v-.01zM490.45 314.675l55.86-5.54-17.07 53.6c-.81 2.56 1.74 4.9 4.22 3.86l51.24-21.51-4.83 55.46c-.23 2.66 2.75 4.39 4.94 2.85l45.4-31.76 6.95 54.82c.34 2.67 3.65 3.71 5.46 1.72l37.4-41.31 23.37 50.82c1.12 2.44 4.59 2.45 5.72 0l23.2-50.21c6.9-.85 12.53-2.12 16.61-3.5.52-.18.8-.75.62-1.27a.997.997 0 0 0-1.27-.62c-19.84 6.74-78.32 10.78-140.7-25.23-62.35-36-85.69-87.26-90.99-108.58a1 1 0 0 0-1.21-.73c-.53.13-.86.68-.73 1.21 1.02 4.12 2.7 9.3 5.17 15.25l-32.25 45.72c-1.55 2.2.2 5.21 2.88 4.95h.01zm150.69 112.15c-.66.73-1.87.35-1.99-.63l-6.96-54.84c16.34 6.93 32.06 11.35 46.51 13.97l-37.57 41.5h.01zm88.85-39.08-22.69 49.1c-.41.89-1.68.89-2.09 0l-23.45-50.98c18.93 3.15 35.52 3.22 48.23 1.88zm-100.93-17.74-45.38 31.75c-.8.56-1.89-.07-1.8-1.04l4.79-55.02a234.347 234.347 0 0 0 42.39 24.32v-.01zm-45.51-26.6-50.86 21.35c-.9.38-1.84-.47-1.54-1.41l17-53.39c9.39 11.24 21.05 22.69 35.4 33.45zm-62.81-77.22c5.08 11.72 13.13 26.1 25.13 41l-55.62 5.52c-.98.1-1.62-1-1.05-1.8l31.54-44.71v-.01zM848.33 33.085c-.34-.07-1.16-.06-1.48.75-.75 1.92-2.04 4.95-3.79 7.91-1.76 2.98-3.9 5.78-6.31 7.34-2.41 1.57-5.84 2.39-9.27 2.78-3.41.39-6.71.34-8.77.24-.87-.04-1.22.71-1.29 1.04-.07.34-.05 1.16.75 1.48 1.92.75 4.95 2.04 7.91 3.79 2.98 1.76 5.78 3.9 7.34 6.31 1.56 2.41 2.39 5.84 2.78 9.28.39 3.41.34 6.71.24 8.76-.04.87.71 1.22 1.04 1.29.34.07 1.16.06 1.48-.75.75-1.92 2.04-4.95 3.79-7.91 1.76-2.98 3.9-5.78 6.31-7.34 2.41-1.57 5.84-2.39 9.27-2.78 3.41-.39 6.71-.34 8.77-.24.87.04 1.22-.71 1.29-1.04.07-.34.05-1.16-.75-1.48-1.92-.75-4.95-2.04-7.91-3.79-2.98-1.76-5.78-3.9-7.34-6.31-1.56-2.41-2.39-5.84-2.78-9.28-.39-3.41-.34-6.71-.24-8.77.04-.87-.71-1.22-1.04-1.29v.01zm2.39 20.42c1.82 2.8 4.94 5.14 8 6.95 1.68.99 3.36 1.83 4.88 2.52-1.66.02-3.55.1-5.48.32-3.53.4-7.33 1.27-10.14 3.09-2.8 1.82-5.14 4.94-6.95 8a52.02 52.02 0 0 0-2.52 4.88c-.02-1.66-.1-3.55-.32-5.48-.4-3.53-1.27-7.33-3.09-10.14-1.82-2.8-4.94-5.14-8-6.95a52.02 52.02 0 0 0-4.88-2.52c1.66-.02 3.55-.1 5.48-.32 3.53-.4 7.33-1.27 10.14-3.09 2.8-1.82 5.14-4.94 6.95-8a52.02 52.02 0 0 0 2.52-4.88c.02 1.66.1 3.55.32 5.48.4 3.53 1.27 7.33 3.09 10.14zM432.794 447.013l-.35.936.936.351.351-.937-.937-.35zM865.22 172.935c-.26.23-.39.58-.33.92.06.34.29.63.61.77l.38-.93-.65-.76h-.01z" fill="#fff"/><path d="M874.93 147.635c0 3.92-.83 8.89-2.48 13.58-1.65 4.7-4.09 9.02-7.23 11.72l.65.76-.38.93 10.06 4.11a1 1 0 0 0 1.01-.15c4.97-4.01 8.09-10.04 10-15.86 1.91-5.83 2.64-11.55 2.71-15.07 0-.27-.1-.53-.28-.72-.19-.19-.45-.3-.72-.3h-12.34c-.55 0-1 .45-1 1zm9.73 14.46c-1.79 5.45-4.64 10.87-8.93 14.54l-8.05-3.29c2.93-3 5.14-7.16 6.66-11.48 1.58-4.5 2.44-9.26 2.57-13.24h10.32c-.18 3.38-.9 8.37-2.57 13.46v.01zM889.08 47.705a6.261 6.261 0 1 0-12.25-2.6 6.265 6.265 0 0 0 4.83 7.43c3.38.72 6.71-1.44 7.43-4.82l-.01-.01zm-10.3-2.19c.49-2.3 2.76-3.78 5.06-3.29a4.268 4.268 0 1 1-5.07 3.29h.01zM322.03 936.995c5.83-1.24 9.55-6.97 8.31-12.8-1.24-5.83-6.97-9.55-12.8-8.31-5.83 1.24-9.55 6.97-8.31 12.8 1.24 5.83 6.97 9.55 12.8 8.31zm-4.07-19.16c4.75-1.01 9.42 2.02 10.43 6.77 1.01 4.75-2.02 9.42-6.77 10.43-4.75 1.01-9.42-2.02-10.43-6.77-1.01-4.75 2.02-9.42 6.77-10.43zM103.74 513.765c-4.51.96-7.39 5.4-6.43 9.91a8.351 8.351 0 0 0 9.91 6.43c4.51-.96 7.39-5.4 6.43-9.91s-5.4-7.39-9.91-6.43zm3.06 14.38a6.348 6.348 0 1 1-2.64-12.42 6.348 6.348 0 1 1 2.64 12.42zM425.176 470.201l-.351.936.937.351.35-.937-.936-.35zM799.83 42.275c-.3-.07-1.09-.06-1.39.72-.56 1.44-1.53 3.71-2.84 5.92-1.32 2.23-2.91 4.3-4.67 5.45-1.77 1.15-4.3 1.76-6.88 2.05-2.55.29-5.02.25-6.56.18-.83-.04-1.16.68-1.22.98-.06.3-.06 1.09.72 1.39 1.44.56 3.71 1.53 5.92 2.83 2.23 1.32 4.3 2.91 5.45 4.68 1.15 1.77 1.76 4.3 2.05 6.88.29 2.55.25 5.02.18 6.56-.04.83.68 1.16.98 1.22.3.07 1.09.06 1.39-.72.56-1.44 1.53-3.71 2.83-5.92 1.32-2.23 2.91-4.3 4.67-5.44 1.77-1.15 4.3-1.76 6.88-2.05 2.55-.29 5.02-.25 6.56-.18.83.04 1.16-.68 1.23-.98.06-.3.06-1.09-.72-1.4-1.44-.56-3.71-1.53-5.92-2.83-2.23-1.32-4.3-2.91-5.45-4.68-1.15-1.77-1.76-4.3-2.05-6.88-.29-2.55-.25-5.02-.18-6.56.04-.83-.68-1.16-.98-1.22zm1.54 15.75c1.4 2.16 3.79 3.94 6.11 5.31.93.55 1.86 1.03 2.74 1.46-.98.03-2.03.1-3.09.22-2.67.3-5.58.96-7.74 2.36s-3.94 3.79-5.31 6.11c-.55.93-1.03 1.86-1.46 2.74-.03-.98-.1-2.03-.22-3.1-.3-2.67-.96-5.58-2.36-7.74s-3.79-3.94-6.11-5.31a38.99 38.99 0 0 0-2.74-1.46c.98-.03 2.03-.1 3.1-.22 2.67-.3 5.58-.96 7.74-2.36s3.94-3.79 5.31-6.11c.55-.93 1.03-1.86 1.46-2.74.03.98.1 2.03.22 3.1.3 2.67.96 5.58 2.36 7.74h-.01zM440.38 186.555c.25-.81-.37-1.33-.66-1.47-.29-.15-1.08-.34-1.58.35-1.06 1.47-2.84 3.77-4.99 5.9-2.16 2.15-4.6 4.04-6.98 4.83-2.38.79-5.47.73-8.49.3-2.99-.43-5.79-1.2-7.52-1.75-.81-.26-1.33.37-1.47.66-.15.29-.34 1.08.35 1.58 1.47 1.07 3.77 2.85 5.9 4.99 2.15 2.16 4.04 4.6 4.83 6.99.79 2.38.73 5.47.3 8.49-.43 2.99-1.2 5.79-1.75 7.52-.25.81.37 1.33.66 1.48.29.15 1.08.34 1.58-.35 1.06-1.47 2.84-3.76 4.99-5.9 2.16-2.15 4.6-4.04 6.98-4.83 2.38-.79 5.47-.73 8.49-.3 2.99.43 5.79 1.2 7.52 1.75.81.26 1.33-.37 1.47-.66.15-.29.34-1.08-.35-1.58-1.47-1.07-3.77-2.84-5.9-4.99-2.15-2.16-4.04-4.6-4.83-6.99-.79-2.38-.73-5.47-.3-8.49.43-2.99 1.2-5.79 1.75-7.52v-.01zm1.97 24.41c1.07 1.08 2.18 2.07 3.21 2.92-1.3-.31-2.76-.61-4.26-.83-3.11-.45-6.58-.56-9.4.38-2.83.94-5.54 3.1-7.77 5.31a46.195 46.195 0 0 0-2.92 3.21c.31-1.3.61-2.75.83-4.26.45-3.11.56-6.58-.38-9.4-.94-2.83-3.1-5.54-5.31-7.77a46.195 46.195 0 0 0-3.21-2.92c1.3.31 2.75.61 4.26.83 3.11.45 6.58.56 9.4-.38 2.83-.94 5.54-3.1 7.77-5.31 1.08-1.07 2.07-2.18 2.92-3.21-.31 1.3-.61 2.75-.83 4.26-.44 3.11-.56 6.57.38 9.4.94 2.83 3.1 5.54 5.31 7.77z" fill="#fff"/><path d="m402.5 527.915.94.35 15.89 5.96.94.35.35-.94 29.62-79 .35-.94-.94-.35-15.89-5.96-.35.94-.94-.35-1.34 3.58a3.587 3.587 0 0 1-4.61 2.1l-11.14-4.18-.94-.35-.35.94-5.61 14.97-.35.94.94.35 14.49 5.43-20.7 55.23-.35.94-.01-.01zm13.11-76.21 10.21 3.83c2.89 1.08 6.1-.38 7.18-3.27l.99-2.65 14.02 5.26-28.91 77.13-14.02-5.26 20.7-55.23-.94-.35.35-.94-14.49-5.43 4.91-13.09zM474.98 170.545c.24-.77-.35-1.24-.6-1.36-.25-.13-.98-.32-1.45.33-.64.89-1.71 2.26-2.99 3.54-1.3 1.29-2.73 2.39-4.09 2.84-1.36.45-3.17.43-4.98.17-1.79-.26-3.47-.72-4.51-1.05-.77-.24-1.24.35-1.36.6-.13.25-.32.98.33 1.45.89.64 2.26 1.71 3.54 2.99 1.29 1.3 2.39 2.73 2.84 4.09.45 1.36.43 3.17.17 4.98-.26 1.79-.72 3.47-1.05 4.51-.24.77.35 1.24.6 1.36.25.12.98.32 1.45-.33.64-.89 1.71-2.26 2.99-3.54 1.3-1.29 2.73-2.39 4.09-2.84 1.36-.45 3.17-.43 4.98-.17 1.79.26 3.47.72 4.51 1.05.77.24 1.24-.35 1.36-.6.12-.25.32-.98-.33-1.45a29.81 29.81 0 0 1-3.54-2.99c-1.29-1.3-2.39-2.73-2.84-4.09-.45-1.36-.43-3.16-.17-4.98.26-1.79.72-3.47 1.05-4.51zm.54 15c.28.28.56.54.84.8-.37-.07-.76-.14-1.15-.19-1.91-.27-4.09-.35-5.9.25-1.8.6-3.51 1.96-4.87 3.32-.28.28-.54.56-.8.84.07-.37.14-.76.19-1.15.27-1.91.35-4.09-.25-5.9-.6-1.8-1.96-3.51-3.32-4.87-.28-.28-.56-.54-.84-.8.37.07.76.14 1.15.19 1.91.27 4.09.35 5.9-.25 1.81-.6 3.51-1.96 4.87-3.32.28-.28.54-.56.8-.84-.07.37-.14.76-.19 1.15-.27 1.91-.35 4.09.25 5.89.6 1.81 1.96 3.51 3.32 4.87v.01zM501.13 101.295l1 .08c.04-.55-.36-1.03-.92-1.08l-6.83-.56c-.26-.02-.53.06-.73.23-.2.17-.33.42-.35.68-1.09 13.39 6.46 23.75 18.93 28.79 1.71.69 3.41 1.17 5.1 1.49 7.4 11.81 21.11 16.22 34.09 16.26.26 0 .52-.1.7-.29.19-.19.29-.44.3-.71l.02-6.85h-1v-1c-8.56-.03-16.66-2.05-22.93-7.79 4.4-1.12 8.35-3.32 11.49-6.05 3.36-2.92 5.98-6.61 7.26-10.59 2.07-6.47-.1-13.29-5.65-17.23-3.2-2.27-7.23-3.38-11.38-2.72-6.67 1.05-12.31 6.38-15.27 15.58-1.23 3.83-1.61 7.46-1.28 10.87-3.73-1.8-6.64-4.19-8.62-7.08-2.24-3.29-3.32-7.29-2.94-11.96l-1-.08.01.01zm29.43-5.35c3.59-.57 7.1.39 9.91 2.38 4.82 3.41 6.71 9.32 4.9 14.99-1.14 3.57-3.53 6.97-6.66 9.69-3.2 2.79-7.32 4.95-11.87 5.88-1-1.09-2.12-2.57-3.02-4.52 3.84-.52 8.5-2.22 11.71-5.02 2.33-2.03 4.49-5.04 5.28-8.15.4-1.57.46-3.21-.02-4.77-.49-1.57-1.51-2.99-3.14-4.15-1.86-1.31-3.73-1.8-5.53-1.63-1.78.17-3.4.97-4.79 2.09-2.76 2.22-4.82 5.81-5.82 8.92-1.49 4.62-1.31 8.57-.15 11.94 0 0 .03.08.05.12.02.04.03.09.04.13 0 .03.03.04.04.07 1.36 3.61 3.46 5.97 4.93 7.37 6.62 6.51 15.2 8.85 24.05 9.04l-.02 4.85c-12.45-.26-24.99-4.68-31.64-15.66-.01-.02-.04-.04-.05-.06-1.25-2.02-2.2-3.86-2.84-7.56v-.01c-.63-3.57-.38-7.5.98-11.72 2.81-8.73 7.98-13.32 13.68-14.22h-.02zm8.31 11.06c.35 1.13.33 2.38 0 3.69-.67 2.63-2.55 5.31-4.66 7.14-3 2.61-7.53 4.2-11.14 4.6-.86-2.83-.95-6.18.33-10.16.92-2.85 2.79-6.07 5.17-7.97 1.18-.95 2.43-1.54 3.73-1.66 1.27-.12 2.68.21 4.2 1.28 1.3.92 2.04 1.98 2.38 3.1l-.01-.02zm-35.46 7.46c2.43 3.55 6.07 6.33 10.61 8.29.48 2.55 1.12 4.3 1.9 5.81-.98-.26-1.96-.58-2.94-.98-11.47-4.63-18.29-13.88-17.73-25.77l4.84.39c-.19 4.68.97 8.8 3.33 12.25l-.01.01zM263.89 736.775c5.83-1.24 9.55-6.97 8.31-12.8-1.24-5.83-6.97-9.55-12.8-8.31-5.83 1.24-9.55 6.97-8.31 12.8 1.24 5.83 6.97 9.55 12.8 8.31zm-10.85-8.73c-1.01-4.75 2.02-9.42 6.77-10.43 4.75-1.01 9.42 2.02 10.43 6.77 1.01 4.75-2.02 9.42-6.77 10.43-4.75 1.01-9.42-2.02-10.43-6.77zM550.3 750.145c-1.72-3.54-5.98-5.02-9.51-3.3-3.54 1.72-5.02 5.98-3.3 9.51 1.72 3.54 5.97 5.02 9.51 3.3 3.54-1.72 5.02-5.97 3.3-9.51zm-4.17 7.71c-2.55 1.23-5.61.17-6.84-2.37-1.23-2.54-.17-5.61 2.37-6.84 2.54-1.23 5.61-.17 6.84 2.37 1.23 2.55.17 5.61-2.37 6.84zM298.24 711.925c4.51-.96 7.39-5.4 6.43-9.91a8.351 8.351 0 0 0-9.91-6.43c-4.51.96-7.39 5.4-6.43 9.91s5.4 7.39 9.91 6.43zm-7.95-6.85a6.348 6.348 0 1 1 12.42-2.64 6.348 6.348 0 1 1-12.42 2.64zM261.4 812.475l-.98-.19c-.07.36.06.73.34.96l.64-.77zM541.19 794.605c5.36-2.6 7.6-9.06 5-14.42-2.6-5.36-9.06-7.6-14.42-5-5.36 2.6-7.6 9.06-5 14.42 2.6 5.36 9.06 7.6 14.42 5zm-8.55-17.62c4.37-2.12 9.63-.29 11.75 4.08 2.12 4.37.3 9.63-4.08 11.75-4.37 2.12-9.63.29-11.75-4.07-2.12-4.37-.29-9.63 4.08-11.75v-.01zM538.02 677.045c.05-.36-.1-.72-.39-.94l-8.7-6.51a.997.997 0 0 0-.97-.13c-.32.13-.56.42-.62.76-.71 4.08-3.16 8.39-6.34 12.23-3.18 3.83-7.01 7.09-10.37 9.1l.51.86-.86.51 6.34 10.59a.994.994 0 0 0 1.39.33c2.98-1.88 7.51-5.44 11.53-10.07 4.01-4.62 7.58-10.41 8.46-16.73h.02zm-20.21 24.55-5.31-8.86c3.35-2.15 6.99-5.33 10.04-9.01 2.92-3.52 5.35-7.56 6.42-11.61l6.97 5.22c-.94 5.57-4.14 10.79-7.9 15.12-3.51 4.05-7.42 7.23-10.23 9.12l.01.02zM115.84 608.595c2.16-1.74 4.42-3.14 5.87-3.96.73-.42.62-1.21.51-1.51-.11-.3-.55-.97-1.37-.8-1.63.32-4.26.75-7.03.84-2.79.09-5.61-.16-7.69-1.11-2.08-.95-4.11-2.91-5.87-5.09-1.74-2.16-3.14-4.42-3.96-5.87-.42-.73-1.21-.62-1.51-.51-.3.11-.97.55-.8 1.37.32 1.63.75 4.26.84 7.03.09 2.79-.16 5.61-1.11 7.68-.95 2.08-2.91 4.11-5.08 5.87-2.16 1.74-4.42 3.14-5.87 3.96-.73.42-.62 1.21-.51 1.51.11.3.55.97 1.37.8 1.63-.32 4.26-.75 7.03-.84 2.8-.09 5.61.16 7.69 1.11 2.08.95 4.11 2.91 5.87 5.09 1.74 2.16 3.14 4.42 3.96 5.87.42.73 1.21.62 1.51.51.3-.11.97-.55.8-1.37-.32-1.64-.75-4.26-.84-7.03-.09-2.79.16-5.61 1.11-7.68.95-2.08 2.91-4.11 5.08-5.87zm-8.2 13.62c.04 1.27.15 2.51.29 3.64-.64-.95-1.36-1.96-2.16-2.95-1.82-2.25-4.09-4.5-6.59-5.65-2.51-1.15-5.69-1.39-8.58-1.29-1.28.04-2.51.15-3.65.29.95-.64 1.96-1.36 2.95-2.16 2.25-1.82 4.5-4.09 5.65-6.59 1.15-2.51 1.39-5.69 1.29-8.58-.04-1.27-.15-2.51-.29-3.65.64.95 1.36 1.96 2.16 2.95 1.82 2.25 4.09 4.5 6.59 5.65 2.51 1.15 5.69 1.39 8.58 1.29 1.27-.04 2.51-.15 3.64-.29-.95.64-1.96 1.36-2.95 2.16-2.25 1.82-4.5 4.09-5.65 6.59-1.15 2.51-1.39 5.69-1.29 8.58l.01.01zM163.47 750.215c.77-.23.83-.98.8-1.26-.04-.28-.28-.99-1.09-1.02-1.09-.04-2.83-.16-4.6-.51-1.8-.36-3.51-.94-4.64-1.81-1.13-.88-2.12-2.39-2.92-4.04-.79-1.63-1.33-3.28-1.65-4.33-.23-.77-.98-.83-1.26-.8-.28.04-.99.28-1.02 1.09-.04 1.09-.16 2.83-.51 4.6-.36 1.8-.94 3.51-1.81 4.64-.88 1.13-2.39 2.12-4.04 2.91-1.63.78-3.28 1.34-4.33 1.65-.77.23-.83.98-.8 1.26.04.28.28.99 1.09 1.02 1.09.04 2.83.16 4.6.51 1.8.36 3.51.93 4.64 1.81s2.12 2.39 2.91 4.04c.78 1.63 1.33 3.28 1.65 4.33.23.77.98.83 1.26.8.28-.04.99-.28 1.02-1.09.04-1.09.16-2.83.51-4.6.36-1.8.94-3.51 1.81-4.64.88-1.13 2.39-2.12 4.04-2.91 1.63-.78 3.28-1.34 4.33-1.65h.01zm-9.95 3.33c-1.17 1.5-1.82 3.58-2.19 5.48-.08.39-.14.77-.2 1.14-.15-.35-.31-.7-.48-1.05-.84-1.74-1.99-3.59-3.49-4.76-1.5-1.17-3.58-1.82-5.48-2.2-.38-.08-.77-.14-1.14-.2.35-.15.7-.31 1.05-.48 1.74-.84 3.59-1.99 4.76-3.49 1.16-1.5 1.82-3.58 2.19-5.48.08-.38.14-.76.2-1.14.15.35.31.7.48 1.05.84 1.74 1.99 3.59 3.49 4.76 1.5 1.16 3.58 1.82 5.48 2.19.38.08.76.14 1.14.2-.35.15-.7.31-1.05.48-1.74.84-3.59 1.99-4.76 3.49v.01zM328.01 587.845l-32.25-45.72c2.47-5.95 4.14-11.14 5.17-15.25a.995.995 0 0 0-.73-1.21.995.995 0 0 0-1.21.73c-5.3 21.32-28.64 72.58-90.99 108.58-34.18 19.73-67.2 27.44-93.35 29.26-.55.04-.97.52-.93 1.07.04.55.52.97 1.07.93 6.22-.43 12.84-1.2 19.75-2.38l38.41 42.43c1.81 1.99 5.12.95 5.46-1.72l6.95-54.82 45.4 31.76c2.19 1.53 5.17-.19 4.94-2.85l-4.83-55.46 51.24 21.51c2.48 1.04 5.03-1.3 4.22-3.86l-17.07-53.6 55.86 5.54c2.68.27 4.44-2.74 2.88-4.95l.01.01zm-151.59 116.47c-.12.97-1.33 1.35-1.99.63l-37.57-41.5c14.45-2.62 30.17-7.04 46.52-13.96l-6.96 54.83zm55.48-24.45-45.38-31.75c7.39-3.27 14.9-7.05 22.47-11.42 7.14-4.12 13.77-8.44 19.92-12.9l4.79 55.02c.08.97-1 1.6-1.8 1.04v.01zm50.99-37-50.86-21.35c14.35-10.76 26.01-22.21 35.4-33.45l17 53.39c.3.93-.64 1.79-1.54 1.41zm-13.18-57.58c12-14.9 20.05-29.28 25.13-41l31.54 44.71c.57.8-.07 1.9-1.05 1.8l-55.62-5.52v.01z" fill="#fff"/><path d="M260.76 813.245c4.91 4.08 11.44 5.96 17.52 6.68 6.09.73 11.84.31 15.31-.31.26-.05.5-.2.65-.42.15-.22.21-.5.15-.76l-2.43-12.1c-.11-.54-.64-.89-1.18-.78-3.84.77-8.88.94-13.8.24-4.94-.7-9.64-2.24-12.92-4.78a1.02 1.02 0 0 0-.97-.15c-.33.12-.56.41-.63.75l-2.05 10.67.98.19-.64.77h.01zm29.43-5.56 2.03 10.12c-3.35.49-8.39.77-13.71.13-5.7-.68-11.57-2.4-16.02-5.89l1.64-8.54c3.52 2.28 8.03 3.63 12.56 4.27 4.73.67 9.56.57 13.49-.09h.01zM156.66 789.925c1.81.06 4.71.26 7.68.85 2.99.6 5.92 1.57 7.91 3.11 1.98 1.54 3.66 4.14 4.98 6.88 1.31 2.72 2.23 5.48 2.74 7.22.24.82 1.05.9 1.37.85.32-.04 1.08-.32 1.11-1.17.07-1.82.26-4.71.85-7.68.6-2.99 1.57-5.92 3.11-7.91 1.54-1.98 4.13-3.66 6.88-4.98 2.72-1.31 5.48-2.23 7.22-2.74.82-.24.9-1.05.85-1.37-.04-.33-.32-1.09-1.17-1.12-1.82-.07-4.71-.26-7.68-.85-2.99-.6-5.92-1.57-7.91-3.11-1.98-1.54-3.66-4.14-4.98-6.88-1.31-2.72-2.23-5.48-2.74-7.22-.24-.82-1.05-.9-1.37-.85-.33.04-1.08.32-1.11 1.17-.07 1.82-.26 4.71-.85 7.68-.6 2.99-1.57 5.92-3.11 7.91-1.54 1.98-4.14 3.66-6.88 4.98-2.72 1.31-5.48 2.23-7.22 2.74-.82.24-.9 1.05-.85 1.37.04.33.32 1.09 1.17 1.12zm7.77-3.43c2.83-1.36 5.77-3.2 7.59-5.56 1.82-2.35 2.87-5.66 3.49-8.74.3-1.49.5-2.96.64-4.3.47 1.26 1.03 2.63 1.69 4 1.36 2.83 3.2 5.77 5.56 7.59 2.36 1.82 5.66 2.87 8.74 3.49 1.49.3 2.96.5 4.3.64-1.26.47-2.63 1.03-4 1.69-2.83 1.36-5.77 3.2-7.59 5.56-1.82 2.35-2.87 5.66-3.49 8.74-.3 1.49-.5 2.96-.64 4.3-.47-1.26-1.03-2.63-1.69-4-1.36-2.83-3.2-5.77-5.56-7.59-2.35-1.83-5.66-2.87-8.74-3.49-1.49-.3-2.96-.5-4.3-.64 1.26-.47 2.63-1.03 4-1.69zM510.63 691.555c-.23.14-.39.36-.46.61-.06.26-.02.53.11.76l.86-.51-.51-.86zM553.45 604.335l10.29-.98c2.21-.21 3.25-2.83 1.78-4.5l-6.83-7.75a.714.714 0 0 1-.16-.63l2.24-10.09c.48-2.16-1.69-3.96-3.73-3.08l-9.48 4.1c-.21.09-.45.08-.65-.04l-8.9-5.25c-1.91-1.13-4.29.39-4.08 2.59l.97 10.29c.02.23-.07.45-.24.6l-7.74 6.84c-1.66 1.47-.96 4.2 1.2 4.69l10.08 2.26c.22.05.41.2.5.41l4.11 9.48c.88 2.03 3.7 2.21 4.83.3l5.26-8.89c.12-.2.32-.33.55-.35zm-7.53 8.22c-.3.5-1.04.46-1.27-.08l-4.11-9.48c-.35-.8-1.05-1.38-1.9-1.57l-10.08-2.26a.72.72 0 0 1-.32-1.24l7.74-6.84c.65-.57.99-1.43.91-2.29l-.97-10.29a.716.716 0 0 1 1.08-.68l8.9 5.25c.75.44 1.66.5 2.46.15l9.48-4.1c.54-.23 1.11.24.98.81l-2.24 10.09c-.19.85.04 1.73.61 2.39l6.83 7.75c.39.44.11 1.13-.47 1.19l-10.29.98c-.86.08-1.64.57-2.08 1.32l-5.26 8.89v.01zM459.62 620.905c-7.23-10.86-18.7-18.27-32.41-20.99-27.53-5.46-54.4 13.58-60.18 42.71-5.93 29.93 8.7 55.59 32.7 63.62-.28.25-.56.52-.87.8-.7.65-1.46 1.37-2.13 2.12-.67.74-1.3 1.56-1.73 2.4-.43.85-.7 1.8-.55 2.8.24 1.59 1.54 2.93 3.03 3.93 1.32.9 2.97 1.64 4.69 2.2-2.91 10.44-8.15 15.69-14.69 18.53-6.75 2.92-14.93 3.32-23.73 3.91-8.72.58-17.97 1.36-26.48 5.19-8.56 3.86-16.3 10.77-22.1 23.48-.23.5 0 1.1.49 1.33.5.23 1.1 0 1.33-.49 5.62-12.3 13.02-18.84 21.1-22.49 8.14-3.67 17.04-4.44 25.79-5.02 8.67-.58 17.26-.98 24.39-4.08 7.14-3.1 12.76-8.86 15.82-19.82 1.68.39 3.37.59 4.88.51 1.78-.09 3.57-.58 4.56-1.88 1.28-1.68 1.14-4.1.66-6.21-.38-1.65-1.01-3.32-1.64-4.73 25.05 1.49 48.05-16.39 53.99-46.38 3.24-16.33.3-30.58-6.93-41.45l.01.01zm-47.36 93c.47 2.05.4 3.65-.3 4.55-.45.58-1.46 1.02-3.08 1.1-1.56.08-3.46-.18-5.32-.71-1.86-.53-3.63-1.3-4.95-2.2-1.37-.93-2.06-1.84-2.17-2.58-.07-.44.03-.96.35-1.58.32-.62.82-1.29 1.44-1.97.61-.68 1.31-1.35 2.01-1.99.59-.55 1.18-1.09 1.7-1.59 1.27.36 2.56.69 3.89.95 1.49.29 2.97.51 4.45.66.74 1.5 1.56 3.47 2 5.36h-.02zm-6.05-7.99c-26.32-5.22-43.45-31.44-37.21-62.9 5.58-28.15 31.48-46.36 57.83-41.14 13.23 2.62 24.23 9.75 31.14 20.13 6.91 10.38 9.78 24.08 6.63 39.95-6.29 31.73-32.06 49.17-58.39 43.95v.01zM925.29 746.645c6.52-1.39 10.68-7.79 9.29-14.31-1.39-6.52-7.79-10.68-14.31-9.29-6.52 1.39-10.68 7.79-9.29 14.31 1.39 6.52 7.79 10.68 14.31 9.29zm-4.6-21.64c5.44-1.16 10.78 2.31 11.94 7.75 1.16 5.44-2.31 10.78-7.75 11.94-5.44 1.16-10.78-2.31-11.94-7.75-1.16-5.44 2.31-10.78 7.75-11.94zM425.15 791.555c-.96-4.51-5.4-7.39-9.91-6.43s-7.39 5.4-6.43 9.91 5.4 7.39 9.91 6.43a8.351 8.351 0 0 0 6.43-9.91zm-6.85 7.95a6.348 6.348 0 1 1-2.64-12.42 6.348 6.348 0 1 1 2.64 12.42zM941.32 642.765c1.59.84 3.13 2.49 4.44 4.31 1.3 1.81 2.32 3.69 2.92 4.89.37.73 1.14.67 1.42.58.28-.09.96-.47.84-1.28-.18-1.33-.41-3.46-.36-5.68.05-2.25.38-4.47 1.22-6.07.84-1.6 2.49-3.13 4.31-4.44 1.81-1.3 3.69-2.32 4.89-2.92.74-.37.67-1.14.58-1.42-.09-.28-.47-.96-1.28-.84-1.33.19-3.46.41-5.68.36-2.25-.05-4.48-.38-6.07-1.22-1.6-.84-3.13-2.48-4.45-4.31-1.3-1.81-2.32-3.69-2.91-4.89-.37-.73-1.14-.67-1.43-.58-.28.09-.95.47-.84 1.28.19 1.33.41 3.46.37 5.68-.05 2.25-.39 4.47-1.22 6.07-.84 1.6-2.49 3.13-4.32 4.44-1.81 1.3-3.69 2.32-4.89 2.92-.73.37-.67 1.14-.58 1.42.09.28.47.96 1.28.84 1.33-.19 3.46-.41 5.69-.36 2.25.05 4.47.38 6.07 1.22zm-8.24-3.19c.6-.38 1.22-.78 1.84-1.23 1.91-1.37 3.86-3.12 4.92-5.14 1.05-2.01 1.39-4.61 1.45-6.96.02-.76 0-1.49-.03-2.2.37.6.78 1.22 1.22 1.83 1.37 1.91 3.12 3.86 5.14 4.91 2.01 1.06 4.61 1.4 6.95 1.45.76.02 1.5 0 2.21-.03-.6.38-1.22.78-1.84 1.23-1.9 1.37-3.85 3.12-4.91 5.13s-1.4 4.61-1.45 6.96c-.02.76 0 1.5.03 2.21-.37-.6-.78-1.22-1.22-1.84-1.38-1.91-3.13-3.86-5.14-4.91-2.01-1.06-4.61-1.4-6.96-1.45-.76-.02-1.5 0-2.21.03v.01zM363.18 817.165l-.9-.8-.62 1.04.86.51.66-.75zM600.5 905.225c.49-.25.68-.86.42-1.35-15.75-30.07-40.5-46.14-51.02-50.45a.998.998 0 1 0-.75 1.85c10.13 4.15 34.5 19.92 50 49.53.26.49.86.68 1.35.42zM548.55 439.525c-.35-.2-.8-.17-1.12.08l-16.74 13.11a1 1 0 0 0-.17 1.4 1 1 0 0 0 1.4.17l14.79-11.58-2.61 18.5c-.04.27.04.54.21.76.17.21.42.35.69.38l27.92 2.58-26.18 17.49c-.25.17-.41.43-.44.73-.03.3.07.59.29.8l14.08 14.17a.996.996 0 1 0 1.41-1.41l-13.22-13.31 27.51-18.38c.35-.23.52-.67.41-1.08-.1-.41-.46-.71-.88-.75l-29.69-2.74 2.81-19.91c.06-.4-.14-.8-.49-1.01h.02z" fill="#fff"/><path d="M367.6 861.815c-1.41-1.08-3.52-2.47-6.15-2.67-6.17-.47-11.72 3.6-12.16 9.35-.44 5.75 4.43 10.61 10.59 11.08 6.63.51 10.73-4.17 13.59-8.99l16.84-28.38.42-.71-.62-.55-26.93-23.78-.66.75-.86-.51-17.79 29.98c-1.84-1.55-4.24-2.57-6.91-2.77-6.17-.47-11.72 3.6-12.16 9.35-.44 5.74 4.43 10.61 10.59 11.08 2.03.16 4.16-.07 6.07-.68 1.91-.61 3.66-1.63 4.82-3.13l-.82-.64.03.02.79.62.04-.05.03-.06 17.61-29.66 14.47 12.09-10.84 18.27.01-.01zm-22.91-1.78c-.85 1.07-2.19 1.89-3.83 2.43-1.65.52-3.52.72-5.31.59-5.3-.41-9.09-4.51-8.75-8.94.34-4.43 4.72-7.91 10.01-7.51 2.67.21 4.99 1.36 6.57 3.04l.73-.68.86.51 17.81-30.01 25.41 22.43-16.42 27.67c-2.8 4.71-6.32 8.43-11.72 8.02-5.3-.41-9.09-4.51-8.75-8.94.34-4.43 4.71-7.91 10.01-7.5 2.56.19 4.58 1.84 5.96 2.94l.9.72.59-.99 11.86-19.98.43-.73-.65-.55-16.03-13.39-.9-.75-18.77 31.62h-.01z" fill="#fff"/><path d="m344.96 849.465-.86-.5-.73.68.91.96.68-1.14zM576.76 912.725c.37.4 1 .43 1.41.06.41-.37.44-1 .07-1.41-12.52-13.77-29.28-20.31-36.17-21.87a.997.997 0 0 0-1.2.75c-.12.54.22 1.07.75 1.2 6.59 1.49 22.95 7.87 35.13 21.27h.01zM538.7 926.145c3.54-1.72 5.01-5.98 3.3-9.52a7.13 7.13 0 0 0-9.51-3.3 7.123 7.123 0 0 0 6.21 12.82zm-5.34-11.02a5.12 5.12 0 0 1 6.84 2.38c1.23 2.54.17 5.6-2.37 6.84-2.54 1.23-5.61.17-6.84-2.37a5.136 5.136 0 0 1 2.37-6.85zM83.53 419.835c2.74 9.22 12.77 26.99 33.79 31.85 6.9 1.59 14.77.59 23.05-1.37 8.25-1.95 17.18-4.93 26.01-7.33 17.84-4.85 35.67-7.47 50.34 3.59.44.33 1.07.24 1.4-.2.33-.44.24-1.07-.2-1.4-15.5-11.69-34.22-8.77-52.07-3.92-9.01 2.45-17.7 5.36-25.94 7.31-8.21 1.94-15.71 2.86-22.14 1.37-20.83-4.82-30.42-22.97-32.59-31.42v-.01c.97-.98 1.83-2.01 2.49-3.04 1.06-1.68 1.75-3.59 1.22-5.29-.69-2.2-2.95-3.62-5.19-4.54-1.81-.75-3.82-1.25-5.56-1.58 17.64-21.89 16.22-54.5-7.38-79.33-12.82-13.49-27.72-20-42.29-20.41-9.94-.28-19.68 2.28-28.46 7.35v2.33c8.74-5.29 18.49-7.97 28.41-7.69 13.99.39 28.4 6.64 40.9 19.79 24.99 26.3 24.28 61.21 2.45 81.96-19.04 18.09-48.18 19.41-71.75 2.16v2.44c22 15.41 48.58 15.5 67.89 1.22.06.47.13.98.2 1.51.14 1.06.31 2.21.56 3.31.25 1.09.58 2.18 1.07 3.11.49.93 1.17 1.77 2.15 2.26 1.57.78 3.58.48 5.46-.23 1.93-.73 3.98-1.98 5.79-3.44.14-.11.27-.24.41-.36h-.02zm-6.91 1.93c-1.74.66-3.06.71-3.86.32-.47-.24-.9-.69-1.27-1.4s-.66-1.61-.89-2.62c-.23-1.01-.39-2.08-.52-3.14-.12-.92-.23-1.84-.36-2.65 1.17-.94 2.32-1.92 3.43-2.97 1.24-1.18 2.41-2.41 3.52-3.68 1.87.3 4.24.82 6.28 1.66 2.18.9 3.64 2.02 4.04 3.29.26.84-.02 2.08-1 3.62-.95 1.5-2.42 3.07-4.12 4.44-1.69 1.37-3.55 2.49-5.24 3.13h-.01zM822.38 591.935c.26.04.53-.03.74-.2a1 1 0 0 0 .38-.66l-.99-.13-.13.99zM127.02 306.615c-.51.68-.09 1.37.14 1.61.23.23.9.68 1.6.19 1.46-1.01 3.86-2.56 6.54-3.83 2.7-1.29 5.58-2.24 8.04-2.2 2.46.05 5.3 1.11 7.95 2.49 2.63 1.37 4.97 3 6.39 4.07.68.51 1.37.09 1.61-.13.23-.23.68-.9.19-1.6-1.01-1.47-2.56-3.86-3.83-6.54-1.29-2.7-2.24-5.58-2.19-8.04.04-2.46 1.1-5.3 2.49-7.95 1.37-2.63 3-4.97 4.07-6.39.51-.68.09-1.37-.13-1.61-.23-.23-.9-.68-1.6-.19-1.47 1.02-3.86 2.56-6.54 3.83-2.7 1.29-5.58 2.24-8.03 2.2-2.46-.04-5.3-1.1-7.95-2.49-2.63-1.37-4.97-3-6.39-4.07-.68-.51-1.37-.09-1.6.14-.24.23-.68.9-.19 1.6 1.02 1.47 2.56 3.86 3.83 6.54 1.29 2.7 2.24 5.58 2.2 8.03-.05 2.46-1.1 5.3-2.49 7.95-1.37 2.63-3 4.97-4.07 6.39h-.04zm8.56-14.31c.05-2.93-1.06-6.14-2.39-8.93-.63-1.32-1.32-2.57-1.98-3.69 1.09.7 2.31 1.44 3.61 2.12 2.74 1.43 5.91 2.66 8.84 2.71 2.93.05 6.14-1.06 8.93-2.39 1.33-.63 2.57-1.32 3.69-1.98a47.25 47.25 0 0 0-2.12 3.61c-1.43 2.74-2.66 5.91-2.71 8.84-.05 2.93 1.06 6.14 2.39 8.93.63 1.33 1.32 2.57 1.98 3.69a47.25 47.25 0 0 0-3.61-2.12c-2.74-1.43-5.91-2.66-8.84-2.71-2.93-.05-6.14 1.06-8.93 2.39-1.33.63-2.57 1.32-3.69 1.98.7-1.09 1.44-2.31 2.12-3.61 1.43-2.74 2.66-5.91 2.72-8.84h-.01zM280.48 299.535a.983.983 0 0 0-1.21.26l.77.63.97.23c.1-.45-.12-.92-.53-1.12zM29.63 258.675l-.95.31c.11.35.41.6.77.67 6.27 1.18 12.9-.35 18.56-2.67 5.68-2.32 10.5-5.48 13.23-7.7.21-.17.34-.42.36-.68a.985.985 0 0 0-.23-.74l-8-9.4a1.007 1.007 0 0 0-1.41-.12c-2.98 2.54-7.3 5.13-11.94 6.91-4.65 1.79-9.52 2.73-13.61 2.09l-.15.99-.95.31 3.39 10.32.95-.31-.02.02zm11.1-11.54c4.46-1.71 8.63-4.14 11.74-6.63l6.69 7.86c-2.69 2.06-6.96 4.74-11.92 6.77-5.31 2.17-11.28 3.53-16.86 2.64l-2.72-8.28c4.18.28 8.78-.73 13.05-2.37l.02.01zM110.05 192.185c6.52-1.39 10.68-7.79 9.29-14.31-1.39-6.52-7.79-10.68-14.31-9.29-6.52 1.39-10.68 7.79-9.29 14.31 1.39 6.52 7.79 10.68 14.31 9.29zm-4.6-21.64c5.44-1.16 10.78 2.31 11.94 7.75 1.16 5.44-2.31 10.78-7.75 11.94-5.44 1.16-10.78-2.31-11.94-7.75-1.16-5.44 2.31-10.78 7.75-11.94z" fill="#fff"/><path d="m791.65 587.175 2.74 10.52c.09.34.34.6.68.7.33.1.69.02.95-.21 3.1-2.75 7.7-4.59 12.58-5.61 4.87-1.01 9.9-1.17 13.79-.65l.13-.99.99.13 1.64-12.23c.04-.27-.04-.54-.2-.75a1.02 1.02 0 0 0-.68-.38c-3.5-.39-9.26-.44-15.29.68-6.02 1.12-12.41 3.41-17.05 7.8l.69.73-.97.25v.01zm17.7-6.81c5.27-.98 10.31-1.03 13.69-.75l-1.38 10.23c-3.96-.41-8.79-.19-13.46.78-4.48.93-8.9 2.57-12.26 5.07l-2.19-8.42c4.21-3.77 9.96-5.87 15.6-6.91zM786.49 473.625c1.75.24 3.78.98 5.85 2 4.14 2.04 8.14 5.04 9.78 6.68l.71-.71.71.7 6.44-6.55.7-.71-.71-.7c-2.1-2.07-4.85-4.49-6.72-7.59-1.83-3.03-2.76-6.64-1.21-11.07.9-2.57 3.76-4.36 6.72-4.83l1.35-.22-4.87-9.74-.89.45-.45-.89c-5.05 2.52-10.55 5.16-12.74 11.42-1.27 3.63-1.17 7.5-.42 11.13-5.55-1.5-12.03-1.41-16.57 3.11-5.48 5.46-6.51 12.68-3.62 19.44-7.47-1.12-15.22.15-20.89 5.83-5.74 5.76-7.45 12.98-6.11 19.98 1.34 6.97 5.69 13.7 12.05 18.6l.61-.79.72.69 6.74-6.98-.72-.69.62-.78c-3.6-2.85-6.72-6.77-8.07-10.76-1.33-3.95-.94-7.9 2.37-11.16 3.19-3.15 7.48-3.57 11.99-2.55 4.52 1.03 9.08 3.47 12.53 5.75l.69.46.58-.59 7.16-7.29.72-.74-.76-.7c-2.23-2.06-5.72-5.68-7.88-9.47-1.08-1.9-1.79-3.77-1.9-5.46-.11-1.65.35-3.14 1.65-4.41.81-.8 2.09-1.09 3.85-.85l-.01-.01zm-7.5 5.39c.14 2.12 1 4.29 2.16 6.32 2.08 3.64 5.23 7.05 7.51 9.24l-5.88 5.98c-3.47-2.22-7.95-4.55-12.5-5.59-4.86-1.1-9.96-.75-13.83 3.07-3.96 3.91-4.38 8.72-2.86 13.23 1.39 4.12 4.42 8.02 7.88 10.98l-5.36 5.56c-5.64-4.58-9.42-10.65-10.61-16.83-1.23-6.4.33-12.95 5.56-18.2 5.51-5.52 13.33-6.52 21-4.95l2.1.43-1.01-1.88c-3.53-6.57-2.86-13.62 2.42-18.87 4.19-4.17 10.58-4.03 16.21-2.12l1.76.6-.47-1.8c-1.03-3.88-1.32-7.97-.03-11.66 1.77-5.07 6.02-7.42 10.85-9.85l3.24 6.48c-2.98.82-5.91 2.79-6.98 5.86-1.79 5.11-.68 9.34 1.39 12.77 1.8 2.99 4.36 5.41 6.31 7.28l-5.05 5.13c-2.06-1.84-5.76-4.5-9.57-6.37-2.16-1.06-4.41-1.91-6.47-2.18-2.04-.28-4.07-.01-5.52 1.4-1.77 1.73-2.39 3.81-2.25 5.97zM273.38 226.175c-.51-.18-1.08.08-1.27.59l.94.35.95.31a.996.996 0 0 0-.62-1.25z" fill="#fff"/><path d="m763.66 522.875.76-.8-.86-.68-.62.78.72.7zM802.12 482.295l.72.72.7-.72-.71-.7-.71.7zM755.59 529.955l.71.54.62-.64-.72-.69-.61.79zM804.785 440.002l-.895.447.447.895.895-.448-.447-.894zM587.85 817.045c2.14-2.09 4.44-3.83 5.91-4.86.7-.49.51-1.28.37-1.57-.14-.29-.65-.92-1.46-.68-1.73.51-4.51 1.24-7.48 1.63-3 .39-6.06.4-8.41-.41-2.35-.81-4.74-2.72-6.85-4.88-2.09-2.14-3.83-4.44-4.86-5.91-.49-.7-1.28-.51-1.57-.37-.29.14-.92.65-.68 1.46.51 1.72 1.25 4.51 1.63 7.48.39 3 .4 6.06-.41 8.4-.81 2.35-2.72 4.74-4.88 6.86-2.14 2.09-4.44 3.83-5.91 4.86-.7.49-.51 1.28-.37 1.57.14.29.65.92 1.46.68 1.72-.52 4.51-1.25 7.48-1.63 3-.39 6.06-.4 8.41.41 2.35.81 4.74 2.72 6.85 4.88 2.09 2.14 3.83 4.44 4.86 5.91.49.7 1.28.51 1.57.37.29-.14.92-.65.68-1.46-.51-1.72-1.24-4.51-1.63-7.48-.39-3-.4-6.06.41-8.41.82-2.35 2.72-4.74 4.88-6.85zm-7.28 15.52c.19 1.48.47 2.91.76 4.2-.83-1.03-1.78-2.13-2.83-3.19-2.18-2.23-4.84-4.41-7.63-5.37-2.79-.97-6.22-.9-9.32-.51-1.48.19-2.91.47-4.2.76 1.03-.83 2.13-1.78 3.2-2.83 2.23-2.18 4.4-4.84 5.37-7.63.97-2.79.9-6.23.5-9.32-.19-1.48-.47-2.91-.76-4.2.83 1.03 1.78 2.13 2.83 3.2 2.18 2.23 4.84 4.41 7.63 5.37 2.79.97 6.23.9 9.32.51 1.48-.19 2.91-.47 4.2-.76-1.03.83-2.13 1.78-3.19 2.83-2.23 2.18-4.41 4.84-5.37 7.63-.97 2.79-.9 6.23-.5 9.32l-.01-.01zM726.93 254.875l.31.95c11.17 34.46 29.82 51.18 48.72 57.98 18.84 6.78 37.77 3.62 49.47-1.38.48-.2.72-.74.56-1.23l-8.81-27.16c9.27-1.73 17.64.64 24.42 4.42 7.05 3.94 12.33 9.36 15.01 13.12l.42.6.7-.23 21.13-6.85 1.06-.34-.46-1.02c-4.17-9.29-12.57-16.26-21.24-21.18-7.85-4.45-16.01-7.29-21.76-8.69 6.18-6.51 9.83-15.47 11.89-24.1 2.21-9.24 2.63-18.22 2.34-23.69l-.07-1.3-1.24.4-21.13 6.85-.71.23.02.74c.5 22.37-10.92 35.09-17.44 39.29l-9.78-30.16-.31-.95-.95.31-21.13 6.85.31.95-.95.31 17.4 53.65c-12.56-.82-22.48-8.05-29.86-17.04-7.66-9.34-12.49-20.45-14.57-27.8l-.96.27-.31-.95-21.13 6.85-.95.31v-.01zm36.38 22.59c7.87 9.59 18.75 17.5 32.78 17.86.32 0 .63-.14.83-.4.19-.26.25-.6.15-.91l-17.54-54.1 19.23-6.23 9.86 30.4.95-.31.48.88c6.8-3.73 19.79-17.04 19.53-40.96l19.18-6.22c.16 5.37-.35 13.49-2.34 21.82-2.16 9.05-6.04 18.21-12.62 24.41l.69.73-.21.98c5.57 1.18 14.47 4.07 22.96 8.89 8.17 4.64 15.85 11.01 19.92 19.26l-19.35 6.27c-2.94-3.93-8.25-9.22-15.23-13.12-7.35-4.1-16.61-6.68-26.91-4.42-.28.06-.51.23-.65.48-.14.24-.17.54-.08.81l8.87 27.35c-11.39 4.64-29.33 7.41-47.16 1-18.05-6.49-36.13-22.45-47.17-55.76l19.19-6.22c2.28 7.55 7.13 18.35 14.66 27.53l-.02-.02zM33.19 580.245c-4.51.96-7.39 5.4-6.43 9.91s5.4 7.39 9.91 6.43a8.351 8.351 0 0 0 6.43-9.91c-.96-4.51-5.4-7.39-9.91-6.43zm3.06 14.38a6.348 6.348 0 1 1-2.64-12.42 6.348 6.348 0 1 1 2.64 12.42zM55.02 694.315c-4.51.96-7.39 5.4-6.43 9.91s5.4 7.39 9.91 6.43 7.39-5.4 6.43-9.91-5.4-7.39-9.91-6.43zm3.06 14.38a6.348 6.348 0 1 1-2.64-12.42 6.348 6.348 0 1 1 2.64 12.42zM18.9 164.775l1.32.33-.08-1.36-1 .06-.24.97zM792.61 586.925l-.69-.73a.99.99 0 0 0-.28.98l.97-.25zM81.49 502.995c.03-7.18-5.76-13.03-12.94-13.06-7.18-.03-13.03 5.76-13.06 12.94-.03 7.18 5.76 13.03 12.94 13.06 7.18.03 13.03-5.76 13.06-12.94zm-24-.12c.03-6.07 4.98-10.98 11.05-10.95 6.07.03 10.98 4.98 10.95 11.05-.03 6.07-4.98 10.98-11.05 10.95-6.08-.03-10.98-4.98-10.95-11.05zM836.46 373.855c.02-4.61-3.7-8.37-8.31-8.39-4.61-.02-8.37 3.7-8.39 8.31-.02 4.61 3.7 8.37 8.31 8.39 4.61.02 8.37-3.7 8.39-8.31zm-14.7-.07a6.346 6.346 0 0 1 6.38-6.32c3.51.02 6.34 2.88 6.32 6.38-.02 3.51-2.88 6.34-6.38 6.32a6.346 6.346 0 0 1-6.32-6.38zM26.39 247.365c-.34-.05-.69.08-.92.34a.99.99 0 0 0-.19.96l.95-.31.15-.99h.01z" fill="#fff"/><path d="m18.9 164.775.24-.97 1-.06-.56-9.51-.06-1-1 .06c-5.63.33-11.73.59-16.21 5.48-.91 1-1.67 2.1-2.31 3.25v5.22c.76-2.65 1.96-5.12 3.79-7.12 3.63-3.96 8.46-4.45 13.85-4.78l.42 7.23c-3.06-.42-6.53.24-8.73 2.63-3.65 3.99-4.31 8.31-3.76 12.28.48 3.45 1.88 6.69 2.93 9.18l-6.66 2.73c-.45-.97-1.09-2.15-1.85-3.42v4.17c.16.33.29.64.4.91l.93-.37.38.93 8.49-3.48.93-.38-.38-.93c-1.12-2.73-2.69-6.04-3.19-9.62-.49-3.5.08-7.19 3.25-10.65 1.84-2.01 5.17-2.52 8.08-1.79l.02.01zM662.24 477.545c-2.98 2.54-7.3 5.13-11.94 6.91-4.65 1.79-9.52 2.73-13.61 2.09-.34-.05-.69.08-.92.34-.23.26-.3.63-.19.96l3.39 10.32c.11.35.41.6.77.67 6.27 1.18 12.9-.35 18.56-2.66 5.67-2.32 10.5-5.48 13.23-7.7.21-.17.34-.42.36-.68.02-.27-.06-.53-.24-.74l-8-9.4a.999.999 0 0 0-1.41-.11zm7.21 10.01c-2.69 2.06-6.96 4.74-11.92 6.77-5.31 2.17-11.28 3.53-16.86 2.64l-2.71-8.28c4.18.28 8.78-.73 13.05-2.37 4.46-1.71 8.63-4.14 11.74-6.63l6.69 7.86.01.01z" fill="#fff"/><path d="m.4 191.075.38.93.93-.38-.38-.92-.93.37z" fill="#fff"/></g><defs><clipPath id="a"><path fill="none" d="M0 0h1000v1000H0z"/></clipPath></defs></svg>