<svg width="250" height="240" viewBox="0 0 1000 960" fill="none" xmlns="http://www.w3.org/2000/svg">
<path fill-rule="evenodd" clip-rule="evenodd" d="M96.28 22.6814C91.968 19.1294 85.564 22.8594 86.526 28.3624L90.861 53.1754C91.163 54.9054 90.695 56.6814 89.578 58.0374L73.564 77.4794C70.012 81.7914 73.742 88.1954 79.245 87.2344L104.057 82.8984C105.788 82.5964 107.564 83.0654 108.919 84.1814L128.362 100.195C132.674 103.747 139.078 100.018 138.116 94.5144L133.781 69.7024C133.479 67.9714 133.948 66.1964 135.064 64.8404L151.078 45.3974C154.63 41.0854 150.9 34.6814 145.397 35.6434L120.584 39.9784C118.854 40.2804 117.078 39.8124 115.722 38.6954L96.28 22.6814ZM284.849 773.165C285.789 767.658 279.372 763.953 275.073 767.521L255.691 783.608C254.339 784.73 252.565 785.205 250.834 784.91L226.005 780.668C220.498 779.728 216.793 786.145 220.361 790.444L236.449 809.826C237.57 811.178 238.046 812.952 237.75 814.683L233.509 839.512C232.568 845.019 238.986 848.724 243.284 845.156L262.666 829.068C264.018 827.947 265.792 827.471 267.523 827.767L292.352 832.008C297.859 832.949 301.565 826.531 297.996 822.232L281.909 802.851C280.787 801.499 280.311 799.725 280.607 797.994L284.849 773.165ZM543.27 616.788C544.211 611.281 537.793 607.575 533.494 611.143L530.022 614.025C528.671 615.147 526.896 615.622 525.165 615.327L520.717 614.567C515.21 613.626 511.505 620.044 515.073 624.343L517.955 627.815C519.077 629.166 519.552 630.94 519.257 632.672L518.497 637.119C517.556 642.626 523.974 646.332 528.273 642.764L531.745 639.882C533.096 638.76 534.87 638.285 536.602 638.58L541.049 639.34C546.556 640.281 550.262 633.863 546.693 629.564L543.812 626.092C542.69 624.741 542.214 622.967 542.51 621.235L543.27 616.788ZM279.32 479.399C280.261 473.892 273.843 470.187 269.544 473.755L261.587 480.36C260.236 481.481 258.462 481.957 256.73 481.661L246.537 479.92C241.031 478.979 237.325 485.397 240.893 489.696L247.498 497.653C248.619 499.004 249.095 500.778 248.799 502.51L247.058 512.703C246.117 518.21 252.535 521.915 256.834 518.347L264.791 511.742C266.142 510.621 267.916 510.145 269.648 510.441L279.841 512.182C285.348 513.123 289.053 506.705 285.485 502.406L278.88 494.449C277.759 493.098 277.283 491.324 277.579 489.592L279.32 479.399ZM252.079 939.917C252.295 936.573 248.584 934.43 245.795 936.29L241.245 939.324C240.286 939.963 239.101 940.163 237.986 939.874L235.277 939.173C231.304 938.144 228.499 943.001 231.377 945.927L233.339 947.923C234.147 948.744 234.566 949.871 234.492 951.02L234.139 956.478C233.924 959.823 237.634 961.965 240.423 960.106L244.973 957.072C245.932 956.433 247.117 956.233 248.233 956.521L250.941 957.223C254.914 958.252 257.719 953.395 254.841 950.468L252.879 948.473C252.071 947.652 251.652 946.525 251.726 945.375L252.079 939.917ZM852.384 82.6814C848.071 79.1294 841.668 82.8594 842.629 88.3624L846.965 113.175C847.267 114.905 846.798 116.681 845.681 118.037L829.667 137.479C826.116 141.791 829.845 148.195 835.348 147.234L860.161 142.898C861.891 142.596 863.667 143.065 865.023 144.181L884.466 160.195C888.778 163.747 895.182 160.018 894.22 154.514L889.885 129.702C889.582 127.971 890.051 126.195 891.168 124.84L907.182 105.397C910.734 101.085 907.004 94.6814 901.501 95.6434L876.688 99.9784C874.958 100.28 873.182 99.8124 871.826 98.6954L852.384 82.6814ZM689.528 723.165C690.468 717.658 684.051 713.953 679.752 717.521L660.37 733.608C659.019 734.73 657.244 735.205 655.513 734.91L630.684 730.668C625.177 729.728 621.472 736.145 625.04 740.444L641.128 759.826C642.25 761.178 642.725 762.952 642.429 764.683L638.188 789.512C637.247 795.019 643.665 798.724 647.964 795.156L667.346 779.068C668.697 777.947 670.471 777.471 672.203 777.767L697.031 782.008C702.538 782.949 706.244 776.531 702.676 772.232L686.588 752.851C685.466 751.499 684.991 749.725 685.287 747.994L689.528 723.165ZM819.373 906.788C820.314 901.281 813.896 897.575 809.597 901.143L806.125 904.025C804.774 905.147 803 905.623 801.269 905.327L796.821 904.567C791.314 903.626 787.609 910.044 791.177 914.343L794.059 917.815C795.18 919.166 795.656 920.94 795.36 922.672L794.6 927.119C793.66 932.626 800.077 936.332 804.376 932.764L807.848 929.882C809.2 928.76 810.974 928.285 812.705 928.58L817.153 929.34C822.66 930.281 826.365 923.863 822.797 919.564L819.915 916.092C818.793 914.741 818.318 912.967 818.614 911.235L819.373 906.788ZM747.425 438.399C748.365 432.892 741.948 429.187 737.649 432.755L729.692 439.36C728.34 440.481 726.566 440.957 724.835 440.661L714.642 438.92C709.135 437.979 705.429 444.397 708.998 448.696L715.602 456.653C716.724 458.004 717.199 459.778 716.904 461.51L715.162 471.703C714.222 477.21 720.639 480.915 724.938 477.347L732.895 470.742C734.247 469.621 736.021 469.145 737.752 469.441L747.945 471.182C753.452 472.123 757.157 465.705 753.589 461.406L746.985 453.449C745.863 452.098 745.388 450.324 745.683 448.592L747.425 438.399ZM662.87 241.666C663.583 237.49 658.717 234.68 655.457 237.386L644.001 246.894C642.977 247.745 641.631 248.105 640.319 247.881L625.644 245.374C621.468 244.661 618.658 249.527 621.364 252.787L630.872 264.243C631.723 265.268 632.083 266.613 631.859 267.926L629.352 282.601C628.639 286.777 633.505 289.586 636.765 286.881L648.221 277.372C649.246 276.521 650.591 276.161 651.904 276.385L666.579 278.892C670.755 279.605 673.564 274.739 670.858 271.479L661.35 260.024C660.499 258.999 660.139 257.654 660.363 256.341L662.87 241.666ZM736.65 6.41836C736.971 1.44436 731.453 -1.74164 727.306 1.02336L720.539 5.53536C719.113 6.48636 717.35 6.78436 715.691 6.35436L711.663 5.31136C705.754 3.78036 701.584 11.0044 705.863 15.3564L708.781 18.3234C709.982 19.5454 710.606 21.2214 710.496 22.9304L709.972 31.0474C709.651 36.0214 715.169 39.2074 719.316 36.4424L726.083 31.9304C727.509 30.9804 729.272 30.6824 730.931 31.1114L734.959 32.1554C740.868 33.6854 745.038 26.4614 740.759 22.1094L737.841 19.1424C736.64 17.9204 736.016 16.2454 736.126 14.5354L736.65 6.41836Z" fill="white" fill-opacity="0.5"/>
<path d="M536.692 20.3224C560.921 25.1044 570.79 52.9124 570.79 52.9124C570.79 52.9124 597.619 37.8574 619.366 53.2664C643.418 70.3284 639.99 94.5934 627.344 111.241C609.615 134.857 552.885 149.321 536.456 141.646C514.355 131.433 488.235 86.8594 490.953 56.8084C492.844 36.1444 507.795 14.5374 536.692 20.3224Z" fill="#F61C7B" fill-opacity="0.2"/>
<path d="M355.554 127.9C365.26 138.94 359.654 150.787 351.2 156.758C338.897 165.426 313.129 165.26 303.205 158.26C295.793 153.078 287.892 124.965 293.672 111.417C297.71 101.802 307.336 94.2704 320.705 100.404C332.785 105.955 332.972 121.299 332.972 121.299C332.972 121.299 347.445 118.627 355.554 127.9Z" fill="#F61C7B" fill-opacity="0.2"/>
<path d="M205.415 282.38C237.291 303.621 231.173 337.221 213.92 357.95C188.8 388.067 123.828 405.027 94.128 394.101C71.976 386.056 33.13 320.623 38.541 282.626C42.219 255.702 61.37 230.251 99.156 236.674C133.304 242.499 144.126 280.993 144.126 280.993C144.126 280.993 178.752 264.507 205.415 282.38Z" fill="#F61C7B" fill-opacity="0.2"/>
<path d="M469.371 257.369C478.515 263.452 476.794 273.069 471.875 279C464.713 287.618 446.132 292.464 437.62 289.333C431.272 287.027 420.092 268.293 421.606 257.418C422.634 249.712 428.092 242.429 438.913 244.273C448.693 245.944 451.826 256.964 451.826 256.964C451.826 256.964 461.722 252.249 469.371 257.369Z" fill="#F61C7B" fill-opacity="0.2"/>
<path d="M860.739 261.074C882.438 257.473 893.056 273.961 893.956 289.422C895.24 311.906 874.653 344.51 857.914 351.582C845.469 356.901 803.508 344.708 790.867 326.653C781.845 313.921 779.889 295.735 798.252 283.603C814.856 272.646 834.497 284.54 834.497 284.54C834.497 284.54 842.547 264.042 860.739 261.074Z" fill="#F61C7B" fill-opacity="0.2"/>
<path d="M491.848 378.159C518.741 367.342 537.101 385.53 542.665 405.165C550.725 433.727 533.53 481.542 514.008 495.412C499.513 505.802 442.05 502.073 420.641 482.446C405.405 468.636 397.705 445.796 417.874 424.953C436.114 406.125 464.774 415.83 464.774 415.83C464.774 415.83 469.288 387.162 491.848 378.159Z" fill="#F61C7B" fill-opacity="0.2"/>
<path d="M149.141 615.899C174.07 629.183 172.009 654.284 160.845 670.744C144.587 694.662 98.13 711.806 75.544 705.934C58.705 701.631 25.467 656.418 26.691 628.141C27.445 608.116 39.66 588.053 67.855 590.037C93.337 591.843 104.061 619.311 104.061 619.311C104.061 619.311 128.282 604.709 149.141 615.899Z" fill="#F61C7B" fill-opacity="0.2"/>
<path d="M0 837.184C10.75 834.353 27.889 832.345 42.32 842.018C69.786 860.321 64.514 889.272 49.648 907.134C38.913 920.004 19.731 930.086 0 935.831V837.184Z" fill="#F61C7B" fill-opacity="0.2"/>
<path d="M0 461.139C2.406 461.196 5.005 461.677 7.789 462.669C20.943 467.363 22.421 483.402 22.421 483.402C22.421 483.402 37.402 479.272 46.694 488.228C57.812 498.885 52.912 511.799 44.529 518.826C34.112 527.539 12.848 530.418 0 527.086V461.139Z" fill="#F61C7B" fill-opacity="0.2"/>
<path d="M382.996 625.852C397.315 628.103 400.759 640.248 398.305 649.786C394.722 663.653 375.439 679.177 363.554 680.038C354.707 680.716 330.756 664.771 326.349 651.266C323.173 641.72 325.495 630.317 339.387 626.725C351.945 623.486 361.948 634.693 361.948 634.693C361.948 634.693 371.001 623.933 382.996 625.852Z" fill="#F61C7B" fill-opacity="0.2"/>
<path d="M473.508 807.127C499.603 794.217 519.395 811.014 526.483 830.248C536.76 858.228 523.233 907.441 504.754 922.838C491.04 934.362 433.207 935.065 410.252 917.063C393.927 904.41 384.453 882.132 403.041 859.701C419.853 839.437 449.303 846.943 449.303 846.943C449.303 846.943 451.61 817.885 473.508 807.127Z" fill="#F61C7B" fill-opacity="0.2"/>
<path d="M770.384 585.899C791.243 574.709 815.464 589.311 815.464 589.311C815.464 589.311 826.188 561.843 851.67 560.037C879.865 558.053 892.08 578.116 892.834 598.141C894.058 626.418 860.82 671.631 843.981 675.934C821.395 681.806 774.938 664.662 758.679 640.744C747.516 624.285 745.455 599.183 770.384 585.899Z" fill="#F61C7B" fill-opacity="0.2"/>
<path d="M1000 935.831C979.947 941.67 959.327 943.029 946.428 938.284C927.341 931.352 893.869 874.971 898.531 842.23C901.701 819.031 918.202 797.101 950.76 802.636C980.185 807.655 989.509 840.824 989.509 840.824C989.509 840.824 993.635 838.859 1000 837.183V935.831Z" fill="#F61C7B" fill-opacity="0.2"/>
<path d="M1000 527.264C997.504 526.675 995.298 525.862 993.515 524.824C985.296 520.085 974.65 491.395 979.591 476.686C982.438 468.051 989.424 460.557 1000 461.168V527.264Z" fill="#F61C7B" fill-opacity="0.2"/>
</svg>
