<svg width="250" height="250" viewBox="1 0 1000 1000" fill="none" xmlns="http://www.w3.org/2000/svg"><path fill-rule="evenodd" clip-rule="evenodd" d="M.794 835.952a4.518 4.518 0 0 1 2.543.314c8.034 3.409 2.38 22.268 2.38 22.268s7.15-21.061 15.35-17.517c11.008 4.757 1.107 44.073-20.273 51.824v-56.889zM610.254 1000c1.838-6.286 5.243-12.244 10.584-17.585 25.638-25.638 67.458-5.811 89.292 17.585h-99.876zm390.536-107.56c-4.371 1.823-9.251 2.324-14.551.904-30.33-8.127-17.634-66.794-1.663-61.829 8.001 2.487 2.38 22.267 2.38 22.267s6.42-18.359 13.834-17.882v56.54zm0-193.44c-20.827-13.006-12.686-54.676 0-62.384V699zm0-284.526c-9.173 3.087-26.268-5.843-11.633-20.968-19.489 7.225-27.141-36.739 2.926-26.122-12.621-13.183-1.082-22.671 8.707-19.641v66.731zm0-177.752c-19.451-15.958-31.019-82.441 0-108.494v108.494zM710.963 0c12.26 13.508 17.752 28.018 9.592 35.556-11.286 10.427-37.546-16.636-37.546-16.636s26.523 30.806 13.743 40.439c-12.78 9.634-37.546-16.636-37.546-16.636s26.889 30.666 13.743 40.44C654.805 96.651 598.902 41.535 610 0h100.963zM.793 128.218c4.83-4.053 10.693-7.127 17.717-8.878 59.222-14.765 92.925 96.939 61.094 103.55-15.946 3.311-25.031-35.614-25.031-35.614s7.28 42.47-9.591 44.246c-16.871 1.775-25.031-35.614-25.031-35.614s7.689 42.544-9.592 44.246c-3.292.324-6.525-.932-9.565-3.422V128.218zm0 219.524c4.743 1.468 9.076 5.87 10.058 14.209 11.24-14.558 43.915 5.361 13.434 20.767 28.288 19.083-5.175 42.025-18.954 21.403 1.683 5.763-.754 9.078-4.537 10.351v-66.73zm0 288.875c2.03-1.232 4.175-1.596 6.337-.836 8.409 2.957 1.66 23.766 1.66 23.766s8.597-21.96 17.004-18.021c8.408 3.938 1.66 23.765 1.66 23.765s8.426-22.109 17.005-18.021c13.727 6.541-6.053 64.133-37.98 54.308a24.04 24.04 0 0 1-5.685-2.575v-62.386zM133.5 786.043c10.031-23.209 106.94 6.138 92.564 59.79-14.376 53.652-118.154 31.194-109.372 2.942 4.399-14.154 39.389-4.211 39.389-4.211s-37.015-12.943-30.985-27.155c6.03-14.211 39.39-4.211 39.39-4.211s-37.255-12.649-30.986-27.155zm629.333-54.001c2.076 13.681-51.412 28.165-60.299-.904-8.888-29.07 45.79-48.743 49.907-33.084 2.063 7.844-17.06 13.377-17.06 13.377s20.933-4.728 22.256 3.617c1.323 8.344-17.06 13.378-17.06 13.378s20.959-4.934 22.256 3.616zm-451.244 10.832c-2.897 17.553-74.055 14.013-73.373-25.064.682-39.076 75.358-41.409 74.171-20.626-.595 10.412-26.176 9.58-26.176 9.58s27.475 2.536 25.777 13.265c-1.698 10.729-26.176 9.58-26.176 9.58s27.588 2.294 25.777 13.265zM165.856 20.318c12.463 3.427 4.501 54.571-23.681 51.111-28.181-3.461-24.196-57.592-9.27-55.156 7.478 1.22 4.934 19.639 4.934 19.639s3.919-19.658 11.542-17.617c7.623 2.042 4.933 19.64 4.933 19.64s3.753-19.758 11.542-17.617zM591.004 824.21c-3.788-11.239 39.206-31.426 51.034-8.211 11.829 23.215-31.397 47.96-37.203 35.355-2.909-6.315 12.409-13.831 12.409-13.831s-16.966 7.106-19.325.259c-2.358-6.847 12.41-13.831 12.41-13.831s-16.957 7.284-19.325.259zM77.403 519.122c-7.36-2.825-11.035-11.082-8.21-18.441 2.825-7.36 11.08-11.036 18.44-8.211 7.36 2.825 11.037 11.082 8.21 18.441-2.824 7.36-11.08 11.036-18.44 8.211zm193.706 39.184c.134 7.705-6.003 14.06-13.708 14.194-7.704.135-14.059-6.002-14.194-13.707-.134-7.705 6.003-14.06 13.707-14.194 7.705-.135 14.06 6.002 14.195 13.707zm247.035-81.857c6.867-2.365 14.351 1.285 16.716 8.153 2.365 6.867-1.285 14.351-8.153 16.716-6.867 2.365-14.351-1.286-16.716-8.153-2.365-6.868 1.285-14.352 8.153-16.716zm368.464 360.564c22.802 14.456-24.336 111.755-78.517 87.632-54.18-24.123-13.161-129.818 15.167-115.837 14.192 7.004-2.139 42.244-2.139 42.244s19.833-36.875 33.814-28.142c13.98 8.734-2.139 42.245-2.139 42.245s19.563-37.176 33.814-28.142zM104.803 670.061c6.609-4.458 15.58-2.714 20.038 3.895 4.457 6.609 2.714 15.58-3.895 20.038s-15.581 2.714-20.038-3.895c-4.458-6.609-2.714-15.58 3.895-20.038zm49.322-91.858c7.617-.133 13.899 5.933 14.032 13.549.133 7.617-5.934 13.899-13.55 14.032-7.616.133-13.899-5.934-14.031-13.55-.133-7.617 5.933-13.899 13.549-14.031zm195.606 53.77c-6.566-7.554-5.766-19.001 1.788-25.567 7.554-6.567 19.001-5.766 25.567 1.788 6.567 7.553 5.766 19-1.787 25.567-7.554 6.566-19.001 5.766-25.568-1.788zm-56.442-525.468c-21.36-4.686-12.437-91.802 35.484-88.451 47.922 3.351 45.982 95.163 20.547 92.369-12.742-1.399-10.075-32.746-10.075-32.746s-4.88 33.561-17.94 30.787c-13.061-2.774-10.075-32.746-10.075-32.746s-4.592 33.716-17.941 30.787zm-140.33 360.631c-6.062-20.299 71.942-53.653 91.609-11.476 19.667 42.176-59.035 83.653-68.613 60.791-4.799-11.454 23.013-23.916 23.013-23.916s-30.728 11.627-34.511-.742c-3.783-12.369 23.013-23.916 23.013-23.916s-30.723 11.945-34.511-.741zm422.176 93.955c1.939-20.617 84.847-22.283 87.227 23.143 2.381 45.426-84.133 54.198-84.443 29.971-.155-12.138 29.614-13.249 29.614-13.249s-32.106-.713-31.006-13.308c1.1-12.596 29.614-13.249 29.614-13.249s-32.218-.424-31.006-13.308zm410.476-64.873c14.305 5.613-1.519 65.081-34.403 57.458-32.885-7.623-21.389-71.122-4.047-66.372 8.688 2.38 3.371 23.839 3.371 23.839s7.097-22.751 15.854-19.382c8.757 3.369 3.371 23.838 3.371 23.838s6.914-22.889 15.854-19.381zM317.783 181.881c2.857 7.442-.86 15.791-8.303 18.648-7.442 2.857-15.791-.86-18.648-8.303-2.857-7.442.861-15.791 8.303-18.648 7.442-2.857 15.791.861 18.648 8.303zM433.159 41.188c5.022 3.785 6.026 10.924 2.241 15.947-3.785 5.022-10.924 6.026-15.947 2.241-5.022-3.785-6.026-10.924-2.241-15.947 3.785-5.022 10.924-6.026 15.947-2.241zm-74.64 329.348c-16.969 21.43-109.953-36.332-79.929-88.335 30.023-52.002 132.11.487 115.034 27.531-8.554 13.549-42.31-6.624-42.31-6.624s35.031 23.873 24.758 37.026c-10.274 13.153-42.311-6.624-42.311-6.624s35.363 23.633 24.758 37.026zm186.033 6.148c-4.083-18.227 66.578-42.767 81.283-4.46 14.704 38.308-57.071 69.949-64.09 49.25-3.516-10.369 21.713-19.62 21.713-19.62s-27.742 8.337-30.309-2.775 21.713-19.62 21.713-19.62-27.758 8.616-30.31-2.775zm437.629 415.313c-8.186 5.759-19.491 3.792-25.25-4.395-5.759-8.186-3.791-19.491 4.395-25.25s19.491-3.791 25.25 4.395 3.792 19.491-4.395 25.25zm-11.878-176.581a9.368 9.368 0 0 1-11.902-5.819 9.368 9.368 0 1 1 11.902 5.819zM102.724 900.342c9.832 0 17.802 7.971 17.802 17.802 0 9.832-7.97 17.803-17.802 17.803s-17.802-7.971-17.802-17.803c0-9.831 7.97-17.802 17.802-17.802zm124.331 60.55c-7.193 6.035-17.916 5.097-23.951-2.096-6.035-7.192-5.097-17.915 2.095-23.95 7.193-6.035 17.916-5.097 23.951 2.095 6.035 7.193 5.097 17.916-2.095 23.951zm516.814-24.445c-5.893 8.416-17.494 10.462-25.91 4.569-8.417-5.894-10.462-17.494-4.569-25.911 5.893-8.416 17.494-10.462 25.91-4.569 8.417 5.894 10.463 17.494 4.569 25.911zm-198.73-226.549c-28.927 7.712-14.363-53.967 16.001-23.165-9.841-28.601 54.38-38.221 37.901 5.155 29.109-26.579 44.547 23.988 7.258 27.49 20.791 16.852-9.31 63.704-30.675 18.83-28.734 40.497-60.96-8.974-30.485-28.31zM385.066 487.937c5.354 18.587-34.678 9.974-15.171-10.039-18.35 6.726-25.392-34.637 2.842-24.551-17.545-18.461 14.922-29.086 17.665-5.042 10.619-13.649 41.273 5.193 12.56 19.573 26.531 18.041-5.012 39.496-17.896 20.059zm-11.876 458.52c13.516 13.527-25.245 25.202-17.926-1.438-12.666 14.589-38.526-17.843-9.272-22.605-24.006-7.593-.985-32.303 12.878-12.805 2.668-16.886 38.2-15.228 20.223 10.937 31.581 2.935 14.535 36.576-5.903 25.911zm439.254-452.918c13.516 13.527-25.245 25.202-17.926-1.438-12.666 14.589-38.526-17.843-9.272-22.605-24.006-7.593-.985-32.303 12.878-12.805 2.668-16.886 38.2-15.228 20.223 10.937 31.581 2.935 14.535 36.576-5.903 25.911zm-654.075-344.51c-21.54-5.303 9.909-40.177 18.652-9.343 3.804-22.087 48.951-5.441 22.782 16.861 28.384-6.888 20.385 31.463-5.086 20.444 7.498 18.359-28.758 38.061-26.639 1.296-33.103 16.061-36.398-27.562-9.709-29.258zm-26.843 183.97c-28.926 7.712-14.363-53.966 16.001-23.164-9.84-28.602 54.381-38.222 37.902 5.155 29.108-26.579 44.547 23.987 7.257 27.49 20.792 16.852-9.309 63.703-30.675 18.83-28.734 40.496-60.959-8.974-30.485-28.311zm480.78-97.53c15.962-19.25 35.896 29.791.316 23.514 20.542 14.711-18.527 52.34-28.299 14.833-6.955 32.182-41.938 5.226-18.245-15.204-22.311-1.412-24.49-47.877 11.772-27.665-.034-41.477 45.846-23.391 34.456 4.522zm127.746 163.368c2.721 6.734-.533 14.399-7.267 17.12-6.735 2.721-14.399-.533-17.12-7.267-2.721-6.734.532-14.399 7.267-17.12 6.734-2.721 14.399.533 17.12 7.267zm185.963-131.07c6.242-.767 11.924 3.672 12.69 9.914.766 6.242-3.672 11.924-9.914 12.69-6.242.766-11.924-3.672-12.69-9.914-.766-6.242 3.672-11.924 9.914-12.69zM32.312 799.766c-6.174-1.2-10.205-7.177-9.005-13.35 1.2-6.174 7.177-10.205 13.35-9.005 6.174 1.2 10.205 7.177 9.005 13.35-1.2 6.173-7.177 10.205-13.35 9.005zm447.291-481.102c5.022 3.785 6.026 10.925 2.241 15.947-3.785 5.023-10.924 6.026-15.947 2.241-5.022-3.785-6.026-10.924-2.241-15.947 3.785-5.022 10.924-6.026 15.947-2.241zm-342.951-68.807c3.15 4.498 2.057 10.698-2.441 13.848-4.499 3.15-10.699 2.057-13.849-2.442-3.15-4.498-2.057-10.698 2.442-13.848 4.498-3.15 10.699-2.057 13.848 2.442zM868.32 651.19c-8.789-1.235-14.913-9.361-13.677-18.151 1.235-8.789 9.361-14.912 18.15-13.677 8.789 1.235 14.913 9.362 13.678 18.151-1.235 8.789-9.362 14.912-18.151 13.677zm70.648-242.993c-1.552 5.77-7.487 9.19-13.258 7.638-5.77-1.552-9.19-7.487-7.638-13.258 1.552-5.77 7.487-9.19 13.258-7.638 5.77 1.552 9.19 7.487 7.638 13.258zM466.681 181.396c5.185 7.508-22.326 31.551-35.995 16.893-13.669-14.658 13.047-42.121 20.013-34.031 3.49 4.052-6.243 12.858-6.243 12.858s11.039-8.852 14.234-4.289c3.196 4.563-6.243 12.859-6.243 12.859s10.994-8.982 14.234-4.29zm30.578 736.096c6.105-6.78 16.55-7.327 23.329-1.223 6.78 6.105 7.328 16.55 1.223 23.33-6.105 6.78-16.55 7.327-23.329 1.223-6.78-6.105-7.328-16.55-1.223-23.33zm239.877-346.907c-6.052-.851-10.269-6.447-9.418-12.499.85-6.052 6.446-10.269 12.498-9.418 6.052.85 10.269 6.446 9.419 12.498-.851 6.053-6.447 10.269-12.499 9.419zm220.326 399.397c-6.053-.851-10.269-6.447-9.419-12.499.851-6.052 6.447-10.269 12.499-9.418 6.052.85 10.269 6.446 9.418 12.498-.85 6.052-6.446 10.269-12.498 9.419zM374.583 843.26c-29.24-10.858.657-132.139 67.681-117.892 67.024 14.246 46.057 143.545 10.686 134.55-17.721-4.507-7.731-48.254-7.731-48.254s-13.555 46.436-31.452 39.925c-17.897-6.511-7.731-48.254-7.731-48.254s-13.178 46.712-31.453 39.925zm467.709-726.88c-22.385-17.329 36.378-114.275 90.57-83.773 54.193 30.503.994 136.815-27.206 119.438-14.128-8.705 6.38-43.89 6.38-43.89s-24.325 36.548-38.062 26.058c-13.737-10.49 6.38-43.891 6.38-43.891s-24.073 36.889-38.062 26.058zm-264.43-4.247c4.741 8.916 1.356 19.987-7.559 24.727-8.916 4.741-19.986 1.356-24.727-7.56-4.741-8.915-1.356-19.986 7.56-24.726 8.915-4.741 19.986-1.356 24.726 7.559zm125.336 43.656c7.665-4.075 17.181-1.166 21.257 6.499 4.075 7.664 1.165 17.181-6.499 21.256-7.664 4.075-17.181 1.166-21.256-6.499-4.075-7.664-1.166-17.181 6.498-21.256zM59.51 50.073c6.91-1.095 13.4 3.621 14.496 10.532 1.095 6.911-3.621 13.401-10.532 14.496-6.911 1.095-13.402-3.621-14.496-10.532-1.095-6.911 3.62-13.402 10.532-14.496zm443.888 550.659c1.846 10.468-5.143 20.449-15.611 22.295s-20.449-5.144-22.295-15.611c-1.846-10.468 5.144-20.45 15.611-22.295 10.468-1.846 20.449 5.143 22.295 15.611zm314.62 151.034c6.105-6.78 16.55-7.327 23.33-1.223 6.78 6.105 7.327 16.55 1.223 23.33-6.105 6.78-16.55 7.327-23.33 1.222-6.78-6.104-7.327-16.549-1.223-23.329zm-52.416-548.949c18.209-25.648 128.538 35.127 97.169 96.693-31.369 61.565-151.84 7.397-133.847-24.709 9.015-16.084 49.019 5.065 49.019 5.065s-41.693-25.324-30.68-41.057c11.014-15.733 49.019 5.064 49.019 5.064s-42.059-25.027-30.68-41.056zm32.475-121.845c4.607 3.599 5.424 10.251 1.825 14.858-3.6 4.607-10.252 5.424-14.858 1.824-4.607-3.599-5.424-10.251-1.825-14.857 3.599-4.607 10.252-5.424 14.858-1.825z" fill="#000"/></svg>